//Event file generated from Sappy .s format.
	#include "MPlayDef.event"

	#define	CelicaMap1SSBB_Song_grp  voicegroup000
	#define	CelicaMap1SSBB_Song_pri  0
	#define	CelicaMap1SSBB_Song_rev  0
	#define	CelicaMap1SSBB_Song_mvl  127
	#define	CelicaMap1SSBB_Song_key  0
	#define	CelicaMap1SSBB_Song_tbs  1
	#define	CelicaMap1SSBB_Song_exg  0
	#define	CelicaMap1SSBB_Song_cmp  1

	// .rodata
	//	CelicaMap1SSBB_Song
	ALIGN 4


//**************** Track 1 (Midi-Chn.0) ****************//

CelicaMap1SSBB_Song_001:
//  #01 //000   ----------------------------------------
 BYTE   KEYSH   CelicaMap1SSBB_Song_key+0
 BYTE   TEMPO   124*CelicaMap1SSBB_Song_tbs/2
 BYTE   VOICE   61
 BYTE   VOL   22*CelicaMap1SSBB_Song_mvl/mxv
 BYTE   PAN   c_v-44
 BYTE   W24
 BYTE   TEMPO   158*CelicaMap1SSBB_Song_tbs/2
 BYTE   N11  Fn3  v127
 BYTE   N11  As3
 BYTE   W12
 BYTE   Fn3
 BYTE   N11  As3
 BYTE   W24
 BYTE   Fn3
 BYTE   N11  As3
 BYTE   W12
 BYTE   Fn3
 BYTE   N11  As3
 BYTE   W24
//  #01 //001   ----------------------------------------
Label_017D452F:
 BYTE   N11  Fn3  v127
 BYTE   N11  As3
 BYTE   W12
 BYTE   Fn3
 BYTE   N11  As3
 BYTE   W24
 BYTE   Fn3
 BYTE   N11  As3
 BYTE   W12
 BYTE   Fn3
 BYTE   N11  As3
 BYTE   W24
 BYTE   Fs3
 BYTE   N11  Bn3
 BYTE   W12
 BYTE   Fs3
 BYTE   N11  Bn3
 BYTE   W12
 BYTE   PEND 
//  #01 //002   ----------------------------------------
Label_017D454A:
 BYTE   W12
 BYTE   N11  Fs3  v127
 BYTE   N11  Bn3
 BYTE   W12
 BYTE   Fn3
 BYTE   N11  As3
 BYTE   N11  Fn4
 BYTE   W12
 BYTE   Fn3
 BYTE   N11  As3
 BYTE   N11  Fn4
 BYTE   W24
 BYTE   Fn3
 BYTE   N11  As3
 BYTE   N11  Fn4
 BYTE   W12
 BYTE   Fn3
 BYTE   N11  As3
 BYTE   N11  Fn4
 BYTE   W24
 BYTE   PEND 
//  #01 //003   ----------------------------------------
Label_017D456A:
 BYTE   N11  Fn3  v127
 BYTE   N11  As3
 BYTE   N11  Fn4
 BYTE   W12
 BYTE   Fn3
 BYTE   N11  As3
 BYTE   N11  Fn4
 BYTE   W24
 BYTE   Fn3
 BYTE   N11  As3
 BYTE   N11  Fn4
 BYTE   W12
 BYTE   Fn3
 BYTE   N11  As3
 BYTE   N11  Fn4
 BYTE   W24
 BYTE   Fs3
 BYTE   N11  Bn3
 BYTE   N11  Fs4
 BYTE   W12
 BYTE   Fs3
 BYTE   N11  Bn3
 BYTE   N11  Fs4
 BYTE   W12
 BYTE   PEND 
//  #01 //004   ----------------------------------------
Label_017D4591:
 BYTE   W12
 BYTE   N11  Fs3  v127
 BYTE   N11  Bn3
 BYTE   N11  Fs4
 BYTE   W84
 BYTE   PEND 
//  #01 //005   ----------------------------------------
 BYTE   W96
//  #01 //006   ----------------------------------------
 BYTE   W96
//  #01 //007   ----------------------------------------
 BYTE   W96
//  #01 //008   ----------------------------------------
 BYTE   W96
//  #01 //009   ----------------------------------------
 BYTE   W96
//  #01 //010   ----------------------------------------
 BYTE   W96
//  #01 //011   ----------------------------------------
 BYTE   W96
//  #01 //012   ----------------------------------------
 BYTE   W96
//  #01 //013   ----------------------------------------
Label_017D45A3:
 BYTE   W24
 BYTE   N11  Fn3  v127
 BYTE   N11  As3
 BYTE   W12
 BYTE   Fn3
 BYTE   N11  As3
 BYTE   W24
 BYTE   Fn3
 BYTE   N11  As3
 BYTE   W12
 BYTE   Fn3
 BYTE   N11  As3
 BYTE   W24
 BYTE   PEND 
//  #01 //014   ----------------------------------------
 BYTE   PATT
  POIN2 Label_017D452F
//  #01 //015   ----------------------------------------
 BYTE   PATT
  POIN2 Label_017D454A
//  #01 //016   ----------------------------------------
 BYTE   PATT
  POIN2 Label_017D456A
//  #01 //017   ----------------------------------------
 BYTE   PATT
  POIN2 Label_017D4591
//  #01 //018   ----------------------------------------
 BYTE   W96
//  #01 //019   ----------------------------------------
 BYTE   W96
//  #01 //020   ----------------------------------------
 BYTE   W96
//  #01 //021   ----------------------------------------
 BYTE   W96
//  #01 //022   ----------------------------------------
 BYTE   W96
//  #01 //023   ----------------------------------------
 BYTE   W96
//  #01 //024   ----------------------------------------
 BYTE   W96
//  #01 //025   ----------------------------------------
 BYTE   N11  Fn3  v127
 BYTE   N11  As3
 BYTE   W96
//  #01 //026   ----------------------------------------
 BYTE   Fs3
 BYTE   N11  Bn3
 BYTE   W96
//  #01 //027   ----------------------------------------
 BYTE   Gn3
 BYTE   N11  Cn4
 BYTE   W96
//  #01 //028   ----------------------------------------
 BYTE   Gs3
 BYTE   N11  Cs4
 BYTE   W96
//  #01 //029   ----------------------------------------
 BYTE   Fn4
 BYTE   N11  As4
 BYTE   W96
//  #01 //030   ----------------------------------------
 BYTE   Fs4
 BYTE   N11  Bn4
 BYTE   W96
//  #01 //031   ----------------------------------------
 BYTE   Gn4
 BYTE   N11  Cn5
 BYTE   W96
//  #01 //032   ----------------------------------------
 BYTE   Gs4
 BYTE   N11  Cs5
 BYTE   W96
//  #01 //033   ----------------------------------------
 BYTE   W96
//  #01 //034   ----------------------------------------
 BYTE   W96
//  #01 //035   ----------------------------------------
 BYTE   W96
//  #01 //036   ----------------------------------------
 BYTE   W96
//  #01 //037   ----------------------------------------
 BYTE   W96
//  #01 //038   ----------------------------------------
 BYTE   W96
//  #01 //039   ----------------------------------------
 BYTE   W96
//  #01 //040   ----------------------------------------
 BYTE   PATT
  POIN2 Label_017D45A3
//  #01 //041   ----------------------------------------
 BYTE   PATT
  POIN2 Label_017D452F
//  #01 //042   ----------------------------------------
Label_017D4605:
 BYTE   W12
 BYTE   N11  Fs3  v127
 BYTE   N11  Bn3
 BYTE   W12
 BYTE   Fn3
 BYTE   N11  As3
 BYTE   W12
 BYTE   Fn3
 BYTE   N11  As3
 BYTE   W24
 BYTE   Fn3
 BYTE   N11  As3
 BYTE   W12
 BYTE   Fn3
 BYTE   N11  As3
 BYTE   W24
 BYTE   PEND 
//  #01 //043   ----------------------------------------
 BYTE   PATT
  POIN2 Label_017D452F
//  #01 //044   ----------------------------------------
 BYTE   PATT
  POIN2 Label_017D4605
//  #01 //045   ----------------------------------------
 BYTE   PATT
  POIN2 Label_017D452F
//  #01 //046   ----------------------------------------
 BYTE   PATT
  POIN2 Label_017D454A
//  #01 //047   ----------------------------------------
 BYTE   PATT
  POIN2 Label_017D456A
//  #01 //048   ----------------------------------------
 BYTE   PATT
  POIN2 Label_017D4591
//  #01 //049   ----------------------------------------
Label_017D463B:
 BYTE   N20  Gs3  v127
 BYTE   N20  Ds4
 BYTE   N20  Gs4
 BYTE   W24
 BYTE   As3
 BYTE   N20  Fn4
 BYTE   N20  As4
 BYTE   W72
 BYTE   PEND 
//  #01 //050   ----------------------------------------
 BYTE   W96
//  #01 //051   ----------------------------------------
 BYTE   W96
//  #01 //052   ----------------------------------------
 BYTE   W96
//  #01 //053   ----------------------------------------
 BYTE   W96
//  #01 //054   ----------------------------------------
 BYTE   W96
//  #01 //055   ----------------------------------------
 BYTE   W96
//  #01 //056   ----------------------------------------
 BYTE   W96
//  #01 //057   ----------------------------------------
 BYTE   W96
//  #01 //058   ----------------------------------------
 BYTE   W96
//  #01 //059   ----------------------------------------
 BYTE   W96
//  #01 //060   ----------------------------------------
 BYTE   W96
//  #01 //061   ----------------------------------------
 BYTE   W96
//  #01 //062   ----------------------------------------
 BYTE   W96
//  #01 //063   ----------------------------------------
 BYTE   W96
//  #01 //064   ----------------------------------------
 BYTE   W96
//  #01 //065   ----------------------------------------
 BYTE   W96
//  #01 //066   ----------------------------------------
 BYTE   W96
//  #01 //067   ----------------------------------------
 BYTE   W96
//  #01 //068   ----------------------------------------
 BYTE   W96
//  #01 //069   ----------------------------------------
Label_017D465D:
 BYTE   W48
 BYTE   N11  Cs4  v127
 BYTE   W12
 BYTE   Cn4
 BYTE   W12
 BYTE   Cs4
 BYTE   W12
 BYTE   N11
 BYTE   W12
 BYTE   PEND 
//  #01 //070   ----------------------------------------
Label_017D4669:
 BYTE   W12
 BYTE   N11  Ds4  v127
 BYTE   W48
 BYTE   Cs4
 BYTE   W24
 BYTE   N11
 BYTE   W12
 BYTE   PEND 
//  #01 //071   ----------------------------------------
Label_017D4673:
 BYTE   N11  Ds4  v127
 BYTE   W48
 BYTE   Cs4
 BYTE   N11  Fn4
 BYTE   W12
 BYTE   Cn4
 BYTE   N11  Ds4
 BYTE   W12
 BYTE   Cs4
 BYTE   N11  Fn4
 BYTE   W12
 BYTE   Cs4
 BYTE   N11  Fn4
 BYTE   W12
 BYTE   PEND 
//  #01 //072   ----------------------------------------
Label_017D4688:
 BYTE   W12
 BYTE   N11  Ds4  v127
 BYTE   N11  Fs4
 BYTE   W48
 BYTE   As3
 BYTE   N11  Ds4
 BYTE   W24
 BYTE   As3
 BYTE   N11  Ds4
 BYTE   W12
 BYTE   PEND 
//  #01 //073   ----------------------------------------
Label_017D4698:
 BYTE   N11  Ds4  v127
 BYTE   N11  Fs4
 BYTE   W48
 BYTE   Fn4
 BYTE   N11  Gs4
 BYTE   W12
 BYTE   Ds4
 BYTE   N11  Fs4
 BYTE   W12
 BYTE   Fn4
 BYTE   N11  Gs4
 BYTE   W12
 BYTE   Fn4
 BYTE   N11  Gs4
 BYTE   W12
 BYTE   PEND 
//  #01 //074   ----------------------------------------
Label_017D46AF:
 BYTE   W12
 BYTE   N11  Fs4  v127
 BYTE   N11  As4
 BYTE   W48
 BYTE   Ds4
 BYTE   N11  Fs4
 BYTE   W24
 BYTE   Ds4
 BYTE   N11  Fs4
 BYTE   W12
 BYTE   PEND 
//  #01 //075   ----------------------------------------
Label_017D46BF:
 BYTE   N11  Fs4  v127
 BYTE   N11  As4
 BYTE   W48
 BYTE   Cs4
 BYTE   N11  Fn4
 BYTE   N11  Cs5
 BYTE   W12
 BYTE   Cn4
 BYTE   N11  Ds4
 BYTE   N11  Cn5
 BYTE   W12
 BYTE   Cs4
 BYTE   N11  Fn4
 BYTE   N11  Cs5
 BYTE   W12
 BYTE   Cs4
 BYTE   N11  Fn4
 BYTE   N11  Cs5
 BYTE   W12
 BYTE   PEND 
//  #01 //076   ----------------------------------------
Label_017D46DE:
 BYTE   W12
 BYTE   N11  Ds4  v127
 BYTE   N11  Fs4
 BYTE   N11  Ds5
 BYTE   W48
 BYTE   As3
 BYTE   N11  Ds4
 BYTE   N11  As4
 BYTE   W24
 BYTE   As3
 BYTE   N11  Ds4
 BYTE   N11  As4
 BYTE   W12
 BYTE   PEND 
//  #01 //077   ----------------------------------------
Label_017D46F4:
 BYTE   N11  Ds4  v127
 BYTE   N11  Fs4
 BYTE   N11  Ds5
 BYTE   W96
 BYTE   PEND 
//  #01 //078   ----------------------------------------
 BYTE   W96
//  #01 //079   ----------------------------------------
 BYTE   W96
//  #01 //080   ----------------------------------------
 BYTE   W96
//  #01 //081   ----------------------------------------
Label_017D4700:
 BYTE   W24
 BYTE   TEMPO   158*CelicaMap1SSBB_Song_tbs/2
 BYTE   N11  Fn3  v127
 BYTE   N11  As3
 BYTE   W12
 BYTE   Fn3
 BYTE   N11  As3
 BYTE   W24
 BYTE   Fn3
 BYTE   N11  As3
 BYTE   W12
 BYTE   Fn3
 BYTE   N11  As3
 BYTE   W24
//  #01 //082   ----------------------------------------
 BYTE   PATT
  POIN2 Label_017D452F
//  #01 //083   ----------------------------------------
 BYTE   PATT
  POIN2 Label_017D454A
//  #01 //084   ----------------------------------------
 BYTE   PATT
  POIN2 Label_017D456A
//  #01 //085   ----------------------------------------
 BYTE   PATT
  POIN2 Label_017D4591
//  #01 //086   ----------------------------------------
 BYTE   W96
//  #01 //087   ----------------------------------------
 BYTE   W96
//  #01 //088   ----------------------------------------
 BYTE   W96
//  #01 //089   ----------------------------------------
 BYTE   W96
//  #01 //090   ----------------------------------------
 BYTE   W96
//  #01 //091   ----------------------------------------
 BYTE   W96
//  #01 //092   ----------------------------------------
 BYTE   W96
//  #01 //093   ----------------------------------------
 BYTE   W96
//  #01 //094   ----------------------------------------
 BYTE   PATT
  POIN2 Label_017D45A3
//  #01 //095   ----------------------------------------
 BYTE   PATT
  POIN2 Label_017D452F
//  #01 //096   ----------------------------------------
 BYTE   PATT
  POIN2 Label_017D454A
//  #01 //097   ----------------------------------------
 BYTE   PATT
  POIN2 Label_017D456A
//  #01 //098   ----------------------------------------
 BYTE   PATT
  POIN2 Label_017D4591
//  #01 //099   ----------------------------------------
 BYTE   W96
//  #01 //100   ----------------------------------------
 BYTE   W96
//  #01 //101   ----------------------------------------
 BYTE   W96
//  #01 //102   ----------------------------------------
 BYTE   W96
//  #01 //103   ----------------------------------------
 BYTE   W96
//  #01 //104   ----------------------------------------
 BYTE   W96
//  #01 //105   ----------------------------------------
 BYTE   W96
//  #01 //106   ----------------------------------------
 BYTE   N11  Fn3  v127
 BYTE   N11  As3
 BYTE   W96
//  #01 //107   ----------------------------------------
 BYTE   Fs3
 BYTE   N11  Bn3
 BYTE   W96
//  #01 //108   ----------------------------------------
 BYTE   Gn3
 BYTE   N11  Cn4
 BYTE   W96
//  #01 //109   ----------------------------------------
 BYTE   Gs3
 BYTE   N11  Cs4
 BYTE   W96
//  #01 //110   ----------------------------------------
 BYTE   Fn4
 BYTE   N11  As4
 BYTE   W96
//  #01 //111   ----------------------------------------
 BYTE   Fs4
 BYTE   N11  Bn4
 BYTE   W96
//  #01 //112   ----------------------------------------
 BYTE   Gn4
 BYTE   N11  Cn5
 BYTE   W96
//  #01 //113   ----------------------------------------
 BYTE   Gs4
 BYTE   N11  Cs5
 BYTE   W96
//  #01 //114   ----------------------------------------
 BYTE   W96
//  #01 //115   ----------------------------------------
 BYTE   W96
//  #01 //116   ----------------------------------------
 BYTE   W96
//  #01 //117   ----------------------------------------
 BYTE   W96
//  #01 //118   ----------------------------------------
 BYTE   W96
//  #01 //119   ----------------------------------------
 BYTE   W96
//  #01 //120   ----------------------------------------
 BYTE   W96
//  #01 //121   ----------------------------------------
 BYTE   PATT
  POIN2 Label_017D45A3
//  #01 //122   ----------------------------------------
 BYTE   PATT
  POIN2 Label_017D452F
//  #01 //123   ----------------------------------------
 BYTE   PATT
  POIN2 Label_017D4605
//  #01 //124   ----------------------------------------
 BYTE   PATT
  POIN2 Label_017D452F
//  #01 //125   ----------------------------------------
 BYTE   PATT
  POIN2 Label_017D4605
//  #01 //126   ----------------------------------------
 BYTE   PATT
  POIN2 Label_017D452F
//  #01 //127   ----------------------------------------
 BYTE   PATT
  POIN2 Label_017D454A
//  #01 //128   ----------------------------------------
 BYTE   PATT
  POIN2 Label_017D456A
//  #01 //129   ----------------------------------------
 BYTE   PATT
  POIN2 Label_017D4591
//  #01 //130   ----------------------------------------
 BYTE   PATT
  POIN2 Label_017D463B
//  #01 //131   ----------------------------------------
 BYTE   W96
//  #01 //132   ----------------------------------------
 BYTE   W96
//  #01 //133   ----------------------------------------
 BYTE   W96
//  #01 //134   ----------------------------------------
 BYTE   W96
//  #01 //135   ----------------------------------------
 BYTE   W96
//  #01 //136   ----------------------------------------
 BYTE   W96
//  #01 //137   ----------------------------------------
 BYTE   W96
//  #01 //138   ----------------------------------------
 BYTE   W96
//  #01 //139   ----------------------------------------
 BYTE   W96
//  #01 //140   ----------------------------------------
 BYTE   W96
//  #01 //141   ----------------------------------------
 BYTE   W96
//  #01 //142   ----------------------------------------
 BYTE   W96
//  #01 //143   ----------------------------------------
 BYTE   W96
//  #01 //144   ----------------------------------------
 BYTE   W96
//  #01 //145   ----------------------------------------
 BYTE   W96
//  #01 //146   ----------------------------------------
 BYTE   W96
//  #01 //147   ----------------------------------------
 BYTE   W96
//  #01 //148   ----------------------------------------
 BYTE   W96
//  #01 //149   ----------------------------------------
 BYTE   W96
//  #01 //150   ----------------------------------------
 BYTE   PATT
  POIN2 Label_017D465D
//  #01 //151   ----------------------------------------
 BYTE   PATT
  POIN2 Label_017D4669
//  #01 //152   ----------------------------------------
 BYTE   PATT
  POIN2 Label_017D4673
//  #01 //153   ----------------------------------------
 BYTE   PATT
  POIN2 Label_017D4688
//  #01 //154   ----------------------------------------
 BYTE   PATT
  POIN2 Label_017D4698
//  #01 //155   ----------------------------------------
 BYTE   PATT
  POIN2 Label_017D46AF
//  #01 //156   ----------------------------------------
 BYTE   PATT
  POIN2 Label_017D46BF
//  #01 //157   ----------------------------------------
 BYTE   PATT
  POIN2 Label_017D46DE
//  #01 //158   ----------------------------------------
 BYTE   PATT
  POIN2 Label_017D46F4
//  #01 //159   ----------------------------------------
 BYTE   W96
//  #01 //160   ----------------------------------------
 BYTE   W96
//  #01 //161   ----------------------------------------
 BYTE   W96
//  #01 //162   ----------------------------------------
 BYTE   GoTo
  POIN2 Label_017D4700
//  #01 //163   ----------------------------------------
 BYTE   W23
 BYTE   FINE

//**************** Track 2 (Midi-Chn.1) ****************//

CelicaMap1SSBB_Song_002:
//  #02 //000   ----------------------------------------
 BYTE   KEYSH   CelicaMap1SSBB_Song_key+0
 BYTE   VOICE   48
 BYTE   VOL   37*CelicaMap1SSBB_Song_mvl/mxv
 BYTE   PAN   c_v-24
 BYTE   W24
 BYTE   N11  Fn3  v127
 BYTE   N11  As3
 BYTE   W12
 BYTE   Fn3
 BYTE   N11  As3
 BYTE   W24
 BYTE   Fn3
 BYTE   N11  As3
 BYTE   W12
 BYTE   Fn3
 BYTE   N11  As3
 BYTE   W24
//  #02 //001   ----------------------------------------
Label_01734ACB:
 BYTE   N11  Fn3  v127
 BYTE   N11  As3
 BYTE   W12
 BYTE   Fn3
 BYTE   N11  As3
 BYTE   W24
 BYTE   Fn3
 BYTE   N11  As3
 BYTE   W12
 BYTE   Fn3
 BYTE   N11  As3
 BYTE   W24
 BYTE   Fs3
 BYTE   N11  Bn3
 BYTE   W12
 BYTE   Fs3
 BYTE   N11  Bn3
 BYTE   W12
 BYTE   PEND 
//  #02 //002   ----------------------------------------
Label_01734AE6:
 BYTE   W12
 BYTE   N11  Fs3  v127
 BYTE   N11  Bn3
 BYTE   W12
 BYTE   Fn3
 BYTE   N11  As3
 BYTE   N11  Fn4
 BYTE   W12
 BYTE   Fn3
 BYTE   N11  As3
 BYTE   N11  Fn4
 BYTE   W24
 BYTE   Fn3
 BYTE   N11  As3
 BYTE   N11  Fn4
 BYTE   W12
 BYTE   Fn3
 BYTE   N11  As3
 BYTE   N11  Fn4
 BYTE   W24
 BYTE   PEND 
//  #02 //003   ----------------------------------------
Label_01734B06:
 BYTE   N11  Fn3  v127
 BYTE   N11  As3
 BYTE   N11  Fn4
 BYTE   W12
 BYTE   Fn3
 BYTE   N11  As3
 BYTE   N11  Fn4
 BYTE   W24
 BYTE   Fn3
 BYTE   N11  As3
 BYTE   N11  Fn4
 BYTE   W12
 BYTE   Fn3
 BYTE   N11  As3
 BYTE   N11  Fn4
 BYTE   W24
 BYTE   Fs3
 BYTE   N11  Bn3
 BYTE   N11  Fs4
 BYTE   W12
 BYTE   Fs3
 BYTE   N11  Bn3
 BYTE   N11  Fs4
 BYTE   W12
 BYTE   PEND 
//  #02 //004   ----------------------------------------
Label_01734B2D:
 BYTE   W12
 BYTE   N11  Fs3  v127
 BYTE   N11  Bn3
 BYTE   N11  Fs4
 BYTE   W84
 BYTE   PEND 
//  #02 //005   ----------------------------------------
 BYTE   W96
//  #02 //006   ----------------------------------------
 BYTE   W96
//  #02 //007   ----------------------------------------
 BYTE   W96
//  #02 //008   ----------------------------------------
 BYTE   W96
//  #02 //009   ----------------------------------------
 BYTE   W96
//  #02 //010   ----------------------------------------
 BYTE   W96
//  #02 //011   ----------------------------------------
 BYTE   W96
//  #02 //012   ----------------------------------------
 BYTE   W96
//  #02 //013   ----------------------------------------
 BYTE   W24
 BYTE   Fn3
 BYTE   N11  As3
 BYTE   W12
 BYTE   Fn3
 BYTE   N11  As3
 BYTE   W24
 BYTE   Fn3
 BYTE   N11  As3
 BYTE   W12
 BYTE   Fn3
 BYTE   N11  As3
 BYTE   W24
//  #02 //014   ----------------------------------------
 BYTE   PATT
  POIN2 Label_01734ACB
//  #02 //015   ----------------------------------------
 BYTE   PATT
  POIN2 Label_01734AE6
//  #02 //016   ----------------------------------------
 BYTE   PATT
  POIN2 Label_01734B06
//  #02 //017   ----------------------------------------
 BYTE   PATT
  POIN2 Label_01734B2D
//  #02 //018   ----------------------------------------
 BYTE   W96
//  #02 //019   ----------------------------------------
 BYTE   W96
//  #02 //020   ----------------------------------------
 BYTE   W96
//  #02 //021   ----------------------------------------
 BYTE   W96
//  #02 //022   ----------------------------------------
 BYTE   W96
//  #02 //023   ----------------------------------------
 BYTE   W96
//  #02 //024   ----------------------------------------
Label_01734B6A:
 BYTE   W24
 BYTE   N90  As2  v076
 BYTE   N90  Fn3
 BYTE   W72
 BYTE   PEND 
//  #02 //025   ----------------------------------------
Label_01734B72:
 BYTE   W24
 BYTE   N90  Bn2  v076
 BYTE   N90  Fs3
 BYTE   W72
 BYTE   PEND 
//  #02 //026   ----------------------------------------
Label_01734B7A:
 BYTE   W24
 BYTE   N90  Cn3  v076
 BYTE   N90  Gn3
 BYTE   W72
 BYTE   PEND 
//  #02 //027   ----------------------------------------
Label_01734B82:
 BYTE   W24
 BYTE   N90  Cs3  v076
 BYTE   N90  Gs3
 BYTE   W72
 BYTE   PEND 
//  #02 //028   ----------------------------------------
 BYTE   PATT
  POIN2 Label_01734B6A
//  #02 //029   ----------------------------------------
 BYTE   PATT
  POIN2 Label_01734B72
//  #02 //030   ----------------------------------------
 BYTE   PATT
  POIN2 Label_01734B7A
//  #02 //031   ----------------------------------------
 BYTE   PATT
  POIN2 Label_01734B82
//  #02 //032   ----------------------------------------
Label_01734B9E:
 BYTE   W24
 BYTE   TIE  Fn3  v127
 BYTE   W72
 BYTE   PEND 
//  #02 //033   ----------------------------------------
 BYTE   W32
 BYTE   W03
 BYTE   EOT
 BYTE   W01
 BYTE   N05  Ds3
 BYTE   W06
 BYTE   Fn3
 BYTE   W06
 BYTE   N11  Fs3
 BYTE   W12
 BYTE   N05  Fn3
 BYTE   W06
 BYTE   Fs3
 BYTE   W06
 BYTE   N11  Gs3
 BYTE   W12
 BYTE   N05  Fs3
 BYTE   W06
 BYTE   Gs3
 BYTE   W06
//  #02 //034   ----------------------------------------
Label_01734BBD:
 BYTE   N11  As3  v127
 BYTE   W12
 BYTE   N05  Bn3
 BYTE   W06
 BYTE   Gs3
 BYTE   W06
 BYTE   TIE  As3
 BYTE   W72
 BYTE   PEND 
//  #02 //035   ----------------------------------------
 BYTE   W32
 BYTE   W03
 BYTE   EOT
 BYTE   W01
 BYTE   N05  Gs3
 BYTE   W06
 BYTE   As3
 BYTE   W06
 BYTE   N11  Bn3
 BYTE   W12
 BYTE   N05  As3
 BYTE   W06
 BYTE   Bn3
 BYTE   W06
 BYTE   N11  Cs4
 BYTE   W12
 BYTE   N05  Bn3
 BYTE   W06
 BYTE   Cs4
 BYTE   W06
//  #02 //036   ----------------------------------------
Label_01734BE3:
 BYTE   N11  Ds4  v127
 BYTE   W12
 BYTE   N05  En4
 BYTE   W06
 BYTE   Bn3
 BYTE   W06
 BYTE   TIE  As3
 BYTE   W72
 BYTE   PEND 
//  #02 //037   ----------------------------------------
 BYTE   W32
 BYTE   W03
 BYTE   EOT
 BYTE   W01
 BYTE   N05  Fn4
 BYTE   W06
 BYTE   As3
 BYTE   W06
 BYTE   N11  Fn4
 BYTE   W12
 BYTE   N05  As3
 BYTE   W06
 BYTE   Fn4
 BYTE   W06
 BYTE   N11  As3
 BYTE   W12
 BYTE   N05  Fn4
 BYTE   W06
 BYTE   As3
 BYTE   W06
//  #02 //038   ----------------------------------------
Label_01734C09:
 BYTE   N11  Fn4  v127
 BYTE   W12
 BYTE   N05  As3
 BYTE   W06
 BYTE   Fn4
 BYTE   W06
 BYTE   N11  As3
 BYTE   W12
 BYTE   N05  Fn4
 BYTE   W06
 BYTE   As3
 BYTE   W06
 BYTE   N11  Fn4
 BYTE   W12
 BYTE   N05  As3
 BYTE   W06
 BYTE   Fn4
 BYTE   W06
 BYTE   N11  As3
 BYTE   W12
 BYTE   N05  Fn4
 BYTE   W06
 BYTE   As3
 BYTE   W06
 BYTE   PEND 
//  #02 //039   ----------------------------------------
 BYTE   PATT
  POIN2 Label_01734C09
//  #02 //040   ----------------------------------------
Label_01734C30:
 BYTE   N11  Fn4  v127
 BYTE   W12
 BYTE   N05  As3
 BYTE   W06
 BYTE   Fn4
 BYTE   W06
 BYTE   N11  Fn3  v108
 BYTE   N11  As3
 BYTE   TIE  As4
 BYTE   W12
 BYTE   N11  Fn3
 BYTE   N11  As3
 BYTE   W24
 BYTE   Fn3
 BYTE   N11  As3
 BYTE   W12
 BYTE   Fn3
 BYTE   N11  As3
 BYTE   W24
 BYTE   PEND 
//  #02 //041   ----------------------------------------
Label_01734C4F:
 BYTE   N11  Fn3  v108
 BYTE   N11  As3
 BYTE   W12
 BYTE   Fn3
 BYTE   N11  As3
 BYTE   W24
 BYTE   Fn3
 BYTE   N11  As3
 BYTE   W12
 BYTE   Fn3
 BYTE   N11  As3
 BYTE   W24
 BYTE   Fs3
 BYTE   N11  Bn3
 BYTE   W12
 BYTE   Fs3
 BYTE   N11  Bn3
 BYTE   W06
 BYTE   PEND 
 BYTE   EOT
 BYTE   As4
 BYTE   W06
//  #02 //042   ----------------------------------------
Label_01734C6D:
 BYTE   W12
 BYTE   N11  Fs3  v108
 BYTE   N11  Bn3
 BYTE   W12
 BYTE   Fn3
 BYTE   N11  As3
 BYTE   TIE  As4
 BYTE   W12
 BYTE   N11  Fn3
 BYTE   N11  As3
 BYTE   W24
 BYTE   Fn3
 BYTE   N11  As3
 BYTE   W12
 BYTE   Fn3
 BYTE   N11  As3
 BYTE   W24
 BYTE   PEND 
//  #02 //043   ----------------------------------------
 BYTE   PATT
  POIN2 Label_01734C4F
//  #02 //044   ----------------------------------------
 BYTE   EOT
 BYTE   As4
 BYTE   W06
Label_01734C90:
 BYTE   W12
 BYTE   N11  Fs3  v108
 BYTE   N11  Bn3
 BYTE   W12
 BYTE   Fn3  v076
 BYTE   N11  As3
 BYTE   W12
 BYTE   Fn3
 BYTE   N11  As3
 BYTE   W24
 BYTE   Fn3
 BYTE   N11  As3
 BYTE   W12
 BYTE   Fn3
 BYTE   N11  As3
 BYTE   W24
 BYTE   PEND 
//  #02 //045   ----------------------------------------
Label_01734CA9:
 BYTE   N11  Fn3  v076
 BYTE   N11  As3
 BYTE   W12
 BYTE   Fn3
 BYTE   N11  As3
 BYTE   W24
 BYTE   Fn3
 BYTE   N11  As3
 BYTE   W12
 BYTE   Fn3
 BYTE   N11  As3
 BYTE   W24
 BYTE   Fs3
 BYTE   N11  Bn3
 BYTE   W12
 BYTE   Fs3
 BYTE   N11  Bn3
 BYTE   W12
 BYTE   PEND 
//  #02 //046   ----------------------------------------
Label_01734CC4:
 BYTE   W12
 BYTE   N11  Fs3  v076
 BYTE   N11  Bn3
 BYTE   W12
 BYTE   Fn3
 BYTE   N11  As3
 BYTE   N11  Fn4
 BYTE   W12
 BYTE   Fn3
 BYTE   N11  As3
 BYTE   N11  Fn4
 BYTE   W24
 BYTE   Fn3
 BYTE   N11  As3
 BYTE   N11  Fn4
 BYTE   W12
 BYTE   Fn3
 BYTE   N11  As3
 BYTE   N11  Fn4
 BYTE   W24
 BYTE   PEND 
//  #02 //047   ----------------------------------------
Label_01734CE4:
 BYTE   N11  Fn3  v076
 BYTE   N11  As3
 BYTE   N11  Fn4
 BYTE   W12
 BYTE   Fn3
 BYTE   N11  As3
 BYTE   N11  Fn4
 BYTE   W24
 BYTE   Fn3
 BYTE   N11  As3
 BYTE   N11  Fn4
 BYTE   W12
 BYTE   Fn3
 BYTE   N11  As3
 BYTE   N11  Fn4
 BYTE   W24
 BYTE   Fs3
 BYTE   N11  Bn3
 BYTE   N11  Fs4
 BYTE   W12
 BYTE   Fs3
 BYTE   N11  Bn3
 BYTE   N11  Fs4
 BYTE   W12
 BYTE   PEND 
//  #02 //048   ----------------------------------------
Label_01734D0B:
 BYTE   W12
 BYTE   N11  Fs3  v076
 BYTE   N11  Bn3
 BYTE   N11  Fs4
 BYTE   W84
 BYTE   PEND 
//  #02 //049   ----------------------------------------
Label_01734D15:
 BYTE   N20  Gs3  v076
 BYTE   N20  Ds4
 BYTE   N20  Gs4
 BYTE   W24
 BYTE   As3
 BYTE   N20  Fn4
 BYTE   N20  As4
 BYTE   W72
 BYTE   PEND 
//  #02 //050   ----------------------------------------
 BYTE   W96
//  #02 //051   ----------------------------------------
 BYTE   W96
//  #02 //052   ----------------------------------------
 BYTE   W96
//  #02 //053   ----------------------------------------
 BYTE   W96
//  #02 //054   ----------------------------------------
 BYTE   W96
//  #02 //055   ----------------------------------------
 BYTE   W24
 BYTE   N90  Fn3  v108
 BYTE   W72
//  #02 //056   ----------------------------------------
Label_01734D2E:
 BYTE   W24
 BYTE   N42  As3  v108
 BYTE   W48
 BYTE   Cs4
 BYTE   W24
 BYTE   PEND 
//  #02 //057   ----------------------------------------
 BYTE   W24
 BYTE   N90
 BYTE   W72
//  #02 //058   ----------------------------------------
 BYTE   W24
 BYTE   Fs3
 BYTE   W72
//  #02 //059   ----------------------------------------
 BYTE   W24
 BYTE   As3
 BYTE   W72
//  #02 //060   ----------------------------------------
Label_01734D3F:
 BYTE   W24
 BYTE   N32  An3  v108
 BYTE   W36
 BYTE   As3
 BYTE   W36
 BYTE   PEND 
//  #02 //061   ----------------------------------------
Label_01734D47:
 BYTE   N20  Cn4  v108
 BYTE   W24
 BYTE   N80  As3
 BYTE   W72
 BYTE   PEND 
//  #02 //062   ----------------------------------------
Label_01734D4F:
 BYTE   W12
 BYTE   N05  An3  v108
 BYTE   W06
 BYTE   As3
 BYTE   W06
 BYTE   N90  An3
 BYTE   W72
 BYTE   PEND 
//  #02 //063   ----------------------------------------
 BYTE   W24
 BYTE   Fn3
 BYTE   W72
//  #02 //064   ----------------------------------------
 BYTE   PATT
  POIN2 Label_01734D2E
//  #02 //065   ----------------------------------------
 BYTE   W24
 BYTE   N90  Fn4  v108
 BYTE   W72
//  #02 //066   ----------------------------------------
Label_01734D67:
 BYTE   W24
 BYTE   N42  Ds4  v108
 BYTE   W48
 BYTE   Cs4
 BYTE   W24
 BYTE   PEND 
//  #02 //067   ----------------------------------------
 BYTE   W24
 BYTE   N90  As3
 BYTE   W72
//  #02 //068   ----------------------------------------
 BYTE   PATT
  POIN2 Label_01734D3F
//  #02 //069   ----------------------------------------
Label_01734D78:
 BYTE   N20  Cn4  v108
 BYTE   W24
 BYTE   TIE  As3
 BYTE   W72
 BYTE   PEND 
//  #02 //070   ----------------------------------------
 BYTE   W80
 BYTE   W03
 BYTE   EOT
 BYTE   W01
 BYTE   N05  Cn4
 BYTE   W06
 BYTE   Cs4
 BYTE   W06
//  #02 //071   ----------------------------------------
Label_01734D89:
 BYTE   N05  Ds4  v108
 BYTE   W06
 BYTE   Fn4
 BYTE   W06
 BYTE   Gn4
 BYTE   W06
 BYTE   An4
 BYTE   W06
 BYTE   TIE  As4
 BYTE   W72
 BYTE   PEND 
//  #02 //072   ----------------------------------------
 BYTE   W96
//  #02 //073   ----------------------------------------
 BYTE   W18
 BYTE   EOT
 BYTE   W06
 BYTE   N80  Cs5
 BYTE   W72
//  #02 //074   ----------------------------------------
Label_01734D9E:
 BYTE   W12
 BYTE   N05  Cn5  v108
 BYTE   W06
 BYTE   Cs5
 BYTE   W06
 BYTE   N80  Ds5
 BYTE   W72
 BYTE   PEND 
//  #02 //075   ----------------------------------------
Label_01734DA9:
 BYTE   W12
 BYTE   N05  Cs5  v108
 BYTE   W06
 BYTE   Ds5
 BYTE   W06
 BYTE   N80  Fn5
 BYTE   W72
 BYTE   PEND 
//  #02 //076   ----------------------------------------
Label_01734DB4:
 BYTE   W12
 BYTE   N05  Ds5  v108
 BYTE   W06
 BYTE   Fn5
 BYTE   W06
 BYTE   N90  Fs5
 BYTE   W72
 BYTE   PEND 
//  #02 //077   ----------------------------------------
 BYTE   W96
//  #02 //078   ----------------------------------------
 BYTE   W96
//  #02 //079   ----------------------------------------
 BYTE   W96
//  #02 //080   ----------------------------------------
 BYTE   W96
//  #02 //081   ----------------------------------------
Label_01734DC3:
 BYTE   W24
 BYTE   N11  Fn3  v108
 BYTE   N11  As3
 BYTE   W12
 BYTE   Fn3
 BYTE   N11  As3
 BYTE   W24
 BYTE   Fn3
 BYTE   N11  As3
 BYTE   W12
 BYTE   Fn3
 BYTE   N11  As3
 BYTE   W24
 BYTE   PEND 
//  #02 //082   ----------------------------------------
Label_01734DD7:
 BYTE   N11  Fn3  v108
 BYTE   N11  As3
 BYTE   W12
 BYTE   Fn3
 BYTE   N11  As3
 BYTE   W24
 BYTE   Fn3
 BYTE   N11  As3
 BYTE   W12
 BYTE   Fn3
 BYTE   N11  As3
 BYTE   W24
 BYTE   Fs3
 BYTE   N11  Bn3
 BYTE   W12
 BYTE   Fs3
 BYTE   N11  Bn3
 BYTE   W12
 BYTE   PEND 
//  #02 //083   ----------------------------------------
Label_01734DF2:
 BYTE   W12
 BYTE   N11  Fs3  v108
 BYTE   N11  Bn3
 BYTE   W12
 BYTE   Fn3
 BYTE   N11  As3
 BYTE   N11  Fn4
 BYTE   W12
 BYTE   Fn3
 BYTE   N11  As3
 BYTE   N11  Fn4
 BYTE   W24
 BYTE   Fn3
 BYTE   N11  As3
 BYTE   N11  Fn4
 BYTE   W12
 BYTE   Fn3
 BYTE   N11  As3
 BYTE   N11  Fn4
 BYTE   W24
 BYTE   PEND 
//  #02 //084   ----------------------------------------
Label_01734E12:
 BYTE   N11  Fn3  v108
 BYTE   N11  As3
 BYTE   N11  Fn4
 BYTE   W12
 BYTE   Fn3
 BYTE   N11  As3
 BYTE   N11  Fn4
 BYTE   W24
 BYTE   Fn3
 BYTE   N11  As3
 BYTE   N11  Fn4
 BYTE   W12
 BYTE   Fn3
 BYTE   N11  As3
 BYTE   N11  Fn4
 BYTE   W24
 BYTE   Fs3
 BYTE   N11  Bn3
 BYTE   N11  Fs4
 BYTE   W12
 BYTE   Fs3
 BYTE   N11  Bn3
 BYTE   N11  Fs4
 BYTE   W12
 BYTE   PEND 
//  #02 //085   ----------------------------------------
Label_01734E39:
 BYTE   W12
 BYTE   N11  Fs3  v108
 BYTE   N11  Bn3
 BYTE   N11  Fs4
 BYTE   W84
 BYTE   PEND 
//  #02 //086   ----------------------------------------
 BYTE   W96
//  #02 //087   ----------------------------------------
 BYTE   W96
//  #02 //088   ----------------------------------------
 BYTE   W96
//  #02 //089   ----------------------------------------
 BYTE   W96
//  #02 //090   ----------------------------------------
 BYTE   W96
//  #02 //091   ----------------------------------------
 BYTE   W96
//  #02 //092   ----------------------------------------
 BYTE   W96
//  #02 //093   ----------------------------------------
 BYTE   W96
//  #02 //094   ----------------------------------------
 BYTE   PATT
  POIN2 Label_01734DC3
//  #02 //095   ----------------------------------------
 BYTE   PATT
  POIN2 Label_01734DD7
//  #02 //096   ----------------------------------------
 BYTE   PATT
  POIN2 Label_01734DF2
//  #02 //097   ----------------------------------------
 BYTE   PATT
  POIN2 Label_01734E12
//  #02 //098   ----------------------------------------
 BYTE   PATT
  POIN2 Label_01734E39
//  #02 //099   ----------------------------------------
 BYTE   W96
//  #02 //100   ----------------------------------------
 BYTE   W96
//  #02 //101   ----------------------------------------
 BYTE   W96
//  #02 //102   ----------------------------------------
 BYTE   W96
//  #02 //103   ----------------------------------------
 BYTE   W96
//  #02 //104   ----------------------------------------
 BYTE   W96
//  #02 //105   ----------------------------------------
 BYTE   PATT
  POIN2 Label_01734B6A
//  #02 //106   ----------------------------------------
 BYTE   PATT
  POIN2 Label_01734B72
//  #02 //107   ----------------------------------------
 BYTE   PATT
  POIN2 Label_01734B7A
//  #02 //108   ----------------------------------------
 BYTE   PATT
  POIN2 Label_01734B82
//  #02 //109   ----------------------------------------
 BYTE   PATT
  POIN2 Label_01734B6A
//  #02 //110   ----------------------------------------
 BYTE   PATT
  POIN2 Label_01734B72
//  #02 //111   ----------------------------------------
 BYTE   PATT
  POIN2 Label_01734B7A
//  #02 //112   ----------------------------------------
 BYTE   PATT
  POIN2 Label_01734B82
//  #02 //113   ----------------------------------------
 BYTE   PATT
  POIN2 Label_01734B9E
//  #02 //114   ----------------------------------------
 BYTE   W32
 BYTE   W03
 BYTE   EOT
 BYTE   Fn3
 BYTE   W01
 BYTE   N05  Ds3  v127
 BYTE   W06
 BYTE   Fn3
 BYTE   W06
 BYTE   N11  Fs3
 BYTE   W12
 BYTE   N05  Fn3
 BYTE   W06
 BYTE   Fs3
 BYTE   W06
 BYTE   N11  Gs3
 BYTE   W12
 BYTE   N05  Fs3
 BYTE   W06
 BYTE   Gs3
 BYTE   W06
//  #02 //115   ----------------------------------------
 BYTE   PATT
  POIN2 Label_01734BBD
//  #02 //116   ----------------------------------------
 BYTE   W32
 BYTE   W03
 BYTE   EOT
 BYTE   As3
 BYTE   W01
 BYTE   N05  Gs3  v127
 BYTE   W06
 BYTE   As3
 BYTE   W06
 BYTE   N11  Bn3
 BYTE   W12
 BYTE   N05  As3
 BYTE   W06
 BYTE   Bn3
 BYTE   W06
 BYTE   N11  Cs4
 BYTE   W12
 BYTE   N05  Bn3
 BYTE   W06
 BYTE   Cs4
 BYTE   W06
//  #02 //117   ----------------------------------------
 BYTE   PATT
  POIN2 Label_01734BE3
//  #02 //118   ----------------------------------------
 BYTE   W32
 BYTE   W03
 BYTE   EOT
 BYTE   As3
 BYTE   W01
 BYTE   N05  Fn4  v127
 BYTE   W06
 BYTE   As3
 BYTE   W06
 BYTE   N11  Fn4
 BYTE   W12
 BYTE   N05  As3
 BYTE   W06
 BYTE   Fn4
 BYTE   W06
 BYTE   N11  As3
 BYTE   W12
 BYTE   N05  Fn4
 BYTE   W06
 BYTE   As3
 BYTE   W06
//  #02 //119   ----------------------------------------
 BYTE   PATT
  POIN2 Label_01734C09
//  #02 //120   ----------------------------------------
 BYTE   PATT
  POIN2 Label_01734C09
//  #02 //121   ----------------------------------------
 BYTE   PATT
  POIN2 Label_01734C30
//  #02 //122   ----------------------------------------
 BYTE   PATT
  POIN2 Label_01734C4F
//  #02 //123   ----------------------------------------
 BYTE   EOT
 BYTE   As4
 BYTE   W06
//  #02 //124   ----------------------------------------
 BYTE   PATT
  POIN2 Label_01734C6D
//  #02 //125   ----------------------------------------
 BYTE   PATT
  POIN2 Label_01734C4F
//  #02 //126   ----------------------------------------
 BYTE   EOT
 BYTE   As4
 BYTE   W06
//  #02 //127   ----------------------------------------
 BYTE   PATT
  POIN2 Label_01734C90
//  #02 //128   ----------------------------------------
 BYTE   PATT
  POIN2 Label_01734CA9
//  #02 //129   ----------------------------------------
 BYTE   PATT
  POIN2 Label_01734CC4
//  #02 //130   ----------------------------------------
 BYTE   PATT
  POIN2 Label_01734CE4
//  #02 //131   ----------------------------------------
 BYTE   PATT
  POIN2 Label_01734D0B
//  #02 //132   ----------------------------------------
 BYTE   PATT
  POIN2 Label_01734D15
//  #02 //133   ----------------------------------------
 BYTE   W96
//  #02 //134   ----------------------------------------
 BYTE   W96
//  #02 //135   ----------------------------------------
 BYTE   W96
//  #02 //136   ----------------------------------------
 BYTE   W96
//  #02 //137   ----------------------------------------
 BYTE   W96
//  #02 //138   ----------------------------------------
 BYTE   W24
 BYTE   N90  Fn3  v108
 BYTE   W72
//  #02 //139   ----------------------------------------
 BYTE   PATT
  POIN2 Label_01734D2E
//  #02 //140   ----------------------------------------
 BYTE   W24
 BYTE   N90  Cs4  v108
 BYTE   W72
//  #02 //141   ----------------------------------------
 BYTE   W24
 BYTE   Fs3
 BYTE   W72
//  #02 //142   ----------------------------------------
 BYTE   W24
 BYTE   As3
 BYTE   W72
//  #02 //143   ----------------------------------------
 BYTE   PATT
  POIN2 Label_01734D3F
//  #02 //144   ----------------------------------------
 BYTE   PATT
  POIN2 Label_01734D47
//  #02 //145   ----------------------------------------
 BYTE   PATT
  POIN2 Label_01734D4F
//  #02 //146   ----------------------------------------
 BYTE   W24
 BYTE   N90  Fn3  v108
 BYTE   W72
//  #02 //147   ----------------------------------------
 BYTE   PATT
  POIN2 Label_01734D2E
//  #02 //148   ----------------------------------------
 BYTE   W24
 BYTE   N90  Fn4  v108
 BYTE   W72
//  #02 //149   ----------------------------------------
 BYTE   PATT
  POIN2 Label_01734D67
//  #02 //150   ----------------------------------------
 BYTE   W24
 BYTE   N90  As3  v108
 BYTE   W72
//  #02 //151   ----------------------------------------
 BYTE   PATT
  POIN2 Label_01734D3F
//  #02 //152   ----------------------------------------
 BYTE   PATT
  POIN2 Label_01734D78
//  #02 //153   ----------------------------------------
 BYTE   W80
 BYTE   W03
 BYTE   EOT
 BYTE   As3
 BYTE   W01
 BYTE   N05  Cn4  v108
 BYTE   W06
 BYTE   Cs4
 BYTE   W06
//  #02 //154   ----------------------------------------
 BYTE   PATT
  POIN2 Label_01734D89
//  #02 //155   ----------------------------------------
 BYTE   W96
//  #02 //156   ----------------------------------------
 BYTE   W18
 BYTE   EOT
 BYTE   As4
 BYTE   W06
 BYTE   N80  Cs5  v108
 BYTE   W72
//  #02 //157   ----------------------------------------
 BYTE   PATT
  POIN2 Label_01734D9E
//  #02 //158   ----------------------------------------
 BYTE   PATT
  POIN2 Label_01734DA9
//  #02 //159   ----------------------------------------
 BYTE   PATT
  POIN2 Label_01734DB4
//  #02 //160   ----------------------------------------
 BYTE   W96
//  #02 //161   ----------------------------------------
 BYTE   W96
//  #02 //162   ----------------------------------------
 BYTE   W96
//  #02 //163   ----------------------------------------
 BYTE   W96
//  #02 //164   ----------------------------------------
 BYTE   GoTo
  POIN2 Label_01734DC3
//  #02 //165   ----------------------------------------
 BYTE   W23
 BYTE   FINE

//**************** Track 3 (Midi-Chn.2) ****************//

CelicaMap1SSBB_Song_003:
//  #03 //000   ----------------------------------------
 BYTE   KEYSH   CelicaMap1SSBB_Song_key+0
 BYTE   VOICE   51
 BYTE   VOL   50*CelicaMap1SSBB_Song_mvl/mxv
 BYTE   PAN   c_v+0
 BYTE   W06
 BYTE   N05  As0  v112
 BYTE   N02  As1
 BYTE   W03
 BYTE   N05  Gs0
 BYTE   N02  Gs1
 BYTE   W03
 BYTE   N05  Fs0
 BYTE   N02  Fs1
 BYTE   W03
 BYTE   N08  Fn0
 BYTE   N08  Fn1
 BYTE   W09
 BYTE   N11  As1
 BYTE   W12
 BYTE   N20
 BYTE   W24
 BYTE   N11
 BYTE   W12
 BYTE   N20
 BYTE   W24
//  #03 //001   ----------------------------------------
Label_01736387:
 BYTE   N11  As1  v112
 BYTE   W12
 BYTE   N23
 BYTE   W24
 BYTE   N11
 BYTE   W12
 BYTE   N20
 BYTE   W24
 BYTE   N11  Bn1
 BYTE   W12
 BYTE   N20
 BYTE   W12
 BYTE   PEND 
//  #03 //002   ----------------------------------------
Label_01736397:
 BYTE   W12
 BYTE   N11  Bn1  v112
 BYTE   W12
 BYTE   As1
 BYTE   W12
 BYTE   N20
 BYTE   W24
 BYTE   N11
 BYTE   W12
 BYTE   N20
 BYTE   W24
 BYTE   PEND 
//  #03 //003   ----------------------------------------
 BYTE   PATT
  POIN2 Label_01736387
//  #03 //004   ----------------------------------------
 BYTE   W12
 BYTE   N11  Bn1  v112
 BYTE   W84
//  #03 //005   ----------------------------------------
Label_017363AF:
 BYTE   W24
 BYTE   N20  As1  v112
 BYTE   W24
 BYTE   N11  Fn1
 BYTE   W12
 BYTE   N20  As1
 BYTE   W24
 BYTE   N11
 BYTE   W12
 BYTE   PEND 
//  #03 //006   ----------------------------------------
Label_017363BD:
 BYTE   N11  Fn1  v112
 BYTE   W12
 BYTE   As1
 BYTE   W12
 BYTE   N20  Bn1
 BYTE   W24
 BYTE   N11  Fs1
 BYTE   W12
 BYTE   N20  Bn1
 BYTE   W24
 BYTE   N11
 BYTE   W12
 BYTE   PEND 
//  #03 //007   ----------------------------------------
Label_017363CF:
 BYTE   N11  Fs1  v112
 BYTE   W12
 BYTE   Bn1
 BYTE   W12
 BYTE   N17  As1
 BYTE   W18
 BYTE   Fn1
 BYTE   W18
 BYTE   N20  As1
 BYTE   W24
 BYTE   N11
 BYTE   W12
 BYTE   PEND 
//  #03 //008   ----------------------------------------
Label_017363E0:
 BYTE   N11  Fn1  v112
 BYTE   W12
 BYTE   As1
 BYTE   W12
 BYTE   N17  Bn1
 BYTE   W18
 BYTE   Fs1
 BYTE   W18
 BYTE   N20  Bn1
 BYTE   W24
 BYTE   N11
 BYTE   W12
 BYTE   PEND 
//  #03 //009   ----------------------------------------
Label_017363F1:
 BYTE   N11  Fs1  v112
 BYTE   W12
 BYTE   Bn1
 BYTE   W12
 BYTE   N20  As1
 BYTE   W24
 BYTE   N11  Fn1
 BYTE   W12
 BYTE   N20  As1
 BYTE   W24
 BYTE   N11
 BYTE   W12
 BYTE   PEND 
//  #03 //010   ----------------------------------------
 BYTE   PATT
  POIN2 Label_017363BD
//  #03 //011   ----------------------------------------
 BYTE   PATT
  POIN2 Label_017363CF
//  #03 //012   ----------------------------------------
 BYTE   PATT
  POIN2 Label_017363E0
//  #03 //013   ----------------------------------------
 BYTE   N11  Fs1  v112
 BYTE   W12
 BYTE   Bn1
 BYTE   W12
 BYTE   As1
 BYTE   W12
 BYTE   N20
 BYTE   W24
 BYTE   N11
 BYTE   W12
 BYTE   N20
 BYTE   W24
//  #03 //014   ----------------------------------------
 BYTE   PATT
  POIN2 Label_01736387
//  #03 //015   ----------------------------------------
 BYTE   PATT
  POIN2 Label_01736397
//  #03 //016   ----------------------------------------
 BYTE   PATT
  POIN2 Label_01736387
//  #03 //017   ----------------------------------------
 BYTE   W12
 BYTE   N11  Bn1  v112
 BYTE   W84
//  #03 //018   ----------------------------------------
 BYTE   PATT
  POIN2 Label_017363AF
//  #03 //019   ----------------------------------------
 BYTE   PATT
  POIN2 Label_017363BD
//  #03 //020   ----------------------------------------
 BYTE   PATT
  POIN2 Label_017363CF
//  #03 //021   ----------------------------------------
 BYTE   PATT
  POIN2 Label_017363E0
//  #03 //022   ----------------------------------------
 BYTE   PATT
  POIN2 Label_017363F1
//  #03 //023   ----------------------------------------
 BYTE   PATT
  POIN2 Label_017363BD
//  #03 //024   ----------------------------------------
 BYTE   N11  Fs1  v112
 BYTE   W12
 BYTE   Bn1
 BYTE   W12
 BYTE   N20  As1
 BYTE   W24
 BYTE   N11  As2
 BYTE   W12
 BYTE   Fn2
 BYTE   W12
 BYTE   N20  As1
 BYTE   W24
//  #03 //025   ----------------------------------------
Label_01736463:
 BYTE   N20  As2  v112
 BYTE   W24
 BYTE   Bn1
 BYTE   W24
 BYTE   N11  Bn2
 BYTE   W12
 BYTE   Fs2
 BYTE   W12
 BYTE   N20  Bn1
 BYTE   W24
 BYTE   PEND 
//  #03 //026   ----------------------------------------
Label_01736472:
 BYTE   N20  Bn2  v112
 BYTE   W24
 BYTE   Cn2
 BYTE   W24
 BYTE   N11  Cn3
 BYTE   W12
 BYTE   Gn2
 BYTE   W12
 BYTE   N20  Cn2
 BYTE   W24
 BYTE   PEND 
//  #03 //027   ----------------------------------------
Label_01736481:
 BYTE   N20  Cn3  v112
 BYTE   W24
 BYTE   Cs2
 BYTE   W24
 BYTE   N11  Cs3
 BYTE   W12
 BYTE   Gs2
 BYTE   W12
 BYTE   N20  Cs2
 BYTE   W24
 BYTE   PEND 
//  #03 //028   ----------------------------------------
 BYTE   Cs3
 BYTE   W24
 BYTE   As1
 BYTE   W24
 BYTE   N11  As2
 BYTE   W12
 BYTE   Fn2
 BYTE   W12
 BYTE   N20  As1
 BYTE   W24
//  #03 //029   ----------------------------------------
 BYTE   PATT
  POIN2 Label_01736463
//  #03 //030   ----------------------------------------
 BYTE   PATT
  POIN2 Label_01736472
//  #03 //031   ----------------------------------------
 BYTE   PATT
  POIN2 Label_01736481
//  #03 //032   ----------------------------------------
 BYTE   N20  Cs3  v112
 BYTE   W24
 BYTE   As1
 BYTE   W24
 BYTE   N11  Fn1
 BYTE   W12
 BYTE   N20  As1
 BYTE   W24
 BYTE   N11
 BYTE   W12
//  #03 //033   ----------------------------------------
 BYTE   PATT
  POIN2 Label_017363BD
//  #03 //034   ----------------------------------------
 BYTE   PATT
  POIN2 Label_017363CF
//  #03 //035   ----------------------------------------
 BYTE   PATT
  POIN2 Label_017363E0
//  #03 //036   ----------------------------------------
 BYTE   PATT
  POIN2 Label_017363F1
//  #03 //037   ----------------------------------------
 BYTE   PATT
  POIN2 Label_017363BD
//  #03 //038   ----------------------------------------
 BYTE   PATT
  POIN2 Label_017363CF
//  #03 //039   ----------------------------------------
 BYTE   PATT
  POIN2 Label_017363E0
//  #03 //040   ----------------------------------------
 BYTE   N11  Fs1  v112
 BYTE   W12
 BYTE   Bn1
 BYTE   W12
 BYTE   As1  v076
 BYTE   W12
 BYTE   N20
 BYTE   W24
 BYTE   N11
 BYTE   W12
 BYTE   N20
 BYTE   W24
//  #03 //041   ----------------------------------------
Label_017364EB:
 BYTE   N11  As1  v076
 BYTE   W12
 BYTE   N23
 BYTE   W24
 BYTE   N11
 BYTE   W12
 BYTE   N20
 BYTE   W24
 BYTE   N11  Bn1
 BYTE   W12
 BYTE   N20
 BYTE   W12
 BYTE   PEND 
//  #03 //042   ----------------------------------------
Label_017364FB:
 BYTE   W12
 BYTE   N11  Bn1  v076
 BYTE   W12
 BYTE   As1
 BYTE   W12
 BYTE   N20
 BYTE   W24
 BYTE   N11
 BYTE   W12
 BYTE   N20
 BYTE   W24
 BYTE   PEND 
//  #03 //043   ----------------------------------------
 BYTE   PATT
  POIN2 Label_017364EB
//  #03 //044   ----------------------------------------
 BYTE   PATT
  POIN2 Label_017364FB
//  #03 //045   ----------------------------------------
 BYTE   PATT
  POIN2 Label_017364EB
//  #03 //046   ----------------------------------------
 BYTE   PATT
  POIN2 Label_017364FB
//  #03 //047   ----------------------------------------
 BYTE   PATT
  POIN2 Label_017364EB
//  #03 //048   ----------------------------------------
 BYTE   W12
 BYTE   N11  Bn1  v076
 BYTE   W84
//  #03 //049   ----------------------------------------
Label_01736527:
 BYTE   N20  Gs1  v076
 BYTE   W24
 BYTE   As1
 BYTE   W72
 BYTE   PEND 
//  #03 //050   ----------------------------------------
 BYTE   W96
//  #03 //051   ----------------------------------------
Label_0173652F:
 BYTE   W24
 BYTE   N11  As0  v076
 BYTE   W12
 BYTE   N11
 BYTE   W12
 BYTE   Fn0
 BYTE   W12
 BYTE   N20  As0
 BYTE   W24
 BYTE   N11
 BYTE   W12
 BYTE   PEND 
//  #03 //052   ----------------------------------------
Label_0173653E:
 BYTE   N11  Fn0  v076
 BYTE   W12
 BYTE   As0
 BYTE   W12
 BYTE   N11
 BYTE   W12
 BYTE   N11
 BYTE   W12
 BYTE   Fn0
 BYTE   W12
 BYTE   N20  As0
 BYTE   W24
 BYTE   N11
 BYTE   W12
 BYTE   PEND 
//  #03 //053   ----------------------------------------
 BYTE   PATT
  POIN2 Label_0173653E
//  #03 //054   ----------------------------------------
 BYTE   PATT
  POIN2 Label_0173653E
//  #03 //055   ----------------------------------------
Label_0173655A:
 BYTE   N11  Fn0  v076
 BYTE   W12
 BYTE   As0
 BYTE   W12
 BYTE   As1  v127
 BYTE   W12
 BYTE   N11
 BYTE   W12
 BYTE   Fn1
 BYTE   W12
 BYTE   N20  As1
 BYTE   W24
 BYTE   N11
 BYTE   W12
 BYTE   PEND 
//  #03 //056   ----------------------------------------
Label_0173656D:
 BYTE   N11  Fn1  v127
 BYTE   W12
 BYTE   As1
 BYTE   W12
 BYTE   N11
 BYTE   W12
 BYTE   N11
 BYTE   W12
 BYTE   Fn1
 BYTE   W12
 BYTE   As1
 BYTE   W12
 BYTE   Gs1
 BYTE   W12
 BYTE   N11
 BYTE   W12
 BYTE   PEND 
//  #03 //057   ----------------------------------------
Label_01736580:
 BYTE   N11  Ds1  v127
 BYTE   W12
 BYTE   Gs1
 BYTE   W12
 BYTE   Fs1
 BYTE   W12
 BYTE   N11
 BYTE   W12
 BYTE   Cs2
 BYTE   W12
 BYTE   N20  Fs1
 BYTE   W24
 BYTE   N11
 BYTE   W12
 BYTE   PEND 
//  #03 //058   ----------------------------------------
Label_01736592:
 BYTE   N11  Cs2  v127
 BYTE   W12
 BYTE   N23  Fs1
 BYTE   W24
 BYTE   N11
 BYTE   W12
 BYTE   Cs2
 BYTE   W12
 BYTE   N20  Fs1
 BYTE   W24
 BYTE   N11
 BYTE   W12
 BYTE   PEND 
//  #03 //059   ----------------------------------------
Label_017365A3:
 BYTE   N11  Cs2  v127
 BYTE   W12
 BYTE   Fs1
 BYTE   W12
 BYTE   Ds2
 BYTE   W12
 BYTE   N11
 BYTE   W12
 BYTE   As1
 BYTE   W12
 BYTE   N20  Ds2
 BYTE   W24
 BYTE   N11
 BYTE   W12
 BYTE   PEND 
//  #03 //060   ----------------------------------------
Label_017365B5:
 BYTE   N11  As1  v127
 BYTE   W12
 BYTE   N23  Ds2
 BYTE   W24
 BYTE   N11
 BYTE   W12
 BYTE   As1
 BYTE   W12
 BYTE   N20  Ds2
 BYTE   W24
 BYTE   N11
 BYTE   W12
 BYTE   PEND 
//  #03 //061   ----------------------------------------
Label_017365C6:
 BYTE   N11  As1  v127
 BYTE   W12
 BYTE   Ds2
 BYTE   W12
 BYTE   Fn2
 BYTE   W12
 BYTE   N11
 BYTE   W12
 BYTE   Cn2
 BYTE   W12
 BYTE   N20  Fn2
 BYTE   W24
 BYTE   N11
 BYTE   W12
 BYTE   PEND 
//  #03 //062   ----------------------------------------
Label_017365D8:
 BYTE   N11  Cn2  v127
 BYTE   W12
 BYTE   Fn2
 BYTE   W12
 BYTE   N11
 BYTE   W12
 BYTE   N11
 BYTE   W12
 BYTE   Cn2
 BYTE   W12
 BYTE   N20  Fn2
 BYTE   W24
 BYTE   N11
 BYTE   W12
 BYTE   PEND 
//  #03 //063   ----------------------------------------
Label_017365EA:
 BYTE   N11  Cn2  v127
 BYTE   W12
 BYTE   Fn2
 BYTE   W12
 BYTE   As1
 BYTE   W12
 BYTE   N11
 BYTE   W12
 BYTE   Fn1
 BYTE   W12
 BYTE   N20  As1
 BYTE   W24
 BYTE   N11
 BYTE   W12
 BYTE   PEND 
//  #03 //064   ----------------------------------------
 BYTE   PATT
  POIN2 Label_0173656D
//  #03 //065   ----------------------------------------
 BYTE   PATT
  POIN2 Label_01736580
//  #03 //066   ----------------------------------------
 BYTE   PATT
  POIN2 Label_01736592
//  #03 //067   ----------------------------------------
 BYTE   PATT
  POIN2 Label_017365A3
//  #03 //068   ----------------------------------------
 BYTE   PATT
  POIN2 Label_017365C6
//  #03 //069   ----------------------------------------
Label_01736615:
 BYTE   N11  Cn2  v127
 BYTE   W12
 BYTE   Fn2
 BYTE   W12
 BYTE   N20  As1
 BYTE   W24
 BYTE   N11  Fn1
 BYTE   W12
 BYTE   N20  As1
 BYTE   W24
 BYTE   N11
 BYTE   W12
 BYTE   PEND 
//  #03 //070   ----------------------------------------
Label_01736627:
 BYTE   N11  Fn1  v127
 BYTE   W12
 BYTE   As1
 BYTE   W12
 BYTE   N20  Bn1
 BYTE   W24
 BYTE   N11  Fs1
 BYTE   W12
 BYTE   N20  Bn1
 BYTE   W24
 BYTE   N11
 BYTE   W12
 BYTE   PEND 
//  #03 //071   ----------------------------------------
Label_01736639:
 BYTE   N11  Fs1  v127
 BYTE   W12
 BYTE   Bn1
 BYTE   W12
 BYTE   N20  As1
 BYTE   W24
 BYTE   N11  Fn1
 BYTE   W12
 BYTE   N20  As1
 BYTE   W24
 BYTE   N11
 BYTE   W12
 BYTE   PEND 
//  #03 //072   ----------------------------------------
 BYTE   PATT
  POIN2 Label_01736627
//  #03 //073   ----------------------------------------
 BYTE   PATT
  POIN2 Label_01736639
//  #03 //074   ----------------------------------------
 BYTE   PATT
  POIN2 Label_01736627
//  #03 //075   ----------------------------------------
 BYTE   PATT
  POIN2 Label_01736639
//  #03 //076   ----------------------------------------
 BYTE   PATT
  POIN2 Label_01736627
//  #03 //077   ----------------------------------------
Label_01736664:
 BYTE   N11  Fs1  v127
 BYTE   W12
 BYTE   Bn1
 BYTE   W84
 BYTE   PEND 
//  #03 //078   ----------------------------------------
 BYTE   W96
//  #03 //079   ----------------------------------------
 BYTE   W96
//  #03 //080   ----------------------------------------
 BYTE   W96
//  #03 //081   ----------------------------------------
Label_0173666E:
 BYTE   W24
 BYTE   N11  As1  v127
 BYTE   W12
 BYTE   N20
 BYTE   W24
 BYTE   N11
 BYTE   W12
 BYTE   N20
 BYTE   W24
//  #03 //082   ----------------------------------------
Label_01736679:
 BYTE   N11  As1  v127
 BYTE   W12
 BYTE   N23
 BYTE   W24
 BYTE   N11
 BYTE   W12
 BYTE   N20
 BYTE   W24
 BYTE   N11  Bn1
 BYTE   W12
 BYTE   N20
 BYTE   W12
 BYTE   PEND 
//  #03 //083   ----------------------------------------
Label_01736689:
 BYTE   W12
 BYTE   N11  Bn1  v127
 BYTE   W12
 BYTE   As1
 BYTE   W12
 BYTE   N20
 BYTE   W24
 BYTE   N11
 BYTE   W12
 BYTE   N20
 BYTE   W24
 BYTE   PEND 
//  #03 //084   ----------------------------------------
 BYTE   PATT
  POIN2 Label_01736679
//  #03 //085   ----------------------------------------
 BYTE   W12
 BYTE   N11  Bn1  v127
 BYTE   W84
//  #03 //086   ----------------------------------------
Label_017366A1:
 BYTE   W24
 BYTE   N20  As1  v127
 BYTE   W24
 BYTE   N11  Fn1
 BYTE   W12
 BYTE   N20  As1
 BYTE   W24
 BYTE   N11
 BYTE   W12
 BYTE   PEND 
//  #03 //087   ----------------------------------------
 BYTE   PATT
  POIN2 Label_01736627
//  #03 //088   ----------------------------------------
Label_017366B4:
 BYTE   N11  Fs1  v127
 BYTE   W12
 BYTE   Bn1
 BYTE   W12
 BYTE   N17  As1
 BYTE   W18
 BYTE   Fn1
 BYTE   W18
 BYTE   N20  As1
 BYTE   W24
 BYTE   N11
 BYTE   W12
 BYTE   PEND 
//  #03 //089   ----------------------------------------
Label_017366C5:
 BYTE   N11  Fn1  v127
 BYTE   W12
 BYTE   As1
 BYTE   W12
 BYTE   N17  Bn1
 BYTE   W18
 BYTE   Fs1
 BYTE   W18
 BYTE   N20  Bn1
 BYTE   W24
 BYTE   N11
 BYTE   W12
 BYTE   PEND 
//  #03 //090   ----------------------------------------
 BYTE   PATT
  POIN2 Label_01736639
//  #03 //091   ----------------------------------------
 BYTE   PATT
  POIN2 Label_01736627
//  #03 //092   ----------------------------------------
 BYTE   PATT
  POIN2 Label_017366B4
//  #03 //093   ----------------------------------------
 BYTE   PATT
  POIN2 Label_017366C5
//  #03 //094   ----------------------------------------
 BYTE   N11  Fs1  v127
 BYTE   W12
 BYTE   Bn1
 BYTE   W12
 BYTE   As1
 BYTE   W12
 BYTE   N20
 BYTE   W24
 BYTE   N11
 BYTE   W12
 BYTE   N20
 BYTE   W24
//  #03 //095   ----------------------------------------
 BYTE   PATT
  POIN2 Label_01736679
//  #03 //096   ----------------------------------------
 BYTE   PATT
  POIN2 Label_01736689
//  #03 //097   ----------------------------------------
 BYTE   PATT
  POIN2 Label_01736679
//  #03 //098   ----------------------------------------
 BYTE   W12
 BYTE   N11  Bn1  v127
 BYTE   W84
//  #03 //099   ----------------------------------------
 BYTE   PATT
  POIN2 Label_017366A1
//  #03 //100   ----------------------------------------
 BYTE   PATT
  POIN2 Label_01736627
//  #03 //101   ----------------------------------------
 BYTE   PATT
  POIN2 Label_017366B4
//  #03 //102   ----------------------------------------
 BYTE   PATT
  POIN2 Label_017366C5
//  #03 //103   ----------------------------------------
 BYTE   PATT
  POIN2 Label_01736639
//  #03 //104   ----------------------------------------
 BYTE   PATT
  POIN2 Label_01736627
//  #03 //105   ----------------------------------------
 BYTE   N11  Fs1  v127
 BYTE   W12
 BYTE   Bn1
 BYTE   W12
 BYTE   N20  As1
 BYTE   W24
 BYTE   N11  As2
 BYTE   W12
 BYTE   Fn2
 BYTE   W12
 BYTE   N20  As1
 BYTE   W24
//  #03 //106   ----------------------------------------
Label_0173673B:
 BYTE   N20  As2  v127
 BYTE   W24
 BYTE   Bn1
 BYTE   W24
 BYTE   N11  Bn2
 BYTE   W12
 BYTE   Fs2
 BYTE   W12
 BYTE   N20  Bn1
 BYTE   W24
 BYTE   PEND 
//  #03 //107   ----------------------------------------
Label_0173674A:
 BYTE   N20  Bn2  v127
 BYTE   W24
 BYTE   Cn2
 BYTE   W24
 BYTE   N11  Cn3
 BYTE   W12
 BYTE   Gn2
 BYTE   W12
 BYTE   N20  Cn2
 BYTE   W24
 BYTE   PEND 
//  #03 //108   ----------------------------------------
Label_01736759:
 BYTE   N20  Cn3  v127
 BYTE   W24
 BYTE   Cs2
 BYTE   W24
 BYTE   N11  Cs3
 BYTE   W12
 BYTE   Gs2
 BYTE   W12
 BYTE   N20  Cs2
 BYTE   W24
 BYTE   PEND 
//  #03 //109   ----------------------------------------
 BYTE   Cs3
 BYTE   W24
 BYTE   As1
 BYTE   W24
 BYTE   N11  As2
 BYTE   W12
 BYTE   Fn2
 BYTE   W12
 BYTE   N20  As1
 BYTE   W24
//  #03 //110   ----------------------------------------
 BYTE   PATT
  POIN2 Label_0173673B
//  #03 //111   ----------------------------------------
 BYTE   PATT
  POIN2 Label_0173674A
//  #03 //112   ----------------------------------------
 BYTE   PATT
  POIN2 Label_01736759
//  #03 //113   ----------------------------------------
 BYTE   N20  Cs3  v127
 BYTE   W24
 BYTE   As1
 BYTE   W24
 BYTE   N11  Fn1
 BYTE   W12
 BYTE   N20  As1
 BYTE   W24
 BYTE   N11
 BYTE   W12
//  #03 //114   ----------------------------------------
 BYTE   PATT
  POIN2 Label_01736627
//  #03 //115   ----------------------------------------
 BYTE   PATT
  POIN2 Label_017366B4
//  #03 //116   ----------------------------------------
 BYTE   PATT
  POIN2 Label_017366C5
//  #03 //117   ----------------------------------------
 BYTE   PATT
  POIN2 Label_01736639
//  #03 //118   ----------------------------------------
 BYTE   PATT
  POIN2 Label_01736627
//  #03 //119   ----------------------------------------
 BYTE   PATT
  POIN2 Label_017366B4
//  #03 //120   ----------------------------------------
 BYTE   PATT
  POIN2 Label_017366C5
//  #03 //121   ----------------------------------------
 BYTE   N11  Fs1  v127
 BYTE   W12
 BYTE   Bn1
 BYTE   W12
 BYTE   As1  v076
 BYTE   W12
 BYTE   N20
 BYTE   W24
 BYTE   N11
 BYTE   W12
 BYTE   N20
 BYTE   W24
//  #03 //122   ----------------------------------------
 BYTE   PATT
  POIN2 Label_017364EB
//  #03 //123   ----------------------------------------
 BYTE   PATT
  POIN2 Label_017364FB
//  #03 //124   ----------------------------------------
 BYTE   PATT
  POIN2 Label_017364EB
//  #03 //125   ----------------------------------------
 BYTE   PATT
  POIN2 Label_017364FB
//  #03 //126   ----------------------------------------
 BYTE   PATT
  POIN2 Label_017364EB
//  #03 //127   ----------------------------------------
 BYTE   PATT
  POIN2 Label_017364FB
//  #03 //128   ----------------------------------------
 BYTE   PATT
  POIN2 Label_017364EB
//  #03 //129   ----------------------------------------
 BYTE   W12
 BYTE   N11  Bn1  v076
 BYTE   W84
//  #03 //130   ----------------------------------------
 BYTE   PATT
  POIN2 Label_01736527
//  #03 //131   ----------------------------------------
 BYTE   W96
//  #03 //132   ----------------------------------------
 BYTE   PATT
  POIN2 Label_0173652F
//  #03 //133   ----------------------------------------
 BYTE   PATT
  POIN2 Label_0173653E
//  #03 //134   ----------------------------------------
 BYTE   PATT
  POIN2 Label_0173653E
//  #03 //135   ----------------------------------------
 BYTE   PATT
  POIN2 Label_0173653E
//  #03 //136   ----------------------------------------
 BYTE   PATT
  POIN2 Label_0173655A
//  #03 //137   ----------------------------------------
 BYTE   PATT
  POIN2 Label_0173656D
//  #03 //138   ----------------------------------------
 BYTE   PATT
  POIN2 Label_01736580
//  #03 //139   ----------------------------------------
 BYTE   PATT
  POIN2 Label_01736592
//  #03 //140   ----------------------------------------
 BYTE   PATT
  POIN2 Label_017365A3
//  #03 //141   ----------------------------------------
 BYTE   PATT
  POIN2 Label_017365B5
//  #03 //142   ----------------------------------------
 BYTE   PATT
  POIN2 Label_017365C6
//  #03 //143   ----------------------------------------
 BYTE   PATT
  POIN2 Label_017365D8
//  #03 //144   ----------------------------------------
 BYTE   PATT
  POIN2 Label_017365EA
//  #03 //145   ----------------------------------------
 BYTE   PATT
  POIN2 Label_0173656D
//  #03 //146   ----------------------------------------
 BYTE   PATT
  POIN2 Label_01736580
//  #03 //147   ----------------------------------------
 BYTE   PATT
  POIN2 Label_01736592
//  #03 //148   ----------------------------------------
 BYTE   PATT
  POIN2 Label_017365A3
//  #03 //149   ----------------------------------------
 BYTE   PATT
  POIN2 Label_017365C6
//  #03 //150   ----------------------------------------
 BYTE   PATT
  POIN2 Label_01736615
//  #03 //151   ----------------------------------------
 BYTE   PATT
  POIN2 Label_01736627
//  #03 //152   ----------------------------------------
 BYTE   PATT
  POIN2 Label_01736639
//  #03 //153   ----------------------------------------
 BYTE   PATT
  POIN2 Label_01736627
//  #03 //154   ----------------------------------------
 BYTE   PATT
  POIN2 Label_01736639
//  #03 //155   ----------------------------------------
 BYTE   PATT
  POIN2 Label_01736627
//  #03 //156   ----------------------------------------
 BYTE   PATT
  POIN2 Label_01736639
//  #03 //157   ----------------------------------------
 BYTE   PATT
  POIN2 Label_01736627
//  #03 //158   ----------------------------------------
 BYTE   PATT
  POIN2 Label_01736664
//  #03 //159   ----------------------------------------
 BYTE   W96
//  #03 //160   ----------------------------------------
 BYTE   W96
//  #03 //161   ----------------------------------------
 BYTE   W96
//  #03 //162   ----------------------------------------
 BYTE   GoTo
  POIN2 Label_0173666E
//  #03 //163   ----------------------------------------
 BYTE   W23
 BYTE   FINE

//**************** Track 4 (Midi-Chn.3) ****************//

CelicaMap1SSBB_Song_004:
//  #04 //000   ----------------------------------------
 BYTE   KEYSH   CelicaMap1SSBB_Song_key+0
 BYTE   VOICE   1
 BYTE   VOL   45*CelicaMap1SSBB_Song_mvl/mxv
 BYTE   PAN   c_v+0
 BYTE   W96
//  #04 //001   ----------------------------------------
 BYTE   W96
//  #04 //002   ----------------------------------------
 BYTE   W96
//  #04 //003   ----------------------------------------
 BYTE   W96
//  #04 //004   ----------------------------------------
 BYTE   W96
//  #04 //005   ----------------------------------------
 BYTE   W96
//  #04 //006   ----------------------------------------
 BYTE   W96
//  #04 //007   ----------------------------------------
 BYTE   W96
//  #04 //008   ----------------------------------------
 BYTE   W96
//  #04 //009   ----------------------------------------
 BYTE   W96
//  #04 //010   ----------------------------------------
 BYTE   W96
//  #04 //011   ----------------------------------------
 BYTE   W96
//  #04 //012   ----------------------------------------
 BYTE   W96
//  #04 //013   ----------------------------------------
 BYTE   W96
//  #04 //014   ----------------------------------------
 BYTE   W96
//  #04 //015   ----------------------------------------
 BYTE   W96
//  #04 //016   ----------------------------------------
 BYTE   W96
//  #04 //017   ----------------------------------------
 BYTE   W96
//  #04 //018   ----------------------------------------
 BYTE   W96
//  #04 //019   ----------------------------------------
 BYTE   W96
//  #04 //020   ----------------------------------------
 BYTE   W96
//  #04 //021   ----------------------------------------
 BYTE   W96
//  #04 //022   ----------------------------------------
 BYTE   W96
//  #04 //023   ----------------------------------------
 BYTE   W96
//  #04 //024   ----------------------------------------
 BYTE   W96
//  #04 //025   ----------------------------------------
 BYTE   W96
//  #04 //026   ----------------------------------------
 BYTE   W96
//  #04 //027   ----------------------------------------
 BYTE   W96
//  #04 //028   ----------------------------------------
 BYTE   W96
//  #04 //029   ----------------------------------------
 BYTE   W96
//  #04 //030   ----------------------------------------
 BYTE   W96
//  #04 //031   ----------------------------------------
 BYTE   W96
//  #04 //032   ----------------------------------------
Label_FA71B8:
 BYTE   W24
 BYTE   N32  Fn3  v092
 BYTE   W36
 BYTE   TIE  Cs3
 BYTE   W36
 BYTE   PEND 
//  #04 //033   ----------------------------------------
 BYTE   W96
//  #04 //034   ----------------------------------------
 BYTE   W18
 BYTE   EOT
 BYTE   W06
 BYTE   N32  Fn3
 BYTE   W36
 BYTE   Cs3
 BYTE   W36
//  #04 //035   ----------------------------------------
Label_FA71CA:
 BYTE   N20  Fn3  v092
 BYTE   W24
 BYTE   N32  Cs4
 BYTE   W36
 BYTE   As3
 BYTE   W36
 BYTE   PEND 
//  #04 //036   ----------------------------------------
Label_FA71D4:
 BYTE   N20  Fs3  v092
 BYTE   W24
 BYTE   N32  Fn3
 BYTE   W36
 BYTE   As3
 BYTE   N32  Fn4
 BYTE   W36
 BYTE   PEND 
//  #04 //037   ----------------------------------------
Label_FA71E0:
 BYTE   N20  Fn2  v092
 BYTE   W24
 BYTE   N90  Fs3
 BYTE   W72
 BYTE   PEND 
//  #04 //038   ----------------------------------------
Label_FA71E8:
 BYTE   W24
 BYTE   N32  Fn3  v092
 BYTE   N32  As3
 BYTE   W36
 BYTE   N32
 BYTE   N32  Cs4
 BYTE   W36
 BYTE   PEND 
//  #04 //039   ----------------------------------------
Label_FA71F4:
 BYTE   N20  Cs4  v092
 BYTE   N20  Fn4
 BYTE   W24
 BYTE   N32  Ds4
 BYTE   N32  Gs4
 BYTE   W36
 BYTE   Cs4
 BYTE   N32  Fs4
 BYTE   W36
 BYTE   PEND 
//  #04 //040   ----------------------------------------
 BYTE   N20  As3
 BYTE   N20  Ds4
 BYTE   W96
//  #04 //041   ----------------------------------------
 BYTE   W96
//  #04 //042   ----------------------------------------
 BYTE   W96
//  #04 //043   ----------------------------------------
 BYTE   W96
//  #04 //044   ----------------------------------------
 BYTE   W96
//  #04 //045   ----------------------------------------
 BYTE   W96
//  #04 //046   ----------------------------------------
 BYTE   W96
//  #04 //047   ----------------------------------------
 BYTE   W96
//  #04 //048   ----------------------------------------
 BYTE   W96
//  #04 //049   ----------------------------------------
 BYTE   W96
//  #04 //050   ----------------------------------------
 BYTE   W96
//  #04 //051   ----------------------------------------
 BYTE   W96
//  #04 //052   ----------------------------------------
 BYTE   W96
//  #04 //053   ----------------------------------------
 BYTE   W96
//  #04 //054   ----------------------------------------
 BYTE   W96
//  #04 //055   ----------------------------------------
 BYTE   W96
//  #04 //056   ----------------------------------------
 BYTE   W96
//  #04 //057   ----------------------------------------
 BYTE   W96
//  #04 //058   ----------------------------------------
 BYTE   W96
//  #04 //059   ----------------------------------------
 BYTE   W96
//  #04 //060   ----------------------------------------
 BYTE   W96
//  #04 //061   ----------------------------------------
 BYTE   W96
//  #04 //062   ----------------------------------------
 BYTE   W96
//  #04 //063   ----------------------------------------
 BYTE   W96
//  #04 //064   ----------------------------------------
 BYTE   W96
//  #04 //065   ----------------------------------------
 BYTE   W96
//  #04 //066   ----------------------------------------
 BYTE   W96
//  #04 //067   ----------------------------------------
 BYTE   W96
//  #04 //068   ----------------------------------------
 BYTE   W96
//  #04 //069   ----------------------------------------
 BYTE   W96
//  #04 //070   ----------------------------------------
 BYTE   W96
//  #04 //071   ----------------------------------------
 BYTE   W96
//  #04 //072   ----------------------------------------
 BYTE   W96
//  #04 //073   ----------------------------------------
 BYTE   W96
//  #04 //074   ----------------------------------------
 BYTE   W96
//  #04 //075   ----------------------------------------
 BYTE   W96
//  #04 //076   ----------------------------------------
 BYTE   W96
//  #04 //077   ----------------------------------------
 BYTE   W96
//  #04 //078   ----------------------------------------
 BYTE   W96
//  #04 //079   ----------------------------------------
 BYTE   W96
//  #04 //080   ----------------------------------------
 BYTE   W96
//  #04 //081   ----------------------------------------
Label_FA7231:
 BYTE   W96
//  #04 //082   ----------------------------------------
 BYTE   W96
//  #04 //083   ----------------------------------------
 BYTE   W96
//  #04 //084   ----------------------------------------
 BYTE   W96
//  #04 //085   ----------------------------------------
 BYTE   W96
//  #04 //086   ----------------------------------------
 BYTE   W96
//  #04 //087   ----------------------------------------
 BYTE   W96
//  #04 //088   ----------------------------------------
 BYTE   W96
//  #04 //089   ----------------------------------------
 BYTE   W96
//  #04 //090   ----------------------------------------
 BYTE   W96
//  #04 //091   ----------------------------------------
 BYTE   W96
//  #04 //092   ----------------------------------------
 BYTE   W96
//  #04 //093   ----------------------------------------
 BYTE   W96
//  #04 //094   ----------------------------------------
 BYTE   W96
//  #04 //095   ----------------------------------------
 BYTE   W96
//  #04 //096   ----------------------------------------
 BYTE   W96
//  #04 //097   ----------------------------------------
 BYTE   W96
//  #04 //098   ----------------------------------------
 BYTE   W96
//  #04 //099   ----------------------------------------
 BYTE   W96
//  #04 //100   ----------------------------------------
 BYTE   W96
//  #04 //101   ----------------------------------------
 BYTE   W96
//  #04 //102   ----------------------------------------
 BYTE   W96
//  #04 //103   ----------------------------------------
 BYTE   W96
//  #04 //104   ----------------------------------------
 BYTE   W96
//  #04 //105   ----------------------------------------
 BYTE   W96
//  #04 //106   ----------------------------------------
 BYTE   W96
//  #04 //107   ----------------------------------------
 BYTE   W96
//  #04 //108   ----------------------------------------
 BYTE   W96
//  #04 //109   ----------------------------------------
 BYTE   W96
//  #04 //110   ----------------------------------------
 BYTE   W96
//  #04 //111   ----------------------------------------
 BYTE   W96
//  #04 //112   ----------------------------------------
 BYTE   W96
//  #04 //113   ----------------------------------------
 BYTE   PATT
  POIN2 Label_FA71B8
//  #04 //114   ----------------------------------------
 BYTE   W96
//  #04 //115   ----------------------------------------
 BYTE   W18
 BYTE   EOT
 BYTE   Cs3
 BYTE   W06
 BYTE   N32  Fn3  v092
 BYTE   W36
 BYTE   Cs3
 BYTE   W36
//  #04 //116   ----------------------------------------
 BYTE   PATT
  POIN2 Label_FA71CA
//  #04 //117   ----------------------------------------
 BYTE   PATT
  POIN2 Label_FA71D4
//  #04 //118   ----------------------------------------
 BYTE   PATT
  POIN2 Label_FA71E0
//  #04 //119   ----------------------------------------
 BYTE   PATT
  POIN2 Label_FA71E8
//  #04 //120   ----------------------------------------
 BYTE   PATT
  POIN2 Label_FA71F4
//  #04 //121   ----------------------------------------
 BYTE   N20  As3  v092
 BYTE   N20  Ds4
 BYTE   W96
//  #04 //122   ----------------------------------------
 BYTE   W96
//  #04 //123   ----------------------------------------
 BYTE   W96
//  #04 //124   ----------------------------------------
 BYTE   W96
//  #04 //125   ----------------------------------------
 BYTE   W96
//  #04 //126   ----------------------------------------
 BYTE   W96
//  #04 //127   ----------------------------------------
 BYTE   W96
//  #04 //128   ----------------------------------------
 BYTE   W96
//  #04 //129   ----------------------------------------
 BYTE   W96
//  #04 //130   ----------------------------------------
 BYTE   W96
//  #04 //131   ----------------------------------------
 BYTE   W96
//  #04 //132   ----------------------------------------
 BYTE   W96
//  #04 //133   ----------------------------------------
 BYTE   W96
//  #04 //134   ----------------------------------------
 BYTE   W96
//  #04 //135   ----------------------------------------
 BYTE   W96
//  #04 //136   ----------------------------------------
 BYTE   W96
//  #04 //137   ----------------------------------------
 BYTE   W96
//  #04 //138   ----------------------------------------
 BYTE   W96
//  #04 //139   ----------------------------------------
 BYTE   W96
//  #04 //140   ----------------------------------------
 BYTE   W96
//  #04 //141   ----------------------------------------
 BYTE   W96
//  #04 //142   ----------------------------------------
 BYTE   W96
//  #04 //143   ----------------------------------------
 BYTE   W96
//  #04 //144   ----------------------------------------
 BYTE   W96
//  #04 //145   ----------------------------------------
 BYTE   W96
//  #04 //146   ----------------------------------------
 BYTE   W96
//  #04 //147   ----------------------------------------
 BYTE   W96
//  #04 //148   ----------------------------------------
 BYTE   W96
//  #04 //149   ----------------------------------------
 BYTE   W96
//  #04 //150   ----------------------------------------
 BYTE   W96
//  #04 //151   ----------------------------------------
 BYTE   W96
//  #04 //152   ----------------------------------------
 BYTE   W96
//  #04 //153   ----------------------------------------
 BYTE   W96
//  #04 //154   ----------------------------------------
 BYTE   W96
//  #04 //155   ----------------------------------------
 BYTE   W96
//  #04 //156   ----------------------------------------
 BYTE   W96
//  #04 //157   ----------------------------------------
 BYTE   W96
//  #04 //158   ----------------------------------------
 BYTE   W96
//  #04 //159   ----------------------------------------
 BYTE   W96
//  #04 //160   ----------------------------------------
 BYTE   W96
//  #04 //161   ----------------------------------------
 BYTE   W96
//  #04 //162   ----------------------------------------
 BYTE   GoTo
  POIN2 Label_FA7231
//  #04 //163   ----------------------------------------
 BYTE   W23
 BYTE   FINE

//**************** Track 5 (Midi-Chn.4) ****************//

CelicaMap1SSBB_Song_005:
//  #05 //000   ----------------------------------------
 BYTE   KEYSH   CelicaMap1SSBB_Song_key+0
 BYTE   VOICE   51
 BYTE   VOL   50*CelicaMap1SSBB_Song_mvl/mxv
 BYTE   PAN   c_v+0
 BYTE   W96
//  #05 //001   ----------------------------------------
 BYTE   W96
//  #05 //002   ----------------------------------------
 BYTE   W96
//  #05 //003   ----------------------------------------
 BYTE   W96
//  #05 //004   ----------------------------------------
 BYTE   W96
//  #05 //005   ----------------------------------------
Label_01735081:
 BYTE   W24
 BYTE   N20  As0  v112
 BYTE   W24
 BYTE   N11  Fn0
 BYTE   W12
 BYTE   N20  As0
 BYTE   W24
 BYTE   N11
 BYTE   W12
 BYTE   PEND 
//  #05 //006   ----------------------------------------
Label_0173508F:
 BYTE   N11  Fn0  v112
 BYTE   W12
 BYTE   As0
 BYTE   W12
 BYTE   N20  Bn0
 BYTE   W24
 BYTE   N11  Fs0
 BYTE   W12
 BYTE   N20  Bn0
 BYTE   W24
 BYTE   N11
 BYTE   W12
 BYTE   PEND 
//  #05 //007   ----------------------------------------
Label_017350A1:
 BYTE   N11  Fs0  v112
 BYTE   W12
 BYTE   Bn0
 BYTE   W12
 BYTE   N17  As0
 BYTE   W18
 BYTE   Fn0
 BYTE   W18
 BYTE   N20  As0
 BYTE   W24
 BYTE   N11
 BYTE   W12
 BYTE   PEND 
//  #05 //008   ----------------------------------------
Label_017350B2:
 BYTE   N11  Fn0  v112
 BYTE   W12
 BYTE   As0
 BYTE   W12
 BYTE   N17  Bn0
 BYTE   W18
 BYTE   Fs0
 BYTE   W18
 BYTE   N20  Bn0
 BYTE   W24
 BYTE   N11
 BYTE   W12
 BYTE   PEND 
//  #05 //009   ----------------------------------------
Label_017350C3:
 BYTE   N11  Fs0  v112
 BYTE   W12
 BYTE   Bn0
 BYTE   W12
 BYTE   N20  As0
 BYTE   W24
 BYTE   N11  Fn0
 BYTE   W12
 BYTE   N20  As0
 BYTE   W24
 BYTE   N11
 BYTE   W12
 BYTE   PEND 
//  #05 //010   ----------------------------------------
 BYTE   PATT
  POIN2 Label_0173508F
//  #05 //011   ----------------------------------------
 BYTE   PATT
  POIN2 Label_017350A1
//  #05 //012   ----------------------------------------
 BYTE   PATT
  POIN2 Label_017350B2
//  #05 //013   ----------------------------------------
 BYTE   N11  Fs0  v112
 BYTE   W12
 BYTE   Bn0
 BYTE   W12
 BYTE   As0
 BYTE   W12
 BYTE   N20
 BYTE   W24
 BYTE   N11
 BYTE   W12
 BYTE   N20
 BYTE   W24
//  #05 //014   ----------------------------------------
Label_017350F2:
 BYTE   N11  As0  v112
 BYTE   W12
 BYTE   N23
 BYTE   W24
 BYTE   N11
 BYTE   W12
 BYTE   N20
 BYTE   W24
 BYTE   N11  Bn0
 BYTE   W12
 BYTE   N20
 BYTE   W12
 BYTE   PEND 
//  #05 //015   ----------------------------------------
 BYTE   W12
 BYTE   N11
 BYTE   W12
 BYTE   As0
 BYTE   W12
 BYTE   N20
 BYTE   W24
 BYTE   N11
 BYTE   W12
 BYTE   N20
 BYTE   W24
//  #05 //016   ----------------------------------------
 BYTE   PATT
  POIN2 Label_017350F2
//  #05 //017   ----------------------------------------
 BYTE   W12
 BYTE   N11  Bn0  v112
 BYTE   W84
//  #05 //018   ----------------------------------------
 BYTE   PATT
  POIN2 Label_01735081
//  #05 //019   ----------------------------------------
 BYTE   PATT
  POIN2 Label_0173508F
//  #05 //020   ----------------------------------------
 BYTE   PATT
  POIN2 Label_017350A1
//  #05 //021   ----------------------------------------
 BYTE   PATT
  POIN2 Label_017350B2
//  #05 //022   ----------------------------------------
 BYTE   PATT
  POIN2 Label_017350C3
//  #05 //023   ----------------------------------------
 BYTE   PATT
  POIN2 Label_0173508F
//  #05 //024   ----------------------------------------
 BYTE   N11  Fs0  v112
 BYTE   W12
 BYTE   Bn0
 BYTE   W12
 BYTE   N20  As0
 BYTE   W24
 BYTE   N11  As1
 BYTE   W12
 BYTE   Fn1
 BYTE   W12
 BYTE   N20  As0
 BYTE   W24
//  #05 //025   ----------------------------------------
Label_01735146:
 BYTE   N20  As1  v112
 BYTE   W24
 BYTE   Bn0
 BYTE   W24
 BYTE   N11  Bn1
 BYTE   W12
 BYTE   Fs1
 BYTE   W12
 BYTE   N20  Bn0
 BYTE   W24
 BYTE   PEND 
//  #05 //026   ----------------------------------------
Label_01735155:
 BYTE   N20  Bn1  v112
 BYTE   W24
 BYTE   Cn1
 BYTE   W24
 BYTE   N11  Cn2
 BYTE   W12
 BYTE   Gn1
 BYTE   W12
 BYTE   N20  Cn1
 BYTE   W24
 BYTE   PEND 
//  #05 //027   ----------------------------------------
Label_01735164:
 BYTE   N20  Cn2  v112
 BYTE   W24
 BYTE   Cs1
 BYTE   W24
 BYTE   N11  Cs2
 BYTE   W12
 BYTE   Gs1
 BYTE   W12
 BYTE   N20  Cs1
 BYTE   W24
 BYTE   PEND 
//  #05 //028   ----------------------------------------
 BYTE   Cs2
 BYTE   W24
 BYTE   As0
 BYTE   W24
 BYTE   N11  As1
 BYTE   W12
 BYTE   Fn1
 BYTE   W12
 BYTE   N20  As0
 BYTE   W24
//  #05 //029   ----------------------------------------
 BYTE   PATT
  POIN2 Label_01735146
//  #05 //030   ----------------------------------------
 BYTE   PATT
  POIN2 Label_01735155
//  #05 //031   ----------------------------------------
 BYTE   PATT
  POIN2 Label_01735164
//  #05 //032   ----------------------------------------
 BYTE   N20  Cs2  v112
 BYTE   W24
 BYTE   As0
 BYTE   W24
 BYTE   N11  Fn0
 BYTE   W12
 BYTE   N20  As0
 BYTE   W24
 BYTE   N11
 BYTE   W12
//  #05 //033   ----------------------------------------
 BYTE   PATT
  POIN2 Label_0173508F
//  #05 //034   ----------------------------------------
 BYTE   PATT
  POIN2 Label_017350A1
//  #05 //035   ----------------------------------------
 BYTE   PATT
  POIN2 Label_017350B2
//  #05 //036   ----------------------------------------
 BYTE   PATT
  POIN2 Label_017350C3
//  #05 //037   ----------------------------------------
 BYTE   PATT
  POIN2 Label_0173508F
//  #05 //038   ----------------------------------------
 BYTE   PATT
  POIN2 Label_017350A1
//  #05 //039   ----------------------------------------
 BYTE   PATT
  POIN2 Label_017350B2
//  #05 //040   ----------------------------------------
 BYTE   N11  Fs0  v112
 BYTE   W12
 BYTE   Bn0
 BYTE   W12
 BYTE   As0  v076
 BYTE   W12
 BYTE   N20
 BYTE   W24
 BYTE   N11
 BYTE   W12
 BYTE   N20
 BYTE   W24
//  #05 //041   ----------------------------------------
Label_017351CE:
 BYTE   N11  As0  v076
 BYTE   W12
 BYTE   N23
 BYTE   W24
 BYTE   N11
 BYTE   W12
 BYTE   N20
 BYTE   W24
 BYTE   N11  Bn0
 BYTE   W12
 BYTE   N20
 BYTE   W12
 BYTE   PEND 
//  #05 //042   ----------------------------------------
Label_017351DE:
 BYTE   W12
 BYTE   N11  Bn0  v076
 BYTE   W12
 BYTE   As0
 BYTE   W12
 BYTE   N20
 BYTE   W24
 BYTE   N11
 BYTE   W12
 BYTE   N20
 BYTE   W24
 BYTE   PEND 
//  #05 //043   ----------------------------------------
 BYTE   PATT
  POIN2 Label_017351CE
//  #05 //044   ----------------------------------------
 BYTE   PATT
  POIN2 Label_017351DE
//  #05 //045   ----------------------------------------
 BYTE   PATT
  POIN2 Label_017351CE
//  #05 //046   ----------------------------------------
 BYTE   PATT
  POIN2 Label_017351DE
//  #05 //047   ----------------------------------------
 BYTE   PATT
  POIN2 Label_017351CE
//  #05 //048   ----------------------------------------
 BYTE   W12
 BYTE   N11  Bn0  v076
 BYTE   W84
//  #05 //049   ----------------------------------------
Label_0173520A:
 BYTE   N20  Gs0  v076
 BYTE   W24
 BYTE   As0
 BYTE   W72
 BYTE   PEND 
//  #05 //050   ----------------------------------------
 BYTE   W96
//  #05 //051   ----------------------------------------
Label_01735212:
 BYTE   W24
 BYTE   N11  As0  v076
 BYTE   W12
 BYTE   N11
 BYTE   W12
 BYTE   Fn0
 BYTE   W12
 BYTE   N20  As0
 BYTE   W24
 BYTE   N11
 BYTE   W12
 BYTE   PEND 
//  #05 //052   ----------------------------------------
Label_01735221:
 BYTE   N11  Fn0  v076
 BYTE   W12
 BYTE   As0
 BYTE   W12
 BYTE   N11
 BYTE   W12
 BYTE   N11
 BYTE   W12
 BYTE   Fn0
 BYTE   W12
 BYTE   N20  As0
 BYTE   W24
 BYTE   N11
 BYTE   W12
 BYTE   PEND 
//  #05 //053   ----------------------------------------
 BYTE   PATT
  POIN2 Label_01735221
//  #05 //054   ----------------------------------------
 BYTE   PATT
  POIN2 Label_01735221
//  #05 //055   ----------------------------------------
Label_0173523D:
 BYTE   N11  Fn0  v076
 BYTE   W12
 BYTE   As0
 BYTE   W12
 BYTE   As0  v127
 BYTE   W12
 BYTE   N11
 BYTE   W12
 BYTE   Fn0
 BYTE   W12
 BYTE   N20  As0
 BYTE   W24
 BYTE   N11
 BYTE   W12
 BYTE   PEND 
//  #05 //056   ----------------------------------------
Label_01735250:
 BYTE   N11  Fn0  v127
 BYTE   W12
 BYTE   As0
 BYTE   W12
 BYTE   N11
 BYTE   W12
 BYTE   N11
 BYTE   W12
 BYTE   Fn0
 BYTE   W12
 BYTE   As0
 BYTE   W12
 BYTE   Gs0
 BYTE   W12
 BYTE   N11
 BYTE   W12
 BYTE   PEND 
//  #05 //057   ----------------------------------------
Label_01735263:
 BYTE   N11  Ds0  v127
 BYTE   W12
 BYTE   Gs0
 BYTE   W12
 BYTE   Fs0
 BYTE   W12
 BYTE   N11
 BYTE   W12
 BYTE   Cs1
 BYTE   W12
 BYTE   N20  Fs0
 BYTE   W24
 BYTE   N11
 BYTE   W12
 BYTE   PEND 
//  #05 //058   ----------------------------------------
Label_01735275:
 BYTE   N11  Cs1  v127
 BYTE   W12
 BYTE   N23  Fs0
 BYTE   W24
 BYTE   N11
 BYTE   W12
 BYTE   Cs1
 BYTE   W12
 BYTE   N20  Fs0
 BYTE   W24
 BYTE   N11
 BYTE   W12
 BYTE   PEND 
//  #05 //059   ----------------------------------------
Label_01735286:
 BYTE   N11  Cs1  v127
 BYTE   W12
 BYTE   Fs0
 BYTE   W12
 BYTE   Ds1
 BYTE   W12
 BYTE   N11
 BYTE   W12
 BYTE   As0
 BYTE   W12
 BYTE   N20  Ds1
 BYTE   W24
 BYTE   N11
 BYTE   W12
 BYTE   PEND 
//  #05 //060   ----------------------------------------
Label_01735298:
 BYTE   N11  As0  v127
 BYTE   W12
 BYTE   N23  Ds1
 BYTE   W24
 BYTE   N11
 BYTE   W12
 BYTE   As0
 BYTE   W12
 BYTE   N20  Ds1
 BYTE   W24
 BYTE   N11
 BYTE   W12
 BYTE   PEND 
//  #05 //061   ----------------------------------------
Label_017352A9:
 BYTE   N11  As0  v127
 BYTE   W12
 BYTE   Ds1
 BYTE   W12
 BYTE   Fn1
 BYTE   W12
 BYTE   N11
 BYTE   W12
 BYTE   Cn1
 BYTE   W12
 BYTE   N20  Fn1
 BYTE   W24
 BYTE   N11
 BYTE   W12
 BYTE   PEND 
//  #05 //062   ----------------------------------------
Label_017352BB:
 BYTE   N11  Cn1  v127
 BYTE   W12
 BYTE   Fn1
 BYTE   W12
 BYTE   N11
 BYTE   W12
 BYTE   N11
 BYTE   W12
 BYTE   Cn1
 BYTE   W12
 BYTE   N20  Fn1
 BYTE   W24
 BYTE   N11
 BYTE   W12
 BYTE   PEND 
//  #05 //063   ----------------------------------------
Label_017352CD:
 BYTE   N11  Cn1  v127
 BYTE   W12
 BYTE   Fn1
 BYTE   W12
 BYTE   As0
 BYTE   W12
 BYTE   N11
 BYTE   W12
 BYTE   Fn0
 BYTE   W12
 BYTE   N20  As0
 BYTE   W24
 BYTE   N11
 BYTE   W12
 BYTE   PEND 
//  #05 //064   ----------------------------------------
 BYTE   PATT
  POIN2 Label_01735250
//  #05 //065   ----------------------------------------
 BYTE   PATT
  POIN2 Label_01735263
//  #05 //066   ----------------------------------------
 BYTE   PATT
  POIN2 Label_01735275
//  #05 //067   ----------------------------------------
 BYTE   PATT
  POIN2 Label_01735286
//  #05 //068   ----------------------------------------
 BYTE   PATT
  POIN2 Label_017352A9
//  #05 //069   ----------------------------------------
Label_017352F8:
 BYTE   N11  Cn1  v127
 BYTE   W12
 BYTE   Fn1
 BYTE   W12
 BYTE   N20  As0
 BYTE   W24
 BYTE   N11  Fn0
 BYTE   W12
 BYTE   N20  As0
 BYTE   W24
 BYTE   N11
 BYTE   W12
 BYTE   PEND 
//  #05 //070   ----------------------------------------
Label_0173530A:
 BYTE   N11  Fn0  v127
 BYTE   W12
 BYTE   As0
 BYTE   W12
 BYTE   N20  Bn0
 BYTE   W24
 BYTE   N11  Fs0
 BYTE   W12
 BYTE   N20  Bn0
 BYTE   W24
 BYTE   N11
 BYTE   W12
 BYTE   PEND 
//  #05 //071   ----------------------------------------
Label_0173531C:
 BYTE   N11  Fs0  v127
 BYTE   W12
 BYTE   Bn0
 BYTE   W12
 BYTE   N20  As0
 BYTE   W24
 BYTE   N11  Fn0
 BYTE   W12
 BYTE   N20  As0
 BYTE   W24
 BYTE   N11
 BYTE   W12
 BYTE   PEND 
//  #05 //072   ----------------------------------------
 BYTE   PATT
  POIN2 Label_0173530A
//  #05 //073   ----------------------------------------
 BYTE   PATT
  POIN2 Label_0173531C
//  #05 //074   ----------------------------------------
 BYTE   PATT
  POIN2 Label_0173530A
//  #05 //075   ----------------------------------------
 BYTE   PATT
  POIN2 Label_0173531C
//  #05 //076   ----------------------------------------
 BYTE   PATT
  POIN2 Label_0173530A
//  #05 //077   ----------------------------------------
Label_01735347:
 BYTE   N11  Fs0  v127
 BYTE   W12
 BYTE   Bn0
 BYTE   W84
 BYTE   PEND 
//  #05 //078   ----------------------------------------
 BYTE   W96
//  #05 //079   ----------------------------------------
 BYTE   W96
//  #05 //080   ----------------------------------------
 BYTE   W96
//  #05 //081   ----------------------------------------
Label_01735351:
 BYTE   W96
//  #05 //082   ----------------------------------------
 BYTE   W96
//  #05 //083   ----------------------------------------
 BYTE   W96
//  #05 //084   ----------------------------------------
 BYTE   W96
//  #05 //085   ----------------------------------------
 BYTE   W96
//  #05 //086   ----------------------------------------
Label_01735356:
 BYTE   W24
 BYTE   N20  As0  v127
 BYTE   W24
 BYTE   N11  Fn0
 BYTE   W12
 BYTE   N20  As0
 BYTE   W24
 BYTE   N11
 BYTE   W12
 BYTE   PEND 
//  #05 //087   ----------------------------------------
 BYTE   PATT
  POIN2 Label_0173530A
//  #05 //088   ----------------------------------------
Label_01735369:
 BYTE   N11  Fs0  v127
 BYTE   W12
 BYTE   Bn0
 BYTE   W12
 BYTE   N17  As0
 BYTE   W18
 BYTE   Fn0
 BYTE   W18
 BYTE   N20  As0
 BYTE   W24
 BYTE   N11
 BYTE   W12
 BYTE   PEND 
//  #05 //089   ----------------------------------------
Label_0173537A:
 BYTE   N11  Fn0  v127
 BYTE   W12
 BYTE   As0
 BYTE   W12
 BYTE   N17  Bn0
 BYTE   W18
 BYTE   Fs0
 BYTE   W18
 BYTE   N20  Bn0
 BYTE   W24
 BYTE   N11
 BYTE   W12
 BYTE   PEND 
//  #05 //090   ----------------------------------------
 BYTE   PATT
  POIN2 Label_0173531C
//  #05 //091   ----------------------------------------
 BYTE   PATT
  POIN2 Label_0173530A
//  #05 //092   ----------------------------------------
 BYTE   PATT
  POIN2 Label_01735369
//  #05 //093   ----------------------------------------
 BYTE   PATT
  POIN2 Label_0173537A
//  #05 //094   ----------------------------------------
 BYTE   N11  Fs0  v127
 BYTE   W12
 BYTE   Bn0
 BYTE   W12
 BYTE   As0
 BYTE   W12
 BYTE   N20
 BYTE   W24
 BYTE   N11
 BYTE   W12
 BYTE   N20
 BYTE   W24
//  #05 //095   ----------------------------------------
Label_017353AD:
 BYTE   N11  As0  v127
 BYTE   W12
 BYTE   N23
 BYTE   W24
 BYTE   N11
 BYTE   W12
 BYTE   N20
 BYTE   W24
 BYTE   N11  Bn0
 BYTE   W12
 BYTE   N20
 BYTE   W12
 BYTE   PEND 
//  #05 //096   ----------------------------------------
 BYTE   W12
 BYTE   N11
 BYTE   W12
 BYTE   As0
 BYTE   W12
 BYTE   N20
 BYTE   W24
 BYTE   N11
 BYTE   W12
 BYTE   N20
 BYTE   W24
//  #05 //097   ----------------------------------------
 BYTE   PATT
  POIN2 Label_017353AD
//  #05 //098   ----------------------------------------
 BYTE   W12
 BYTE   N11  Bn0  v127
 BYTE   W84
//  #05 //099   ----------------------------------------
 BYTE   PATT
  POIN2 Label_01735356
//  #05 //100   ----------------------------------------
 BYTE   PATT
  POIN2 Label_0173530A
//  #05 //101   ----------------------------------------
 BYTE   PATT
  POIN2 Label_01735369
//  #05 //102   ----------------------------------------
 BYTE   PATT
  POIN2 Label_0173537A
//  #05 //103   ----------------------------------------
 BYTE   PATT
  POIN2 Label_0173531C
//  #05 //104   ----------------------------------------
 BYTE   PATT
  POIN2 Label_0173530A
//  #05 //105   ----------------------------------------
 BYTE   N11  Fs0  v127
 BYTE   W12
 BYTE   Bn0
 BYTE   W12
 BYTE   N20  As0
 BYTE   W24
 BYTE   N11  As1
 BYTE   W12
 BYTE   Fn1
 BYTE   W12
 BYTE   N20  As0
 BYTE   W24
//  #05 //106   ----------------------------------------
Label_01735401:
 BYTE   N20  As1  v127
 BYTE   W24
 BYTE   Bn0
 BYTE   W24
 BYTE   N11  Bn1
 BYTE   W12
 BYTE   Fs1
 BYTE   W12
 BYTE   N20  Bn0
 BYTE   W24
 BYTE   PEND 
//  #05 //107   ----------------------------------------
Label_01735410:
 BYTE   N20  Bn1  v127
 BYTE   W24
 BYTE   Cn1
 BYTE   W24
 BYTE   N11  Cn2
 BYTE   W12
 BYTE   Gn1
 BYTE   W12
 BYTE   N20  Cn1
 BYTE   W24
 BYTE   PEND 
//  #05 //108   ----------------------------------------
Label_0173541F:
 BYTE   N20  Cn2  v127
 BYTE   W24
 BYTE   Cs1
 BYTE   W24
 BYTE   N11  Cs2
 BYTE   W12
 BYTE   Gs1
 BYTE   W12
 BYTE   N20  Cs1
 BYTE   W24
 BYTE   PEND 
//  #05 //109   ----------------------------------------
 BYTE   Cs2
 BYTE   W24
 BYTE   As0
 BYTE   W24
 BYTE   N11  As1
 BYTE   W12
 BYTE   Fn1
 BYTE   W12
 BYTE   N20  As0
 BYTE   W24
//  #05 //110   ----------------------------------------
 BYTE   PATT
  POIN2 Label_01735401
//  #05 //111   ----------------------------------------
 BYTE   PATT
  POIN2 Label_01735410
//  #05 //112   ----------------------------------------
 BYTE   PATT
  POIN2 Label_0173541F
//  #05 //113   ----------------------------------------
 BYTE   N20  Cs2  v127
 BYTE   W24
 BYTE   As0
 BYTE   W24
 BYTE   N11  Fn0
 BYTE   W12
 BYTE   N20  As0
 BYTE   W24
 BYTE   N11
 BYTE   W12
//  #05 //114   ----------------------------------------
 BYTE   PATT
  POIN2 Label_0173530A
//  #05 //115   ----------------------------------------
 BYTE   PATT
  POIN2 Label_01735369
//  #05 //116   ----------------------------------------
 BYTE   PATT
  POIN2 Label_0173537A
//  #05 //117   ----------------------------------------
 BYTE   PATT
  POIN2 Label_0173531C
//  #05 //118   ----------------------------------------
 BYTE   PATT
  POIN2 Label_0173530A
//  #05 //119   ----------------------------------------
 BYTE   PATT
  POIN2 Label_01735369
//  #05 //120   ----------------------------------------
 BYTE   PATT
  POIN2 Label_0173537A
//  #05 //121   ----------------------------------------
 BYTE   N11  Fs0  v127
 BYTE   W12
 BYTE   Bn0
 BYTE   W12
 BYTE   As0  v076
 BYTE   W12
 BYTE   N20
 BYTE   W24
 BYTE   N11
 BYTE   W12
 BYTE   N20
 BYTE   W24
//  #05 //122   ----------------------------------------
 BYTE   PATT
  POIN2 Label_017351CE
//  #05 //123   ----------------------------------------
 BYTE   PATT
  POIN2 Label_017351DE
//  #05 //124   ----------------------------------------
 BYTE   PATT
  POIN2 Label_017351CE
//  #05 //125   ----------------------------------------
 BYTE   PATT
  POIN2 Label_017351DE
//  #05 //126   ----------------------------------------
 BYTE   PATT
  POIN2 Label_017351CE
//  #05 //127   ----------------------------------------
 BYTE   PATT
  POIN2 Label_017351DE
//  #05 //128   ----------------------------------------
 BYTE   PATT
  POIN2 Label_017351CE
//  #05 //129   ----------------------------------------
 BYTE   W12
 BYTE   N11  Bn0  v076
 BYTE   W84
//  #05 //130   ----------------------------------------
 BYTE   PATT
  POIN2 Label_0173520A
//  #05 //131   ----------------------------------------
 BYTE   W96
//  #05 //132   ----------------------------------------
 BYTE   PATT
  POIN2 Label_01735212
//  #05 //133   ----------------------------------------
 BYTE   PATT
  POIN2 Label_01735221
//  #05 //134   ----------------------------------------
 BYTE   PATT
  POIN2 Label_01735221
//  #05 //135   ----------------------------------------
 BYTE   PATT
  POIN2 Label_01735221
//  #05 //136   ----------------------------------------
 BYTE   PATT
  POIN2 Label_0173523D
//  #05 //137   ----------------------------------------
 BYTE   PATT
  POIN2 Label_01735250
//  #05 //138   ----------------------------------------
 BYTE   PATT
  POIN2 Label_01735263
//  #05 //139   ----------------------------------------
 BYTE   PATT
  POIN2 Label_01735275
//  #05 //140   ----------------------------------------
 BYTE   PATT
  POIN2 Label_01735286
//  #05 //141   ----------------------------------------
 BYTE   PATT
  POIN2 Label_01735298
//  #05 //142   ----------------------------------------
 BYTE   PATT
  POIN2 Label_017352A9
//  #05 //143   ----------------------------------------
 BYTE   PATT
  POIN2 Label_017352BB
//  #05 //144   ----------------------------------------
 BYTE   PATT
  POIN2 Label_017352CD
//  #05 //145   ----------------------------------------
 BYTE   PATT
  POIN2 Label_01735250
//  #05 //146   ----------------------------------------
 BYTE   PATT
  POIN2 Label_01735263
//  #05 //147   ----------------------------------------
 BYTE   PATT
  POIN2 Label_01735275
//  #05 //148   ----------------------------------------
 BYTE   PATT
  POIN2 Label_01735286
//  #05 //149   ----------------------------------------
 BYTE   PATT
  POIN2 Label_017352A9
//  #05 //150   ----------------------------------------
 BYTE   PATT
  POIN2 Label_017352F8
//  #05 //151   ----------------------------------------
 BYTE   PATT
  POIN2 Label_0173530A
//  #05 //152   ----------------------------------------
 BYTE   PATT
  POIN2 Label_0173531C
//  #05 //153   ----------------------------------------
 BYTE   PATT
  POIN2 Label_0173530A
//  #05 //154   ----------------------------------------
 BYTE   PATT
  POIN2 Label_0173531C
//  #05 //155   ----------------------------------------
 BYTE   PATT
  POIN2 Label_0173530A
//  #05 //156   ----------------------------------------
 BYTE   PATT
  POIN2 Label_0173531C
//  #05 //157   ----------------------------------------
 BYTE   PATT
  POIN2 Label_0173530A
//  #05 //158   ----------------------------------------
 BYTE   PATT
  POIN2 Label_01735347
//  #05 //159   ----------------------------------------
 BYTE   W96
//  #05 //160   ----------------------------------------
 BYTE   W96
//  #05 //161   ----------------------------------------
 BYTE   W96
//  #05 //162   ----------------------------------------
 BYTE   GoTo
  POIN2 Label_01735351
//  #05 //163   ----------------------------------------
 BYTE   W23
 BYTE   FINE

//**************** Track 6 (Midi-Chn.5) ****************//

CelicaMap1SSBB_Song_006:
//  #06 //000   ----------------------------------------
 BYTE   KEYSH   CelicaMap1SSBB_Song_key+0
 BYTE   VOICE   48
 BYTE   VOL   37*CelicaMap1SSBB_Song_mvl/mxv
 BYTE   PAN   c_v+16
 BYTE   W96
//  #06 //001   ----------------------------------------
 BYTE   W96
//  #06 //002   ----------------------------------------
 BYTE   W96
//  #06 //003   ----------------------------------------
 BYTE   W96
//  #06 //004   ----------------------------------------
 BYTE   W96
//  #06 //005   ----------------------------------------
 BYTE   W96
//  #06 //006   ----------------------------------------
 BYTE   W96
//  #06 //007   ----------------------------------------
 BYTE   W96
//  #06 //008   ----------------------------------------
 BYTE   W96
//  #06 //009   ----------------------------------------
 BYTE   W96
//  #06 //010   ----------------------------------------
 BYTE   W96
//  #06 //011   ----------------------------------------
 BYTE   W96
//  #06 //012   ----------------------------------------
 BYTE   W96
//  #06 //013   ----------------------------------------
 BYTE   W96
//  #06 //014   ----------------------------------------
 BYTE   W96
//  #06 //015   ----------------------------------------
 BYTE   W96
//  #06 //016   ----------------------------------------
 BYTE   W96
//  #06 //017   ----------------------------------------
 BYTE   W96
//  #06 //018   ----------------------------------------
 BYTE   W96
//  #06 //019   ----------------------------------------
 BYTE   W96
//  #06 //020   ----------------------------------------
 BYTE   W96
//  #06 //021   ----------------------------------------
 BYTE   W96
//  #06 //022   ----------------------------------------
 BYTE   W96
//  #06 //023   ----------------------------------------
 BYTE   W96
//  #06 //024   ----------------------------------------
 BYTE   W96
//  #06 //025   ----------------------------------------
 BYTE   W96
//  #06 //026   ----------------------------------------
 BYTE   W96
//  #06 //027   ----------------------------------------
 BYTE   W96
//  #06 //028   ----------------------------------------
 BYTE   W96
//  #06 //029   ----------------------------------------
 BYTE   W96
//  #06 //030   ----------------------------------------
 BYTE   W96
//  #06 //031   ----------------------------------------
 BYTE   W96
//  #06 //032   ----------------------------------------
 BYTE   W96
//  #06 //033   ----------------------------------------
 BYTE   W96
//  #06 //034   ----------------------------------------
 BYTE   W96
//  #06 //035   ----------------------------------------
 BYTE   W96
//  #06 //036   ----------------------------------------
 BYTE   W96
//  #06 //037   ----------------------------------------
 BYTE   W96
//  #06 //038   ----------------------------------------
 BYTE   W96
//  #06 //039   ----------------------------------------
 BYTE   W96
//  #06 //040   ----------------------------------------
 BYTE   W96
//  #06 //041   ----------------------------------------
 BYTE   W96
//  #06 //042   ----------------------------------------
 BYTE   W96
//  #06 //043   ----------------------------------------
 BYTE   W96
//  #06 //044   ----------------------------------------
 BYTE   W96
//  #06 //045   ----------------------------------------
 BYTE   W96
//  #06 //046   ----------------------------------------
 BYTE   W96
//  #06 //047   ----------------------------------------
 BYTE   W96
//  #06 //048   ----------------------------------------
 BYTE   W96
//  #06 //049   ----------------------------------------
 BYTE   W96
//  #06 //050   ----------------------------------------
 BYTE   W96
//  #06 //051   ----------------------------------------
 BYTE   W96
//  #06 //052   ----------------------------------------
 BYTE   W96
//  #06 //053   ----------------------------------------
 BYTE   W96
//  #06 //054   ----------------------------------------
 BYTE   W96
//  #06 //055   ----------------------------------------
Label_FA6DAB:
 BYTE   W24
 BYTE   N90  As2  v076
 BYTE   N90  Cs3
 BYTE   W72
 BYTE   PEND 
//  #06 //056   ----------------------------------------
Label_FA6DB3:
 BYTE   W24
 BYTE   N42  Cs3  v076
 BYTE   N42  Fn3
 BYTE   W48
 BYTE   Cs3
 BYTE   N42  Fn3
 BYTE   W24
 BYTE   PEND 
//  #06 //057   ----------------------------------------
 BYTE   W24
 BYTE   N90
 BYTE   W72
//  #06 //058   ----------------------------------------
 BYTE   W24
 BYTE   Cs3
 BYTE   W72
//  #06 //059   ----------------------------------------
Label_FA6DC5:
 BYTE   W24
 BYTE   N90  Cs3  v076
 BYTE   N90  Fs3
 BYTE   W72
 BYTE   PEND 
//  #06 //060   ----------------------------------------
Label_FA6DCD:
 BYTE   W24
 BYTE   N32  Cn3  v076
 BYTE   N72  Ds3
 BYTE   W36
 BYTE   N32  Cs3
 BYTE   W36
 BYTE   PEND 
//  #06 //061   ----------------------------------------
Label_FA6DD8:
 BYTE   N18  Ds3  v076
 BYTE   W24
 BYTE   N90  Cs3
 BYTE   N90  Fs3
 BYTE   W72
 BYTE   PEND 
//  #06 //062   ----------------------------------------
Label_FA6DE2:
 BYTE   W24
 BYTE   N90  Cn3  v076
 BYTE   N90  Fn3
 BYTE   W72
 BYTE   PEND 
//  #06 //063   ----------------------------------------
 BYTE   PATT
  POIN2 Label_FA6DAB
//  #06 //064   ----------------------------------------
 BYTE   PATT
  POIN2 Label_FA6DB3
//  #06 //065   ----------------------------------------
Label_FA6DF4:
 BYTE   W24
 BYTE   N90  Cs3  v076
 BYTE   N90  Fn3
 BYTE   W72
 BYTE   PEND 
//  #06 //066   ----------------------------------------
 BYTE   PATT
  POIN2 Label_FA6DAB
//  #06 //067   ----------------------------------------
 BYTE   PATT
  POIN2 Label_FA6DC5
//  #06 //068   ----------------------------------------
 BYTE   PATT
  POIN2 Label_FA6DE2
//  #06 //069   ----------------------------------------
Label_FA6E0B:
 BYTE   W24
 BYTE   N90  As2  v092
 BYTE   N90  Cs3
 BYTE   W72
 BYTE   PEND 
//  #06 //070   ----------------------------------------
Label_FA6E13:
 BYTE   W24
 BYTE   N90  Bn2  v092
 BYTE   N90  Ds3
 BYTE   W72
 BYTE   PEND 
//  #06 //071   ----------------------------------------
 BYTE   PATT
  POIN2 Label_FA6E0B
//  #06 //072   ----------------------------------------
 BYTE   PATT
  POIN2 Label_FA6E13
//  #06 //073   ----------------------------------------
 BYTE   PATT
  POIN2 Label_FA6E0B
//  #06 //074   ----------------------------------------
 BYTE   PATT
  POIN2 Label_FA6E13
//  #06 //075   ----------------------------------------
Label_FA6E2F:
 BYTE   W24
 BYTE   N90  As2  v092
 BYTE   N90  Cs3
 BYTE   N90  Fn3
 BYTE   W72
 BYTE   PEND 
//  #06 //076   ----------------------------------------
Label_FA6E39:
 BYTE   W24
 BYTE   N90  Bn2  v092
 BYTE   N90  Ds3
 BYTE   N90  Fs3
 BYTE   W72
 BYTE   PEND 
//  #06 //077   ----------------------------------------
 BYTE   W96
//  #06 //078   ----------------------------------------
 BYTE   W96
//  #06 //079   ----------------------------------------
 BYTE   W96
//  #06 //080   ----------------------------------------
 BYTE   W96
//  #06 //081   ----------------------------------------
Label_FA6E47:
 BYTE   W96
//  #06 //082   ----------------------------------------
 BYTE   W96
//  #06 //083   ----------------------------------------
 BYTE   W96
//  #06 //084   ----------------------------------------
 BYTE   W96
//  #06 //085   ----------------------------------------
 BYTE   W96
//  #06 //086   ----------------------------------------
 BYTE   W96
//  #06 //087   ----------------------------------------
 BYTE   W96
//  #06 //088   ----------------------------------------
 BYTE   W96
//  #06 //089   ----------------------------------------
 BYTE   W96
//  #06 //090   ----------------------------------------
 BYTE   W96
//  #06 //091   ----------------------------------------
 BYTE   W96
//  #06 //092   ----------------------------------------
 BYTE   W96
//  #06 //093   ----------------------------------------
 BYTE   W96
//  #06 //094   ----------------------------------------
 BYTE   W96
//  #06 //095   ----------------------------------------
 BYTE   W96
//  #06 //096   ----------------------------------------
 BYTE   W96
//  #06 //097   ----------------------------------------
 BYTE   W96
//  #06 //098   ----------------------------------------
 BYTE   W96
//  #06 //099   ----------------------------------------
 BYTE   W96
//  #06 //100   ----------------------------------------
 BYTE   W96
//  #06 //101   ----------------------------------------
 BYTE   W96
//  #06 //102   ----------------------------------------
 BYTE   W96
//  #06 //103   ----------------------------------------
 BYTE   W96
//  #06 //104   ----------------------------------------
 BYTE   W96
//  #06 //105   ----------------------------------------
 BYTE   W96
//  #06 //106   ----------------------------------------
 BYTE   W96
//  #06 //107   ----------------------------------------
 BYTE   W96
//  #06 //108   ----------------------------------------
 BYTE   W96
//  #06 //109   ----------------------------------------
 BYTE   W96
//  #06 //110   ----------------------------------------
 BYTE   W96
//  #06 //111   ----------------------------------------
 BYTE   W96
//  #06 //112   ----------------------------------------
 BYTE   W96
//  #06 //113   ----------------------------------------
 BYTE   W96
//  #06 //114   ----------------------------------------
 BYTE   W96
//  #06 //115   ----------------------------------------
 BYTE   W96
//  #06 //116   ----------------------------------------
 BYTE   W96
//  #06 //117   ----------------------------------------
 BYTE   W96
//  #06 //118   ----------------------------------------
 BYTE   W96
//  #06 //119   ----------------------------------------
 BYTE   W96
//  #06 //120   ----------------------------------------
 BYTE   W96
//  #06 //121   ----------------------------------------
 BYTE   W96
//  #06 //122   ----------------------------------------
 BYTE   W96
//  #06 //123   ----------------------------------------
 BYTE   W96
//  #06 //124   ----------------------------------------
 BYTE   W96
//  #06 //125   ----------------------------------------
 BYTE   W96
//  #06 //126   ----------------------------------------
 BYTE   W96
//  #06 //127   ----------------------------------------
 BYTE   W96
//  #06 //128   ----------------------------------------
 BYTE   W96
//  #06 //129   ----------------------------------------
 BYTE   W96
//  #06 //130   ----------------------------------------
 BYTE   W96
//  #06 //131   ----------------------------------------
 BYTE   W96
//  #06 //132   ----------------------------------------
 BYTE   W96
//  #06 //133   ----------------------------------------
 BYTE   W96
//  #06 //134   ----------------------------------------
 BYTE   W96
//  #06 //135   ----------------------------------------
 BYTE   W96
//  #06 //136   ----------------------------------------
 BYTE   PATT
  POIN2 Label_FA6DAB
//  #06 //137   ----------------------------------------
 BYTE   PATT
  POIN2 Label_FA6DB3
//  #06 //138   ----------------------------------------
 BYTE   W24
 BYTE   N90  Fn3  v076
 BYTE   W72
//  #06 //139   ----------------------------------------
 BYTE   W24
 BYTE   Cs3
 BYTE   W72
//  #06 //140   ----------------------------------------
 BYTE   PATT
  POIN2 Label_FA6DC5
//  #06 //141   ----------------------------------------
 BYTE   PATT
  POIN2 Label_FA6DCD
//  #06 //142   ----------------------------------------
 BYTE   PATT
  POIN2 Label_FA6DD8
//  #06 //143   ----------------------------------------
 BYTE   PATT
  POIN2 Label_FA6DE2
//  #06 //144   ----------------------------------------
 BYTE   PATT
  POIN2 Label_FA6DAB
//  #06 //145   ----------------------------------------
 BYTE   PATT
  POIN2 Label_FA6DB3
//  #06 //146   ----------------------------------------
 BYTE   PATT
  POIN2 Label_FA6DF4
//  #06 //147   ----------------------------------------
 BYTE   PATT
  POIN2 Label_FA6DAB
//  #06 //148   ----------------------------------------
 BYTE   PATT
  POIN2 Label_FA6DC5
//  #06 //149   ----------------------------------------
 BYTE   PATT
  POIN2 Label_FA6DE2
//  #06 //150   ----------------------------------------
 BYTE   PATT
  POIN2 Label_FA6E0B
//  #06 //151   ----------------------------------------
 BYTE   PATT
  POIN2 Label_FA6E13
//  #06 //152   ----------------------------------------
 BYTE   PATT
  POIN2 Label_FA6E0B
//  #06 //153   ----------------------------------------
 BYTE   PATT
  POIN2 Label_FA6E13
//  #06 //154   ----------------------------------------
 BYTE   PATT
  POIN2 Label_FA6E0B
//  #06 //155   ----------------------------------------
 BYTE   PATT
  POIN2 Label_FA6E13
//  #06 //156   ----------------------------------------
 BYTE   PATT
  POIN2 Label_FA6E2F
//  #06 //157   ----------------------------------------
 BYTE   PATT
  POIN2 Label_FA6E39
//  #06 //158   ----------------------------------------
 BYTE   W96
//  #06 //159   ----------------------------------------
 BYTE   W96
//  #06 //160   ----------------------------------------
 BYTE   W96
//  #06 //161   ----------------------------------------
 BYTE   W96
//  #06 //162   ----------------------------------------
 BYTE   GoTo
  POIN2 Label_FA6E47
//  #06 //163   ----------------------------------------
 BYTE   W23
 BYTE   FINE

//**************** Track 7 (Midi-Chn.6) ****************//

CelicaMap1SSBB_Song_007:
//  #07 //000   ----------------------------------------
 BYTE   KEYSH   CelicaMap1SSBB_Song_key+0
 BYTE   VOICE   29
 BYTE   VOL   50*CelicaMap1SSBB_Song_mvl/mxv
 BYTE   PAN   c_v-24
 BYTE   W96
//  #07 //001   ----------------------------------------
 BYTE   W96
//  #07 //002   ----------------------------------------
 BYTE   W96
//  #07 //003   ----------------------------------------
 BYTE   W96
//  #07 //004   ----------------------------------------
 BYTE   W96
//  #07 //005   ----------------------------------------
Label_01736031:
 BYTE   W24
 BYTE   TIE  Fn3  v127
 BYTE   W72
 BYTE   PEND 
//  #07 //006   ----------------------------------------
 BYTE   W32
 BYTE   W03
 BYTE   EOT
 BYTE   W01
 BYTE   N05  Ds3
 BYTE   W06
 BYTE   Fn3
 BYTE   W06
 BYTE   N11  Fs3
 BYTE   W12
 BYTE   N05  Fn3
 BYTE   W06
 BYTE   Fs3
 BYTE   W06
 BYTE   N11  Gs3
 BYTE   W12
 BYTE   N05  Fs3
 BYTE   W06
 BYTE   Gs3
 BYTE   W06
//  #07 //007   ----------------------------------------
Label_01736050:
 BYTE   N11  As3  v127
 BYTE   W12
 BYTE   N05  Bn3
 BYTE   W06
 BYTE   Gs3
 BYTE   W06
 BYTE   TIE  As3
 BYTE   W72
 BYTE   PEND 
//  #07 //008   ----------------------------------------
 BYTE   W32
 BYTE   W03
 BYTE   EOT
 BYTE   W01
 BYTE   N05  Gs3
 BYTE   W06
 BYTE   As3
 BYTE   W06
 BYTE   N11  Bn3
 BYTE   W12
 BYTE   N05  As3
 BYTE   W06
 BYTE   Bn3
 BYTE   W06
 BYTE   N11  Cs4
 BYTE   W12
 BYTE   N05  Bn3
 BYTE   W06
 BYTE   Cs4
 BYTE   W06
//  #07 //009   ----------------------------------------
Label_01736076:
 BYTE   N11  Ds4  v127
 BYTE   W12
 BYTE   N05  En4
 BYTE   W06
 BYTE   Bn3
 BYTE   W06
 BYTE   TIE  As3
 BYTE   W72
 BYTE   PEND 
//  #07 //010   ----------------------------------------
 BYTE   W32
 BYTE   W03
 BYTE   EOT
 BYTE   W01
 BYTE   N05  Fn4
 BYTE   W06
 BYTE   As3
 BYTE   W06
 BYTE   N11  Fn4
 BYTE   W12
 BYTE   N05  As3
 BYTE   W06
 BYTE   Fn4
 BYTE   W06
 BYTE   N11  As3
 BYTE   W12
 BYTE   N05  Fn4
 BYTE   W06
 BYTE   As3
 BYTE   W06
//  #07 //011   ----------------------------------------
Label_0173609C:
 BYTE   N11  Fn4  v127
 BYTE   W12
 BYTE   N05  As3
 BYTE   W06
 BYTE   Fn4
 BYTE   W06
 BYTE   N11  As3
 BYTE   W12
 BYTE   N05  Fn4
 BYTE   W06
 BYTE   As3
 BYTE   W06
 BYTE   N11  Fn4
 BYTE   W12
 BYTE   N05  As3
 BYTE   W06
 BYTE   Fn4
 BYTE   W06
 BYTE   N11  As3
 BYTE   W12
 BYTE   N05  Fn4
 BYTE   W06
 BYTE   As3
 BYTE   W06
 BYTE   PEND 
//  #07 //012   ----------------------------------------
 BYTE   PATT
  POIN2 Label_0173609C
//  #07 //013   ----------------------------------------
Label_017360C3:
 BYTE   N11  Fn4  v127
 BYTE   W12
 BYTE   N05  As3
 BYTE   W06
 BYTE   Fn4
 BYTE   W78
 BYTE   PEND 
//  #07 //014   ----------------------------------------
 BYTE   W96
//  #07 //015   ----------------------------------------
 BYTE   W96
//  #07 //016   ----------------------------------------
 BYTE   W96
//  #07 //017   ----------------------------------------
 BYTE   W96
//  #07 //018   ----------------------------------------
Label_017360D1:
 BYTE   W24
 BYTE   TIE  Fn4  v127
 BYTE   W72
 BYTE   PEND 
//  #07 //019   ----------------------------------------
 BYTE   W36
 BYTE   W03
 BYTE   EOT
 BYTE   W01
 BYTE   N15  Fs4
 BYTE   W16
 BYTE   Ds4
 BYTE   W16
 BYTE   Fn4
 BYTE   W16
 BYTE   Cs4
 BYTE   W08
//  #07 //020   ----------------------------------------
Label_017360E4:
 BYTE   W08
 BYTE   N15  Ds4  v127
 BYTE   W16
 BYTE   Cn4
 BYTE   W16
 BYTE   Cs4
 BYTE   W16
 BYTE   As3
 BYTE   W16
 BYTE   Cn4
 BYTE   W16
 BYTE   Gs3
 BYTE   W08
 BYTE   PEND 
//  #07 //021   ----------------------------------------
Label_017360F4:
 BYTE   W08
 BYTE   N15  As3  v127
 BYTE   W16
 BYTE   Fs3
 BYTE   W16
 BYTE   Gs3
 BYTE   W16
 BYTE   Fn3
 BYTE   W16
 BYTE   Fs3
 BYTE   W16
 BYTE   Ds3
 BYTE   W08
 BYTE   PEND 
//  #07 //022   ----------------------------------------
Label_01736104:
 BYTE   W08
 BYTE   N15  Fn3  v127
 BYTE   W16
 BYTE   Cs3
 BYTE   W16
 BYTE   Ds3
 BYTE   W16
 BYTE   Cn3
 BYTE   W16
 BYTE   Cs3
 BYTE   W16
 BYTE   As2
 BYTE   W08
 BYTE   PEND 
//  #07 //023   ----------------------------------------
Label_01736114:
 BYTE   W08
 BYTE   N15  Cn3  v127
 BYTE   W16
 BYTE   Gs2
 BYTE   W16
 BYTE   As2
 BYTE   W16
 BYTE   Fs2
 BYTE   W16
 BYTE   Gs2
 BYTE   W16
 BYTE   Fn2
 BYTE   W08
 BYTE   PEND 
//  #07 //024   ----------------------------------------
Label_01736124:
 BYTE   W08
 BYTE   N15  Fs2  v127
 BYTE   W16
 BYTE   N90  Fn2
 BYTE   W72
 BYTE   PEND 
//  #07 //025   ----------------------------------------
 BYTE   W24
 BYTE   Fs2
 BYTE   W72
//  #07 //026   ----------------------------------------
 BYTE   W24
 BYTE   Gn2
 BYTE   W72
//  #07 //027   ----------------------------------------
 BYTE   W24
 BYTE   Gs2
 BYTE   W72
//  #07 //028   ----------------------------------------
 BYTE   W24
 BYTE   Fn2
 BYTE   W72
//  #07 //029   ----------------------------------------
 BYTE   W24
 BYTE   Fs2
 BYTE   W72
//  #07 //030   ----------------------------------------
 BYTE   W24
 BYTE   Gn2
 BYTE   W72
//  #07 //031   ----------------------------------------
 BYTE   W24
 BYTE   Gs2
 BYTE   W72
//  #07 //032   ----------------------------------------
 BYTE   W96
//  #07 //033   ----------------------------------------
 BYTE   W96
//  #07 //034   ----------------------------------------
 BYTE   W96
//  #07 //035   ----------------------------------------
 BYTE   W96
//  #07 //036   ----------------------------------------
 BYTE   W96
//  #07 //037   ----------------------------------------
 BYTE   W96
//  #07 //038   ----------------------------------------
 BYTE   W96
//  #07 //039   ----------------------------------------
 BYTE   W96
//  #07 //040   ----------------------------------------
 BYTE   W96
//  #07 //041   ----------------------------------------
 BYTE   W96
//  #07 //042   ----------------------------------------
 BYTE   W96
//  #07 //043   ----------------------------------------
 BYTE   W96
//  #07 //044   ----------------------------------------
 BYTE   W96
//  #07 //045   ----------------------------------------
 BYTE   W96
//  #07 //046   ----------------------------------------
 BYTE   W96
//  #07 //047   ----------------------------------------
 BYTE   W96
//  #07 //048   ----------------------------------------
 BYTE   W96
//  #07 //049   ----------------------------------------
 BYTE   W96
//  #07 //050   ----------------------------------------
 BYTE   W96
//  #07 //051   ----------------------------------------
 BYTE   W96
//  #07 //052   ----------------------------------------
 BYTE   W96
//  #07 //053   ----------------------------------------
 BYTE   W96
//  #07 //054   ----------------------------------------
 BYTE   W96
//  #07 //055   ----------------------------------------
 BYTE   W24
 BYTE   Fn3
 BYTE   W72
//  #07 //056   ----------------------------------------
Label_0173615C:
 BYTE   W24
 BYTE   N42  As3  v127
 BYTE   W48
 BYTE   Cs4
 BYTE   W24
 BYTE   PEND 
//  #07 //057   ----------------------------------------
 BYTE   W24
 BYTE   N90
 BYTE   W72
//  #07 //058   ----------------------------------------
 BYTE   W24
 BYTE   Fs3
 BYTE   W72
//  #07 //059   ----------------------------------------
 BYTE   W24
 BYTE   As3
 BYTE   W72
//  #07 //060   ----------------------------------------
Label_0173616D:
 BYTE   W24
 BYTE   N32  An3  v127
 BYTE   W36
 BYTE   As3
 BYTE   W36
 BYTE   PEND 
//  #07 //061   ----------------------------------------
Label_01736175:
 BYTE   N20  Cn4  v127
 BYTE   W24
 BYTE   N80  As3
 BYTE   W72
 BYTE   PEND 
//  #07 //062   ----------------------------------------
Label_0173617D:
 BYTE   W12
 BYTE   N05  An3  v127
 BYTE   W06
 BYTE   As3
 BYTE   W06
 BYTE   N90  An3
 BYTE   W72
 BYTE   PEND 
//  #07 //063   ----------------------------------------
 BYTE   W24
 BYTE   Fn3
 BYTE   W72
//  #07 //064   ----------------------------------------
 BYTE   PATT
  POIN2 Label_0173615C
//  #07 //065   ----------------------------------------
 BYTE   W24
 BYTE   N90  Fn4  v127
 BYTE   W72
//  #07 //066   ----------------------------------------
Label_01736195:
 BYTE   W24
 BYTE   N42  Ds4  v127
 BYTE   W48
 BYTE   Cs4
 BYTE   W24
 BYTE   PEND 
//  #07 //067   ----------------------------------------
 BYTE   W24
 BYTE   N90  As3
 BYTE   W72
//  #07 //068   ----------------------------------------
 BYTE   PATT
  POIN2 Label_0173616D
//  #07 //069   ----------------------------------------
Label_017361A6:
 BYTE   N20  Cn4  v127
 BYTE   W24
 BYTE   N90  As3
 BYTE   W72
 BYTE   PEND 
//  #07 //070   ----------------------------------------
 BYTE   W96
//  #07 //071   ----------------------------------------
 BYTE   W96
//  #07 //072   ----------------------------------------
 BYTE   W96
//  #07 //073   ----------------------------------------
 BYTE   W96
//  #07 //074   ----------------------------------------
 BYTE   W96
//  #07 //075   ----------------------------------------
 BYTE   W96
//  #07 //076   ----------------------------------------
 BYTE   W96
//  #07 //077   ----------------------------------------
 BYTE   W96
//  #07 //078   ----------------------------------------
 BYTE   W96
//  #07 //079   ----------------------------------------
 BYTE   W96
//  #07 //080   ----------------------------------------
 BYTE   W96
//  #07 //081   ----------------------------------------
Label_017361B9:
 BYTE   W96
//  #07 //082   ----------------------------------------
 BYTE   W96
//  #07 //083   ----------------------------------------
 BYTE   W96
//  #07 //084   ----------------------------------------
 BYTE   W96
//  #07 //085   ----------------------------------------
 BYTE   W96
//  #07 //086   ----------------------------------------
 BYTE   PATT
  POIN2 Label_01736031
//  #07 //087   ----------------------------------------
 BYTE   W32
 BYTE   W03
 BYTE   EOT
 BYTE   Fn3
 BYTE   W01
 BYTE   N05  Ds3  v127
 BYTE   W06
 BYTE   Fn3
 BYTE   W06
 BYTE   N11  Fs3
 BYTE   W12
 BYTE   N05  Fn3
 BYTE   W06
 BYTE   Fs3
 BYTE   W06
 BYTE   N11  Gs3
 BYTE   W12
 BYTE   N05  Fs3
 BYTE   W06
 BYTE   Gs3
 BYTE   W06
//  #07 //088   ----------------------------------------
 BYTE   PATT
  POIN2 Label_01736050
//  #07 //089   ----------------------------------------
 BYTE   W32
 BYTE   W03
 BYTE   EOT
 BYTE   As3
 BYTE   W01
 BYTE   N05  Gs3  v127
 BYTE   W06
 BYTE   As3
 BYTE   W06
 BYTE   N11  Bn3
 BYTE   W12
 BYTE   N05  As3
 BYTE   W06
 BYTE   Bn3
 BYTE   W06
 BYTE   N11  Cs4
 BYTE   W12
 BYTE   N05  Bn3
 BYTE   W06
 BYTE   Cs4
 BYTE   W06
//  #07 //090   ----------------------------------------
 BYTE   PATT
  POIN2 Label_01736076
//  #07 //091   ----------------------------------------
 BYTE   W32
 BYTE   W03
 BYTE   EOT
 BYTE   As3
 BYTE   W01
 BYTE   N05  Fn4  v127
 BYTE   W06
 BYTE   As3
 BYTE   W06
 BYTE   N11  Fn4
 BYTE   W12
 BYTE   N05  As3
 BYTE   W06
 BYTE   Fn4
 BYTE   W06
 BYTE   N11  As3
 BYTE   W12
 BYTE   N05  Fn4
 BYTE   W06
 BYTE   As3
 BYTE   W06
//  #07 //092   ----------------------------------------
 BYTE   PATT
  POIN2 Label_0173609C
//  #07 //093   ----------------------------------------
 BYTE   PATT
  POIN2 Label_0173609C
//  #07 //094   ----------------------------------------
 BYTE   PATT
  POIN2 Label_017360C3
//  #07 //095   ----------------------------------------
 BYTE   W96
//  #07 //096   ----------------------------------------
 BYTE   W96
//  #07 //097   ----------------------------------------
 BYTE   W96
//  #07 //098   ----------------------------------------
 BYTE   W96
//  #07 //099   ----------------------------------------
 BYTE   PATT
  POIN2 Label_017360D1
//  #07 //100   ----------------------------------------
 BYTE   W36
 BYTE   W03
 BYTE   EOT
 BYTE   Fn4
 BYTE   W01
 BYTE   N15  Fs4  v127
 BYTE   W16
 BYTE   Ds4
 BYTE   W16
 BYTE   Fn4
 BYTE   W16
 BYTE   Cs4
 BYTE   W08
//  #07 //101   ----------------------------------------
 BYTE   PATT
  POIN2 Label_017360E4
//  #07 //102   ----------------------------------------
 BYTE   PATT
  POIN2 Label_017360F4
//  #07 //103   ----------------------------------------
 BYTE   PATT
  POIN2 Label_01736104
//  #07 //104   ----------------------------------------
 BYTE   PATT
  POIN2 Label_01736114
//  #07 //105   ----------------------------------------
 BYTE   PATT
  POIN2 Label_01736124
//  #07 //106   ----------------------------------------
 BYTE   W24
 BYTE   N90  Fs2  v127
 BYTE   W72
//  #07 //107   ----------------------------------------
 BYTE   W24
 BYTE   Gn2
 BYTE   W72
//  #07 //108   ----------------------------------------
 BYTE   W24
 BYTE   Gs2
 BYTE   W72
//  #07 //109   ----------------------------------------
 BYTE   W24
 BYTE   Fn2
 BYTE   W72
//  #07 //110   ----------------------------------------
 BYTE   W24
 BYTE   Fs2
 BYTE   W72
//  #07 //111   ----------------------------------------
 BYTE   W24
 BYTE   Gn2
 BYTE   W72
//  #07 //112   ----------------------------------------
 BYTE   W24
 BYTE   Gs2
 BYTE   W72
//  #07 //113   ----------------------------------------
 BYTE   W96
//  #07 //114   ----------------------------------------
 BYTE   W96
//  #07 //115   ----------------------------------------
 BYTE   W96
//  #07 //116   ----------------------------------------
 BYTE   W96
//  #07 //117   ----------------------------------------
 BYTE   W96
//  #07 //118   ----------------------------------------
 BYTE   W96
//  #07 //119   ----------------------------------------
 BYTE   W96
//  #07 //120   ----------------------------------------
 BYTE   W96
//  #07 //121   ----------------------------------------
 BYTE   W96
//  #07 //122   ----------------------------------------
 BYTE   W96
//  #07 //123   ----------------------------------------
 BYTE   W96
//  #07 //124   ----------------------------------------
 BYTE   W96
//  #07 //125   ----------------------------------------
 BYTE   W96
//  #07 //126   ----------------------------------------
 BYTE   W96
//  #07 //127   ----------------------------------------
 BYTE   W96
//  #07 //128   ----------------------------------------
 BYTE   W96
//  #07 //129   ----------------------------------------
 BYTE   W96
//  #07 //130   ----------------------------------------
 BYTE   W96
//  #07 //131   ----------------------------------------
 BYTE   W96
//  #07 //132   ----------------------------------------
 BYTE   W96
//  #07 //133   ----------------------------------------
 BYTE   W96
//  #07 //134   ----------------------------------------
 BYTE   W96
//  #07 //135   ----------------------------------------
 BYTE   W96
//  #07 //136   ----------------------------------------
 BYTE   W24
 BYTE   Fn3
 BYTE   W72
//  #07 //137   ----------------------------------------
 BYTE   PATT
  POIN2 Label_0173615C
//  #07 //138   ----------------------------------------
 BYTE   W24
 BYTE   N90  Cs4  v127
 BYTE   W72
//  #07 //139   ----------------------------------------
 BYTE   W24
 BYTE   Fs3
 BYTE   W72
//  #07 //140   ----------------------------------------
 BYTE   W24
 BYTE   As3
 BYTE   W72
//  #07 //141   ----------------------------------------
 BYTE   PATT
  POIN2 Label_0173616D
//  #07 //142   ----------------------------------------
 BYTE   PATT
  POIN2 Label_01736175
//  #07 //143   ----------------------------------------
 BYTE   PATT
  POIN2 Label_0173617D
//  #07 //144   ----------------------------------------
 BYTE   W24
 BYTE   N90  Fn3  v127
 BYTE   W72
//  #07 //145   ----------------------------------------
 BYTE   PATT
  POIN2 Label_0173615C
//  #07 //146   ----------------------------------------
 BYTE   W24
 BYTE   N90  Fn4  v127
 BYTE   W72
//  #07 //147   ----------------------------------------
 BYTE   PATT
  POIN2 Label_01736195
//  #07 //148   ----------------------------------------
 BYTE   W24
 BYTE   N90  As3  v127
 BYTE   W72
//  #07 //149   ----------------------------------------
 BYTE   PATT
  POIN2 Label_0173616D
//  #07 //150   ----------------------------------------
 BYTE   PATT
  POIN2 Label_017361A6
//  #07 //151   ----------------------------------------
 BYTE   W96
//  #07 //152   ----------------------------------------
 BYTE   W96
//  #07 //153   ----------------------------------------
 BYTE   W96
//  #07 //154   ----------------------------------------
 BYTE   W96
//  #07 //155   ----------------------------------------
 BYTE   W96
//  #07 //156   ----------------------------------------
 BYTE   W96
//  #07 //157   ----------------------------------------
 BYTE   W96
//  #07 //158   ----------------------------------------
 BYTE   W96
//  #07 //159   ----------------------------------------
 BYTE   W96
//  #07 //160   ----------------------------------------
 BYTE   W96
//  #07 //161   ----------------------------------------
 BYTE   W96
//  #07 //162   ----------------------------------------
 BYTE   GoTo
  POIN2 Label_017361B9
//  #07 //163   ----------------------------------------
 BYTE   W23
 BYTE   FINE

//**************** Track 8 (Midi-Chn.7) ****************//

CelicaMap1SSBB_Song_008:
//  #08 //000   ----------------------------------------
 BYTE   KEYSH   CelicaMap1SSBB_Song_key+0
 BYTE   VOICE   29
 BYTE   VOL   50*CelicaMap1SSBB_Song_mvl/mxv
 BYTE   PAN   c_v+16
 BYTE   W96
//  #08 //001   ----------------------------------------
 BYTE   W96
//  #08 //002   ----------------------------------------
 BYTE   W96
//  #08 //003   ----------------------------------------
 BYTE   W96
//  #08 //004   ----------------------------------------
 BYTE   W96
//  #08 //005   ----------------------------------------
Label_FA74E9:
 BYTE   W24
 BYTE   TIE  Fn2  v127
 BYTE   W72
 BYTE   PEND 
//  #08 //006   ----------------------------------------
 BYTE   W32
 BYTE   W03
 BYTE   EOT
 BYTE   W01
 BYTE   N05  Ds2
 BYTE   W06
 BYTE   Fn2
 BYTE   W06
 BYTE   N11  Fs2
 BYTE   W12
 BYTE   N05  Fn2
 BYTE   W06
 BYTE   Fs2
 BYTE   W06
 BYTE   N11  Gs2
 BYTE   W12
 BYTE   N05  Fs2
 BYTE   W06
 BYTE   Gs2
 BYTE   W06
//  #08 //007   ----------------------------------------
Label_FA7508:
 BYTE   N11  As2  v127
 BYTE   W12
 BYTE   N05  Bn2
 BYTE   W06
 BYTE   Gs2
 BYTE   W06
 BYTE   TIE  As2
 BYTE   W72
 BYTE   PEND 
//  #08 //008   ----------------------------------------
 BYTE   W32
 BYTE   W03
 BYTE   EOT
 BYTE   W01
 BYTE   N05  Gs2
 BYTE   W06
 BYTE   As2
 BYTE   W06
 BYTE   N11  Bn2
 BYTE   W12
 BYTE   N05  As2
 BYTE   W06
 BYTE   Bn2
 BYTE   W06
 BYTE   N11  Cs3
 BYTE   W12
 BYTE   N05  Bn2
 BYTE   W06
 BYTE   Cs3
 BYTE   W06
//  #08 //009   ----------------------------------------
Label_FA752E:
 BYTE   N11  Ds3  v127
 BYTE   W12
 BYTE   N05  En3
 BYTE   W06
 BYTE   Bn2
 BYTE   W06
 BYTE   TIE  As2
 BYTE   W72
 BYTE   PEND 
//  #08 //010   ----------------------------------------
 BYTE   W32
 BYTE   W03
 BYTE   EOT
 BYTE   W01
 BYTE   N05  Fn3
 BYTE   W06
 BYTE   As2
 BYTE   W06
 BYTE   N11  Fn3
 BYTE   W12
 BYTE   N05  As2
 BYTE   W06
 BYTE   Fn3
 BYTE   W06
 BYTE   N11  As2
 BYTE   W12
 BYTE   N05  Fn3
 BYTE   W06
 BYTE   As2
 BYTE   W06
//  #08 //011   ----------------------------------------
Label_FA7554:
 BYTE   N11  Fn3  v127
 BYTE   W12
 BYTE   N05  As2
 BYTE   W06
 BYTE   Fn3
 BYTE   W06
 BYTE   N11  As2
 BYTE   W12
 BYTE   N05  Fn3
 BYTE   W06
 BYTE   As2
 BYTE   W06
 BYTE   N11  Fn3
 BYTE   W12
 BYTE   N05  As2
 BYTE   W06
 BYTE   Fn3
 BYTE   W06
 BYTE   N11  As2
 BYTE   W12
 BYTE   N05  Fn3
 BYTE   W06
 BYTE   As2
 BYTE   W06
 BYTE   PEND 
//  #08 //012   ----------------------------------------
 BYTE   PATT
  POIN2 Label_FA7554
//  #08 //013   ----------------------------------------
Label_FA757B:
 BYTE   N11  Fn3  v127
 BYTE   W12
 BYTE   N05  As2
 BYTE   W06
 BYTE   Fn3
 BYTE   W78
 BYTE   PEND 
//  #08 //014   ----------------------------------------
 BYTE   W96
//  #08 //015   ----------------------------------------
 BYTE   W96
//  #08 //016   ----------------------------------------
 BYTE   W96
//  #08 //017   ----------------------------------------
 BYTE   W96
//  #08 //018   ----------------------------------------
 BYTE   W96
//  #08 //019   ----------------------------------------
 BYTE   W96
//  #08 //020   ----------------------------------------
 BYTE   W96
//  #08 //021   ----------------------------------------
 BYTE   W96
//  #08 //022   ----------------------------------------
 BYTE   W96
//  #08 //023   ----------------------------------------
 BYTE   W96
//  #08 //024   ----------------------------------------
Label_FA758F:
 BYTE   W24
 BYTE   N20  As1  v127
 BYTE   W24
 BYTE   N11  As2
 BYTE   W12
 BYTE   Fn2
 BYTE   W12
 BYTE   N20  As1
 BYTE   W24
 BYTE   PEND 
//  #08 //025   ----------------------------------------
Label_FA759D:
 BYTE   N20  As2  v127
 BYTE   W24
 BYTE   Bn1
 BYTE   W24
 BYTE   N11  Bn2
 BYTE   W12
 BYTE   Fs2
 BYTE   W12
 BYTE   N20  Bn1
 BYTE   W24
 BYTE   PEND 
//  #08 //026   ----------------------------------------
Label_FA75AC:
 BYTE   N20  Bn2  v127
 BYTE   W24
 BYTE   Cn2
 BYTE   W24
 BYTE   N11  Cn3
 BYTE   W12
 BYTE   Gn2
 BYTE   W12
 BYTE   N20  Cn2
 BYTE   W24
 BYTE   PEND 
//  #08 //027   ----------------------------------------
Label_FA75BB:
 BYTE   N20  Cn3  v127
 BYTE   W24
 BYTE   Cs2
 BYTE   W24
 BYTE   N11  Cs3
 BYTE   W12
 BYTE   Gs2
 BYTE   W12
 BYTE   N20  Cs2
 BYTE   W24
 BYTE   PEND 
//  #08 //028   ----------------------------------------
Label_FA75CA:
 BYTE   N20  Cs3  v127
 BYTE   W24
 BYTE   As1
 BYTE   W24
 BYTE   N11  As2
 BYTE   W12
 BYTE   Fn2
 BYTE   W12
 BYTE   N20  As1
 BYTE   W24
 BYTE   PEND 
//  #08 //029   ----------------------------------------
 BYTE   PATT
  POIN2 Label_FA759D
//  #08 //030   ----------------------------------------
 BYTE   PATT
  POIN2 Label_FA75AC
//  #08 //031   ----------------------------------------
 BYTE   PATT
  POIN2 Label_FA75BB
//  #08 //032   ----------------------------------------
 BYTE   N20  Cs3  v127
 BYTE   W96
//  #08 //033   ----------------------------------------
 BYTE   W96
//  #08 //034   ----------------------------------------
 BYTE   W96
//  #08 //035   ----------------------------------------
 BYTE   W96
//  #08 //036   ----------------------------------------
 BYTE   W96
//  #08 //037   ----------------------------------------
 BYTE   W96
//  #08 //038   ----------------------------------------
 BYTE   W96
//  #08 //039   ----------------------------------------
 BYTE   W96
//  #08 //040   ----------------------------------------
 BYTE   W96
//  #08 //041   ----------------------------------------
 BYTE   W96
//  #08 //042   ----------------------------------------
 BYTE   W96
//  #08 //043   ----------------------------------------
 BYTE   W96
//  #08 //044   ----------------------------------------
 BYTE   W96
//  #08 //045   ----------------------------------------
 BYTE   W96
//  #08 //046   ----------------------------------------
 BYTE   W96
//  #08 //047   ----------------------------------------
 BYTE   W96
//  #08 //048   ----------------------------------------
 BYTE   W96
//  #08 //049   ----------------------------------------
 BYTE   W96
//  #08 //050   ----------------------------------------
 BYTE   W96
//  #08 //051   ----------------------------------------
 BYTE   W96
//  #08 //052   ----------------------------------------
 BYTE   W96
//  #08 //053   ----------------------------------------
 BYTE   W96
//  #08 //054   ----------------------------------------
 BYTE   W96
//  #08 //055   ----------------------------------------
 BYTE   W96
//  #08 //056   ----------------------------------------
 BYTE   W96
//  #08 //057   ----------------------------------------
 BYTE   W96
//  #08 //058   ----------------------------------------
 BYTE   W96
//  #08 //059   ----------------------------------------
 BYTE   W96
//  #08 //060   ----------------------------------------
 BYTE   W96
//  #08 //061   ----------------------------------------
 BYTE   W96
//  #08 //062   ----------------------------------------
 BYTE   W96
//  #08 //063   ----------------------------------------
 BYTE   W96
//  #08 //064   ----------------------------------------
 BYTE   W96
//  #08 //065   ----------------------------------------
 BYTE   W96
//  #08 //066   ----------------------------------------
 BYTE   W96
//  #08 //067   ----------------------------------------
 BYTE   W96
//  #08 //068   ----------------------------------------
 BYTE   W96
//  #08 //069   ----------------------------------------
 BYTE   W96
//  #08 //070   ----------------------------------------
 BYTE   W96
//  #08 //071   ----------------------------------------
 BYTE   W96
//  #08 //072   ----------------------------------------
 BYTE   W96
//  #08 //073   ----------------------------------------
 BYTE   W96
//  #08 //074   ----------------------------------------
 BYTE   W96
//  #08 //075   ----------------------------------------
 BYTE   W96
//  #08 //076   ----------------------------------------
 BYTE   W96
//  #08 //077   ----------------------------------------
 BYTE   W96
//  #08 //078   ----------------------------------------
 BYTE   W96
//  #08 //079   ----------------------------------------
 BYTE   W96
//  #08 //080   ----------------------------------------
 BYTE   W96
//  #08 //081   ----------------------------------------
Label_FA761C:
 BYTE   W96
//  #08 //082   ----------------------------------------
 BYTE   W96
//  #08 //083   ----------------------------------------
 BYTE   W96
//  #08 //084   ----------------------------------------
 BYTE   W96
//  #08 //085   ----------------------------------------
 BYTE   W96
//  #08 //086   ----------------------------------------
 BYTE   PATT
  POIN2 Label_FA74E9
//  #08 //087   ----------------------------------------
 BYTE   W32
 BYTE   W03
 BYTE   EOT
 BYTE   Fn2
 BYTE   W01
 BYTE   N05  Ds2  v127
 BYTE   W06
 BYTE   Fn2
 BYTE   W06
 BYTE   N11  Fs2
 BYTE   W12
 BYTE   N05  Fn2
 BYTE   W06
 BYTE   Fs2
 BYTE   W06
 BYTE   N11  Gs2
 BYTE   W12
 BYTE   N05  Fs2
 BYTE   W06
 BYTE   Gs2
 BYTE   W06
//  #08 //088   ----------------------------------------
 BYTE   PATT
  POIN2 Label_FA7508
//  #08 //089   ----------------------------------------
 BYTE   W32
 BYTE   W03
 BYTE   EOT
 BYTE   As2
 BYTE   W01
 BYTE   N05  Gs2  v127
 BYTE   W06
 BYTE   As2
 BYTE   W06
 BYTE   N11  Bn2
 BYTE   W12
 BYTE   N05  As2
 BYTE   W06
 BYTE   Bn2
 BYTE   W06
 BYTE   N11  Cs3
 BYTE   W12
 BYTE   N05  Bn2
 BYTE   W06
 BYTE   Cs3
 BYTE   W06
//  #08 //090   ----------------------------------------
 BYTE   PATT
  POIN2 Label_FA752E
//  #08 //091   ----------------------------------------
 BYTE   W32
 BYTE   W03
 BYTE   EOT
 BYTE   As2
 BYTE   W01
 BYTE   N05  Fn3  v127
 BYTE   W06
 BYTE   As2
 BYTE   W06
 BYTE   N11  Fn3
 BYTE   W12
 BYTE   N05  As2
 BYTE   W06
 BYTE   Fn3
 BYTE   W06
 BYTE   N11  As2
 BYTE   W12
 BYTE   N05  Fn3
 BYTE   W06
 BYTE   As2
 BYTE   W06
//  #08 //092   ----------------------------------------
 BYTE   PATT
  POIN2 Label_FA7554
//  #08 //093   ----------------------------------------
 BYTE   PATT
  POIN2 Label_FA7554
//  #08 //094   ----------------------------------------
 BYTE   PATT
  POIN2 Label_FA757B
//  #08 //095   ----------------------------------------
 BYTE   W96
//  #08 //096   ----------------------------------------
 BYTE   W96
//  #08 //097   ----------------------------------------
 BYTE   W96
//  #08 //098   ----------------------------------------
 BYTE   W96
//  #08 //099   ----------------------------------------
 BYTE   W96
//  #08 //100   ----------------------------------------
 BYTE   W96
//  #08 //101   ----------------------------------------
 BYTE   W96
//  #08 //102   ----------------------------------------
 BYTE   W96
//  #08 //103   ----------------------------------------
 BYTE   W96
//  #08 //104   ----------------------------------------
 BYTE   W96
//  #08 //105   ----------------------------------------
 BYTE   PATT
  POIN2 Label_FA758F
//  #08 //106   ----------------------------------------
 BYTE   PATT
  POIN2 Label_FA759D
//  #08 //107   ----------------------------------------
 BYTE   PATT
  POIN2 Label_FA75AC
//  #08 //108   ----------------------------------------
 BYTE   PATT
  POIN2 Label_FA75BB
//  #08 //109   ----------------------------------------
 BYTE   PATT
  POIN2 Label_FA75CA
//  #08 //110   ----------------------------------------
 BYTE   PATT
  POIN2 Label_FA759D
//  #08 //111   ----------------------------------------
 BYTE   PATT
  POIN2 Label_FA75AC
//  #08 //112   ----------------------------------------
 BYTE   PATT
  POIN2 Label_FA75BB
//  #08 //113   ----------------------------------------
 BYTE   N20  Cs3  v127
 BYTE   W96
//  #08 //114   ----------------------------------------
 BYTE   W96
//  #08 //115   ----------------------------------------
 BYTE   W96
//  #08 //116   ----------------------------------------
 BYTE   W96
//  #08 //117   ----------------------------------------
 BYTE   W96
//  #08 //118   ----------------------------------------
 BYTE   W96
//  #08 //119   ----------------------------------------
 BYTE   W96
//  #08 //120   ----------------------------------------
 BYTE   W96
//  #08 //121   ----------------------------------------
 BYTE   W96
//  #08 //122   ----------------------------------------
 BYTE   W96
//  #08 //123   ----------------------------------------
 BYTE   W96
//  #08 //124   ----------------------------------------
 BYTE   W96
//  #08 //125   ----------------------------------------
 BYTE   W96
//  #08 //126   ----------------------------------------
 BYTE   W96
//  #08 //127   ----------------------------------------
 BYTE   W96
//  #08 //128   ----------------------------------------
 BYTE   W96
//  #08 //129   ----------------------------------------
 BYTE   W96
//  #08 //130   ----------------------------------------
 BYTE   W96
//  #08 //131   ----------------------------------------
 BYTE   W96
//  #08 //132   ----------------------------------------
 BYTE   W96
//  #08 //133   ----------------------------------------
 BYTE   W96
//  #08 //134   ----------------------------------------
 BYTE   W96
//  #08 //135   ----------------------------------------
 BYTE   W96
//  #08 //136   ----------------------------------------
 BYTE   W96
//  #08 //137   ----------------------------------------
 BYTE   W96
//  #08 //138   ----------------------------------------
 BYTE   W96
//  #08 //139   ----------------------------------------
 BYTE   W96
//  #08 //140   ----------------------------------------
 BYTE   W96
//  #08 //141   ----------------------------------------
 BYTE   W96
//  #08 //142   ----------------------------------------
 BYTE   W96
//  #08 //143   ----------------------------------------
 BYTE   W96
//  #08 //144   ----------------------------------------
 BYTE   W96
//  #08 //145   ----------------------------------------
 BYTE   W96
//  #08 //146   ----------------------------------------
 BYTE   W96
//  #08 //147   ----------------------------------------
 BYTE   W96
//  #08 //148   ----------------------------------------
 BYTE   W96
//  #08 //149   ----------------------------------------
 BYTE   W96
//  #08 //150   ----------------------------------------
 BYTE   W96
//  #08 //151   ----------------------------------------
 BYTE   W96
//  #08 //152   ----------------------------------------
 BYTE   W96
//  #08 //153   ----------------------------------------
 BYTE   W96
//  #08 //154   ----------------------------------------
 BYTE   W96
//  #08 //155   ----------------------------------------
 BYTE   W96
//  #08 //156   ----------------------------------------
 BYTE   W96
//  #08 //157   ----------------------------------------
 BYTE   W96
//  #08 //158   ----------------------------------------
 BYTE   W96
//  #08 //159   ----------------------------------------
 BYTE   W96
//  #08 //160   ----------------------------------------
 BYTE   W96
//  #08 //161   ----------------------------------------
 BYTE   W96
//  #08 //162   ----------------------------------------
 BYTE   GoTo
  POIN2 Label_FA761C
//  #08 //163   ----------------------------------------
 BYTE   W23
 BYTE   FINE

//**************** Track 9 (Midi-Chn.8) ****************//

CelicaMap1SSBB_Song_009:
//  #09 //000   ----------------------------------------
 BYTE   KEYSH   CelicaMap1SSBB_Song_key+0
 BYTE   VOICE   1
 BYTE   VOL   45*CelicaMap1SSBB_Song_mvl/mxv
 BYTE   PAN   c_v+0
 BYTE   W96
//  #09 //001   ----------------------------------------
 BYTE   W96
//  #09 //002   ----------------------------------------
 BYTE   W96
//  #09 //003   ----------------------------------------
 BYTE   W96
//  #09 //004   ----------------------------------------
 BYTE   W96
//  #09 //005   ----------------------------------------
Label_016B6A91:
 BYTE   W24
 BYTE   N90  Cs3  v060
 BYTE   N90  Fn3
 BYTE   W72
 BYTE   PEND 
//  #09 //006   ----------------------------------------
Label_016B6A99:
 BYTE   W24
 BYTE   N90  Ds3  v060
 BYTE   N90  Fs3
 BYTE   W72
 BYTE   PEND 
//  #09 //007   ----------------------------------------
 BYTE   PATT
  POIN2 Label_016B6A91
//  #09 //008   ----------------------------------------
 BYTE   PATT
  POIN2 Label_016B6A99
//  #09 //009   ----------------------------------------
 BYTE   PATT
  POIN2 Label_016B6A91
//  #09 //010   ----------------------------------------
 BYTE   PATT
  POIN2 Label_016B6A99
//  #09 //011   ----------------------------------------
 BYTE   PATT
  POIN2 Label_016B6A91
//  #09 //012   ----------------------------------------
 BYTE   PATT
  POIN2 Label_016B6A99
//  #09 //013   ----------------------------------------
 BYTE   W96
//  #09 //014   ----------------------------------------
 BYTE   W96
//  #09 //015   ----------------------------------------
 BYTE   W96
//  #09 //016   ----------------------------------------
 BYTE   W96
//  #09 //017   ----------------------------------------
 BYTE   W96
//  #09 //018   ----------------------------------------
 BYTE   PATT
  POIN2 Label_016B6A91
//  #09 //019   ----------------------------------------
 BYTE   PATT
  POIN2 Label_016B6A99
//  #09 //020   ----------------------------------------
 BYTE   PATT
  POIN2 Label_016B6A91
//  #09 //021   ----------------------------------------
 BYTE   PATT
  POIN2 Label_016B6A99
//  #09 //022   ----------------------------------------
 BYTE   PATT
  POIN2 Label_016B6A91
//  #09 //023   ----------------------------------------
 BYTE   PATT
  POIN2 Label_016B6A99
//  #09 //024   ----------------------------------------
 BYTE   W96
//  #09 //025   ----------------------------------------
 BYTE   W96
//  #09 //026   ----------------------------------------
 BYTE   W96
//  #09 //027   ----------------------------------------
 BYTE   W96
//  #09 //028   ----------------------------------------
 BYTE   W96
//  #09 //029   ----------------------------------------
 BYTE   W96
//  #09 //030   ----------------------------------------
 BYTE   W96
//  #09 //031   ----------------------------------------
 BYTE   W96
//  #09 //032   ----------------------------------------
Label_016B6AEA:
 BYTE   W24
 BYTE   N90  Cs3  v076
 BYTE   N90  Fn3
 BYTE   W72
 BYTE   PEND 
//  #09 //033   ----------------------------------------
Label_016B6AF2:
 BYTE   W24
 BYTE   N90  Ds3  v076
 BYTE   N90  Fs3
 BYTE   W72
 BYTE   PEND 
//  #09 //034   ----------------------------------------
 BYTE   PATT
  POIN2 Label_016B6AEA
//  #09 //035   ----------------------------------------
 BYTE   PATT
  POIN2 Label_016B6AF2
//  #09 //036   ----------------------------------------
 BYTE   PATT
  POIN2 Label_016B6AEA
//  #09 //037   ----------------------------------------
 BYTE   PATT
  POIN2 Label_016B6AF2
//  #09 //038   ----------------------------------------
 BYTE   PATT
  POIN2 Label_016B6AEA
//  #09 //039   ----------------------------------------
 BYTE   PATT
  POIN2 Label_016B6AF2
//  #09 //040   ----------------------------------------
 BYTE   W96
//  #09 //041   ----------------------------------------
 BYTE   W96
//  #09 //042   ----------------------------------------
 BYTE   W96
//  #09 //043   ----------------------------------------
 BYTE   W96
//  #09 //044   ----------------------------------------
 BYTE   W96
//  #09 //045   ----------------------------------------
 BYTE   W96
//  #09 //046   ----------------------------------------
 BYTE   W96
//  #09 //047   ----------------------------------------
 BYTE   W96
//  #09 //048   ----------------------------------------
 BYTE   W96
//  #09 //049   ----------------------------------------
 BYTE   W96
//  #09 //050   ----------------------------------------
 BYTE   W96
//  #09 //051   ----------------------------------------
 BYTE   W96
//  #09 //052   ----------------------------------------
 BYTE   W96
//  #09 //053   ----------------------------------------
 BYTE   W96
//  #09 //054   ----------------------------------------
 BYTE   W96
//  #09 //055   ----------------------------------------
 BYTE   W96
//  #09 //056   ----------------------------------------
 BYTE   W96
//  #09 //057   ----------------------------------------
 BYTE   W96
//  #09 //058   ----------------------------------------
 BYTE   W96
//  #09 //059   ----------------------------------------
 BYTE   W96
//  #09 //060   ----------------------------------------
 BYTE   W96
//  #09 //061   ----------------------------------------
 BYTE   W96
//  #09 //062   ----------------------------------------
 BYTE   W96
//  #09 //063   ----------------------------------------
 BYTE   W96
//  #09 //064   ----------------------------------------
 BYTE   W96
//  #09 //065   ----------------------------------------
 BYTE   W96
//  #09 //066   ----------------------------------------
 BYTE   W96
//  #09 //067   ----------------------------------------
 BYTE   W96
//  #09 //068   ----------------------------------------
 BYTE   W96
//  #09 //069   ----------------------------------------
 BYTE   W96
//  #09 //070   ----------------------------------------
 BYTE   W96
//  #09 //071   ----------------------------------------
 BYTE   W96
//  #09 //072   ----------------------------------------
 BYTE   W96
//  #09 //073   ----------------------------------------
 BYTE   W96
//  #09 //074   ----------------------------------------
 BYTE   W96
//  #09 //075   ----------------------------------------
 BYTE   W96
//  #09 //076   ----------------------------------------
 BYTE   W96
//  #09 //077   ----------------------------------------
 BYTE   W96
//  #09 //078   ----------------------------------------
 BYTE   W96
//  #09 //079   ----------------------------------------
 BYTE   W96
//  #09 //080   ----------------------------------------
 BYTE   W96
//  #09 //081   ----------------------------------------
Label_016B6B41:
 BYTE   W96
//  #09 //082   ----------------------------------------
 BYTE   W96
//  #09 //083   ----------------------------------------
 BYTE   W96
//  #09 //084   ----------------------------------------
 BYTE   W96
//  #09 //085   ----------------------------------------
 BYTE   W96
//  #09 //086   ----------------------------------------
 BYTE   PATT
  POIN2 Label_016B6A91
//  #09 //087   ----------------------------------------
 BYTE   PATT
  POIN2 Label_016B6A99
//  #09 //088   ----------------------------------------
 BYTE   PATT
  POIN2 Label_016B6A91
//  #09 //089   ----------------------------------------
 BYTE   PATT
  POIN2 Label_016B6A99
//  #09 //090   ----------------------------------------
 BYTE   PATT
  POIN2 Label_016B6A91
//  #09 //091   ----------------------------------------
 BYTE   PATT
  POIN2 Label_016B6A99
//  #09 //092   ----------------------------------------
 BYTE   PATT
  POIN2 Label_016B6A91
//  #09 //093   ----------------------------------------
 BYTE   PATT
  POIN2 Label_016B6A99
//  #09 //094   ----------------------------------------
 BYTE   W96
//  #09 //095   ----------------------------------------
 BYTE   W96
//  #09 //096   ----------------------------------------
 BYTE   W96
//  #09 //097   ----------------------------------------
 BYTE   W96
//  #09 //098   ----------------------------------------
 BYTE   W96
//  #09 //099   ----------------------------------------
 BYTE   PATT
  POIN2 Label_016B6A91
//  #09 //100   ----------------------------------------
 BYTE   PATT
  POIN2 Label_016B6A99
//  #09 //101   ----------------------------------------
 BYTE   PATT
  POIN2 Label_016B6A91
//  #09 //102   ----------------------------------------
 BYTE   PATT
  POIN2 Label_016B6A99
//  #09 //103   ----------------------------------------
 BYTE   PATT
  POIN2 Label_016B6A91
//  #09 //104   ----------------------------------------
 BYTE   PATT
  POIN2 Label_016B6A99
//  #09 //105   ----------------------------------------
 BYTE   W96
//  #09 //106   ----------------------------------------
 BYTE   W96
//  #09 //107   ----------------------------------------
 BYTE   W96
//  #09 //108   ----------------------------------------
 BYTE   W96
//  #09 //109   ----------------------------------------
 BYTE   W96
//  #09 //110   ----------------------------------------
 BYTE   W96
//  #09 //111   ----------------------------------------
 BYTE   W96
//  #09 //112   ----------------------------------------
 BYTE   W96
//  #09 //113   ----------------------------------------
 BYTE   PATT
  POIN2 Label_016B6AEA
//  #09 //114   ----------------------------------------
 BYTE   PATT
  POIN2 Label_016B6AF2
//  #09 //115   ----------------------------------------
 BYTE   PATT
  POIN2 Label_016B6AEA
//  #09 //116   ----------------------------------------
 BYTE   PATT
  POIN2 Label_016B6AF2
//  #09 //117   ----------------------------------------
 BYTE   PATT
  POIN2 Label_016B6AEA
//  #09 //118   ----------------------------------------
 BYTE   PATT
  POIN2 Label_016B6AF2
//  #09 //119   ----------------------------------------
 BYTE   PATT
  POIN2 Label_016B6AEA
//  #09 //120   ----------------------------------------
 BYTE   PATT
  POIN2 Label_016B6AF2
//  #09 //121   ----------------------------------------
 BYTE   W96
//  #09 //122   ----------------------------------------
 BYTE   W96
//  #09 //123   ----------------------------------------
 BYTE   W96
//  #09 //124   ----------------------------------------
 BYTE   W96
//  #09 //125   ----------------------------------------
 BYTE   W96
//  #09 //126   ----------------------------------------
 BYTE   W96
//  #09 //127   ----------------------------------------
 BYTE   W96
//  #09 //128   ----------------------------------------
 BYTE   W96
//  #09 //129   ----------------------------------------
 BYTE   W96
//  #09 //130   ----------------------------------------
 BYTE   W96
//  #09 //131   ----------------------------------------
 BYTE   W96
//  #09 //132   ----------------------------------------
 BYTE   W96
//  #09 //133   ----------------------------------------
 BYTE   W96
//  #09 //134   ----------------------------------------
 BYTE   W96
//  #09 //135   ----------------------------------------
 BYTE   W96
//  #09 //136   ----------------------------------------
 BYTE   W96
//  #09 //137   ----------------------------------------
 BYTE   W96
//  #09 //138   ----------------------------------------
 BYTE   W96
//  #09 //139   ----------------------------------------
 BYTE   W96
//  #09 //140   ----------------------------------------
 BYTE   W96
//  #09 //141   ----------------------------------------
 BYTE   W96
//  #09 //142   ----------------------------------------
 BYTE   W96
//  #09 //143   ----------------------------------------
 BYTE   W96
//  #09 //144   ----------------------------------------
 BYTE   W96
//  #09 //145   ----------------------------------------
 BYTE   W96
//  #09 //146   ----------------------------------------
 BYTE   W96
//  #09 //147   ----------------------------------------
 BYTE   W96
//  #09 //148   ----------------------------------------
 BYTE   W96
//  #09 //149   ----------------------------------------
 BYTE   W96
//  #09 //150   ----------------------------------------
 BYTE   W96
//  #09 //151   ----------------------------------------
 BYTE   W96
//  #09 //152   ----------------------------------------
 BYTE   W96
//  #09 //153   ----------------------------------------
 BYTE   W96
//  #09 //154   ----------------------------------------
 BYTE   W96
//  #09 //155   ----------------------------------------
 BYTE   W96
//  #09 //156   ----------------------------------------
 BYTE   W96
//  #09 //157   ----------------------------------------
 BYTE   W96
//  #09 //158   ----------------------------------------
 BYTE   W96
//  #09 //159   ----------------------------------------
 BYTE   W96
//  #09 //160   ----------------------------------------
 BYTE   W96
//  #09 //161   ----------------------------------------
 BYTE   W96
//  #09 //162   ----------------------------------------
 BYTE   GoTo
  POIN2 Label_016B6B41
//  #09 //163   ----------------------------------------
 BYTE   W23
 BYTE   FINE

//**************** Track 10 (Midi-Chn.9) ****************//

CelicaMap1SSBB_Song_010:
//  #10 //000   ----------------------------------------
 BYTE   KEYSH   CelicaMap1SSBB_Song_key+0
 BYTE   VOICE   122
 BYTE   VOL   37*CelicaMap1SSBB_Song_mvl/mxv
 BYTE   PAN   c_v+0
 BYTE   VOL   37*CelicaMap1SSBB_Song_mvl/mxv
 BYTE   PAN   c_v+0
 BYTE   VOL   37*CelicaMap1SSBB_Song_mvl/mxv
 BYTE   PAN   c_v+0
 BYTE   VOL   37*CelicaMap1SSBB_Song_mvl/mxv
 BYTE   PAN   c_v+0
 BYTE   W06
 BYTE   N11  Ds1  v112
 BYTE   N11  Fn1
 BYTE   W18
 BYTE   Ds1  v127
 BYTE   N20  En1
 BYTE   N11  En2  v076
 BYTE   W12
 BYTE   N20  Ds1  v127
 BYTE   W12
 BYTE   As1  v076
 BYTE   W12
 BYTE   N11  Ds1  v127
 BYTE   N20  En1
 BYTE   W12
 BYTE   Ds1
 BYTE   W24
//  #10 //001   ----------------------------------------
Label_0172E50A:
 BYTE   N11  Ds1  v127
 BYTE   N20  En1
 BYTE   N20  As1  v076
 BYTE   W12
 BYTE   N23  Ds1  v127
 BYTE   W24
 BYTE   N11
 BYTE   N20  En1
 BYTE   W12
 BYTE   Ds1
 BYTE   N20  As1  v076
 BYTE   W12
 BYTE   N11  En1  v127
 BYTE   W12
 BYTE   Ds1
 BYTE   N11  En1
 BYTE   W12
 BYTE   N20  Ds1
 BYTE   N11  En1
 BYTE   W12
 BYTE   PEND 
//  #10 //002   ----------------------------------------
Label_0172E52E:
 BYTE   N05  Cn1  v127
 BYTE   N05  En1
 BYTE   N20  As1  v076
 BYTE   W06
 BYTE   N05  Cn1  v127
 BYTE   N05  En1
 BYTE   W06
 BYTE   N11  Cn1
 BYTE   N11  Ds1
 BYTE   N11  En1
 BYTE   W12
 BYTE   Ds1
 BYTE   N20  En1
 BYTE   W12
 BYTE   Ds1
 BYTE   W12
 BYTE   As1  v076
 BYTE   W12
 BYTE   N11  Ds1  v127
 BYTE   N20  En1
 BYTE   W12
 BYTE   Ds1
 BYTE   W24
 BYTE   PEND 
//  #10 //003   ----------------------------------------
 BYTE   PATT
  POIN2 Label_0172E50A
//  #10 //004   ----------------------------------------
Label_0172E55B:
 BYTE   N11  En1  v127
 BYTE   N20  As1  v076
 BYTE   W12
 BYTE   N11  Ds1  v127
 BYTE   N11  En1
 BYTE   W36
 BYTE   N20  As1  v076
 BYTE   W24
 BYTE   N20
 BYTE   W24
 BYTE   PEND 
//  #10 //005   ----------------------------------------
Label_0172E56F:
 BYTE   N05  En1  v127
 BYTE   N20  As1  v076
 BYTE   W06
 BYTE   N05  En1  v127
 BYTE   W06
 BYTE   N11  Cn1
 BYTE   W12
 BYTE   Bn0  v076
 BYTE   N11  Cn1
 BYTE   N11  Ds2  v060
 BYTE   N11  En2  v076
 BYTE   W12
 BYTE   N05  Ds2  v060
 BYTE   W06
 BYTE   N05
 BYTE   W06
 BYTE   N11
 BYTE   W12
 BYTE   N05
 BYTE   W06
 BYTE   N05
 BYTE   W06
 BYTE   N11
 BYTE   W12
 BYTE   En1  v076
 BYTE   N05  Ds2  v060
 BYTE   N05  Fn4  v076
 BYTE   W06
 BYTE   Ds2  v060
 BYTE   N05  Fn4  v076
 BYTE   W06
 BYTE   PEND 
//  #10 //006   ----------------------------------------
Label_0172E5A6:
 BYTE   N20  Dn1  v076
 BYTE   N11  Ds2  v060
 BYTE   N20  Fn4  v076
 BYTE   W12
 BYTE   N05  Ds2  v060
 BYTE   W06
 BYTE   N05
 BYTE   W06
 BYTE   N11
 BYTE   W12
 BYTE   N05
 BYTE   W06
 BYTE   N05
 BYTE   W06
 BYTE   N11
 BYTE   W12
 BYTE   N05
 BYTE   W06
 BYTE   N05
 BYTE   W06
 BYTE   N11
 BYTE   W12
 BYTE   En1  v076
 BYTE   N05  Ds2  v060
 BYTE   W06
 BYTE   N05
 BYTE   W06
 BYTE   PEND 
//  #10 //007   ----------------------------------------
Label_0172E5CD:
 BYTE   N20  Dn1  v076
 BYTE   N11  Ds2  v060
 BYTE   W12
 BYTE   N05
 BYTE   W06
 BYTE   N05
 BYTE   W06
 BYTE   N11
 BYTE   W12
 BYTE   N05
 BYTE   W06
 BYTE   N05
 BYTE   W06
 BYTE   N11
 BYTE   W12
 BYTE   N05
 BYTE   W06
 BYTE   N05
 BYTE   W06
 BYTE   N11
 BYTE   W12
 BYTE   En1  v076
 BYTE   N05  Ds2  v060
 BYTE   N05  Fn4  v076
 BYTE   W06
 BYTE   Ds2  v060
 BYTE   N05  Fn4  v076
 BYTE   W06
 BYTE   PEND 
//  #10 //008   ----------------------------------------
 BYTE   PATT
  POIN2 Label_0172E5A6
//  #10 //009   ----------------------------------------
 BYTE   PATT
  POIN2 Label_0172E5CD
//  #10 //010   ----------------------------------------
 BYTE   PATT
  POIN2 Label_0172E5A6
//  #10 //011   ----------------------------------------
 BYTE   PATT
  POIN2 Label_0172E5CD
//  #10 //012   ----------------------------------------
Label_0172E60A:
 BYTE   N20  Dn1  v076
 BYTE   N11  Ds2  v060
 BYTE   N20  Fn4  v076
 BYTE   W12
 BYTE   N05  Ds2  v060
 BYTE   W06
 BYTE   N05
 BYTE   W06
 BYTE   N11  Dn1  v127
 BYTE   N11  En1
 BYTE   N11  Ds2  v060
 BYTE   W12
 BYTE   N05
 BYTE   W06
 BYTE   N05
 BYTE   W06
 BYTE   N11
 BYTE   W12
 BYTE   Dn1  v127
 BYTE   N11  En1
 BYTE   N05  Ds2  v060
 BYTE   W06
 BYTE   N05
 BYTE   W06
 BYTE   N11
 BYTE   W12
 BYTE   Dn1  v127
 BYTE   N11  En1
 BYTE   N05  Ds2  v060
 BYTE   W06
 BYTE   N05
 BYTE   W06
 BYTE   PEND 
//  #10 //013   ----------------------------------------
Label_0172E640:
 BYTE   N05  Dn1  v127
 BYTE   N05  En1
 BYTE   N11  Ds2  v060
 BYTE   W06
 BYTE   N05  Dn1  v127
 BYTE   N05  En1
 BYTE   W06
 BYTE   N11  Dn1
 BYTE   N11  En1
 BYTE   N05  Ds2  v060
 BYTE   W06
 BYTE   N05
 BYTE   W06
 BYTE   N11  Ds1  v127
 BYTE   N20  En1
 BYTE   N11  En2
 BYTE   W12
 BYTE   N20  Ds1
 BYTE   W12
 BYTE   As1  v060
 BYTE   W12
 BYTE   N11  Ds1  v127
 BYTE   N20  En1
 BYTE   W12
 BYTE   Ds1
 BYTE   W24
 BYTE   PEND 
//  #10 //014   ----------------------------------------
Label_0172E670:
 BYTE   N11  Ds1  v127
 BYTE   N20  En1
 BYTE   N20  As1  v060
 BYTE   W12
 BYTE   N23  Ds1  v127
 BYTE   W24
 BYTE   N11
 BYTE   N20  En1
 BYTE   W12
 BYTE   Ds1
 BYTE   N20  As1  v060
 BYTE   W12
 BYTE   N11  En1  v127
 BYTE   W12
 BYTE   Ds1
 BYTE   N11  En1
 BYTE   W12
 BYTE   N20  Ds1
 BYTE   N11  En1
 BYTE   W12
 BYTE   PEND 
//  #10 //015   ----------------------------------------
Label_0172E694:
 BYTE   N05  Cn1  v127
 BYTE   N05  En1
 BYTE   N20  As1  v060
 BYTE   W06
 BYTE   N05  Cn1  v127
 BYTE   N05  En1
 BYTE   W06
 BYTE   N11  Cn1
 BYTE   N11  Ds1
 BYTE   N11  En1
 BYTE   W12
 BYTE   Ds1
 BYTE   N20  En1
 BYTE   W12
 BYTE   Ds1
 BYTE   W12
 BYTE   As1  v060
 BYTE   W12
 BYTE   N11  Ds1  v127
 BYTE   N20  En1
 BYTE   W12
 BYTE   Ds1
 BYTE   W24
 BYTE   PEND 
//  #10 //016   ----------------------------------------
 BYTE   PATT
  POIN2 Label_0172E670
//  #10 //017   ----------------------------------------
Label_0172E6C1:
 BYTE   N11  En1  v127
 BYTE   N20  As1  v060
 BYTE   W12
 BYTE   N11  Ds1  v127
 BYTE   N11  En1
 BYTE   W36
 BYTE   N20  As1  v060
 BYTE   W24
 BYTE   N20
 BYTE   W24
 BYTE   PEND 
//  #10 //018   ----------------------------------------
Label_0172E6D5:
 BYTE   N05  En1  v127
 BYTE   N20  As1  v060
 BYTE   W06
 BYTE   N05  En1  v127
 BYTE   W06
 BYTE   N11  Cn1
 BYTE   W12
 BYTE   Bn0
 BYTE   N11  Cn1
 BYTE   N11  Ds2  v060
 BYTE   N11  En2  v127
 BYTE   W12
 BYTE   N05  Ds2  v060
 BYTE   W06
 BYTE   N05
 BYTE   W06
 BYTE   N11
 BYTE   W12
 BYTE   N05
 BYTE   W06
 BYTE   N05
 BYTE   W06
 BYTE   N11
 BYTE   W12
 BYTE   En1  v127
 BYTE   N05  Ds2  v060
 BYTE   N05  Fn4  v076
 BYTE   W06
 BYTE   Ds2  v060
 BYTE   N05  Fn4  v076
 BYTE   W06
 BYTE   PEND 
//  #10 //019   ----------------------------------------
Label_0172E70B:
 BYTE   N20  Dn1  v127
 BYTE   N11  Ds2  v060
 BYTE   N20  Fn4  v076
 BYTE   W12
 BYTE   N05  Ds2  v060
 BYTE   W06
 BYTE   N05
 BYTE   W06
 BYTE   N11
 BYTE   W12
 BYTE   N05
 BYTE   W06
 BYTE   N05
 BYTE   W06
 BYTE   N11
 BYTE   W12
 BYTE   N05
 BYTE   W06
 BYTE   N05
 BYTE   W06
 BYTE   N11
 BYTE   W12
 BYTE   En1  v127
 BYTE   N05  Ds2  v060
 BYTE   W06
 BYTE   N05
 BYTE   W06
 BYTE   PEND 
//  #10 //020   ----------------------------------------
Label_0172E732:
 BYTE   N20  Dn1  v127
 BYTE   N11  Ds2  v060
 BYTE   W12
 BYTE   N05
 BYTE   W06
 BYTE   N05
 BYTE   W06
 BYTE   N11
 BYTE   W12
 BYTE   N05
 BYTE   W06
 BYTE   N05
 BYTE   W06
 BYTE   N11
 BYTE   W12
 BYTE   N05
 BYTE   W06
 BYTE   N05
 BYTE   W06
 BYTE   N11
 BYTE   W12
 BYTE   En1  v127
 BYTE   N05  Ds2  v060
 BYTE   N05  Fn4  v076
 BYTE   W06
 BYTE   Ds2  v060
 BYTE   N05  Fn4  v076
 BYTE   W06
 BYTE   PEND 
//  #10 //021   ----------------------------------------
 BYTE   PATT
  POIN2 Label_0172E70B
//  #10 //022   ----------------------------------------
 BYTE   PATT
  POIN2 Label_0172E732
//  #10 //023   ----------------------------------------
 BYTE   PATT
  POIN2 Label_0172E70B
//  #10 //024   ----------------------------------------
Label_0172E76A:
 BYTE   N20  Dn1  v127
 BYTE   N11  Ds2  v060
 BYTE   W12
 BYTE   N05
 BYTE   W06
 BYTE   N05
 BYTE   W06
 BYTE   N20  Cn1  v127
 BYTE   N11  Ds2
 BYTE   N32  Fs2
 BYTE   W12
 BYTE   N05  Ds2
 BYTE   W06
 BYTE   N05
 BYTE   W06
 BYTE   N20  Dn1
 BYTE   N20  En1
 BYTE   N11  Ds2
 BYTE   W12
 BYTE   N05
 BYTE   N32  Fs2
 BYTE   W06
 BYTE   N05  Ds2
 BYTE   W06
 BYTE   N20  Cn1
 BYTE   N11  Ds2
 BYTE   W12
 BYTE   N05
 BYTE   W06
 BYTE   N05
 BYTE   W06
 BYTE   PEND 
//  #10 //025   ----------------------------------------
Label_0172E79A:
 BYTE   N20  Dn1  v127
 BYTE   N20  En1
 BYTE   N11  Ds2
 BYTE   N20  Fs2
 BYTE   W12
 BYTE   N05  Ds2
 BYTE   W06
 BYTE   N05
 BYTE   W06
 BYTE   N20  Cn1
 BYTE   N11  Ds2
 BYTE   N32  Fs2
 BYTE   W12
 BYTE   N05  Ds2
 BYTE   W06
 BYTE   N05
 BYTE   W06
 BYTE   N20  Dn1
 BYTE   N20  En1
 BYTE   N11  Ds2
 BYTE   W12
 BYTE   N05
 BYTE   N32  Fs2
 BYTE   W06
 BYTE   N05  Ds2
 BYTE   W06
 BYTE   N20  Cn1
 BYTE   N11  Ds2
 BYTE   W12
 BYTE   N05
 BYTE   N05  Fn4  v076
 BYTE   W06
 BYTE   Ds2  v127
 BYTE   N05  Fn4  v076
 BYTE   W06
 BYTE   PEND 
//  #10 //026   ----------------------------------------
Label_0172E7D4:
 BYTE   N20  Dn1  v127
 BYTE   N20  En1
 BYTE   N11  Ds2
 BYTE   N20  Fs2
 BYTE   N20  Fn4  v076
 BYTE   W12
 BYTE   N05  Ds2  v127
 BYTE   W06
 BYTE   N05
 BYTE   W06
 BYTE   N20  Cn1
 BYTE   N11  Ds2
 BYTE   N32  Fs2
 BYTE   W12
 BYTE   N05  Ds2
 BYTE   W06
 BYTE   N05
 BYTE   W06
 BYTE   N20  Dn1
 BYTE   N20  En1
 BYTE   N11  Ds2
 BYTE   W12
 BYTE   N05
 BYTE   N32  Fs2
 BYTE   W06
 BYTE   N05  Ds2
 BYTE   W06
 BYTE   N20  Cn1
 BYTE   N11  Ds2
 BYTE   W12
 BYTE   N05
 BYTE   W06
 BYTE   N05
 BYTE   W06
 BYTE   PEND 
//  #10 //027   ----------------------------------------
 BYTE   PATT
  POIN2 Label_0172E79A
//  #10 //028   ----------------------------------------
 BYTE   PATT
  POIN2 Label_0172E7D4
//  #10 //029   ----------------------------------------
 BYTE   PATT
  POIN2 Label_0172E79A
//  #10 //030   ----------------------------------------
 BYTE   PATT
  POIN2 Label_0172E7D4
//  #10 //031   ----------------------------------------
Label_0172E81F:
 BYTE   N20  Dn1  v127
 BYTE   N20  En1
 BYTE   N11  Ds2
 BYTE   N20  Fs2
 BYTE   W12
 BYTE   N05  Ds2
 BYTE   W06
 BYTE   N05
 BYTE   W06
 BYTE   N20  Cn1
 BYTE   N11  Ds2
 BYTE   N32  Fs2
 BYTE   W12
 BYTE   N05  Ds2
 BYTE   W06
 BYTE   N05
 BYTE   W06
 BYTE   N11  Dn1
 BYTE   N11  En1
 BYTE   N11  Ds2
 BYTE   W12
 BYTE   Cn1
 BYTE   N05  Ds2
 BYTE   N32  Fs2
 BYTE   W06
 BYTE   N05  Ds2
 BYTE   W06
 BYTE   Dn1
 BYTE   N05  En1
 BYTE   N11  Ds2
 BYTE   W06
 BYTE   N05  Dn1
 BYTE   N05  En1
 BYTE   W06
 BYTE   N11  Dn1
 BYTE   N11  En1
 BYTE   N05  Ds2
 BYTE   N05  Fn4  v076
 BYTE   W06
 BYTE   Ds2  v127
 BYTE   N05  Fn4  v076
 BYTE   W06
 BYTE   PEND 
//  #10 //032   ----------------------------------------
Label_0172E866:
 BYTE   N20  Dn1  v127
 BYTE   N20  En1
 BYTE   N11  Ds2
 BYTE   N20  Fs2
 BYTE   N20  Fn4  v076
 BYTE   W12
 BYTE   N05  Ds2  v127
 BYTE   W06
 BYTE   N05
 BYTE   W06
 BYTE   N20  Cn1
 BYTE   N11  Ds2  v076
 BYTE   N20  En2
 BYTE   W12
 BYTE   N05  Ds2
 BYTE   W06
 BYTE   N05
 BYTE   W06
 BYTE   N20  Dn1  v127
 BYTE   N20  En1
 BYTE   N11  Ds2  v076
 BYTE   W12
 BYTE   N05
 BYTE   W06
 BYTE   N05
 BYTE   W06
 BYTE   N20  Cn1  v127
 BYTE   N11  Ds2  v076
 BYTE   W12
 BYTE   N05
 BYTE   N05  Fn4
 BYTE   W06
 BYTE   Ds2
 BYTE   N05  Fn4
 BYTE   W06
 BYTE   PEND 
//  #10 //033   ----------------------------------------
Label_0172E8A3:
 BYTE   N20  Dn1  v127
 BYTE   N20  En1
 BYTE   N11  Ds2  v076
 BYTE   N20  Fn4
 BYTE   W12
 BYTE   N05  Ds2
 BYTE   W06
 BYTE   N05
 BYTE   W06
 BYTE   N20  Cn1  v127
 BYTE   N11  Ds2  v076
 BYTE   W12
 BYTE   N05
 BYTE   W06
 BYTE   N05
 BYTE   W06
 BYTE   N20  Dn1  v127
 BYTE   N20  En1
 BYTE   N11  Ds2  v076
 BYTE   W12
 BYTE   N05
 BYTE   W06
 BYTE   N05
 BYTE   W06
 BYTE   N20  Cn1  v127
 BYTE   N11  Ds2  v076
 BYTE   W12
 BYTE   N05
 BYTE   W06
 BYTE   N05
 BYTE   W06
 BYTE   PEND 
//  #10 //034   ----------------------------------------
Label_0172E8D7:
 BYTE   N20  Dn1  v127
 BYTE   N20  En1
 BYTE   N11  Ds2  v076
 BYTE   W12
 BYTE   N05
 BYTE   W06
 BYTE   N05
 BYTE   W06
 BYTE   N20  Cn1  v127
 BYTE   N11  Ds2  v076
 BYTE   W12
 BYTE   N05
 BYTE   W06
 BYTE   N05
 BYTE   W06
 BYTE   N20  Dn1  v127
 BYTE   N20  En1
 BYTE   N11  Ds2  v076
 BYTE   W12
 BYTE   N05
 BYTE   W06
 BYTE   N05
 BYTE   W06
 BYTE   N20  Cn1  v127
 BYTE   N11  Ds2  v076
 BYTE   W12
 BYTE   N05
 BYTE   N05  Fn4
 BYTE   W06
 BYTE   Ds2
 BYTE   N05  Fn4
 BYTE   W06
 BYTE   PEND 
//  #10 //035   ----------------------------------------
 BYTE   PATT
  POIN2 Label_0172E8A3
//  #10 //036   ----------------------------------------
 BYTE   PATT
  POIN2 Label_0172E8D7
//  #10 //037   ----------------------------------------
 BYTE   PATT
  POIN2 Label_0172E8A3
//  #10 //038   ----------------------------------------
 BYTE   PATT
  POIN2 Label_0172E8D7
//  #10 //039   ----------------------------------------
Label_0172E920:
 BYTE   N20  Dn1  v127
 BYTE   N20  En1
 BYTE   N11  Ds2  v076
 BYTE   N20  Fn4
 BYTE   W12
 BYTE   N05  Ds2
 BYTE   W06
 BYTE   N05
 BYTE   W06
 BYTE   N20  En1  v127
 BYTE   N11  Ds2  v076
 BYTE   W12
 BYTE   N05
 BYTE   W06
 BYTE   N05
 BYTE   W06
 BYTE   N20  En1  v127
 BYTE   N11  Ds2  v076
 BYTE   W12
 BYTE   N05
 BYTE   W06
 BYTE   N05
 BYTE   W06
 BYTE   N11  En1  v127
 BYTE   N11  Ds2  v076
 BYTE   W12
 BYTE   En1  v127
 BYTE   N05  Ds2  v076
 BYTE   W06
 BYTE   N05
 BYTE   W06
 BYTE   PEND 
//  #10 //040   ----------------------------------------
Label_0172E956:
 BYTE   N05  Cn1  v127
 BYTE   N05  En1
 BYTE   N11  Ds2  v076
 BYTE   W06
 BYTE   N05  Cn1  v127
 BYTE   N05  En1
 BYTE   W06
 BYTE   N11  Cn1
 BYTE   N11  En1
 BYTE   N05  Ds2  v076
 BYTE   W06
 BYTE   N05
 BYTE   W06
 BYTE   N11  Ds1  v127
 BYTE   N20  En1
 BYTE   N11  En2  v076
 BYTE   W12
 BYTE   N20  Ds1  v127
 BYTE   W12
 BYTE   As1  v076
 BYTE   W12
 BYTE   N11  Ds1  v127
 BYTE   N20  En1
 BYTE   W12
 BYTE   Ds1
 BYTE   W24
 BYTE   PEND 
//  #10 //041   ----------------------------------------
 BYTE   PATT
  POIN2 Label_0172E50A
//  #10 //042   ----------------------------------------
Label_0172E98D:
 BYTE   N05  Cn1  v127
 BYTE   N05  En1
 BYTE   N20  As1  v076
 BYTE   W06
 BYTE   N05  Cn1  v127
 BYTE   N05  En1
 BYTE   W06
 BYTE   N11  Cn1
 BYTE   N11  Ds1
 BYTE   N11  En1
 BYTE   W12
 BYTE   Ds1  v076
 BYTE   N20  En1  v127
 BYTE   W12
 BYTE   Ds1  v076
 BYTE   W24
 BYTE   N11
 BYTE   N20  En1  v127
 BYTE   W12
 BYTE   Ds1  v076
 BYTE   W24
 BYTE   PEND 
//  #10 //043   ----------------------------------------
Label_0172E9B5:
 BYTE   N11  Ds1  v076
 BYTE   N20  En1  v127
 BYTE   W12
 BYTE   N23  Ds1  v076
 BYTE   W24
 BYTE   N11
 BYTE   N20  En1  v127
 BYTE   W12
 BYTE   Ds1  v076
 BYTE   W12
 BYTE   N11  En1  v127
 BYTE   W12
 BYTE   Ds1  v076
 BYTE   N11  En1  v127
 BYTE   W12
 BYTE   N20  Ds1  v076
 BYTE   N11  En1  v127
 BYTE   W12
 BYTE   PEND 
//  #10 //044   ----------------------------------------
Label_0172E9DA:
 BYTE   N05  Cn1  v127
 BYTE   N05  En1
 BYTE   W06
 BYTE   Cn1
 BYTE   N05  En1
 BYTE   W06
 BYTE   N11  Cn1
 BYTE   N11  Ds1  v076
 BYTE   N11  En1  v127
 BYTE   W12
 BYTE   Ds1
 BYTE   N20  En1
 BYTE   N11  En2  v076
 BYTE   W12
 BYTE   N20  Ds1  v127
 BYTE   W12
 BYTE   As1  v076
 BYTE   W12
 BYTE   N11  Ds1  v127
 BYTE   N20  En1
 BYTE   W12
 BYTE   Ds1
 BYTE   W24
 BYTE   PEND 
//  #10 //045   ----------------------------------------
 BYTE   PATT
  POIN2 Label_0172E50A
//  #10 //046   ----------------------------------------
 BYTE   PATT
  POIN2 Label_0172E52E
//  #10 //047   ----------------------------------------
 BYTE   PATT
  POIN2 Label_0172E50A
//  #10 //048   ----------------------------------------
Label_0172EA13:
 BYTE   N11  En1  v127
 BYTE   N20  As1  v076
 BYTE   W12
 BYTE   N11  Ds1  v127
 BYTE   N11  En1
 BYTE   W12
 BYTE   Fn1
 BYTE   W12
 BYTE   N11
 BYTE   W12
 BYTE   Cn1
 BYTE   N20  As1  v076
 BYTE   W12
 BYTE   N11  Fn1  v127
 BYTE   W12
 BYTE   N05  Cn1
 BYTE   N20  As1  v076
 BYTE   W06
 BYTE   N11  Fn1  v127
 BYTE   W12
 BYTE   N05  Cn1
 BYTE   W06
 BYTE   PEND 
//  #10 //049   ----------------------------------------
Label_0172EA3B:
 BYTE   N20  En1  v127
 BYTE   N11  Fn1
 BYTE   N20  As1  v076
 BYTE   W12
 BYTE   N11  Fn1  v127
 BYTE   W12
 BYTE   N20  Cn1
 BYTE   N11  En2  v076
 BYTE   W24
 BYTE   N20  En1  v127
 BYTE   W36
 BYTE   N11  Cn1
 BYTE   W12
 BYTE   PEND 
//  #10 //050   ----------------------------------------
Label_0172EA56:
 BYTE   N20  En1  v127
 BYTE   W36
 BYTE   N11  Cn1
 BYTE   W12
 BYTE   En1
 BYTE   W12
 BYTE   Cn1
 BYTE   W12
 BYTE   En1
 BYTE   W12
 BYTE   Cn1
 BYTE   W12
 BYTE   PEND 
//  #10 //051   ----------------------------------------
Label_0172EA66:
 BYTE   N05  En1  v127
 BYTE   W06
 BYTE   N05
 BYTE   W06
 BYTE   N11  Cn1
 BYTE   W12
 BYTE   Ds2  v076
 BYTE   N20  En2  v127
 BYTE   W12
 BYTE   N05  Ds2  v076
 BYTE   W06
 BYTE   N05
 BYTE   W06
 BYTE   N20  Dn1  v127
 BYTE   N20  En1
 BYTE   N11  Ds2  v076
 BYTE   W12
 BYTE   N05
 BYTE   W06
 BYTE   N05
 BYTE   W06
 BYTE   N11
 BYTE   W12
 BYTE   N05
 BYTE   W06
 BYTE   N05
 BYTE   W06
 BYTE   PEND 
//  #10 //052   ----------------------------------------
Label_0172EA8F:
 BYTE   N20  Dn1  v127
 BYTE   N20  En1
 BYTE   N11  Ds2  v076
 BYTE   W12
 BYTE   N05
 BYTE   W06
 BYTE   N05
 BYTE   W06
 BYTE   N11
 BYTE   W12
 BYTE   N05
 BYTE   W06
 BYTE   N05
 BYTE   W06
 BYTE   N20  Dn1  v127
 BYTE   N20  En1
 BYTE   N11  Ds2  v076
 BYTE   W12
 BYTE   N05
 BYTE   W06
 BYTE   N05
 BYTE   W06
 BYTE   N11
 BYTE   W12
 BYTE   N05
 BYTE   W06
 BYTE   N05
 BYTE   W06
 BYTE   PEND 
//  #10 //053   ----------------------------------------
 BYTE   PATT
  POIN2 Label_0172EA8F
//  #10 //054   ----------------------------------------
Label_0172EABB:
 BYTE   N20  Dn1  v127
 BYTE   N20  En1
 BYTE   N11  Ds2  v076
 BYTE   W12
 BYTE   N05
 BYTE   W06
 BYTE   N05
 BYTE   W06
 BYTE   N11
 BYTE   W12
 BYTE   N05
 BYTE   W06
 BYTE   N05
 BYTE   W06
 BYTE   N20  Dn1  v127
 BYTE   N20  En1
 BYTE   N11  Ds2  v076
 BYTE   W12
 BYTE   N05
 BYTE   W06
 BYTE   N05
 BYTE   W06
 BYTE   Dn1  v127
 BYTE   N05  En1
 BYTE   N11  Ds2  v076
 BYTE   W06
 BYTE   N05  Dn1  v127
 BYTE   N05  En1
 BYTE   W06
 BYTE   Dn1
 BYTE   N05  En1
 BYTE   N05  Ds2  v076
 BYTE   W06
 BYTE   Dn1  v127
 BYTE   N05  En1
 BYTE   N05  Ds2  v076
 BYTE   W06
 BYTE   PEND 
//  #10 //055   ----------------------------------------
Label_0172EAF9:
 BYTE   N05  Dn1  v127
 BYTE   N05  En1
 BYTE   N11  Ds2  v076
 BYTE   W06
 BYTE   N05  Dn1  v127
 BYTE   N05  En1
 BYTE   W06
 BYTE   Dn1
 BYTE   N05  En1
 BYTE   N05  Ds2  v076
 BYTE   W06
 BYTE   Dn1  v127
 BYTE   N05  En1
 BYTE   N05  Ds2  v076
 BYTE   W06
 BYTE   N11
 BYTE   W12
 BYTE   N05
 BYTE   W06
 BYTE   N05
 BYTE   W06
 BYTE   N20  Dn1  v127
 BYTE   N20  En1
 BYTE   N11  Ds2  v076
 BYTE   W12
 BYTE   N05
 BYTE   W06
 BYTE   N05
 BYTE   W06
 BYTE   N11
 BYTE   W12
 BYTE   N05
 BYTE   W06
 BYTE   N05
 BYTE   W06
 BYTE   PEND 
//  #10 //056   ----------------------------------------
 BYTE   PATT
  POIN2 Label_0172EA8F
//  #10 //057   ----------------------------------------
 BYTE   PATT
  POIN2 Label_0172EA8F
//  #10 //058   ----------------------------------------
 BYTE   PATT
  POIN2 Label_0172EA8F
//  #10 //059   ----------------------------------------
 BYTE   PATT
  POIN2 Label_0172EA8F
//  #10 //060   ----------------------------------------
 BYTE   PATT
  POIN2 Label_0172EA8F
//  #10 //061   ----------------------------------------
 BYTE   PATT
  POIN2 Label_0172EA8F
//  #10 //062   ----------------------------------------
Label_0172EB4F:
 BYTE   N20  Dn1  v127
 BYTE   N20  En1
 BYTE   N11  Ds2  v076
 BYTE   W12
 BYTE   N05
 BYTE   W06
 BYTE   N05
 BYTE   W06
 BYTE   N11
 BYTE   W12
 BYTE   N20  Dn1  v127
 BYTE   N20  En1
 BYTE   N05  Ds2  v076
 BYTE   W06
 BYTE   N05
 BYTE   W06
 BYTE   N11
 BYTE   W12
 BYTE   N05
 BYTE   W06
 BYTE   N05
 BYTE   W06
 BYTE   N11  Dn1  v127
 BYTE   N11  En1
 BYTE   N11  Ds2  v076
 BYTE   W12
 BYTE   Dn1  v127
 BYTE   N11  En1
 BYTE   N05  Ds2  v076
 BYTE   W06
 BYTE   N05
 BYTE   W06
 BYTE   PEND 
//  #10 //063   ----------------------------------------
Label_0172EB83:
 BYTE   N05  Dn1  v127
 BYTE   N05  En1
 BYTE   N11  Ds2  v076
 BYTE   W06
 BYTE   N05  Dn1  v127
 BYTE   N05  En1
 BYTE   W06
 BYTE   N11  Dn1
 BYTE   N11  En1
 BYTE   N05  Ds2  v076
 BYTE   W06
 BYTE   N05
 BYTE   W06
 BYTE   N11
 BYTE   W12
 BYTE   N05
 BYTE   W06
 BYTE   N05
 BYTE   W06
 BYTE   N20  Dn1  v127
 BYTE   N20  En1
 BYTE   N11  Ds2  v076
 BYTE   W12
 BYTE   N05
 BYTE   W06
 BYTE   N05
 BYTE   W06
 BYTE   N11
 BYTE   W12
 BYTE   N05
 BYTE   W06
 BYTE   N05
 BYTE   W06
 BYTE   PEND 
//  #10 //064   ----------------------------------------
 BYTE   PATT
  POIN2 Label_0172EA8F
//  #10 //065   ----------------------------------------
 BYTE   PATT
  POIN2 Label_0172EA8F
//  #10 //066   ----------------------------------------
 BYTE   PATT
  POIN2 Label_0172EA8F
//  #10 //067   ----------------------------------------
 BYTE   PATT
  POIN2 Label_0172EA8F
//  #10 //068   ----------------------------------------
Label_0172EBCA:
 BYTE   N20  Dn1  v127
 BYTE   N20  En1
 BYTE   N11  Ds2  v076
 BYTE   W12
 BYTE   N05
 BYTE   W06
 BYTE   N05
 BYTE   W06
 BYTE   N11
 BYTE   W12
 BYTE   N05
 BYTE   W06
 BYTE   N05
 BYTE   W06
 BYTE   N20  Dn1  v127
 BYTE   N20  En1
 BYTE   N11  Ds2  v076
 BYTE   W12
 BYTE   N05
 BYTE   W06
 BYTE   N05
 BYTE   W06
 BYTE   N11
 BYTE   W12
 BYTE   N05  Dn1  v127
 BYTE   N05  En1
 BYTE   N05  Ds2  v076
 BYTE   W06
 BYTE   Dn1  v127
 BYTE   N05  En1
 BYTE   N05  Ds2  v076
 BYTE   W06
 BYTE   PEND 
//  #10 //069   ----------------------------------------
Label_0172EBFE:
 BYTE   N05  Dn1  v127
 BYTE   N05  En1
 BYTE   N11  Ds2  v076
 BYTE   W06
 BYTE   N05  Dn1  v127
 BYTE   N05  En1
 BYTE   W06
 BYTE   Dn1
 BYTE   N05  En1
 BYTE   N05  Ds2  v076
 BYTE   W06
 BYTE   Dn1  v127
 BYTE   N05  En1
 BYTE   N05  Ds2  v076
 BYTE   W06
 BYTE   N20  Cn1  v127
 BYTE   N11  Ds1
 BYTE   N20  Ds2
 BYTE   W12
 BYTE   Ds1
 BYTE   W12
 BYTE   Dn1
 BYTE   N20  En1
 BYTE   N20  Ds2
 BYTE   W12
 BYTE   N11  Ds1
 BYTE   W12
 BYTE   N20  Cn1
 BYTE   N20  Ds1
 BYTE   N20  Ds2
 BYTE   W24
 BYTE   PEND 
//  #10 //070   ----------------------------------------
Label_0172EC37:
 BYTE   N20  Dn1  v127
 BYTE   N11  Ds1
 BYTE   N20  En1
 BYTE   N20  Ds2
 BYTE   W12
 BYTE   N23  Ds1
 BYTE   W12
 BYTE   N20  Cn1
 BYTE   N20  Ds2
 BYTE   W12
 BYTE   N11  Ds1
 BYTE   W12
 BYTE   N20  Dn1
 BYTE   N20  Ds1
 BYTE   N20  En1
 BYTE   N20  Ds2
 BYTE   W24
 BYTE   N11  Cn1
 BYTE   N11  Ds1
 BYTE   N20  Ds2
 BYTE   W12
 BYTE   Ds1
 BYTE   N05  En1
 BYTE   W06
 BYTE   N05
 BYTE   W06
 BYTE   PEND 
//  #10 //071   ----------------------------------------
Label_0172EC63:
 BYTE   N05  Dn1  v127
 BYTE   N20  Ds2
 BYTE   W06
 BYTE   N05  Dn1
 BYTE   W06
 BYTE   Cn1
 BYTE   W06
 BYTE   N05
 BYTE   W06
 BYTE   N20
 BYTE   N11  Ds1
 BYTE   N20  Ds2
 BYTE   W12
 BYTE   Ds1
 BYTE   W12
 BYTE   Dn1
 BYTE   N20  En1
 BYTE   N20  Ds2
 BYTE   W12
 BYTE   N11  Ds1
 BYTE   W12
 BYTE   N20  Cn1
 BYTE   N20  Ds1
 BYTE   N20  Ds2
 BYTE   W24
 BYTE   PEND 
//  #10 //072   ----------------------------------------
 BYTE   PATT
  POIN2 Label_0172EC37
//  #10 //073   ----------------------------------------
Label_0172EC8E:
 BYTE   N05  Dn1  v127
 BYTE   N20  Ds2
 BYTE   W06
 BYTE   N05  Dn1
 BYTE   W06
 BYTE   Cn1
 BYTE   N11  Ds1
 BYTE   W06
 BYTE   N05  Cn1
 BYTE   W06
 BYTE   N20
 BYTE   N11  Ds1
 BYTE   N20  Ds2
 BYTE   W12
 BYTE   Ds1
 BYTE   W12
 BYTE   Dn1
 BYTE   N20  En1
 BYTE   N20  Ds2
 BYTE   W12
 BYTE   N11  Ds1
 BYTE   W12
 BYTE   N20  Cn1
 BYTE   N20  Ds1
 BYTE   N20  Ds2
 BYTE   W24
 BYTE   PEND 
//  #10 //074   ----------------------------------------
 BYTE   PATT
  POIN2 Label_0172EC37
//  #10 //075   ----------------------------------------
 BYTE   PATT
  POIN2 Label_0172EC63
//  #10 //076   ----------------------------------------
 BYTE   PATT
  POIN2 Label_0172EC37
//  #10 //077   ----------------------------------------
Label_0172ECC6:
 BYTE   N05  Dn1  v127
 BYTE   N20  Ds2
 BYTE   W06
 BYTE   N05  Dn1
 BYTE   W06
 BYTE   Cn1
 BYTE   N11  Ds1
 BYTE   W06
 BYTE   N05  Cn1
 BYTE   W06
 BYTE   N11
 BYTE   N11  Ds1
 BYTE   W12
 BYTE   N11
 BYTE   W12
 BYTE   Cn1
 BYTE   N11  Ds1
 BYTE   W12
 BYTE   N11
 BYTE   W12
 BYTE   Cn1
 BYTE   N11  Ds1
 BYTE   W12
 BYTE   N11
 BYTE   W12
 BYTE   PEND 
//  #10 //078   ----------------------------------------
Label_0172ECE9:
 BYTE   N11  Cn1  v127
 BYTE   N11  Ds1
 BYTE   W12
 BYTE   N11
 BYTE   W12
 BYTE   N05  Cn1  v012
 BYTE   N11  Ds1  v127
 BYTE   N05  En1  v012
 BYTE   W06
 BYTE   Cn1
 BYTE   N05  En1
 BYTE   W06
 BYTE   Cn1
 BYTE   N11  Ds1  v127
 BYTE   N05  En1  v012
 BYTE   W06
 BYTE   Cn1
 BYTE   N05  En1
 BYTE   W06
 BYTE   Cn1
 BYTE   N11  Ds1  v127
 BYTE   N05  En1  v012
 BYTE   W06
 BYTE   Cn1
 BYTE   N05  En1
 BYTE   W06
 BYTE   Cn1  v032
 BYTE   N11  Ds1  v127
 BYTE   N05  En1  v032
 BYTE   W06
 BYTE   Cn1
 BYTE   N05  En1
 BYTE   W06
 BYTE   Cn1
 BYTE   N11  Ds1  v127
 BYTE   N05  En1  v032
 BYTE   W06
 BYTE   Cn1
 BYTE   N05  En1
 BYTE   W06
 BYTE   Cn1
 BYTE   N11  Ds1  v127
 BYTE   N05  En1  v032
 BYTE   W06
 BYTE   Cn1
 BYTE   N05  En1
 BYTE   W06
 BYTE   PEND 
//  #10 //079   ----------------------------------------
Label_0172ED3D:
 BYTE   N05  Cn1  v032
 BYTE   N11  Ds1  v127
 BYTE   N05  En1  v032
 BYTE   W06
 BYTE   Cn1
 BYTE   N05  En1
 BYTE   W06
 BYTE   Cn1
 BYTE   N11  Ds1  v127
 BYTE   N05  En1  v032
 BYTE   W06
 BYTE   Cn1
 BYTE   N05  En1
 BYTE   W06
 BYTE   Cn1  v048
 BYTE   N05  En1
 BYTE   W06
 BYTE   Cn1
 BYTE   N05  En1
 BYTE   W06
 BYTE   Cn1
 BYTE   N05  En1
 BYTE   W06
 BYTE   Cn1
 BYTE   N05  En1
 BYTE   W06
 BYTE   Cn1
 BYTE   N05  En1
 BYTE   W06
 BYTE   Cn1  v060
 BYTE   N05  En1
 BYTE   W06
 BYTE   Cn1
 BYTE   N05  En1
 BYTE   W06
 BYTE   Cn1
 BYTE   N05  En1
 BYTE   W06
 BYTE   Cn1
 BYTE   N05  En1
 BYTE   W06
 BYTE   Cn1
 BYTE   N05  En1
 BYTE   W06
 BYTE   Cn1
 BYTE   N05  En1
 BYTE   W06
 BYTE   Cn1  v076
 BYTE   N05  En1
 BYTE   W06
 BYTE   PEND 
//  #10 //080   ----------------------------------------
Label_0172ED8B:
 BYTE   N05  Cn1  v076
 BYTE   N05  En1
 BYTE   W06
 BYTE   Cn1
 BYTE   N05  En1
 BYTE   W06
 BYTE   Cn1
 BYTE   N05  En1
 BYTE   W06
 BYTE   Cn1
 BYTE   N05  En1
 BYTE   W06
 BYTE   Cn1  v092
 BYTE   N05  En1
 BYTE   W06
 BYTE   Cn1
 BYTE   N05  En1
 BYTE   W06
 BYTE   Cn1
 BYTE   N05  En1
 BYTE   W06
 BYTE   Cn1
 BYTE   N05  En1
 BYTE   W06
 BYTE   Cn1  v108
 BYTE   N05  En1
 BYTE   W06
 BYTE   Cn1
 BYTE   N05  En1
 BYTE   W06
 BYTE   Cn1
 BYTE   N05  En1
 BYTE   W06
 BYTE   Cn1
 BYTE   N05  En1
 BYTE   W06
 BYTE   Cn1
 BYTE   N05  En1
 BYTE   W06
 BYTE   Cn1  v127
 BYTE   N05  En1
 BYTE   W06
 BYTE   Cn1
 BYTE   N05  En1
 BYTE   W06
 BYTE   Cn1
 BYTE   N05  En1
 BYTE   W06
 BYTE   PEND 
//  #10 //081   ----------------------------------------
Label_0172EDD1:
 BYTE   N05  Cn1  v127
 BYTE   N05  En1
 BYTE   W06
 BYTE   Cn1
 BYTE   N05  En1
 BYTE   W06
 BYTE   Cn1
 BYTE   N05  En1
 BYTE   W06
 BYTE   Cn1
 BYTE   N05  En1
 BYTE   W06
 BYTE   N11  Ds1
 BYTE   N20  En1
 BYTE   N11  En2  v076
 BYTE   W12
 BYTE   N20  Ds1  v127
 BYTE   W12
 BYTE   As1  v076
 BYTE   W12
 BYTE   N11  Ds1  v127
 BYTE   N20  En1
 BYTE   W12
 BYTE   Ds1
 BYTE   W24
//  #10 //082   ----------------------------------------
 BYTE   PATT
  POIN2 Label_0172E50A
//  #10 //083   ----------------------------------------
 BYTE   PATT
  POIN2 Label_0172E52E
//  #10 //084   ----------------------------------------
 BYTE   PATT
  POIN2 Label_0172E50A
//  #10 //085   ----------------------------------------
 BYTE   PATT
  POIN2 Label_0172E55B
//  #10 //086   ----------------------------------------
 BYTE   PATT
  POIN2 Label_0172E56F
//  #10 //087   ----------------------------------------
 BYTE   PATT
  POIN2 Label_0172E5A6
//  #10 //088   ----------------------------------------
 BYTE   PATT
  POIN2 Label_0172E5CD
//  #10 //089   ----------------------------------------
 BYTE   PATT
  POIN2 Label_0172E5A6
//  #10 //090   ----------------------------------------
 BYTE   PATT
  POIN2 Label_0172E5CD
//  #10 //091   ----------------------------------------
 BYTE   PATT
  POIN2 Label_0172E5A6
//  #10 //092   ----------------------------------------
 BYTE   PATT
  POIN2 Label_0172E5CD
//  #10 //093   ----------------------------------------
 BYTE   PATT
  POIN2 Label_0172E60A
//  #10 //094   ----------------------------------------
 BYTE   PATT
  POIN2 Label_0172E640
//  #10 //095   ----------------------------------------
 BYTE   PATT
  POIN2 Label_0172E670
//  #10 //096   ----------------------------------------
 BYTE   PATT
  POIN2 Label_0172E694
//  #10 //097   ----------------------------------------
 BYTE   PATT
  POIN2 Label_0172E670
//  #10 //098   ----------------------------------------
 BYTE   PATT
  POIN2 Label_0172E6C1
//  #10 //099   ----------------------------------------
 BYTE   PATT
  POIN2 Label_0172E6D5
//  #10 //100   ----------------------------------------
 BYTE   PATT
  POIN2 Label_0172E70B
//  #10 //101   ----------------------------------------
 BYTE   PATT
  POIN2 Label_0172E732
//  #10 //102   ----------------------------------------
 BYTE   PATT
  POIN2 Label_0172E70B
//  #10 //103   ----------------------------------------
 BYTE   PATT
  POIN2 Label_0172E732
//  #10 //104   ----------------------------------------
 BYTE   PATT
  POIN2 Label_0172E70B
//  #10 //105   ----------------------------------------
 BYTE   PATT
  POIN2 Label_0172E76A
//  #10 //106   ----------------------------------------
 BYTE   PATT
  POIN2 Label_0172E79A
//  #10 //107   ----------------------------------------
 BYTE   PATT
  POIN2 Label_0172E7D4
//  #10 //108   ----------------------------------------
 BYTE   PATT
  POIN2 Label_0172E79A
//  #10 //109   ----------------------------------------
 BYTE   PATT
  POIN2 Label_0172E7D4
//  #10 //110   ----------------------------------------
 BYTE   PATT
  POIN2 Label_0172E79A
//  #10 //111   ----------------------------------------
 BYTE   PATT
  POIN2 Label_0172E7D4
//  #10 //112   ----------------------------------------
 BYTE   PATT
  POIN2 Label_0172E81F
//  #10 //113   ----------------------------------------
 BYTE   PATT
  POIN2 Label_0172E866
//  #10 //114   ----------------------------------------
 BYTE   PATT
  POIN2 Label_0172E8A3
//  #10 //115   ----------------------------------------
 BYTE   PATT
  POIN2 Label_0172E8D7
//  #10 //116   ----------------------------------------
 BYTE   PATT
  POIN2 Label_0172E8A3
//  #10 //117   ----------------------------------------
 BYTE   PATT
  POIN2 Label_0172E8D7
//  #10 //118   ----------------------------------------
 BYTE   PATT
  POIN2 Label_0172E8A3
//  #10 //119   ----------------------------------------
 BYTE   PATT
  POIN2 Label_0172E8D7
//  #10 //120   ----------------------------------------
 BYTE   PATT
  POIN2 Label_0172E920
//  #10 //121   ----------------------------------------
 BYTE   PATT
  POIN2 Label_0172E956
//  #10 //122   ----------------------------------------
 BYTE   PATT
  POIN2 Label_0172E50A
//  #10 //123   ----------------------------------------
 BYTE   PATT
  POIN2 Label_0172E98D
//  #10 //124   ----------------------------------------
 BYTE   PATT
  POIN2 Label_0172E9B5
//  #10 //125   ----------------------------------------
 BYTE   PATT
  POIN2 Label_0172E9DA
//  #10 //126   ----------------------------------------
 BYTE   PATT
  POIN2 Label_0172E50A
//  #10 //127   ----------------------------------------
 BYTE   PATT
  POIN2 Label_0172E52E
//  #10 //128   ----------------------------------------
 BYTE   PATT
  POIN2 Label_0172E50A
//  #10 //129   ----------------------------------------
 BYTE   PATT
  POIN2 Label_0172EA13
//  #10 //130   ----------------------------------------
 BYTE   PATT
  POIN2 Label_0172EA3B
//  #10 //131   ----------------------------------------
 BYTE   PATT
  POIN2 Label_0172EA56
//  #10 //132   ----------------------------------------
 BYTE   PATT
  POIN2 Label_0172EA66
//  #10 //133   ----------------------------------------
 BYTE   PATT
  POIN2 Label_0172EA8F
//  #10 //134   ----------------------------------------
 BYTE   PATT
  POIN2 Label_0172EA8F
//  #10 //135   ----------------------------------------
 BYTE   PATT
  POIN2 Label_0172EABB
//  #10 //136   ----------------------------------------
 BYTE   PATT
  POIN2 Label_0172EAF9
//  #10 //137   ----------------------------------------
 BYTE   PATT
  POIN2 Label_0172EA8F
//  #10 //138   ----------------------------------------
 BYTE   PATT
  POIN2 Label_0172EA8F
//  #10 //139   ----------------------------------------
 BYTE   PATT
  POIN2 Label_0172EA8F
//  #10 //140   ----------------------------------------
 BYTE   PATT
  POIN2 Label_0172EA8F
//  #10 //141   ----------------------------------------
 BYTE   PATT
  POIN2 Label_0172EA8F
//  #10 //142   ----------------------------------------
 BYTE   PATT
  POIN2 Label_0172EA8F
//  #10 //143   ----------------------------------------
 BYTE   PATT
  POIN2 Label_0172EB4F
//  #10 //144   ----------------------------------------
 BYTE   PATT
  POIN2 Label_0172EB83
//  #10 //145   ----------------------------------------
 BYTE   PATT
  POIN2 Label_0172EA8F
//  #10 //146   ----------------------------------------
 BYTE   PATT
  POIN2 Label_0172EA8F
//  #10 //147   ----------------------------------------
 BYTE   PATT
  POIN2 Label_0172EA8F
//  #10 //148   ----------------------------------------
 BYTE   PATT
  POIN2 Label_0172EA8F
//  #10 //149   ----------------------------------------
 BYTE   PATT
  POIN2 Label_0172EBCA
//  #10 //150   ----------------------------------------
 BYTE   PATT
  POIN2 Label_0172EBFE
//  #10 //151   ----------------------------------------
 BYTE   PATT
  POIN2 Label_0172EC37
//  #10 //152   ----------------------------------------
 BYTE   PATT
  POIN2 Label_0172EC63
//  #10 //153   ----------------------------------------
 BYTE   PATT
  POIN2 Label_0172EC37
//  #10 //154   ----------------------------------------
 BYTE   PATT
  POIN2 Label_0172EC8E
//  #10 //155   ----------------------------------------
 BYTE   PATT
  POIN2 Label_0172EC37
//  #10 //156   ----------------------------------------
 BYTE   PATT
  POIN2 Label_0172EC63
//  #10 //157   ----------------------------------------
 BYTE   PATT
  POIN2 Label_0172EC37
//  #10 //158   ----------------------------------------
 BYTE   PATT
  POIN2 Label_0172ECC6
//  #10 //159   ----------------------------------------
 BYTE   PATT
  POIN2 Label_0172ECE9
//  #10 //160   ----------------------------------------
 BYTE   PATT
  POIN2 Label_0172ED3D
//  #10 //161   ----------------------------------------
 BYTE   PATT
  POIN2 Label_0172ED8B
//  #10 //162   ----------------------------------------
 BYTE   GoTo
  POIN2 Label_0172EDD1
//  #10 //163   ----------------------------------------
 BYTE   N05  Cn1  v127
 BYTE   N05  En1
 BYTE   W06
 BYTE   Cn1
 BYTE   N05  En1
 BYTE   W06
 BYTE   Cn1
 BYTE   N05  En1
 BYTE   W06
 BYTE   Cn1
 BYTE   N05  En1
 BYTE   W05
 BYTE   FINE

//**************** Track 11 (Midi-Chn.10) ****************//

CelicaMap1SSBB_Song_011:
//  #11 //000   ----------------------------------------
 BYTE   KEYSH   CelicaMap1SSBB_Song_key+0
 BYTE   VOICE   56
 BYTE   VOL   37*CelicaMap1SSBB_Song_mvl/mxv
 BYTE   PAN   c_v+36
 BYTE   W24
 BYTE   N11  Fn3  v127
 BYTE   N11  As3
 BYTE   W12
 BYTE   Fn3
 BYTE   N11  As3
 BYTE   W24
 BYTE   Fn3
 BYTE   N11  As3
 BYTE   W12
 BYTE   Fn3
 BYTE   N11  As3
 BYTE   W24
//  #11 //001   ----------------------------------------
Label_017D4057:
 BYTE   N11  Fn3  v127
 BYTE   N11  As3
 BYTE   W12
 BYTE   Fn3
 BYTE   N11  As3
 BYTE   W24
 BYTE   Fn3
 BYTE   N11  As3
 BYTE   W12
 BYTE   Fn3
 BYTE   N11  As3
 BYTE   W24
 BYTE   Fs3
 BYTE   N11  Bn3
 BYTE   W12
 BYTE   Fs3
 BYTE   N11  Bn3
 BYTE   W12
 BYTE   PEND 
//  #11 //002   ----------------------------------------
Label_017D4072:
 BYTE   W12
 BYTE   N11  Fs3  v127
 BYTE   N11  Bn3
 BYTE   W12
 BYTE   Fn3
 BYTE   N11  As3
 BYTE   N11  Fn4
 BYTE   W12
 BYTE   Fn3
 BYTE   N11  As3
 BYTE   N11  Fn4
 BYTE   W24
 BYTE   Fn3
 BYTE   N11  As3
 BYTE   N11  Fn4
 BYTE   W12
 BYTE   Fn3
 BYTE   N11  As3
 BYTE   N11  Fn4
 BYTE   W24
 BYTE   PEND 
//  #11 //003   ----------------------------------------
Label_017D4092:
 BYTE   N11  Fn3  v127
 BYTE   N11  As3
 BYTE   N11  Fn4
 BYTE   W12
 BYTE   Fn3
 BYTE   N11  As3
 BYTE   N11  Fn4
 BYTE   W24
 BYTE   Fn3
 BYTE   N11  As3
 BYTE   N11  Fn4
 BYTE   W12
 BYTE   Fn3
 BYTE   N11  As3
 BYTE   N11  Fn4
 BYTE   W24
 BYTE   Fs3
 BYTE   N11  Bn3
 BYTE   N11  Fs4
 BYTE   W12
 BYTE   Fs3
 BYTE   N11  Bn3
 BYTE   N11  Fs4
 BYTE   W12
 BYTE   PEND 
//  #11 //004   ----------------------------------------
Label_017D40B9:
 BYTE   W12
 BYTE   N11  Fs3  v127
 BYTE   N11  Bn3
 BYTE   N11  Fs4
 BYTE   W84
 BYTE   PEND 
//  #11 //005   ----------------------------------------
 BYTE   W96
//  #11 //006   ----------------------------------------
 BYTE   W96
//  #11 //007   ----------------------------------------
 BYTE   W96
//  #11 //008   ----------------------------------------
 BYTE   W96
//  #11 //009   ----------------------------------------
 BYTE   W96
//  #11 //010   ----------------------------------------
 BYTE   W96
//  #11 //011   ----------------------------------------
 BYTE   W96
//  #11 //012   ----------------------------------------
 BYTE   W96
//  #11 //013   ----------------------------------------
Label_017D40CB:
 BYTE   W24
 BYTE   N11  Fn3  v127
 BYTE   N11  As3
 BYTE   W12
 BYTE   Fn3
 BYTE   N11  As3
 BYTE   W24
 BYTE   Fn3
 BYTE   N11  As3
 BYTE   W12
 BYTE   Fn3
 BYTE   N11  As3
 BYTE   W24
 BYTE   PEND 
//  #11 //014   ----------------------------------------
 BYTE   PATT
  POIN2 Label_017D4057
//  #11 //015   ----------------------------------------
 BYTE   PATT
  POIN2 Label_017D4072
//  #11 //016   ----------------------------------------
 BYTE   PATT
  POIN2 Label_017D4092
//  #11 //017   ----------------------------------------
 BYTE   PATT
  POIN2 Label_017D40B9
//  #11 //018   ----------------------------------------
 BYTE   W96
//  #11 //019   ----------------------------------------
 BYTE   W96
//  #11 //020   ----------------------------------------
 BYTE   W96
//  #11 //021   ----------------------------------------
 BYTE   W96
//  #11 //022   ----------------------------------------
 BYTE   W96
//  #11 //023   ----------------------------------------
 BYTE   W96
//  #11 //024   ----------------------------------------
 BYTE   W96
//  #11 //025   ----------------------------------------
 BYTE   N11  Fn3  v127
 BYTE   N11  As3
 BYTE   W96
//  #11 //026   ----------------------------------------
 BYTE   Fs3
 BYTE   N11  Bn3
 BYTE   W96
//  #11 //027   ----------------------------------------
 BYTE   Gn3
 BYTE   N11  Cn4
 BYTE   W96
//  #11 //028   ----------------------------------------
 BYTE   Gs3
 BYTE   N11  Cs4
 BYTE   W96
//  #11 //029   ----------------------------------------
 BYTE   Fn4
 BYTE   N11  As4
 BYTE   W96
//  #11 //030   ----------------------------------------
 BYTE   Fs4
 BYTE   N11  Bn4
 BYTE   W96
//  #11 //031   ----------------------------------------
 BYTE   Gn4
 BYTE   N11  Cn5
 BYTE   W96
//  #11 //032   ----------------------------------------
 BYTE   Gs4
 BYTE   N11  Cs5
 BYTE   W96
//  #11 //033   ----------------------------------------
 BYTE   W96
//  #11 //034   ----------------------------------------
 BYTE   W96
//  #11 //035   ----------------------------------------
 BYTE   W96
//  #11 //036   ----------------------------------------
 BYTE   W96
//  #11 //037   ----------------------------------------
 BYTE   W96
//  #11 //038   ----------------------------------------
 BYTE   W96
//  #11 //039   ----------------------------------------
 BYTE   W96
//  #11 //040   ----------------------------------------
 BYTE   PATT
  POIN2 Label_017D40CB
//  #11 //041   ----------------------------------------
 BYTE   PATT
  POIN2 Label_017D4057
//  #11 //042   ----------------------------------------
Label_017D412D:
 BYTE   W12
 BYTE   N11  Fs3  v127
 BYTE   N11  Bn3
 BYTE   W12
 BYTE   Fn3
 BYTE   N11  As3
 BYTE   W12
 BYTE   Fn3
 BYTE   N11  As3
 BYTE   W24
 BYTE   Fn3
 BYTE   N11  As3
 BYTE   W12
 BYTE   Fn3
 BYTE   N11  As3
 BYTE   W24
 BYTE   PEND 
//  #11 //043   ----------------------------------------
 BYTE   PATT
  POIN2 Label_017D4057
//  #11 //044   ----------------------------------------
 BYTE   PATT
  POIN2 Label_017D412D
//  #11 //045   ----------------------------------------
 BYTE   PATT
  POIN2 Label_017D4057
//  #11 //046   ----------------------------------------
 BYTE   PATT
  POIN2 Label_017D4072
//  #11 //047   ----------------------------------------
 BYTE   PATT
  POIN2 Label_017D4092
//  #11 //048   ----------------------------------------
 BYTE   PATT
  POIN2 Label_017D40B9
//  #11 //049   ----------------------------------------
Label_017D4163:
 BYTE   N20  Gs3  v127
 BYTE   N20  Ds4
 BYTE   N20  Gs4
 BYTE   W24
 BYTE   As3
 BYTE   N20  Fn4
 BYTE   N20  As4
 BYTE   W72
 BYTE   PEND 
//  #11 //050   ----------------------------------------
 BYTE   W96
//  #11 //051   ----------------------------------------
 BYTE   W96
//  #11 //052   ----------------------------------------
 BYTE   W96
//  #11 //053   ----------------------------------------
 BYTE   W96
//  #11 //054   ----------------------------------------
 BYTE   W96
//  #11 //055   ----------------------------------------
 BYTE   W96
//  #11 //056   ----------------------------------------
 BYTE   W96
//  #11 //057   ----------------------------------------
 BYTE   W96
//  #11 //058   ----------------------------------------
 BYTE   W96
//  #11 //059   ----------------------------------------
 BYTE   W96
//  #11 //060   ----------------------------------------
 BYTE   W96
//  #11 //061   ----------------------------------------
 BYTE   W96
//  #11 //062   ----------------------------------------
 BYTE   W96
//  #11 //063   ----------------------------------------
 BYTE   W96
//  #11 //064   ----------------------------------------
 BYTE   W96
//  #11 //065   ----------------------------------------
 BYTE   W96
//  #11 //066   ----------------------------------------
 BYTE   W96
//  #11 //067   ----------------------------------------
 BYTE   W96
//  #11 //068   ----------------------------------------
 BYTE   W96
//  #11 //069   ----------------------------------------
Label_017D4185:
 BYTE   W48
 BYTE   N11  Cs4  v127
 BYTE   W12
 BYTE   Cn4
 BYTE   W12
 BYTE   Cs4
 BYTE   W12
 BYTE   N11
 BYTE   W12
 BYTE   PEND 
//  #11 //070   ----------------------------------------
Label_017D4191:
 BYTE   W12
 BYTE   N11  Ds4  v127
 BYTE   W48
 BYTE   Cs4
 BYTE   W24
 BYTE   N11
 BYTE   W12
 BYTE   PEND 
//  #11 //071   ----------------------------------------
Label_017D419B:
 BYTE   N11  Ds4  v127
 BYTE   W48
 BYTE   Cs4
 BYTE   N11  Fn4
 BYTE   W12
 BYTE   Cn4
 BYTE   N11  Ds4
 BYTE   W12
 BYTE   Cs4
 BYTE   N11  Fn4
 BYTE   W12
 BYTE   Cs4
 BYTE   N11  Fn4
 BYTE   W12
 BYTE   PEND 
//  #11 //072   ----------------------------------------
Label_017D41B0:
 BYTE   W12
 BYTE   N11  Ds4  v127
 BYTE   N11  Fs4
 BYTE   W48
 BYTE   As3
 BYTE   N11  Ds4
 BYTE   W24
 BYTE   As3
 BYTE   N11  Ds4
 BYTE   W12
 BYTE   PEND 
//  #11 //073   ----------------------------------------
Label_017D41C0:
 BYTE   N11  Ds4  v127
 BYTE   N11  Fs4
 BYTE   W48
 BYTE   Fn4
 BYTE   N11  Gs4
 BYTE   W12
 BYTE   Ds4
 BYTE   N11  Fs4
 BYTE   W12
 BYTE   Fn4
 BYTE   N11  Gs4
 BYTE   W12
 BYTE   Fn4
 BYTE   N11  Gs4
 BYTE   W12
 BYTE   PEND 
//  #11 //074   ----------------------------------------
Label_017D41D7:
 BYTE   W12
 BYTE   N11  Fs4  v127
 BYTE   N11  As4
 BYTE   W48
 BYTE   Ds4
 BYTE   N11  Fs4
 BYTE   W24
 BYTE   Ds4
 BYTE   N11  Fs4
 BYTE   W12
 BYTE   PEND 
//  #11 //075   ----------------------------------------
Label_017D41E7:
 BYTE   N11  Fs4  v127
 BYTE   N11  As4
 BYTE   W48
 BYTE   Cs4
 BYTE   N11  Fn4
 BYTE   N11  Cs5
 BYTE   W12
 BYTE   Cn4
 BYTE   N11  Ds4
 BYTE   N11  Cn5
 BYTE   W12
 BYTE   Cs4
 BYTE   N11  Fn4
 BYTE   N11  Cs5
 BYTE   W12
 BYTE   Cs4
 BYTE   N11  Fn4
 BYTE   N11  Cs5
 BYTE   W12
 BYTE   PEND 
//  #11 //076   ----------------------------------------
Label_017D4206:
 BYTE   W12
 BYTE   N11  Ds4  v127
 BYTE   N11  Fs4
 BYTE   N11  Ds5
 BYTE   W48
 BYTE   As3
 BYTE   N11  Ds4
 BYTE   N11  As4
 BYTE   W24
 BYTE   As3
 BYTE   N11  Ds4
 BYTE   N11  As4
 BYTE   W12
 BYTE   PEND 
//  #11 //077   ----------------------------------------
Label_017D421C:
 BYTE   N11  Ds4  v127
 BYTE   N11  Fs4
 BYTE   N11  Ds5
 BYTE   W96
 BYTE   PEND 
//  #11 //078   ----------------------------------------
 BYTE   W96
//  #11 //079   ----------------------------------------
 BYTE   W96
//  #11 //080   ----------------------------------------
 BYTE   W96
//  #11 //081   ----------------------------------------
Label_017D4228:
//  #11 //082   ----------------------------------------
 BYTE   PATT
  POIN2 Label_017D40CB
//  #11 //083   ----------------------------------------
 BYTE   PATT
  POIN2 Label_017D4057
//  #11 //084   ----------------------------------------
 BYTE   PATT
  POIN2 Label_017D4072
//  #11 //085   ----------------------------------------
 BYTE   PATT
  POIN2 Label_017D4092
//  #11 //086   ----------------------------------------
 BYTE   PATT
  POIN2 Label_017D40B9
//  #11 //087   ----------------------------------------
 BYTE   W96
//  #11 //088   ----------------------------------------
 BYTE   W96
//  #11 //089   ----------------------------------------
 BYTE   W96
//  #11 //090   ----------------------------------------
 BYTE   W96
//  #11 //091   ----------------------------------------
 BYTE   W96
//  #11 //092   ----------------------------------------
 BYTE   W96
//  #11 //093   ----------------------------------------
 BYTE   W96
//  #11 //094   ----------------------------------------
 BYTE   W96
//  #11 //095   ----------------------------------------
 BYTE   PATT
  POIN2 Label_017D40CB
//  #11 //096   ----------------------------------------
 BYTE   PATT
  POIN2 Label_017D4057
//  #11 //097   ----------------------------------------
 BYTE   PATT
  POIN2 Label_017D4072
//  #11 //098   ----------------------------------------
 BYTE   PATT
  POIN2 Label_017D4092
//  #11 //099   ----------------------------------------
 BYTE   PATT
  POIN2 Label_017D40B9
//  #11 //100   ----------------------------------------
 BYTE   W96
//  #11 //101   ----------------------------------------
 BYTE   W96
//  #11 //102   ----------------------------------------
 BYTE   W96
//  #11 //103   ----------------------------------------
 BYTE   W96
//  #11 //104   ----------------------------------------
 BYTE   W96
//  #11 //105   ----------------------------------------
 BYTE   W96
//  #11 //106   ----------------------------------------
 BYTE   W96
//  #11 //107   ----------------------------------------
 BYTE   N11  Fn3  v127
 BYTE   N11  As3
 BYTE   W96
//  #11 //108   ----------------------------------------
 BYTE   Fs3
 BYTE   N11  Bn3
 BYTE   W96
//  #11 //109   ----------------------------------------
 BYTE   Gn3
 BYTE   N11  Cn4
 BYTE   W96
//  #11 //110   ----------------------------------------
 BYTE   Gs3
 BYTE   N11  Cs4
 BYTE   W96
//  #11 //111   ----------------------------------------
 BYTE   Fn4
 BYTE   N11  As4
 BYTE   W96
//  #11 //112   ----------------------------------------
 BYTE   Fs4
 BYTE   N11  Bn4
 BYTE   W96
//  #11 //113   ----------------------------------------
 BYTE   Gn4
 BYTE   N11  Cn5
 BYTE   W96
//  #11 //114   ----------------------------------------
 BYTE   Gs4
 BYTE   N11  Cs5
 BYTE   W96
//  #11 //115   ----------------------------------------
 BYTE   W96
//  #11 //116   ----------------------------------------
 BYTE   W96
//  #11 //117   ----------------------------------------
 BYTE   W96
//  #11 //118   ----------------------------------------
 BYTE   W96
//  #11 //119   ----------------------------------------
 BYTE   W96
//  #11 //120   ----------------------------------------
 BYTE   W96
//  #11 //121   ----------------------------------------
 BYTE   W96
//  #11 //122   ----------------------------------------
 BYTE   PATT
  POIN2 Label_017D40CB
//  #11 //123   ----------------------------------------
 BYTE   PATT
  POIN2 Label_017D4057
//  #11 //124   ----------------------------------------
 BYTE   PATT
  POIN2 Label_017D412D
//  #11 //125   ----------------------------------------
 BYTE   PATT
  POIN2 Label_017D4057
//  #11 //126   ----------------------------------------
 BYTE   PATT
  POIN2 Label_017D412D
//  #11 //127   ----------------------------------------
 BYTE   PATT
  POIN2 Label_017D4057
//  #11 //128   ----------------------------------------
 BYTE   PATT
  POIN2 Label_017D4072
//  #11 //129   ----------------------------------------
 BYTE   PATT
  POIN2 Label_017D4092
//  #11 //130   ----------------------------------------
 BYTE   PATT
  POIN2 Label_017D40B9
//  #11 //131   ----------------------------------------
 BYTE   PATT
  POIN2 Label_017D4163
//  #11 //132   ----------------------------------------
 BYTE   W96
//  #11 //133   ----------------------------------------
 BYTE   W96
//  #11 //134   ----------------------------------------
 BYTE   W96
//  #11 //135   ----------------------------------------
 BYTE   W96
//  #11 //136   ----------------------------------------
 BYTE   W96
//  #11 //137   ----------------------------------------
 BYTE   W96
//  #11 //138   ----------------------------------------
 BYTE   W96
//  #11 //139   ----------------------------------------
 BYTE   W96
//  #11 //140   ----------------------------------------
 BYTE   W96
//  #11 //141   ----------------------------------------
 BYTE   W96
//  #11 //142   ----------------------------------------
 BYTE   W96
//  #11 //143   ----------------------------------------
 BYTE   W96
//  #11 //144   ----------------------------------------
 BYTE   W96
//  #11 //145   ----------------------------------------
 BYTE   W96
//  #11 //146   ----------------------------------------
 BYTE   W96
//  #11 //147   ----------------------------------------
 BYTE   W96
//  #11 //148   ----------------------------------------
 BYTE   W96
//  #11 //149   ----------------------------------------
 BYTE   W96
//  #11 //150   ----------------------------------------
 BYTE   W96
//  #11 //151   ----------------------------------------
 BYTE   PATT
  POIN2 Label_017D4185
//  #11 //152   ----------------------------------------
 BYTE   PATT
  POIN2 Label_017D4191
//  #11 //153   ----------------------------------------
 BYTE   PATT
  POIN2 Label_017D419B
//  #11 //154   ----------------------------------------
 BYTE   PATT
  POIN2 Label_017D41B0
//  #11 //155   ----------------------------------------
 BYTE   PATT
  POIN2 Label_017D41C0
//  #11 //156   ----------------------------------------
 BYTE   PATT
  POIN2 Label_017D41D7
//  #11 //157   ----------------------------------------
 BYTE   PATT
  POIN2 Label_017D41E7
//  #11 //158   ----------------------------------------
 BYTE   PATT
  POIN2 Label_017D4206
//  #11 //159   ----------------------------------------
 BYTE   PATT
  POIN2 Label_017D421C
//  #11 //160   ----------------------------------------
 BYTE   W96
//  #11 //161   ----------------------------------------
 BYTE   W96
//  #11 //162   ----------------------------------------
 BYTE   W96
//  #11 //163   ----------------------------------------
 BYTE   GoTo
  POIN2 Label_017D4228
//  #11 //164   ----------------------------------------
 BYTE   W23
 BYTE   FINE

//******************************************************//
	ALIGN 4

CelicaMap1SSBB_Song:
	BYTE	11	// NumTrks
	BYTE	0	// NumBlks
	BYTE	CelicaMap1SSBB_Song_pri	// Priority
	BYTE	CelicaMap1SSBB_Song_rev	// Reverb.
    
	POIN2	CelicaMap1SSBB_Song_grp
    
	POIN2	CelicaMap1SSBB_Song_001
	POIN2	CelicaMap1SSBB_Song_002
	POIN2	CelicaMap1SSBB_Song_003
	POIN2	CelicaMap1SSBB_Song_004
	POIN2	CelicaMap1SSBB_Song_005
	POIN2	CelicaMap1SSBB_Song_006
	POIN2	CelicaMap1SSBB_Song_007
	POIN2	CelicaMap1SSBB_Song_008
	POIN2	CelicaMap1SSBB_Song_009
	POIN2	CelicaMap1SSBB_Song_010
	POIN2	CelicaMap1SSBB_Song_011

	
