//Event file generated from Sappy .s format.
	#include "MPlayDef.event"

	#define	Daughter_of_the_Dark_God_Song_grp  voicegroup000
	#define	Daughter_of_the_Dark_God_Song_pri  0
	#define	Daughter_of_the_Dark_God_Song_rev  0
	#define	Daughter_of_the_Dark_God_Song_mvl  127
	#define	Daughter_of_the_Dark_God_Song_key  0
	#define	Daughter_of_the_Dark_God_Song_tbs  1
	#define	Daughter_of_the_Dark_God_Song_exg  0
	#define	Daughter_of_the_Dark_God_Song_cmp  1

	// .rodata
	//	Daughter_of_the_Dark_God_Song
	ALIGN 4


//**************** Track 1 (Midi-Chn.0) ****************//

Daughter_of_the_Dark_God_Song_001:
//  #01 //000   ----------------------------------------
 BYTE   KEYSH   Daughter_of_the_Dark_God_Song_key+0
 BYTE   TEMPO   174*Daughter_of_the_Dark_God_Song_tbs/2
 BYTE   VOICE   52
 BYTE   MODT 0
 BYTE   LFOS 44
 BYTE   BENDR  12
 BYTE   VOL   50*Daughter_of_the_Dark_God_Song_mvl/mxv
 BYTE   PAN   c_v+0
 BYTE   BENDR  12
 BYTE   VOL   50*Daughter_of_the_Dark_God_Song_mvl/mxv
 BYTE   PAN   c_v+0
 BYTE   BENDR  12
 BYTE   VOL   50*Daughter_of_the_Dark_God_Song_mvl/mxv
 BYTE   PAN   c_v+0
 BYTE   W96
//  #01 //001   ----------------------------------------
 BYTE   W96
//  #01 //002   ----------------------------------------
 BYTE   W96
//  #01 //003   ----------------------------------------
 BYTE   W96
//  #01 //004   ----------------------------------------
 BYTE   W96
//  #01 //005   ----------------------------------------
 BYTE   W96
//  #01 //006   ----------------------------------------
 BYTE   W96
//  #01 //007   ----------------------------------------
 BYTE   W96
//  #01 //008   ----------------------------------------
 BYTE   W96
//  #01 //009   ----------------------------------------
 BYTE   W96
//  #01 //010   ----------------------------------------
 BYTE   W96
//  #01 //011   ----------------------------------------
 BYTE   W96
//  #01 //012   ----------------------------------------
 BYTE   W96
//  #01 //013   ----------------------------------------
 BYTE   W84
Label_013CD48A:
 BYTE   W12
//  #01 //014   ----------------------------------------
Label_013CD48B:
 BYTE   W12
 BYTE   N44  Ds4  v108
 BYTE   W48
 BYTE   Cs4
 BYTE   W36
 BYTE   PEND 
//  #01 //015   ----------------------------------------
Label_013CD493:
 BYTE   W12
 BYTE   N44  Cn4  v108
 BYTE   W48
 BYTE   Cs4
 BYTE   W36
 BYTE   PEND 
//  #01 //016   ----------------------------------------
Label_013CD49B:
 BYTE   W12
 BYTE   N23  Cn4  v108
 BYTE   W24
 BYTE   As3
 BYTE   W24
 BYTE   N44  Fn3
 BYTE   W36
 BYTE   PEND 
//  #01 //017   ----------------------------------------
Label_013CD4A6:
 BYTE   W36
 BYTE   N11  Fn3  v108
 BYTE   W12
 BYTE   Gn3
 BYTE   W12
 BYTE   An3
 BYTE   W12
 BYTE   As3
 BYTE   W12
 BYTE   Cn4
 BYTE   W12
 BYTE   PEND 
//  #01 //018   ----------------------------------------
Label_013CD4B4:
 BYTE   N11  Cs4  v108
 BYTE   W12
 BYTE   N44  Ds4
 BYTE   W48
 BYTE   Cs4
 BYTE   W36
 BYTE   PEND 
//  #01 //019   ----------------------------------------
Label_013CD4BE:
 BYTE   W12
 BYTE   N32  Cn4  v108
 BYTE   W36
 BYTE   Cs4
 BYTE   W12
 BYTE   W24
 BYTE   N23  Ds4
 BYTE   W12
 BYTE   PEND 
//  #01 //020   ----------------------------------------
Label_013CD4CA:
 BYTE   W12
 BYTE   N68  Fn4  v108
 BYTE   W72
 BYTE   N23  Ds4
 BYTE   W12
 BYTE   PEND 
//  #01 //021   ----------------------------------------
Label_013CD4D3:
 BYTE   W12
 BYTE   N68  Ds4  v108
 BYTE   W84
 BYTE   PEND 
//  #01 //022   ----------------------------------------
 BYTE   PATT
  POIN2 Label_013CD48B
//  #01 //023   ----------------------------------------
 BYTE   W12
 BYTE   N23  Cn4  v108
 BYTE   W24
 BYTE   Fn3
 BYTE   W24
 BYTE   Ds4
 BYTE   W24
 BYTE   Cs4
 BYTE   W12
//  #01 //024   ----------------------------------------
 BYTE   W12
 BYTE   N32  Cn4
 BYTE   W36
 BYTE   N11  Cs4
 BYTE   W12
 BYTE   N44
 BYTE   W36
//  #01 //025   ----------------------------------------
 BYTE   W12
 BYTE   N32  Ds4
 BYTE   W36
 BYTE   N11  Fn4
 BYTE   W12
 BYTE   N44
 BYTE   W36
//  #01 //026   ----------------------------------------
 BYTE   W12
 BYTE   N44
 BYTE   W48
 BYTE   N15  As3
 BYTE   W16
 BYTE   An3
 BYTE   W16
 BYTE   As3
 BYTE   W04
//  #01 //027   ----------------------------------------
 BYTE   W12
 BYTE   N32  En4
 BYTE   W36
 BYTE   Fn4
 BYTE   W12
 BYTE   W24
 BYTE   N23  Gn4
 BYTE   W12
//  #01 //028   ----------------------------------------
 BYTE   W12
 BYTE   N32  As4
 BYTE   W36
 BYTE   An4
 BYTE   W12
 BYTE   W24
 BYTE   N23  Gn4
 BYTE   W12
//  #01 //029   ----------------------------------------
 BYTE   W12
 BYTE   N68  An4
 BYTE   W84
//  #01 //030   ----------------------------------------
 BYTE   PATT
  POIN2 Label_013CD48B
//  #01 //031   ----------------------------------------
 BYTE   PATT
  POIN2 Label_013CD493
//  #01 //032   ----------------------------------------
 BYTE   PATT
  POIN2 Label_013CD49B
//  #01 //033   ----------------------------------------
 BYTE   PATT
  POIN2 Label_013CD4A6
//  #01 //034   ----------------------------------------
 BYTE   PATT
  POIN2 Label_013CD4B4
//  #01 //035   ----------------------------------------
 BYTE   PATT
  POIN2 Label_013CD4BE
//  #01 //036   ----------------------------------------
 BYTE   PATT
  POIN2 Label_013CD4CA
//  #01 //037   ----------------------------------------
 BYTE   PATT
  POIN2 Label_013CD4D3
//  #01 //038   ----------------------------------------
 BYTE   W12
 BYTE   N68  Ds4  v108
 BYTE   W72
 BYTE   N23
 BYTE   W12
//  #01 //039   ----------------------------------------
 BYTE   W12
 BYTE   N32  Dn4
 BYTE   W36
 BYTE   Ds4
 BYTE   W12
 BYTE   W24
 BYTE   N23  Fn4
 BYTE   W12
//  #01 //040   ----------------------------------------
 BYTE   W12
 BYTE   N44  Fs4
 BYTE   W48
 BYTE   Gs4
 BYTE   W36
//  #01 //041   ----------------------------------------
 BYTE   W12
 BYTE   As4
 BYTE   W48
 BYTE   N23  Gn4
 BYTE   W36
//  #01 //042   ----------------------------------------
 BYTE   W12
 BYTE   Gs4
 BYTE   W24
 BYTE   Fs4
 BYTE   W24
 BYTE   Fn4
 BYTE   W24
 BYTE   Ds4
 BYTE   W12
//  #01 //043   ----------------------------------------
 BYTE   W12
 BYTE   N44  Dn4
 BYTE   W48
 BYTE   Fn4
 BYTE   W36
//  #01 //044   ----------------------------------------
 BYTE   W12
 BYTE   TIE  Ds4
 BYTE   W84
//  #01 //045   ----------------------------------------
 BYTE   W12
 BYTE   W84
//  #01 //046   ----------------------------------------
 BYTE   W11
 BYTE   EOT
 BYTE   W84
 BYTE   W01
//  #01 //047   ----------------------------------------
 BYTE   W96
//  #01 //048   ----------------------------------------
 BYTE   W96
//  #01 //049   ----------------------------------------
 BYTE   W96
//  #01 //050   ----------------------------------------
 BYTE   W96
//  #01 //051   ----------------------------------------
 BYTE   W96
//  #01 //052   ----------------------------------------
 BYTE   W96
//  #01 //053   ----------------------------------------
 BYTE   W96
//  #01 //054   ----------------------------------------
 BYTE   W96
//  #01 //055   ----------------------------------------
 BYTE   W96
//  #01 //056   ----------------------------------------
 BYTE   W96
//  #01 //057   ----------------------------------------
 BYTE   W96
//  #01 //058   ----------------------------------------
 BYTE   W96
//  #01 //059   ----------------------------------------
 BYTE   W96
//  #01 //060   ----------------------------------------
 BYTE   W96
//  #01 //061   ----------------------------------------
 BYTE   W96
//  #01 //062   ----------------------------------------
 BYTE   PATT
  POIN2 Label_013CD48B
//  #01 //063   ----------------------------------------
Label_013CD58F:
 BYTE   W12
 BYTE   N44  Cn4  v108
 BYTE   W48
 BYTE   As3
 BYTE   W36
 BYTE   PEND 
//  #01 //064   ----------------------------------------
Label_013CD597:
 BYTE   W12
 BYTE   N44  As3  v108
 BYTE   W48
 BYTE   Gs3
 BYTE   W36
 BYTE   PEND 
//  #01 //065   ----------------------------------------
Label_013CD59F:
 BYTE   W12
 BYTE   N44  Gn3  v108
 BYTE   W48
 BYTE   Gs3
 BYTE   W36
 BYTE   PEND 
//  #01 //066   ----------------------------------------
 BYTE   PATT
  POIN2 Label_013CD48B
//  #01 //067   ----------------------------------------
 BYTE   PATT
  POIN2 Label_013CD58F
//  #01 //068   ----------------------------------------
 BYTE   PATT
  POIN2 Label_013CD597
//  #01 //069   ----------------------------------------
 BYTE   W12
 BYTE   N44  As3  v108
 BYTE   W48
 BYTE   Cn4
 BYTE   W36
//  #01 //070   ----------------------------------------
 BYTE   PATT
  POIN2 Label_013CD48B
//  #01 //071   ----------------------------------------
 BYTE   PATT
  POIN2 Label_013CD58F
//  #01 //072   ----------------------------------------
 BYTE   PATT
  POIN2 Label_013CD597
//  #01 //073   ----------------------------------------
 BYTE   PATT
  POIN2 Label_013CD59F
//  #01 //074   ----------------------------------------
 BYTE   W12
 BYTE   N44  Fn3  v108
 BYTE   W60
 BYTE   N11
 BYTE   W12
 BYTE   Gn3
 BYTE   W12
//  #01 //075   ----------------------------------------
 BYTE   Gs3
 BYTE   W12
 BYTE   N44  As3
 BYTE   W48
 BYTE   Cs4
 BYTE   W36
//  #01 //076   ----------------------------------------
 BYTE   W12
 BYTE   N68  Cn4
 BYTE   W72
 BYTE   N07  Cs4  v100
 BYTE   W06
 BYTE   W01
 BYTE   N04  Dn4  v088
 BYTE   W05
//  #01 //077   ----------------------------------------
 BYTE   N07  Ds4  v092
 BYTE   W06
 BYTE   W01
 BYTE   N04  En4  v100
 BYTE   W05
 BYTE   N92  Fn4  v108
 BYTE   W84
//  #01 //078   ----------------------------------------
 BYTE   W96
//  #01 //079   ----------------------------------------
 BYTE   W96
//  #01 //080   ----------------------------------------
 BYTE   W96
//  #01 //081   ----------------------------------------
 BYTE   W96
//  #01 //082   ----------------------------------------
 BYTE   W96
//  #01 //083   ----------------------------------------
 BYTE   W96
//  #01 //084   ----------------------------------------
 BYTE   W96
//  #01 //085   ----------------------------------------
 BYTE   W96
//  #01 //086   ----------------------------------------
 BYTE   W12
 BYTE   N23  Fn3
 BYTE   W24
 BYTE   Ds4
 BYTE   W24
 BYTE   Cs4
 BYTE   W24
 BYTE   Cn4
 BYTE   W12
//  #01 //087   ----------------------------------------
 BYTE   W12
 BYTE   N44  Cs4
 BYTE   W48
 BYTE   As3
 BYTE   W36
//  #01 //088   ----------------------------------------
 BYTE   W12
 BYTE   N23  Fn3
 BYTE   W24
 BYTE   Fn4
 BYTE   W24
 BYTE   Ds4
 BYTE   W24
 BYTE   Cs4
 BYTE   W12
//  #01 //089   ----------------------------------------
 BYTE   W12
 BYTE   N44  Ds4
 BYTE   W48
 BYTE   As3
 BYTE   W36
//  #01 //090   ----------------------------------------
 BYTE   W12
 BYTE   TIE  Cs4
 BYTE   W84
//  #01 //091   ----------------------------------------
 BYTE   W12
 BYTE   W23
 BYTE   EOT
 BYTE   W01
 BYTE   N23  As3
 BYTE   W24
 BYTE   Cn4
 BYTE   W24
 BYTE   Cs4
 BYTE   W12
//  #01 //092   ----------------------------------------
 BYTE   W12
 BYTE   N92  Cn4
 BYTE   W84
//  #01 //093   ----------------------------------------
 BYTE   W12
 BYTE   An4
 BYTE   W84
//  #01 //094   ----------------------------------------
 BYTE   W12
 BYTE   TIE  As4
 BYTE   W84
//  #01 //095   ----------------------------------------
 BYTE   W12
 BYTE   W84
//  #01 //096   ----------------------------------------
 BYTE   W11
 BYTE   EOT
 BYTE   W84
 BYTE   W01
//  #01 //097   ----------------------------------------
 BYTE   W96
//  #01 //098   ----------------------------------------
 BYTE   W96
//  #01 //099   ----------------------------------------
 BYTE   W96
//  #01 //100   ----------------------------------------
 BYTE   W96
//  #01 //101   ----------------------------------------
 BYTE   W96
//  #01 //102   ----------------------------------------
 BYTE   W96
//  #01 //103   ----------------------------------------
 BYTE   W84
 BYTE   GoTo
  POIN2 Label_013CD48A
 BYTE   FINE

//**************** Track 2 (Midi-Chn.1) ****************//

Daughter_of_the_Dark_God_Song_002:
//  #02 //000   ----------------------------------------
 BYTE   KEYSH   Daughter_of_the_Dark_God_Song_key+0
 BYTE   VOICE   35
 BYTE   MODT 0
 BYTE   LFOS 44
 BYTE   BENDR  12
 BYTE   VOL   50*Daughter_of_the_Dark_God_Song_mvl/mxv
 BYTE   PAN   c_v+0
 BYTE   BENDR  12
 BYTE   VOL   50*Daughter_of_the_Dark_God_Song_mvl/mxv
 BYTE   PAN   c_v+0
 BYTE   BENDR  12
 BYTE   VOL   50*Daughter_of_the_Dark_God_Song_mvl/mxv
 BYTE   PAN   c_v+0
 BYTE   N11  Fn0  v064
 BYTE   W12
 BYTE   TIE  Cn1  v084
 BYTE   W84
//  #02 //001   ----------------------------------------
 BYTE   W32
 BYTE   W03
 BYTE   EOT
 BYTE   W01
 BYTE   N23  Gn0
 BYTE   W24
 BYTE   Cn1
 BYTE   W24
 BYTE   Gn0
 BYTE   W12
//  #02 //002   ----------------------------------------
 BYTE   W12
 BYTE   N92  Fn0
 BYTE   W84
//  #02 //003   ----------------------------------------
Label_013CD695:
 BYTE   W12
 BYTE   N11  Fn0  v080
 BYTE   W12
 BYTE   Fn0  v064
 BYTE   W12
 BYTE   Fn0  v080
 BYTE   W12
 BYTE   Fn0  v064
 BYTE   W12
 BYTE   Fn0  v080
 BYTE   W12
 BYTE   Fn0  v064
 BYTE   W12
 BYTE   Fn0  v080
 BYTE   W12
 BYTE   PEND 
//  #02 //004   ----------------------------------------
Label_013CD6AD:
 BYTE   N11  Fn0  v064
 BYTE   W12
 BYTE   As0  v080
 BYTE   W12
 BYTE   As0  v064
 BYTE   W12
 BYTE   As0  v080
 BYTE   W12
 BYTE   As0  v064
 BYTE   W12
 BYTE   As0  v080
 BYTE   W12
 BYTE   As0  v064
 BYTE   W12
 BYTE   As0  v080
 BYTE   W12
 BYTE   PEND 
//  #02 //005   ----------------------------------------
Label_013CD6C7:
 BYTE   N11  As0  v064
 BYTE   W12
 BYTE   As0  v080
 BYTE   W12
 BYTE   As0  v064
 BYTE   W12
 BYTE   As0  v080
 BYTE   W12
 BYTE   As0  v064
 BYTE   W12
 BYTE   As0  v080
 BYTE   W12
 BYTE   As0  v064
 BYTE   W12
 BYTE   As0  v080
 BYTE   W12
 BYTE   PEND 
//  #02 //006   ----------------------------------------
 BYTE   PATT
  POIN2 Label_013CD6C7
//  #02 //007   ----------------------------------------
 BYTE   PATT
  POIN2 Label_013CD6C7
//  #02 //008   ----------------------------------------
 BYTE   PATT
  POIN2 Label_013CD6C7
//  #02 //009   ----------------------------------------
 BYTE   PATT
  POIN2 Label_013CD6C7
//  #02 //010   ----------------------------------------
 BYTE   PATT
  POIN2 Label_013CD6C7
//  #02 //011   ----------------------------------------
Label_013CD6FA:
 BYTE   N23  Cs1  v084
 BYTE   W24
 BYTE   N11  Bn0
 BYTE   W12
 BYTE   As0
 BYTE   W12
 BYTE   Bn0
 BYTE   W12
 BYTE   N23  Fs0
 BYTE   W24
 BYTE   Gs0
 BYTE   W12
 BYTE   PEND 
//  #02 //012   ----------------------------------------
Label_013CD70B:
 BYTE   W24
 BYTE   N11  Ds0  v084
 BYTE   W12
 BYTE   Gs0
 BYTE   W12
 BYTE   Cs1
 BYTE   W12
 BYTE   En1
 BYTE   W12
 BYTE   Bn0
 BYTE   W12
 BYTE   Fs0
 BYTE   W12
 BYTE   PEND 
//  #02 //013   ----------------------------------------
Label_013CD71B:
 BYTE   N11  An0  v084
 BYTE   W12
 BYTE   Dn1
 BYTE   W12
 BYTE   Gn1
 BYTE   W12
 BYTE   As1
 BYTE   W12
 BYTE   Fn1
 BYTE   W12
 BYTE   Cn1
 BYTE   W12
 BYTE   Ds1
 BYTE   W12
 BYTE   PEND 
Label_013CD72C:
 BYTE   N11  Gs0  v084
 BYTE   W12
//  #02 //014   ----------------------------------------
 BYTE   Cs1
 BYTE   W12
 BYTE   As0  v080
 BYTE   W12
 BYTE   As0  v064
 BYTE   W12
 BYTE   As0  v080
 BYTE   W12
 BYTE   As0  v064
 BYTE   W12
 BYTE   As0  v080
 BYTE   W12
 BYTE   As0  v064
 BYTE   W12
 BYTE   As0  v080
 BYTE   W12
//  #02 //015   ----------------------------------------
 BYTE   PATT
  POIN2 Label_013CD6C7
//  #02 //016   ----------------------------------------
 BYTE   PATT
  POIN2 Label_013CD6C7
//  #02 //017   ----------------------------------------
 BYTE   PATT
  POIN2 Label_013CD6C7
//  #02 //018   ----------------------------------------
Label_013CD756:
 BYTE   N11  As0  v064
 BYTE   W12
 BYTE   Gs0  v080
 BYTE   W12
 BYTE   Gs0  v064
 BYTE   W12
 BYTE   Gs0  v080
 BYTE   W12
 BYTE   Gs0  v064
 BYTE   W12
 BYTE   Gs0  v080
 BYTE   W12
 BYTE   Gs0  v064
 BYTE   W12
 BYTE   Gs0  v080
 BYTE   W12
 BYTE   PEND 
//  #02 //019   ----------------------------------------
Label_013CD770:
 BYTE   N11  Gs0  v064
 BYTE   W12
 BYTE   Gs0  v080
 BYTE   W12
 BYTE   Gs0  v064
 BYTE   W12
 BYTE   Gs0  v080
 BYTE   W12
 BYTE   Gs0  v064
 BYTE   W12
 BYTE   Gs0  v080
 BYTE   W12
 BYTE   Gs0  v064
 BYTE   W12
 BYTE   Gs0  v080
 BYTE   W12
 BYTE   PEND 
//  #02 //020   ----------------------------------------
Label_013CD78A:
 BYTE   N11  Gs0  v064
 BYTE   W12
 BYTE   Fs0  v080
 BYTE   W12
 BYTE   Fs0  v064
 BYTE   W12
 BYTE   Fs0  v080
 BYTE   W12
 BYTE   Fs0  v064
 BYTE   W12
 BYTE   Fs0  v080
 BYTE   W12
 BYTE   Fs0  v064
 BYTE   W12
 BYTE   Fs0  v080
 BYTE   W12
 BYTE   PEND 
//  #02 //021   ----------------------------------------
Label_013CD7A4:
 BYTE   N11  Fs0  v064
 BYTE   W12
 BYTE   Fs0  v080
 BYTE   W12
 BYTE   Fs0  v064
 BYTE   W12
 BYTE   Fs0  v080
 BYTE   W12
 BYTE   Fs0  v064
 BYTE   W12
 BYTE   Fs0  v080
 BYTE   W12
 BYTE   Fs0  v064
 BYTE   W12
 BYTE   Fs0  v080
 BYTE   W12
 BYTE   PEND 
//  #02 //022   ----------------------------------------
 BYTE   Fs0  v064
 BYTE   W12
 BYTE   Cn1  v080
 BYTE   W12
 BYTE   Cn1  v064
 BYTE   W12
 BYTE   Cn1  v080
 BYTE   W12
 BYTE   Cn1  v064
 BYTE   W12
 BYTE   Cn1  v080
 BYTE   W12
 BYTE   Cn1  v064
 BYTE   W12
 BYTE   Cn1  v080
 BYTE   W12
//  #02 //023   ----------------------------------------
Label_013CD7D6:
 BYTE   N11  Cn1  v064
 BYTE   W12
 BYTE   Fn0  v080
 BYTE   W12
 BYTE   Fn0  v064
 BYTE   W12
 BYTE   Fn0  v080
 BYTE   W12
 BYTE   Fn0  v064
 BYTE   W12
 BYTE   Fn0  v080
 BYTE   W12
 BYTE   Fn0  v064
 BYTE   W12
 BYTE   Fn0  v080
 BYTE   W12
 BYTE   PEND 
//  #02 //024   ----------------------------------------
 BYTE   PATT
  POIN2 Label_013CD6AD
//  #02 //025   ----------------------------------------
 BYTE   PATT
  POIN2 Label_013CD756
//  #02 //026   ----------------------------------------
 BYTE   N11  Gs0  v064
 BYTE   W12
 BYTE   Gn0  v080
 BYTE   W12
 BYTE   Gn0  v064
 BYTE   W12
 BYTE   Gn0  v080
 BYTE   W12
 BYTE   Gn0  v064
 BYTE   W12
 BYTE   Gn0  v080
 BYTE   W12
 BYTE   Gn0  v064
 BYTE   W12
 BYTE   Gn0  v080
 BYTE   W12
//  #02 //027   ----------------------------------------
 BYTE   Gn0  v064
 BYTE   W12
 BYTE   Cn1  v080
 BYTE   W12
 BYTE   Cn1  v064
 BYTE   W12
 BYTE   Cn1  v080
 BYTE   W12
 BYTE   Cn1  v064
 BYTE   W12
 BYTE   Cn1  v080
 BYTE   W12
 BYTE   Cn1  v064
 BYTE   W12
 BYTE   Cn1  v080
 BYTE   W12
//  #02 //028   ----------------------------------------
 BYTE   PATT
  POIN2 Label_013CD7D6
//  #02 //029   ----------------------------------------
 BYTE   N11  Fn0  v064
 BYTE   W12
 BYTE   N32  Fn0  v084
 BYTE   W36
 BYTE   Gn0
 BYTE   W36
 BYTE   N23  An0
 BYTE   W12
//  #02 //030   ----------------------------------------
Label_013CD83D:
 BYTE   W12
 BYTE   N11  As0  v080
 BYTE   W12
 BYTE   As0  v064
 BYTE   W12
 BYTE   As0  v080
 BYTE   W12
 BYTE   As0  v064
 BYTE   W12
 BYTE   As0  v080
 BYTE   W12
 BYTE   As0  v064
 BYTE   W12
 BYTE   As0  v080
 BYTE   W12
 BYTE   PEND 
//  #02 //031   ----------------------------------------
 BYTE   PATT
  POIN2 Label_013CD6C7
//  #02 //032   ----------------------------------------
 BYTE   PATT
  POIN2 Label_013CD6C7
//  #02 //033   ----------------------------------------
 BYTE   PATT
  POIN2 Label_013CD6C7
//  #02 //034   ----------------------------------------
 BYTE   PATT
  POIN2 Label_013CD756
//  #02 //035   ----------------------------------------
 BYTE   PATT
  POIN2 Label_013CD770
//  #02 //036   ----------------------------------------
 BYTE   PATT
  POIN2 Label_013CD78A
//  #02 //037   ----------------------------------------
 BYTE   PATT
  POIN2 Label_013CD7A4
//  #02 //038   ----------------------------------------
 BYTE   N11  Fs0  v064
 BYTE   W12
 BYTE   Fn0  v080
 BYTE   W12
 BYTE   Fn0  v064
 BYTE   W12
 BYTE   Fn0  v080
 BYTE   W12
 BYTE   Fn0  v064
 BYTE   W12
 BYTE   Fn0  v080
 BYTE   W12
 BYTE   Fn0  v064
 BYTE   W12
 BYTE   Fn0  v080
 BYTE   W12
//  #02 //039   ----------------------------------------
 BYTE   PATT
  POIN2 Label_013CD6AD
//  #02 //040   ----------------------------------------
 BYTE   N11  As0  v064
 BYTE   W12
 BYTE   Ds0  v080
 BYTE   W12
 BYTE   Ds0  v064
 BYTE   W12
 BYTE   Ds0  v080
 BYTE   W12
 BYTE   Ds0  v064
 BYTE   W12
 BYTE   Fn0  v080
 BYTE   W12
 BYTE   Fn0  v064
 BYTE   W12
 BYTE   Fn0  v080
 BYTE   W12
//  #02 //041   ----------------------------------------
 BYTE   Fn0  v064
 BYTE   W12
 BYTE   Fs0  v080
 BYTE   W12
 BYTE   Fs0  v064
 BYTE   W12
 BYTE   Fs0  v080
 BYTE   W12
 BYTE   Fs0  v064
 BYTE   W12
 BYTE   Gn0  v080
 BYTE   W12
 BYTE   Gn0  v064
 BYTE   W12
 BYTE   Gn0  v080
 BYTE   W12
//  #02 //042   ----------------------------------------
 BYTE   Gn0  v064
 BYTE   W12
 BYTE   Gs0  v080
 BYTE   W12
 BYTE   Gs0  v064
 BYTE   W12
 BYTE   Gs0  v080
 BYTE   W12
 BYTE   Gs0  v064
 BYTE   W12
 BYTE   Gs0  v080
 BYTE   W12
 BYTE   Gs0  v064
 BYTE   W12
 BYTE   Gs0  v080
 BYTE   W12
//  #02 //043   ----------------------------------------
 BYTE   Gs0  v064
 BYTE   W12
 BYTE   As0  v080
 BYTE   W12
 BYTE   As0  v064
 BYTE   W12
 BYTE   As0  v080
 BYTE   W12
 BYTE   As0  v064
 BYTE   W12
 BYTE   As0  v080
 BYTE   W12
 BYTE   As0  v064
 BYTE   W12
 BYTE   As0  v080
 BYTE   W12
//  #02 //044   ----------------------------------------
Label_013CD8F7:
 BYTE   N11  As0  v064
 BYTE   W12
 BYTE   N23  Ds0  v084
 BYTE   W84
 BYTE   PEND 
//  #02 //045   ----------------------------------------
 BYTE   W72
 BYTE   N11  Ds1  v064
 BYTE   W12
 BYTE   As0
 BYTE   W12
//  #02 //046   ----------------------------------------
 BYTE   PATT
  POIN2 Label_013CD8F7
//  #02 //047   ----------------------------------------
 BYTE   W96
//  #02 //048   ----------------------------------------
 BYTE   W12
 BYTE   N11  Ds0  v080
 BYTE   W12
 BYTE   Ds0  v064
 BYTE   W12
 BYTE   Ds0  v080
 BYTE   W12
 BYTE   Ds0  v064
 BYTE   W12
 BYTE   Ds0  v080
 BYTE   W12
 BYTE   Ds0  v064
 BYTE   W12
 BYTE   Ds0  v080
 BYTE   W12
//  #02 //049   ----------------------------------------
Label_013CD924:
 BYTE   N11  Ds0  v064
 BYTE   W12
 BYTE   Ds0  v080
 BYTE   W12
 BYTE   Ds0  v064
 BYTE   W12
 BYTE   Ds0  v080
 BYTE   W12
 BYTE   Ds0  v064
 BYTE   W12
 BYTE   Ds0  v080
 BYTE   W12
 BYTE   Ds0  v064
 BYTE   W12
 BYTE   Ds0  v080
 BYTE   W12
 BYTE   PEND 
//  #02 //050   ----------------------------------------
 BYTE   PATT
  POIN2 Label_013CD924
//  #02 //051   ----------------------------------------
 BYTE   PATT
  POIN2 Label_013CD924
//  #02 //052   ----------------------------------------
 BYTE   N11  Ds0  v064
 BYTE   W12
 BYTE   N23  Fn0  v084
 BYTE   W84
//  #02 //053   ----------------------------------------
 BYTE   W72
 BYTE   N11  Fn1  v064
 BYTE   W12
 BYTE   Cn1
 BYTE   W12
//  #02 //054   ----------------------------------------
 BYTE   N11
 BYTE   W12
 BYTE   N23  Fn0  v084
 BYTE   W84
//  #02 //055   ----------------------------------------
 BYTE   W96
//  #02 //056   ----------------------------------------
 BYTE   PATT
  POIN2 Label_013CD695
//  #02 //057   ----------------------------------------
Label_013CD963:
 BYTE   N11  Fn0  v064
 BYTE   W12
 BYTE   Fn0  v080
 BYTE   W12
 BYTE   Fn0  v064
 BYTE   W12
 BYTE   Fn0  v080
 BYTE   W12
 BYTE   Fn0  v064
 BYTE   W12
 BYTE   Fn0  v080
 BYTE   W12
 BYTE   Fn0  v064
 BYTE   W12
 BYTE   Fn0  v080
 BYTE   W12
 BYTE   PEND 
//  #02 //058   ----------------------------------------
 BYTE   PATT
  POIN2 Label_013CD963
//  #02 //059   ----------------------------------------
 BYTE   PATT
  POIN2 Label_013CD963
//  #02 //060   ----------------------------------------
 BYTE   N11  Fn0  v064
 BYTE   W12
 BYTE   N23  Fn0  v084
 BYTE   W24
 BYTE   En0
 BYTE   W24
 BYTE   Fn0
 BYTE   W24
 BYTE   Gn0
 BYTE   W12
//  #02 //061   ----------------------------------------
 BYTE   W12
 BYTE   Gs0
 BYTE   W24
 BYTE   Gn0
 BYTE   W24
 BYTE   Gs0
 BYTE   W24
 BYTE   An0
 BYTE   W12
//  #02 //062   ----------------------------------------
 BYTE   W12
 BYTE   N56  As0
 BYTE   W60
 BYTE   N11  Fn0
 BYTE   W12
 BYTE   As0
 BYTE   W12
//  #02 //063   ----------------------------------------
 BYTE   Bn0
 BYTE   W12
 BYTE   N32  Cn1
 BYTE   W36
 BYTE   N23  Gn0
 BYTE   W24
 BYTE   N11
 BYTE   W12
 BYTE   Cn1
 BYTE   W12
//  #02 //064   ----------------------------------------
 BYTE   Gn0
 BYTE   W12
 BYTE   N32  Fn0
 BYTE   W36
 BYTE   Cn1
 BYTE   W36
 BYTE   N23  Fn1
 BYTE   W12
//  #02 //065   ----------------------------------------
 BYTE   W12
 BYTE   N32  Ds1
 BYTE   W36
 BYTE   Cn1
 BYTE   W36
 BYTE   N23  Ds1
 BYTE   W12
//  #02 //066   ----------------------------------------
 BYTE   W12
 BYTE   N32  Cs1
 BYTE   W36
 BYTE   Gs0
 BYTE   W36
 BYTE   N23  Cs1
 BYTE   W12
//  #02 //067   ----------------------------------------
 BYTE   W12
 BYTE   N32  Cn1
 BYTE   W36
 BYTE   N23  Gn0
 BYTE   W24
 BYTE   N11  Cn1
 BYTE   W12
 BYTE   Gn0
 BYTE   W12
//  #02 //068   ----------------------------------------
 BYTE   Fs0
 BYTE   W12
 BYTE   N32  Fn0
 BYTE   W36
 BYTE   N11  Cn1
 BYTE   W24
 BYTE   Fn0
 BYTE   W12
 BYTE   N23
 BYTE   W12
//  #02 //069   ----------------------------------------
 BYTE   W12
 BYTE   N32
 BYTE   W36
 BYTE   Cn1
 BYTE   W36
 BYTE   N23  Fn1
 BYTE   W12
//  #02 //070   ----------------------------------------
 BYTE   W12
 BYTE   N11  As0  v080
 BYTE   W12
 BYTE   As0  v064
 BYTE   W12
 BYTE   As0  v080
 BYTE   W12
 BYTE   As0  v064
 BYTE   W12
 BYTE   As0  v080
 BYTE   W12
 BYTE   Fn0  v072
 BYTE   W12
 BYTE   As0  v084
 BYTE   W12
//  #02 //071   ----------------------------------------
 BYTE   Bn0  v072
 BYTE   W12
 BYTE   Cn1  v080
 BYTE   W12
 BYTE   Cn1  v064
 BYTE   W12
 BYTE   Cn1  v080
 BYTE   W12
 BYTE   Cn1  v064
 BYTE   W12
 BYTE   Cn1  v080
 BYTE   W12
 BYTE   Cn1  v064
 BYTE   W12
 BYTE   Gn1  v080
 BYTE   W12
//  #02 //072   ----------------------------------------
 BYTE   Gn1  v064
 BYTE   W12
 BYTE   Fn1  v080
 BYTE   W12
 BYTE   Fn1  v064
 BYTE   W12
 BYTE   Fn1  v080
 BYTE   W12
 BYTE   Fn1  v064
 BYTE   W12
 BYTE   Fn1  v080
 BYTE   W12
 BYTE   Fn1  v064
 BYTE   W12
 BYTE   Fn1  v080
 BYTE   W12
//  #02 //073   ----------------------------------------
 BYTE   Fn1  v064
 BYTE   W12
 BYTE   Ds1  v080
 BYTE   W12
 BYTE   Ds1  v064
 BYTE   W12
 BYTE   Ds1  v080
 BYTE   W12
 BYTE   Ds1  v064
 BYTE   W12
 BYTE   Ds1  v080
 BYTE   W12
 BYTE   Ds1  v064
 BYTE   W12
 BYTE   Ds1  v080
 BYTE   W12
//  #02 //074   ----------------------------------------
 BYTE   Ds1  v064
 BYTE   W12
 BYTE   N56  Cs1  v084
 BYTE   W60
 BYTE   N11
 BYTE   W12
 BYTE   Gs0
 BYTE   W12
//  #02 //075   ----------------------------------------
 BYTE   Gn0
 BYTE   W12
 BYTE   N32  Fs0
 BYTE   W36
 BYTE   Cs1
 BYTE   W36
 BYTE   N23  Fs0
 BYTE   W12
//  #02 //076   ----------------------------------------
 BYTE   W12
 BYTE   N32  Fn0
 BYTE   W36
 BYTE   Cn1
 BYTE   W36
 BYTE   N23  Gn1
 BYTE   W12
//  #02 //077   ----------------------------------------
 BYTE   W12
 BYTE   N32  Fn1
 BYTE   W36
 BYTE   N32
 BYTE   W36
 BYTE   N23  Cn1
 BYTE   W12
//  #02 //078   ----------------------------------------
 BYTE   PATT
  POIN2 Label_013CD83D
//  #02 //079   ----------------------------------------
Label_013CDA7A:
 BYTE   N11  As0  v064
 BYTE   W12
 BYTE   Fs0  v080
 BYTE   W12
 BYTE   Fs0  v064
 BYTE   W12
 BYTE   Fs0  v080
 BYTE   W12
 BYTE   Fs0  v064
 BYTE   W12
 BYTE   Fs0  v080
 BYTE   W12
 BYTE   Fs0  v064
 BYTE   W12
 BYTE   Fs0  v080
 BYTE   W12
 BYTE   PEND 
//  #02 //080   ----------------------------------------
Label_013CDA94:
 BYTE   N11  Fs0  v064
 BYTE   W12
 BYTE   Cs1  v080
 BYTE   W12
 BYTE   Cs1  v064
 BYTE   W12
 BYTE   Cs1  v080
 BYTE   W12
 BYTE   Cs1  v064
 BYTE   W12
 BYTE   Cs1  v080
 BYTE   W12
 BYTE   Cs1  v064
 BYTE   W12
 BYTE   Cs1  v080
 BYTE   W12
 BYTE   PEND 
//  #02 //081   ----------------------------------------
 BYTE   Cs1  v064
 BYTE   W12
 BYTE   Cn1  v080
 BYTE   W12
 BYTE   Cn1  v064
 BYTE   W12
 BYTE   Cn1  v080
 BYTE   W12
 BYTE   Cn1  v064
 BYTE   W12
 BYTE   Cn1  v080
 BYTE   W12
 BYTE   Cn1  v064
 BYTE   W12
 BYTE   Cn1  v080
 BYTE   W12
//  #02 //082   ----------------------------------------
 BYTE   Cn1  v064
 BYTE   W12
 BYTE   As0  v080
 BYTE   W12
 BYTE   As0  v064
 BYTE   W12
 BYTE   As0  v080
 BYTE   W12
 BYTE   As0  v064
 BYTE   W12
 BYTE   As0  v080
 BYTE   W12
 BYTE   As0  v064
 BYTE   W12
 BYTE   As0  v080
 BYTE   W12
//  #02 //083   ----------------------------------------
 BYTE   PATT
  POIN2 Label_013CDA7A
//  #02 //084   ----------------------------------------
 BYTE   N11  Fs0  v064
 BYTE   W12
 BYTE   Ds1  v080
 BYTE   W12
 BYTE   Ds1  v064
 BYTE   W12
 BYTE   Ds1  v080
 BYTE   W12
 BYTE   Ds1  v064
 BYTE   W12
 BYTE   Ds1  v080
 BYTE   W12
 BYTE   Ds1  v064
 BYTE   W12
 BYTE   Ds1  v080
 BYTE   W12
//  #02 //085   ----------------------------------------
 BYTE   Ds1  v064
 BYTE   W12
 BYTE   Fn1  v080
 BYTE   W12
 BYTE   Fn1  v064
 BYTE   W12
 BYTE   Fn1  v080
 BYTE   W12
 BYTE   Fn1  v064
 BYTE   W12
 BYTE   Fn1  v080
 BYTE   W12
 BYTE   Fn1  v064
 BYTE   W12
 BYTE   Fn1  v080
 BYTE   W12
//  #02 //086   ----------------------------------------
 BYTE   Fn1  v064
 BYTE   W12
 BYTE   As0  v080
 BYTE   W12
 BYTE   As0  v064
 BYTE   W12
 BYTE   As0  v080
 BYTE   W12
 BYTE   As0  v064
 BYTE   W12
 BYTE   As0  v080
 BYTE   W12
 BYTE   As0  v064
 BYTE   W12
 BYTE   As0  v080
 BYTE   W12
//  #02 //087   ----------------------------------------
 BYTE   PATT
  POIN2 Label_013CDA7A
//  #02 //088   ----------------------------------------
 BYTE   PATT
  POIN2 Label_013CDA94
//  #02 //089   ----------------------------------------
 BYTE   N11  Cs1  v064
 BYTE   W12
 BYTE   Ds1  v080
 BYTE   W12
 BYTE   Ds1  v064
 BYTE   W12
 BYTE   Ds1  v080
 BYTE   W12
 BYTE   Ds1  v064
 BYTE   W12
 BYTE   Ds1  v080
 BYTE   W12
 BYTE   Ds1  v064
 BYTE   W12
 BYTE   Ds1  v080
 BYTE   W12
//  #02 //090   ----------------------------------------
 BYTE   Ds1  v064
 BYTE   W12
 BYTE   N23  Fs0  v084
 BYTE   W24
 BYTE   N32
 BYTE   W36
 BYTE   N11
 BYTE   W12
 BYTE   Cs1
 BYTE   W12
//  #02 //091   ----------------------------------------
 BYTE   N23  Gs1
 BYTE   W24
 BYTE   Fs1
 BYTE   W24
 BYTE   Cs1
 BYTE   W24
 BYTE   N11  Fs0
 BYTE   W12
 BYTE   N23
 BYTE   W12
//  #02 //092   ----------------------------------------
 BYTE   W12
 BYTE   N11  Gs0
 BYTE   W12
 BYTE   Gs0  v064
 BYTE   W12
 BYTE   Gs0  v080
 BYTE   W12
 BYTE   Gs0  v064
 BYTE   W12
 BYTE   Gs0  v080
 BYTE   W12
 BYTE   Gs0  v064
 BYTE   W12
 BYTE   Gs0  v080
 BYTE   W12
//  #02 //093   ----------------------------------------
 BYTE   Gs0  v064
 BYTE   W12
 BYTE   Fn0  v080
 BYTE   W12
 BYTE   Fn0  v064
 BYTE   W12
 BYTE   Fn0  v080
 BYTE   W12
 BYTE   Fn0  v064
 BYTE   W12
 BYTE   Fn0  v080
 BYTE   W12
 BYTE   Fn0  v064
 BYTE   W12
 BYTE   Fn0  v080
 BYTE   W12
//  #02 //094   ----------------------------------------
 BYTE   PATT
  POIN2 Label_013CD6AD
//  #02 //095   ----------------------------------------
 BYTE   PATT
  POIN2 Label_013CD6C7
//  #02 //096   ----------------------------------------
 BYTE   PATT
  POIN2 Label_013CD6C7
//  #02 //097   ----------------------------------------
 BYTE   PATT
  POIN2 Label_013CD6C7
//  #02 //098   ----------------------------------------
 BYTE   PATT
  POIN2 Label_013CD6C7
//  #02 //099   ----------------------------------------
 BYTE   PATT
  POIN2 Label_013CD6C7
//  #02 //100   ----------------------------------------
 BYTE   PATT
  POIN2 Label_013CD6C7
//  #02 //101   ----------------------------------------
 BYTE   PATT
  POIN2 Label_013CD6FA
//  #02 //102   ----------------------------------------
 BYTE   PATT
  POIN2 Label_013CD70B
//  #02 //103   ----------------------------------------
 BYTE   PATT
  POIN2 Label_013CD71B
//  #02 //104   ----------------------------------------
 BYTE   GoTo
  POIN2 Label_013CD72C
//  #02 //105   ----------------------------------------
 BYTE   N11  Gs0  v084
 BYTE   W12
 BYTE   Cs1
 BYTE   W36
 BYTE   TIE  As0
 BYTE   W60
//  #02 //106   ----------------------------------------
 BYTE   W96
//  #02 //107   ----------------------------------------
 BYTE   W11
 BYTE   EOT
 BYTE   FINE

//**************** Track 3 (Midi-Chn.2) ****************//

Daughter_of_the_Dark_God_Song_003:
//  #03 //000   ----------------------------------------
 BYTE   KEYSH   Daughter_of_the_Dark_God_Song_key+0
 BYTE   VOICE   67
 BYTE   MODT 0
 BYTE   LFOS 44
 BYTE   BENDR  12
 BYTE   VOL   50*Daughter_of_the_Dark_God_Song_mvl/mxv
 BYTE   PAN   c_v+0
 BYTE   BENDR  12
 BYTE   VOL   50*Daughter_of_the_Dark_God_Song_mvl/mxv
 BYTE   PAN   c_v+0
 BYTE   BENDR  12
 BYTE   VOL   50*Daughter_of_the_Dark_God_Song_mvl/mxv
 BYTE   PAN   c_v+0
 BYTE   W12
 BYTE   N44  Fs3  v064
 BYTE   W48
 BYTE   Fn3
 BYTE   W36
//  #03 //001   ----------------------------------------
 BYTE   W12
 BYTE   Ds3
 BYTE   W48
 BYTE   Cs3
 BYTE   W36
//  #03 //002   ----------------------------------------
 BYTE   W12
 BYTE   Cn3
 BYTE   W48
 BYTE   As2
 BYTE   W36
//  #03 //003   ----------------------------------------
 BYTE   W12
 BYTE   N23  An2
 BYTE   W24
 BYTE   As2
 BYTE   W24
 BYTE   Cn3
 BYTE   W24
 BYTE   Ds3
 BYTE   W12
//  #03 //004   ----------------------------------------
Label_013CDC21:
 BYTE   W24
 BYTE   N11  Fn3  v064
 BYTE   W12
 BYTE   N23
 BYTE   W24
 BYTE   N11
 BYTE   W12
 BYTE   N11
 BYTE   W24
 BYTE   PEND 
//  #03 //005   ----------------------------------------
Label_013CDC2D:
 BYTE   TIE  Ds3  v064
 BYTE   W12
 BYTE   W84
 BYTE   PEND 
//  #03 //006   ----------------------------------------
 BYTE   W11
 BYTE   EOT
 BYTE   W13
 BYTE   N11  Fn3
 BYTE   W12
 BYTE   N23
 BYTE   W24
 BYTE   N11
 BYTE   W12
 BYTE   N11
 BYTE   W24
//  #03 //007   ----------------------------------------
Label_013CDC3F:
 BYTE   TIE  Fs3  v064
 BYTE   W12
 BYTE   W84
 BYTE   PEND 
//  #03 //008   ----------------------------------------
 BYTE   W11
 BYTE   EOT
 BYTE   W13
 BYTE   N11  Fn3
 BYTE   W12
 BYTE   N23
 BYTE   W24
 BYTE   N11
 BYTE   W12
 BYTE   N11
 BYTE   W24
//  #03 //009   ----------------------------------------
 BYTE   PATT
  POIN2 Label_013CDC2D
//  #03 //010   ----------------------------------------
 BYTE   W11
 BYTE   EOT
 BYTE   Ds3
 BYTE   W13
 BYTE   N11  Fn3  v064
 BYTE   W12
 BYTE   N23
 BYTE   W24
 BYTE   N11
 BYTE   W12
 BYTE   N11
 BYTE   W24
//  #03 //011   ----------------------------------------
Label_013CDC64:
 BYTE   N23  Cs3  v064
 BYTE   W12
 BYTE   W12
 BYTE   N11  Bn2
 BYTE   W12
 BYTE   As2
 BYTE   W12
 BYTE   Bn2
 BYTE   W12
 BYTE   N23  Fs2
 BYTE   W24
 BYTE   Gs2
 BYTE   W12
 BYTE   PEND 
//  #03 //012   ----------------------------------------
 BYTE   W96
//  #03 //013   ----------------------------------------
 BYTE   W84
Label_013CDC78:
 BYTE   W12
//  #03 //014   ----------------------------------------
 BYTE   W96
//  #03 //015   ----------------------------------------
 BYTE   W96
//  #03 //016   ----------------------------------------
 BYTE   W96
//  #03 //017   ----------------------------------------
 BYTE   W96
//  #03 //018   ----------------------------------------
 BYTE   W96
//  #03 //019   ----------------------------------------
 BYTE   W96
//  #03 //020   ----------------------------------------
 BYTE   W96
//  #03 //021   ----------------------------------------
 BYTE   W96
//  #03 //022   ----------------------------------------
 BYTE   W12
 BYTE   N11  As2  v072
 BYTE   W12
 BYTE   As2  v044
 BYTE   W12
 BYTE   N11
 BYTE   W12
 BYTE   N11
 BYTE   W12
 BYTE   As2  v072
 BYTE   W12
 BYTE   As2  v044
 BYTE   W12
 BYTE   N11
 BYTE   W12
//  #03 //023   ----------------------------------------
 BYTE   N11
 BYTE   W12
 BYTE   An2  v072
 BYTE   W12
 BYTE   An2  v044
 BYTE   W12
 BYTE   N11
 BYTE   W12
 BYTE   N11
 BYTE   W12
 BYTE   An2  v072
 BYTE   W12
 BYTE   An2  v044
 BYTE   W12
 BYTE   N11
 BYTE   W12
//  #03 //024   ----------------------------------------
 BYTE   N11
 BYTE   W12
 BYTE   As2  v072
 BYTE   W12
 BYTE   As2  v044
 BYTE   W12
 BYTE   N11
 BYTE   W12
 BYTE   As2  v072
 BYTE   W12
 BYTE   As2  v044
 BYTE   W12
 BYTE   N11
 BYTE   W12
 BYTE   As2  v072
 BYTE   W12
//  #03 //025   ----------------------------------------
 BYTE   As2  v044
 BYTE   W12
 BYTE   Cs3  v072
 BYTE   W12
 BYTE   Cs3  v044
 BYTE   W12
 BYTE   N11
 BYTE   W12
 BYTE   Cs3  v072
 BYTE   W12
 BYTE   Cs3  v044
 BYTE   W12
 BYTE   N11
 BYTE   W12
 BYTE   Cs3  v072
 BYTE   W12
//  #03 //026   ----------------------------------------
 BYTE   Cs3  v044
 BYTE   W12
 BYTE   Cs3  v072
 BYTE   W12
 BYTE   Cs3  v044
 BYTE   W12
 BYTE   N11
 BYTE   W12
 BYTE   N11
 BYTE   W12
 BYTE   Cs3  v072
 BYTE   W12
 BYTE   Cs3  v044
 BYTE   W12
 BYTE   N11
 BYTE   W12
//  #03 //027   ----------------------------------------
 BYTE   N11
 BYTE   W12
 BYTE   Cn3  v072
 BYTE   W12
 BYTE   Cn3  v044
 BYTE   W12
 BYTE   N11
 BYTE   W12
 BYTE   Cn3  v072
 BYTE   W12
 BYTE   Cn3  v044
 BYTE   W12
 BYTE   N11
 BYTE   W12
 BYTE   Cn3  v072
 BYTE   W12
//  #03 //028   ----------------------------------------
 BYTE   Cn3  v044
 BYTE   W12
 BYTE   Cn3  v072
 BYTE   W12
 BYTE   Cn3  v044
 BYTE   W12
 BYTE   N11
 BYTE   W12
 BYTE   Cn3  v072
 BYTE   W12
 BYTE   Cn3  v044
 BYTE   W12
 BYTE   N11
 BYTE   W12
 BYTE   Cn3  v072
 BYTE   W12
//  #03 //029   ----------------------------------------
 BYTE   Cn3  v044
 BYTE   W12
 BYTE   An2  v084
 BYTE   W12
 BYTE   An2  v044
 BYTE   W12
 BYTE   N11
 BYTE   W12
 BYTE   As2  v084
 BYTE   W12
 BYTE   As2  v044
 BYTE   W12
 BYTE   N11
 BYTE   W12
 BYTE   Cn3  v084
 BYTE   W12
//  #03 //030   ----------------------------------------
 BYTE   Cn3  v044
 BYTE   W12
 BYTE   TIE  As2  v048
 BYTE   W84
//  #03 //031   ----------------------------------------
 BYTE   W12
 BYTE   W84
//  #03 //032   ----------------------------------------
 BYTE   W12
 BYTE   W84
//  #03 //033   ----------------------------------------
 BYTE   W11
 BYTE   EOT
 BYTE   W01
 BYTE   N23  Cn3
 BYTE   W24
 BYTE   As2
 BYTE   W24
 BYTE   An2
 BYTE   W24
 BYTE   As2
 BYTE   W12
//  #03 //034   ----------------------------------------
Label_013CDD42:
 BYTE   W12
 BYTE   N92  As2  v048
 BYTE   W84
 BYTE   PEND 
//  #03 //035   ----------------------------------------
Label_013CDD47:
 BYTE   W12
 BYTE   N23  Cn3  v048
 BYTE   W24
 BYTE   As2
 BYTE   W24
 BYTE   An2
 BYTE   W24
 BYTE   As2
 BYTE   W12
 BYTE   PEND 
//  #03 //036   ----------------------------------------
 BYTE   PATT
  POIN2 Label_013CDD42
//  #03 //037   ----------------------------------------
 BYTE   PATT
  POIN2 Label_013CDD47
//  #03 //038   ----------------------------------------
 BYTE   W12
 BYTE   N68  Ds3  v048
 BYTE   W72
 BYTE   N23
 BYTE   W12
//  #03 //039   ----------------------------------------
 BYTE   PATT
  POIN2 Label_013CDD42
//  #03 //040   ----------------------------------------
 BYTE   W12
 BYTE   N44  As2  v048
 BYTE   W48
 BYTE   Cs3
 BYTE   W36
//  #03 //041   ----------------------------------------
 BYTE   W12
 BYTE   N44
 BYTE   W48
 BYTE   Ds3
 BYTE   W36
//  #03 //042   ----------------------------------------
 BYTE   W96
//  #03 //043   ----------------------------------------
 BYTE   W12
 BYTE   N23  As2
 BYTE   W24
 BYTE   Gs2
 BYTE   W24
 BYTE   Fs2
 BYTE   W24
 BYTE   Fn2
 BYTE   W12
//  #03 //044   ----------------------------------------
 BYTE   W12
 BYTE   N11  Ds2
 BYTE   W12
 BYTE   N11
 BYTE   W12
 BYTE   Fn2
 BYTE   W12
 BYTE   N23  Fs2
 BYTE   W12
 BYTE   W12
 BYTE   N11  Fn2
 BYTE   W12
 BYTE   N23  Fs2
 BYTE   W12
//  #03 //045   ----------------------------------------
 BYTE   W12
 BYTE   N11  Fn2
 BYTE   W12
 BYTE   N23  Fs2
 BYTE   W24
 BYTE   N11  Fn2
 BYTE   W12
 BYTE   Fs2
 BYTE   W12
 BYTE   Fn2
 BYTE   W12
 BYTE   En2
 BYTE   W12
//  #03 //046   ----------------------------------------
 BYTE   Fn2
 BYTE   W12
 BYTE   Ds2
 BYTE   W12
 BYTE   N11
 BYTE   W12
 BYTE   Fn2
 BYTE   W12
 BYTE   N23  Fs2
 BYTE   W12
 BYTE   W12
 BYTE   N11  Fn2
 BYTE   W12
 BYTE   N23  Fs2
 BYTE   W12
//  #03 //047   ----------------------------------------
 BYTE   W12
 BYTE   N11  Fn2
 BYTE   W12
 BYTE   N23  Fs2
 BYTE   W24
 BYTE   N11  Fn2
 BYTE   W12
 BYTE   Fs2
 BYTE   W12
 BYTE   Fn2
 BYTE   W12
 BYTE   Fs2
 BYTE   W12
//  #03 //048   ----------------------------------------
 BYTE   Gs2
 BYTE   W12
 BYTE   N23  As3  v064
 BYTE   W84
//  #03 //049   ----------------------------------------
Label_013CDDCA:
 BYTE   W12
 BYTE   N23  Gs3  v064
 BYTE   W84
 BYTE   PEND 
//  #03 //050   ----------------------------------------
 BYTE   PATT
  POIN2 Label_013CDDCA
//  #03 //051   ----------------------------------------
 BYTE   W12
 BYTE   N44  Fs3  v064
 BYTE   W48
 BYTE   Fn3
 BYTE   W36
//  #03 //052   ----------------------------------------
 BYTE   W12
 BYTE   N11  Fn2  v048
 BYTE   W12
 BYTE   N11
 BYTE   W12
 BYTE   Gn2
 BYTE   W12
 BYTE   N23  Gs2
 BYTE   W12
 BYTE   W12
 BYTE   N11  Gn2
 BYTE   W12
 BYTE   N23  Gs2
 BYTE   W12
//  #03 //053   ----------------------------------------
 BYTE   W12
 BYTE   N11  Gn2
 BYTE   W12
 BYTE   N23  Gs2
 BYTE   W24
 BYTE   N11  Gn2
 BYTE   W12
 BYTE   Gs2
 BYTE   W12
 BYTE   Gn2
 BYTE   W12
 BYTE   Fs2
 BYTE   W12
//  #03 //054   ----------------------------------------
 BYTE   Gn2
 BYTE   W12
 BYTE   Fn2
 BYTE   W12
 BYTE   N11
 BYTE   W12
 BYTE   Gn2
 BYTE   W12
 BYTE   N23  Gs2
 BYTE   W12
 BYTE   W12
 BYTE   N11  Gn2
 BYTE   W12
 BYTE   N23  Gs2
 BYTE   W12
//  #03 //055   ----------------------------------------
 BYTE   W12
 BYTE   N11  Gn2
 BYTE   W12
 BYTE   N23  Gs2
 BYTE   W24
 BYTE   N11  Gn2
 BYTE   W12
 BYTE   Gs2
 BYTE   W12
 BYTE   Gn2
 BYTE   W12
 BYTE   Gs2
 BYTE   W12
//  #03 //056   ----------------------------------------
 BYTE   As2
 BYTE   W12
 BYTE   N23  Cn4  v064
 BYTE   W84
//  #03 //057   ----------------------------------------
Label_013CDE27:
 BYTE   W12
 BYTE   N23  As3  v064
 BYTE   W84
 BYTE   PEND 
//  #03 //058   ----------------------------------------
 BYTE   PATT
  POIN2 Label_013CDE27
//  #03 //059   ----------------------------------------
 BYTE   W12
 BYTE   N44  Gs3  v064
 BYTE   W48
 BYTE   Gn3
 BYTE   W36
//  #03 //060   ----------------------------------------
 BYTE   W12
 BYTE   N23  Cn3
 BYTE   W24
 BYTE   N23
 BYTE   W24
 BYTE   N23
 BYTE   W24
 BYTE   En3
 BYTE   W12
//  #03 //061   ----------------------------------------
 BYTE   W12
 BYTE   Fn3
 BYTE   W24
 BYTE   En3
 BYTE   W24
 BYTE   Fn3
 BYTE   W24
 BYTE   N23
 BYTE   W12
//  #03 //062   ----------------------------------------
 BYTE   W60
 BYTE   N44  Fn2
 BYTE   W36
//  #03 //063   ----------------------------------------
 BYTE   W12
 BYTE   N32  Gn2
 BYTE   W36
 BYTE   Gs2
 BYTE   W12
 BYTE   W24
 BYTE   N23  As2
 BYTE   W12
//  #03 //064   ----------------------------------------
Label_013CDE5A:
 BYTE   W12
 BYTE   N92  Gs2  v064
 BYTE   W84
 BYTE   PEND 
//  #03 //065   ----------------------------------------
 BYTE   W12
 BYTE   Gn2
 BYTE   W84
//  #03 //066   ----------------------------------------
 BYTE   W36
 BYTE   N23  Gs2
 BYTE   W24
 BYTE   Gn2
 BYTE   W24
 BYTE   Gs2
 BYTE   W12
//  #03 //067   ----------------------------------------
 BYTE   W12
 BYTE   N44  As2
 BYTE   W48
 BYTE   N23
 BYTE   W24
 BYTE   Gn2
 BYTE   W12
//  #03 //068   ----------------------------------------
 BYTE   W12
 BYTE   N44  As2
 BYTE   W48
 BYTE   Gs2
 BYTE   W36
//  #03 //069   ----------------------------------------
 BYTE   W12
 BYTE   As2
 BYTE   W48
 BYTE   Cn3
 BYTE   W36
//  #03 //070   ----------------------------------------
 BYTE   W12
 BYTE   As2
 BYTE   W48
 BYTE   Fn3
 BYTE   W36
//  #03 //071   ----------------------------------------
 BYTE   W12
 BYTE   En3
 BYTE   W48
 BYTE   N44
 BYTE   W36
//  #03 //072   ----------------------------------------
 BYTE   W12
 BYTE   N44
 BYTE   W48
 BYTE   Fn3
 BYTE   W36
//  #03 //073   ----------------------------------------
 BYTE   W12
 BYTE   N92  Ds3
 BYTE   W84
//  #03 //074   ----------------------------------------
Label_013CDE91:
 BYTE   W12
 BYTE   N92  Cs3  v064
 BYTE   W84
 BYTE   PEND 
//  #03 //075   ----------------------------------------
 BYTE   PATT
  POIN2 Label_013CDE91
//  #03 //076   ----------------------------------------
Label_013CDE9C:
 BYTE   W12
 BYTE   N92  Cn3  v064
 BYTE   W84
 BYTE   PEND 
//  #03 //077   ----------------------------------------
 BYTE   PATT
  POIN2 Label_013CDE9C
//  #03 //078   ----------------------------------------
Label_013CDEA7:
 BYTE   W12
 BYTE   N92  As2  v064
 BYTE   W84
 BYTE   PEND 
//  #03 //079   ----------------------------------------
Label_013CDEAD:
 BYTE   W12
 BYTE   N44  As2  v064
 BYTE   W48
 BYTE   N44
 BYTE   W36
 BYTE   PEND 
//  #03 //080   ----------------------------------------
 BYTE   PATT
  POIN2 Label_013CDE5A
//  #03 //081   ----------------------------------------
 BYTE   W12
 BYTE   N44  Gs2  v064
 BYTE   W48
 BYTE   N44
 BYTE   W36
//  #03 //082   ----------------------------------------
 BYTE   PATT
  POIN2 Label_013CDEA7
//  #03 //083   ----------------------------------------
 BYTE   PATT
  POIN2 Label_013CDEAD
//  #03 //084   ----------------------------------------
 BYTE   PATT
  POIN2 Label_013CDEA7
//  #03 //085   ----------------------------------------
 BYTE   W12
 BYTE   N44  As2  v064
 BYTE   W48
 BYTE   An2
 BYTE   W36
//  #03 //086   ----------------------------------------
 BYTE   PATT
  POIN2 Label_013CDEA7
//  #03 //087   ----------------------------------------
 BYTE   PATT
  POIN2 Label_013CDEAD
//  #03 //088   ----------------------------------------
 BYTE   PATT
  POIN2 Label_013CDE5A
//  #03 //089   ----------------------------------------
 BYTE   PATT
  POIN2 Label_013CDEAD
//  #03 //090   ----------------------------------------
 BYTE   W12
 BYTE   TIE  As2  v064
 BYTE   W84
//  #03 //091   ----------------------------------------
 BYTE   W12
 BYTE   W84
//  #03 //092   ----------------------------------------
 BYTE   W11
 BYTE   EOT
 BYTE   W01
 BYTE   N92  Cn3
 BYTE   W84
//  #03 //093   ----------------------------------------
 BYTE   W12
 BYTE   Fn3
 BYTE   W84
//  #03 //094   ----------------------------------------
 BYTE   PATT
  POIN2 Label_013CDC21
//  #03 //095   ----------------------------------------
 BYTE   PATT
  POIN2 Label_013CDC2D
//  #03 //096   ----------------------------------------
 BYTE   W11
 BYTE   EOT
 BYTE   Ds3
 BYTE   W13
 BYTE   N11  Fn3  v064
 BYTE   W12
 BYTE   N23
 BYTE   W24
 BYTE   N11
 BYTE   W12
 BYTE   N11
 BYTE   W24
//  #03 //097   ----------------------------------------
 BYTE   PATT
  POIN2 Label_013CDC3F
//  #03 //098   ----------------------------------------
 BYTE   W11
 BYTE   EOT
 BYTE   Fs3
 BYTE   W13
 BYTE   N11  Fn3  v064
 BYTE   W12
 BYTE   N23
 BYTE   W24
 BYTE   N11
 BYTE   W12
 BYTE   N11
 BYTE   W24
//  #03 //099   ----------------------------------------
 BYTE   PATT
  POIN2 Label_013CDC2D
//  #03 //100   ----------------------------------------
 BYTE   W11
 BYTE   EOT
 BYTE   Ds3
 BYTE   W13
 BYTE   N11  Fn3  v064
 BYTE   W12
 BYTE   N23
 BYTE   W24
 BYTE   N11
 BYTE   W12
 BYTE   N11
 BYTE   W24
//  #03 //101   ----------------------------------------
 BYTE   PATT
  POIN2 Label_013CDC64
//  #03 //102   ----------------------------------------
 BYTE   W96
//  #03 //103   ----------------------------------------
 BYTE   W84
 BYTE   GoTo
  POIN2 Label_013CDC78
//  #03 //104   ----------------------------------------
 BYTE   W12
 BYTE   W36
 BYTE   TIE  As2  v048
 BYTE   W60
//  #03 //105   ----------------------------------------
 BYTE   W12
 BYTE   W84
//  #03 //106   ----------------------------------------
 BYTE   W11
 BYTE   EOT
 BYTE   FINE

//**************** Track 4 (Midi-Chn.3) ****************//

Daughter_of_the_Dark_God_Song_004:
//  #04 //000   ----------------------------------------
 BYTE   KEYSH   Daughter_of_the_Dark_God_Song_key+0
 BYTE   VOICE   68
 BYTE   MODT 0
 BYTE   LFOS 44
 BYTE   BENDR  12
 BYTE   VOL   50*Daughter_of_the_Dark_God_Song_mvl/mxv
 BYTE   PAN   c_v+0
 BYTE   BENDR  12
 BYTE   VOL   50*Daughter_of_the_Dark_God_Song_mvl/mxv
 BYTE   PAN   c_v+0
 BYTE   BENDR  12
 BYTE   VOL   50*Daughter_of_the_Dark_God_Song_mvl/mxv
 BYTE   PAN   c_v+0
 BYTE   N05  Cn2  v080
 BYTE   W06
 BYTE   N05
 BYTE   W06
 BYTE   TIE  Cn2  v056
 BYTE   W84
//  #04 //001   ----------------------------------------
 BYTE   W96
//  #04 //002   ----------------------------------------
 BYTE   W11
 BYTE   EOT
 BYTE   W01
 BYTE   TIE  Fn1
 BYTE   W84
//  #04 //003   ----------------------------------------
 BYTE   W96
//  #04 //004   ----------------------------------------
 BYTE   W11
 BYTE   EOT
 BYTE   W84
 BYTE   W01
//  #04 //005   ----------------------------------------
 BYTE   W96
//  #04 //006   ----------------------------------------
 BYTE   W96
//  #04 //007   ----------------------------------------
 BYTE   W96
//  #04 //008   ----------------------------------------
 BYTE   W96
//  #04 //009   ----------------------------------------
 BYTE   W96
//  #04 //010   ----------------------------------------
 BYTE   W96
//  #04 //011   ----------------------------------------
 BYTE   W96
//  #04 //012   ----------------------------------------
 BYTE   W96
//  #04 //013   ----------------------------------------
 BYTE   W84
Label_013C9BC1:
 BYTE   W12
//  #04 //014   ----------------------------------------
 BYTE   W96
//  #04 //015   ----------------------------------------
 BYTE   W96
//  #04 //016   ----------------------------------------
 BYTE   W96
//  #04 //017   ----------------------------------------
 BYTE   W96
//  #04 //018   ----------------------------------------
 BYTE   W96
//  #04 //019   ----------------------------------------
 BYTE   W96
//  #04 //020   ----------------------------------------
 BYTE   W96
//  #04 //021   ----------------------------------------
 BYTE   W96
//  #04 //022   ----------------------------------------
 BYTE   W96
//  #04 //023   ----------------------------------------
 BYTE   W96
//  #04 //024   ----------------------------------------
 BYTE   W96
//  #04 //025   ----------------------------------------
 BYTE   W96
//  #04 //026   ----------------------------------------
 BYTE   W96
//  #04 //027   ----------------------------------------
 BYTE   W96
//  #04 //028   ----------------------------------------
 BYTE   W96
//  #04 //029   ----------------------------------------
 BYTE   W12
 BYTE   N32  Fn1  v024
 BYTE   W36
 BYTE   Gn1
 BYTE   W36
 BYTE   N23  An1
 BYTE   W12
//  #04 //030   ----------------------------------------
 BYTE   W96
//  #04 //031   ----------------------------------------
 BYTE   W96
//  #04 //032   ----------------------------------------
 BYTE   W96
//  #04 //033   ----------------------------------------
 BYTE   W96
//  #04 //034   ----------------------------------------
 BYTE   W96
//  #04 //035   ----------------------------------------
 BYTE   W96
//  #04 //036   ----------------------------------------
 BYTE   W96
//  #04 //037   ----------------------------------------
 BYTE   W96
//  #04 //038   ----------------------------------------
 BYTE   W96
//  #04 //039   ----------------------------------------
 BYTE   W96
//  #04 //040   ----------------------------------------
 BYTE   W96
//  #04 //041   ----------------------------------------
 BYTE   W96
//  #04 //042   ----------------------------------------
 BYTE   W96
//  #04 //043   ----------------------------------------
 BYTE   W96
//  #04 //044   ----------------------------------------
 BYTE   W96
//  #04 //045   ----------------------------------------
 BYTE   W96
//  #04 //046   ----------------------------------------
 BYTE   W96
//  #04 //047   ----------------------------------------
 BYTE   W96
//  #04 //048   ----------------------------------------
 BYTE   W96
//  #04 //049   ----------------------------------------
 BYTE   W96
//  #04 //050   ----------------------------------------
 BYTE   W96
//  #04 //051   ----------------------------------------
 BYTE   W96
//  #04 //052   ----------------------------------------
 BYTE   W96
//  #04 //053   ----------------------------------------
 BYTE   W96
//  #04 //054   ----------------------------------------
 BYTE   W96
//  #04 //055   ----------------------------------------
 BYTE   W96
//  #04 //056   ----------------------------------------
 BYTE   W96
//  #04 //057   ----------------------------------------
 BYTE   W96
//  #04 //058   ----------------------------------------
 BYTE   W96
//  #04 //059   ----------------------------------------
 BYTE   W96
//  #04 //060   ----------------------------------------
 BYTE   W96
//  #04 //061   ----------------------------------------
 BYTE   W96
//  #04 //062   ----------------------------------------
 BYTE   W96
//  #04 //063   ----------------------------------------
 BYTE   W96
//  #04 //064   ----------------------------------------
 BYTE   W96
//  #04 //065   ----------------------------------------
 BYTE   W96
//  #04 //066   ----------------------------------------
 BYTE   W96
//  #04 //067   ----------------------------------------
 BYTE   W96
//  #04 //068   ----------------------------------------
 BYTE   W96
//  #04 //069   ----------------------------------------
 BYTE   W96
//  #04 //070   ----------------------------------------
 BYTE   W96
//  #04 //071   ----------------------------------------
 BYTE   W96
//  #04 //072   ----------------------------------------
 BYTE   W96
//  #04 //073   ----------------------------------------
 BYTE   W96
//  #04 //074   ----------------------------------------
 BYTE   W96
//  #04 //075   ----------------------------------------
 BYTE   W96
//  #04 //076   ----------------------------------------
 BYTE   W96
//  #04 //077   ----------------------------------------
 BYTE   W96
//  #04 //078   ----------------------------------------
 BYTE   W96
//  #04 //079   ----------------------------------------
 BYTE   W96
//  #04 //080   ----------------------------------------
 BYTE   W96
//  #04 //081   ----------------------------------------
 BYTE   W96
//  #04 //082   ----------------------------------------
 BYTE   W96
//  #04 //083   ----------------------------------------
 BYTE   W96
//  #04 //084   ----------------------------------------
 BYTE   W96
//  #04 //085   ----------------------------------------
 BYTE   W96
//  #04 //086   ----------------------------------------
 BYTE   W96
//  #04 //087   ----------------------------------------
 BYTE   W96
//  #04 //088   ----------------------------------------
 BYTE   W96
//  #04 //089   ----------------------------------------
 BYTE   W96
//  #04 //090   ----------------------------------------
 BYTE   W96
//  #04 //091   ----------------------------------------
 BYTE   W96
//  #04 //092   ----------------------------------------
 BYTE   W96
//  #04 //093   ----------------------------------------
 BYTE   W96
//  #04 //094   ----------------------------------------
 BYTE   W96
//  #04 //095   ----------------------------------------
 BYTE   W96
//  #04 //096   ----------------------------------------
 BYTE   W96
//  #04 //097   ----------------------------------------
 BYTE   W96
//  #04 //098   ----------------------------------------
 BYTE   W96
//  #04 //099   ----------------------------------------
 BYTE   W96
//  #04 //100   ----------------------------------------
 BYTE   W96
//  #04 //101   ----------------------------------------
 BYTE   W96
//  #04 //102   ----------------------------------------
 BYTE   W96
//  #04 //103   ----------------------------------------
 BYTE   W84
 BYTE   GoTo
  POIN2 Label_013C9BC1
 BYTE   FINE

//**************** Track 5 (Midi-Chn.4) ****************//

Daughter_of_the_Dark_God_Song_005:
//  #05 //000   ----------------------------------------
 BYTE   KEYSH   Daughter_of_the_Dark_God_Song_key+0
 BYTE   VOICE   30
 BYTE   MODT 0
 BYTE   LFOS 44
 BYTE   BENDR  12
 BYTE   VOL   50*Daughter_of_the_Dark_God_Song_mvl/mxv
 BYTE   PAN   c_v+0
 BYTE   BENDR  12
 BYTE   VOL   50*Daughter_of_the_Dark_God_Song_mvl/mxv
 BYTE   PAN   c_v+0
 BYTE   W96
//  #05 //001   ----------------------------------------
 BYTE   W96
//  #05 //002   ----------------------------------------
 BYTE   W96
//  #05 //003   ----------------------------------------
 BYTE   W96
//  #05 //004   ----------------------------------------
Label_013CDF78:
 BYTE   W24
 BYTE   N11  Ds4  v056
 BYTE   N11  Fn4
 BYTE   N11  As4
 BYTE   W12
 BYTE   N23  Ds4
 BYTE   N23  Fn4
 BYTE   N23  As4
 BYTE   W24
 BYTE   N11  Ds4
 BYTE   N11  Fn4
 BYTE   N11  As4
 BYTE   W12
 BYTE   Ds4
 BYTE   N11  Fn4
 BYTE   N11  As4
 BYTE   W24
 BYTE   PEND 
//  #05 //005   ----------------------------------------
Label_013CDF96:
 BYTE   N11  Gs4  v056
 BYTE   W24
 BYTE   Ds4
 BYTE   W12
 BYTE   As3
 BYTE   W12
 BYTE   Gs4
 BYTE   W24
 BYTE   Ds4
 BYTE   W12
 BYTE   As3
 BYTE   W12
 BYTE   PEND 
//  #05 //006   ----------------------------------------
Label_013CDFA5:
 BYTE   N11  Ds4  v056
 BYTE   W24
 BYTE   N11
 BYTE   N11  Fn4
 BYTE   N11  As4
 BYTE   W12
 BYTE   N23  Ds4
 BYTE   N23  Fn4
 BYTE   N23  As4
 BYTE   W24
 BYTE   N11  Ds4
 BYTE   N11  Fn4
 BYTE   N11  As4
 BYTE   W12
 BYTE   Ds4
 BYTE   N11  Fn4
 BYTE   N11  As4
 BYTE   W24
 BYTE   PEND 
//  #05 //007   ----------------------------------------
Label_013CDFC4:
 BYTE   N11  Bn4  v056
 BYTE   W24
 BYTE   En4
 BYTE   W12
 BYTE   Bn3
 BYTE   W12
 BYTE   Bn4
 BYTE   W24
 BYTE   En4
 BYTE   W12
 BYTE   Bn3
 BYTE   W12
 BYTE   PEND 
//  #05 //008   ----------------------------------------
Label_013CDFD3:
 BYTE   N11  En4  v056
 BYTE   W24
 BYTE   Ds4
 BYTE   N11  Fn4
 BYTE   N11  As4
 BYTE   W12
 BYTE   N23  Ds4
 BYTE   N23  Fn4
 BYTE   N23  As4
 BYTE   W24
 BYTE   N11  Ds4
 BYTE   N11  Fn4
 BYTE   N11  As4
 BYTE   W12
 BYTE   Ds4
 BYTE   N11  Fn4
 BYTE   N11  As4
 BYTE   W24
 BYTE   PEND 
//  #05 //009   ----------------------------------------
 BYTE   PATT
  POIN2 Label_013CDF96
//  #05 //010   ----------------------------------------
 BYTE   PATT
  POIN2 Label_013CDFA5
//  #05 //011   ----------------------------------------
Label_013CDFFC:
 BYTE   N23  Cs5  v056
 BYTE   W12
 BYTE   W12
 BYTE   N11  Bn4
 BYTE   W12
 BYTE   As4
 BYTE   W12
 BYTE   Bn4
 BYTE   W12
 BYTE   N23  Fs4
 BYTE   W24
 BYTE   Gs4
 BYTE   W12
 BYTE   PEND 
//  #05 //012   ----------------------------------------
Label_013CE00E:
 BYTE   W24
 BYTE   N11  Ds2  v056
 BYTE   N11  Ds3
 BYTE   W12
 BYTE   Gs2
 BYTE   N11  Gs3
 BYTE   W12
 BYTE   Cs3
 BYTE   N11  Cs4
 BYTE   W12
 BYTE   En3
 BYTE   N11  En4
 BYTE   W12
 BYTE   Bn2
 BYTE   N11  Bn3
 BYTE   W12
 BYTE   Fs2
 BYTE   N11  Fs3
 BYTE   W12
 BYTE   PEND 
//  #05 //013   ----------------------------------------
Label_013CE02A:
 BYTE   N11  An1  v056
 BYTE   N11  An2
 BYTE   W12
 BYTE   Dn2
 BYTE   N11  Dn3
 BYTE   W12
 BYTE   Gn2
 BYTE   N11  Gn3
 BYTE   W12
 BYTE   As2
 BYTE   N11  As3
 BYTE   W12
 BYTE   Fn2
 BYTE   N11  Fn3
 BYTE   W12
 BYTE   Cn2
 BYTE   N11  Cn3
 BYTE   W12
 BYTE   Ds2
 BYTE   N11  Ds3
 BYTE   W12
 BYTE   PEND 
Label_013CE049:
 BYTE   N11  Gs1  v056
 BYTE   N11  Gs2
 BYTE   W12
//  #05 //014   ----------------------------------------
 BYTE   Cs2
 BYTE   N11  Cs3
 BYTE   W12
 BYTE   Ds4  v048
 BYTE   W12
 BYTE   As3
 BYTE   W12
 BYTE   Ds4
 BYTE   W12
 BYTE   As3
 BYTE   W12
 BYTE   Cs4
 BYTE   W12
 BYTE   As3
 BYTE   W12
 BYTE   Cs4
 BYTE   W12
//  #05 //015   ----------------------------------------
Label_013CE062:
 BYTE   N11  As3  v048
 BYTE   W12
 BYTE   Cn4
 BYTE   W12
 BYTE   As3
 BYTE   W12
 BYTE   Cn4
 BYTE   W12
 BYTE   As3
 BYTE   W12
 BYTE   Cs4
 BYTE   W12
 BYTE   As3
 BYTE   W12
 BYTE   Cs4
 BYTE   W12
 BYTE   PEND 
//  #05 //016   ----------------------------------------
Label_013CE075:
 BYTE   N11  As3  v048
 BYTE   W12
 BYTE   Cn4
 BYTE   W12
 BYTE   Fn3
 BYTE   W12
 BYTE   As3
 BYTE   W12
 BYTE   Fn3
 BYTE   W12
 BYTE   Cs4
 BYTE   W12
 BYTE   As3
 BYTE   W12
 BYTE   Cs4
 BYTE   W12
 BYTE   PEND 
//  #05 //017   ----------------------------------------
 BYTE   PATT
  POIN2 Label_013CE062
//  #05 //018   ----------------------------------------
Label_013CE08D:
 BYTE   N11  As3  v048
 BYTE   W12
 BYTE   Ds4
 BYTE   W12
 BYTE   As3
 BYTE   W12
 BYTE   Ds4
 BYTE   W12
 BYTE   As3
 BYTE   W12
 BYTE   Cs4
 BYTE   W12
 BYTE   As3
 BYTE   W12
 BYTE   Cs4
 BYTE   W12
 BYTE   PEND 
//  #05 //019   ----------------------------------------
Label_013CE0A0:
 BYTE   N11  As3  v048
 BYTE   W12
 BYTE   Cn4
 BYTE   W12
 BYTE   Fn3
 BYTE   W12
 BYTE   As3
 BYTE   W12
 BYTE   Cs4
 BYTE   W12
 BYTE   Fn3
 BYTE   W12
 BYTE   As3
 BYTE   W12
 BYTE   Ds4
 BYTE   W12
 BYTE   PEND 
//  #05 //020   ----------------------------------------
Label_013CE0B3:
 BYTE   N11  Fn3  v048
 BYTE   W12
 BYTE   Fn4
 BYTE   W12
 BYTE   Fn3
 BYTE   W12
 BYTE   As3
 BYTE   W12
 BYTE   Fn4
 BYTE   W12
 BYTE   Fn3
 BYTE   W12
 BYTE   As3
 BYTE   W12
 BYTE   Ds4
 BYTE   W12
 BYTE   PEND 
//  #05 //021   ----------------------------------------
Label_013CE0C6:
 BYTE   N11  As3  v048
 BYTE   W12
 BYTE   Ds4
 BYTE   W12
 BYTE   Fn3
 BYTE   W12
 BYTE   As3
 BYTE   W12
 BYTE   Ds4
 BYTE   W12
 BYTE   Fn3
 BYTE   W12
 BYTE   As3
 BYTE   W12
 BYTE   Ds4
 BYTE   W12
 BYTE   PEND 
//  #05 //022   ----------------------------------------
 BYTE   As3
 BYTE   W12
 BYTE   Ds4
 BYTE   W12
 BYTE   Fn3
 BYTE   W12
 BYTE   Ds4
 BYTE   W12
 BYTE   Fn3
 BYTE   W12
 BYTE   Cs4
 BYTE   W12
 BYTE   Fn3
 BYTE   W12
 BYTE   Cs4
 BYTE   W12
//  #05 //023   ----------------------------------------
 BYTE   Fn3
 BYTE   W12
 BYTE   Cn4
 BYTE   W12
 BYTE   Fn3
 BYTE   W12
 BYTE   Cn4
 BYTE   W12
 BYTE   Fn3
 BYTE   W12
 BYTE   Ds4
 BYTE   W12
 BYTE   Fn3
 BYTE   W12
 BYTE   Cs4
 BYTE   W12
//  #05 //024   ----------------------------------------
 BYTE   Fn3
 BYTE   W12
 BYTE   Cn4
 BYTE   W12
 BYTE   Fn3
 BYTE   W12
 BYTE   As3
 BYTE   W12
 BYTE   Cs4
 BYTE   W12
 BYTE   Fn3
 BYTE   W12
 BYTE   As3
 BYTE   W12
 BYTE   Cs4
 BYTE   W12
//  #05 //025   ----------------------------------------
 BYTE   Fn3
 BYTE   W12
 BYTE   Ds4
 BYTE   W12
 BYTE   Fn3
 BYTE   W12
 BYTE   As3
 BYTE   W12
 BYTE   Fn4
 BYTE   W12
 BYTE   Fn3
 BYTE   W12
 BYTE   As3
 BYTE   W12
 BYTE   Fn4
 BYTE   W12
//  #05 //026   ----------------------------------------
 BYTE   As3
 BYTE   W12
 BYTE   Fn4
 BYTE   W12
 BYTE   Gn3
 BYTE   W12
 BYTE   As3
 BYTE   W12
 BYTE   Fn4
 BYTE   W12
 BYTE   Gn3
 BYTE   W12
 BYTE   As3
 BYTE   W12
 BYTE   Fn4
 BYTE   W12
//  #05 //027   ----------------------------------------
 BYTE   As3
 BYTE   W12
 BYTE   En4
 BYTE   W12
 BYTE   Gn3
 BYTE   W12
 BYTE   Cn4
 BYTE   W12
 BYTE   Fn4
 BYTE   W12
 BYTE   Gn3
 BYTE   W12
 BYTE   Cn4
 BYTE   W12
 BYTE   Gn4
 BYTE   W12
//  #05 //028   ----------------------------------------
 BYTE   Cn4
 BYTE   W12
 BYTE   As4
 BYTE   W12
 BYTE   An3
 BYTE   W12
 BYTE   Cn4
 BYTE   W12
 BYTE   An4
 BYTE   W12
 BYTE   An3
 BYTE   W12
 BYTE   Cn4
 BYTE   W12
 BYTE   Gn4
 BYTE   W12
//  #05 //029   ----------------------------------------
 BYTE   Cn4
 BYTE   W12
 BYTE   An4
 BYTE   W12
 BYTE   An3
 BYTE   W12
 BYTE   Cn4
 BYTE   W12
 BYTE   As4
 BYTE   W12
 BYTE   An3
 BYTE   W12
 BYTE   Cn4
 BYTE   W12
 BYTE   Cn5
 BYTE   W12
//  #05 //030   ----------------------------------------
 BYTE   Cn4
 BYTE   W12
 BYTE   Ds4
 BYTE   W12
 BYTE   As3
 BYTE   W12
 BYTE   Ds4
 BYTE   W12
 BYTE   As3
 BYTE   W12
 BYTE   Cs4
 BYTE   W12
 BYTE   As3
 BYTE   W12
 BYTE   Cs4
 BYTE   W12
//  #05 //031   ----------------------------------------
 BYTE   PATT
  POIN2 Label_013CE062
//  #05 //032   ----------------------------------------
 BYTE   PATT
  POIN2 Label_013CE075
//  #05 //033   ----------------------------------------
 BYTE   PATT
  POIN2 Label_013CE062
//  #05 //034   ----------------------------------------
 BYTE   PATT
  POIN2 Label_013CE08D
//  #05 //035   ----------------------------------------
 BYTE   PATT
  POIN2 Label_013CE0A0
//  #05 //036   ----------------------------------------
 BYTE   PATT
  POIN2 Label_013CE0B3
//  #05 //037   ----------------------------------------
 BYTE   PATT
  POIN2 Label_013CE0C6
//  #05 //038   ----------------------------------------
 BYTE   N11  As3  v048
 BYTE   W12
 BYTE   Ds4
 BYTE   W12
 BYTE   Fn3
 BYTE   W12
 BYTE   Bn3
 BYTE   W12
 BYTE   Ds4
 BYTE   W12
 BYTE   Fn3
 BYTE   W12
 BYTE   Bn3
 BYTE   W12
 BYTE   Ds4
 BYTE   W12
//  #05 //039   ----------------------------------------
 BYTE   Bn3
 BYTE   W12
 BYTE   Dn4
 BYTE   W12
 BYTE   Fn3
 BYTE   W12
 BYTE   As3
 BYTE   W12
 BYTE   Ds4
 BYTE   W12
 BYTE   Fn3
 BYTE   W12
 BYTE   As3
 BYTE   W12
 BYTE   Fn4
 BYTE   W12
//  #05 //040   ----------------------------------------
 BYTE   As3
 BYTE   W12
 BYTE   Fs4
 BYTE   W12
 BYTE   As3
 BYTE   W12
 BYTE   Ds4
 BYTE   W12
 BYTE   Fs4
 BYTE   W12
 BYTE   Gs4
 BYTE   W12
 BYTE   Cs4
 BYTE   W12
 BYTE   Fn4
 BYTE   W12
//  #05 //041   ----------------------------------------
 BYTE   Gs4
 BYTE   W12
 BYTE   As4
 BYTE   W12
 BYTE   Cs4
 BYTE   W12
 BYTE   Fs4
 BYTE   W12
 BYTE   As4
 BYTE   W12
 BYTE   Gn4
 BYTE   W12
 BYTE   Ds4
 BYTE   W12
 BYTE   As4
 BYTE   W12
//  #05 //042   ----------------------------------------
 BYTE   Gn4
 BYTE   W12
 BYTE   Gs4
 BYTE   W12
 BYTE   Bn3
 BYTE   W12
 BYTE   Fs4
 BYTE   W12
 BYTE   As3
 BYTE   W12
 BYTE   Fn4
 BYTE   W12
 BYTE   Gs3
 BYTE   W12
 BYTE   Ds4
 BYTE   W12
//  #05 //043   ----------------------------------------
 BYTE   Fs3
 BYTE   W12
 BYTE   Dn4
 BYTE   W12
 BYTE   As3
 BYTE   W12
 BYTE   Dn4
 BYTE   W12
 BYTE   As3
 BYTE   W12
 BYTE   Fn4
 BYTE   W12
 BYTE   Dn4
 BYTE   W12
 BYTE   Fn4
 BYTE   W12
//  #05 //044   ----------------------------------------
 BYTE   Dn4
 BYTE   W96
//  #05 //045   ----------------------------------------
 BYTE   W96
//  #05 //046   ----------------------------------------
 BYTE   W96
//  #05 //047   ----------------------------------------
 BYTE   W96
//  #05 //048   ----------------------------------------
 BYTE   W12
 BYTE   N23  As3  v040
 BYTE   N23  Ds4
 BYTE   N23  Fs4  v064
 BYTE   W36
 BYTE   N11  Gs3
 BYTE   W12
 BYTE   N19  As3
 BYTE   W18
 BYTE   W01
 BYTE   N16  Bn3
 BYTE   W05
 BYTE   W12
//  #05 //049   ----------------------------------------
 BYTE   N11  Fs4
 BYTE   W12
 BYTE   N23  Gs3  v040
 BYTE   N23  Bn3
 BYTE   N23  Fn4  v064
 BYTE   W36
 BYTE   N11  Gs3
 BYTE   W12
 BYTE   N19  As3
 BYTE   W18
 BYTE   W01
 BYTE   N16  Bn3
 BYTE   W05
 BYTE   W12
//  #05 //050   ----------------------------------------
 BYTE   N11  Fn4
 BYTE   W12
 BYTE   N23  Gs3  v040
 BYTE   N23  Bn3
 BYTE   N23  En4  v064
 BYTE   W36
 BYTE   N11  Gs3
 BYTE   W12
 BYTE   N19  As3
 BYTE   W18
 BYTE   W01
 BYTE   N16  Bn3
 BYTE   W05
 BYTE   W12
//  #05 //051   ----------------------------------------
 BYTE   N11  En4
 BYTE   W12
 BYTE   N44  Fs3  v040
 BYTE   N44  As3
 BYTE   N32  Ds4  v064
 BYTE   W36
 BYTE   N07  Fn4
 BYTE   W06
 BYTE   W01
 BYTE   N04  Ds4
 BYTE   W05
 BYTE   N44  Fn3  v040
 BYTE   N44  As3
 BYTE   N44  Dn4  v064
 BYTE   W36
//  #05 //052   ----------------------------------------
 BYTE   W96
//  #05 //053   ----------------------------------------
 BYTE   W96
//  #05 //054   ----------------------------------------
 BYTE   W96
//  #05 //055   ----------------------------------------
 BYTE   W96
//  #05 //056   ----------------------------------------
 BYTE   W12
 BYTE   N23  Cn4  v040
 BYTE   N23  Fn4
 BYTE   N23  Gs4  v064
 BYTE   W36
 BYTE   N11  As3
 BYTE   W12
 BYTE   N19  Cn4
 BYTE   W18
 BYTE   W01
 BYTE   N16  Cs4
 BYTE   W05
 BYTE   W12
//  #05 //057   ----------------------------------------
 BYTE   N11  Gs4
 BYTE   W12
 BYTE   N23  As3  v040
 BYTE   N23  Cs4
 BYTE   N23  Gn4  v064
 BYTE   W36
 BYTE   N11  As3
 BYTE   W12
 BYTE   N19  Cn4
 BYTE   W18
 BYTE   W01
 BYTE   N16  Cs4
 BYTE   W05
 BYTE   W12
//  #05 //058   ----------------------------------------
 BYTE   N11  Gn4
 BYTE   W12
 BYTE   N23  As3  v040
 BYTE   N23  Cs4
 BYTE   N23  Fs4  v064
 BYTE   W36
 BYTE   N11  As3
 BYTE   W12
 BYTE   N19  Cn4
 BYTE   W18
 BYTE   W01
 BYTE   N16  Cs4
 BYTE   W05
 BYTE   W12
//  #05 //059   ----------------------------------------
 BYTE   N11  Fs4
 BYTE   W12
 BYTE   N44  Gs3  v040
 BYTE   N44  Cn4
 BYTE   N32  Fn4  v064
 BYTE   W36
 BYTE   N07  Gn4
 BYTE   W06
 BYTE   W01
 BYTE   N04  Fn4
 BYTE   W05
 BYTE   N44  Gn3  v040
 BYTE   N44  Cn4
 BYTE   N44  En4  v064
 BYTE   W36
//  #05 //060   ----------------------------------------
 BYTE   W96
//  #05 //061   ----------------------------------------
 BYTE   W96
//  #05 //062   ----------------------------------------
 BYTE   W96
//  #05 //063   ----------------------------------------
 BYTE   W96
//  #05 //064   ----------------------------------------
 BYTE   W96
//  #05 //065   ----------------------------------------
 BYTE   W96
//  #05 //066   ----------------------------------------
 BYTE   W96
//  #05 //067   ----------------------------------------
 BYTE   W96
//  #05 //068   ----------------------------------------
 BYTE   W96
//  #05 //069   ----------------------------------------
 BYTE   W96
//  #05 //070   ----------------------------------------
 BYTE   W96
//  #05 //071   ----------------------------------------
 BYTE   W96
//  #05 //072   ----------------------------------------
 BYTE   W96
//  #05 //073   ----------------------------------------
 BYTE   W96
//  #05 //074   ----------------------------------------
 BYTE   W96
//  #05 //075   ----------------------------------------
 BYTE   W96
//  #05 //076   ----------------------------------------
 BYTE   W96
//  #05 //077   ----------------------------------------
 BYTE   W96
//  #05 //078   ----------------------------------------
 BYTE   W96
//  #05 //079   ----------------------------------------
 BYTE   W96
//  #05 //080   ----------------------------------------
 BYTE   W96
//  #05 //081   ----------------------------------------
 BYTE   W96
//  #05 //082   ----------------------------------------
 BYTE   W96
//  #05 //083   ----------------------------------------
 BYTE   W96
//  #05 //084   ----------------------------------------
 BYTE   W96
//  #05 //085   ----------------------------------------
 BYTE   W96
//  #05 //086   ----------------------------------------
 BYTE   W96
//  #05 //087   ----------------------------------------
 BYTE   W96
//  #05 //088   ----------------------------------------
 BYTE   W96
//  #05 //089   ----------------------------------------
 BYTE   W96
//  #05 //090   ----------------------------------------
 BYTE   W96
//  #05 //091   ----------------------------------------
 BYTE   W96
//  #05 //092   ----------------------------------------
 BYTE   W96
//  #05 //093   ----------------------------------------
 BYTE   W96
//  #05 //094   ----------------------------------------
 BYTE   PATT
  POIN2 Label_013CDF78
//  #05 //095   ----------------------------------------
 BYTE   PATT
  POIN2 Label_013CDF96
//  #05 //096   ----------------------------------------
 BYTE   PATT
  POIN2 Label_013CDFA5
//  #05 //097   ----------------------------------------
 BYTE   PATT
  POIN2 Label_013CDFC4
//  #05 //098   ----------------------------------------
 BYTE   PATT
  POIN2 Label_013CDFD3
//  #05 //099   ----------------------------------------
 BYTE   PATT
  POIN2 Label_013CDF96
//  #05 //100   ----------------------------------------
 BYTE   PATT
  POIN2 Label_013CDFA5
//  #05 //101   ----------------------------------------
 BYTE   PATT
  POIN2 Label_013CDFFC
//  #05 //102   ----------------------------------------
 BYTE   PATT
  POIN2 Label_013CE00E
//  #05 //103   ----------------------------------------
 BYTE   PATT
  POIN2 Label_013CE02A
//  #05 //104   ----------------------------------------
 BYTE   GoTo
  POIN2 Label_013CE049
//  #05 //105   ----------------------------------------
 BYTE   N11  Gs1  v056
 BYTE   N11  Gs2
 BYTE   W12
 BYTE   Cs2
 BYTE   N11  Cs3
 BYTE   W11
 BYTE   FINE

//**************** Track 6 (Midi-Chn.5) ****************//

Daughter_of_the_Dark_God_Song_006:
//  #06 //000   ----------------------------------------
 BYTE   KEYSH   Daughter_of_the_Dark_God_Song_key+0
 BYTE   VOICE   40
 BYTE   MODT 0
 BYTE   LFOS 44
 BYTE   BENDR  12
 BYTE   VOL   50*Daughter_of_the_Dark_God_Song_mvl/mxv
 BYTE   PAN   c_v+0
 BYTE   BENDR  12
 BYTE   VOL   50*Daughter_of_the_Dark_God_Song_mvl/mxv
 BYTE   PAN   c_v+0
 BYTE   N11  Fn1  v068
 BYTE   N03  Cs4  v056
 BYTE   W01
 BYTE   W02
 BYTE   W01
 BYTE   Ds4
 BYTE   W02
 BYTE   W01
 BYTE   W01
 BYTE   Fn4  v060
 BYTE   W01
 BYTE   W01
 BYTE   W02
 BYTE   TIE  Cn2  v064
 BYTE   N44  Fs4
 BYTE   W48
 BYTE   Fn4
 BYTE   W36
//  #06 //001   ----------------------------------------
 BYTE   W12
 BYTE   Ds4
 BYTE   W48
 BYTE   Cs4
 BYTE   W36
//  #06 //002   ----------------------------------------
 BYTE   W11
 BYTE   EOT
 BYTE   Cn2
 BYTE   W01
 BYTE   TIE  Fn2
 BYTE   N44  Cn4
 BYTE   W48
 BYTE   As3
 BYTE   W36
//  #06 //003   ----------------------------------------
 BYTE   W12
 BYTE   N23  An3
 BYTE   W24
 BYTE   As3
 BYTE   W24
 BYTE   Cn4
 BYTE   W24
 BYTE   Ds4
 BYTE   W12
//  #06 //004   ----------------------------------------
 BYTE   W11
 BYTE   EOT
 BYTE   Fn2
 BYTE   W01
 BYTE   N11  As1  v032
 BYTE   W12
 BYTE   N11
 BYTE   N11  As4  v064
 BYTE   W12
 BYTE   As1  v032
 BYTE   N23  As4  v064
 BYTE   W12
 BYTE   N11  As1  v032
 BYTE   W12
 BYTE   N11
 BYTE   N11  As4  v064
 BYTE   W12
 BYTE   As1  v032
 BYTE   N11  As4  v064
 BYTE   W12
 BYTE   As1  v032
 BYTE   W12
//  #06 //005   ----------------------------------------
Label_013CE399:
 BYTE   N11  As1  v032
 BYTE   N11  Gs4  v064
 BYTE   W12
 BYTE   As1  v032
 BYTE   W12
 BYTE   N11
 BYTE   N11  Ds4  v064
 BYTE   W12
 BYTE   As1  v032
 BYTE   N11  As3  v064
 BYTE   W12
 BYTE   As1  v032
 BYTE   N11  Gs4  v064
 BYTE   W12
 BYTE   As1  v032
 BYTE   W12
 BYTE   N11
 BYTE   N11  Ds4  v064
 BYTE   W12
 BYTE   As1  v032
 BYTE   N11  As3  v064
 BYTE   W12
 BYTE   PEND 
//  #06 //006   ----------------------------------------
Label_013CE3C3:
 BYTE   N11  As1  v032
 BYTE   N11  Ds4  v064
 BYTE   W12
 BYTE   As1  v032
 BYTE   W12
 BYTE   N11
 BYTE   N11  As4  v064
 BYTE   W12
 BYTE   As1  v032
 BYTE   N23  As4  v064
 BYTE   W12
 BYTE   N11  As1  v032
 BYTE   W12
 BYTE   N11
 BYTE   N11  As4  v064
 BYTE   W12
 BYTE   As1  v032
 BYTE   N11  As4  v064
 BYTE   W12
 BYTE   As1  v032
 BYTE   W12
 BYTE   PEND 
//  #06 //007   ----------------------------------------
Label_013CE3EB:
 BYTE   N11  As1  v032
 BYTE   N11  Bn4  v064
 BYTE   W12
 BYTE   As1  v032
 BYTE   W12
 BYTE   N11
 BYTE   N11  En4  v064
 BYTE   W12
 BYTE   As1  v032
 BYTE   N11  Bn3  v064
 BYTE   W12
 BYTE   As1  v032
 BYTE   N11  Bn4  v064
 BYTE   W12
 BYTE   As1  v032
 BYTE   W12
 BYTE   N11
 BYTE   N11  En4  v064
 BYTE   W12
 BYTE   As1  v032
 BYTE   N11  Bn3  v064
 BYTE   W12
 BYTE   PEND 
//  #06 //008   ----------------------------------------
Label_013CE415:
 BYTE   N11  As1  v032
 BYTE   N11  En4  v064
 BYTE   W12
 BYTE   As1  v032
 BYTE   W12
 BYTE   N11
 BYTE   N11  As4  v064
 BYTE   W12
 BYTE   As1  v032
 BYTE   N23  As4  v064
 BYTE   W12
 BYTE   N11  As1  v032
 BYTE   W12
 BYTE   N11
 BYTE   N11  As4  v064
 BYTE   W12
 BYTE   As1  v032
 BYTE   N11  As4  v064
 BYTE   W12
 BYTE   As1  v032
 BYTE   W12
 BYTE   PEND 
//  #06 //009   ----------------------------------------
 BYTE   PATT
  POIN2 Label_013CE399
//  #06 //010   ----------------------------------------
 BYTE   PATT
  POIN2 Label_013CE3C3
//  #06 //011   ----------------------------------------
Label_013CE447:
 BYTE   N23  Cs2  v032
 BYTE   N23  Cs5  v064
 BYTE   W12
 BYTE   W12
 BYTE   N11  Bn1  v032
 BYTE   N11  Bn4  v064
 BYTE   W12
 BYTE   As1  v032
 BYTE   N11  As4  v064
 BYTE   W12
 BYTE   Bn1  v032
 BYTE   N11  Bn4  v064
 BYTE   W12
 BYTE   N23  Fs1  v032
 BYTE   N23  Fs4  v064
 BYTE   W24
 BYTE   Gs1  v032
 BYTE   N23  Gs4  v064
 BYTE   W12
 BYTE   PEND 
//  #06 //012   ----------------------------------------
Label_013CE470:
 BYTE   W60
 BYTE   N11  En5  v064
 BYTE   W12
 BYTE   Bn4
 BYTE   W12
 BYTE   N23  Fs4
 BYTE   W12
 BYTE   PEND 
//  #06 //013   ----------------------------------------
Label_013CE47B:
 BYTE   W36
 BYTE   N11  As4  v064
 BYTE   W12
 BYTE   Fn4
 BYTE   W12
 BYTE   Cn4
 BYTE   W12
 BYTE   Ds4
 BYTE   W12
 BYTE   PEND 
Label_013CE487:
 BYTE   N11  Gs4  v064
 BYTE   W12
//  #06 //014   ----------------------------------------
 BYTE   Cs5
 BYTE   W12
 BYTE   Fn2  v072
 BYTE   W12
 BYTE   Fn2  v044
 BYTE   W12
 BYTE   N11
 BYTE   W12
 BYTE   N11
 BYTE   W12
 BYTE   Fn2  v072
 BYTE   W12
 BYTE   Fn2  v044
 BYTE   W12
 BYTE   N11
 BYTE   W12
//  #06 //015   ----------------------------------------
Label_013CE49F:
 BYTE   N11  Fn2  v044
 BYTE   W12
 BYTE   Fn2  v072
 BYTE   W12
 BYTE   Fn2  v044
 BYTE   W12
 BYTE   N11
 BYTE   W12
 BYTE   N11
 BYTE   W12
 BYTE   Fn2  v072
 BYTE   W12
 BYTE   Fn2  v044
 BYTE   W12
 BYTE   N11
 BYTE   W12
 BYTE   PEND 
//  #06 //016   ----------------------------------------
 BYTE   N11
 BYTE   W12
 BYTE   Fn2  v072
 BYTE   W12
 BYTE   Fn2  v044
 BYTE   W12
 BYTE   Fn2  v072
 BYTE   W12
 BYTE   Fn2  v044
 BYTE   W12
 BYTE   Fn2  v072
 BYTE   W12
 BYTE   Fn2  v044
 BYTE   W12
 BYTE   N11
 BYTE   W12
//  #06 //017   ----------------------------------------
 BYTE   PATT
  POIN2 Label_013CE49F
//  #06 //018   ----------------------------------------
 BYTE   PATT
  POIN2 Label_013CE49F
//  #06 //019   ----------------------------------------
Label_013CE4D6:
 BYTE   N11  Fn2  v044
 BYTE   W12
 BYTE   Fn2  v072
 BYTE   W12
 BYTE   Fn2  v044
 BYTE   W12
 BYTE   N11
 BYTE   W12
 BYTE   Fn2  v072
 BYTE   W12
 BYTE   Fn2  v044
 BYTE   W12
 BYTE   N11
 BYTE   W12
 BYTE   Fn2  v072
 BYTE   W12
 BYTE   PEND 
//  #06 //020   ----------------------------------------
 BYTE   PATT
  POIN2 Label_013CE4D6
//  #06 //021   ----------------------------------------
 BYTE   PATT
  POIN2 Label_013CE4D6
//  #06 //022   ----------------------------------------
 BYTE   N11  Fn2  v044
 BYTE   W12
 BYTE   Ds2  v072
 BYTE   W12
 BYTE   Ds2  v044
 BYTE   W12
 BYTE   N11
 BYTE   W12
 BYTE   N11
 BYTE   W12
 BYTE   Ds2  v072
 BYTE   W12
 BYTE   Ds2  v044
 BYTE   W12
 BYTE   N11
 BYTE   W12
//  #06 //023   ----------------------------------------
 BYTE   N11
 BYTE   W12
 BYTE   Fn2  v072
 BYTE   W12
 BYTE   Fn2  v044
 BYTE   W12
 BYTE   N11
 BYTE   W12
 BYTE   N11
 BYTE   W12
 BYTE   Fn2  v072
 BYTE   W12
 BYTE   Fn2  v044
 BYTE   W12
 BYTE   Fn2  v072
 BYTE   W12
//  #06 //024   ----------------------------------------
 BYTE   PATT
  POIN2 Label_013CE4D6
//  #06 //025   ----------------------------------------
 BYTE   N11  Fn2  v044
 BYTE   W12
 BYTE   Gs2  v072
 BYTE   W12
 BYTE   Gs2  v044
 BYTE   W12
 BYTE   N11
 BYTE   W12
 BYTE   Gs2  v072
 BYTE   W12
 BYTE   Gs2  v044
 BYTE   W12
 BYTE   N11
 BYTE   W12
 BYTE   Gs2  v072
 BYTE   W12
//  #06 //026   ----------------------------------------
 BYTE   Gs2  v044
 BYTE   W12
 BYTE   Gn2  v072
 BYTE   W12
 BYTE   Gn2  v044
 BYTE   W12
 BYTE   N11
 BYTE   W12
 BYTE   N11
 BYTE   W12
 BYTE   Gn2  v072
 BYTE   W12
 BYTE   Gn2  v044
 BYTE   W12
 BYTE   N11
 BYTE   W12
//  #06 //027   ----------------------------------------
 BYTE   N11
 BYTE   W12
 BYTE   Gn2  v072
 BYTE   W12
 BYTE   Gn2  v044
 BYTE   W12
 BYTE   N11
 BYTE   W12
 BYTE   Gn2  v072
 BYTE   W12
 BYTE   Gn2  v044
 BYTE   W12
 BYTE   N11
 BYTE   W12
 BYTE   Gn2  v072
 BYTE   W12
//  #06 //028   ----------------------------------------
 BYTE   Gn2  v044
 BYTE   W12
 BYTE   Fn2  v072
 BYTE   W12
 BYTE   Fn2  v044
 BYTE   W12
 BYTE   N11
 BYTE   W12
 BYTE   Fn2  v072
 BYTE   W12
 BYTE   Fn2  v044
 BYTE   W12
 BYTE   N11
 BYTE   W12
 BYTE   Fn2  v072
 BYTE   W12
//  #06 //029   ----------------------------------------
 BYTE   Fn2  v044
 BYTE   W12
 BYTE   N23  Fn2  v108
 BYTE   W36
 BYTE   N11  Gn2
 BYTE   W36
 BYTE   N23  An2
 BYTE   W12
//  #06 //030   ----------------------------------------
 BYTE   W12
 BYTE   TIE  Fn2  v048
 BYTE   N44  Ds4  v064
 BYTE   W48
 BYTE   Cs4
 BYTE   W36
//  #06 //031   ----------------------------------------
Label_013CE596:
 BYTE   W12
 BYTE   N23  Cn4  v064
 BYTE   W24
 BYTE   As3
 BYTE   W24
 BYTE   An3
 BYTE   W24
 BYTE   As3
 BYTE   W12
 BYTE   PEND 
//  #06 //032   ----------------------------------------
 BYTE   W12
 BYTE   N92  Fn3
 BYTE   W84
//  #06 //033   ----------------------------------------
 BYTE   W12
 BYTE   N23
 BYTE   W24
 BYTE   As3
 BYTE   W24
 BYTE   Cn4
 BYTE   W24
 BYTE   Cs4
 BYTE   W12
//  #06 //034   ----------------------------------------
 BYTE   W11
 BYTE   EOT
 BYTE   Fn2
 BYTE   W01
 BYTE   TIE  Fn2  v048
 BYTE   N44  Ds4  v064
 BYTE   W48
 BYTE   Cs4
 BYTE   W36
//  #06 //035   ----------------------------------------
 BYTE   PATT
  POIN2 Label_013CE596
//  #06 //036   ----------------------------------------
 BYTE   W12
 BYTE   N23  Fn3  v064
 BYTE   W24
 BYTE   N44  Cs4
 BYTE   W48
 BYTE   N23
 BYTE   W12
//  #06 //037   ----------------------------------------
 BYTE   PATT
  POIN2 Label_013CE596
//  #06 //038   ----------------------------------------
 BYTE   W11
 BYTE   EOT
 BYTE   Fn2
 BYTE   W01
 BYTE   N92  Fn2  v048
 BYTE   N68  Bn3  v064
 BYTE   W72
 BYTE   N23
 BYTE   W12
//  #06 //039   ----------------------------------------
 BYTE   W12
 BYTE   N44  Fn2  v048
 BYTE   N32  As3  v064
 BYTE   W36
 BYTE   Gs4
 BYTE   W12
 BYTE   N23  Ds2  v048
 BYTE   W24
 BYTE   Dn2
 BYTE   N23  Fn4  v064
 BYTE   W12
//  #06 //040   ----------------------------------------
 BYTE   W12
 BYTE   N44  Ds2  v048
 BYTE   N11  Fs4  v064
 BYTE   W12
 BYTE   As3
 BYTE   W12
 BYTE   Ds4
 BYTE   W12
 BYTE   Fs4
 BYTE   W12
 BYTE   N44  Fn2  v048
 BYTE   N11  Gs4  v064
 BYTE   W12
 BYTE   Cs4
 BYTE   W12
 BYTE   Fn4
 BYTE   W12
//  #06 //041   ----------------------------------------
 BYTE   Gs4
 BYTE   W12
 BYTE   N44  Fs2  v048
 BYTE   N11  As4  v064
 BYTE   W12
 BYTE   Cs4
 BYTE   W12
 BYTE   Fs4
 BYTE   W12
 BYTE   As4
 BYTE   W12
 BYTE   N44  Gn2  v048
 BYTE   N23  Gn4  v064
 BYTE   W24
 BYTE   As4
 BYTE   W12
//  #06 //042   ----------------------------------------
 BYTE   W12
 BYTE   N92  Gs2  v048
 BYTE   N23  Bn4  v064
 BYTE   W24
 BYTE   As4
 BYTE   W24
 BYTE   Gs4
 BYTE   W24
 BYTE   Fs4
 BYTE   W12
//  #06 //043   ----------------------------------------
 BYTE   W12
 BYTE   N44  Fn4
 BYTE   W48
 BYTE   Dn4
 BYTE   W36
//  #06 //044   ----------------------------------------
 BYTE   W12
 BYTE   N11  Ds1  v048
 BYTE   W12
 BYTE   N11
 BYTE   W12
 BYTE   Fn1
 BYTE   N23  Ds5  v064
 BYTE   W12
 BYTE   Fs1  v048
 BYTE   W12
 BYTE   Ds5  v064
 BYTE   W12
 BYTE   N11  Fn1  v048
 BYTE   W12
 BYTE   N23  Fs1
 BYTE   N23  Ds5  v064
 BYTE   W12
//  #06 //045   ----------------------------------------
 BYTE   W12
 BYTE   N11  Fn1  v048
 BYTE   N23  Ds5  v064
 BYTE   W12
 BYTE   Fs1  v048
 BYTE   W12
 BYTE   Ds5  v064
 BYTE   W12
 BYTE   N11  Fn1  v048
 BYTE   W12
 BYTE   Fs1
 BYTE   N23  Ds5  v064
 BYTE   W12
 BYTE   N11  Fn1  v048
 BYTE   W12
 BYTE   En1
 BYTE   N23  Ds5  v064
 BYTE   W12
//  #06 //046   ----------------------------------------
 BYTE   N11  Fn1  v048
 BYTE   W12
 BYTE   Ds1
 BYTE   N23  Ds5  v064
 BYTE   W12
 BYTE   N11  Ds1  v048
 BYTE   W12
 BYTE   Fn1
 BYTE   N23  Ds5  v064
 BYTE   W12
 BYTE   Fs1  v048
 BYTE   W12
 BYTE   Ds5  v064
 BYTE   W12
 BYTE   N11  Fn1  v048
 BYTE   W12
 BYTE   N23  Fs1
 BYTE   N23  Ds5  v064
 BYTE   W12
//  #06 //047   ----------------------------------------
 BYTE   W12
 BYTE   N11  Fn1  v048
 BYTE   N23  Ds5  v064
 BYTE   W12
 BYTE   Fs1  v048
 BYTE   W12
 BYTE   Ds5  v064
 BYTE   W12
 BYTE   N11  Fn1  v048
 BYTE   W12
 BYTE   Fs1
 BYTE   N23  Ds5  v064
 BYTE   W12
 BYTE   N11  Fn1  v048
 BYTE   W12
 BYTE   Fs1
 BYTE   N23  Ds5  v064
 BYTE   W12
//  #06 //048   ----------------------------------------
 BYTE   N11  Gs1  v048
 BYTE   W12
 BYTE   N23  Fs4  v064
 BYTE   W84
//  #06 //049   ----------------------------------------
 BYTE   W12
 BYTE   Fn4
 BYTE   W84
//  #06 //050   ----------------------------------------
 BYTE   W12
 BYTE   En4
 BYTE   W84
//  #06 //051   ----------------------------------------
 BYTE   W12
 BYTE   N32  Ds4
 BYTE   W36
 BYTE   N07  Fn4
 BYTE   W06
 BYTE   W01
 BYTE   N04  Ds4
 BYTE   W05
 BYTE   N44  Dn4
 BYTE   W36
//  #06 //052   ----------------------------------------
 BYTE   W12
 BYTE   N11  Fn1  v048
 BYTE   W12
 BYTE   N11
 BYTE   W12
 BYTE   Gn1
 BYTE   N23  Fn5  v064
 BYTE   W12
 BYTE   Gs1  v048
 BYTE   W12
 BYTE   Fn5  v064
 BYTE   W12
 BYTE   N11  Gn1  v048
 BYTE   W12
 BYTE   N23  Gs1
 BYTE   N23  Fn5  v064
 BYTE   W12
//  #06 //053   ----------------------------------------
 BYTE   W12
 BYTE   N11  Gn1  v048
 BYTE   N23  Fn5  v064
 BYTE   W12
 BYTE   Gs1  v048
 BYTE   W12
 BYTE   Fn5  v064
 BYTE   W12
 BYTE   N11  Gn1  v048
 BYTE   W12
 BYTE   Gs1
 BYTE   N23  Fn5  v064
 BYTE   W12
 BYTE   N11  Gn1  v048
 BYTE   W12
 BYTE   Fs1
 BYTE   N23  Fn5  v064
 BYTE   W12
//  #06 //054   ----------------------------------------
 BYTE   N11  Gn1  v048
 BYTE   W12
 BYTE   Fn1
 BYTE   N23  Fn5  v064
 BYTE   W12
 BYTE   N11  Fn1  v048
 BYTE   W12
 BYTE   Gn1
 BYTE   N23  Fn5  v064
 BYTE   W12
 BYTE   Gs1  v048
 BYTE   W12
 BYTE   Fn5  v064
 BYTE   W12
 BYTE   N11  Gn1  v048
 BYTE   W12
 BYTE   N23  Gs1
 BYTE   N23  Fn5  v064
 BYTE   W12
//  #06 //055   ----------------------------------------
 BYTE   W12
 BYTE   N11  Gn1  v048
 BYTE   N23  Fn5  v064
 BYTE   W12
 BYTE   Gs1  v048
 BYTE   W12
 BYTE   Fn5  v064
 BYTE   W12
 BYTE   N11  Gn1  v048
 BYTE   W12
 BYTE   Gs1
 BYTE   N23  Fn5  v064
 BYTE   W12
 BYTE   N11  Gn1  v048
 BYTE   W12
 BYTE   Gs1
 BYTE   N23  Fn5  v064
 BYTE   W12
//  #06 //056   ----------------------------------------
 BYTE   N11  As1  v048
 BYTE   W12
 BYTE   N23  Gs4  v064
 BYTE   W84
//  #06 //057   ----------------------------------------
 BYTE   W12
 BYTE   Gn4
 BYTE   W84
//  #06 //058   ----------------------------------------
 BYTE   W12
 BYTE   Fs4
 BYTE   W84
//  #06 //059   ----------------------------------------
 BYTE   W12
 BYTE   N32  Fn4
 BYTE   W36
 BYTE   N07  Gn4
 BYTE   W06
 BYTE   W01
 BYTE   N04  Fn4
 BYTE   W05
 BYTE   N44  En4
 BYTE   W36
//  #06 //060   ----------------------------------------
 BYTE   W12
 BYTE   N23  Gs2
 BYTE   N23  Fn4
 BYTE   W24
 BYTE   Gn2
 BYTE   N23  En4
 BYTE   W24
 BYTE   Gs2
 BYTE   N23  Fn4
 BYTE   W24
 BYTE   As2
 BYTE   N23  Gn4
 BYTE   W12
//  #06 //061   ----------------------------------------
 BYTE   W12
 BYTE   Cn3
 BYTE   N23  Gs4
 BYTE   W24
 BYTE   Cn3
 BYTE   N23  Gn4
 BYTE   W24
 BYTE   Cn3
 BYTE   N23  Gs4
 BYTE   W24
 BYTE   Cn3
 BYTE   N23  An4
 BYTE   W12
//  #06 //062   ----------------------------------------
 BYTE   W12
 BYTE   N92  As1  v048
 BYTE   W48
 BYTE   N44  Fn3  v064
 BYTE   W36
//  #06 //063   ----------------------------------------
 BYTE   W12
 BYTE   N92  Cn2  v048
 BYTE   N32  En3  v064
 BYTE   W36
 BYTE   Fn3
 BYTE   W12
 BYTE   W24
 BYTE   N23  Gn3
 BYTE   W12
//  #06 //064   ----------------------------------------
 BYTE   W12
 BYTE   N92  Fn2  v048
 BYTE   N44  As3  v064
 BYTE   W48
 BYTE   Gs3
 BYTE   W36
//  #06 //065   ----------------------------------------
 BYTE   W12
 BYTE   N92  Ds2  v048
 BYTE   N44  As3  v064
 BYTE   W48
 BYTE   Cn4
 BYTE   W36
//  #06 //066   ----------------------------------------
 BYTE   W12
 BYTE   N92  Cs2  v048
 BYTE   W24
 BYTE   N23  Ds4  v064
 BYTE   W24
 BYTE   Cs4
 BYTE   W24
 BYTE   Cn4
 BYTE   W12
//  #06 //067   ----------------------------------------
 BYTE   W12
 BYTE   N92  Cn2  v048
 BYTE   N44  As3  v064
 BYTE   W48
 BYTE   N23  Gn4
 BYTE   W24
 BYTE   En4
 BYTE   W12
//  #06 //068   ----------------------------------------
 BYTE   W12
 BYTE   TIE  Fn1  v048
 BYTE   N44  Gn4  v064
 BYTE   W48
 BYTE   Fn4
 BYTE   W36
//  #06 //069   ----------------------------------------
 BYTE   W12
 BYTE   Gn4
 BYTE   W48
 BYTE   An4
 BYTE   W36
//  #06 //070   ----------------------------------------
 BYTE   W11
 BYTE   EOT
 BYTE   Fn1
 BYTE   W01
 BYTE   N92  As1  v048
 BYTE   W24
 BYTE   N23  Ds5  v064
 BYTE   W24
 BYTE   Cs5
 BYTE   W24
 BYTE   Cn5
 BYTE   W12
//  #06 //071   ----------------------------------------
 BYTE   W12
 BYTE   N92  Cn2  v048
 BYTE   N23  As4  v064
 BYTE   W24
 BYTE   Gs4
 BYTE   W24
 BYTE   Gn4
 BYTE   W24
 BYTE   En4
 BYTE   W12
//  #06 //072   ----------------------------------------
 BYTE   W12
 BYTE   N92  Fn2  v048
 BYTE   N23  Gn4  v064
 BYTE   W24
 BYTE   En4
 BYTE   W24
 BYTE   N44  Fn4
 BYTE   W36
//  #06 //073   ----------------------------------------
 BYTE   W12
 BYTE   N92  Ds2  v048
 BYTE   N23  Fn4  v064
 BYTE   W24
 BYTE   Gn4
 BYTE   W24
 BYTE   Gs4
 BYTE   W24
 BYTE   As4
 BYTE   W12
//  #06 //074   ----------------------------------------
 BYTE   W12
 BYTE   N92  Cs2  v048
 BYTE   N44  Cn5  v064
 BYTE   W48
 BYTE   Fn4
 BYTE   W36
//  #06 //075   ----------------------------------------
 BYTE   W12
 BYTE   N92  Fs1  v048
 BYTE   N44  As4  v064
 BYTE   W48
 BYTE   Cs5
 BYTE   W36
//  #06 //076   ----------------------------------------
 BYTE   W12
 BYTE   TIE  Fn1  v048
 BYTE   N92  Cn5  v064
 BYTE   W84
//  #06 //077   ----------------------------------------
 BYTE   W12
 BYTE   Fn5
 BYTE   W84
//  #06 //078   ----------------------------------------
 BYTE   W11
 BYTE   EOT
 BYTE   Fn1
 BYTE   W01
 BYTE   N92  As1  v048
 BYTE   N23  Fn4  v092
 BYTE   W24
 BYTE   Ds5
 BYTE   W24
 BYTE   Cs5
 BYTE   W24
 BYTE   Cn5
 BYTE   W12
//  #06 //079   ----------------------------------------
Label_013CE849:
 BYTE   W12
 BYTE   N23  Cs2  v048
 BYTE   N44  Cs5  v092
 BYTE   W24
 BYTE   N23  Ds2  v048
 BYTE   W24
 BYTE   Fn2
 BYTE   N44  As4  v092
 BYTE   W24
 BYTE   N23  Cs2  v048
 BYTE   W12
 BYTE   PEND 
//  #06 //080   ----------------------------------------
Label_013CE85F:
 BYTE   W12
 BYTE   N92  Fn2  v048
 BYTE   N23  Fn4  v092
 BYTE   W24
 BYTE   Fn5
 BYTE   W24
 BYTE   Ds5
 BYTE   W24
 BYTE   Cs5
 BYTE   W12
 BYTE   PEND 
//  #06 //081   ----------------------------------------
 BYTE   W12
 BYTE   N44  Ds2  v048
 BYTE   N44  Ds5  v092
 BYTE   W48
 BYTE   Cn2  v048
 BYTE   N44  Cn5  v092
 BYTE   W36
//  #06 //082   ----------------------------------------
Label_013CE87C:
 BYTE   W12
 BYTE   N92  As1  v048
 BYTE   N23  Fn4  v092
 BYTE   W24
 BYTE   Ds5
 BYTE   W24
 BYTE   Cs5
 BYTE   W24
 BYTE   Cn5
 BYTE   W12
 BYTE   PEND 
//  #06 //083   ----------------------------------------
 BYTE   PATT
  POIN2 Label_013CE849
//  #06 //084   ----------------------------------------
 BYTE   W12
 BYTE   N92  Ds2  v048
 BYTE   N23  As4  v092
 BYTE   W24
 BYTE   An4
 BYTE   W24
 BYTE   As4
 BYTE   W24
 BYTE   Cn5
 BYTE   W12
//  #06 //085   ----------------------------------------
 BYTE   W12
 BYTE   N44  Fn2  v048
 BYTE   N44  Cs5  v092
 BYTE   W48
 BYTE   Fn2  v048
 BYTE   N44  Cn5  v092
 BYTE   W36
//  #06 //086   ----------------------------------------
 BYTE   PATT
  POIN2 Label_013CE87C
//  #06 //087   ----------------------------------------
 BYTE   PATT
  POIN2 Label_013CE849
//  #06 //088   ----------------------------------------
 BYTE   PATT
  POIN2 Label_013CE85F
//  #06 //089   ----------------------------------------
 BYTE   W12
 BYTE   N44  Ds2  v048
 BYTE   N44  Ds5  v092
 BYTE   W48
 BYTE   Ds2  v048
 BYTE   N44  As4  v092
 BYTE   W36
//  #06 //090   ----------------------------------------
 BYTE   W12
 BYTE   TIE  Fs2  v048
 BYTE   TIE  Cs5  v092
 BYTE   W84
//  #06 //091   ----------------------------------------
 BYTE   W12
 BYTE   W23
 BYTE   EOT
 BYTE   W01
 BYTE   N23  As4
 BYTE   W24
 BYTE   Cn5
 BYTE   W24
 BYTE   Cs5
 BYTE   W12
//  #06 //092   ----------------------------------------
 BYTE   W11
 BYTE   EOT
 BYTE   Fs2
 BYTE   W01
 BYTE   N92  Ds2  v048
 BYTE   N92  Cn5  v092
 BYTE   W84
//  #06 //093   ----------------------------------------
 BYTE   W12
 BYTE   Cn2  v048
 BYTE   N92  An5  v092
 BYTE   W84
//  #06 //094   ----------------------------------------
 BYTE   W12
 BYTE   N11  As1  v032
 BYTE   W12
 BYTE   N11
 BYTE   N11  As4  v064
 BYTE   W12
 BYTE   As1  v032
 BYTE   N23  As4  v064
 BYTE   W12
 BYTE   N11  As1  v032
 BYTE   W12
 BYTE   N11
 BYTE   N11  As4  v064
 BYTE   W12
 BYTE   As1  v032
 BYTE   N11  As4  v064
 BYTE   W12
 BYTE   As1  v032
 BYTE   W12
//  #06 //095   ----------------------------------------
 BYTE   PATT
  POIN2 Label_013CE399
//  #06 //096   ----------------------------------------
 BYTE   PATT
  POIN2 Label_013CE3C3
//  #06 //097   ----------------------------------------
 BYTE   PATT
  POIN2 Label_013CE3EB
//  #06 //098   ----------------------------------------
 BYTE   PATT
  POIN2 Label_013CE415
//  #06 //099   ----------------------------------------
 BYTE   PATT
  POIN2 Label_013CE399
//  #06 //100   ----------------------------------------
 BYTE   PATT
  POIN2 Label_013CE3C3
//  #06 //101   ----------------------------------------
 BYTE   PATT
  POIN2 Label_013CE447
//  #06 //102   ----------------------------------------
 BYTE   PATT
  POIN2 Label_013CE470
//  #06 //103   ----------------------------------------
 BYTE   PATT
  POIN2 Label_013CE47B
//  #06 //104   ----------------------------------------
 BYTE   GoTo
  POIN2 Label_013CE487
//  #06 //105   ----------------------------------------
 BYTE   N11  Gs4  v064
 BYTE   W12
 BYTE   Cs5
 BYTE   W36
 BYTE   TIE  As1  v072
 BYTE   W60
//  #06 //106   ----------------------------------------
 BYTE   W12
 BYTE   W84
//  #06 //107   ----------------------------------------
 BYTE   W11
 BYTE   EOT
 BYTE   FINE

//**************** Track 7 (Midi-Chn.6) ****************//

Daughter_of_the_Dark_God_Song_007:
//  #07 //000   ----------------------------------------
 BYTE   KEYSH   Daughter_of_the_Dark_God_Song_key+0
 BYTE   VOICE   127
 BYTE   MODT 0
 BYTE   LFOS 44
 BYTE   VOL   111*Daughter_of_the_Dark_God_Song_mvl/mxv
 BYTE   PAN   c_v+0
 BYTE   W12
 BYTE   TIE  Cn1  v080
 BYTE   TIE  Cs2  v072
 BYTE   TIE  An2  v064
 BYTE   W84
//  #07 //001   ----------------------------------------
 BYTE   W36
 BYTE   N36  An1  v080
 BYTE   TIE  Cn2
 BYTE   W36
 BYTE   Fn1
 BYTE   TIE  An1
 BYTE   W24
//  #07 //002   ----------------------------------------
 BYTE   W12
 BYTE   EOT
 BYTE   Cn1  v049
 BYTE   An2
 BYTE   TIE  Cn1
 BYTE   TIE  Cs2  v072
 BYTE   TIE  An2  v064
 BYTE   W84
//  #07 //003   ----------------------------------------
 BYTE   W12
 BYTE   EOT
 BYTE   Fn1  v045
 BYTE   N24  Fn1  v080
 BYTE   N24  An1
 BYTE   W24
 BYTE   TIE  Fn1
 BYTE   TIE  An1
 BYTE   W24
 BYTE   N07  Dn1  v096
 BYTE   W07
 BYTE   N04  Dn1  v052
 BYTE   W05
 BYTE   N07  Dn1  v080
 BYTE   W07
 BYTE   N04  Dn1  v048
 BYTE   W05
 BYTE   N07  Dn1  v080
 BYTE   W07
 BYTE   N04  Dn1  v036
 BYTE   W05
//  #07 //004   ----------------------------------------
 BYTE   N07  Dn1  v080
 BYTE   W07
 BYTE   N76  Dn1  v068
 BYTE   W05
 BYTE   EOT
 BYTE   Cn1  v049
 BYTE   An2
 BYTE   N24  Cn1  v080
 BYTE   TIE  Cs2  v072
 BYTE   TIE  An2  v064
 BYTE   W24
 BYTE   N24  Cn1  v080
 BYTE   N24  Gs1
 BYTE   W12
 BYTE   As1  v048
 BYTE   W12
 BYTE   Cn1  v080
 BYTE   N24  Gs1
 BYTE   W12
 BYTE   As1  v048
 BYTE   W12
 BYTE   Cn1  v080
 BYTE   N96  Dn1
 BYTE   N24  Gs1
 BYTE   W12
//  #07 //005   ----------------------------------------
Label_013DF4C1:
 BYTE   N24  As1  v048
 BYTE   W12
 BYTE   Cn1  v080
 BYTE   N24  Gs1
 BYTE   W12
 BYTE   As1  v048
 BYTE   W12
 BYTE   Cn1  v080
 BYTE   N24  Gs1
 BYTE   W12
 BYTE   As1  v048
 BYTE   W12
 BYTE   Cn1  v080
 BYTE   N24  Gs1
 BYTE   W12
 BYTE   As1  v048
 BYTE   W12
 BYTE   Cn1  v080
 BYTE   N96  Dn1
 BYTE   N24  Gs1
 BYTE   W12
 BYTE   PEND 
//  #07 //006   ----------------------------------------
 BYTE   PATT
  POIN2 Label_013DF4C1
//  #07 //007   ----------------------------------------
 BYTE   N24  As1  v048
 BYTE   W12
 BYTE   Cn1  v080
 BYTE   N24  Gs1
 BYTE   W12
 BYTE   As1  v048
 BYTE   W12
 BYTE   Cn1  v080
 BYTE   N24  Gs1
 BYTE   W12
 BYTE   As1  v048
 BYTE   W12
 BYTE   Cn1  v080
 BYTE   N24  Gs1
 BYTE   W12
 BYTE   N72  As1  v048
 BYTE   W12
 BYTE   N24  Cn1  v080
 BYTE   N96  Dn1
 BYTE   N48  Gs1
 BYTE   TIE  Gn2
 BYTE   W12
//  #07 //008   ----------------------------------------
 BYTE   W12
 BYTE   EOT
 BYTE   Cs2
 BYTE   N24  Cn1
 BYTE   TIE  Cs2  v072
 BYTE   W24
 BYTE   N24  Cn1  v080
 BYTE   N24  Gs1
 BYTE   W12
 BYTE   As1  v048
 BYTE   W12
 BYTE   Cn1  v080
 BYTE   N24  Gs1
 BYTE   W12
 BYTE   As1  v048
 BYTE   W12
 BYTE   Cn1  v080
 BYTE   N96  Dn1
 BYTE   N24  Gs1
 BYTE   W12
//  #07 //009   ----------------------------------------
Label_013DF532:
 BYTE   N24  As1  v048
 BYTE   W12
 BYTE   Cn1  v080
 BYTE   N24  Gs1
 BYTE   W12
 BYTE   As1  v048
 BYTE   W12
 BYTE   Cn1  v080
 BYTE   N24  Gs1
 BYTE   W12
 BYTE   As1  v048
 BYTE   W12
 BYTE   Cn1  v080
 BYTE   N24  Gs1
 BYTE   W12
 BYTE   As1  v048
 BYTE   W12
 BYTE   Cn1  v080
 BYTE   N84  Dn1
 BYTE   N24  Gs1
 BYTE   W12
 BYTE   PEND 
//  #07 //010   ----------------------------------------
 BYTE   As1  v048
 BYTE   W12
 BYTE   Cn1  v080
 BYTE   N24  Gs1
 BYTE   W12
 BYTE   As1  v048
 BYTE   W12
 BYTE   Cn1  v080
 BYTE   N24  Gs1
 BYTE   W12
 BYTE   TIE  As1  v048
 BYTE   W12
 BYTE   Cn1  v080
 BYTE   TIE  Gs1
 BYTE   W12
 BYTE   EOT
 BYTE   An2
 BYTE   N24  Dn1
 BYTE   N24  An2  v064
 BYTE   W24
//  #07 //011   ----------------------------------------
 BYTE   Dn1  v080
 BYTE   N60  An2  v064
 BYTE   W24
 BYTE   N12  Dn1  v092
 BYTE   N12  En1  v080
 BYTE   W12
 BYTE   Dn1  v056
 BYTE   N12  En1  v052
 BYTE   W12
 BYTE   Dn1  v080
 BYTE   TIE  En1  v068
 BYTE   W12
 BYTE   N24  Dn1  v060
 BYTE   N24  An2  v064
 BYTE   W24
 BYTE   TIE  Dn1  v080
 BYTE   N24  An2  v064
 BYTE   W12
//  #07 //012   ----------------------------------------
 BYTE   W12
 BYTE   EOT
 BYTE   Cn1  v049
 BYTE   N24  Cn1  v080
 BYTE   TIE  Cs2  v072
 BYTE   TIE  An2  v064
 BYTE   W24
 BYTE   N36  Cn1  v080
 BYTE   W12
 BYTE   EOT
 BYTE   Cn2
 BYTE   N36
 BYTE   TIE  Dn2
 BYTE   W24
 BYTE   N36  Cn1
 BYTE   W12
 BYTE   EOT
 BYTE   An1
 BYTE   N36
 BYTE   TIE  Cn2
 BYTE   W12
//  #07 //013   ----------------------------------------
 BYTE   W12
 BYTE   N36  Cn1
 BYTE   W12
 BYTE   EOT
 BYTE   Fn1
 BYTE   TIE
 BYTE   TIE  An1
 BYTE   W24
 BYTE   N60  Cn1
 BYTE   W12
 BYTE   EOT
 BYTE   Dn1  v057
 BYTE   N12  Dn1  v096
 BYTE   N48  An2  v064
 BYTE   W12
 BYTE   N07  Dn1  v068
 BYTE   W07
 BYTE   N04  Dn1  v052
 BYTE   W05
Label_013DF5DE:
 BYTE   N12  Dn1  v084
 BYTE   W12
//  #07 //014   ----------------------------------------
 BYTE   N84  Dn1  v080
 BYTE   W12
 BYTE   EOT
 BYTE   Cs2
 BYTE   N24  Cn1
 BYTE   TIE  Cs2  v072
 BYTE   TIE  An2  v064
 BYTE   W12
 BYTE   N12  Fs1  v048
 BYTE   W12
 BYTE   N24  Cn1  v080
 BYTE   N12  Fs1
 BYTE   W12
 BYTE   Fs1  v048
 BYTE   W12
 BYTE   N24  Cn1  v080
 BYTE   N12  Fs1
 BYTE   W12
 BYTE   Fs1  v048
 BYTE   W12
 BYTE   N24  Cn1  v080
 BYTE   N96  Dn1
 BYTE   N12  Fs1
 BYTE   W12
//  #07 //015   ----------------------------------------
Label_013DF60F:
 BYTE   N12  Fs1  v048
 BYTE   W12
 BYTE   N24  Cn1  v080
 BYTE   N12  Fs1
 BYTE   W12
 BYTE   Fs1  v048
 BYTE   W12
 BYTE   N24  Cn1  v080
 BYTE   N12  Fs1
 BYTE   W12
 BYTE   Fs1  v048
 BYTE   W12
 BYTE   N24  Cn1  v080
 BYTE   N12  Fs1
 BYTE   W12
 BYTE   Fs1  v048
 BYTE   W12
 BYTE   N24  Cn1  v080
 BYTE   N96  Dn1
 BYTE   N12  Fs1
 BYTE   W12
 BYTE   PEND 
//  #07 //016   ----------------------------------------
 BYTE   PATT
  POIN2 Label_013DF60F
//  #07 //017   ----------------------------------------
 BYTE   PATT
  POIN2 Label_013DF60F
//  #07 //018   ----------------------------------------
Label_013DF641:
 BYTE   N07  Fs1  v064
 BYTE   W07
 BYTE   N04  Fs1  v048
 BYTE   W05
 BYTE   N24  Cn1  v080
 BYTE   N12  Fs1
 BYTE   W12
 BYTE   Fs1  v048
 BYTE   W12
 BYTE   N24  Cn1  v080
 BYTE   N12  Fs1
 BYTE   W12
 BYTE   Fs1  v048
 BYTE   W12
 BYTE   N24  Cn1  v080
 BYTE   N12  Fs1
 BYTE   W12
 BYTE   Fs1  v048
 BYTE   W12
 BYTE   N24  Cn1  v080
 BYTE   N96  Dn1
 BYTE   N12  Fs1
 BYTE   W12
 BYTE   PEND 
//  #07 //019   ----------------------------------------
 BYTE   PATT
  POIN2 Label_013DF60F
//  #07 //020   ----------------------------------------
 BYTE   PATT
  POIN2 Label_013DF641
//  #07 //021   ----------------------------------------
 BYTE   N12  Fs1  v048
 BYTE   W12
 BYTE   N24  Cn1  v080
 BYTE   N12  Fs1
 BYTE   W12
 BYTE   Fs1  v048
 BYTE   W12
 BYTE   N24  Cn1  v080
 BYTE   N12  Fs1
 BYTE   W12
 BYTE   N07  Fs1  v064
 BYTE   W07
 BYTE   N04  Fs1  v048
 BYTE   W05
 BYTE   N24  Cn1  v080
 BYTE   N07  Fs1  v064
 BYTE   W07
 BYTE   N52  Fs1  v048
 BYTE   W05
 BYTE   EOT
 BYTE   As1
 BYTE   N24  As1  v080
 BYTE   W12
 BYTE   Cn1
 BYTE   N96  Dn1
 BYTE   W12
//  #07 //022   ----------------------------------------
 BYTE   TIE  As1
 BYTE   W12
 BYTE   EOT
 BYTE   Gs1  v049
 BYTE   N24  Cn1
 BYTE   TIE  Gs1
 BYTE   TIE  Cs2  v072
 BYTE   W12
 BYTE   N12  Fs1  v048
 BYTE   W12
 BYTE   N24  Cn1  v080
 BYTE   N12  Fs1
 BYTE   W12
 BYTE   Fs1  v048
 BYTE   W12
 BYTE   N24  Cn1  v080
 BYTE   N12  Fs1
 BYTE   W12
 BYTE   Fs1  v048
 BYTE   W12
 BYTE   N24  Cn1  v080
 BYTE   N96  Dn1
 BYTE   N12  Fs1
 BYTE   W12
//  #07 //023   ----------------------------------------
 BYTE   PATT
  POIN2 Label_013DF641
//  #07 //024   ----------------------------------------
 BYTE   PATT
  POIN2 Label_013DF60F
//  #07 //025   ----------------------------------------
 BYTE   PATT
  POIN2 Label_013DF60F
//  #07 //026   ----------------------------------------
 BYTE   N07  Fs1  v064
 BYTE   W07
 BYTE   N16  Fs1  v048
 BYTE   W05
 BYTE   EOT
 BYTE   Gn2
 BYTE   N24  Cn1  v080
 BYTE   TIE  Gn2
 BYTE   W12
 BYTE   N12  Fs1  v048
 BYTE   W12
 BYTE   N24  Cn1  v080
 BYTE   N12  Fs1
 BYTE   W12
 BYTE   Fs1  v048
 BYTE   W12
 BYTE   N24  Cn1  v080
 BYTE   N12  Fs1
 BYTE   W12
 BYTE   Fs1  v048
 BYTE   W12
 BYTE   N24  Cn1  v080
 BYTE   N96  Dn1
 BYTE   N12  Fs1
 BYTE   W12
//  #07 //027   ----------------------------------------
 BYTE   Fs1  v048
 BYTE   W12
 BYTE   N24  Cn1  v080
 BYTE   N12  Fs1
 BYTE   W12
 BYTE   Fs1  v048
 BYTE   W12
 BYTE   N24  Cn1  v080
 BYTE   N12  Fs1
 BYTE   W12
 BYTE   Fs1  v048
 BYTE   W12
 BYTE   N24  Cn1  v080
 BYTE   N12  Fs1
 BYTE   W12
 BYTE   Fs1  v048
 BYTE   W12
 BYTE   N24  Cn1  v080
 BYTE   TIE  Dn1
 BYTE   N12  Fs1
 BYTE   W12
//  #07 //028   ----------------------------------------
 BYTE   TIE  Fs1  v048
 BYTE   W12
 BYTE   EOT
 BYTE   Cs2
 BYTE   N24  Cn1  v080
 BYTE   TIE  Cs2  v072
 BYTE   W24
 BYTE   EOT
 BYTE   An1  v048
 BYTE   N12  Cn1  v080
 BYTE   N12  An1  v032
 BYTE   N12  Cn2
 BYTE   W12
 BYTE   Cn1  v060
 BYTE   N24  An1
 BYTE   N24  Cn2
 BYTE   W12
 BYTE   N12  Cn1  v080
 BYTE   W12
 BYTE   Cn1  v060
 BYTE   N12  An1  v032
 BYTE   TIE  Cn2
 BYTE   W12
 BYTE   EOT
 BYTE   Fn1
 BYTE   N12  Cn1  v080
 BYTE   N12  Fn1
 BYTE   N12  An1
 BYTE   W12
//  #07 //029   ----------------------------------------
 BYTE   N24  Cn1  v072
 BYTE   TIE  Fn1  v032
 BYTE   TIE  An1
 BYTE   W12
 BYTE   EOT
 BYTE   Dn1  v057
 BYTE   N36  Dn1  v080
 BYTE   N36  An2  v064
 BYTE   W12
 BYTE   N12  Cn1  v048
 BYTE   W12
 BYTE   N24  Cn1  v080
 BYTE   W12
 BYTE   N36  Dn1
 BYTE   N36  An2  v064
 BYTE   W12
 BYTE   N12  Cn1  v048
 BYTE   W12
 BYTE   N24  Cn1  v080
 BYTE   W12
 BYTE   N48  Dn1
 BYTE   N24  An2  v064
 BYTE   W12
//  #07 //030   ----------------------------------------
 BYTE   N12  Cn1  v048
 BYTE   W12
 BYTE   EOT
 BYTE   Cs2
 BYTE   N48  Cn1  v080
 BYTE   TIE  Cs2  v072
 BYTE   TIE  An2  v064
 BYTE   W24
 BYTE   N48  Dn1  v080
 BYTE   N12  Ds2  v048
 BYTE   W12
 BYTE   Ds2  v028
 BYTE   W12
 BYTE   Cn1  v080
 BYTE   N12  Ds2  v048
 BYTE   W12
 BYTE   N24  Cn1  v056
 BYTE   N12  Ds2  v028
 BYTE   W12
 BYTE   N48  Dn1  v080
 BYTE   N12  Ds2  v048
 BYTE   W12
//  #07 //031   ----------------------------------------
Label_013DF7C9:
 BYTE   N12  Cn1  v056
 BYTE   N12  Ds2  v028
 BYTE   W12
 BYTE   N48  Cn1  v080
 BYTE   N12  Ds2  v048
 BYTE   W12
 BYTE   Ds2  v028
 BYTE   W12
 BYTE   N48  Dn1  v080
 BYTE   N12  Ds2  v048
 BYTE   W12
 BYTE   Ds2  v028
 BYTE   W12
 BYTE   Cn1  v080
 BYTE   N12  Ds2  v048
 BYTE   W12
 BYTE   N24  Cn1  v056
 BYTE   N12  Ds2  v028
 BYTE   W12
 BYTE   N48  Dn1  v080
 BYTE   N12  Ds2  v048
 BYTE   W12
 BYTE   PEND 
//  #07 //032   ----------------------------------------
 BYTE   PATT
  POIN2 Label_013DF7C9
//  #07 //033   ----------------------------------------
 BYTE   PATT
  POIN2 Label_013DF7C9
//  #07 //034   ----------------------------------------
 BYTE   PATT
  POIN2 Label_013DF7C9
//  #07 //035   ----------------------------------------
 BYTE   N12  Cn1  v056
 BYTE   N12  Ds2  v028
 BYTE   W12
 BYTE   N48  Cn1  v080
 BYTE   N12  Ds2  v048
 BYTE   W12
 BYTE   Ds2  v028
 BYTE   W12
 BYTE   N48  Dn1  v080
 BYTE   N12  Ds2  v048
 BYTE   W12
 BYTE   Ds2  v028
 BYTE   W12
 BYTE   Cn1  v080
 BYTE   N12  Ds2  v048
 BYTE   W12
 BYTE   N36  Cn1  v056
 BYTE   N12  Ds2  v028
 BYTE   W12
 BYTE   N48  Dn1  v080
 BYTE   N12  Ds2  v048
 BYTE   W12
//  #07 //036   ----------------------------------------
 BYTE   Ds2  v028
 BYTE   W12
 BYTE   N48  Cn1  v080
 BYTE   N12  Ds2  v048
 BYTE   W12
 BYTE   Ds2  v028
 BYTE   W12
 BYTE   N48  Dn1  v080
 BYTE   N12  Ds2  v048
 BYTE   W12
 BYTE   Ds2  v028
 BYTE   W12
 BYTE   Cn1  v080
 BYTE   N12  Ds2  v048
 BYTE   W12
 BYTE   N36  Cn1  v056
 BYTE   N12  Ds2  v028
 BYTE   W12
 BYTE   N48  Dn1  v080
 BYTE   N12  Ds2  v048
 BYTE   W12
//  #07 //037   ----------------------------------------
 BYTE   Ds2  v028
 BYTE   W12
 BYTE   Cn1  v080
 BYTE   N12  Ds2  v048
 BYTE   W12
 BYTE   N36  Cn1  v056
 BYTE   N12  Ds2  v028
 BYTE   W12
 BYTE   N48  Dn1  v080
 BYTE   N12  Ds2  v048
 BYTE   W12
 BYTE   Ds2  v028
 BYTE   W12
 BYTE   Cn1  v080
 BYTE   N24  Ds2  v048
 BYTE   W12
 BYTE   EOT
 BYTE   An2
 BYTE   N36  Cn1  v056
 BYTE   TIE  An2  v052
 BYTE   W12
 BYTE   N48  Dn1  v080
 BYTE   N12  Ds2  v048
 BYTE   W12
//  #07 //038   ----------------------------------------
 BYTE   N36  Ds2  v028
 BYTE   W12
 BYTE   EOT
 BYTE   Cs2
 BYTE   N48  Cn1  v080
 BYTE   TIE  Cs2  v072
 BYTE   W24
 BYTE   N48  Dn1  v080
 BYTE   N12  Ds2  v056
 BYTE   W12
 BYTE   Ds2  v036
 BYTE   W12
 BYTE   Cn1  v080
 BYTE   N12  Ds2  v056
 BYTE   W12
 BYTE   N36  Cn1
 BYTE   N12  Ds2  v036
 BYTE   W12
 BYTE   N48  Dn1  v080
 BYTE   N12  Ds2  v056
 BYTE   W12
//  #07 //039   ----------------------------------------
 BYTE   Ds2  v036
 BYTE   W12
 BYTE   N48  Cn1  v080
 BYTE   N12  Ds2  v056
 BYTE   W12
 BYTE   Ds2  v036
 BYTE   W12
 BYTE   N48  Dn1  v080
 BYTE   N12  Ds2  v056
 BYTE   W12
 BYTE   Ds2  v036
 BYTE   W12
 BYTE   Cn1  v080
 BYTE   N12  Ds2  v056
 BYTE   W12
 BYTE   N36  Cn1
 BYTE   N12  Ds2  v036
 BYTE   W12
 BYTE   TIE  Dn1  v080
 BYTE   N12  Ds2  v056
 BYTE   W12
//  #07 //040   ----------------------------------------
 BYTE   TIE  Ds2  v036
 BYTE   W12
 BYTE   EOT
 BYTE   Cs2  v057
 BYTE   N48  Cn1  v080
 BYTE   N96  Cs2  v072
 BYTE   N48  An2  v064
 BYTE   W24
 BYTE   EOT
 BYTE   An1  v048
 BYTE   N12  An1  v080
 BYTE   N12  Cn2
 BYTE   W12
 BYTE   N24  An1
 BYTE   N84  Cn2
 BYTE   W12
 BYTE   N12  Cn1
 BYTE   TIE  An2  v064
 BYTE   W12
 BYTE   EOT
 BYTE   Fn1
 BYTE   N36  Cn1  v056
 BYTE   N12  Fn1  v080
 BYTE   N12  An1
 BYTE   W12
 BYTE   Fn1  v032
 BYTE   N12  An1
 BYTE   W12
//  #07 //041   ----------------------------------------
 BYTE   N72  Fn1
 BYTE   N36  An1
 BYTE   W12
 BYTE   N48  Cn1  v080
 BYTE   N96  Cs2  v072
 BYTE   W24
 BYTE   N12  An1  v080
 BYTE   N12  Cn2
 BYTE   W12
 BYTE   N24  An1
 BYTE   TIE  Cn2
 BYTE   W12
 BYTE   EOT
 BYTE   Ds2
 BYTE   N12  Cn1
 BYTE   N60  Ds2  v056
 BYTE   W12
 BYTE   N36  Cn1
 BYTE   TIE  Fn1  v080
 BYTE   TIE  An1
 BYTE   W12
 BYTE   EOT
 BYTE   Dn1  v057
 BYTE   N48  Dn1
 BYTE   N24  An2  v064
 BYTE   W12
//  #07 //042   ----------------------------------------
 BYTE   W12
 BYTE   N48  Cn1  v080
 BYTE   N96  Cs2  v072
 BYTE   TIE  An2  v064
 BYTE   W12
 BYTE   N12  Ds2  v036
 BYTE   W12
 BYTE   N48  Dn1  v080
 BYTE   N12  Ds2  v056
 BYTE   W12
 BYTE   Ds2  v036
 BYTE   W12
 BYTE   Cn1  v080
 BYTE   N12  Ds2  v056
 BYTE   W12
 BYTE   N36  Cn1
 BYTE   N12  Ds2  v036
 BYTE   W12
 BYTE   N48  Dn1  v080
 BYTE   N12  Ds2  v056
 BYTE   W12
//  #07 //043   ----------------------------------------
 BYTE   TIE  Ds2  v036
 BYTE   W12
 BYTE   N48  Cn1  v080
 BYTE   N96  Cs2  v056
 BYTE   W24
 BYTE   EOT
 BYTE   An2
 BYTE   N48  Dn1  v080
 BYTE   N24  An2  v052
 BYTE   W24
 BYTE   N12  Cn1  v080
 BYTE   N24  An2  v056
 BYTE   W12
 BYTE   N36  Cn1
 BYTE   W12
 BYTE   TIE  Dn1  v080
 BYTE   N24  An2  v060
 BYTE   W12
//  #07 //044   ----------------------------------------
 BYTE   W12
 BYTE   Cn1  v080
 BYTE   TIE  Cs2  v072
 BYTE   TIE  An2  v064
 BYTE   W24
 BYTE   EOT
 BYTE   Fs1
 BYTE   N24  Cn1  v080
 BYTE   N12  Fs1
 BYTE   W12
 BYTE   N07  Fs1  v064
 BYTE   W07
 BYTE   N04  Fs1  v048
 BYTE   W05
 BYTE   N24  Cn1  v080
 BYTE   N12  Fs1
 BYTE   W12
 BYTE   Fs1  v048
 BYTE   W12
 BYTE   N24  Cn1  v080
 BYTE   N24  Fs1
 BYTE   W12
//  #07 //045   ----------------------------------------
 BYTE   EOT
 BYTE   As1
 BYTE   N72  As1  v048
 BYTE   W12
 BYTE   N24  Cn1  v080
 BYTE   N12  Fs1
 BYTE   W12
 BYTE   Fs1  v048
 BYTE   W12
 BYTE   N24  Cn1  v080
 BYTE   N12  Fs1
 BYTE   W12
 BYTE   N07  Fs1  v064
 BYTE   W07
 BYTE   N04  Fs1  v048
 BYTE   W05
 BYTE   N24  Cn1  v080
 BYTE   N07  Fs1  v064
 BYTE   W07
 BYTE   N52  Fs1  v048
 BYTE   W05
 BYTE   N24  As1  v080
 BYTE   W12
 BYTE   Cn1
 BYTE   W12
//  #07 //046   ----------------------------------------
 BYTE   TIE  As1
 BYTE   W12
 BYTE   EOT
 BYTE   Gs1  v049
 BYTE   N24  Cn1
 BYTE   TIE  Gs1
 BYTE   TIE  Cs2  v072
 BYTE   W12
 BYTE   N12  Fs1  v048
 BYTE   W12
 BYTE   N24  Cn1  v080
 BYTE   N12  Fs1
 BYTE   W12
 BYTE   N07  Fs1  v064
 BYTE   W07
 BYTE   N04  Fs1  v048
 BYTE   W05
 BYTE   N24  Cn1  v080
 BYTE   N12  Fs1
 BYTE   W12
 BYTE   Fs1  v048
 BYTE   W12
 BYTE   N24  Cn1  v080
 BYTE   N12  Fs1
 BYTE   W12
//  #07 //047   ----------------------------------------
 BYTE   Fs1  v048
 BYTE   W12
 BYTE   N24  Cn1  v080
 BYTE   N12  Fs1
 BYTE   W12
 BYTE   N07  Fs1  v064
 BYTE   W07
 BYTE   N04  Fs1  v048
 BYTE   W05
 BYTE   N24  Cn1  v080
 BYTE   N12  Fs1
 BYTE   W12
 BYTE   N84  Fs1  v048
 BYTE   W12
 BYTE   EOT
 BYTE   An2
 BYTE   N48  Cn1  v080
 BYTE   TIE  An2  v048
 BYTE   W24
 BYTE   EOT
 BYTE   Dn1
 BYTE   N07  Dn1  v080
 BYTE   W07
 BYTE   N04  Dn1  v064
 BYTE   W05
//  #07 //048   ----------------------------------------
Label_013DFA50:
 BYTE   N07  Dn1  v080
 BYTE   W07
 BYTE   N28  Dn1  v064
 BYTE   W05
 BYTE   PEND 
 BYTE   EOT
 BYTE   Cs2
 BYTE   N48  Cn1  v080
 BYTE   TIE  Cs2  v072
 BYTE   W24
 BYTE   N48  Dn1  v080
 BYTE   N24  Fs1  v048
 BYTE   W24
 BYTE   N12  Cn1  v080
 BYTE   N24  Fs1  v048
 BYTE   W12
 BYTE   Cn1  v056
 BYTE   W12
 BYTE   N48  Dn1  v080
 BYTE   N24  Fs1  v048
 BYTE   W12
//  #07 //049   ----------------------------------------
 BYTE   Cn1  v056
 BYTE   W12
 BYTE   Fs1  v048
 BYTE   W12
 BYTE   N36  Cn1  v080
 BYTE   W12
 BYTE   N48  Dn1
 BYTE   N24  Fs1  v048
 BYTE   W24
 BYTE   N12  Cn1  v080
 BYTE   N24  Fs1  v048
 BYTE   W12
 BYTE   Cn1  v056
 BYTE   W12
 BYTE   N48  Dn1  v080
 BYTE   N48  Fs1  v048
 BYTE   W12
//  #07 //050   ----------------------------------------
 BYTE   N12  Cn1  v056
 BYTE   W12
 BYTE   EOT
 BYTE   Cs2
 BYTE   N48  Cn1  v080
 BYTE   TIE  Cs2  v072
 BYTE   W24
 BYTE   N48  Dn1  v080
 BYTE   N24  Fs1  v048
 BYTE   W24
 BYTE   N12  Cn1  v080
 BYTE   N24  Fs1  v048
 BYTE   W12
 BYTE   Cn1  v056
 BYTE   W12
 BYTE   N48  Dn1  v080
 BYTE   N24  Fs1  v048
 BYTE   W12
//  #07 //051   ----------------------------------------
 BYTE   Cn1  v056
 BYTE   W12
 BYTE   TIE  Fs1  v048
 BYTE   W12
 BYTE   N12  Cn1  v056
 BYTE   W12
 BYTE   EOT
 BYTE   An2
 BYTE   N72  Cn1  v080
 BYTE   N24  Dn1
 BYTE   N72  An2  v064
 BYTE   W24
 BYTE   N07  Dn1  v040
 BYTE   W07
 BYTE   N04  Dn1  v016
 BYTE   W05
 BYTE   N07  Dn1  v056
 BYTE   W07
 BYTE   N04  Dn1  v028
 BYTE   W05
 BYTE   N07  Dn1  v072
 BYTE   W07
 BYTE   N04  Dn1  v040
 BYTE   W05
//  #07 //052   ----------------------------------------
 BYTE   N07  Dn1  v092
 BYTE   W07
 BYTE   TIE  Dn1  v056
 BYTE   W05
 BYTE   EOT
 BYTE   Fn1  v049
 BYTE   N24  Cn1  v080
 BYTE   TIE  Fn1  v056
 BYTE   TIE  Cs2  v072
 BYTE   TIE  An2  v064
 BYTE   W24
 BYTE   N24  Cn1  v080
 BYTE   W12
 BYTE   EOT
 BYTE   Cn2  v050
 BYTE   N36  Cn2
 BYTE   TIE  Dn2
 BYTE   W12
 BYTE   N24  Cn1
 BYTE   W24
 BYTE   EOT
 BYTE   An1
 BYTE   N24  Cn1
 BYTE   N36  An1
 BYTE   TIE  Cn2
 BYTE   W12
//  #07 //053   ----------------------------------------
 BYTE   W12
 BYTE   N24  Cn1
 BYTE   W12
 BYTE   EOT
 BYTE   Fn1
 BYTE   N12
 BYTE   N12  An1
 BYTE   W12
 BYTE   N24  Cn1
 BYTE   N12  Fn1  v032
 BYTE   N12  An1
 BYTE   W12
 BYTE   TIE  Fn1
 BYTE   N96  An1
 BYTE   W11
 BYTE   EOT
 BYTE   Dn1
 BYTE   W01
 BYTE   An2
 BYTE   N24  Cn1  v080
 BYTE   N19  Dn1
 BYTE   N36  An2  v064
 BYTE   W19
 BYTE   N16  Dn1  v080
 BYTE   W05
 BYTE   N24  Cn1
 BYTE   W12
//  #07 //054   ----------------------------------------
 BYTE   TIE  Dn1
 BYTE   TIE  An2  v064
 BYTE   W12
 BYTE   EOT
 BYTE   Cs2
 BYTE   N24  Cn1  v080
 BYTE   TIE  Cs2  v072
 BYTE   W24
 BYTE   N24  Cn1  v080
 BYTE   W12
 BYTE   EOT
 BYTE   Cn2
 BYTE   N12  An1
 BYTE   N12  Cn2
 BYTE   W12
 BYTE   N24  Cn1
 BYTE   N12  An1  v032
 BYTE   N12  Cn2
 BYTE   W12
 BYTE   An1
 BYTE   TIE  Cn2
 BYTE   W12
 BYTE   EOT
 BYTE   Fn1
 BYTE   N24  Cn1  v080
 BYTE   TIE  Fn1
 BYTE   TIE  An1
 BYTE   W12
//  #07 //055   ----------------------------------------
 BYTE   W12
 BYTE   EOT
 BYTE   Dn1  v057
 BYTE   N24  Cn1
 BYTE   N24  Dn1
 BYTE   TIE  An2  v064
 BYTE   W24
 BYTE   N24  Cn1  v080
 BYTE   N07  Dn1  v096
 BYTE   W07
 BYTE   N04  Dn1  v052
 BYTE   W05
 BYTE   N07  Dn1  v072
 BYTE   W07
 BYTE   N04  Dn1  v048
 BYTE   W05
 BYTE   N24  Cn1  v080
 BYTE   N07  Dn1  v072
 BYTE   W07
 BYTE   N04  Dn1  v040
 BYTE   W05
 BYTE   N07  Dn1  v060
 BYTE   W07
 BYTE   N04  Dn1  v044
 BYTE   W05
 BYTE   N24  Cn1  v080
 BYTE   N07  Dn1  v060
 BYTE   W07
 BYTE   N40
 BYTE   W05
//  #07 //056   ----------------------------------------
 BYTE   EOT
 BYTE   An1
 BYTE   TIE  An1  v080
 BYTE   W07
 BYTE   EOT
 BYTE   Fn1
 BYTE   TIE
 BYTE   W05
 BYTE   EOT
 BYTE   Cs2
 BYTE   N48  Cn1
 BYTE   TIE  Cs2  v072
 BYTE   W24
 BYTE   EOT
 BYTE   Fs1
 BYTE   N48  Dn1  v080
 BYTE   N24  Fs1  v048
 BYTE   W24
 BYTE   N12  Cn1  v080
 BYTE   N24  Fs1  v048
 BYTE   W12
 BYTE   Cn1  v056
 BYTE   W12
 BYTE   N48  Dn1  v080
 BYTE   N24  Fs1  v048
 BYTE   W12
//  #07 //057   ----------------------------------------
 BYTE   Cn1  v056
 BYTE   W12
 BYTE   Fs1  v048
 BYTE   W12
 BYTE   N36  Cn1  v080
 BYTE   W12
 BYTE   N48  Dn1
 BYTE   N24  Fs1  v048
 BYTE   W24
 BYTE   N12  Cn1  v080
 BYTE   N24  Fs1  v048
 BYTE   W12
 BYTE   Cn1  v056
 BYTE   W12
 BYTE   N48  Dn1  v080
 BYTE   N24  Fs1  v048
 BYTE   W12
//  #07 //058   ----------------------------------------
 BYTE   N12  Cn1  v056
 BYTE   W12
 BYTE   N48  Cn1  v080
 BYTE   N24  Fs1  v048
 BYTE   W24
 BYTE   N48  Dn1  v080
 BYTE   N24  Fs1  v048
 BYTE   W24
 BYTE   N12  Cn1  v080
 BYTE   N24  Fs1  v048
 BYTE   W12
 BYTE   Cn1  v056
 BYTE   W12
 BYTE   N36  Dn1  v080
 BYTE   N24  Fs1  v048
 BYTE   W12
//  #07 //059   ----------------------------------------
 BYTE   N12  Cn1  v056
 BYTE   W12
 BYTE   N24  Cn1  v080
 BYTE   W12
 BYTE   N12  Dn1
 BYTE   W12
 BYTE   N24  Cn1
 BYTE   N12  Dn1  v068
 BYTE   W12
 BYTE   Dn1  v048
 BYTE   W12
 BYTE   N24  Cn1  v080
 BYTE   N12  Dn1  v068
 BYTE   W12
 BYTE   TIE  Dn1  v080
 BYTE   W12
 BYTE   EOT
 BYTE   Cn2
 BYTE   N24  Cn1
 BYTE   TIE  Cn2  v068
 BYTE   W07
 BYTE   EOT
 BYTE   An1
 BYTE   TIE
 BYTE   W04
 BYTE   EOT
 BYTE   Fn1
 BYTE   W01
//  #07 //060   ----------------------------------------
 BYTE   TIE
 BYTE   W12
 BYTE   EOT
 BYTE   Cs2
 BYTE   N24  Cn1  v080
 BYTE   N24  Cs2  v064
 BYTE   W24
 BYTE   Cn1  v080
 BYTE   N72  Cs2  v032
 BYTE   W24
 BYTE   EOT
 BYTE   An2
 BYTE   N24  Cn1  v080
 BYTE   N24  An2  v052
 BYTE   W24
 BYTE   Cn1  v080
 BYTE   N72  An2  v032
 BYTE   W12
//  #07 //061   ----------------------------------------
 BYTE   W12
 BYTE   N24  Cn1  v080
 BYTE   N24  Cs2  v064
 BYTE   W24
 BYTE   Cn1  v080
 BYTE   N72  Cs2  v052
 BYTE   W24
 BYTE   N24  Cn1  v080
 BYTE   N24  An2  v068
 BYTE   W24
 BYTE   Cn1  v080
 BYTE   N24  An2  v052
 BYTE   W12
//  #07 //062   ----------------------------------------
 BYTE   W12
 BYTE   N36  Cn1  v080
 BYTE   TIE  Cs2  v072
 BYTE   TIE  An2  v064
 BYTE   W24
 BYTE   EOT
 BYTE   As1
 BYTE   N24  As1  v024
 BYTE   W12
 BYTE   N48  Cn1  v080
 BYTE   W12
 BYTE   EOT
 BYTE   Dn1
 BYTE   N96
 BYTE   N24  As1  v048
 BYTE   W24
 BYTE   As1  v024
 BYTE   W12
//  #07 //063   ----------------------------------------
 BYTE   N12  Cn1  v080
 BYTE   W12
 BYTE   N19
 BYTE   N24  As1  v048
 BYTE   W19
 BYTE   N16  Cn1  v036
 BYTE   W05
 BYTE   N24  As1  v024
 BYTE   W12
 BYTE   N60  Cn1  v080
 BYTE   W12
 BYTE   N96  Dn1
 BYTE   N24  As1  v048
 BYTE   W24
 BYTE   N48  As1  v024
 BYTE   W12
//  #07 //064   ----------------------------------------
 BYTE   W12
 BYTE   EOT
 BYTE   Cs2
 BYTE   N12  Cn1  v080
 BYTE   TIE  Cs2  v056
 BYTE   W12
 BYTE   N72  Cn1  v036
 BYTE   W12
 BYTE   N24  As1  v024
 BYTE   W24
 BYTE   N60  Dn1  v080
 BYTE   N24  As1  v048
 BYTE   W24
 BYTE   As1  v024
 BYTE   W12
//  #07 //065   ----------------------------------------
 BYTE   N12  Cn1  v080
 BYTE   W12
 BYTE   N36
 BYTE   N24  As1  v048
 BYTE   W12
 BYTE   N60  Dn1  v080
 BYTE   W12
 BYTE   N24  As1  v024
 BYTE   W12
 BYTE   Cn1  v080
 BYTE   W12
 BYTE   N72  As1  v048
 BYTE   W12
 BYTE   N36  Cn1  v080
 BYTE   W12
 BYTE   EOT
 BYTE   An2
 BYTE   N72  Dn1
 BYTE   TIE  An2  v044
 BYTE   W12
//  #07 //066   ----------------------------------------
 BYTE   W12
 BYTE   EOT
 BYTE   Cs2
 BYTE   N19  Cn1  v080
 BYTE   TIE  Cs2  v056
 BYTE   W19
 BYTE   N16  Cn1  v036
 BYTE   W05
 BYTE   N24  As1  v024
 BYTE   W12
 BYTE   N48  Cn1  v080
 BYTE   W12
 BYTE   N96  Dn1
 BYTE   N24  As1  v048
 BYTE   W24
 BYTE   As1  v024
 BYTE   W12
//  #07 //067   ----------------------------------------
 BYTE   N12  Cn1  v080
 BYTE   W12
 BYTE   N19
 BYTE   N24  As1  v048
 BYTE   W19
 BYTE   N16  Cn1  v036
 BYTE   W05
 BYTE   N24  As1  v024
 BYTE   W12
 BYTE   N36  Cn1  v080
 BYTE   W12
 BYTE   N96  Dn1
 BYTE   N24  As1  v048
 BYTE   W24
 BYTE   Cn1  v080
 BYTE   N48  As1  v024
 BYTE   W12
//  #07 //068   ----------------------------------------
 BYTE   W12
 BYTE   EOT
 BYTE   Cs2
 BYTE   N19  Cn1  v080
 BYTE   N96  Cs2  v056
 BYTE   W19
 BYTE   N16  Cn1  v036
 BYTE   W05
 BYTE   N24  As1  v024
 BYTE   W12
 BYTE   N36  Cn1  v080
 BYTE   W12
 BYTE   N72  Dn1
 BYTE   N72  As1  v048
 BYTE   W24
 BYTE   EOT
 BYTE   An2
 BYTE   N24  Cn1  v080
 BYTE   TIE  An2  v040
 BYTE   W12
//  #07 //069   ----------------------------------------
 BYTE   W12
 BYTE   N48  Cn1  v080
 BYTE   N96  Cs2  v056
 BYTE   W24
 BYTE   N48  Dn1  v080
 BYTE   N24  As1  v024
 BYTE   W24
 BYTE   N12  Cn1  v080
 BYTE   N24  As1  v048
 BYTE   W12
 BYTE   Cn1  v056
 BYTE   W12
 BYTE   N48  Dn1  v080
 BYTE   TIE  As1  v024
 BYTE   W12
//  #07 //070   ----------------------------------------
 BYTE   N12  Cn1  v056
 BYTE   W12
 BYTE   EOT
 BYTE   An2
 BYTE   N48  Cn1  v080
 BYTE   TIE  Cs2  v072
 BYTE   TIE  An2  v064
 BYTE   W24
 BYTE   EOT
 BYTE   Ds2
 BYTE   N48  Dn1  v080
 BYTE   N12  Ds2  v048
 BYTE   W12
 BYTE   Ds2  v028
 BYTE   W12
 BYTE   Cn1  v080
 BYTE   N12  Ds2  v048
 BYTE   W12
 BYTE   N24  Cn1  v056
 BYTE   N12  Ds2  v028
 BYTE   W12
 BYTE   N48  Dn1  v080
 BYTE   N12  Ds2  v048
 BYTE   W12
//  #07 //071   ----------------------------------------
 BYTE   PATT
  POIN2 Label_013DF7C9
//  #07 //072   ----------------------------------------
 BYTE   PATT
  POIN2 Label_013DF7C9
//  #07 //073   ----------------------------------------
 BYTE   N12  Cn1  v056
 BYTE   N12  Ds2  v028
 BYTE   W12
 BYTE   N48  Cn1  v080
 BYTE   N12  Ds2  v048
 BYTE   W12
 BYTE   Ds2  v028
 BYTE   W12
 BYTE   N48  Dn1  v080
 BYTE   N12  Ds2  v048
 BYTE   W12
 BYTE   Ds2  v028
 BYTE   W12
 BYTE   Cn1  v080
 BYTE   N12  Ds2  v048
 BYTE   W12
 BYTE   N36  Cn1  v056
 BYTE   TIE  Ds2  v028
 BYTE   W12
 BYTE   EOT
 BYTE   An2
 BYTE   TIE  Dn1  v080
 BYTE   N24  An2  v040
 BYTE   W12
//  #07 //074   ----------------------------------------
 BYTE   W12
 BYTE   EOT
 BYTE   Cs2
 BYTE   N60  Cn1  v080
 BYTE   TIE  Cs2  v072
 BYTE   N96  An2  v064
 BYTE   W32
 BYTE   W03
 BYTE   EOT
 BYTE   An1
 BYTE   W01
 BYTE   N24  An1  v080
 BYTE   W01
 BYTE   EOT
 BYTE   Cn2
 BYTE   N92
 BYTE   W23
 BYTE   N36  Cn1
 BYTE   N13  An1  v056
 BYTE   W12
 BYTE   EOT
 BYTE   Fn1
 BYTE   N96  Fn1  v080
 BYTE   W01
 BYTE   N80  An1
 BYTE   W11
//  #07 //075   ----------------------------------------
 BYTE   W12
 BYTE   N72  Cn1
 BYTE   TIE  An2  v064
 BYTE   W36
 BYTE   N07  Cn2
 BYTE   W07
 BYTE   N04  Cn2  v048
 BYTE   W05
 BYTE   TIE  Cn2  v080
 BYTE   W12
 BYTE   N84  An1
 BYTE   W12
 BYTE   N24  Cn1  v056
 BYTE   N96  Fn1  v080
 BYTE   W12
//  #07 //076   ----------------------------------------
 BYTE   W12
 BYTE   EOT
 BYTE   Cs2
 BYTE   N36  Cn1
 BYTE   TIE  Cs2  v072
 BYTE   W36
 BYTE   N60  Cn1  v056
 BYTE   W12
 BYTE   N24  An1  v080
 BYTE   W01
 BYTE   EOT
 BYTE   Cn2
 BYTE   TIE
 BYTE   W23
 BYTE   Fn1
 BYTE   TIE  An1
 BYTE   W12
//  #07 //077   ----------------------------------------
 BYTE   W12
 BYTE   EOT
 BYTE   An2
 BYTE   N36  Cn1
 BYTE   N72  An2  v064
 BYTE   W24
 BYTE   EOT
 BYTE   Ds2
 BYTE   N24  Ds2  v048
 BYTE   W12
 BYTE   Cn1  v080
 BYTE   W12
 BYTE   N72  Ds2  v048
 BYTE   W12
 BYTE   N36  Cn1  v080
 BYTE   W12
 BYTE   EOT
 BYTE   Dn1
 BYTE   N48
 BYTE   N24  An2  v048
 BYTE   W12
//  #07 //078   ----------------------------------------
 BYTE   W12
 BYTE   EOT
 BYTE   Cs2
 BYTE   N48  Cn1  v080
 BYTE   TIE  Cs2  v072
 BYTE   TIE  An2  v064
 BYTE   W24
 BYTE   N48  Dn1  v080
 BYTE   N12  Ds2  v048
 BYTE   W12
 BYTE   Ds2  v028
 BYTE   W12
 BYTE   Cn1  v080
 BYTE   N12  Ds2  v048
 BYTE   W12
 BYTE   N24  Cn1
 BYTE   N12  Ds2  v028
 BYTE   W12
 BYTE   N48  Dn1  v080
 BYTE   N12  Ds2  v048
 BYTE   W12
//  #07 //079   ----------------------------------------
Label_013DFEA3:
 BYTE   N12  Cn1  v048
 BYTE   N12  Ds2  v028
 BYTE   W12
 BYTE   N48  Cn1  v080
 BYTE   N12  Ds2  v048
 BYTE   W12
 BYTE   Ds2  v028
 BYTE   W12
 BYTE   N48  Dn1  v080
 BYTE   N12  Ds2  v048
 BYTE   W12
 BYTE   Ds2  v028
 BYTE   W12
 BYTE   Cn1  v080
 BYTE   N12  Ds2  v048
 BYTE   W12
 BYTE   N24  Cn1
 BYTE   N12  Ds2  v028
 BYTE   W12
 BYTE   N48  Dn1  v080
 BYTE   N12  Ds2  v048
 BYTE   W12
 BYTE   PEND 
//  #07 //080   ----------------------------------------
Label_013DFED2:
 BYTE   N12  Cn1  v048
 BYTE   N36  Ds2  v028
 BYTE   W12
 BYTE   PEND 
 BYTE   EOT
 BYTE   An2
 BYTE   N48  Cn1  v080
 BYTE   TIE  An2  v056
 BYTE   W24
 BYTE   N48  Dn1  v080
 BYTE   N12  Ds2  v048
 BYTE   W12
 BYTE   Ds2  v028
 BYTE   W12
 BYTE   Cn1  v080
 BYTE   N12  Ds2  v048
 BYTE   W12
 BYTE   N24  Cn1
 BYTE   N12  Ds2  v028
 BYTE   W12
 BYTE   N48  Dn1  v080
 BYTE   N12  Ds2  v048
 BYTE   W12
//  #07 //081   ----------------------------------------
 BYTE   Cn1
 BYTE   N12  Ds2  v028
 BYTE   W12
 BYTE   N48  Cn1  v080
 BYTE   N12  Ds2  v048
 BYTE   W12
 BYTE   Ds2  v028
 BYTE   W12
 BYTE   N48  Dn1  v080
 BYTE   N12  Ds2  v048
 BYTE   W12
 BYTE   Ds2  v028
 BYTE   W12
 BYTE   Cn1  v080
 BYTE   N12  Ds2  v048
 BYTE   W12
 BYTE   N24  Cn1
 BYTE   N60  Ds2  v028
 BYTE   W12
 BYTE   EOT
 BYTE   An2
 BYTE   N48  Dn1  v080
 BYTE   TIE  An2  v048
 BYTE   W12
//  #07 //082   ----------------------------------------
 BYTE   N12  Cn1
 BYTE   W12
 BYTE   EOT
 BYTE   Cs2
 BYTE   N48  Cn1  v080
 BYTE   TIE  Cs2  v072
 BYTE   W24
 BYTE   N48  Dn1  v080
 BYTE   N12  Ds2  v048
 BYTE   W12
 BYTE   Ds2  v028
 BYTE   W12
 BYTE   Cn1  v080
 BYTE   N12  Ds2  v048
 BYTE   W12
 BYTE   N24  Cn1
 BYTE   N12  Ds2  v028
 BYTE   W12
 BYTE   N48  Dn1  v080
 BYTE   N12  Ds2  v048
 BYTE   W12
//  #07 //083   ----------------------------------------
 BYTE   PATT
  POIN2 Label_013DFEA3
//  #07 //084   ----------------------------------------
 BYTE   PATT
  POIN2 Label_013DFED2
//  #07 //085   ----------------------------------------
 BYTE   EOT
 BYTE   An2
 BYTE   N48  Cn1  v080
 BYTE   TIE  An2  v056
 BYTE   W24
 BYTE   N48  Dn1  v080
 BYTE   N12  Ds2  v048
 BYTE   W12
 BYTE   Ds2  v028
 BYTE   W12
 BYTE   Cn1  v080
 BYTE   N12  Ds2  v048
 BYTE   W12
 BYTE   N24  Cn1
 BYTE   N12  Ds2  v028
 BYTE   W12
 BYTE   N48  Dn1  v080
 BYTE   N12  Ds2  v048
 BYTE   W12
 BYTE   Cn1
 BYTE   N12  Ds2  v028
 BYTE   W12
//  #07 //086   ----------------------------------------
 BYTE   N48  Cn1  v080
 BYTE   N12  Ds2  v048
 BYTE   W12
 BYTE   N36  Ds2  v028
 BYTE   W12
 BYTE   EOT
 BYTE   An2
 BYTE   N48  Dn1  v080
 BYTE   TIE  An2  v048
 BYTE   W24
 BYTE   N12  Cn1  v080
 BYTE   N12  Ds2  v048
 BYTE   W12
 BYTE   N36  Cn1
 BYTE   N12  Ds2  v028
 BYTE   W12
 BYTE   Dn1  v080
 BYTE   N48  Ds2  v048
 BYTE   W12
//  #07 //087   ----------------------------------------
 BYTE   PATT
  POIN2 Label_013DFA50
//  #07 //088   ----------------------------------------
 BYTE   EOT
 BYTE   Cs2
 BYTE   N48  Cn1  v080
 BYTE   TIE  Cs2  v072
 BYTE   W24
 BYTE   N48  Dn1  v080
 BYTE   N12  Ds2  v048
 BYTE   W12
 BYTE   Ds2  v028
 BYTE   W12
 BYTE   Cn1  v080
 BYTE   N12  Ds2  v048
 BYTE   W12
 BYTE   N24  Cn1
 BYTE   N12  Ds2  v028
 BYTE   W12
 BYTE   N48  Dn1  v080
 BYTE   N12  Ds2  v048
 BYTE   W12
//  #07 //089   ----------------------------------------
 BYTE   PATT
  POIN2 Label_013DFEA3
//  #07 //090   ----------------------------------------
 BYTE   PATT
  POIN2 Label_013DFED2
//  #07 //091   ----------------------------------------
 BYTE   EOT
 BYTE   An2
 BYTE   N48  Cn1  v080
 BYTE   TIE  An2  v056
 BYTE   W24
 BYTE   N48  Dn1  v080
 BYTE   N12  Ds2  v048
 BYTE   W12
 BYTE   Ds2  v028
 BYTE   W12
 BYTE   Cn1  v080
 BYTE   N12  Ds2  v048
 BYTE   W12
 BYTE   N24  Cn1
 BYTE   N12  Ds2  v028
 BYTE   W12
 BYTE   N48  Dn1  v080
 BYTE   N12  Ds2  v048
 BYTE   W12
 BYTE   Cn1
 BYTE   N12  Ds2  v028
 BYTE   W12
//  #07 //092   ----------------------------------------
 BYTE   N48  Cn1  v080
 BYTE   N12  Ds2  v048
 BYTE   W12
 BYTE   Ds2  v028
 BYTE   W12
 BYTE   N48  Dn1  v080
 BYTE   N12  Ds2  v048
 BYTE   W12
 BYTE   Ds2  v028
 BYTE   W12
 BYTE   Cn1  v080
 BYTE   N12  Ds2  v048
 BYTE   W12
 BYTE   N24  Cn1
 BYTE   N12  Ds2  v028
 BYTE   W12
 BYTE   N07  Dn1  v080
 BYTE   N12  Ds2  v048
 BYTE   W07
 BYTE   N40  Dn1  v064
 BYTE   W05
//  #07 //093   ----------------------------------------
 BYTE   PATT
  POIN2 Label_013DFED2
//  #07 //094   ----------------------------------------
 BYTE   EOT
 BYTE   Cs2
 BYTE   N48  Cn1  v080
 BYTE   TIE  Cs2  v072
 BYTE   W24
 BYTE   N48  Dn1  v080
 BYTE   N12  Ds2  v048
 BYTE   W12
 BYTE   Ds2  v028
 BYTE   W12
 BYTE   Cn1  v080
 BYTE   N12  Ds2  v048
 BYTE   W12
 BYTE   N24  Cn1
 BYTE   N12  Ds2  v028
 BYTE   W12
 BYTE   N48  Dn1  v080
 BYTE   N12  Ds2  v048
 BYTE   W12
//  #07 //095   ----------------------------------------
 BYTE   PATT
  POIN2 Label_013DFEA3
//  #07 //096   ----------------------------------------
 BYTE   PATT
  POIN2 Label_013DFED2
//  #07 //097   ----------------------------------------
 BYTE   EOT
 BYTE   An2
 BYTE   N48  Cn1  v080
 BYTE   N48  An2  v056
 BYTE   W24
 BYTE   Dn1  v080
 BYTE   N12  Ds2  v048
 BYTE   W24
 BYTE   Cn1  v080
 BYTE   N24  An2  v040
 BYTE   W12
 BYTE   N36  Cn1  v048
 BYTE   W12
 BYTE   N48  Dn1  v080
 BYTE   N24  An2  v044
 BYTE   W12
 BYTE   W12
//  #07 //098   ----------------------------------------
 BYTE   N12  Cn1  v080
 BYTE   N96  An2  v048
 BYTE   W12
 BYTE   N36  Cn1
 BYTE   W12
 BYTE   EOT
 BYTE   Cs2
 BYTE   TIE  Dn1  v080
 BYTE   N72  Cs2  v048
 BYTE   W23
 BYTE   EOT
 BYTE   Cn2
 BYTE   W01
 BYTE   N24  Cn1
 BYTE   N07  Cn2  v072
 BYTE   W07
 BYTE   N04  Cn2  v056
 BYTE   W05
 BYTE   N07  Cn2  v072
 BYTE   W07
 BYTE   TIE  Cn2  v068
 BYTE   W05
 BYTE   EOT
 BYTE   Fn1  v045
 BYTE   N24  Cn1  v048
 BYTE   N12  Fn1  v080
 BYTE   N12  An1
 BYTE   W12
 BYTE   TIE  Fn1
 BYTE   TIE  An1
 BYTE   W12
//  #07 //099   ----------------------------------------
 BYTE   N24  Cn1
 BYTE   TIE  Cs2  v072
 BYTE   TIE  An2  v064
 BYTE   W24
 BYTE   EOT
 BYTE   Gs1
 BYTE   N24  Cn1  v080
 BYTE   N24  Gs1
 BYTE   W12
 BYTE   EOT
 BYTE   As1
 BYTE   N24  As1  v048
 BYTE   W12
 BYTE   Cn1  v080
 BYTE   N24  Gs1
 BYTE   W12
 BYTE   As1  v048
 BYTE   W12
 BYTE   EOT
 BYTE   Dn1
 BYTE   N24  Cn1  v080
 BYTE   N96  Dn1
 BYTE   N24  Gs1
 BYTE   W12
//  #07 //100   ----------------------------------------
 BYTE   PATT
  POIN2 Label_013DF4C1
//  #07 //101   ----------------------------------------
 BYTE   PATT
  POIN2 Label_013DF4C1
//  #07 //102   ----------------------------------------
 BYTE   N24  As1  v048
 BYTE   W12
 BYTE   Cn1  v080
 BYTE   N24  Gs1
 BYTE   W12
 BYTE   As1  v048
 BYTE   W12
 BYTE   Cn1  v080
 BYTE   N24  Gs1
 BYTE   W12
 BYTE   As1  v048
 BYTE   W12
 BYTE   Cn1  v080
 BYTE   N24  Gs1
 BYTE   W12
 BYTE   N72  As1  v048
 BYTE   W12
 BYTE   EOT
 BYTE   Gn2
 BYTE   N24  Cn1  v080
 BYTE   N96  Dn1
 BYTE   N48  Gs1
 BYTE   W12
//  #07 //103   ----------------------------------------
 BYTE   W12
 BYTE   EOT
 BYTE   Cs2
 BYTE   N24  Cn1
 BYTE   TIE  Cs2  v072
 BYTE   W24
 BYTE   N24  Cn1  v080
 BYTE   N24  Gs1
 BYTE   W12
 BYTE   As1  v048
 BYTE   W12
 BYTE   Cn1  v080
 BYTE   N24  Gs1
 BYTE   W12
 BYTE   As1  v048
 BYTE   W12
 BYTE   Cn1  v080
 BYTE   N96  Dn1
 BYTE   N24  Gs1
 BYTE   W12
//  #07 //104   ----------------------------------------
 BYTE   PATT
  POIN2 Label_013DF532
//  #07 //105   ----------------------------------------
 BYTE   N24  As1  v048
 BYTE   W12
 BYTE   Cn1  v080
 BYTE   N24  Gs1
 BYTE   W12
 BYTE   As1  v048
 BYTE   W12
 BYTE   Cn1  v080
 BYTE   N24  Gs1
 BYTE   W24
 BYTE   TIE  Cn1
 BYTE   W12
 BYTE   EOT
 BYTE   An2
 BYTE   N24  Dn1
 BYTE   N24  An2  v064
 BYTE   W24
//  #07 //106   ----------------------------------------
 BYTE   Dn1  v080
 BYTE   N60  An2  v064
 BYTE   W24
 BYTE   EOT
 BYTE   En1
 BYTE   N12  Dn1  v092
 BYTE   N12  En1  v080
 BYTE   W12
 BYTE   Dn1  v056
 BYTE   N12  En1  v052
 BYTE   W12
 BYTE   Dn1  v080
 BYTE   W12
 BYTE   N24  Dn1  v060
 BYTE   N24  An2  v064
 BYTE   W24
 BYTE   TIE  Dn1  v080
 BYTE   TIE  An2  v064
 BYTE   W12
//  #07 //107   ----------------------------------------
 BYTE   W12
 BYTE   EOT
 BYTE   Cn1  v049
 BYTE   N24  Cn1  v080
 BYTE   TIE  Cs2  v072
 BYTE   W24
 BYTE   N36  Cn1  v080
 BYTE   W11
 BYTE   EOT
 BYTE   Cn2
 BYTE   W01
 BYTE   Dn2
 BYTE   N36  Cn2
 BYTE   W24
 BYTE   Cn1
 BYTE   W12
 BYTE   EOT
 BYTE   An1
 BYTE   N36
 BYTE   W12
//  #07 //108   ----------------------------------------
 BYTE   W12
 BYTE   Cn1
 BYTE   W12
 BYTE   EOT
 BYTE   Fn1
 BYTE   W24
 BYTE   N60  Cn1
 BYTE   W12
 BYTE   EOT
 BYTE   Dn1  v057
 BYTE   N12  Dn1  v096
 BYTE   N72  An2  v064
 BYTE   W12
 BYTE   N07  Dn1  v068
 BYTE   W07
 BYTE   N04  Dn1  v052
 BYTE   W05
 BYTE   GoTo
  POIN2 Label_013DF5DE
//  #07 //109   ----------------------------------------
 BYTE   N12  Dn1  v084
 BYTE   W12
 BYTE   W12
 BYTE   N24  Cn1  v080
 BYTE   W24
 BYTE   EOT
 BYTE   Cs2
 BYTE   FINE

//**************** Track 8 (Midi-Chn.7) ****************//

Daughter_of_the_Dark_God_Song_008:
//  #08 //000   ----------------------------------------
 BYTE   KEYSH   Daughter_of_the_Dark_God_Song_key+0
 BYTE   VOICE   62
 BYTE   MODT 0
 BYTE   LFOS 44
 BYTE   BENDR  12
 BYTE   VOL   50*Daughter_of_the_Dark_God_Song_mvl/mxv
 BYTE   PAN   c_v+0
 BYTE   BENDR  12
 BYTE   VOL   50*Daughter_of_the_Dark_God_Song_mvl/mxv
 BYTE   PAN   c_v+0
 BYTE   N03  Fn3  v056
 BYTE   W01
 BYTE   W02
 BYTE   W01
 BYTE   Fs3
 BYTE   W02
 BYTE   W01
 BYTE   W01
 BYTE   An3  v060
 BYTE   W01
 BYTE   W01
 BYTE   W02
 BYTE   N44  Fs3  v056
 BYTE   N44  As3  v064
 BYTE   W48
 BYTE   Fn3  v056
 BYTE   N44  As3  v064
 BYTE   W36
//  #08 //001   ----------------------------------------
 BYTE   W12
 BYTE   Ds3  v056
 BYTE   N44  Fs3  v064
 BYTE   W48
 BYTE   Cs3  v056
 BYTE   N44  Fs3  v064
 BYTE   W36
//  #08 //002   ----------------------------------------
 BYTE   W12
 BYTE   Cn3  v056
 BYTE   N44  Ds3  v064
 BYTE   W48
 BYTE   As2  v056
 BYTE   N44  Cs3  v064
 BYTE   W36
//  #08 //003   ----------------------------------------
 BYTE   W12
 BYTE   N23  An2  v056
 BYTE   N23  Cn3  v064
 BYTE   W24
 BYTE   As2  v056
 BYTE   N23  Cs3  v064
 BYTE   W24
 BYTE   Cn3  v056
 BYTE   N23  Ds3  v064
 BYTE   W24
 BYTE   Ds3  v056
 BYTE   N23  Fs3  v064
 BYTE   W12
//  #08 //004   ----------------------------------------
 BYTE   W24
 BYTE   N11  Ds3  v056
 BYTE   N11  As3  v064
 BYTE   W12
 BYTE   N23  Ds3  v056
 BYTE   N23  As3  v064
 BYTE   W24
 BYTE   N11  Ds3  v056
 BYTE   N11  As3  v064
 BYTE   W12
 BYTE   Ds3  v056
 BYTE   N11  As3  v064
 BYTE   W24
//  #08 //005   ----------------------------------------
Label_013CE9E4:
 BYTE   TIE  Cs3  v056
 BYTE   TIE  Gs3  v064
 BYTE   W12
 BYTE   W84
 BYTE   PEND 
//  #08 //006   ----------------------------------------
 BYTE   W11
 BYTE   EOT
 BYTE   Cs3  v068
 BYTE   W13
 BYTE   N11  Ds3  v056
 BYTE   N11  As3  v064
 BYTE   W12
 BYTE   N23  Ds3  v056
 BYTE   N23  As3  v064
 BYTE   W24
 BYTE   N11  Ds3  v056
 BYTE   N11  As3  v064
 BYTE   W12
 BYTE   Ds3  v056
 BYTE   N11  As3  v064
 BYTE   W24
//  #08 //007   ----------------------------------------
Label_013CEA0D:
 BYTE   TIE  En3  v056
 BYTE   TIE  Bn3  v064
 BYTE   W12
 BYTE   W84
 BYTE   PEND 
//  #08 //008   ----------------------------------------
 BYTE   W11
 BYTE   EOT
 BYTE   En3  v071
 BYTE   W13
 BYTE   N11  Ds3  v056
 BYTE   N11  As3  v064
 BYTE   W12
 BYTE   N23  Ds3  v056
 BYTE   N23  As3  v064
 BYTE   W24
 BYTE   N11  Ds3  v056
 BYTE   N11  As3  v064
 BYTE   W12
 BYTE   Ds3  v056
 BYTE   N11  As3  v064
 BYTE   W24
//  #08 //009   ----------------------------------------
 BYTE   PATT
  POIN2 Label_013CE9E4
//  #08 //010   ----------------------------------------
 BYTE   W11
 BYTE   EOT
 BYTE   Cs3  v068
 BYTE   W13
 BYTE   N11  Ds3  v056
 BYTE   N11  As3  v064
 BYTE   W12
 BYTE   N23  Ds3  v056
 BYTE   N23  As3  v064
 BYTE   W24
 BYTE   N11  Ds3  v056
 BYTE   N11  As3  v064
 BYTE   W12
 BYTE   Ds3  v056
 BYTE   N11  As3  v064
 BYTE   W24
//  #08 //011   ----------------------------------------
Label_013CEA5B:
 BYTE   N23  Cs4  v064
 BYTE   W12
 BYTE   W12
 BYTE   N11  Bn3
 BYTE   W12
 BYTE   As3
 BYTE   W12
 BYTE   Bn3
 BYTE   W12
 BYTE   N23  Fs3
 BYTE   W24
 BYTE   Gs3
 BYTE   W12
 BYTE   PEND 
//  #08 //012   ----------------------------------------
Label_013CEA6D:
 BYTE   W60
 BYTE   N11  En4  v064
 BYTE   W12
 BYTE   Bn3
 BYTE   W12
 BYTE   N23  Fs3
 BYTE   W12
 BYTE   PEND 
//  #08 //013   ----------------------------------------
Label_013CEA78:
 BYTE   W36
 BYTE   N11  As3  v064
 BYTE   W12
 BYTE   Fn3
 BYTE   W12
 BYTE   Cn3
 BYTE   W12
 BYTE   Ds3
 BYTE   W12
 BYTE   PEND 
Label_013CEA84:
 BYTE   N11  Gs3  v064
 BYTE   W12
//  #08 //014   ----------------------------------------
 BYTE   Cs4
 BYTE   W12
 BYTE   Ds3  v072
 BYTE   W12
 BYTE   Ds3  v044
 BYTE   W12
 BYTE   N11
 BYTE   W12
 BYTE   N11
 BYTE   W12
 BYTE   Cs3  v072
 BYTE   W12
 BYTE   Cs3  v044
 BYTE   W12
 BYTE   N11
 BYTE   W12
//  #08 //015   ----------------------------------------
Label_013CEA9C:
 BYTE   N11  Cs3  v044
 BYTE   W12
 BYTE   Cn3  v072
 BYTE   W12
 BYTE   Cn3  v044
 BYTE   W12
 BYTE   N11
 BYTE   W12
 BYTE   N11
 BYTE   W12
 BYTE   Cs3  v072
 BYTE   W12
 BYTE   Cs3  v044
 BYTE   W12
 BYTE   N11
 BYTE   W12
 BYTE   PEND 
//  #08 //016   ----------------------------------------
 BYTE   N11
 BYTE   W12
 BYTE   Cn3  v072
 BYTE   W12
 BYTE   Cn3  v044
 BYTE   W12
 BYTE   As2  v072
 BYTE   W12
 BYTE   As2  v044
 BYTE   W12
 BYTE   Cs3  v072
 BYTE   W12
 BYTE   Cs3  v044
 BYTE   W12
 BYTE   N11
 BYTE   W12
//  #08 //017   ----------------------------------------
 BYTE   PATT
  POIN2 Label_013CEA9C
//  #08 //018   ----------------------------------------
 BYTE   N11  Cs3  v044
 BYTE   W12
 BYTE   Ds3  v072
 BYTE   W12
 BYTE   Ds3  v044
 BYTE   W12
 BYTE   N11
 BYTE   W12
 BYTE   N11
 BYTE   W12
 BYTE   Cs3  v072
 BYTE   W12
 BYTE   Cs3  v044
 BYTE   W12
 BYTE   N11
 BYTE   W12
//  #08 //019   ----------------------------------------
 BYTE   N11
 BYTE   W12
 BYTE   Cn3  v072
 BYTE   W12
 BYTE   Cn3  v044
 BYTE   W12
 BYTE   N11
 BYTE   W12
 BYTE   Cs3  v072
 BYTE   W12
 BYTE   Cs3  v044
 BYTE   W12
 BYTE   N11
 BYTE   W12
 BYTE   Ds3  v072
 BYTE   W12
//  #08 //020   ----------------------------------------
 BYTE   Ds3  v044
 BYTE   W12
 BYTE   Fn3  v072
 BYTE   W12
 BYTE   Fn3  v044
 BYTE   W12
 BYTE   N11
 BYTE   W12
 BYTE   Fn3  v072
 BYTE   W12
 BYTE   Fn3  v044
 BYTE   W12
 BYTE   N11
 BYTE   W12
 BYTE   Ds3  v072
 BYTE   W12
//  #08 //021   ----------------------------------------
 BYTE   Ds3  v044
 BYTE   W12
 BYTE   Ds3  v072
 BYTE   W12
 BYTE   Ds3  v044
 BYTE   W12
 BYTE   N11
 BYTE   W12
 BYTE   Ds3  v072
 BYTE   W12
 BYTE   Ds3  v044
 BYTE   W12
 BYTE   N11
 BYTE   W12
 BYTE   Ds3  v072
 BYTE   W12
//  #08 //022   ----------------------------------------
 BYTE   Ds3  v044
 BYTE   W12
 BYTE   Ds3  v072
 BYTE   W12
 BYTE   Ds3  v044
 BYTE   W12
 BYTE   N11
 BYTE   W12
 BYTE   N11
 BYTE   W12
 BYTE   Cs3  v072
 BYTE   W12
 BYTE   Cs3  v044
 BYTE   W12
 BYTE   N11
 BYTE   W12
//  #08 //023   ----------------------------------------
 BYTE   N11
 BYTE   W12
 BYTE   Cn3  v072
 BYTE   W12
 BYTE   Cn3  v044
 BYTE   W12
 BYTE   N11
 BYTE   W12
 BYTE   N11
 BYTE   W12
 BYTE   Ds3  v072
 BYTE   W12
 BYTE   Ds3  v044
 BYTE   W12
 BYTE   Cs3  v072
 BYTE   W12
//  #08 //024   ----------------------------------------
 BYTE   Cs3  v044
 BYTE   W12
 BYTE   Cn3  v072
 BYTE   W12
 BYTE   Cn3  v044
 BYTE   W12
 BYTE   N11
 BYTE   W12
 BYTE   Cs3  v072
 BYTE   W12
 BYTE   Cs3  v044
 BYTE   W12
 BYTE   N11
 BYTE   W12
 BYTE   Cs3  v072
 BYTE   W12
//  #08 //025   ----------------------------------------
 BYTE   Cs3  v044
 BYTE   W12
 BYTE   Ds3  v072
 BYTE   W12
 BYTE   Ds3  v044
 BYTE   W12
 BYTE   N11
 BYTE   W12
 BYTE   Fn3  v072
 BYTE   W12
 BYTE   Fn3  v044
 BYTE   W12
 BYTE   N11
 BYTE   W12
 BYTE   Fn3  v072
 BYTE   W12
//  #08 //026   ----------------------------------------
 BYTE   Fn3  v044
 BYTE   W12
 BYTE   Fn3  v072
 BYTE   W12
 BYTE   Fn3  v044
 BYTE   W12
 BYTE   N11
 BYTE   W12
 BYTE   N11
 BYTE   W12
 BYTE   Fn3  v072
 BYTE   W12
 BYTE   Fn3  v044
 BYTE   W12
 BYTE   N11
 BYTE   W12
//  #08 //027   ----------------------------------------
 BYTE   N11
 BYTE   W12
 BYTE   En3  v072
 BYTE   W12
 BYTE   En3  v044
 BYTE   W12
 BYTE   N11
 BYTE   W12
 BYTE   Fn3  v072
 BYTE   W12
 BYTE   Fn3  v044
 BYTE   W12
 BYTE   N11
 BYTE   W12
 BYTE   Gn3  v072
 BYTE   W12
//  #08 //028   ----------------------------------------
 BYTE   Gn3  v044
 BYTE   W12
 BYTE   As3  v072
 BYTE   W12
 BYTE   As3  v044
 BYTE   W12
 BYTE   N11
 BYTE   W12
 BYTE   An3  v072
 BYTE   W12
 BYTE   An3  v044
 BYTE   W12
 BYTE   N11
 BYTE   W12
 BYTE   Gn3  v072
 BYTE   W12
//  #08 //029   ----------------------------------------
 BYTE   Gn3  v044
 BYTE   W12
 BYTE   N23  Fn2  v056
 BYTE   N11  An3  v084
 BYTE   W12
 BYTE   An3  v044
 BYTE   W12
 BYTE   N11
 BYTE   W12
 BYTE   Gn2  v056
 BYTE   N11  As3  v084
 BYTE   W12
 BYTE   As3  v044
 BYTE   W12
 BYTE   N11
 BYTE   W12
 BYTE   N23  An2  v056
 BYTE   N11  Cn4  v084
 BYTE   W12
//  #08 //030   ----------------------------------------
 BYTE   Cn4  v044
 BYTE   W12
 BYTE   N44  Fn3  v048
 BYTE   W48
 BYTE   N44
 BYTE   W36
//  #08 //031   ----------------------------------------
 BYTE   W12
 BYTE   TIE
 BYTE   W24
 BYTE   N23  As2  v056
 BYTE   W24
 BYTE   Cn3
 BYTE   W24
 BYTE   Cs3
 BYTE   W12
//  #08 //032   ----------------------------------------
 BYTE   W12
 BYTE   N32  Ds3
 BYTE   W36
 BYTE   N11  Cs3
 BYTE   W12
 BYTE   N44
 BYTE   W36
//  #08 //033   ----------------------------------------
 BYTE   W12
 BYTE   N23  Cn3
 BYTE   W24
 BYTE   As2
 BYTE   W24
 BYTE   An2
 BYTE   W24
 BYTE   As2
 BYTE   W12
//  #08 //034   ----------------------------------------
 BYTE   W11
 BYTE   EOT
 BYTE   Fn3
 BYTE   W01
 BYTE   N92  Fn2
 BYTE   N44  Fn3  v048
 BYTE   W48
 BYTE   N44
 BYTE   W36
//  #08 //035   ----------------------------------------
 BYTE   W12
 BYTE   N96
 BYTE   W24
 BYTE   N23  As2  v056
 BYTE   W24
 BYTE   An2
 BYTE   W24
 BYTE   As2
 BYTE   W12
//  #08 //036   ----------------------------------------
 BYTE   W12
 BYTE   N68  Fn3
 BYTE   W72
 BYTE   N23  Ds3
 BYTE   W12
//  #08 //037   ----------------------------------------
 BYTE   W12
 BYTE   N23
 BYTE   W24
 BYTE   Cs3
 BYTE   W24
 BYTE   Cn3
 BYTE   W24
 BYTE   Cs3
 BYTE   W12
//  #08 //038   ----------------------------------------
 BYTE   W12
 BYTE   N68  Ds3
 BYTE   N92  Fn3  v048
 BYTE   W72
 BYTE   N23  Ds3  v056
 BYTE   W12
//  #08 //039   ----------------------------------------
 BYTE   W12
 BYTE   N32  Dn3
 BYTE   N32  Fn3  v048
 BYTE   W36
 BYTE   Ds3  v056
 BYTE   N32  Gs3  v048
 BYTE   W12
 BYTE   W24
 BYTE   N23  Fn3  v056
 BYTE   W12
//  #08 //040   ----------------------------------------
 BYTE   W12
 BYTE   N44  Ds3
 BYTE   N44  Fs3  v048
 BYTE   W48
 BYTE   Fn3  v056
 BYTE   N44  Gs3  v048
 BYTE   W36
//  #08 //041   ----------------------------------------
 BYTE   W12
 BYTE   Fs3  v056
 BYTE   N44  As3  v048
 BYTE   W48
 BYTE   Ds3  v056
 BYTE   N23  Ds4  v048
 BYTE   W24
 BYTE   Gn4
 BYTE   W12
//  #08 //042   ----------------------------------------
 BYTE   W12
 BYTE   N44  Bn2  v056
 BYTE   N23  Gs4  v048
 BYTE   W24
 BYTE   Fs4
 BYTE   W24
 BYTE   N44  Ds3  v056
 BYTE   N23  Fn4  v048
 BYTE   W24
 BYTE   Ds4
 BYTE   W12
//  #08 //043   ----------------------------------------
 BYTE   W12
 BYTE   N92  Dn3  v056
 BYTE   N44  Dn4  v048
 BYTE   W48
 BYTE   As3
 BYTE   W36
//  #08 //044   ----------------------------------------
 BYTE   W36
 BYTE   N23  Ds4  v064
 BYTE   W24
 BYTE   N23
 BYTE   W24
 BYTE   N23
 BYTE   W12
//  #08 //045   ----------------------------------------
Label_013CEC89:
 BYTE   W12
 BYTE   N23  Ds4  v064
 BYTE   W24
 BYTE   N23
 BYTE   W24
 BYTE   N23
 BYTE   W24
 BYTE   N23
 BYTE   W12
 BYTE   PEND 
//  #08 //046   ----------------------------------------
 BYTE   PATT
  POIN2 Label_013CEC89
//  #08 //047   ----------------------------------------
 BYTE   PATT
  POIN2 Label_013CEC89
//  #08 //048   ----------------------------------------
 BYTE   W12
 BYTE   N23  Ds4  v064
 BYTE   W84
//  #08 //049   ----------------------------------------
Label_013CECA4:
 BYTE   W12
 BYTE   N23  Bn3  v064
 BYTE   W84
 BYTE   PEND 
//  #08 //050   ----------------------------------------
 BYTE   PATT
  POIN2 Label_013CECA4
//  #08 //051   ----------------------------------------
 BYTE   W12
 BYTE   N44  As3  v064
 BYTE   W48
 BYTE   N44
 BYTE   W36
//  #08 //052   ----------------------------------------
 BYTE   W36
 BYTE   N23  Fn4
 BYTE   W24
 BYTE   N23
 BYTE   W24
 BYTE   N23
 BYTE   W12
//  #08 //053   ----------------------------------------
Label_013CECBE:
 BYTE   W12
 BYTE   N23  Fn4  v064
 BYTE   W24
 BYTE   N23
 BYTE   W24
 BYTE   N23
 BYTE   W24
 BYTE   N23
 BYTE   W12
 BYTE   PEND 
//  #08 //054   ----------------------------------------
 BYTE   PATT
  POIN2 Label_013CECBE
//  #08 //055   ----------------------------------------
 BYTE   PATT
  POIN2 Label_013CECBE
//  #08 //056   ----------------------------------------
 BYTE   W12
 BYTE   N23  Fn4  v064
 BYTE   W84
//  #08 //057   ----------------------------------------
Label_013CECD9:
 BYTE   W12
 BYTE   N23  Cs4  v064
 BYTE   W84
 BYTE   PEND 
//  #08 //058   ----------------------------------------
 BYTE   PATT
  POIN2 Label_013CECD9
//  #08 //059   ----------------------------------------
 BYTE   W12
 BYTE   N44  Cn4  v064
 BYTE   W48
 BYTE   N44
 BYTE   W36
//  #08 //060   ----------------------------------------
 BYTE   W12
 BYTE   N23  Fn3
 BYTE   W24
 BYTE   En3
 BYTE   W24
 BYTE   Fn3
 BYTE   W24
 BYTE   Gn3
 BYTE   W12
//  #08 //061   ----------------------------------------
 BYTE   W12
 BYTE   Gs3
 BYTE   W24
 BYTE   Gn3
 BYTE   W24
 BYTE   Gs3
 BYTE   W24
 BYTE   An3
 BYTE   W12
//  #08 //062   ----------------------------------------
 BYTE   W96
//  #08 //063   ----------------------------------------
 BYTE   W96
//  #08 //064   ----------------------------------------
 BYTE   W96
//  #08 //065   ----------------------------------------
 BYTE   W96
//  #08 //066   ----------------------------------------
 BYTE   W36
 BYTE   N68  Fn3
 BYTE   W60
//  #08 //067   ----------------------------------------
 BYTE   W12
 BYTE   N92  En3
 BYTE   W84
//  #08 //068   ----------------------------------------
 BYTE   W12
 BYTE   TIE  Fn3
 BYTE   W84
//  #08 //069   ----------------------------------------
 BYTE   W12
 BYTE   W84
//  #08 //070   ----------------------------------------
 BYTE   W11
 BYTE   EOT
 BYTE   W24
 BYTE   W01
 BYTE   N23  Ds4
 BYTE   W24
 BYTE   N44  As2  v056
 BYTE   N23  Cs4  v064
 BYTE   W24
 BYTE   Cn4
 BYTE   W12
//  #08 //071   ----------------------------------------
 BYTE   W12
 BYTE   N44  Cn3  v056
 BYTE   N23  As3  v064
 BYTE   W24
 BYTE   Gs3
 BYTE   W24
 BYTE   N44  Gn2  v056
 BYTE   N23  As3  v064
 BYTE   W24
 BYTE   Gn3
 BYTE   W12
//  #08 //072   ----------------------------------------
 BYTE   W12
 BYTE   N44  As2  v056
 BYTE   N23  As3  v064
 BYTE   W24
 BYTE   Gn3
 BYTE   W24
 BYTE   N44  Gs2  v056
 BYTE   N44  Gs3  v064
 BYTE   W36
//  #08 //073   ----------------------------------------
 BYTE   W12
 BYTE   Gn2  v056
 BYTE   N23  Gs3  v064
 BYTE   W24
 BYTE   Gn3
 BYTE   W24
 BYTE   N44  Gs2  v056
 BYTE   N23  Gs3  v064
 BYTE   W24
 BYTE   As3
 BYTE   W12
//  #08 //074   ----------------------------------------
 BYTE   W12
 BYTE   N92  Fn2  v056
 BYTE   N44  Cn4  v064
 BYTE   W48
 BYTE   N23  Fn3
 BYTE   W24
 BYTE   N11  Gn3
 BYTE   W12
//  #08 //075   ----------------------------------------
 BYTE   Gs3
 BYTE   W12
 BYTE   N44  Cs2  v056
 BYTE   N44  As3  v064
 BYTE   W48
 BYTE   Cs2  v056
 BYTE   N44  As3  v064
 BYTE   W36
//  #08 //076   ----------------------------------------
 BYTE   W12
 BYTE   N92  Fn2  v056
 BYTE   N92  As3  v064
 BYTE   W84
//  #08 //077   ----------------------------------------
 BYTE   W12
 BYTE   Fn2  v056
 BYTE   N92  An3  v064
 BYTE   W84
//  #08 //078   ----------------------------------------
Label_013CED82:
 BYTE   W12
 BYTE   N23  Fn3  v064
 BYTE   W24
 BYTE   Ds4
 BYTE   W24
 BYTE   Cs4
 BYTE   W24
 BYTE   Cn4
 BYTE   W12
 BYTE   PEND 
//  #08 //079   ----------------------------------------
Label_013CED8E:
 BYTE   W12
 BYTE   N44  Cs4  v064
 BYTE   W48
 BYTE   As3
 BYTE   W36
 BYTE   PEND 
//  #08 //080   ----------------------------------------
 BYTE   W12
 BYTE   N23  Fn3
 BYTE   W24
 BYTE   Fn4
 BYTE   W24
 BYTE   Ds4
 BYTE   W24
 BYTE   Cs4
 BYTE   W12
//  #08 //081   ----------------------------------------
 BYTE   W12
 BYTE   N44  Ds4
 BYTE   W48
 BYTE   Cn4
 BYTE   W36
//  #08 //082   ----------------------------------------
 BYTE   PATT
  POIN2 Label_013CED82
//  #08 //083   ----------------------------------------
 BYTE   PATT
  POIN2 Label_013CED8E
//  #08 //084   ----------------------------------------
 BYTE   W12
 BYTE   N92  Ds3  v056
 BYTE   N23  As3  v064
 BYTE   W24
 BYTE   An3
 BYTE   W24
 BYTE   As3
 BYTE   W24
 BYTE   Cn4
 BYTE   W12
//  #08 //085   ----------------------------------------
 BYTE   W12
 BYTE   N92  Fn3  v056
 BYTE   N44  Cs4  v064
 BYTE   W48
 BYTE   Cn4
 BYTE   W36
//  #08 //086   ----------------------------------------
 BYTE   W12
 BYTE   N23  Fn3
 BYTE   W24
 BYTE   As2  v056
 BYTE   N23  Ds4  v064
 BYTE   W24
 BYTE   Cn3  v056
 BYTE   N23  Cs4  v064
 BYTE   W24
 BYTE   Cs3  v056
 BYTE   N23  Cn4  v064
 BYTE   W12
//  #08 //087   ----------------------------------------
 BYTE   W12
 BYTE   N44  As2  v056
 BYTE   N44  Cs4  v064
 BYTE   W48
 BYTE   N23  Cn3  v056
 BYTE   N44  As3  v064
 BYTE   W24
 BYTE   N23  Cs3  v056
 BYTE   W12
//  #08 //088   ----------------------------------------
 BYTE   W12
 BYTE   Fn3
 BYTE   W24
 BYTE   Fn4  v064
 BYTE   W24
 BYTE   Ds4
 BYTE   W24
 BYTE   Cs4
 BYTE   W12
//  #08 //089   ----------------------------------------
 BYTE   W12
 BYTE   N44  Ds3  v056
 BYTE   N44  Ds4  v064
 BYTE   W48
 BYTE   Ds3  v056
 BYTE   N44  As3  v064
 BYTE   W36
//  #08 //090   ----------------------------------------
 BYTE   W12
 BYTE   TIE  Cs4
 BYTE   W24
 BYTE   N23  As2  v056
 BYTE   W24
 BYTE   Cn3
 BYTE   W24
 BYTE   Cs3
 BYTE   W12
//  #08 //091   ----------------------------------------
 BYTE   W12
 BYTE   N92  Fn3
 BYTE   W23
 BYTE   EOT
 BYTE   Cs4
 BYTE   W01
 BYTE   N23  As3  v064
 BYTE   W24
 BYTE   Cn4
 BYTE   W24
 BYTE   Cs4
 BYTE   W12
//  #08 //092   ----------------------------------------
 BYTE   W12
 BYTE   N92  Ds3  v056
 BYTE   N92  Cn4  v064
 BYTE   W84
//  #08 //093   ----------------------------------------
 BYTE   W12
 BYTE   Cn3  v056
 BYTE   N92  An4  v064
 BYTE   W84
//  #08 //094   ----------------------------------------
 BYTE   W12
 BYTE   TIE  As2  v032
 BYTE   W12
 BYTE   N11  Ds3  v056
 BYTE   N11  As3  v064
 BYTE   W12
 BYTE   N23  Ds3  v056
 BYTE   N23  As3  v064
 BYTE   W24
 BYTE   N11  Ds3  v056
 BYTE   N11  As3  v064
 BYTE   W12
 BYTE   Ds3  v056
 BYTE   N11  As3  v064
 BYTE   W24
//  #08 //095   ----------------------------------------
 BYTE   PATT
  POIN2 Label_013CE9E4
//  #08 //096   ----------------------------------------
 BYTE   W11
 BYTE   EOT
 BYTE   As2  v061
 BYTE   Gs3
 BYTE   W13
 BYTE   N11  Ds3  v056
 BYTE   N11  As3  v064
 BYTE   W12
 BYTE   N23  Ds3  v056
 BYTE   N23  As3  v064
 BYTE   W24
 BYTE   N11  Ds3  v056
 BYTE   N11  As3  v064
 BYTE   W12
 BYTE   Ds3  v056
 BYTE   N11  As3  v064
 BYTE   W24
//  #08 //097   ----------------------------------------
 BYTE   PATT
  POIN2 Label_013CEA0D
//  #08 //098   ----------------------------------------
 BYTE   W11
 BYTE   EOT
 BYTE   En3  v071
 BYTE   W13
 BYTE   N11  Ds3  v056
 BYTE   N11  As3  v064
 BYTE   W12
 BYTE   N23  Ds3  v056
 BYTE   N23  As3  v064
 BYTE   W24
 BYTE   N11  Ds3  v056
 BYTE   N11  As3  v064
 BYTE   W12
 BYTE   Ds3  v056
 BYTE   N11  As3  v064
 BYTE   W24
//  #08 //099   ----------------------------------------
 BYTE   PATT
  POIN2 Label_013CE9E4
//  #08 //100   ----------------------------------------
 BYTE   W11
 BYTE   EOT
 BYTE   Cs3  v068
 BYTE   W13
 BYTE   N11  Ds3  v056
 BYTE   N11  As3  v064
 BYTE   W12
 BYTE   N23  Ds3  v056
 BYTE   N23  As3  v064
 BYTE   W24
 BYTE   N11  Ds3  v056
 BYTE   N11  As3  v064
 BYTE   W12
 BYTE   Ds3  v056
 BYTE   N11  As3  v064
 BYTE   W24
//  #08 //101   ----------------------------------------
 BYTE   PATT
  POIN2 Label_013CEA5B
//  #08 //102   ----------------------------------------
 BYTE   PATT
  POIN2 Label_013CEA6D
//  #08 //103   ----------------------------------------
 BYTE   PATT
  POIN2 Label_013CEA78
//  #08 //104   ----------------------------------------
 BYTE   GoTo
  POIN2 Label_013CEA84
//  #08 //105   ----------------------------------------
 BYTE   N11  Gs3  v064
 BYTE   W12
 BYTE   Cs4
 BYTE   W11
 BYTE   FINE

//**************** Track 9 (Midi-Chn.8) ****************//

Daughter_of_the_Dark_God_Song_009:
//  #09 //000   ----------------------------------------
 BYTE   KEYSH   Daughter_of_the_Dark_God_Song_key+0
 BYTE   VOICE   40
 BYTE   MODT 0
 BYTE   LFOS 44
 BYTE   BENDR  12
 BYTE   VOL   50*Daughter_of_the_Dark_God_Song_mvl/mxv
 BYTE   PAN   c_v+0
 BYTE   BENDR  12
 BYTE   VOL   50*Daughter_of_the_Dark_God_Song_mvl/mxv
 BYTE   PAN   c_v+0
 BYTE   W96
//  #09 //001   ----------------------------------------
 BYTE   W96
//  #09 //002   ----------------------------------------
 BYTE   W96
//  #09 //003   ----------------------------------------
 BYTE   W96
//  #09 //004   ----------------------------------------
 BYTE   W96
//  #09 //005   ----------------------------------------
 BYTE   W96
//  #09 //006   ----------------------------------------
 BYTE   W96
//  #09 //007   ----------------------------------------
 BYTE   W96
//  #09 //008   ----------------------------------------
 BYTE   W96
//  #09 //009   ----------------------------------------
 BYTE   W96
//  #09 //010   ----------------------------------------
 BYTE   W96
//  #09 //011   ----------------------------------------
 BYTE   W96
//  #09 //012   ----------------------------------------
 BYTE   W96
//  #09 //013   ----------------------------------------
 BYTE   W84
Label_013C9C5E:
 BYTE   W12
//  #09 //014   ----------------------------------------
 BYTE   W96
//  #09 //015   ----------------------------------------
 BYTE   W96
//  #09 //016   ----------------------------------------
 BYTE   W96
//  #09 //017   ----------------------------------------
 BYTE   W96
//  #09 //018   ----------------------------------------
 BYTE   W96
//  #09 //019   ----------------------------------------
 BYTE   W96
//  #09 //020   ----------------------------------------
 BYTE   W96
//  #09 //021   ----------------------------------------
 BYTE   W96
//  #09 //022   ----------------------------------------
 BYTE   W96
//  #09 //023   ----------------------------------------
 BYTE   W96
//  #09 //024   ----------------------------------------
 BYTE   W96
//  #09 //025   ----------------------------------------
 BYTE   W96
//  #09 //026   ----------------------------------------
 BYTE   W96
//  #09 //027   ----------------------------------------
 BYTE   W96
//  #09 //028   ----------------------------------------
 BYTE   W96
//  #09 //029   ----------------------------------------
 BYTE   W12
 BYTE   N23  Fn1  v108
 BYTE   W36
 BYTE   N11  Gn1
 BYTE   W36
 BYTE   N23  An1
 BYTE   W12
//  #09 //030   ----------------------------------------
 BYTE   W96
//  #09 //031   ----------------------------------------
 BYTE   W96
//  #09 //032   ----------------------------------------
 BYTE   W96
//  #09 //033   ----------------------------------------
 BYTE   W96
//  #09 //034   ----------------------------------------
 BYTE   W96
//  #09 //035   ----------------------------------------
 BYTE   W96
//  #09 //036   ----------------------------------------
 BYTE   W96
//  #09 //037   ----------------------------------------
 BYTE   W96
//  #09 //038   ----------------------------------------
 BYTE   W96
//  #09 //039   ----------------------------------------
 BYTE   W96
//  #09 //040   ----------------------------------------
 BYTE   W96
//  #09 //041   ----------------------------------------
 BYTE   W96
//  #09 //042   ----------------------------------------
 BYTE   W96
//  #09 //043   ----------------------------------------
 BYTE   W96
//  #09 //044   ----------------------------------------
 BYTE   W96
//  #09 //045   ----------------------------------------
 BYTE   W96
//  #09 //046   ----------------------------------------
 BYTE   W96
//  #09 //047   ----------------------------------------
 BYTE   W96
//  #09 //048   ----------------------------------------
 BYTE   W96
//  #09 //049   ----------------------------------------
 BYTE   W96
//  #09 //050   ----------------------------------------
 BYTE   W96
//  #09 //051   ----------------------------------------
 BYTE   W96
//  #09 //052   ----------------------------------------
 BYTE   W96
//  #09 //053   ----------------------------------------
 BYTE   W96
//  #09 //054   ----------------------------------------
 BYTE   W96
//  #09 //055   ----------------------------------------
 BYTE   W96
//  #09 //056   ----------------------------------------
 BYTE   W96
//  #09 //057   ----------------------------------------
 BYTE   W96
//  #09 //058   ----------------------------------------
 BYTE   W96
//  #09 //059   ----------------------------------------
 BYTE   W96
//  #09 //060   ----------------------------------------
 BYTE   W12
 BYTE   Fn1  v064
 BYTE   W24
 BYTE   En1
 BYTE   W24
 BYTE   Fn1
 BYTE   W24
 BYTE   Gn1
 BYTE   W12
//  #09 //061   ----------------------------------------
 BYTE   W12
 BYTE   Gs1
 BYTE   W24
 BYTE   Gn1
 BYTE   W24
 BYTE   Gs1
 BYTE   W24
 BYTE   An1
 BYTE   W12
//  #09 //062   ----------------------------------------
 BYTE   W96
//  #09 //063   ----------------------------------------
 BYTE   W96
//  #09 //064   ----------------------------------------
 BYTE   W96
//  #09 //065   ----------------------------------------
 BYTE   W96
//  #09 //066   ----------------------------------------
 BYTE   W96
//  #09 //067   ----------------------------------------
 BYTE   W96
//  #09 //068   ----------------------------------------
 BYTE   W96
//  #09 //069   ----------------------------------------
 BYTE   W96
//  #09 //070   ----------------------------------------
 BYTE   W96
//  #09 //071   ----------------------------------------
 BYTE   W96
//  #09 //072   ----------------------------------------
 BYTE   W96
//  #09 //073   ----------------------------------------
 BYTE   W96
//  #09 //074   ----------------------------------------
 BYTE   W96
//  #09 //075   ----------------------------------------
 BYTE   W96
//  #09 //076   ----------------------------------------
 BYTE   W96
//  #09 //077   ----------------------------------------
 BYTE   W96
//  #09 //078   ----------------------------------------
 BYTE   W96
//  #09 //079   ----------------------------------------
 BYTE   W96
//  #09 //080   ----------------------------------------
 BYTE   W96
//  #09 //081   ----------------------------------------
 BYTE   W96
//  #09 //082   ----------------------------------------
 BYTE   W96
//  #09 //083   ----------------------------------------
 BYTE   W96
//  #09 //084   ----------------------------------------
 BYTE   W96
//  #09 //085   ----------------------------------------
 BYTE   W96
//  #09 //086   ----------------------------------------
 BYTE   W96
//  #09 //087   ----------------------------------------
 BYTE   W96
//  #09 //088   ----------------------------------------
 BYTE   W96
//  #09 //089   ----------------------------------------
 BYTE   W96
//  #09 //090   ----------------------------------------
 BYTE   W96
//  #09 //091   ----------------------------------------
 BYTE   W96
//  #09 //092   ----------------------------------------
 BYTE   W96
//  #09 //093   ----------------------------------------
 BYTE   W96
//  #09 //094   ----------------------------------------
 BYTE   W96
//  #09 //095   ----------------------------------------
 BYTE   W96
//  #09 //096   ----------------------------------------
 BYTE   W96
//  #09 //097   ----------------------------------------
 BYTE   W96
//  #09 //098   ----------------------------------------
 BYTE   W96
//  #09 //099   ----------------------------------------
 BYTE   W96
//  #09 //100   ----------------------------------------
 BYTE   W96
//  #09 //101   ----------------------------------------
 BYTE   W96
//  #09 //102   ----------------------------------------
 BYTE   W96
//  #09 //103   ----------------------------------------
 BYTE   W84
 BYTE   GoTo
  POIN2 Label_013C9C5E
//  #09 //104   ----------------------------------------
 BYTE   W12
 BYTE   W36
 BYTE   TIE  As0  v048
 BYTE   W60
//  #09 //105   ----------------------------------------
 BYTE   W12
 BYTE   W84
//  #09 //106   ----------------------------------------
 BYTE   W11
 BYTE   EOT
 BYTE   FINE

//**************** Track 10 (Midi-Chn.9) ****************//

Daughter_of_the_Dark_God_Song_010:
//  #10 //000   ----------------------------------------
 BYTE   KEYSH   Daughter_of_the_Dark_God_Song_key+0
 BYTE   VOICE   28
 BYTE   MODT 0
 BYTE   LFOS 44
 BYTE   BENDR  12
 BYTE   VOL   50*Daughter_of_the_Dark_God_Song_mvl/mxv
 BYTE   PAN   c_v+0
 BYTE   BENDR  12
 BYTE   VOL   50*Daughter_of_the_Dark_God_Song_mvl/mxv
 BYTE   PAN   c_v+0
 BYTE   W96
//  #10 //001   ----------------------------------------
 BYTE   W96
//  #10 //002   ----------------------------------------
 BYTE   W96
//  #10 //003   ----------------------------------------
 BYTE   W96
//  #10 //004   ----------------------------------------
 BYTE   W12
 BYTE   N11  As1  v044
 BYTE   W12
 BYTE   As1  v036
 BYTE   N11  Fn2
 BYTE   N11  As2
 BYTE   W12
 BYTE   As1  v044
 BYTE   N11  Fn2
 BYTE   N11  As2
 BYTE   W12
 BYTE   As1  v036
 BYTE   W12
 BYTE   As1  v044
 BYTE   N11  Fn2  v036
 BYTE   N11  As2
 BYTE   W12
 BYTE   As1  v044
 BYTE   N11  Fn2
 BYTE   N11  As2
 BYTE   W12
 BYTE   As1
 BYTE   W12
//  #10 //005   ----------------------------------------
Label_013E0217:
 BYTE   N11  As1  v036
 BYTE   W12
 BYTE   As1  v044
 BYTE   W12
 BYTE   As1  v036
 BYTE   W12
 BYTE   As1  v044
 BYTE   W12
 BYTE   As1  v036
 BYTE   W12
 BYTE   As1  v044
 BYTE   W12
 BYTE   As1  v036
 BYTE   W12
 BYTE   As1  v044
 BYTE   W12
 BYTE   PEND 
//  #10 //006   ----------------------------------------
Label_013E0231:
 BYTE   N11  As1  v036
 BYTE   W12
 BYTE   As1  v044
 BYTE   W12
 BYTE   As1  v036
 BYTE   N11  Fn2
 BYTE   N11  As2
 BYTE   W12
 BYTE   As1  v044
 BYTE   N11  Fn2
 BYTE   N11  As2
 BYTE   W12
 BYTE   As1  v036
 BYTE   W12
 BYTE   As1  v044
 BYTE   N11  Fn2  v036
 BYTE   N11  As2
 BYTE   W12
 BYTE   As1  v044
 BYTE   N11  Fn2
 BYTE   N11  As2
 BYTE   W12
 BYTE   As1
 BYTE   W12
 BYTE   PEND 
//  #10 //007   ----------------------------------------
 BYTE   PATT
  POIN2 Label_013E0217
//  #10 //008   ----------------------------------------
 BYTE   PATT
  POIN2 Label_013E0231
//  #10 //009   ----------------------------------------
 BYTE   PATT
  POIN2 Label_013E0217
//  #10 //010   ----------------------------------------
 BYTE   PATT
  POIN2 Label_013E0231
//  #10 //011   ----------------------------------------
Label_013E026F:
 BYTE   N23  Cs2  v044
 BYTE   N23  Gs2
 BYTE   W24
 BYTE   N11  Bn1
 BYTE   N11  Fs2
 BYTE   W12
 BYTE   As1
 BYTE   N11  Fn2
 BYTE   W12
 BYTE   Bn1
 BYTE   N11  Fs2
 BYTE   W12
 BYTE   N23  Fs1
 BYTE   N23  Cs2
 BYTE   W24
 BYTE   Gs1
 BYTE   N23  Ds2
 BYTE   W12
 BYTE   PEND 
//  #10 //012   ----------------------------------------
 BYTE   W96
//  #10 //013   ----------------------------------------
 BYTE   W84
Label_013E028E:
 BYTE   W12
//  #10 //014   ----------------------------------------
 BYTE   W12
 BYTE   N11  As1  v044
 BYTE   W12
 BYTE   As1  v036
 BYTE   W12
 BYTE   As1  v044
 BYTE   W12
 BYTE   As1  v036
 BYTE   W12
 BYTE   As1  v044
 BYTE   W12
 BYTE   As1  v036
 BYTE   W12
 BYTE   As1  v044
 BYTE   W12
//  #10 //015   ----------------------------------------
 BYTE   PATT
  POIN2 Label_013E0217
//  #10 //016   ----------------------------------------
 BYTE   PATT
  POIN2 Label_013E0217
//  #10 //017   ----------------------------------------
 BYTE   PATT
  POIN2 Label_013E0217
//  #10 //018   ----------------------------------------
Label_013E02B5:
 BYTE   N11  As1  v036
 BYTE   W12
 BYTE   Gs1  v044
 BYTE   W12
 BYTE   Gs1  v036
 BYTE   W12
 BYTE   Gs1  v044
 BYTE   W12
 BYTE   Gs1  v036
 BYTE   W12
 BYTE   Gs1  v044
 BYTE   W12
 BYTE   Gs1  v036
 BYTE   W12
 BYTE   Gs1  v044
 BYTE   W12
 BYTE   PEND 
//  #10 //019   ----------------------------------------
Label_013E02CF:
 BYTE   N11  Gs1  v036
 BYTE   W12
 BYTE   Gs1  v044
 BYTE   W12
 BYTE   Gs1  v036
 BYTE   W12
 BYTE   Gs1  v044
 BYTE   W12
 BYTE   Gs1  v036
 BYTE   W12
 BYTE   Gs1  v044
 BYTE   W12
 BYTE   Gs1  v036
 BYTE   W12
 BYTE   Gs1  v044
 BYTE   W12
 BYTE   PEND 
//  #10 //020   ----------------------------------------
 BYTE   Gs1  v036
 BYTE   W12
 BYTE   Fs1  v044
 BYTE   W12
 BYTE   Fs1  v036
 BYTE   W12
 BYTE   Fs1  v044
 BYTE   W12
 BYTE   Fs1  v036
 BYTE   W12
 BYTE   Fs1  v044
 BYTE   W12
 BYTE   Fs1  v036
 BYTE   W12
 BYTE   Fs1  v044
 BYTE   W12
//  #10 //021   ----------------------------------------
Label_013E0301:
 BYTE   N11  Fs1  v036
 BYTE   W12
 BYTE   Fs1  v044
 BYTE   W12
 BYTE   Fs1  v036
 BYTE   W12
 BYTE   Fs1  v044
 BYTE   W12
 BYTE   Fs1  v036
 BYTE   W12
 BYTE   Fs1  v044
 BYTE   W12
 BYTE   Fs1  v036
 BYTE   W12
 BYTE   Fs1  v044
 BYTE   W12
 BYTE   PEND 
//  #10 //022   ----------------------------------------
 BYTE   Fs1  v036
 BYTE   W12
 BYTE   Cn2  v044
 BYTE   W12
 BYTE   Cn2  v036
 BYTE   W12
 BYTE   Cn2  v044
 BYTE   W12
 BYTE   Cn2  v036
 BYTE   W12
 BYTE   Cn2  v044
 BYTE   W12
 BYTE   Cn2  v036
 BYTE   W12
 BYTE   Cn2  v044
 BYTE   W12
//  #10 //023   ----------------------------------------
Label_013E0333:
 BYTE   N11  Cn2  v036
 BYTE   W12
 BYTE   Fn1  v044
 BYTE   W12
 BYTE   Fn1  v036
 BYTE   W12
 BYTE   Fn1  v044
 BYTE   W12
 BYTE   Fn1  v036
 BYTE   W12
 BYTE   Fn1  v044
 BYTE   W12
 BYTE   Fn1  v036
 BYTE   W12
 BYTE   Fn1  v044
 BYTE   W12
 BYTE   PEND 
//  #10 //024   ----------------------------------------
Label_013E034D:
 BYTE   N11  Fn1  v036
 BYTE   W12
 BYTE   As1  v044
 BYTE   W12
 BYTE   As1  v036
 BYTE   W12
 BYTE   As1  v044
 BYTE   W12
 BYTE   As1  v036
 BYTE   W12
 BYTE   As1  v044
 BYTE   W12
 BYTE   As1  v036
 BYTE   W12
 BYTE   As1  v044
 BYTE   W12
 BYTE   PEND 
//  #10 //025   ----------------------------------------
 BYTE   PATT
  POIN2 Label_013E02B5
//  #10 //026   ----------------------------------------
 BYTE   N11  Gs1  v036
 BYTE   W12
 BYTE   Gn1  v044
 BYTE   W12
 BYTE   Gn1  v036
 BYTE   W12
 BYTE   Gn1  v044
 BYTE   W12
 BYTE   Gn1  v036
 BYTE   W12
 BYTE   Gn1  v044
 BYTE   W12
 BYTE   Gn1  v036
 BYTE   W12
 BYTE   Gn1  v044
 BYTE   W12
//  #10 //027   ----------------------------------------
 BYTE   Gn1  v036
 BYTE   W12
 BYTE   Cn2  v044
 BYTE   W12
 BYTE   Cn2  v036
 BYTE   W12
 BYTE   Cn2  v044
 BYTE   W12
 BYTE   Cn2  v036
 BYTE   W12
 BYTE   Cn2  v044
 BYTE   W12
 BYTE   Cn2  v036
 BYTE   W12
 BYTE   Cn2  v044
 BYTE   W12
//  #10 //028   ----------------------------------------
 BYTE   PATT
  POIN2 Label_013E0333
//  #10 //029   ----------------------------------------
 BYTE   N11  Fn1  v036
 BYTE   W12
 BYTE   Fn1  v072
 BYTE   W12
 BYTE   Fn1  v036
 BYTE   W12
 BYTE   N11
 BYTE   W12
 BYTE   Gn1  v072
 BYTE   W12
 BYTE   Gn1  v036
 BYTE   W12
 BYTE   N11
 BYTE   W12
 BYTE   An1  v072
 BYTE   W12
//  #10 //030   ----------------------------------------
 BYTE   An1  v036
 BYTE   W12
 BYTE   As1  v044
 BYTE   W12
 BYTE   As1  v036
 BYTE   W12
 BYTE   As1  v044
 BYTE   N11  Fn2
 BYTE   N11  As2
 BYTE   W12
 BYTE   As1  v036
 BYTE   W12
 BYTE   As1  v044
 BYTE   W12
 BYTE   N11
 BYTE   N11  Fn2
 BYTE   N11  As2
 BYTE   W12
 BYTE   As1
 BYTE   W12
//  #10 //031   ----------------------------------------
 BYTE   PATT
  POIN2 Label_013E0217
//  #10 //032   ----------------------------------------
 BYTE   N11  As1  v036
 BYTE   W12
 BYTE   As1  v044
 BYTE   W12
 BYTE   As1  v036
 BYTE   W12
 BYTE   As1  v044
 BYTE   N11  Fn2
 BYTE   N11  As2
 BYTE   W12
 BYTE   As1  v036
 BYTE   W12
 BYTE   As1  v044
 BYTE   W12
 BYTE   N11
 BYTE   N11  Fn2
 BYTE   N11  As2
 BYTE   W12
 BYTE   As1
 BYTE   W12
//  #10 //033   ----------------------------------------
 BYTE   PATT
  POIN2 Label_013E0217
//  #10 //034   ----------------------------------------
 BYTE   N11  As1  v036
 BYTE   W12
 BYTE   Gs1  v044
 BYTE   W12
 BYTE   Gs1  v036
 BYTE   W12
 BYTE   Gs1  v044
 BYTE   N11  Ds2
 BYTE   N11  Gs2
 BYTE   W12
 BYTE   Gs1  v036
 BYTE   W12
 BYTE   Gs1  v044
 BYTE   W12
 BYTE   N11
 BYTE   N11  Ds2
 BYTE   N11  Gs2
 BYTE   W12
 BYTE   Gs1
 BYTE   W12
//  #10 //035   ----------------------------------------
 BYTE   PATT
  POIN2 Label_013E02CF
//  #10 //036   ----------------------------------------
 BYTE   N11  Gs1  v036
 BYTE   W12
 BYTE   Fs1  v044
 BYTE   W12
 BYTE   Fs1  v036
 BYTE   W12
 BYTE   Fs1  v044
 BYTE   N11  Cs2
 BYTE   N11  Fs2
 BYTE   W12
 BYTE   Fs1  v036
 BYTE   W12
 BYTE   Fs1  v044
 BYTE   W12
 BYTE   N11
 BYTE   N11  Cs2
 BYTE   N11  Fs2
 BYTE   W12
 BYTE   Fs1
 BYTE   W12
//  #10 //037   ----------------------------------------
 BYTE   PATT
  POIN2 Label_013E0301
//  #10 //038   ----------------------------------------
 BYTE   N11  Fs1  v036
 BYTE   W12
 BYTE   Fn1  v044
 BYTE   W12
 BYTE   Fn1  v036
 BYTE   W12
 BYTE   Fn1  v044
 BYTE   N11  Bn1
 BYTE   N11  Fn2
 BYTE   W12
 BYTE   Fn1  v036
 BYTE   W12
 BYTE   Fn1  v044
 BYTE   W12
 BYTE   N11
 BYTE   N11  Bn1
 BYTE   N11  Fn2
 BYTE   W12
 BYTE   Fn1
 BYTE   W12
//  #10 //039   ----------------------------------------
 BYTE   PATT
  POIN2 Label_013E034D
//  #10 //040   ----------------------------------------
 BYTE   N11  As1  v036
 BYTE   W12
 BYTE   Ds1  v044
 BYTE   W12
 BYTE   Ds1  v036
 BYTE   W12
 BYTE   Ds1  v044
 BYTE   W12
 BYTE   Ds1  v036
 BYTE   W12
 BYTE   Fn1  v044
 BYTE   W12
 BYTE   Fn1  v036
 BYTE   W12
 BYTE   Fn1  v044
 BYTE   W12
//  #10 //041   ----------------------------------------
 BYTE   Fn1  v036
 BYTE   W12
 BYTE   Fs1  v044
 BYTE   W12
 BYTE   Fs1  v036
 BYTE   W12
 BYTE   Fs1  v044
 BYTE   W12
 BYTE   Fs1  v036
 BYTE   W12
 BYTE   Gn1  v044
 BYTE   W12
 BYTE   Gn1  v036
 BYTE   W12
 BYTE   Gn1  v044
 BYTE   W12
//  #10 //042   ----------------------------------------
 BYTE   Gn1  v036
 BYTE   W12
 BYTE   Gs1  v044
 BYTE   W12
 BYTE   Gs1  v036
 BYTE   W12
 BYTE   Gs1  v044
 BYTE   N11  Ds2
 BYTE   N11  Gs2
 BYTE   W12
 BYTE   Gs1  v036
 BYTE   W12
 BYTE   Gs1  v044
 BYTE   W12
 BYTE   N11
 BYTE   N11  Ds2
 BYTE   N11  Gs2
 BYTE   W12
 BYTE   Gs1
 BYTE   W12
//  #10 //043   ----------------------------------------
 BYTE   Gs1  v036
 BYTE   W12
 BYTE   As1  v044
 BYTE   W12
 BYTE   As1  v036
 BYTE   W12
 BYTE   As1  v044
 BYTE   N11  Fn2
 BYTE   N11  As2
 BYTE   W12
 BYTE   As1  v036
 BYTE   W12
 BYTE   As1  v044
 BYTE   W12
 BYTE   N11
 BYTE   N11  Fn2
 BYTE   N11  As2
 BYTE   W12
 BYTE   As1
 BYTE   W12
//  #10 //044   ----------------------------------------
 BYTE   As1  v036
 BYTE   W12
 BYTE   Ds1  v068
 BYTE   N11  Ds2
 BYTE   W12
 BYTE   Ds1
 BYTE   N11  Ds2
 BYTE   W12
 BYTE   Fn1
 BYTE   N11  Fn2
 BYTE   W12
 BYTE   N23  Fs1
 BYTE   N23  Fs2
 BYTE   W24
 BYTE   N11  Fn1
 BYTE   N11  Fn2
 BYTE   W12
 BYTE   N23  Fs1
 BYTE   N23  Fs2
 BYTE   W12
//  #10 //045   ----------------------------------------
 BYTE   W12
 BYTE   N11  Fn1
 BYTE   N11  Fn2
 BYTE   W12
 BYTE   N23  Fs1
 BYTE   N23  Fs2
 BYTE   W24
 BYTE   N11  Fn1
 BYTE   N11  Fn2
 BYTE   W12
 BYTE   Fs1
 BYTE   N11  Fs2
 BYTE   W12
 BYTE   Fn1
 BYTE   N11  Fn2
 BYTE   W12
 BYTE   En1
 BYTE   N11  En2
 BYTE   W12
//  #10 //046   ----------------------------------------
 BYTE   Fn1
 BYTE   N11  Fn2
 BYTE   W12
 BYTE   Ds1
 BYTE   N11  Ds2
 BYTE   W12
 BYTE   Ds1
 BYTE   N11  Ds2
 BYTE   W12
 BYTE   Fn1
 BYTE   N11  Fn2
 BYTE   W12
 BYTE   N23  Fs1
 BYTE   N23  Fs2
 BYTE   W24
 BYTE   N11  Fn1
 BYTE   N11  Fn2
 BYTE   W12
 BYTE   N23  Fs1
 BYTE   N23  Fs2
 BYTE   W12
//  #10 //047   ----------------------------------------
 BYTE   W12
 BYTE   N11  Fn1
 BYTE   N11  Fn2
 BYTE   W12
 BYTE   N23  Fs1
 BYTE   N23  Fs2
 BYTE   W24
 BYTE   N11  Fn1
 BYTE   N11  Fn2
 BYTE   W12
 BYTE   Fs1
 BYTE   N11  Fs2
 BYTE   W12
 BYTE   Fn1
 BYTE   N11  Fn2
 BYTE   W12
 BYTE   Fs1
 BYTE   N11  Fs2
 BYTE   W12
//  #10 //048   ----------------------------------------
 BYTE   Gs1
 BYTE   N11  Gs2
 BYTE   W12
 BYTE   Ds1  v044
 BYTE   N11  Ds2
 BYTE   W12
 BYTE   Ds1  v036
 BYTE   N11  Ds2
 BYTE   W12
 BYTE   Ds1  v044
 BYTE   N11  Ds2
 BYTE   W12
 BYTE   Ds1  v036
 BYTE   N11  Ds2
 BYTE   W12
 BYTE   Ds1  v044
 BYTE   N11  Ds2
 BYTE   W12
 BYTE   Ds1  v036
 BYTE   N11  Ds2
 BYTE   W12
 BYTE   Ds1  v044
 BYTE   N11  Ds2
 BYTE   W12
//  #10 //049   ----------------------------------------
Label_013E0576:
 BYTE   N11  Ds1  v036
 BYTE   N11  Ds2
 BYTE   W12
 BYTE   Ds1  v044
 BYTE   N11  Ds2
 BYTE   W12
 BYTE   Ds1  v036
 BYTE   N11  Ds2
 BYTE   W12
 BYTE   Ds1  v044
 BYTE   N11  Ds2
 BYTE   W12
 BYTE   Ds1  v036
 BYTE   N11  Ds2
 BYTE   W12
 BYTE   Ds1  v044
 BYTE   N11  Ds2
 BYTE   W12
 BYTE   Ds1  v036
 BYTE   N11  Ds2
 BYTE   W12
 BYTE   Ds1  v044
 BYTE   N11  Ds2
 BYTE   W12
 BYTE   PEND 
//  #10 //050   ----------------------------------------
 BYTE   PATT
  POIN2 Label_013E0576
//  #10 //051   ----------------------------------------
 BYTE   PATT
  POIN2 Label_013E0576
//  #10 //052   ----------------------------------------
 BYTE   N11  Ds1  v036
 BYTE   N11  Ds2
 BYTE   W12
 BYTE   Fn1  v068
 BYTE   N11  Fn2
 BYTE   W12
 BYTE   Fn1
 BYTE   N11  Fn2
 BYTE   W12
 BYTE   Gn1
 BYTE   N11  Gn2
 BYTE   W12
 BYTE   N23  Gs1
 BYTE   N23  Gs2
 BYTE   W24
 BYTE   N11  Gn1
 BYTE   N11  Gn2
 BYTE   W12
 BYTE   N23  Gs1
 BYTE   N23  Gs2
 BYTE   W12
//  #10 //053   ----------------------------------------
 BYTE   W12
 BYTE   N11  Gn1
 BYTE   N11  Gn2
 BYTE   W12
 BYTE   N23  Gs1
 BYTE   N23  Gs2
 BYTE   W24
 BYTE   N11  Gn1
 BYTE   N11  Gn2
 BYTE   W12
 BYTE   Gs1
 BYTE   N11  Gs2
 BYTE   W12
 BYTE   Gn1
 BYTE   N11  Gn2
 BYTE   W12
 BYTE   Fs1
 BYTE   N11  Fs2
 BYTE   W12
//  #10 //054   ----------------------------------------
 BYTE   Gn1
 BYTE   N11  Gn2
 BYTE   W12
 BYTE   Fn1
 BYTE   N11  Fn2
 BYTE   W12
 BYTE   Fn1
 BYTE   N11  Fn2
 BYTE   W12
 BYTE   Gn1
 BYTE   N11  Gn2
 BYTE   W12
 BYTE   N23  Gs1
 BYTE   N23  Gs2
 BYTE   W24
 BYTE   N11  Gn1
 BYTE   N11  Gn2
 BYTE   W12
 BYTE   N23  Gs1
 BYTE   N23  Gs2
 BYTE   W12
//  #10 //055   ----------------------------------------
 BYTE   W12
 BYTE   N11  Gn1
 BYTE   N11  Gn2
 BYTE   W12
 BYTE   N23  Gs1
 BYTE   N23  Gs2
 BYTE   W24
 BYTE   N11  Gn1
 BYTE   N11  Gn2
 BYTE   W12
 BYTE   Gs1
 BYTE   N11  Gs2
 BYTE   W12
 BYTE   Gn1
 BYTE   N11  Gn2
 BYTE   W12
 BYTE   Gs1
 BYTE   N11  Gs2
 BYTE   W12
//  #10 //056   ----------------------------------------
 BYTE   As1
 BYTE   N11  As2
 BYTE   W12
 BYTE   Fn1  v044
 BYTE   N11  Fn2
 BYTE   W12
 BYTE   Fn1  v036
 BYTE   N11  Fn2
 BYTE   W12
 BYTE   Fn1  v044
 BYTE   N11  Fn2
 BYTE   W12
 BYTE   Fn1  v036
 BYTE   N11  Fn2
 BYTE   W12
 BYTE   Fn1  v044
 BYTE   N11  Fn2
 BYTE   W12
 BYTE   Fn1  v036
 BYTE   N11  Fn2
 BYTE   W12
 BYTE   Fn1  v044
 BYTE   N11  Fn2
 BYTE   W12
//  #10 //057   ----------------------------------------
Label_013E064A:
 BYTE   N11  Fn1  v036
 BYTE   N11  Fn2
 BYTE   W12
 BYTE   Fn1  v044
 BYTE   N11  Fn2
 BYTE   W12
 BYTE   Fn1  v036
 BYTE   N11  Fn2
 BYTE   W12
 BYTE   Fn1  v044
 BYTE   N11  Fn2
 BYTE   W12
 BYTE   Fn1  v036
 BYTE   N11  Fn2
 BYTE   W12
 BYTE   Fn1  v044
 BYTE   N11  Fn2
 BYTE   W12
 BYTE   Fn1  v036
 BYTE   N11  Fn2
 BYTE   W12
 BYTE   Fn1  v044
 BYTE   N11  Fn2
 BYTE   W12
 BYTE   PEND 
//  #10 //058   ----------------------------------------
 BYTE   PATT
  POIN2 Label_013E064A
//  #10 //059   ----------------------------------------
 BYTE   PATT
  POIN2 Label_013E064A
//  #10 //060   ----------------------------------------
 BYTE   N11  Fn1  v036
 BYTE   N11  Fn2
 BYTE   W96
//  #10 //061   ----------------------------------------
 BYTE   W96
//  #10 //062   ----------------------------------------
 BYTE   W96
//  #10 //063   ----------------------------------------
 BYTE   W96
//  #10 //064   ----------------------------------------
 BYTE   W96
//  #10 //065   ----------------------------------------
 BYTE   W96
//  #10 //066   ----------------------------------------
 BYTE   W96
//  #10 //067   ----------------------------------------
 BYTE   W96
//  #10 //068   ----------------------------------------
 BYTE   W96
//  #10 //069   ----------------------------------------
 BYTE   W96
//  #10 //070   ----------------------------------------
Label_013E068D:
 BYTE   W12
 BYTE   N11  As1  v044
 BYTE   W12
 BYTE   As1  v036
 BYTE   W12
 BYTE   As1  v044
 BYTE   N11  Fn2
 BYTE   N11  As2
 BYTE   W12
 BYTE   As1  v036
 BYTE   W12
 BYTE   As1  v044
 BYTE   W12
 BYTE   N11
 BYTE   N11  Fn2
 BYTE   N11  As2
 BYTE   W12
 BYTE   As1
 BYTE   W12
 BYTE   PEND 
//  #10 //071   ----------------------------------------
 BYTE   Bn1  v036
 BYTE   W12
 BYTE   Cn2  v044
 BYTE   W12
 BYTE   Cn2  v036
 BYTE   W12
 BYTE   Cn2  v044
 BYTE   N11  Gn2
 BYTE   N11  Cn3
 BYTE   W12
 BYTE   Cn2  v036
 BYTE   W12
 BYTE   Cn2  v044
 BYTE   W12
 BYTE   N11
 BYTE   N11  Gn2
 BYTE   N11  Cn3
 BYTE   W12
 BYTE   Cn2
 BYTE   W12
//  #10 //072   ----------------------------------------
 BYTE   Cn2  v036
 BYTE   W12
 BYTE   Fn2  v044
 BYTE   W12
 BYTE   Fn2  v036
 BYTE   W12
 BYTE   Fn2  v044
 BYTE   N11  Cn3
 BYTE   N11  Fn3
 BYTE   W12
 BYTE   Fn2  v036
 BYTE   W12
 BYTE   Fn2  v044
 BYTE   W12
 BYTE   N11
 BYTE   N11  Cn3
 BYTE   N11  Fn3
 BYTE   W12
 BYTE   Fn2
 BYTE   W12
//  #10 //073   ----------------------------------------
 BYTE   Fn2  v036
 BYTE   W12
 BYTE   Ds2  v044
 BYTE   W12
 BYTE   Ds2  v036
 BYTE   W12
 BYTE   Ds2  v044
 BYTE   N11  As2
 BYTE   N11  Ds3
 BYTE   W12
 BYTE   Ds2  v036
 BYTE   W12
 BYTE   Ds2  v044
 BYTE   W12
 BYTE   N11
 BYTE   N11  As2
 BYTE   N11  Ds3
 BYTE   W12
 BYTE   Ds2
 BYTE   W12
//  #10 //074   ----------------------------------------
 BYTE   Ds2  v036
 BYTE   W96
//  #10 //075   ----------------------------------------
 BYTE   W96
//  #10 //076   ----------------------------------------
 BYTE   W96
//  #10 //077   ----------------------------------------
 BYTE   W96
//  #10 //078   ----------------------------------------
 BYTE   PATT
  POIN2 Label_013E068D
//  #10 //079   ----------------------------------------
Label_013E0710:
 BYTE   N11  As1  v036
 BYTE   W12
 BYTE   Fs1  v044
 BYTE   W12
 BYTE   Fs1  v036
 BYTE   W12
 BYTE   Fs1  v044
 BYTE   N11  Cs2
 BYTE   N11  Fs2
 BYTE   W12
 BYTE   Fs1  v036
 BYTE   W12
 BYTE   Fs1  v044
 BYTE   W12
 BYTE   N11
 BYTE   N11  Cs2
 BYTE   N11  Fs2
 BYTE   W12
 BYTE   Fs1
 BYTE   W12
 BYTE   PEND 
//  #10 //080   ----------------------------------------
Label_013E0730:
 BYTE   N11  Fs1  v036
 BYTE   W12
 BYTE   Cs2  v044
 BYTE   W12
 BYTE   Cs2  v036
 BYTE   W12
 BYTE   Cs2  v044
 BYTE   N11  Gs2
 BYTE   N11  Cs3
 BYTE   W12
 BYTE   Cs2  v036
 BYTE   W12
 BYTE   Cs2  v044
 BYTE   W12
 BYTE   N11
 BYTE   N11  Gs2
 BYTE   N11  Cs3
 BYTE   W12
 BYTE   Cs2
 BYTE   W12
 BYTE   PEND 
//  #10 //081   ----------------------------------------
 BYTE   Cs2  v036
 BYTE   W12
 BYTE   Cn2  v044
 BYTE   W12
 BYTE   Cn2  v036
 BYTE   W12
 BYTE   Cn2  v044
 BYTE   N11  Gs2
 BYTE   N11  Cn3
 BYTE   W12
 BYTE   Cn2  v036
 BYTE   W12
 BYTE   Cn2  v044
 BYTE   W12
 BYTE   N11
 BYTE   N11  Gs2
 BYTE   N11  Cn3
 BYTE   W12
 BYTE   Cn2
 BYTE   W12
//  #10 //082   ----------------------------------------
 BYTE   Cn2  v036
 BYTE   W12
 BYTE   As1  v044
 BYTE   W12
 BYTE   As1  v036
 BYTE   W12
 BYTE   As1  v044
 BYTE   N11  Fn2
 BYTE   N11  As2
 BYTE   W12
 BYTE   As1  v036
 BYTE   W12
 BYTE   As1  v044
 BYTE   W12
 BYTE   N11
 BYTE   N11  Fn2
 BYTE   N11  As2
 BYTE   W12
 BYTE   As1
 BYTE   W12
//  #10 //083   ----------------------------------------
 BYTE   PATT
  POIN2 Label_013E0710
//  #10 //084   ----------------------------------------
 BYTE   N11  Fs1  v036
 BYTE   W12
 BYTE   Ds2  v044
 BYTE   W12
 BYTE   Ds2  v036
 BYTE   W12
 BYTE   Ds2  v044
 BYTE   N11  As2
 BYTE   N11  Ds3
 BYTE   W12
 BYTE   Ds2  v036
 BYTE   W12
 BYTE   Ds2  v044
 BYTE   W12
 BYTE   N11
 BYTE   N11  As2
 BYTE   N11  Ds3
 BYTE   W12
 BYTE   Ds2
 BYTE   W12
//  #10 //085   ----------------------------------------
 BYTE   Ds2  v036
 BYTE   W12
 BYTE   Fn2  v044
 BYTE   W12
 BYTE   Fn2  v036
 BYTE   W12
 BYTE   Fn2  v044
 BYTE   N11  Cn3
 BYTE   N11  Fn3
 BYTE   W12
 BYTE   Fn2  v036
 BYTE   W12
 BYTE   Fn2  v044
 BYTE   W12
 BYTE   N11
 BYTE   N11  Cn3
 BYTE   N11  Fn3
 BYTE   W12
 BYTE   Fn2
 BYTE   W12
//  #10 //086   ----------------------------------------
 BYTE   Fn2  v036
 BYTE   W12
 BYTE   As1  v044
 BYTE   W12
 BYTE   As1  v036
 BYTE   W12
 BYTE   As1  v044
 BYTE   N11  Fn2
 BYTE   N11  As2
 BYTE   W12
 BYTE   As1  v036
 BYTE   W12
 BYTE   As1  v044
 BYTE   W12
 BYTE   N11
 BYTE   N11  Fn2
 BYTE   N11  As2
 BYTE   W12
 BYTE   As1
 BYTE   W12
//  #10 //087   ----------------------------------------
 BYTE   PATT
  POIN2 Label_013E0710
//  #10 //088   ----------------------------------------
 BYTE   PATT
  POIN2 Label_013E0730
//  #10 //089   ----------------------------------------
 BYTE   N11  Cs2  v036
 BYTE   W12
 BYTE   Ds2  v044
 BYTE   W12
 BYTE   Ds2  v036
 BYTE   W12
 BYTE   Ds2  v044
 BYTE   N11  As2
 BYTE   N11  Ds3
 BYTE   W12
 BYTE   Ds2  v036
 BYTE   W12
 BYTE   Ds2  v044
 BYTE   W12
 BYTE   N11
 BYTE   N11  As2
 BYTE   N11  Ds3
 BYTE   W12
 BYTE   Ds2
 BYTE   W12
//  #10 //090   ----------------------------------------
 BYTE   Ds2  v036
 BYTE   W12
 BYTE   Fs1  v044
 BYTE   W12
 BYTE   Fs1  v036
 BYTE   W12
 BYTE   Fs1  v044
 BYTE   N11  Cs2
 BYTE   N11  Fs2
 BYTE   W12
 BYTE   Fs1  v036
 BYTE   W12
 BYTE   Fs1  v044
 BYTE   W12
 BYTE   N11
 BYTE   N11  Cs2
 BYTE   N11  Fs2
 BYTE   W12
 BYTE   Fs1
 BYTE   W12
//  #10 //091   ----------------------------------------
 BYTE   Fs1  v036
 BYTE   W12
 BYTE   Fs1  v044
 BYTE   W12
 BYTE   Fs1  v036
 BYTE   W12
 BYTE   Fs1  v044
 BYTE   N11  Cs2
 BYTE   N11  Fs2
 BYTE   W12
 BYTE   Fs1  v036
 BYTE   W12
 BYTE   Fs1  v044
 BYTE   W12
 BYTE   N11
 BYTE   N11  Cs2
 BYTE   N11  Fs2
 BYTE   W12
 BYTE   Fs1
 BYTE   W12
//  #10 //092   ----------------------------------------
 BYTE   Fs1  v036
 BYTE   W12
 BYTE   Gs1  v044
 BYTE   W12
 BYTE   Gs1  v036
 BYTE   W12
 BYTE   Gs1  v044
 BYTE   N11  Ds2
 BYTE   N11  Gs2
 BYTE   W12
 BYTE   Gs1  v036
 BYTE   W12
 BYTE   Gs1  v044
 BYTE   W12
 BYTE   N11
 BYTE   N11  Ds2
 BYTE   N11  Gs2
 BYTE   W12
 BYTE   Gs1
 BYTE   W12
//  #10 //093   ----------------------------------------
 BYTE   Gs1  v036
 BYTE   W12
 BYTE   Fn1  v044
 BYTE   W12
 BYTE   Fn1  v036
 BYTE   W12
 BYTE   Fn1  v044
 BYTE   N11  Cn2
 BYTE   N11  Fn2
 BYTE   W12
 BYTE   Fn1  v036
 BYTE   W12
 BYTE   Fn1  v044
 BYTE   W12
 BYTE   N11
 BYTE   N11  Cn2
 BYTE   N11  Fn2
 BYTE   W12
 BYTE   Fn1
 BYTE   W12
//  #10 //094   ----------------------------------------
 BYTE   Fn1  v036
 BYTE   W12
 BYTE   As1  v044
 BYTE   W12
 BYTE   As1  v036
 BYTE   N11  Fn2
 BYTE   N11  As2
 BYTE   W12
 BYTE   As1  v044
 BYTE   N11  Fn2
 BYTE   N11  As2
 BYTE   W12
 BYTE   As1  v036
 BYTE   W12
 BYTE   As1  v044
 BYTE   N11  Fn2  v036
 BYTE   N11  As2
 BYTE   W12
 BYTE   As1  v044
 BYTE   N11  Fn2
 BYTE   N11  As2
 BYTE   W12
 BYTE   As1
 BYTE   W12
//  #10 //095   ----------------------------------------
 BYTE   PATT
  POIN2 Label_013E0217
//  #10 //096   ----------------------------------------
 BYTE   PATT
  POIN2 Label_013E0231
//  #10 //097   ----------------------------------------
 BYTE   PATT
  POIN2 Label_013E0217
//  #10 //098   ----------------------------------------
 BYTE   PATT
  POIN2 Label_013E0231
//  #10 //099   ----------------------------------------
 BYTE   PATT
  POIN2 Label_013E0217
//  #10 //100   ----------------------------------------
 BYTE   PATT
  POIN2 Label_013E0231
//  #10 //101   ----------------------------------------
 BYTE   PATT
  POIN2 Label_013E026F
//  #10 //102   ----------------------------------------
 BYTE   W96
//  #10 //103   ----------------------------------------
 BYTE   W84
 BYTE   GoTo
  POIN2 Label_013E028E
//  #10 //104   ----------------------------------------
 BYTE   W12
 BYTE   W36
 BYTE   TIE  As1  v044
 BYTE   TIE  Fn2
 BYTE   TIE  As2
 BYTE   W60
//  #10 //105   ----------------------------------------
 BYTE   W96
//  #10 //106   ----------------------------------------
 BYTE   W11
 BYTE   EOT
 BYTE   As1  v053
 BYTE   As2
 BYTE   FINE

//******************************************************//
	ALIGN 4

Daughter_of_the_Dark_God_Song:
	BYTE	10	// NumTrks
	BYTE	0	// NumBlks
	BYTE	Daughter_of_the_Dark_God_Song_pri	// Priority
	BYTE	Daughter_of_the_Dark_God_Song_rev	// Reverb.
    
	POIN2	Daughter_of_the_Dark_God_Song_grp
    
	POIN2	Daughter_of_the_Dark_God_Song_001
	POIN2	Daughter_of_the_Dark_God_Song_002
	POIN2	Daughter_of_the_Dark_God_Song_003
	POIN2	Daughter_of_the_Dark_God_Song_004
	POIN2	Daughter_of_the_Dark_God_Song_005
	POIN2	Daughter_of_the_Dark_God_Song_006
	POIN2	Daughter_of_the_Dark_God_Song_007
	POIN2	Daughter_of_the_Dark_God_Song_008
	POIN2	Daughter_of_the_Dark_God_Song_009
	POIN2	Daughter_of_the_Dark_God_Song_010

	
