//Event file generated from Sappy .s format.
        #include "MPlayDef.event"

        #define    rffield_Song_grp  voicegroup000
        #define    rffield_Song_pri  0
        #define    rffield_Song_rev  0
        #define    rffield_Song_key  0

        // .rodata
        // rffield_Song
        ALIGN 4

//****************** Track 0 (Midi-Chn.0) ******************//

rffield_Song_0:
        BYTE   KEYSH   rffield_Song_key+0
// 000   ----------------------------------------
        BYTE   TEMPO   122/2
        BYTE           VOICE   71
        BYTE           VOL     127
        BYTE           PAN     c_v-10
        BYTE   W96
// 001   ----------------------------------------
rffield_Song_0_LOOP:
        BYTE   W96
// 002   ----------------------------------------
        BYTE   W96
// 003   ----------------------------------------
        BYTE   W96
// 004   ----------------------------------------
        BYTE   W96
// 005   ----------------------------------------
        BYTE   W96
// 006   ----------------------------------------
        BYTE   W96
// 007   ----------------------------------------
        BYTE   W96
// 008   ----------------------------------------
        BYTE   W96
// 009   ----------------------------------------
        BYTE   W96
// 010   ----------------------------------------
        BYTE   W96
// 011   ----------------------------------------
rffield_Song_0_11:
        BYTE           N02     Ds5   v045
        BYTE   W03
        BYTE                   Fn5   v052
        BYTE   W03
        BYTE                   Gs5   v059
        BYTE   W03
        BYTE                   As5   v067
        BYTE   W03
        BYTE           N05     Cs6   v075
        BYTE   W06
        BYTE                   Cn6
        BYTE   W06
        BYTE                   As5
        BYTE   W06
        BYTE                   Gs5
        BYTE   W06
        BYTE                   Cs6
        BYTE   W06
        BYTE                   Cn6
        BYTE   W06
        BYTE                   As5
        BYTE   W06
        BYTE                   Gs5
        BYTE   W06
        BYTE                   Cs6   v060
        BYTE   W06
        BYTE                   Cn6
        BYTE   W06
        BYTE                   As5
        BYTE   W06
        BYTE                   Gs5
        BYTE   W06
        BYTE                   Cs6   v045
        BYTE   W06
        BYTE                   Cn6
        BYTE   W06
        BYTE   PEND
// 012   ----------------------------------------
rffield_Song_0_12:
        BYTE           N05     As5   v045
        BYTE   W06
        BYTE                   Gs5
        BYTE   W90
        BYTE   PEND
// 013   ----------------------------------------
        BYTE   W96
// 014   ----------------------------------------
        BYTE   W96
// 015   ----------------------------------------
        BYTE   W96
// 016   ----------------------------------------
        BYTE   W96
// 017   ----------------------------------------
        BYTE   W96
// 018   ----------------------------------------
        BYTE   W96
// 019   ----------------------------------------
        BYTE   PATT
         POIN2  rffield_Song_0_11
// 020   ----------------------------------------
        BYTE   PATT
         POIN2  rffield_Song_0_12
// 021   ----------------------------------------
        BYTE   W96
// 022   ----------------------------------------
        BYTE   W96
// 023   ----------------------------------------
        BYTE   W96
// 024   ----------------------------------------
        BYTE   W96
// 025   ----------------------------------------
        BYTE   W96
// 026   ----------------------------------------
        BYTE   W96
// 027   ----------------------------------------
        BYTE   W96
// 028   ----------------------------------------
        BYTE   W96
// 029   ----------------------------------------
        BYTE   GoTo
         POIN2  rffield_Song_0_LOOP
        BYTE   FINE

//****************** Track 1 (Midi-Chn.1) ******************//

rffield_Song_1:
        BYTE   KEYSH   rffield_Song_key+0
// 000   ----------------------------------------
        BYTE           VOICE   46
        BYTE           VOL     127
        BYTE           PAN     c_v+15
        BYTE   W96
// 001   ----------------------------------------
rffield_Song_1_LOOP:
        BYTE   W96
// 002   ----------------------------------------
        BYTE   W96
// 003   ----------------------------------------
        BYTE   W96
// 004   ----------------------------------------
        BYTE   W96
// 005   ----------------------------------------
        BYTE   W96
// 006   ----------------------------------------
        BYTE   W96
// 007   ----------------------------------------
        BYTE   W96
// 008   ----------------------------------------
        BYTE   W96
// 009   ----------------------------------------
        BYTE   W96
// 010   ----------------------------------------
rffield_Song_1_10:
        BYTE   W24
        BYTE           N11     Cn3   v092
        BYTE   W12
        BYTE                   Gs3
        BYTE   W12
        BYTE                   Ds3
        BYTE   W12
        BYTE                   Cn4
        BYTE   W12
        BYTE                   Gs3
        BYTE   W12
        BYTE                   Gs4
        BYTE   W12
        BYTE   PEND
// 011   ----------------------------------------
rffield_Song_1_11:
        BYTE           N11     Gs3   v092
        BYTE   W24
        BYTE           N20     Gs4   v075
        BYTE   W24
        BYTE                   Gs4
        BYTE   W24
        BYTE                   Gs4   v045
        BYTE   W24
        BYTE   PEND
// 012   ----------------------------------------
        BYTE   W96
// 013   ----------------------------------------
        BYTE   W96
// 014   ----------------------------------------
        BYTE   W96
// 015   ----------------------------------------
        BYTE   W96
// 016   ----------------------------------------
        BYTE   PATT
         POIN2  rffield_Song_1_10
// 017   ----------------------------------------
        BYTE           N11     Gs3   v092
        BYTE   W96
// 018   ----------------------------------------
        BYTE   PATT
         POIN2  rffield_Song_1_10
// 019   ----------------------------------------
        BYTE   PATT
         POIN2  rffield_Song_1_11
// 020   ----------------------------------------
        BYTE   W96
// 021   ----------------------------------------
        BYTE   W96
// 022   ----------------------------------------
        BYTE   W96
// 023   ----------------------------------------
        BYTE   W96
// 024   ----------------------------------------
        BYTE   W96
// 025   ----------------------------------------
        BYTE   W96
// 026   ----------------------------------------
        BYTE   W96
// 027   ----------------------------------------
        BYTE   W96
// 028   ----------------------------------------
        BYTE   W96
// 029   ----------------------------------------
        BYTE   GoTo
         POIN2  rffield_Song_1_LOOP
        BYTE   FINE

//****************** Track 2 (Midi-Chn.2) ******************//

rffield_Song_2:
        BYTE   KEYSH   rffield_Song_key+0
// 000   ----------------------------------------
        BYTE           VOICE   123
        BYTE           VOL     108
        BYTE   W12
        BYTE           N11     Dn1   v127
        BYTE           N11     An2
        BYTE   W12
        BYTE           N05     Dn1   v045
        BYTE   W06
        BYTE                   Dn1
        BYTE   W06
        BYTE           N11
        BYTE   W12
        BYTE                   Dn1   v127
        BYTE   W12
        BYTE           N05     Dn1   v045
        BYTE   W06
        BYTE                   Dn1
        BYTE   W06
        BYTE           N11
        BYTE   W12
        BYTE                   Dn1   v092
        BYTE   W12
// 001   ----------------------------------------
rffield_Song_2_LOOP:
        BYTE           N05     Dn1   v045
        BYTE   W06
        BYTE                   Dn1
        BYTE   W06
        BYTE           N11     Dn1   v092
        BYTE   W12
        BYTE           N05     Dn1   v045
        BYTE   W06
        BYTE                   Dn1
        BYTE   W06
        BYTE           N11     Dn1   v092
        BYTE   W12
        BYTE           N05     Dn1   v045
        BYTE   W06
        BYTE                   Dn1
        BYTE   W06
        BYTE                   Dn1   v075
        BYTE   W06
        BYTE                   Dn1
        BYTE   W06
        BYTE           N11
        BYTE   W12
        BYTE           N05
        BYTE   W06
        BYTE                   Dn1
        BYTE   W06
// 002   ----------------------------------------
rffield_Song_2_2:
        BYTE           N11     Dn1   v075
        BYTE   W12
        BYTE                   Dn1   v127
        BYTE           N11     An2
        BYTE   W12
        BYTE           N05     Dn1   v045
        BYTE   W06
        BYTE                   Dn1
        BYTE   W06
        BYTE           N11
        BYTE   W12
        BYTE                   Dn1   v127
        BYTE   W12
        BYTE           N05     Dn1   v045
        BYTE   W06
        BYTE                   Dn1
        BYTE   W06
        BYTE           N11
        BYTE   W12
        BYTE                   Dn1   v092
        BYTE   W12
        BYTE   PEND
// 003   ----------------------------------------
rffield_Song_2_3:
        BYTE           N05     Dn1   v045
        BYTE   W06
        BYTE                   Dn1
        BYTE   W06
        BYTE           N11     Dn1   v092
        BYTE   W12
        BYTE           N05     Dn1   v045
        BYTE   W06
        BYTE                   Dn1
        BYTE   W06
        BYTE           N11     Dn1   v092
        BYTE   W12
        BYTE           N05     Dn1   v045
        BYTE   W06
        BYTE                   Dn1
        BYTE   W06
        BYTE                   Dn1   v075
        BYTE   W06
        BYTE                   Dn1
        BYTE   W06
        BYTE           N11
        BYTE   W12
        BYTE           N05
        BYTE   W06
        BYTE                   Dn1
        BYTE   W06
        BYTE   PEND
// 004   ----------------------------------------
        BYTE   PATT
         POIN2  rffield_Song_2_2
// 005   ----------------------------------------
        BYTE   PATT
         POIN2  rffield_Song_2_3
// 006   ----------------------------------------
        BYTE   PATT
         POIN2  rffield_Song_2_2
// 007   ----------------------------------------
        BYTE   PATT
         POIN2  rffield_Song_2_3
// 008   ----------------------------------------
        BYTE   PATT
         POIN2  rffield_Song_2_2
// 009   ----------------------------------------
        BYTE   PATT
         POIN2  rffield_Song_2_3
// 010   ----------------------------------------
        BYTE   PATT
         POIN2  rffield_Song_2_2
// 011   ----------------------------------------
        BYTE   PATT
         POIN2  rffield_Song_2_3
// 012   ----------------------------------------
        BYTE   PATT
         POIN2  rffield_Song_2_2
// 013   ----------------------------------------
rffield_Song_2_13:
        BYTE           N05     Dn1   v045
        BYTE   W06
        BYTE                   Dn1
        BYTE   W06
        BYTE           N11     Dn1   v092
        BYTE           N11     An2
        BYTE   W12
        BYTE           N05     Dn1   v045
        BYTE   W06
        BYTE                   Dn1
        BYTE   W06
        BYTE           N11     Dn1   v092
        BYTE   W12
        BYTE           N05     Dn1   v045
        BYTE   W06
        BYTE                   Dn1
        BYTE   W06
        BYTE                   Dn1   v075
        BYTE   W06
        BYTE                   Dn1
        BYTE   W06
        BYTE           N11
        BYTE   W12
        BYTE           N05
        BYTE   W06
        BYTE                   Dn1
        BYTE   W06
        BYTE   PEND
// 014   ----------------------------------------
        BYTE   PATT
         POIN2  rffield_Song_2_2
// 015   ----------------------------------------
        BYTE   PATT
         POIN2  rffield_Song_2_13
// 016   ----------------------------------------
rffield_Song_2_16:
        BYTE           N11     Dn1   v075
        BYTE   W12
        BYTE                   Dn1   v105
        BYTE           N11     An2
        BYTE   W12
        BYTE           N05     Dn1   v045
        BYTE   W06
        BYTE                   Dn1
        BYTE   W06
        BYTE           N11
        BYTE   W12
        BYTE                   Dn1   v127
        BYTE   W12
        BYTE           N05     Dn1   v045
        BYTE   W06
        BYTE                   Dn1
        BYTE   W06
        BYTE           N11
        BYTE   W12
        BYTE                   Dn1   v092
        BYTE   W12
        BYTE   PEND
// 017   ----------------------------------------
        BYTE   PATT
         POIN2  rffield_Song_2_3
// 018   ----------------------------------------
        BYTE   PATT
         POIN2  rffield_Song_2_16
// 019   ----------------------------------------
        BYTE   PATT
         POIN2  rffield_Song_2_3
// 020   ----------------------------------------
        BYTE   PATT
         POIN2  rffield_Song_2_16
// 021   ----------------------------------------
        BYTE   PATT
         POIN2  rffield_Song_2_3
// 022   ----------------------------------------
        BYTE   PATT
         POIN2  rffield_Song_2_16
// 023   ----------------------------------------
        BYTE   PATT
         POIN2  rffield_Song_2_3
// 024   ----------------------------------------
        BYTE   PATT
         POIN2  rffield_Song_2_16
// 025   ----------------------------------------
        BYTE   PATT
         POIN2  rffield_Song_2_3
// 026   ----------------------------------------
        BYTE   PATT
         POIN2  rffield_Song_2_16
// 027   ----------------------------------------
        BYTE           N05     Dn1   v045
        BYTE   W06
        BYTE                   Dn1
        BYTE   W06
        BYTE           N11     Dn1   v092
        BYTE   W12
        BYTE           N05     Dn1   v045
        BYTE   W06
        BYTE                   Dn1
        BYTE   W06
        BYTE           N11     Dn1   v092
        BYTE   W12
        BYTE           N05     Dn1   v045
        BYTE   W06
        BYTE                   Dn1
        BYTE   W06
        BYTE                   Dn1   v075
        BYTE           N11     An2
        BYTE   W06
        BYTE           N05     Dn1
        BYTE   W06
        BYTE           N11
        BYTE   W12
        BYTE           N05
        BYTE           N11     An2
        BYTE   W06
        BYTE           N05     Dn1
        BYTE   W06
// 028   ----------------------------------------
        BYTE   PATT
         POIN2  rffield_Song_2_2
// 029   ----------------------------------------
        BYTE   GoTo
         POIN2  rffield_Song_2_LOOP
        BYTE   FINE

//****************** Track 3 (Midi-Chn.3) ******************//

rffield_Song_3:
        BYTE   KEYSH   rffield_Song_key+0
// 000   ----------------------------------------
        BYTE           VOICE   60
        BYTE           VOL     127
        BYTE           PAN     c_v-8
        BYTE   W96
// 001   ----------------------------------------
rffield_Song_3_LOOP:
        BYTE   W96
// 002   ----------------------------------------
        BYTE   W96
// 003   ----------------------------------------
        BYTE   W96
// 004   ----------------------------------------
        BYTE   W12
        BYTE           N05     Gs2   v092
        BYTE   W06
        BYTE                   Gs2
        BYTE   W06
        BYTE           N80     Ds3   v092   gtp3
        BYTE   W72
// 005   ----------------------------------------
        BYTE   W12
        BYTE           N11     Cs3
        BYTE   W12
        BYTE                   Ds3
        BYTE   W12
        BYTE                   Fn3
        BYTE   W12
        BYTE           N06     Ds3
        BYTE   W24
        BYTE                   Cn3
        BYTE   W24
// 006   ----------------------------------------
        BYTE           TIE     Cs3
        BYTE   W96
// 007   ----------------------------------------
        BYTE   W96
// 008   ----------------------------------------
        BYTE   W06
        BYTE           EOT
        BYTE   W06
        BYTE           N90
        BYTE   W84
// 009   ----------------------------------------
        BYTE   W12
        BYTE           N11
        BYTE   W12
        BYTE                   Cn3
        BYTE   W12
        BYTE                   As2
        BYTE   W12
        BYTE           N06     Cn3
        BYTE   W24
        BYTE                   Gs2
        BYTE   W24
// 010   ----------------------------------------
        BYTE           TIE
        BYTE   W96
// 011   ----------------------------------------
        BYTE   W96
// 012   ----------------------------------------
        BYTE   W06
        BYTE           EOT
        BYTE   W06
        BYTE           N04     Cs3
        BYTE   W12
        BYTE           N56     Gs3   v092   gtp3
        BYTE   W60
        BYTE           N04
        BYTE   W12
// 013   ----------------------------------------
        BYTE           TIE     Fn3
        BYTE   W96
// 014   ----------------------------------------
        BYTE   W06
        BYTE           EOT
        BYTE   W06
        BYTE           N05     Cs3   v127
        BYTE   W06
        BYTE                   Cs3
        BYTE   W06
        BYTE           N56     Gs3   v092   gtp3
        BYTE   W60
        BYTE           N04
        BYTE   W12
// 015   ----------------------------------------
        BYTE           N78     Fn3
        BYTE   W84
        BYTE           N04     Ds3
        BYTE   W12
// 016   ----------------------------------------
        BYTE                   Cs3
        BYTE   W12
        BYTE           TIE     Ds3
        BYTE   W84
// 017   ----------------------------------------
        BYTE   W96
// 018   ----------------------------------------
        BYTE   W96
// 019   ----------------------------------------
        BYTE   W06
        BYTE           EOT
        BYTE   W90
// 020   ----------------------------------------
        BYTE   W12
        BYTE           N11     Cs3   v084
        BYTE   W12
        BYTE                   Cs3   v060
        BYTE   W12
        BYTE                   Cs3
        BYTE   W12
        BYTE                   Cs3   v084
        BYTE   W12
        BYTE                   Cs3   v060
        BYTE   W12
        BYTE                   Cs3
        BYTE   W12
        BYTE                   Cs3   v084
        BYTE   W12
// 021   ----------------------------------------
rffield_Song_3_21:
        BYTE           N11     Cs3   v060
        BYTE   W12
        BYTE                   Cs3
        BYTE   W12
        BYTE                   Cs3   v084
        BYTE   W12
        BYTE                   Cs3   v060
        BYTE   W12
        BYTE                   Cs3
        BYTE   W12
        BYTE                   Cn3   v084
        BYTE   W12
        BYTE                   Cs3   v060
        BYTE   W12
        BYTE                   Cn3   v084
        BYTE   W12
        BYTE   PEND
// 022   ----------------------------------------
rffield_Song_3_22:
        BYTE           N11     Cs3   v060
        BYTE   W12
        BYTE                   Ds3   v084
        BYTE   W12
        BYTE                   Ds3   v060
        BYTE   W12
        BYTE                   Ds3
        BYTE   W12
        BYTE                   Ds3   v084
        BYTE   W12
        BYTE                   Ds3   v060
        BYTE   W12
        BYTE                   Ds3
        BYTE   W12
        BYTE                   Ds3   v084
        BYTE   W12
        BYTE   PEND
// 023   ----------------------------------------
rffield_Song_3_23:
        BYTE           N11     Ds3   v060
        BYTE   W12
        BYTE                   Ds3
        BYTE   W12
        BYTE                   Ds3
        BYTE   W12
        BYTE                   Ds3
        BYTE   W12
        BYTE                   Ds3
        BYTE   W12
        BYTE                   Dn3   v084
        BYTE   W12
        BYTE                   Ds3   v060
        BYTE   W12
        BYTE                   Dn3   v084
        BYTE   W12
        BYTE   PEND
// 024   ----------------------------------------
        BYTE                   Ds3   v060
        BYTE   W12
        BYTE                   Cs3   v084
        BYTE   W12
        BYTE                   Cs3   v060
        BYTE   W12
        BYTE                   Cs3
        BYTE   W12
        BYTE                   Cs3   v084
        BYTE   W12
        BYTE                   Cs3   v060
        BYTE   W12
        BYTE                   Cs3
        BYTE   W12
        BYTE                   Cs3   v084
        BYTE   W12
// 025   ----------------------------------------
        BYTE   PATT
         POIN2  rffield_Song_3_21
// 026   ----------------------------------------
        BYTE   PATT
         POIN2  rffield_Song_3_22
// 027   ----------------------------------------
        BYTE   PATT
         POIN2  rffield_Song_3_23
// 028   ----------------------------------------
        BYTE           N11     Ds3   v060
        BYTE   W96
// 029   ----------------------------------------
        BYTE   GoTo
         POIN2  rffield_Song_3_LOOP
        BYTE   FINE

//****************** Track 4 (Midi-Chn.4) ******************//

rffield_Song_4:
        BYTE   KEYSH   rffield_Song_key+0
// 000   ----------------------------------------
        BYTE           VOICE   60
        BYTE           VOL     127
        BYTE           PAN     c_v+11
        BYTE   W96
// 001   ----------------------------------------
rffield_Song_4_LOOP:
        BYTE   W96
// 002   ----------------------------------------
        BYTE   W96
// 003   ----------------------------------------
        BYTE   W96
// 004   ----------------------------------------
        BYTE   W12
        BYTE           N05     Gs2   v092
        BYTE   W06
        BYTE                   Gs2
        BYTE   W06
        BYTE           N80     Gs2   v092   gtp3
        BYTE   W72
// 005   ----------------------------------------
        BYTE   W12
        BYTE           N11
        BYTE   W12
        BYTE                   Gs2
        BYTE   W12
        BYTE                   Gs2
        BYTE   W12
        BYTE           N06
        BYTE   W24
        BYTE                   Gs2
        BYTE   W24
// 006   ----------------------------------------
        BYTE           N11     Fs2
        BYTE   W12
        BYTE           TIE
        BYTE   W84
// 007   ----------------------------------------
        BYTE   W96
// 008   ----------------------------------------
        BYTE   W06
        BYTE           EOT
        BYTE   W06
        BYTE           N90     Fn2
        BYTE   W84
// 009   ----------------------------------------
        BYTE   W12
        BYTE           N32
        BYTE   W36
        BYTE           N06
        BYTE   W24
        BYTE                   Fn2
        BYTE   W24
// 010   ----------------------------------------
        BYTE           TIE     Ds2
        BYTE   W96
// 011   ----------------------------------------
        BYTE   W96
// 012   ----------------------------------------
        BYTE   W06
        BYTE           EOT
        BYTE   W06
        BYTE           N04     Cs3   v127
        BYTE   W12
        BYTE           N56     Cs3   v092   gtp3
        BYTE   W60
        BYTE           N04
        BYTE   W12
// 013   ----------------------------------------
        BYTE           TIE     As2
        BYTE   W96
// 014   ----------------------------------------
        BYTE   W06
        BYTE           EOT
        BYTE   W06
        BYTE           N05     Cs3
        BYTE   W06
        BYTE                   Cs3
        BYTE   W06
        BYTE           N56     Cs3   v092   gtp3
        BYTE   W60
        BYTE           N04
        BYTE   W12
// 015   ----------------------------------------
        BYTE           N78     As2
        BYTE   W84
        BYTE           N04     Gs2
        BYTE   W12
// 016   ----------------------------------------
        BYTE                   Gs2
        BYTE   W12
        BYTE           TIE
        BYTE   W84
// 017   ----------------------------------------
        BYTE   W96
// 018   ----------------------------------------
        BYTE   W96
// 019   ----------------------------------------
        BYTE   W06
        BYTE           EOT
        BYTE   W90
// 020   ----------------------------------------
        BYTE   W96
// 021   ----------------------------------------
        BYTE   W96
// 022   ----------------------------------------
        BYTE   W96
// 023   ----------------------------------------
        BYTE   W96
// 024   ----------------------------------------
        BYTE   W96
// 025   ----------------------------------------
        BYTE   W96
// 026   ----------------------------------------
        BYTE   W96
// 027   ----------------------------------------
        BYTE   W96
// 028   ----------------------------------------
        BYTE   W96
// 029   ----------------------------------------
        BYTE   GoTo
         POIN2  rffield_Song_4_LOOP
        BYTE   FINE

//****************** Track 5 (Midi-Chn.5) ******************//

rffield_Song_5:
        BYTE   KEYSH   rffield_Song_key+0
// 000   ----------------------------------------
        BYTE           VOICE   48
        BYTE           PAN     c_v-9
        BYTE           VOL     107
        BYTE   W12
        BYTE           N11     Ds3   v105
        BYTE   W12
        BYTE                   Ds3   v075
        BYTE   W12
        BYTE                   Ds3
        BYTE   W12
        BYTE                   Ds3   v105
        BYTE   W12
        BYTE                   Ds3   v075
        BYTE   W12
        BYTE                   Ds3
        BYTE   W12
        BYTE                   Ds3
        BYTE   W12
// 001   ----------------------------------------
rffield_Song_5_LOOP:
        BYTE           N11     Ds3   v075
        BYTE   W12
        BYTE                   Ds3
        BYTE   W12
        BYTE                   Ds3
        BYTE   W12
        BYTE                   Ds3
        BYTE   W12
        BYTE                   Ds3
        BYTE   W12
        BYTE                   Dn3   v105
        BYTE   W12
        BYTE                   Ds3   v075
        BYTE   W12
        BYTE                   Dn3   v105
        BYTE   W12
// 002   ----------------------------------------
rffield_Song_5_2:
        BYTE           N11     Ds3   v075
        BYTE   W12
        BYTE                   Ds3   v105
        BYTE   W12
        BYTE                   Ds3   v075
        BYTE   W12
        BYTE                   Ds3
        BYTE   W12
        BYTE                   Ds3   v105
        BYTE   W12
        BYTE                   Ds3   v075
        BYTE   W12
        BYTE                   Ds3
        BYTE   W12
        BYTE                   Ds3
        BYTE   W12
        BYTE   PEND
// 003   ----------------------------------------
rffield_Song_5_3:
        BYTE           N11     Ds3   v075
        BYTE   W12
        BYTE                   Ds3
        BYTE   W12
        BYTE                   Ds3
        BYTE   W12
        BYTE                   Ds3
        BYTE   W12
        BYTE                   Ds3
        BYTE   W12
        BYTE                   Dn3   v105
        BYTE   W12
        BYTE                   Ds3   v075
        BYTE   W12
        BYTE                   Dn3   v105
        BYTE   W12
        BYTE   PEND
// 004   ----------------------------------------
        BYTE   PATT
         POIN2  rffield_Song_5_2
// 005   ----------------------------------------
        BYTE   PATT
         POIN2  rffield_Song_5_3
// 006   ----------------------------------------
        BYTE   PATT
         POIN2  rffield_Song_5_2
// 007   ----------------------------------------
        BYTE   PATT
         POIN2  rffield_Song_5_3
// 008   ----------------------------------------
        BYTE   PATT
         POIN2  rffield_Song_5_2
// 009   ----------------------------------------
        BYTE   PATT
         POIN2  rffield_Song_5_3
// 010   ----------------------------------------
        BYTE   PATT
         POIN2  rffield_Song_5_2
// 011   ----------------------------------------
        BYTE   PATT
         POIN2  rffield_Song_5_3
// 012   ----------------------------------------
        BYTE           N11     Ds3   v075
        BYTE   W12
        BYTE                   Gs3   v105
        BYTE   W12
        BYTE                   Gs3   v075
        BYTE   W12
        BYTE                   Gs3
        BYTE   W12
        BYTE                   Gs3   v105
        BYTE   W12
        BYTE                   Gs3   v075
        BYTE   W12
        BYTE                   Gs3
        BYTE   W12
        BYTE                   Gs3
        BYTE   W12
// 013   ----------------------------------------
        BYTE                   Gs3
        BYTE   W12
        BYTE                   Fn3   v105
        BYTE   W12
        BYTE                   Fn3   v075
        BYTE   W12
        BYTE                   Fn3
        BYTE   W12
        BYTE                   En3   v105
        BYTE   W12
        BYTE                   Fn3   v075
        BYTE   W12
        BYTE                   Fn3
        BYTE   W12
        BYTE                   En3   v105
        BYTE   W12
// 014   ----------------------------------------
        BYTE                   Fn3   v075
        BYTE   W12
        BYTE                   Gs3   v105
        BYTE   W12
        BYTE                   Gs3   v075
        BYTE   W12
        BYTE                   Gs3
        BYTE   W12
        BYTE                   Gs3   v105
        BYTE   W12
        BYTE                   Gs3   v075
        BYTE   W12
        BYTE                   Gs3
        BYTE   W12
        BYTE                   Gs3
        BYTE   W12
// 015   ----------------------------------------
        BYTE                   Gs3
        BYTE   W12
        BYTE                   Fn3   v105
        BYTE   W12
        BYTE                   Fn3   v075
        BYTE   W12
        BYTE                   Fn3
        BYTE   W12
        BYTE                   En3   v105
        BYTE   W12
        BYTE                   Fn3   v075
        BYTE   W12
        BYTE                   Fn3
        BYTE   W12
        BYTE                   Ds3   v105
        BYTE   W12
// 016   ----------------------------------------
        BYTE                   Cs3   v075
        BYTE   W12
        BYTE                   Ds3   v105
        BYTE   W12
        BYTE                   Ds3   v075
        BYTE   W12
        BYTE                   Ds3
        BYTE   W12
        BYTE                   Ds3   v105
        BYTE   W12
        BYTE                   Ds3   v075
        BYTE   W12
        BYTE                   Ds3
        BYTE   W12
        BYTE                   Ds3
        BYTE   W12
// 017   ----------------------------------------
        BYTE   PATT
         POIN2  rffield_Song_5_3
// 018   ----------------------------------------
        BYTE   PATT
         POIN2  rffield_Song_5_2
// 019   ----------------------------------------
        BYTE   PATT
         POIN2  rffield_Song_5_3
// 020   ----------------------------------------
        BYTE           N11     Ds3   v075
        BYTE   W60
        BYTE           N42     Fn3   v092
        BYTE   W36
// 021   ----------------------------------------
        BYTE   W12
        BYTE                   Ds3
        BYTE   W48
        BYTE                   Gs3
        BYTE   W36
// 022   ----------------------------------------
        BYTE   W12
        BYTE                   As3
        BYTE   W48
        BYTE                   Cn4
        BYTE   W36
// 023   ----------------------------------------
        BYTE   W12
        BYTE                   Cs4
        BYTE   W48
        BYTE                   Ds4
        BYTE   W36
// 024   ----------------------------------------
        BYTE   W60
        BYTE                   Fn4
        BYTE   W36
// 025   ----------------------------------------
        BYTE   W12
        BYTE                   Ds4
        BYTE   W48
        BYTE                   Gs4
        BYTE   W36
// 026   ----------------------------------------
        BYTE   W12
        BYTE           N80     Fn4   v092   gtp3
        BYTE   W84
// 027   ----------------------------------------
        BYTE           N05     Ds4
        BYTE   W06
        BYTE                   Cs4
        BYTE   W06
        BYTE           N42     Cn4
        BYTE   W48
        BYTE                   Gs3
        BYTE   W36
// 028   ----------------------------------------
        BYTE   W12
        BYTE           N11     Ds3   v105
        BYTE   W12
        BYTE                   Ds3   v075
        BYTE   W12
        BYTE                   Ds3
        BYTE   W12
        BYTE                   Ds3   v105
        BYTE   W12
        BYTE                   Ds3   v075
        BYTE   W12
        BYTE                   Ds3
        BYTE   W12
        BYTE                   Ds3
        BYTE   W12
// 029   ----------------------------------------
        BYTE   GoTo
         POIN2  rffield_Song_5_LOOP
        BYTE   FINE

//****************** Track 6 (Midi-Chn.6) ******************//

rffield_Song_6:
        BYTE   KEYSH   rffield_Song_key+0
// 000   ----------------------------------------
        BYTE           VOICE   48
        BYTE           PAN     c_v+9
        BYTE           VOL     105
        BYTE   W12
        BYTE           N11     Gs2   v084
        BYTE   W12
        BYTE                   Gs2   v060
        BYTE   W12
        BYTE                   Gs2
        BYTE   W12
        BYTE                   Gs2   v084
        BYTE   W12
        BYTE                   Gs2   v060
        BYTE   W12
        BYTE                   Gs2
        BYTE   W12
        BYTE                   Gs2
        BYTE   W12
// 001   ----------------------------------------
rffield_Song_6_LOOP:
        BYTE           N11     Gs2   v060
        BYTE   W12
        BYTE                   Gs2
        BYTE   W12
        BYTE                   Gs2
        BYTE   W12
        BYTE                   Gs2
        BYTE   W12
        BYTE                   Gs2
        BYTE   W12
        BYTE                   Gs2
        BYTE   W12
        BYTE                   Gs2
        BYTE   W12
        BYTE                   Gs2
        BYTE   W12
// 002   ----------------------------------------
rffield_Song_6_2:
        BYTE           N11     Gs2   v060
        BYTE   W12
        BYTE                   Gs2   v084
        BYTE   W12
        BYTE                   Gs2   v060
        BYTE   W12
        BYTE                   Gs2
        BYTE   W12
        BYTE                   Gs2   v084
        BYTE   W12
        BYTE                   Gs2   v060
        BYTE   W12
        BYTE                   Gs2
        BYTE   W12
        BYTE                   Gs2
        BYTE   W12
        BYTE   PEND
// 003   ----------------------------------------
rffield_Song_6_3:
        BYTE           N11     Gs2   v060
        BYTE   W12
        BYTE                   Gs2
        BYTE   W12
        BYTE                   Gs2
        BYTE   W12
        BYTE                   Gs2
        BYTE   W12
        BYTE                   Gs2
        BYTE   W12
        BYTE                   Gs2
        BYTE   W12
        BYTE                   Gs2
        BYTE   W12
        BYTE                   Gs2
        BYTE   W12
        BYTE   PEND
// 004   ----------------------------------------
        BYTE   PATT
         POIN2  rffield_Song_6_2
// 005   ----------------------------------------
        BYTE   PATT
         POIN2  rffield_Song_6_2
// 006   ----------------------------------------
        BYTE   PATT
         POIN2  rffield_Song_6_3
// 007   ----------------------------------------
        BYTE   PATT
         POIN2  rffield_Song_6_2
// 008   ----------------------------------------
        BYTE   PATT
         POIN2  rffield_Song_6_3
// 009   ----------------------------------------
        BYTE   PATT
         POIN2  rffield_Song_6_2
// 010   ----------------------------------------
        BYTE   PATT
         POIN2  rffield_Song_6_3
// 011   ----------------------------------------
        BYTE   PATT
         POIN2  rffield_Song_6_2
// 012   ----------------------------------------
        BYTE           N11     Gs2   v060
        BYTE   W12
        BYTE                   Cs3
        BYTE   W12
        BYTE                   Cs3
        BYTE   W12
        BYTE                   Cs3
        BYTE   W12
        BYTE                   Cs3
        BYTE   W12
        BYTE                   Cs3
        BYTE   W12
        BYTE                   Cs3
        BYTE   W12
        BYTE                   Cs3
        BYTE   W12
// 013   ----------------------------------------
        BYTE                   Cs3
        BYTE   W12
        BYTE                   As2
        BYTE   W12
        BYTE                   As2
        BYTE   W12
        BYTE                   As2
        BYTE   W12
        BYTE                   As2   v084
        BYTE   W12
        BYTE                   As2   v060
        BYTE   W12
        BYTE                   As2
        BYTE   W12
        BYTE                   As2   v084
        BYTE   W12
// 014   ----------------------------------------
        BYTE                   As2   v060
        BYTE   W12
        BYTE                   Cs3
        BYTE   W12
        BYTE                   Cs3
        BYTE   W12
        BYTE                   Cs3
        BYTE   W12
        BYTE                   Cs3
        BYTE   W12
        BYTE                   Cs3
        BYTE   W12
        BYTE                   Cs3
        BYTE   W12
        BYTE                   Cs3
        BYTE   W12
// 015   ----------------------------------------
        BYTE                   Cs3
        BYTE   W12
        BYTE                   As2
        BYTE   W12
        BYTE                   As2
        BYTE   W12
        BYTE                   As2
        BYTE   W12
        BYTE                   As2
        BYTE   W12
        BYTE                   As2
        BYTE   W12
        BYTE                   As2
        BYTE   W12
        BYTE                   As2
        BYTE   W12
// 016   ----------------------------------------
        BYTE                   As2
        BYTE   W12
        BYTE                   Gs2   v084
        BYTE   W12
        BYTE                   Gs2   v060
        BYTE   W12
        BYTE                   Gs2
        BYTE   W12
        BYTE                   Gs2   v084
        BYTE   W12
        BYTE                   Gs2   v060
        BYTE   W12
        BYTE                   Gs2
        BYTE   W12
        BYTE                   Gs2
        BYTE   W12
// 017   ----------------------------------------
        BYTE   PATT
         POIN2  rffield_Song_6_3
// 018   ----------------------------------------
        BYTE   PATT
         POIN2  rffield_Song_6_2
// 019   ----------------------------------------
        BYTE   PATT
         POIN2  rffield_Song_6_2
// 020   ----------------------------------------
        BYTE           N11     Gs2   v060
        BYTE   W60
        BYTE           N42     As2   v092
        BYTE   W36
// 021   ----------------------------------------
        BYTE   W12
        BYTE                   As2
        BYTE   W48
        BYTE                   Gs2
        BYTE   W36
// 022   ----------------------------------------
        BYTE   W12
        BYTE           N90     Ds3
        BYTE   W84
// 023   ----------------------------------------
        BYTE   W12
        BYTE                   Gs3
        BYTE   W84
// 024   ----------------------------------------
        BYTE   W60
        BYTE           N42     As3
        BYTE   W36
// 025   ----------------------------------------
        BYTE   W12
        BYTE                   As3
        BYTE   W48
        BYTE                   As3
        BYTE   W36
// 026   ----------------------------------------
        BYTE   W12
        BYTE           N80     Gs3   v092   gtp3
        BYTE   W84
// 027   ----------------------------------------
        BYTE           N05
        BYTE   W06
        BYTE                   Gs3
        BYTE   W06
        BYTE           N42
        BYTE   W48
        BYTE                   Gs3
        BYTE   W36
// 028   ----------------------------------------
        BYTE   W12
        BYTE           N11     Gs2   v084
        BYTE   W12
        BYTE                   Gs2   v060
        BYTE   W12
        BYTE                   Gs2
        BYTE   W12
        BYTE                   Gs2   v084
        BYTE   W12
        BYTE                   Gs2   v060
        BYTE   W12
        BYTE                   Gs2
        BYTE   W12
        BYTE                   Gs2
        BYTE   W12
// 029   ----------------------------------------
        BYTE   GoTo
         POIN2  rffield_Song_6_LOOP
        BYTE   FINE

//****************** Track 7 (Midi-Chn.7) ******************//

rffield_Song_7:
        BYTE   KEYSH   rffield_Song_key+0
// 000   ----------------------------------------
        BYTE           VOICE   34
        BYTE           VOL     82
        BYTE           PAN     c_v-6
        BYTE   W12
        BYTE           N11     Gs1   v127
        BYTE   W12
        BYTE                   Gs1   v060
        BYTE   W12
        BYTE                   Gs1
        BYTE   W12
        BYTE                   Gs1   v127
        BYTE   W12
        BYTE                   Gs1   v060
        BYTE   W12
        BYTE                   Gs1
        BYTE   W12
        BYTE                   Gs1   v127
        BYTE   W12
// 001   ----------------------------------------
rffield_Song_7_LOOP:
        BYTE           N11     Gs1   v060
        BYTE   W12
        BYTE                   Gs1
        BYTE   W12
        BYTE                   Gs1
        BYTE   W12
        BYTE                   Gs1
        BYTE   W12
        BYTE                   Gs1
        BYTE   W12
        BYTE           N20     Gs1   v127
        BYTE   W24
        BYTE                   Gs1
        BYTE   W12
// 002   ----------------------------------------
rffield_Song_7_2:
        BYTE   W12
        BYTE           N11     Gs1   v127
        BYTE   W12
        BYTE                   Gs1   v060
        BYTE   W12
        BYTE                   Gs1
        BYTE   W12
        BYTE                   Gs1   v127
        BYTE   W12
        BYTE                   Gs1   v060
        BYTE   W12
        BYTE                   Gs1
        BYTE   W12
        BYTE                   Gs1   v127
        BYTE   W12
        BYTE   PEND
// 003   ----------------------------------------
rffield_Song_7_3:
        BYTE           N11     Gs1   v060
        BYTE   W12
        BYTE                   Gs1
        BYTE   W12
        BYTE                   Gs1
        BYTE   W12
        BYTE                   Gs1
        BYTE   W12
        BYTE                   Gs1
        BYTE   W12
        BYTE           N20     Gs1   v127
        BYTE   W24
        BYTE                   Gs1
        BYTE   W12
        BYTE   PEND
// 004   ----------------------------------------
        BYTE   PATT
         POIN2  rffield_Song_7_2
// 005   ----------------------------------------
        BYTE   PATT
         POIN2  rffield_Song_7_3
// 006   ----------------------------------------
        BYTE   PATT
         POIN2  rffield_Song_7_2
// 007   ----------------------------------------
        BYTE   PATT
         POIN2  rffield_Song_7_3
// 008   ----------------------------------------
        BYTE   PATT
         POIN2  rffield_Song_7_2
// 009   ----------------------------------------
        BYTE   PATT
         POIN2  rffield_Song_7_3
// 010   ----------------------------------------
        BYTE   PATT
         POIN2  rffield_Song_7_2
// 011   ----------------------------------------
        BYTE   PATT
         POIN2  rffield_Song_7_3
// 012   ----------------------------------------
        BYTE   W12
        BYTE           N11     Cs2   v092
        BYTE   W12
        BYTE                   Cs2
        BYTE   W12
        BYTE                   Cs2
        BYTE   W12
        BYTE                   Cs2
        BYTE   W12
        BYTE                   Cs2
        BYTE   W12
        BYTE                   Cs2
        BYTE   W12
        BYTE                   Cs2
        BYTE   W12
// 013   ----------------------------------------
rffield_Song_7_13:
        BYTE           N11     Cs2   v092
        BYTE   W12
        BYTE                   As1
        BYTE   W12
        BYTE                   As1
        BYTE   W12
        BYTE                   As1
        BYTE   W12
        BYTE           N20
        BYTE   W24
        BYTE           N11
        BYTE   W12
        BYTE                   As1
        BYTE   W12
        BYTE   PEND
// 014   ----------------------------------------
        BYTE                   As1
        BYTE   W12
        BYTE                   Cs2
        BYTE   W12
        BYTE                   Cs2
        BYTE   W12
        BYTE                   Cs2
        BYTE   W12
        BYTE                   Cs2
        BYTE   W12
        BYTE                   Cs2
        BYTE   W12
        BYTE                   Cs2
        BYTE   W12
        BYTE                   Cs2
        BYTE   W12
// 015   ----------------------------------------
        BYTE   PATT
         POIN2  rffield_Song_7_13
// 016   ----------------------------------------
        BYTE           N11     As1   v092
        BYTE   W12
        BYTE                   Gs1   v127
        BYTE   W12
        BYTE                   Gs1   v060
        BYTE   W12
        BYTE                   Gs1
        BYTE   W12
        BYTE                   Gs1   v127
        BYTE   W12
        BYTE                   Gs1   v060
        BYTE   W12
        BYTE                   Gs1
        BYTE   W12
        BYTE                   Gs1   v127
        BYTE   W12
// 017   ----------------------------------------
        BYTE   PATT
         POIN2  rffield_Song_7_3
// 018   ----------------------------------------
        BYTE   PATT
         POIN2  rffield_Song_7_2
// 019   ----------------------------------------
        BYTE   PATT
         POIN2  rffield_Song_7_3
// 020   ----------------------------------------
rffield_Song_7_20:
        BYTE   W12
        BYTE           N11     Fs2   v105
        BYTE   W12
        BYTE                   Fs2   v075
        BYTE   W12
        BYTE                   Fs2
        BYTE   W12
        BYTE                   Fs2   v105
        BYTE   W12
        BYTE                   Fs2   v075
        BYTE   W12
        BYTE                   Fs2
        BYTE   W12
        BYTE                   Fs2   v105
        BYTE   W12
        BYTE   PEND
// 021   ----------------------------------------
rffield_Song_7_21:
        BYTE           N11     Fs2   v075
        BYTE   W12
        BYTE                   Fs2   v105
        BYTE   W12
        BYTE                   Fs2   v075
        BYTE   W12
        BYTE                   Fs2
        BYTE   W12
        BYTE                   Fs2
        BYTE   W12
        BYTE           N20
        BYTE   W24
        BYTE                   Fs2
        BYTE   W12
        BYTE   PEND
// 022   ----------------------------------------
        BYTE   W12
        BYTE           N11     Gs1   v105
        BYTE   W12
        BYTE                   Gs1   v075
        BYTE   W12
        BYTE                   Gs1
        BYTE   W12
        BYTE                   Gs1   v105
        BYTE   W12
        BYTE                   Gs1   v075
        BYTE   W12
        BYTE                   Gs1
        BYTE   W12
        BYTE                   Gs1   v105
        BYTE   W12
// 023   ----------------------------------------
        BYTE                   Gs1   v075
        BYTE   W12
        BYTE                   Gs1
        BYTE   W12
        BYTE                   Gs1   v105
        BYTE   W12
        BYTE                   Gs1   v075
        BYTE   W12
        BYTE                   Gs1
        BYTE   W12
        BYTE           N20     Gs1   v105
        BYTE   W24
        BYTE                   Gs1
        BYTE   W12
// 024   ----------------------------------------
        BYTE   PATT
         POIN2  rffield_Song_7_20
// 025   ----------------------------------------
        BYTE   PATT
         POIN2  rffield_Song_7_21
// 026   ----------------------------------------
        BYTE   W12
        BYTE           N11     Gs2   v105
        BYTE   W12
        BYTE                   Gs2   v075
        BYTE   W12
        BYTE                   Gs2
        BYTE   W12
        BYTE                   Gs2   v105
        BYTE   W12
        BYTE                   Gs2   v075
        BYTE   W12
        BYTE                   Gs2
        BYTE   W12
        BYTE                   Gs2   v105
        BYTE   W12
// 027   ----------------------------------------
        BYTE                   Gs2   v075
        BYTE   W12
        BYTE                   Gs2
        BYTE   W12
        BYTE                   Gs2   v105
        BYTE   W12
        BYTE                   Gs2   v075
        BYTE   W12
        BYTE                   Gs2
        BYTE   W12
        BYTE           N20     Gs2   v105
        BYTE   W24
        BYTE                   Gs2
        BYTE   W12
// 028   ----------------------------------------
        BYTE   PATT
         POIN2  rffield_Song_7_2
// 029   ----------------------------------------
        BYTE   GoTo
         POIN2  rffield_Song_7_LOOP
        BYTE   FINE

//****************** Track 8 (Midi-Chn.8) ******************//

rffield_Song_8:
        BYTE   KEYSH   rffield_Song_key+0
// 000   ----------------------------------------
        BYTE           VOICE   47
        BYTE           PAN     c_v+5
        BYTE           VOL     116
        BYTE           N05     Dn2   v110
        BYTE   W06
        BYTE                   Dn2
        BYTE   W06
        BYTE           N20     An1
        BYTE   W84
// 001   ----------------------------------------
rffield_Song_8_LOOP:
        BYTE   W96
// 002   ----------------------------------------
rffield_Song_8_2:
        BYTE           N05     Dn2   v110
        BYTE   W06
        BYTE                   Dn2
        BYTE   W06
        BYTE           N20     An1
        BYTE   W84
        BYTE   PEND
// 003   ----------------------------------------
        BYTE   W96
// 004   ----------------------------------------
        BYTE   PATT
         POIN2  rffield_Song_8_2
// 005   ----------------------------------------
        BYTE   W96
// 006   ----------------------------------------
        BYTE   PATT
         POIN2  rffield_Song_8_2
// 007   ----------------------------------------
        BYTE   W96
// 008   ----------------------------------------
        BYTE   PATT
         POIN2  rffield_Song_8_2
// 009   ----------------------------------------
        BYTE   W96
// 010   ----------------------------------------
        BYTE   PATT
         POIN2  rffield_Song_8_2
// 011   ----------------------------------------
        BYTE   W96
// 012   ----------------------------------------
        BYTE           N05     Dn2   v110
        BYTE   W06
        BYTE                   Dn2
        BYTE   W06
        BYTE           N20
        BYTE   W84
// 013   ----------------------------------------
rffield_Song_8_13:
        BYTE           N05     Dn2   v110
        BYTE   W06
        BYTE                   Dn2
        BYTE   W06
        BYTE           N20     Bn1
        BYTE   W84
        BYTE   PEND
// 014   ----------------------------------------
        BYTE           N11
        BYTE   W12
        BYTE           N20     Dn2
        BYTE   W84
// 015   ----------------------------------------
        BYTE           N11
        BYTE   W12
        BYTE           N20     Bn1
        BYTE   W84
// 016   ----------------------------------------
        BYTE           N11
        BYTE   W12
        BYTE                   An1
        BYTE   W84
// 017   ----------------------------------------
        BYTE   W96
// 018   ----------------------------------------
        BYTE   PATT
         POIN2  rffield_Song_8_2
// 019   ----------------------------------------
        BYTE   W96
// 020   ----------------------------------------
        BYTE   PATT
         POIN2  rffield_Song_8_13
// 021   ----------------------------------------
        BYTE   W96
// 022   ----------------------------------------
        BYTE   PATT
         POIN2  rffield_Song_8_2
// 023   ----------------------------------------
        BYTE   W96
// 024   ----------------------------------------
        BYTE   PATT
         POIN2  rffield_Song_8_13
// 025   ----------------------------------------
        BYTE   W96
// 026   ----------------------------------------
        BYTE   PATT
         POIN2  rffield_Song_8_2
// 027   ----------------------------------------
        BYTE   W96
// 028   ----------------------------------------
        BYTE   PATT
         POIN2  rffield_Song_8_2
// 029   ----------------------------------------
        BYTE   GoTo
         POIN2  rffield_Song_8_LOOP
        BYTE   FINE


//********************** End of Song ***********************//

        ALIGN 4
rffield_Song:
        BYTE   9                       // Num Tracks
        BYTE   0                       // Unknown
        BYTE   rffield_Song_pri             // Priority
        BYTE   rffield_Song_rev             // Reverb

        POIN2   rffield_Song_grp            

        POIN2   rffield_Song_0
        POIN2   rffield_Song_1
        POIN2   rffield_Song_2
        POIN2   rffield_Song_3
        POIN2   rffield_Song_4
        POIN2   rffield_Song_5
        POIN2   rffield_Song_6
        POIN2   rffield_Song_7
        POIN2   rffield_Song_8

        
