//Event file generated from Sappy .s format.
	#include "MPlayDef.event"

	#define	DPPt_LegendaryPokemon_Song_grp  voicegroup000
	#define	DPPt_LegendaryPokemon_Song_pri  0
	#define	DPPt_LegendaryPokemon_Song_rev  0
	#define	DPPt_LegendaryPokemon_Song_mvl  127
	#define	DPPt_LegendaryPokemon_Song_key  0
	#define	DPPt_LegendaryPokemon_Song_tbs  1
	#define	DPPt_LegendaryPokemon_Song_exg  0
	#define	DPPt_LegendaryPokemon_Song_cmp  1

	// .rodata
	//	DPPt_LegendaryPokemon_Song
	ALIGN 4


//**************** Track 1 (Midi-Chn.0) ****************//

DPPt_LegendaryPokemon_Song_001:
//  #01 //000   ----------------------------------------
 BYTE   KEYSH   DPPt_LegendaryPokemon_Song_key+0
 BYTE   TEMPO   150*DPPt_LegendaryPokemon_Song_tbs/2
 BYTE   VOICE   38
 BYTE   MOD 0
 BYTE   VOL   60*DPPt_LegendaryPokemon_Song_mvl/mxv
 BYTE   PAN   c_v+0
 BYTE   BEND   c_v+0
 BYTE   W96
//  #01 //001   ----------------------------------------
 BYTE   W96
//  #01 //002   ----------------------------------------
 BYTE   W96
//  #01 //003   ----------------------------------------
 BYTE   W96
//  #01 //004   ----------------------------------------
 BYTE   TEMPO   176*DPPt_LegendaryPokemon_Song_tbs/2
 BYTE   N11  Cn1  v112
 BYTE   W12
 BYTE   Fs1
 BYTE   W12
 BYTE   Gs1
 BYTE   W12
 BYTE   En1
 BYTE   W12
 BYTE   Fn1
 BYTE   W12
 BYTE   An1
 BYTE   W12
 BYTE   Cs1
 BYTE   W12
 BYTE   Fs1
 BYTE   W12
//  #01 //005   ----------------------------------------
Label_54A2AE:
 BYTE   N11  Cn1  v112
 BYTE   W12
 BYTE   Gn1
 BYTE   W12
 BYTE   Cn2
 BYTE   W12
 BYTE   As1
 BYTE   W12
 BYTE   Fn1
 BYTE   W12
 BYTE   Fs1
 BYTE   W12
 BYTE   Dn1
 BYTE   W12
 BYTE   En1
 BYTE   W12
 BYTE   PEND 
//  #01 //006   ----------------------------------------
Label_54A2C1:
 BYTE   N11  Cn1  v112
 BYTE   W12
 BYTE   Fs1
 BYTE   W12
 BYTE   Gs1
 BYTE   W12
 BYTE   En1
 BYTE   W12
 BYTE   Fn1
 BYTE   W12
 BYTE   An1
 BYTE   W12
 BYTE   Cs1
 BYTE   W12
 BYTE   Fs1
 BYTE   W12
 BYTE   PEND 
//  #01 //007   ----------------------------------------
Label_54A2D4:
 BYTE   N11  Cn1  v112
 BYTE   W12
 BYTE   Gn1
 BYTE   W12
 BYTE   Cn2
 BYTE   W12
 BYTE   As1
 BYTE   W12
 BYTE   Cn2
 BYTE   W12
 BYTE   Gs1
 BYTE   W12
 BYTE   Fn1
 BYTE   W12
 BYTE   Gn1
 BYTE   W12
 BYTE   PEND 
//  #01 //008   ----------------------------------------
Label_54A2E7:
//  #01 //009   ----------------------------------------
 BYTE   PATT
  POIN2 Label_54A2C1
//  #01 //010   ----------------------------------------
 BYTE   PATT
  POIN2 Label_54A2AE
//  #01 //011   ----------------------------------------
 BYTE   PATT
  POIN2 Label_54A2C1
//  #01 //012   ----------------------------------------
 BYTE   PATT
  POIN2 Label_54A2D4
//  #01 //013   ----------------------------------------
 BYTE   PATT
  POIN2 Label_54A2C1
//  #01 //014   ----------------------------------------
 BYTE   PATT
  POIN2 Label_54A2AE
//  #01 //015   ----------------------------------------
 BYTE   PATT
  POIN2 Label_54A2C1
//  #01 //016   ----------------------------------------
 BYTE   PATT
  POIN2 Label_54A2D4
//  #01 //017   ----------------------------------------
 BYTE   PATT
  POIN2 Label_54A2C1
//  #01 //018   ----------------------------------------
 BYTE   PATT
  POIN2 Label_54A2AE
//  #01 //019   ----------------------------------------
 BYTE   PATT
  POIN2 Label_54A2C1
//  #01 //020   ----------------------------------------
 BYTE   PATT
  POIN2 Label_54A2D4
//  #01 //021   ----------------------------------------
 BYTE   PATT
  POIN2 Label_54A2C1
//  #01 //022   ----------------------------------------
 BYTE   PATT
  POIN2 Label_54A2AE
//  #01 //023   ----------------------------------------
 BYTE   PATT
  POIN2 Label_54A2C1
//  #01 //024   ----------------------------------------
 BYTE   PATT
  POIN2 Label_54A2D4
//  #01 //025   ----------------------------------------
 BYTE   PATT
  POIN2 Label_54A2C1
//  #01 //026   ----------------------------------------
 BYTE   PATT
  POIN2 Label_54A2AE
//  #01 //027   ----------------------------------------
 BYTE   PATT
  POIN2 Label_54A2C1
//  #01 //028   ----------------------------------------
 BYTE   PATT
  POIN2 Label_54A2D4
//  #01 //029   ----------------------------------------
 BYTE   PATT
  POIN2 Label_54A2C1
//  #01 //030   ----------------------------------------
 BYTE   PATT
  POIN2 Label_54A2AE
//  #01 //031   ----------------------------------------
 BYTE   PATT
  POIN2 Label_54A2C1
//  #01 //032   ----------------------------------------
 BYTE   PATT
  POIN2 Label_54A2D4
//  #01 //033   ----------------------------------------
 BYTE   PATT
  POIN2 Label_54A2C1
//  #01 //034   ----------------------------------------
 BYTE   PATT
  POIN2 Label_54A2AE
//  #01 //035   ----------------------------------------
 BYTE   PATT
  POIN2 Label_54A2C1
//  #01 //036   ----------------------------------------
 BYTE   PATT
  POIN2 Label_54A2D4
//  #01 //037   ----------------------------------------
 BYTE   PATT
  POIN2 Label_54A2C1
//  #01 //038   ----------------------------------------
 BYTE   PATT
  POIN2 Label_54A2AE
//  #01 //039   ----------------------------------------
 BYTE   PATT
  POIN2 Label_54A2C1
//  #01 //040   ----------------------------------------
 BYTE   PATT
  POIN2 Label_54A2AE
//  #01 //041   ----------------------------------------
 BYTE   GoTo
  POIN2 Label_54A2E7
 BYTE   FINE

//**************** Track 2 (Midi-Chn.1) ****************//

DPPt_LegendaryPokemon_Song_002:
//  #02 //000   ----------------------------------------
 BYTE   KEYSH   DPPt_LegendaryPokemon_Song_key+0
 BYTE   VOICE   56
 BYTE   MOD 0
 BYTE   VOL   49*DPPt_LegendaryPokemon_Song_mvl/mxv
 BYTE   PAN   c_v-48
 BYTE   BEND   c_v+0
 BYTE   TIE  Gn2  v112
 BYTE   W96
//  #02 //001   ----------------------------------------
 BYTE   W92
 BYTE   W03
 BYTE   EOT
 BYTE   W01
//  #02 //002   ----------------------------------------
 BYTE   TIE  Ds3
 BYTE   W96
//  #02 //003   ----------------------------------------
 BYTE   W92
 BYTE   W03
 BYTE   EOT
 BYTE   W01
//  #02 //004   ----------------------------------------
 BYTE   VOICE   14
 BYTE   MOD 0
 BYTE   VOL   49*DPPt_LegendaryPokemon_Song_mvl/mxv
 BYTE   PAN   c_v-12
 BYTE   BEND   c_v+0
 BYTE   N92  Gn3
 BYTE   W96
//  #02 //005   ----------------------------------------
 BYTE   W96
//  #02 //006   ----------------------------------------
 BYTE   W96
//  #02 //007   ----------------------------------------
 BYTE   W96
//  #02 //008   ----------------------------------------
Label_0110BAEF:
 BYTE   VOICE   14
 BYTE   PAN   c_v-9
 BYTE   TIE  Gs3  v112
 BYTE   W96
//  #02 //009   ----------------------------------------
 BYTE   W17
 BYTE   EOT
 BYTE   W78
 BYTE   W01
//  #02 //010   ----------------------------------------
 BYTE   W96
//  #02 //011   ----------------------------------------
 BYTE   W96
//  #02 //012   ----------------------------------------
 BYTE   VOICE   14
 BYTE   TIE
 BYTE   W96
//  #02 //013   ----------------------------------------
 BYTE   W28
 BYTE   W01
 BYTE   EOT
 BYTE   W66
 BYTE   W01
//  #02 //014   ----------------------------------------
 BYTE   W96
//  #02 //015   ----------------------------------------
 BYTE   W96
//  #02 //016   ----------------------------------------
 BYTE   VOICE   49
 BYTE   MOD 0
 BYTE   VOL   49*DPPt_LegendaryPokemon_Song_mvl/mxv
 BYTE   PAN   c_v-9
 BYTE   BEND   c_v+0
 BYTE   TIE  Gn1
 BYTE   W96
//  #02 //017   ----------------------------------------
 BYTE   W92
 BYTE   W03
 BYTE   EOT
 BYTE   W01
//  #02 //018   ----------------------------------------
 BYTE   TIE  Cn2
 BYTE   W96
//  #02 //019   ----------------------------------------
 BYTE   W92
 BYTE   W03
 BYTE   EOT
 BYTE   W01
//  #02 //020   ----------------------------------------
 BYTE   VOICE   49
 BYTE   TIE  Gn2
 BYTE   W96
//  #02 //021   ----------------------------------------
 BYTE   W92
 BYTE   W03
 BYTE   EOT
 BYTE   W01
//  #02 //022   ----------------------------------------
 BYTE   TIE  Cn3
 BYTE   W96
//  #02 //023   ----------------------------------------
 BYTE   W92
 BYTE   W03
 BYTE   EOT
 BYTE   W01
//  #02 //024   ----------------------------------------
 BYTE   TIE  Cs3
 BYTE   W96
//  #02 //025   ----------------------------------------
 BYTE   W92
 BYTE   W03
 BYTE   EOT
 BYTE   W01
//  #02 //026   ----------------------------------------
 BYTE   TIE  Cn3
 BYTE   W96
//  #02 //027   ----------------------------------------
 BYTE   W92
 BYTE   W03
 BYTE   EOT
 BYTE   W01
//  #02 //028   ----------------------------------------
 BYTE   PAN   c_v-9
 BYTE   TIE  Cs3
 BYTE   W96
//  #02 //029   ----------------------------------------
 BYTE   W92
 BYTE   W03
 BYTE   EOT
 BYTE   W01
//  #02 //030   ----------------------------------------
 BYTE   TIE  Cn3
 BYTE   W96
//  #02 //031   ----------------------------------------
 BYTE   W92
 BYTE   W03
 BYTE   EOT
 BYTE   W01
//  #02 //032   ----------------------------------------
 BYTE   TIE  As2
 BYTE   W96
//  #02 //033   ----------------------------------------
 BYTE   W92
 BYTE   W03
 BYTE   EOT
 BYTE   W01
//  #02 //034   ----------------------------------------
 BYTE   TIE  Gs2
 BYTE   W96
//  #02 //035   ----------------------------------------
 BYTE   W92
 BYTE   W03
 BYTE   EOT
 BYTE   W01
//  #02 //036   ----------------------------------------
 BYTE   TIE  Gn2
 BYTE   W96
//  #02 //037   ----------------------------------------
 BYTE   W92
 BYTE   W03
 BYTE   EOT
 BYTE   W01
//  #02 //038   ----------------------------------------
 BYTE   TIE
 BYTE   W96
//  #02 //039   ----------------------------------------
 BYTE   W92
 BYTE   W03
 BYTE   EOT
 BYTE   W01
//  #02 //040   ----------------------------------------
 BYTE   GoTo
  POIN2 Label_0110BAEF
 BYTE   FINE

//**************** Track 3 (Midi-Chn.2) ****************//

DPPt_LegendaryPokemon_Song_003:
//  #03 //000   ----------------------------------------
 BYTE   KEYSH   DPPt_LegendaryPokemon_Song_key+0
 BYTE   VOICE   14
 BYTE   MOD 0
 BYTE   VOL   49*DPPt_LegendaryPokemon_Song_mvl/mxv
 BYTE   PAN   c_v+10
 BYTE   BEND   c_v+0
 BYTE   TIE  Cn3  v112
 BYTE   W96
//  #03 //001   ----------------------------------------
 BYTE   W92
 BYTE   W03
 BYTE   EOT
 BYTE   W01
//  #03 //002   ----------------------------------------
 BYTE   TIE  Gs3
 BYTE   W96
//  #03 //003   ----------------------------------------
 BYTE   W92
 BYTE   W03
 BYTE   EOT
 BYTE   W01
//  #03 //004   ----------------------------------------
 BYTE   N11  Gs3  v040
 BYTE   W96
//  #03 //005   ----------------------------------------
 BYTE   W96
//  #03 //006   ----------------------------------------
 BYTE   W96
//  #03 //007   ----------------------------------------
 BYTE   W96
//  #03 //008   ----------------------------------------
Label_549932:
 BYTE   W96
//  #03 //009   ----------------------------------------
 BYTE   W96
//  #03 //010   ----------------------------------------
 BYTE   W96
//  #03 //011   ----------------------------------------
 BYTE   W96
//  #03 //012   ----------------------------------------
 BYTE   W96
//  #03 //013   ----------------------------------------
 BYTE   W96
//  #03 //014   ----------------------------------------
 BYTE   W96
//  #03 //015   ----------------------------------------
 BYTE   W96
//  #03 //016   ----------------------------------------
 BYTE   VOICE   49
 BYTE   MOD 0
 BYTE   VOL   49*DPPt_LegendaryPokemon_Song_mvl/mxv
 BYTE   PAN   c_v+15
 BYTE   BEND   c_v+0
 BYTE   TIE  Cn2  v112
 BYTE   W96
//  #03 //017   ----------------------------------------
 BYTE   W92
 BYTE   W03
 BYTE   EOT
 BYTE   W01
//  #03 //018   ----------------------------------------
 BYTE   TIE  Gn2
 BYTE   W96
//  #03 //019   ----------------------------------------
 BYTE   W92
 BYTE   W03
 BYTE   EOT
 BYTE   W01
//  #03 //020   ----------------------------------------
 BYTE   TIE  Cn3
 BYTE   W96
//  #03 //021   ----------------------------------------
 BYTE   W92
 BYTE   W03
 BYTE   EOT
 BYTE   W01
//  #03 //022   ----------------------------------------
 BYTE   TIE  Gn3
 BYTE   W96
//  #03 //023   ----------------------------------------
 BYTE   W92
 BYTE   W03
 BYTE   EOT
 BYTE   W01
//  #03 //024   ----------------------------------------
 BYTE   TIE  Gs3
 BYTE   W96
//  #03 //025   ----------------------------------------
 BYTE   W92
 BYTE   W03
 BYTE   EOT
 BYTE   W01
//  #03 //026   ----------------------------------------
 BYTE   TIE  Gn3
 BYTE   W96
//  #03 //027   ----------------------------------------
 BYTE   W92
 BYTE   W03
 BYTE   EOT
 BYTE   W01
//  #03 //028   ----------------------------------------
 BYTE   TIE  Gs3
 BYTE   W96
//  #03 //029   ----------------------------------------
 BYTE   W92
 BYTE   W03
 BYTE   EOT
 BYTE   W01
//  #03 //030   ----------------------------------------
 BYTE   TIE  Gn3
 BYTE   W96
//  #03 //031   ----------------------------------------
 BYTE   W92
 BYTE   W03
 BYTE   EOT
 BYTE   W01
//  #03 //032   ----------------------------------------
 BYTE   TIE  Fn3
 BYTE   W96
//  #03 //033   ----------------------------------------
 BYTE   W92
 BYTE   W03
 BYTE   EOT
 BYTE   W01
//  #03 //034   ----------------------------------------
 BYTE   TIE  Cs3
 BYTE   W96
//  #03 //035   ----------------------------------------
 BYTE   W92
 BYTE   W03
 BYTE   EOT
 BYTE   W01
//  #03 //036   ----------------------------------------
 BYTE   TIE  Cn3
 BYTE   W96
//  #03 //037   ----------------------------------------
 BYTE   W92
 BYTE   W03
 BYTE   EOT
 BYTE   W01
//  #03 //038   ----------------------------------------
 BYTE   TIE
 BYTE   W96
//  #03 //039   ----------------------------------------
 BYTE   W92
 BYTE   W03
 BYTE   EOT
 BYTE   W01
//  #03 //040   ----------------------------------------
 BYTE   GoTo
  POIN2 Label_549932
 BYTE   FINE

//**************** Track 4 (Midi-Chn.3) ****************//

DPPt_LegendaryPokemon_Song_004:
//  #04 //000   ----------------------------------------
 BYTE   KEYSH   DPPt_LegendaryPokemon_Song_key+0
 BYTE   VOICE   49
 BYTE   MOD 0
 BYTE   VOL   49*DPPt_LegendaryPokemon_Song_mvl/mxv
 BYTE   PAN   c_v-14
 BYTE   BEND   c_v+0
 BYTE   TIE  En2  v112
 BYTE   W96
//  #04 //001   ----------------------------------------
 BYTE   W92
 BYTE   W03
 BYTE   EOT
 BYTE   W01
//  #04 //002   ----------------------------------------
 BYTE   TIE  Cn3
 BYTE   W96
//  #04 //003   ----------------------------------------
 BYTE   W92
 BYTE   W03
 BYTE   EOT
 BYTE   W01
//  #04 //004   ----------------------------------------
 BYTE   VOICE   13
 BYTE   MOD 0
 BYTE   VOL   49*DPPt_LegendaryPokemon_Song_mvl/mxv
 BYTE   PAN   c_v+24
 BYTE   BEND   c_v+0
 BYTE   N92
 BYTE   W96
//  #04 //005   ----------------------------------------
 BYTE   W96
//  #04 //006   ----------------------------------------
 BYTE   W96
//  #04 //007   ----------------------------------------
 BYTE   W96
//  #04 //008   ----------------------------------------
Label_0110BA02:
 BYTE   VOICE   13
 BYTE   PAN   c_v+34
 BYTE   TIE  Cs3  v112
 BYTE   W96
//  #04 //009   ----------------------------------------
 BYTE   W17
 BYTE   EOT
 BYTE   W78
 BYTE   W01
//  #04 //010   ----------------------------------------
 BYTE   W96
//  #04 //011   ----------------------------------------
 BYTE   W96
//  #04 //012   ----------------------------------------
 BYTE   TIE
 BYTE   W96
//  #04 //013   ----------------------------------------
 BYTE   W28
 BYTE   W01
 BYTE   EOT
 BYTE   W66
 BYTE   W01
//  #04 //014   ----------------------------------------
 BYTE   W96
//  #04 //015   ----------------------------------------
 BYTE   W96
//  #04 //016   ----------------------------------------
 BYTE   TIE  Cn3
 BYTE   W96
//  #04 //017   ----------------------------------------
 BYTE   W23
 BYTE   EOT
 BYTE   W72
 BYTE   W01
//  #04 //018   ----------------------------------------
 BYTE   W96
//  #04 //019   ----------------------------------------
 BYTE   W96
//  #04 //020   ----------------------------------------
 BYTE   W96
//  #04 //021   ----------------------------------------
 BYTE   W96
//  #04 //022   ----------------------------------------
 BYTE   W96
//  #04 //023   ----------------------------------------
 BYTE   W96
//  #04 //024   ----------------------------------------
 BYTE   W96
//  #04 //025   ----------------------------------------
 BYTE   W96
//  #04 //026   ----------------------------------------
 BYTE   W96
//  #04 //027   ----------------------------------------
 BYTE   W96
//  #04 //028   ----------------------------------------
 BYTE   W96
//  #04 //029   ----------------------------------------
 BYTE   W96
//  #04 //030   ----------------------------------------
 BYTE   W96
//  #04 //031   ----------------------------------------
 BYTE   W96
//  #04 //032   ----------------------------------------
 BYTE   W96
//  #04 //033   ----------------------------------------
 BYTE   W96
//  #04 //034   ----------------------------------------
 BYTE   W96
//  #04 //035   ----------------------------------------
 BYTE   W96
//  #04 //036   ----------------------------------------
 BYTE   W96
//  #04 //037   ----------------------------------------
 BYTE   W96
//  #04 //038   ----------------------------------------
 BYTE   W96
//  #04 //039   ----------------------------------------
 BYTE   W96
//  #04 //040   ----------------------------------------
 BYTE   GoTo
  POIN2 Label_0110BA02
 BYTE   FINE

//**************** Track 5 (Midi-Chn.4) ****************//

DPPt_LegendaryPokemon_Song_005:
//  #05 //000   ----------------------------------------
 BYTE   KEYSH   DPPt_LegendaryPokemon_Song_key+0
 BYTE   MOD 0
 BYTE   VOL   49*DPPt_LegendaryPokemon_Song_mvl/mxv
 BYTE   BEND   c_v+0
 BYTE   W96
//  #05 //001   ----------------------------------------
 BYTE   W96
//  #05 //002   ----------------------------------------
 BYTE   W96
//  #05 //003   ----------------------------------------
 BYTE   W96
//  #05 //004   ----------------------------------------
 BYTE   W96
//  #05 //005   ----------------------------------------
 BYTE   W96
//  #05 //006   ----------------------------------------
 BYTE   W96
//  #05 //007   ----------------------------------------
 BYTE   W96
//  #05 //008   ----------------------------------------
Label_0110B968:
 BYTE   W96
//  #05 //009   ----------------------------------------
 BYTE   W96
//  #05 //010   ----------------------------------------
 BYTE   W96
//  #05 //011   ----------------------------------------
 BYTE   W96
//  #05 //012   ----------------------------------------
 BYTE   W96
//  #05 //013   ----------------------------------------
 BYTE   W96
//  #05 //014   ----------------------------------------
 BYTE   W96
//  #05 //015   ----------------------------------------
 BYTE   W96
//  #05 //016   ----------------------------------------
 BYTE   PAN   c_v-33
 BYTE   W96
//  #05 //017   ----------------------------------------
 BYTE   W90
 BYTE   VOICE   49
 BYTE   W06
//  #05 //018   ----------------------------------------
 BYTE   TIE  Gn1  v112
 BYTE   W96
//  #05 //019   ----------------------------------------
 BYTE   W92
 BYTE   W03
 BYTE   EOT
 BYTE   W01
//  #05 //020   ----------------------------------------
 BYTE   TIE  Cn2
 BYTE   W96
//  #05 //021   ----------------------------------------
 BYTE   W92
 BYTE   W03
 BYTE   EOT
 BYTE   W01
//  #05 //022   ----------------------------------------
 BYTE   TIE  Gn2
 BYTE   W96
//  #05 //023   ----------------------------------------
 BYTE   W92
 BYTE   W03
 BYTE   EOT
 BYTE   W01
//  #05 //024   ----------------------------------------
 BYTE   TIE  Gs2
 BYTE   W96
//  #05 //025   ----------------------------------------
 BYTE   W92
 BYTE   W03
 BYTE   EOT
 BYTE   W01
//  #05 //026   ----------------------------------------
 BYTE   TIE  Gn2
 BYTE   W96
//  #05 //027   ----------------------------------------
 BYTE   W92
 BYTE   W03
 BYTE   EOT
 BYTE   W01
//  #05 //028   ----------------------------------------
 BYTE   TIE  Gs2
 BYTE   W96
//  #05 //029   ----------------------------------------
 BYTE   W92
 BYTE   W03
 BYTE   EOT
 BYTE   W01
//  #05 //030   ----------------------------------------
 BYTE   TIE  Gn2
 BYTE   W96
//  #05 //031   ----------------------------------------
 BYTE   W92
 BYTE   W03
 BYTE   EOT
 BYTE   W01
//  #05 //032   ----------------------------------------
 BYTE   TIE  Fn2
 BYTE   W96
//  #05 //033   ----------------------------------------
 BYTE   W92
 BYTE   W03
 BYTE   EOT
 BYTE   W01
//  #05 //034   ----------------------------------------
 BYTE   TIE  Cs2
 BYTE   W96
//  #05 //035   ----------------------------------------
 BYTE   W92
 BYTE   W03
 BYTE   EOT
 BYTE   W01
//  #05 //036   ----------------------------------------
 BYTE   TIE  Cn2
 BYTE   W96
//  #05 //037   ----------------------------------------
 BYTE   W92
 BYTE   W03
 BYTE   EOT
 BYTE   W01
//  #05 //038   ----------------------------------------
 BYTE   TIE  Gn1
 BYTE   W96
//  #05 //039   ----------------------------------------
 BYTE   W92
 BYTE   W03
 BYTE   EOT
 BYTE   W01
//  #05 //040   ----------------------------------------
 BYTE   GoTo
  POIN2 Label_0110B968
 BYTE   FINE

//**************** Track 6 (Midi-Chn.5) ****************//

DPPt_LegendaryPokemon_Song_006:
//  #06 //000   ----------------------------------------
 BYTE   KEYSH   DPPt_LegendaryPokemon_Song_key+0
 BYTE   VOICE   13
 BYTE   MOD 0
 BYTE   VOL   40*DPPt_LegendaryPokemon_Song_mvl/mxv
 BYTE   PAN   c_v+46
 BYTE   BEND   c_v+0
 BYTE   TIE  As2  v112
 BYTE   W96
//  #06 //001   ----------------------------------------
 BYTE   W92
 BYTE   W03
 BYTE   EOT
 BYTE   W01
//  #06 //002   ----------------------------------------
 BYTE   TIE  Fn3
 BYTE   W96
//  #06 //003   ----------------------------------------
 BYTE   W92
 BYTE   W03
 BYTE   EOT
 BYTE   W01
//  #06 //004   ----------------------------------------
 BYTE   VOICE   13
 BYTE   MOD 0
 BYTE   VOL   60*DPPt_LegendaryPokemon_Song_mvl/mxv
 BYTE   PAN   c_v-46
 BYTE   BEND   c_v+0
 BYTE   N92  Gn2
 BYTE   W96
//  #06 //005   ----------------------------------------
 BYTE   W96
//  #06 //006   ----------------------------------------
 BYTE   W96
//  #06 //007   ----------------------------------------
 BYTE   W96
//  #06 //008   ----------------------------------------
Label_54A3BB:
 BYTE   VOICE   13
 BYTE   VOL   60*DPPt_LegendaryPokemon_Song_mvl/mxv
 BYTE   PAN   c_v-46
 BYTE   TIE  Gs2  v112
 BYTE   W96
//  #06 //009   ----------------------------------------
 BYTE   W17
 BYTE   EOT
 BYTE   W78
 BYTE   W01
//  #06 //010   ----------------------------------------
 BYTE   W96
//  #06 //011   ----------------------------------------
 BYTE   W96
//  #06 //012   ----------------------------------------
 BYTE   TIE
 BYTE   W96
//  #06 //013   ----------------------------------------
 BYTE   W28
 BYTE   W01
 BYTE   EOT
 BYTE   W66
 BYTE   W01
//  #06 //014   ----------------------------------------
 BYTE   W96
//  #06 //015   ----------------------------------------
 BYTE   W96
//  #06 //016   ----------------------------------------
 BYTE   TIE
 BYTE   W96
//  #06 //017   ----------------------------------------
 BYTE   W23
 BYTE   EOT
 BYTE   W72
 BYTE   W01
//  #06 //018   ----------------------------------------
 BYTE   W96
//  #06 //019   ----------------------------------------
 BYTE   W96
//  #06 //020   ----------------------------------------
 BYTE   PAN   c_v+0
 BYTE   TIE  Cn3  v127
 BYTE   W96
//  #06 //021   ----------------------------------------
 BYTE   W24
 BYTE   W02
 BYTE   EOT
 BYTE   W68
 BYTE   W02
//  #06 //022   ----------------------------------------
 BYTE   W96
//  #06 //023   ----------------------------------------
 BYTE   W96
//  #06 //024   ----------------------------------------
 BYTE   TIE  Cs3
 BYTE   W96
//  #06 //025   ----------------------------------------
 BYTE   W24
 BYTE   W02
 BYTE   EOT
 BYTE   W68
 BYTE   W02
//  #06 //026   ----------------------------------------
 BYTE   W96
//  #06 //027   ----------------------------------------
 BYTE   W96
//  #06 //028   ----------------------------------------
 BYTE   TIE
 BYTE   W96
//  #06 //029   ----------------------------------------
 BYTE   W24
 BYTE   W02
 BYTE   EOT
 BYTE   W68
 BYTE   W02
//  #06 //030   ----------------------------------------
 BYTE   W96
//  #06 //031   ----------------------------------------
 BYTE   W96
//  #06 //032   ----------------------------------------
 BYTE   TIE  As2
 BYTE   W96
//  #06 //033   ----------------------------------------
 BYTE   W23
 BYTE   EOT
 BYTE   W72
 BYTE   W01
//  #06 //034   ----------------------------------------
 BYTE   W96
//  #06 //035   ----------------------------------------
 BYTE   W96
//  #06 //036   ----------------------------------------
 BYTE   TIE  Gn2
 BYTE   W96
//  #06 //037   ----------------------------------------
 BYTE   W24
 BYTE   W02
 BYTE   EOT
 BYTE   W68
 BYTE   W02
//  #06 //038   ----------------------------------------
 BYTE   W96
//  #06 //039   ----------------------------------------
 BYTE   W96
//  #06 //040   ----------------------------------------
 BYTE   GoTo
  POIN2 Label_54A3BB
 BYTE   FINE

//**************** Track 7 (Midi-Chn.6) ****************//

DPPt_LegendaryPokemon_Song_007:
//  #07 //000   ----------------------------------------
 BYTE   KEYSH   DPPt_LegendaryPokemon_Song_key+0
 BYTE   VOICE   47
 BYTE   MOD 0
 BYTE   VOL   60*DPPt_LegendaryPokemon_Song_mvl/mxv
 BYTE   PAN   c_v+0
 BYTE   BEND   c_v+0
 BYTE   W96
//  #07 //001   ----------------------------------------
 BYTE   W96
//  #07 //002   ----------------------------------------
 BYTE   W96
//  #07 //003   ----------------------------------------
 BYTE   W96
//  #07 //004   ----------------------------------------
 BYTE   W96
//  #07 //005   ----------------------------------------
 BYTE   W96
//  #07 //006   ----------------------------------------
 BYTE   W96
//  #07 //007   ----------------------------------------
 BYTE   W48
 BYTE   PAN   c_v+32
 BYTE   W12
 BYTE   N23  Cn2  v112
 BYTE   W24
 BYTE   PAN   c_v+32
 BYTE   N05  En2
 BYTE   W06
 BYTE   Gn1
 BYTE   W06
//  #07 //008   ----------------------------------------
Label_0111F506:
 BYTE   PAN   c_v-32
 BYTE   N44  Cn2  v112
 BYTE   W48
 BYTE   N44
 BYTE   W48
//  #07 //009   ----------------------------------------
 BYTE   N44
 BYTE   W48
 BYTE   N32
 BYTE   W36
 BYTE   PAN   c_v-32
 BYTE   N05  En2
 BYTE   W06
 BYTE   Gn1
 BYTE   W06
//  #07 //010   ----------------------------------------
 BYTE   PAN   c_v+32
 BYTE   N44  Cn2
 BYTE   W48
 BYTE   N44
 BYTE   W48
//  #07 //011   ----------------------------------------
 BYTE   N44
 BYTE   W48
 BYTE   N11
 BYTE   W12
 BYTE   N23
 BYTE   W24
 BYTE   N05  En2
 BYTE   W06
 BYTE   Gn1
 BYTE   W06
//  #07 //012   ----------------------------------------
 BYTE   PAN   c_v-32
 BYTE   N23  Cn2
 BYTE   W24
 BYTE   En2
 BYTE   W24
 BYTE   PAN   c_v+32
 BYTE   N23  Cn2
 BYTE   W24
 BYTE   En2
 BYTE   W24
//  #07 //013   ----------------------------------------
Label_0111F539:
 BYTE   N23  Cn2  v112
 BYTE   W24
 BYTE   En2
 BYTE   W24
 BYTE   PAN   c_v-32
 BYTE   N23  Cn2
 BYTE   W24
 BYTE   En2
 BYTE   W24
 BYTE   PEND 
//  #07 //014   ----------------------------------------
Label_0111F547:
 BYTE   N23  Cn2  v112
 BYTE   W24
 BYTE   En2
 BYTE   W24
 BYTE   PAN   c_v+32
 BYTE   N23  Cn2
 BYTE   W24
 BYTE   En2
 BYTE   W24
 BYTE   PEND 
//  #07 //015   ----------------------------------------
 BYTE   PATT
  POIN2 Label_0111F539
//  #07 //016   ----------------------------------------
 BYTE   PATT
  POIN2 Label_0111F547
//  #07 //017   ----------------------------------------
 BYTE   PATT
  POIN2 Label_0111F539
//  #07 //018   ----------------------------------------
 BYTE   PATT
  POIN2 Label_0111F547
//  #07 //019   ----------------------------------------
 BYTE   PATT
  POIN2 Label_0111F539
//  #07 //020   ----------------------------------------
 BYTE   PATT
  POIN2 Label_0111F547
//  #07 //021   ----------------------------------------
 BYTE   PATT
  POIN2 Label_0111F539
//  #07 //022   ----------------------------------------
 BYTE   PATT
  POIN2 Label_0111F547
//  #07 //023   ----------------------------------------
 BYTE   PATT
  POIN2 Label_0111F539
//  #07 //024   ----------------------------------------
 BYTE   PATT
  POIN2 Label_0111F547
//  #07 //025   ----------------------------------------
 BYTE   PATT
  POIN2 Label_0111F539
//  #07 //026   ----------------------------------------
 BYTE   PATT
  POIN2 Label_0111F547
//  #07 //027   ----------------------------------------
 BYTE   PATT
  POIN2 Label_0111F539
//  #07 //028   ----------------------------------------
 BYTE   PATT
  POIN2 Label_0111F547
//  #07 //029   ----------------------------------------
 BYTE   PATT
  POIN2 Label_0111F539
//  #07 //030   ----------------------------------------
 BYTE   PATT
  POIN2 Label_0111F547
//  #07 //031   ----------------------------------------
 BYTE   PATT
  POIN2 Label_0111F539
//  #07 //032   ----------------------------------------
 BYTE   PATT
  POIN2 Label_0111F547
//  #07 //033   ----------------------------------------
 BYTE   PATT
  POIN2 Label_0111F539
//  #07 //034   ----------------------------------------
 BYTE   PATT
  POIN2 Label_0111F547
//  #07 //035   ----------------------------------------
 BYTE   PATT
  POIN2 Label_0111F539
//  #07 //036   ----------------------------------------
 BYTE   PATT
  POIN2 Label_0111F547
//  #07 //037   ----------------------------------------
 BYTE   PATT
  POIN2 Label_0111F539
//  #07 //038   ----------------------------------------
 BYTE   PATT
  POIN2 Label_0111F547
//  #07 //039   ----------------------------------------
 BYTE   PATT
  POIN2 Label_0111F539
//  #07 //040   ----------------------------------------
 BYTE   GoTo
  POIN2 Label_0111F506
 BYTE   FINE

//**************** Track 8 (Midi-Chn.7) ****************//

DPPt_LegendaryPokemon_Song_008:
//  #08 //000   ----------------------------------------
 BYTE   KEYSH   DPPt_LegendaryPokemon_Song_key+0
 BYTE   VOICE   121
 BYTE   MOD 0
 BYTE   VOL   49*DPPt_LegendaryPokemon_Song_mvl/mxv
 BYTE   PAN   c_v+0
 BYTE   BEND   c_v+0
 BYTE   W96
//  #08 //001   ----------------------------------------
 BYTE   W96
//  #08 //002   ----------------------------------------
 BYTE   W96
//  #08 //003   ----------------------------------------
 BYTE   W96
//  #08 //004   ----------------------------------------
 BYTE   N11  Cn1  v127
 BYTE   N32  Fn1  v112
 BYTE   N05  Fs1
 BYTE   W06
 BYTE   N05
 BYTE   W06
 BYTE   N05
 BYTE   N23  Gn1
 BYTE   W06
 BYTE   N05  Fs1
 BYTE   W06
 BYTE   N11  Cn1  v127
 BYTE   N11  As1  v112
 BYTE   W12
 BYTE   En1
 BYTE   N32  Fn1
 BYTE   N23  Gn1
 BYTE   W12
 BYTE   N11  Cn1  v127
 BYTE   N05  Fs1  v112
 BYTE   W06
 BYTE   N05
 BYTE   W06
 BYTE   N05
 BYTE   N32  Gn1
 BYTE   W06
 BYTE   N05  Fs1
 BYTE   W06
 BYTE   N11  Cn1  v127
 BYTE   N11  En1  v112
 BYTE   N23  Fn1
 BYTE   W12
 BYTE   N11  As1
 BYTE   W12
//  #08 //005   ----------------------------------------
Label_0111F633:
 BYTE   N11  Cn1  v127
 BYTE   N23  Fn1  v112
 BYTE   N05  Fs1
 BYTE   N32  Gn1
 BYTE   W06
 BYTE   N05  Fs1
 BYTE   W06
 BYTE   N11  As1
 BYTE   W12
 BYTE   Cn1  v127
 BYTE   N32  Fn1  v112
 BYTE   N05  Fs1
 BYTE   W06
 BYTE   N05
 BYTE   W06
 BYTE   N11  En1
 BYTE   N11  Gn1
 BYTE   W12
 BYTE   Cn1  v127
 BYTE   N23  Gn1  v112
 BYTE   N11  As1
 BYTE   W12
 BYTE   En1
 BYTE   N23  Fn1
 BYTE   W12
 BYTE   N11  Cn1  v127
 BYTE   N05  Fs1  v112
 BYTE   N23  Gn1
 BYTE   W06
 BYTE   N05  Fs1
 BYTE   W06
 BYTE   N11  Fn1
 BYTE   N05  Fs1
 BYTE   W06
 BYTE   N05
 BYTE   W06
 BYTE   PEND 
//  #08 //006   ----------------------------------------
Label_0111F673:
 BYTE   N11  Cn1  v127
 BYTE   N32  Fn1  v112
 BYTE   N11  Gn1
 BYTE   N11  As1
 BYTE   W12
 BYTE   N05  Fs1
 BYTE   N23  Gn1
 BYTE   W06
 BYTE   N05  Fs1
 BYTE   W06
 BYTE   N11  Cn1  v127
 BYTE   N11  As1  v112
 BYTE   W12
 BYTE   En1
 BYTE   N32  Fn1
 BYTE   N23  Gn1
 BYTE   W12
 BYTE   N11  Cn1  v127
 BYTE   N05  Fs1  v112
 BYTE   W06
 BYTE   N05
 BYTE   W06
 BYTE   N05
 BYTE   N32  Gn1
 BYTE   W06
 BYTE   N05  Fs1
 BYTE   W06
 BYTE   N11  Cn1  v127
 BYTE   N11  En1  v112
 BYTE   N23  Fn1
 BYTE   W12
 BYTE   N11  As1
 BYTE   W12
 BYTE   PEND 
//  #08 //007   ----------------------------------------
Label_0111F6B0:
 BYTE   N11  Cn1  v127
 BYTE   N23  Fn1  v112
 BYTE   N05  Fs1
 BYTE   N32  Gn1
 BYTE   W06
 BYTE   N05  Fs1
 BYTE   W06
 BYTE   N11  As1
 BYTE   W12
 BYTE   Cn1  v127
 BYTE   N32  Fn1  v112
 BYTE   N05  Fs1
 BYTE   W06
 BYTE   N05
 BYTE   W06
 BYTE   N11  En1
 BYTE   N11  Gn1
 BYTE   W12
 BYTE   Cn1  v127
 BYTE   N23  Gn1  v112
 BYTE   N11  As1
 BYTE   W12
 BYTE   En1
 BYTE   N32  Fn1
 BYTE   W12
 BYTE   N11  Cn1  v127
 BYTE   N05  Fs1  v112
 BYTE   N23  Gn1
 BYTE   W06
 BYTE   N05  Fs1
 BYTE   W06
 BYTE   N11  As1
 BYTE   W12
 BYTE   PEND 
//  #08 //008   ----------------------------------------
Label_0111F6EC:
 BYTE   N11  Cn1  v127
 BYTE   N32  Fn1  v112
 BYTE   N05  Fs1
 BYTE   N11  Gn1
 BYTE   W06
 BYTE   N05  Fs1
 BYTE   W06
 BYTE   N05
 BYTE   N23  Gn1
 BYTE   W06
 BYTE   N05  Fs1
 BYTE   W06
 BYTE   N11  Cn1  v127
 BYTE   N11  As1  v112
 BYTE   W12
 BYTE   En1
 BYTE   N32  Fn1
 BYTE   N23  Gn1
 BYTE   W12
 BYTE   N11  Cn1  v127
 BYTE   N05  Fs1  v112
 BYTE   W06
 BYTE   N05
 BYTE   W06
 BYTE   N05
 BYTE   N32  Gn1
 BYTE   W06
 BYTE   N05  Fs1
 BYTE   W06
 BYTE   N11  Cn1  v127
 BYTE   N11  En1  v112
 BYTE   N23  Fn1
 BYTE   W12
 BYTE   N11  As1
 BYTE   W12
 BYTE   PEND 
//  #08 //009   ----------------------------------------
 BYTE   PATT
  POIN2 Label_0111F633
//  #08 //010   ----------------------------------------
 BYTE   PATT
  POIN2 Label_0111F673
//  #08 //011   ----------------------------------------
 BYTE   PATT
  POIN2 Label_0111F6B0
//  #08 //012   ----------------------------------------
 BYTE   PATT
  POIN2 Label_0111F6EC
//  #08 //013   ----------------------------------------
 BYTE   PATT
  POIN2 Label_0111F633
//  #08 //014   ----------------------------------------
 BYTE   PATT
  POIN2 Label_0111F673
//  #08 //015   ----------------------------------------
 BYTE   PATT
  POIN2 Label_0111F6B0
//  #08 //016   ----------------------------------------
 BYTE   PATT
  POIN2 Label_0111F6EC
//  #08 //017   ----------------------------------------
 BYTE   PATT
  POIN2 Label_0111F633
//  #08 //018   ----------------------------------------
 BYTE   PATT
  POIN2 Label_0111F673
//  #08 //019   ----------------------------------------
 BYTE   PATT
  POIN2 Label_0111F6B0
//  #08 //020   ----------------------------------------
 BYTE   PATT
  POIN2 Label_0111F6EC
//  #08 //021   ----------------------------------------
 BYTE   PATT
  POIN2 Label_0111F633
//  #08 //022   ----------------------------------------
 BYTE   PATT
  POIN2 Label_0111F673
//  #08 //023   ----------------------------------------
 BYTE   PATT
  POIN2 Label_0111F6B0
//  #08 //024   ----------------------------------------
 BYTE   PATT
  POIN2 Label_0111F6EC
//  #08 //025   ----------------------------------------
 BYTE   PATT
  POIN2 Label_0111F633
//  #08 //026   ----------------------------------------
 BYTE   PATT
  POIN2 Label_0111F673
//  #08 //027   ----------------------------------------
 BYTE   PATT
  POIN2 Label_0111F6B0
//  #08 //028   ----------------------------------------
 BYTE   PATT
  POIN2 Label_0111F6EC
//  #08 //029   ----------------------------------------
 BYTE   PATT
  POIN2 Label_0111F633
//  #08 //030   ----------------------------------------
 BYTE   PATT
  POIN2 Label_0111F673
//  #08 //031   ----------------------------------------
 BYTE   PATT
  POIN2 Label_0111F6B0
//  #08 //032   ----------------------------------------
 BYTE   PATT
  POIN2 Label_0111F6EC
//  #08 //033   ----------------------------------------
 BYTE   PATT
  POIN2 Label_0111F633
//  #08 //034   ----------------------------------------
 BYTE   PATT
  POIN2 Label_0111F673
//  #08 //035   ----------------------------------------
 BYTE   PATT
  POIN2 Label_0111F6B0
//  #08 //036   ----------------------------------------
 BYTE   PATT
  POIN2 Label_0111F6EC
//  #08 //037   ----------------------------------------
 BYTE   PATT
  POIN2 Label_0111F633
//  #08 //038   ----------------------------------------
 BYTE   PATT
  POIN2 Label_0111F673
//  #08 //039   ----------------------------------------
 BYTE   PATT
  POIN2 Label_0111F6B0
//  #08 //040   ----------------------------------------
 BYTE   GoTo
  POIN2 Label_0111F6EC
 BYTE   FINE

//******************************************************//
	ALIGN 4

DPPt_LegendaryPokemon_Song:
	BYTE	8	// NumTrks
	BYTE	0	// NumBlks
	BYTE	DPPt_LegendaryPokemon_Song_pri	// Priority
	BYTE	DPPt_LegendaryPokemon_Song_rev	// Reverb.
    
	POIN2	DPPt_LegendaryPokemon_Song_grp
    
	POIN2	DPPt_LegendaryPokemon_Song_001
	POIN2	DPPt_LegendaryPokemon_Song_002
	POIN2	DPPt_LegendaryPokemon_Song_003
	POIN2	DPPt_LegendaryPokemon_Song_004
	POIN2	DPPt_LegendaryPokemon_Song_005
	POIN2	DPPt_LegendaryPokemon_Song_006
	POIN2	DPPt_LegendaryPokemon_Song_007
	POIN2	DPPt_LegendaryPokemon_Song_008

	
