//Event file generated from Sappy .s format.
	#include "MPlayDef.event"

	#define	NessiahSortie_Song_grp  voicegroup000
	#define	NessiahSortie_Song_pri  0
	#define	NessiahSortie_Song_rev  0
	#define	NessiahSortie_Song_mvl  127
	#define	NessiahSortie_Song_key  0
	#define	NessiahSortie_Song_tbs  1
	#define	NessiahSortie_Song_exg  0
	#define	NessiahSortie_Song_cmp  1

	// .rodata
	//	NessiahSortie_Song
	ALIGN 4


//**************** Track 1 (Midi-Chn.0) ****************//

NessiahSortie_Song_001:
//  #01 //000   ----------------------------------------
 BYTE   KEYSH   NessiahSortie_Song_key+0
 BYTE   TEMPO   140*NessiahSortie_Song_tbs/2
 BYTE   VOICE   30
 BYTE   VOL   45*NessiahSortie_Song_mvl/mxv
 BYTE   W12
 BYTE   N04  An2  v100
 BYTE   N04  Ds3
 BYTE   W04
 BYTE   Cn3
 BYTE   N04  Fn3
 BYTE   W04
 BYTE   Ds3
 BYTE   N04  Gn3
 BYTE   W04
 BYTE   An3
 BYTE   N04  Dn4
 BYTE   W04
 BYTE   Cn4
 BYTE   N04  Fn4
 BYTE   W04
 BYTE   Ds4
 BYTE   N04  Gs4
 BYTE   W04
 BYTE   N24  En4
 BYTE   N24  An4
 BYTE   W24
 BYTE   Ds4
 BYTE   N24  Gs4
 BYTE   W24
 BYTE   Bn3
 BYTE   N24  En4
 BYTE   W12
//  #01 //001   ----------------------------------------
 BYTE   W12
 BYTE   Dn4
 BYTE   N24  Gn4
 BYTE   W24
 BYTE   Cs4
 BYTE   N24  Fs4
 BYTE   W24
 BYTE   An3
 BYTE   N24  Dn4
 BYTE   W24
Label_01C412E9:
 BYTE   W12
//  #01 //002   ----------------------------------------
 BYTE   W96
//  #01 //003   ----------------------------------------
 BYTE   W96
//  #01 //004   ----------------------------------------
 BYTE   W96
//  #01 //005   ----------------------------------------
 BYTE   W96
//  #01 //006   ----------------------------------------
 BYTE   W96
//  #01 //007   ----------------------------------------
 BYTE   W96
//  #01 //008   ----------------------------------------
 BYTE   W96
//  #01 //009   ----------------------------------------
 BYTE   W96
//  #01 //010   ----------------------------------------
 BYTE   W96
//  #01 //011   ----------------------------------------
 BYTE   W96
//  #01 //012   ----------------------------------------
 BYTE   W96
//  #01 //013   ----------------------------------------
 BYTE   W96
//  #01 //014   ----------------------------------------
 BYTE   W96
//  #01 //015   ----------------------------------------
 BYTE   W96
//  #01 //016   ----------------------------------------
 BYTE   W96
//  #01 //017   ----------------------------------------
 BYTE   W96
//  #01 //018   ----------------------------------------
 BYTE   W96
//  #01 //019   ----------------------------------------
 BYTE   W96
//  #01 //020   ----------------------------------------
 BYTE   W80
 BYTE   W02
 BYTE   GoTo
  POIN2 Label_01C412E9
//  #01 //021   ----------------------------------------
 BYTE   W14
 BYTE   W96
//  #01 //022   ----------------------------------------
 BYTE   W96
//  #01 //023   ----------------------------------------
 BYTE   W12
 BYTE   FINE

//**************** Track 2 (Midi-Chn.1) ****************//

NessiahSortie_Song_002:
//  #02 //000   ----------------------------------------
 BYTE   KEYSH   NessiahSortie_Song_key+0
 BYTE   VOICE   80
 BYTE   VOL   35*NessiahSortie_Song_mvl/mxv
 BYTE   BEND   c_v+32
 BYTE   W96
//  #02 //001   ----------------------------------------
 BYTE   W84
Label_01C4147E:
 BYTE   BEND   c_v+0
 BYTE   W12
//  #02 //002   ----------------------------------------
 BYTE   W96
//  #02 //003   ----------------------------------------
 BYTE   W96
//  #02 //004   ----------------------------------------
 BYTE   W96
//  #02 //005   ----------------------------------------
 BYTE   W96
//  #02 //006   ----------------------------------------
 BYTE   W96
//  #02 //007   ----------------------------------------
 BYTE   W12
 BYTE   N06  Cn5  v100
 BYTE   W06
 BYTE   Bn4
 BYTE   W06
 BYTE   An4
 BYTE   W06
 BYTE   Bn4
 BYTE   W06
 BYTE   Cn5
 BYTE   W06
 BYTE   Gn4
 BYTE   W06
 BYTE   Gn5
 BYTE   W06
 BYTE   En5
 BYTE   W06
 BYTE   Cn5
 BYTE   W06
 BYTE   Gn4
 BYTE   W06
 BYTE   En4
 BYTE   W06
 BYTE   Cn4
 BYTE   W18
//  #02 //008   ----------------------------------------
 BYTE   W96
//  #02 //009   ----------------------------------------
 BYTE   W96
//  #02 //010   ----------------------------------------
 BYTE   W96
//  #02 //011   ----------------------------------------
 BYTE   W96
//  #02 //012   ----------------------------------------
 BYTE   W96
//  #02 //013   ----------------------------------------
 BYTE   W96
//  #02 //014   ----------------------------------------
 BYTE   W96
//  #02 //015   ----------------------------------------
 BYTE   W96
//  #02 //016   ----------------------------------------
 BYTE   W96
//  #02 //017   ----------------------------------------
 BYTE   W96
//  #02 //018   ----------------------------------------
 BYTE   W96
//  #02 //019   ----------------------------------------
 BYTE   W96
//  #02 //020   ----------------------------------------
 BYTE   W80
 BYTE   W02
 BYTE   GoTo
  POIN2 Label_01C4147E
//  #02 //021   ----------------------------------------
 BYTE   W14
 BYTE   W96
//  #02 //022   ----------------------------------------
 BYTE   W96
//  #02 //023   ----------------------------------------
 BYTE   W12
 BYTE   FINE

//**************** Track 3 (Midi-Chn.2) ****************//

NessiahSortie_Song_003:
//  #03 //000   ----------------------------------------
 BYTE   KEYSH   NessiahSortie_Song_key+0
 BYTE   VOICE   29
 BYTE   VOL   35*NessiahSortie_Song_mvl/mxv
 BYTE   W96
//  #03 //001   ----------------------------------------
 BYTE   W84
Label_01C42128:
 BYTE   N06  Cn3  v100
 BYTE   W06
 BYTE   Ds3
 BYTE   W06
//  #03 //002   ----------------------------------------
 BYTE   Fs3
 BYTE   W06
 BYTE   Cn4
 BYTE   W06
 BYTE   Ds4
 BYTE   W06
 BYTE   Fs4
 BYTE   W06
 BYTE   Cn5
 BYTE   W06
 BYTE   Fs4
 BYTE   W06
 BYTE   Ds4
 BYTE   W06
 BYTE   Cn4
 BYTE   W06
 BYTE   Fs3
 BYTE   W06
 BYTE   Ds3
 BYTE   W06
 BYTE   Bn2
 BYTE   W06
 BYTE   En3
 BYTE   W06
 BYTE   Gn3
 BYTE   W06
 BYTE   Bn3
 BYTE   W06
 BYTE   En4
 BYTE   W06
 BYTE   Gn4
 BYTE   W06
//  #03 //003   ----------------------------------------
 BYTE   Bn4
 BYTE   W06
 BYTE   Gn4
 BYTE   W06
 BYTE   En4
 BYTE   W06
 BYTE   Gn3
 BYTE   W06
 BYTE   En3
 BYTE   W06
 BYTE   Bn2
 BYTE   W06
 BYTE   En3
 BYTE   W06
 BYTE   Fs3
 BYTE   W06
 BYTE   As3
 BYTE   W06
 BYTE   En4
 BYTE   W06
 BYTE   Fs4
 BYTE   W06
 BYTE   As4
 BYTE   W06
 BYTE   En5
 BYTE   W06
 BYTE   As4
 BYTE   W06
 BYTE   Fs4
 BYTE   W06
 BYTE   En4
 BYTE   W06
//  #03 //004   ----------------------------------------
 BYTE   As3
 BYTE   W06
 BYTE   Fs3
 BYTE   W06
 BYTE   Dn3
 BYTE   W06
 BYTE   Fs3
 BYTE   W06
 BYTE   Bn3
 BYTE   W06
 BYTE   Dn4
 BYTE   W06
 BYTE   Fs4
 BYTE   W06
 BYTE   Bn4
 BYTE   W06
 BYTE   En5
 BYTE   W06
 BYTE   Bn4
 BYTE   W06
 BYTE   Fs4
 BYTE   W06
 BYTE   Dn4
 BYTE   W06
 BYTE   Bn3
 BYTE   W06
 BYTE   Fs3
 BYTE   W06
 BYTE   En3
 BYTE   W06
 BYTE   An3
 BYTE   W06
//  #03 //005   ----------------------------------------
 BYTE   Cs4
 BYTE   W06
 BYTE   En4
 BYTE   W06
 BYTE   An4
 BYTE   W06
 BYTE   Cs5
 BYTE   W06
 BYTE   En5
 BYTE   W06
 BYTE   Cs5
 BYTE   W06
 BYTE   An4
 BYTE   W06
 BYTE   En4
 BYTE   W06
 BYTE   Cs4
 BYTE   W06
 BYTE   An3
 BYTE   W06
 BYTE   En3
 BYTE   W06
 BYTE   An3
 BYTE   W06
 BYTE   Cs4
 BYTE   W06
 BYTE   En4
 BYTE   W06
 BYTE   An4
 BYTE   W06
 BYTE   Cs5
 BYTE   W06
//  #03 //006   ----------------------------------------
 BYTE   En5
 BYTE   W06
 BYTE   Cs5
 BYTE   W06
 BYTE   An4
 BYTE   W06
 BYTE   En4
 BYTE   W06
 BYTE   Cs4
 BYTE   W06
 BYTE   An3
 BYTE   W06
 BYTE   En3
 BYTE   W06
 BYTE   Gn3
 BYTE   W06
 BYTE   Cn4
 BYTE   W06
 BYTE   En4
 BYTE   W06
 BYTE   Gn4
 BYTE   W06
 BYTE   Cn5
 BYTE   W06
 BYTE   En5
 BYTE   W06
 BYTE   Cn5
 BYTE   W06
 BYTE   Gn4
 BYTE   W06
 BYTE   En4
 BYTE   W06
//  #03 //007   ----------------------------------------
 BYTE   Cn4
 BYTE   W06
 BYTE   Gn3
 BYTE   W06
 BYTE   En3
 BYTE   W06
 BYTE   Gn3
 BYTE   W06
 BYTE   Cn4
 BYTE   W06
 BYTE   En4
 BYTE   W06
 BYTE   Gn4
 BYTE   W06
 BYTE   Cn5
 BYTE   W06
 BYTE   En5
 BYTE   W06
 BYTE   Cn5
 BYTE   W06
 BYTE   Gn4
 BYTE   W06
 BYTE   En4
 BYTE   W06
 BYTE   Cn4
 BYTE   W06
 BYTE   Gn3
 BYTE   W06
 BYTE   An3
 BYTE   W06
 BYTE   En4
 BYTE   W06
//  #03 //008   ----------------------------------------
 BYTE   An4
 BYTE   W06
 BYTE   Gn3
 BYTE   W06
 BYTE   Dn4
 BYTE   W06
 BYTE   Gn4
 BYTE   W06
 BYTE   An3
 BYTE   W06
 BYTE   En4
 BYTE   W06
 BYTE   An4
 BYTE   W06
 BYTE   Gn3
 BYTE   W06
 BYTE   Dn4
 BYTE   W06
 BYTE   Gn4
 BYTE   W06
 BYTE   An3
 BYTE   W06
 BYTE   En4
 BYTE   W06
 BYTE   An4
 BYTE   W06
 BYTE   Gn3
 BYTE   W06
 BYTE   Dn4
 BYTE   W06
 BYTE   Gn4
 BYTE   W06
//  #03 //009   ----------------------------------------
 BYTE   An3
 BYTE   W06
 BYTE   En4
 BYTE   W06
 BYTE   An4
 BYTE   W06
 BYTE   Gn3
 BYTE   W06
 BYTE   Dn4
 BYTE   W06
 BYTE   Gn4
 BYTE   W06
 BYTE   Gn3
 BYTE   W06
 BYTE   Dn4
 BYTE   W06
 BYTE   Gn4
 BYTE   W06
 BYTE   Dn4
 BYTE   W06
 BYTE   Gn3
 BYTE   W06
 BYTE   Gn4
 BYTE   W06
 BYTE   Gn3
 BYTE   W06
 BYTE   Dn4
 BYTE   W06
 BYTE   Gn4
 BYTE   W06
 BYTE   Dn4
 BYTE   W06
//  #03 //010   ----------------------------------------
 BYTE   Gn3
 BYTE   W06
 BYTE   Gn4
 BYTE   W06
 BYTE   Gn3
 BYTE   W06
 BYTE   Dn4
 BYTE   W06
 BYTE   Gn4
 BYTE   W06
 BYTE   Dn4
 BYTE   W06
 BYTE   Gn3
 BYTE   W06
 BYTE   Gn4
 BYTE   W06
 BYTE   Gn3
 BYTE   W06
 BYTE   Dn4
 BYTE   W06
 BYTE   Gn4
 BYTE   W06
 BYTE   Dn4
 BYTE   W06
 BYTE   Gn3
 BYTE   W06
 BYTE   Gn4
 BYTE   W06
 BYTE   Fn3
 BYTE   W06
 BYTE   Cn4
 BYTE   W06
//  #03 //011   ----------------------------------------
 BYTE   Fn4
 BYTE   W06
 BYTE   Cn4
 BYTE   W06
 BYTE   Fn3
 BYTE   W06
 BYTE   Fn4
 BYTE   W06
 BYTE   Fn3
 BYTE   W06
 BYTE   Cn4
 BYTE   W06
 BYTE   Fn4
 BYTE   W06
 BYTE   Cn4
 BYTE   W06
 BYTE   Fn3
 BYTE   W06
 BYTE   Fn4
 BYTE   W06
 BYTE   Fn3
 BYTE   W06
 BYTE   Cn4
 BYTE   W06
 BYTE   Fn4
 BYTE   W06
 BYTE   Cn4
 BYTE   W06
 BYTE   Fn3
 BYTE   W06
 BYTE   Fn4
 BYTE   W06
//  #03 //012   ----------------------------------------
 BYTE   Fn3
 BYTE   W06
 BYTE   Cn4
 BYTE   W06
 BYTE   Fn4
 BYTE   W06
 BYTE   Cn4
 BYTE   W06
 BYTE   Fn3
 BYTE   W06
 BYTE   Fn4
 BYTE   W06
 BYTE   Gn3
 BYTE   W06
 BYTE   Dn4
 BYTE   W06
 BYTE   Gn4
 BYTE   W06
 BYTE   Dn4
 BYTE   W06
 BYTE   Gn3
 BYTE   W06
 BYTE   Gn4
 BYTE   W06
 BYTE   Gn3
 BYTE   W06
 BYTE   Dn4
 BYTE   W06
 BYTE   Gn4
 BYTE   W06
 BYTE   Dn4
 BYTE   W06
//  #03 //013   ----------------------------------------
 BYTE   Gn3
 BYTE   W06
 BYTE   Gn4
 BYTE   W06
 BYTE   Gs3
 BYTE   W06
 BYTE   Ds4
 BYTE   W06
 BYTE   Cn5
 BYTE   W06
 BYTE   Gs3
 BYTE   W06
 BYTE   Ds4
 BYTE   W06
 BYTE   Cn5
 BYTE   W06
 BYTE   As3
 BYTE   W06
 BYTE   Fn4
 BYTE   W06
 BYTE   Dn5
 BYTE   W06
 BYTE   As3
 BYTE   W06
 BYTE   Fn4
 BYTE   W06
 BYTE   Dn5
 BYTE   W06
 BYTE   Gn3  v120
 BYTE   W06
 BYTE   An3
 BYTE   W06
//  #03 //014   ----------------------------------------
 BYTE   As3
 BYTE   W06
 BYTE   Gn3
 BYTE   W06
 BYTE   Cn4
 BYTE   W06
 BYTE   Gn3
 BYTE   W06
 BYTE   Ds4
 BYTE   W06
 BYTE   Gn3
 BYTE   W06
 BYTE   Dn4
 BYTE   W06
 BYTE   Ds4
 BYTE   W06
 BYTE   Dn4
 BYTE   W06
 BYTE   As3
 BYTE   W06
 BYTE   Cn4
 BYTE   W06
 BYTE   Gn3
 BYTE   W06
 BYTE   Dn4
 BYTE   W06
 BYTE   Gn3
 BYTE   W06
 BYTE   Ds4
 BYTE   W06
 BYTE   Fn4
 BYTE   W06
//  #03 //015   ----------------------------------------
 BYTE   Ds4
 BYTE   W06
 BYTE   Dn4
 BYTE   W06
 BYTE   Cn4
 BYTE   W06
 BYTE   Gn3
 BYTE   W06
 BYTE   Ds3
 BYTE   W06
 BYTE   Cn4
 BYTE   W06
 BYTE   Dn4
 BYTE   W06
 BYTE   En4
 BYTE   W06
 BYTE   Fn4
 BYTE   W06
 BYTE   Dn4
 BYTE   W06
 BYTE   Gn4
 BYTE   W06
 BYTE   Dn4
 BYTE   W06
 BYTE   As4
 BYTE   W06
 BYTE   Dn4
 BYTE   W06
 BYTE   An4
 BYTE   W06
 BYTE   As4
 BYTE   W06
//  #03 //016   ----------------------------------------
 BYTE   An4
 BYTE   W06
 BYTE   Fn4
 BYTE   W06
 BYTE   Gn4
 BYTE   W06
 BYTE   Dn4
 BYTE   W06
 BYTE   An4
 BYTE   W06
 BYTE   Dn4
 BYTE   W06
 BYTE   As4
 BYTE   W06
 BYTE   Cn5
 BYTE   W06
 BYTE   As4
 BYTE   W06
 BYTE   An4
 BYTE   W06
 BYTE   Gn4
 BYTE   W06
 BYTE   Dn4
 BYTE   W06
 BYTE   As3
 BYTE   W06
 BYTE   Gn4
 BYTE   W06
 BYTE   Fn4
 BYTE   W06
 BYTE   Cn4
 BYTE   W06
//  #03 //017   ----------------------------------------
 BYTE   Fn3
 BYTE   W06
 BYTE   Fn4
 BYTE   W06
 BYTE   Gs4
 BYTE   W06
 BYTE   Cn4
 BYTE   W06
 BYTE   Gn4
 BYTE   W06
 BYTE   Cn4
 BYTE   W06
 BYTE   Fn4
 BYTE   W06
 BYTE   Ds4
 BYTE   W06
 BYTE   Cn4
 BYTE   W06
 BYTE   As3
 BYTE   W06
 BYTE   Ds4
 BYTE   W06
 BYTE   Cn4
 BYTE   W06
 BYTE   Fn4
 BYTE   W06
 BYTE   Cn4
 BYTE   W06
 BYTE   Gn4
 BYTE   W06
 BYTE   Gs4
 BYTE   W06
//  #03 //018   ----------------------------------------
 BYTE   Gn4
 BYTE   W06
 BYTE   Ds4
 BYTE   W06
 BYTE   Fn4
 BYTE   W06
 BYTE   Cn4
 BYTE   W06
 BYTE   Gs3
 BYTE   W06
 BYTE   Cn4
 BYTE   W06
 BYTE   En4
 BYTE   W06
 BYTE   Bn3
 BYTE   W06
 BYTE   Gn3
 BYTE   W06
 BYTE   En3
 BYTE   W06
 BYTE   Dn4
 BYTE   W06
 BYTE   An3
 BYTE   W06
 BYTE   Bn3
 BYTE   W06
 BYTE   Gn3
 BYTE   W06
 BYTE   Dn3
 BYTE   W06
 BYTE   An2
 BYTE   W06
//  #03 //019   ----------------------------------------
 BYTE   Fs3
 BYTE   W06
 BYTE   Dn3
 BYTE   W06
 BYTE   Cn4
 BYTE   W06
 BYTE   Gn3
 BYTE   W06
 BYTE   En3
 BYTE   W06
 BYTE   Cn3
 BYTE   W06
 BYTE   En3
 BYTE   W06
 BYTE   Cn3
 BYTE   W06
 BYTE   Gn2
 BYTE   W06
 BYTE   En3
 BYTE   W06
 BYTE   Bn3
 BYTE   W06
 BYTE   Fs3
 BYTE   W06
 BYTE   Dn3
 BYTE   W06
 BYTE   Bn2
 BYTE   W18
//  #03 //020   ----------------------------------------
 BYTE   W80
 BYTE   W02
 BYTE   GoTo
  POIN2 Label_01C42128
//  #03 //021   ----------------------------------------
 BYTE   W14
 BYTE   W96
//  #03 //022   ----------------------------------------
 BYTE   W96
//  #03 //023   ----------------------------------------
 BYTE   W12
 BYTE   FINE

//**************** Track 4 (Midi-Chn.3) ****************//

NessiahSortie_Song_004:
//  #04 //000   ----------------------------------------
 BYTE   KEYSH   NessiahSortie_Song_key+0
 BYTE   VOICE   4
 BYTE   VOL   32*NessiahSortie_Song_mvl/mxv
 BYTE   W12
 BYTE   N04  Ds2  v100
 BYTE   W04
 BYTE   Fn2
 BYTE   W04
 BYTE   Gn2
 BYTE   W04
 BYTE   Dn3
 BYTE   W04
 BYTE   Fn3
 BYTE   W04
 BYTE   Gs3
 BYTE   W04
 BYTE   N24  An3
 BYTE   W24
 BYTE   Gs3
 BYTE   W24
 BYTE   En3
 BYTE   W12
//  #04 //001   ----------------------------------------
 BYTE   W12
 BYTE   Gn3
 BYTE   W24
 BYTE   Fs3
 BYTE   W24
 BYTE   Dn3
 BYTE   W24
Label_01C40FC3:
 BYTE   N72  Fs3  v076
 BYTE   W12
//  #04 //002   ----------------------------------------
 BYTE   W60
 BYTE   Gn3
 BYTE   W36
//  #04 //003   ----------------------------------------
 BYTE   W36
 BYTE   Fs3
 BYTE   W60
//  #04 //004   ----------------------------------------
 BYTE   W12
 BYTE   N72
 BYTE   W72
 BYTE   TIE  Cs4
 BYTE   W12
//  #04 //005   ----------------------------------------
 BYTE   W96
//  #04 //006   ----------------------------------------
 BYTE   W36
 BYTE   EOT
 BYTE   TIE  Gn3
 BYTE   W60
//  #04 //007   ----------------------------------------
 BYTE   W84
 BYTE   EOT
 BYTE   N72  En3
 BYTE   W12
//  #04 //008   ----------------------------------------
 BYTE   W60
 BYTE   N24  Fn3
 BYTE   W24
 BYTE   En3
 BYTE   W12
//  #04 //009   ----------------------------------------
 BYTE   W12
 BYTE   Dn3
 BYTE   W24
 BYTE   N48  En3
 BYTE   W48
 BYTE   N24  An2
 BYTE   W12
//  #04 //010   ----------------------------------------
 BYTE   W12
 BYTE   Bn2
 BYTE   W24
 BYTE   Cn3
 BYTE   W24
 BYTE   Dn3
 BYTE   W24
 BYTE   N48  En3
 BYTE   W12
//  #04 //011   ----------------------------------------
 BYTE   W36
 BYTE   N24  An3
 BYTE   W24
 BYTE   Gn3
 BYTE   W24
 BYTE   Dn3
 BYTE   W12
//  #04 //012   ----------------------------------------
 BYTE   W12
 BYTE   Fn2
 BYTE   W24
 BYTE   N48  Cn3
 BYTE   W48
 BYTE   N24  Bn2
 BYTE   W12
//  #04 //013   ----------------------------------------
 BYTE   W12
 BYTE   N12  Gs2
 BYTE   W12
 BYTE   Cn3
 BYTE   W12
 BYTE   Ds3
 BYTE   W12
 BYTE   As2
 BYTE   W12
 BYTE   Dn3
 BYTE   W12
 BYTE   Fn3
 BYTE   W12
 BYTE   N72  Gn3
 BYTE   W12
//  #04 //014   ----------------------------------------
 BYTE   W60
 BYTE   N72
 BYTE   W36
//  #04 //015   ----------------------------------------
 BYTE   W36
 BYTE   Dn4
 BYTE   W60
//  #04 //016   ----------------------------------------
 BYTE   W12
 BYTE   N72
 BYTE   W72
 BYTE   Cn4
 BYTE   W12
//  #04 //017   ----------------------------------------
 BYTE   W60
 BYTE   N72
 BYTE   W36
//  #04 //018   ----------------------------------------
 BYTE   W36
 BYTE   N48  Bn3
 BYTE   W48
 BYTE   N24  An3
 BYTE   W12
//  #04 //019   ----------------------------------------
 BYTE   W12
 BYTE   N48  Gn3
 BYTE   W48
 BYTE   N24  Dn4
 BYTE   W36
//  #04 //020   ----------------------------------------
 BYTE   W80
 BYTE   W02
 BYTE   GoTo
  POIN2 Label_01C40FC3
//  #04 //021   ----------------------------------------
 BYTE   W14
 BYTE   W96
//  #04 //022   ----------------------------------------
 BYTE   W96
//  #04 //023   ----------------------------------------
 BYTE   W12
 BYTE   FINE

//**************** Track 5 (Midi-Chn.4) ****************//

NessiahSortie_Song_005:
//  #05 //000   ----------------------------------------
 BYTE   KEYSH   NessiahSortie_Song_key+0
 BYTE   VOICE   4
 BYTE   VOL   32*NessiahSortie_Song_mvl/mxv
 BYTE   W12
 BYTE   N04  An1  v100
 BYTE   W04
 BYTE   Cn2
 BYTE   W04
 BYTE   Ds2
 BYTE   W04
 BYTE   An2
 BYTE   W04
 BYTE   Cn3
 BYTE   W04
 BYTE   Ds3
 BYTE   W04
 BYTE   N24  An2
 BYTE   W24
 BYTE   Gs2
 BYTE   W24
 BYTE   Gn2
 BYTE   W12
//  #05 //001   ----------------------------------------
 BYTE   W12
 BYTE   En2
 BYTE   W24
 BYTE   Ds2
 BYTE   W24
 BYTE   Dn2
 BYTE   W24
Label_01C41097:
 BYTE   N72  Cn3  v076
 BYTE   W12
//  #05 //002   ----------------------------------------
 BYTE   W60
 BYTE   Bn2
 BYTE   W36
//  #05 //003   ----------------------------------------
 BYTE   W36
 BYTE   En3
 BYTE   W60
//  #05 //004   ----------------------------------------
 BYTE   W12
 BYTE   Dn3
 BYTE   W72
 BYTE   TIE  En3
 BYTE   W12
//  #05 //005   ----------------------------------------
 BYTE   W96
//  #05 //006   ----------------------------------------
 BYTE   W36
 BYTE   EOT
 BYTE   TIE
 BYTE   W60
//  #05 //007   ----------------------------------------
 BYTE   W84
 BYTE   EOT
 BYTE   N72  An2
 BYTE   W12
//  #05 //008   ----------------------------------------
 BYTE   W60
 BYTE   N24
 BYTE   W24
 BYTE   N24
 BYTE   W12
//  #05 //009   ----------------------------------------
 BYTE   W12
 BYTE   N24
 BYTE   W24
 BYTE   N48  Gn2
 BYTE   W48
 BYTE   N24
 BYTE   W12
//  #05 //010   ----------------------------------------
 BYTE   W12
 BYTE   Dn2
 BYTE   W24
 BYTE   N24
 BYTE   W24
 BYTE   Gn2
 BYTE   W24
 BYTE   N48  An2
 BYTE   W12
//  #05 //011   ----------------------------------------
 BYTE   W36
 BYTE   N24  Cn3
 BYTE   W24
 BYTE   N72  An2
 BYTE   W36
//  #05 //012   ----------------------------------------
 BYTE   W36
 BYTE   N48  Cn2
 BYTE   W48
 BYTE   N24
 BYTE   W12
//  #05 //013   ----------------------------------------
 BYTE   W12
 BYTE   N12  Ds2
 BYTE   W12
 BYTE   Gs2
 BYTE   W12
 BYTE   Cn3
 BYTE   W12
 BYTE   Fn2
 BYTE   W12
 BYTE   As2
 BYTE   W12
 BYTE   Dn3
 BYTE   W12
 BYTE   N72  Ds3
 BYTE   W12
//  #05 //014   ----------------------------------------
 BYTE   W60
 BYTE   N72
 BYTE   W36
//  #05 //015   ----------------------------------------
 BYTE   W36
 BYTE   As3
 BYTE   W60
//  #05 //016   ----------------------------------------
 BYTE   W12
 BYTE   N72
 BYTE   W72
 BYTE   Gs3
 BYTE   W12
//  #05 //017   ----------------------------------------
 BYTE   W60
 BYTE   N72
 BYTE   W36
//  #05 //018   ----------------------------------------
 BYTE   W36
 BYTE   N48  Gn3
 BYTE   W48
 BYTE   N24  Fs3
 BYTE   W12
//  #05 //019   ----------------------------------------
 BYTE   W12
 BYTE   N48  En3
 BYTE   W48
 BYTE   N24  Fs3
 BYTE   W36
//  #05 //020   ----------------------------------------
 BYTE   W80
 BYTE   W02
 BYTE   GoTo
  POIN2 Label_01C41097
//  #05 //021   ----------------------------------------
 BYTE   W14
 BYTE   W96
//  #05 //022   ----------------------------------------
 BYTE   W96
//  #05 //023   ----------------------------------------
 BYTE   W12
 BYTE   FINE

//**************** Track 6 (Midi-Chn.5) ****************//

NessiahSortie_Song_006:
//  #06 //000   ----------------------------------------
 BYTE   KEYSH   NessiahSortie_Song_key+0
 BYTE   VOICE   36
 BYTE   VOL   60*NessiahSortie_Song_mvl/mxv
 BYTE   W12
 BYTE   BEND   c_v-64
 BYTE   N24  Gs0  v127
 BYTE   W01
 BYTE   BEND   c_v-60
 BYTE   W02
 BYTE   BEND   c_v-55
 BYTE   W02
 BYTE   BEND   c_v-50
 BYTE   W01
 BYTE   BEND   c_v-45
 BYTE   W02
 BYTE   BEND   c_v-41
 BYTE   W02
 BYTE   BEND   c_v-36
 BYTE   W01
 BYTE   BEND   c_v-31
 BYTE   W02
 BYTE   BEND   c_v-26
 BYTE   W02
 BYTE   BEND   c_v-21
 BYTE   W02
 BYTE   BEND   c_v-17
 BYTE   W01
 BYTE   BEND   c_v-12
 BYTE   W02
 BYTE   BEND   c_v-7
 BYTE   W02
 BYTE   BEND   c_v+0
 BYTE   W02
 BYTE   N12  An0
 BYTE   W12
 BYTE   N06
 BYTE   W06
 BYTE   N12
 BYTE   W12
 BYTE   N06
 BYTE   W06
 BYTE   N12
 BYTE   W12
 BYTE   N06
 BYTE   W06
 BYTE   N12
 BYTE   W06
//  #06 //001   ----------------------------------------
 BYTE   W06
 BYTE   N06
 BYTE   W06
 BYTE   N12
 BYTE   W12
 BYTE   N06
 BYTE   W06
 BYTE   N12
 BYTE   W12
 BYTE   N06
 BYTE   W06
 BYTE   N11
 BYTE   W12
 BYTE   N06
 BYTE   W06
 BYTE   An1
 BYTE   W06
 BYTE   An0
 BYTE   W06
 BYTE   N06
 BYTE   W06
Label_01C6DDE8:
 BYTE   N06  En0  v127
 BYTE   W06
 BYTE   En1
 BYTE   W06
//  #06 //002   ----------------------------------------
Label_01C6DDEE:
 BYTE   N06  En0  v127
 BYTE   W06
 BYTE   En1
 BYTE   W06
 BYTE   En0
 BYTE   W06
 BYTE   N06
 BYTE   W06
 BYTE   En1
 BYTE   W06
 BYTE   En0
 BYTE   W06
 BYTE   N06
 BYTE   W06
 BYTE   En1
 BYTE   W06
 BYTE   En0
 BYTE   W06
 BYTE   N06
 BYTE   W06
 BYTE   N06
 BYTE   W06
 BYTE   En1
 BYTE   W06
 BYTE   En0
 BYTE   W06
 BYTE   En1
 BYTE   W06
 BYTE   En0
 BYTE   W06
 BYTE   N06
 BYTE   W06
 BYTE   PEND 
//  #06 //003   ----------------------------------------
Label_01C6DE11:
 BYTE   N06  En1  v127
 BYTE   W06
 BYTE   En0
 BYTE   W06
 BYTE   N06
 BYTE   W06
 BYTE   En1
 BYTE   W06
 BYTE   En0
 BYTE   W06
 BYTE   N06
 BYTE   W06
 BYTE   N06
 BYTE   W06
 BYTE   En1
 BYTE   W06
 BYTE   En0
 BYTE   W06
 BYTE   En1
 BYTE   W06
 BYTE   En0
 BYTE   W06
 BYTE   N06
 BYTE   W06
 BYTE   En1
 BYTE   W06
 BYTE   En0
 BYTE   W06
 BYTE   N06
 BYTE   W06
 BYTE   En1
 BYTE   W06
 BYTE   PEND 
//  #06 //004   ----------------------------------------
 BYTE   En0
 BYTE   W06
 BYTE   N06
 BYTE   W06
 BYTE   N06
 BYTE   W06
 BYTE   En1
 BYTE   W06
 BYTE   En0
 BYTE   W06
 BYTE   En1
 BYTE   W06
 BYTE   En0
 BYTE   W06
 BYTE   N06
 BYTE   W06
 BYTE   En1
 BYTE   W06
 BYTE   En0
 BYTE   W06
 BYTE   N06
 BYTE   W06
 BYTE   En1
 BYTE   W06
 BYTE   En0
 BYTE   W06
 BYTE   N06
 BYTE   W06
 BYTE   N06
 BYTE   W06
 BYTE   En1
 BYTE   W06
//  #06 //005   ----------------------------------------
 BYTE   PATT
  POIN2 Label_01C6DDEE
//  #06 //006   ----------------------------------------
 BYTE   PATT
  POIN2 Label_01C6DE11
//  #06 //007   ----------------------------------------
 BYTE   N06  En0  v127
 BYTE   W06
 BYTE   N06
 BYTE   W06
 BYTE   N06
 BYTE   W06
 BYTE   En1
 BYTE   W06
 BYTE   En0
 BYTE   W06
 BYTE   En1
 BYTE   W06
 BYTE   En0
 BYTE   W06
 BYTE   N06
 BYTE   W06
 BYTE   En1
 BYTE   W06
 BYTE   En0
 BYTE   W06
 BYTE   N06
 BYTE   W06
 BYTE   En1
 BYTE   W06
 BYTE   En0
 BYTE   W06
 BYTE   N06
 BYTE   W06
 BYTE   An0
 BYTE   W06
 BYTE   En1
 BYTE   W06
//  #06 //008   ----------------------------------------
 BYTE   An1
 BYTE   W06
 BYTE   Gn0
 BYTE   W06
 BYTE   Dn1
 BYTE   W06
 BYTE   Gn1
 BYTE   W06
 BYTE   An0
 BYTE   W06
 BYTE   En1
 BYTE   W06
 BYTE   An1
 BYTE   W06
 BYTE   Gn0
 BYTE   W06
 BYTE   Dn1
 BYTE   W06
 BYTE   Gn1
 BYTE   W06
 BYTE   An0
 BYTE   W06
 BYTE   En1
 BYTE   W06
 BYTE   An1
 BYTE   W06
 BYTE   Gn0
 BYTE   W06
 BYTE   Dn1
 BYTE   W06
 BYTE   Gn1
 BYTE   W06
//  #06 //009   ----------------------------------------
 BYTE   An0
 BYTE   W06
 BYTE   En1
 BYTE   W06
 BYTE   An1
 BYTE   W06
 BYTE   Gn0
 BYTE   W06
 BYTE   Dn1
 BYTE   W06
 BYTE   Gn1
 BYTE   W06
 BYTE   Gn0
 BYTE   W06
 BYTE   Dn1
 BYTE   W06
 BYTE   Gn1
 BYTE   W06
 BYTE   Dn1
 BYTE   W06
 BYTE   Gn0
 BYTE   W06
 BYTE   Gn1
 BYTE   W06
 BYTE   Gn0
 BYTE   W06
 BYTE   Dn1
 BYTE   W06
 BYTE   Gn1
 BYTE   W06
 BYTE   Dn1
 BYTE   W06
//  #06 //010   ----------------------------------------
 BYTE   Gn0
 BYTE   W06
 BYTE   Gn1
 BYTE   W06
 BYTE   Gn0
 BYTE   W06
 BYTE   Dn1
 BYTE   W06
 BYTE   Gn1
 BYTE   W06
 BYTE   Dn1
 BYTE   W06
 BYTE   Gn0
 BYTE   W06
 BYTE   Gn1
 BYTE   W06
 BYTE   Gn0
 BYTE   W06
 BYTE   Dn1
 BYTE   W06
 BYTE   Gn1
 BYTE   W06
 BYTE   Dn1
 BYTE   W06
 BYTE   Gn0
 BYTE   W06
 BYTE   Gn1
 BYTE   W06
 BYTE   Fn0
 BYTE   W06
 BYTE   Cn1
 BYTE   W06
//  #06 //011   ----------------------------------------
 BYTE   Fn1
 BYTE   W06
 BYTE   Cn1
 BYTE   W06
 BYTE   Fn0
 BYTE   W06
 BYTE   Fn1
 BYTE   W06
 BYTE   Fn0
 BYTE   W06
 BYTE   Cn1
 BYTE   W06
 BYTE   Fn1
 BYTE   W06
 BYTE   Cn1
 BYTE   W06
 BYTE   Fn0
 BYTE   W06
 BYTE   Fn1
 BYTE   W06
 BYTE   Fn0
 BYTE   W06
 BYTE   Cn1
 BYTE   W06
 BYTE   Fn1
 BYTE   W06
 BYTE   Cn1
 BYTE   W06
 BYTE   Fn0
 BYTE   W06
 BYTE   Fn1
 BYTE   W06
//  #06 //012   ----------------------------------------
 BYTE   Fn0
 BYTE   W06
 BYTE   Cn1
 BYTE   W06
 BYTE   Fn1
 BYTE   W06
 BYTE   Cn1
 BYTE   W06
 BYTE   Fn0
 BYTE   W06
 BYTE   Fn1
 BYTE   W06
 BYTE   Gn0
 BYTE   W06
 BYTE   Dn1
 BYTE   W06
 BYTE   Gn1
 BYTE   W06
 BYTE   Dn1
 BYTE   W06
 BYTE   Gn0
 BYTE   W06
 BYTE   Gn1
 BYTE   W06
 BYTE   Gn0
 BYTE   W06
 BYTE   Dn1
 BYTE   W06
 BYTE   Gn1
 BYTE   W06
 BYTE   Dn1
 BYTE   W06
//  #06 //013   ----------------------------------------
 BYTE   Gn0
 BYTE   W06
 BYTE   Gn1
 BYTE   W06
 BYTE   Gs0
 BYTE   W06
 BYTE   Ds1
 BYTE   W06
 BYTE   Cn2
 BYTE   W06
 BYTE   Gs0
 BYTE   W06
 BYTE   Ds1
 BYTE   W06
 BYTE   Cn2
 BYTE   W06
 BYTE   As0
 BYTE   W06
 BYTE   Fn1
 BYTE   W06
 BYTE   Dn2
 BYTE   W06
 BYTE   As0
 BYTE   W06
 BYTE   Fn1
 BYTE   W06
 BYTE   Dn2
 BYTE   W06
 BYTE   Cn1
 BYTE   W06
 BYTE   Cn2
 BYTE   W06
//  #06 //014   ----------------------------------------
 BYTE   Cn1
 BYTE   W06
 BYTE   N06
 BYTE   W06
 BYTE   Cn2
 BYTE   W06
 BYTE   Cn1
 BYTE   W06
 BYTE   N06
 BYTE   W06
 BYTE   Cn2
 BYTE   W06
 BYTE   Cn1
 BYTE   W06
 BYTE   N06
 BYTE   W06
 BYTE   Cn2
 BYTE   W06
 BYTE   Cn1
 BYTE   W06
 BYTE   N06
 BYTE   W06
 BYTE   Cn2
 BYTE   W06
 BYTE   Cn1
 BYTE   W06
 BYTE   N06
 BYTE   W06
 BYTE   Cn2
 BYTE   W06
 BYTE   Cn1
 BYTE   W06
//  #06 //015   ----------------------------------------
 BYTE   N06
 BYTE   W06
 BYTE   Cn2
 BYTE   W06
 BYTE   Cn1
 BYTE   W06
 BYTE   N06
 BYTE   W06
 BYTE   Cn2
 BYTE   W06
 BYTE   Cn1
 BYTE   W06
 BYTE   Gn0
 BYTE   W06
 BYTE   Gn1
 BYTE   W06
 BYTE   Gn0
 BYTE   W06
 BYTE   N06
 BYTE   W06
 BYTE   Gn1
 BYTE   W06
 BYTE   Gn0
 BYTE   W06
 BYTE   N06
 BYTE   W06
 BYTE   Gn1
 BYTE   W06
 BYTE   Gn0
 BYTE   W06
 BYTE   N06
 BYTE   W06
//  #06 //016   ----------------------------------------
 BYTE   Gn1
 BYTE   W06
 BYTE   Gn0
 BYTE   W06
 BYTE   N06
 BYTE   W06
 BYTE   Gn1
 BYTE   W06
 BYTE   Gn0
 BYTE   W06
 BYTE   N06
 BYTE   W06
 BYTE   Gn1
 BYTE   W06
 BYTE   Gn0
 BYTE   W06
 BYTE   N06
 BYTE   W06
 BYTE   Gn1
 BYTE   W06
 BYTE   Gn0
 BYTE   W06
 BYTE   N06
 BYTE   W06
 BYTE   Gn1
 BYTE   W06
 BYTE   Gn0
 BYTE   W06
 BYTE   Fn0
 BYTE   W06
 BYTE   Fn1
 BYTE   W06
//  #06 //017   ----------------------------------------
 BYTE   Fn0
 BYTE   W06
 BYTE   N06
 BYTE   W06
 BYTE   Fn1
 BYTE   W06
 BYTE   Fn0
 BYTE   W06
 BYTE   N06
 BYTE   W06
 BYTE   Fn1
 BYTE   W06
 BYTE   Fn0
 BYTE   W06
 BYTE   N06
 BYTE   W06
 BYTE   Fn1
 BYTE   W06
 BYTE   Fn0
 BYTE   W06
 BYTE   N06
 BYTE   W06
 BYTE   Fn1
 BYTE   W06
 BYTE   Fn0
 BYTE   W06
 BYTE   N06
 BYTE   W06
 BYTE   Fn1
 BYTE   W06
 BYTE   Fn0
 BYTE   W06
//  #06 //018   ----------------------------------------
 BYTE   N06
 BYTE   W06
 BYTE   Fn1
 BYTE   W06
 BYTE   Fn0
 BYTE   W06
 BYTE   N06
 BYTE   W06
 BYTE   Fn1
 BYTE   W06
 BYTE   Fn0
 BYTE   W06
 BYTE   N18  En0
 BYTE   W18
 BYTE   N12  En1
 BYTE   W12
 BYTE   N06  En0
 BYTE   W06
 BYTE   N12
 BYTE   W12
 BYTE   Dn1
 BYTE   W12
//  #06 //019   ----------------------------------------
 BYTE   Dn0
 BYTE   W12
 BYTE   N18  Cn1
 BYTE   W18
 BYTE   N12
 BYTE   W12
 BYTE   N06
 BYTE   W06
 BYTE   N12
 BYTE   W12
 BYTE   Bn0
 BYTE   W12
 BYTE   N12
 BYTE   W24
//  #06 //020   ----------------------------------------
 BYTE   W80
 BYTE   W02
 BYTE   GoTo
  POIN2 Label_01C6DDE8
//  #06 //021   ----------------------------------------
 BYTE   W14
 BYTE   W96
//  #06 //022   ----------------------------------------
 BYTE   W96
//  #06 //023   ----------------------------------------
 BYTE   W12
 BYTE   FINE

//**************** Track 7 (Midi-Chn.6) ****************//

NessiahSortie_Song_007:
//  #07 //000   ----------------------------------------
 BYTE   KEYSH   NessiahSortie_Song_key+0
 BYTE   VOICE   124
 BYTE   VOL   40*NessiahSortie_Song_mvl/mxv
 BYTE   W12
 BYTE   N06  Cn2  v127
 BYTE   W06
 BYTE   N06
 BYTE   W06
 BYTE   An1
 BYTE   W06
 BYTE   Fn1
 BYTE   W06
 BYTE   Cn1
 BYTE   N06  As1  v080
 BYTE   W06
 BYTE   Cn2  v127
 BYTE   W06
 BYTE   As1  v080
 BYTE   W06
 BYTE   N06
 BYTE   W06
 BYTE   Cn2  v127
 BYTE   W06
 BYTE   As1  v080
 BYTE   W06
 BYTE   N06
 BYTE   W06
 BYTE   An1  v127
 BYTE   W06
 BYTE   As1  v080
 BYTE   W06
 BYTE   Cn1  v127
 BYTE   N06  As1  v080
 BYTE   W06
//  #07 //001   ----------------------------------------
 BYTE   Fn1  v127
 BYTE   W06
 BYTE   As1  v080
 BYTE   W06
 BYTE   N06
 BYTE   W06
 BYTE   Dn1  v124
 BYTE   W06
 BYTE   As1  v080
 BYTE   W06
 BYTE   N06
 BYTE   W06
 BYTE   Dn1  v124
 BYTE   W06
 BYTE   As1  v080
 BYTE   W06
 BYTE   N06
 BYTE   W06
 BYTE   Dn1  v124
 BYTE   W06
 BYTE   N06
 BYTE   W06
 BYTE   N06
 BYTE   W06
 BYTE   N06
 BYTE   W06
 BYTE   N06
 BYTE   W06
Label_01C6E049:
 BYTE   N06  Cs2  v104
 BYTE   W12
//  #07 //002   ----------------------------------------
Label_01C6E04D:
 BYTE   N06  Dn1  v124
 BYTE   W06
 BYTE   Cn1  v127
 BYTE   W06
 BYTE   As1  v080
 BYTE   W06
 BYTE   Cn1  v127
 BYTE   W06
 BYTE   Dn1  v124
 BYTE   N06  As1  v080
 BYTE   W12
 BYTE   Cn1  v127
 BYTE   N06  As1  v080
 BYTE   W06
 BYTE   Cn1  v127
 BYTE   W06
 BYTE   Dn1  v124
 BYTE   N06  As1  v080
 BYTE   W12
 BYTE   Cn1  v127
 BYTE   N06  As1  v080
 BYTE   W12
 BYTE   Dn1  v124
 BYTE   N06  As1  v080
 BYTE   W06
 BYTE   Cn1  v127
 BYTE   W06
 BYTE   As1  v080
 BYTE   W06
 BYTE   Cn1  v127
 BYTE   W06
 BYTE   PEND 
//  #07 //003   ----------------------------------------
Label_01C6E085:
 BYTE   N06  Dn1  v124
 BYTE   N06  As1  v080
 BYTE   W12
 BYTE   Cn1  v127
 BYTE   N06  As1  v080
 BYTE   W06
 BYTE   Cn1  v127
 BYTE   W06
 BYTE   Dn1  v124
 BYTE   N06  As1  v080
 BYTE   W12
 BYTE   Cn1  v127
 BYTE   N06  Cs2  v104
 BYTE   W12
 BYTE   Dn1  v124
 BYTE   W06
 BYTE   Cn1  v127
 BYTE   W06
 BYTE   As1  v080
 BYTE   W06
 BYTE   Cn1  v127
 BYTE   W06
 BYTE   Dn1  v124
 BYTE   N06  As1  v080
 BYTE   W12
 BYTE   Cn1  v127
 BYTE   N06  As1  v080
 BYTE   W06
 BYTE   Cn1  v127
 BYTE   W06
 BYTE   PEND 
//  #07 //004   ----------------------------------------
Label_01C6E0BD:
 BYTE   N06  Dn1  v124
 BYTE   N06  As1  v080
 BYTE   W12
 BYTE   Cn1  v127
 BYTE   N06  As1  v080
 BYTE   W12
 BYTE   Dn1  v124
 BYTE   N06  As1  v080
 BYTE   W06
 BYTE   Cn1  v127
 BYTE   W06
 BYTE   As1  v080
 BYTE   W06
 BYTE   Cn1  v127
 BYTE   W06
 BYTE   Dn1  v124
 BYTE   N06  As1  v080
 BYTE   W12
 BYTE   Cn1  v127
 BYTE   N06  As1  v080
 BYTE   W06
 BYTE   Cn1  v127
 BYTE   W06
 BYTE   Dn1  v124
 BYTE   N06  As1  v080
 BYTE   W12
 BYTE   Cn1  v127
 BYTE   N06  Cs2  v104
 BYTE   W12
 BYTE   PEND 
//  #07 //005   ----------------------------------------
 BYTE   PATT
  POIN2 Label_01C6E04D
//  #07 //006   ----------------------------------------
 BYTE   PATT
  POIN2 Label_01C6E085
//  #07 //007   ----------------------------------------
 BYTE   N06  Dn1  v124
 BYTE   N06  As1  v080
 BYTE   W12
 BYTE   Cn1  v127
 BYTE   N06  As1  v080
 BYTE   W12
 BYTE   Dn1  v124
 BYTE   N06  As1  v080
 BYTE   W06
 BYTE   Cn1  v127
 BYTE   W06
 BYTE   As1  v080
 BYTE   W06
 BYTE   Cn1  v127
 BYTE   W06
 BYTE   Dn1  v124
 BYTE   N06  As1  v080
 BYTE   W12
 BYTE   Dn1  v124
 BYTE   W06
 BYTE   N06
 BYTE   W06
 BYTE   N06
 BYTE   W06
 BYTE   N06
 BYTE   W06
 BYTE   Cn1  v127
 BYTE   N06  Cs2  v104
 BYTE   W12
//  #07 //008   ----------------------------------------
 BYTE   PATT
  POIN2 Label_01C6E04D
//  #07 //009   ----------------------------------------
 BYTE   PATT
  POIN2 Label_01C6E085
//  #07 //010   ----------------------------------------
 BYTE   PATT
  POIN2 Label_01C6E0BD
//  #07 //011   ----------------------------------------
 BYTE   PATT
  POIN2 Label_01C6E04D
//  #07 //012   ----------------------------------------
 BYTE   PATT
  POIN2 Label_01C6E085
//  #07 //013   ----------------------------------------
 BYTE   N06  Dn1  v124
 BYTE   N06  As1  v080
 BYTE   W12
 BYTE   Cn1  v127
 BYTE   N06  As1  v080
 BYTE   W12
 BYTE   Fn1  v127
 BYTE   N06  Cs2  v104
 BYTE   W06
 BYTE   Cn1  v127
 BYTE   W06
 BYTE   Dn1  v124
 BYTE   N06  Fn1  v127
 BYTE   W12
 BYTE   Cn1
 BYTE   N06  As1  v080
 BYTE   W12
 BYTE   Fn1  v127
 BYTE   N06  Cs2  v104
 BYTE   W06
 BYTE   Cn1  v127
 BYTE   W06
 BYTE   Dn1  v124
 BYTE   N06  Fn1  v127
 BYTE   W06
 BYTE   Cn1
 BYTE   W06
 BYTE   N06
 BYTE   N06  Cs2  v104
 BYTE   W12
//  #07 //014   ----------------------------------------
 BYTE   PATT
  POIN2 Label_01C6E04D
//  #07 //015   ----------------------------------------
 BYTE   N06  Dn1  v124
 BYTE   N06  As1  v080
 BYTE   W12
 BYTE   Cn1  v127
 BYTE   N06  As1  v080
 BYTE   W06
 BYTE   Cn1  v127
 BYTE   W06
 BYTE   Dn1  v124
 BYTE   N06  As1  v080
 BYTE   W06
 BYTE   Dn1  v124
 BYTE   W06
 BYTE   Cn1  v127
 BYTE   N06  Cs2  v104
 BYTE   W12
 BYTE   Dn1  v124
 BYTE   W06
 BYTE   Cn1  v127
 BYTE   W06
 BYTE   As1  v080
 BYTE   W06
 BYTE   Cn1  v127
 BYTE   W06
 BYTE   Dn1  v124
 BYTE   N06  As1  v080
 BYTE   W12
 BYTE   Cn1  v127
 BYTE   N06  As1  v080
 BYTE   W06
 BYTE   Cn1  v127
 BYTE   W06
//  #07 //016   ----------------------------------------
 BYTE   Dn1  v124
 BYTE   N06  As1  v080
 BYTE   W12
 BYTE   Cn1  v127
 BYTE   N06  As1  v080
 BYTE   W12
 BYTE   Dn1  v124
 BYTE   N06  As1  v080
 BYTE   W06
 BYTE   Cn1  v127
 BYTE   W06
 BYTE   As1  v080
 BYTE   W06
 BYTE   Cn1  v127
 BYTE   W06
 BYTE   Dn1  v124
 BYTE   N06  As1  v080
 BYTE   W12
 BYTE   Cn1  v127
 BYTE   N06  As1  v080
 BYTE   W06
 BYTE   Cn1  v127
 BYTE   W06
 BYTE   Dn1  v124
 BYTE   N06  As1  v080
 BYTE   W06
 BYTE   Dn1  v124
 BYTE   W06
 BYTE   Cn1  v127
 BYTE   N06  Cs2  v104
 BYTE   W12
//  #07 //017   ----------------------------------------
 BYTE   PATT
  POIN2 Label_01C6E04D
//  #07 //018   ----------------------------------------
 BYTE   N06  Dn1  v124
 BYTE   N06  As1  v080
 BYTE   W12
 BYTE   Cn1  v127
 BYTE   N06  As1  v080
 BYTE   W06
 BYTE   Cn1  v127
 BYTE   W06
 BYTE   Dn1  v124
 BYTE   N06  As1  v080
 BYTE   W06
 BYTE   Dn1  v124
 BYTE   W06
 BYTE   Cn1  v127
 BYTE   N06  Cs2  v104
 BYTE   W12
 BYTE   Cn1  v127
 BYTE   W06
 BYTE   Dn1  v124
 BYTE   N06  As1  v080
 BYTE   W12
 BYTE   Dn1  v124
 BYTE   W06
 BYTE   Cn1  v127
 BYTE   N06  Cs2  v104
 BYTE   W12
 BYTE   Dn1  v124
 BYTE   W06
 BYTE   N06
 BYTE   W06
//  #07 //019   ----------------------------------------
 BYTE   N06
 BYTE   W06
 BYTE   N06
 BYTE   W06
 BYTE   Cn1  v127
 BYTE   N06  Cs2  v104
 BYTE   W12
 BYTE   Cn1  v127
 BYTE   W06
 BYTE   Dn1  v124
 BYTE   N06  An1  v127
 BYTE   W12
 BYTE   Dn1  v124
 BYTE   N06  Fn1  v127
 BYTE   W06
 BYTE   Cn1
 BYTE   N06  Cs2  v104
 BYTE   W12
 BYTE   Dn1  v124
 BYTE   W06
 BYTE   N06
 BYTE   W06
 BYTE   Cn2  v127
 BYTE   W06
 BYTE   An1
 BYTE   W18
//  #07 //020   ----------------------------------------
 BYTE   W60
 BYTE   N24  Fn1
 BYTE   N24  Cn2
 BYTE   W22
 BYTE   GoTo
  POIN2 Label_01C6E049
//  #07 //021   ----------------------------------------
 BYTE   W14
 BYTE   W96
//  #07 //022   ----------------------------------------
 BYTE   W12
 BYTE   N96  An1  v127
 BYTE   W84
//  #07 //023   ----------------------------------------
 BYTE   W12
 BYTE   FINE

//**************** Track 8 (Midi-Chn.7) ****************//

NessiahSortie_Song_008:
//  #08 //000   ----------------------------------------
 BYTE   KEYSH   NessiahSortie_Song_key+0
 BYTE   VOICE   38
 BYTE   VOL   75*NessiahSortie_Song_mvl/mxv
 BYTE   W12
 BYTE   BEND   c_v-64
 BYTE   N24  Gs0  v127
 BYTE   W01
 BYTE   BEND   c_v-60
 BYTE   W02
 BYTE   BEND   c_v-55
 BYTE   W02
 BYTE   BEND   c_v-50
 BYTE   W01
 BYTE   BEND   c_v-45
 BYTE   W02
 BYTE   BEND   c_v-41
 BYTE   W02
 BYTE   BEND   c_v-36
 BYTE   W01
 BYTE   BEND   c_v-31
 BYTE   W02
 BYTE   BEND   c_v-26
 BYTE   W02
 BYTE   BEND   c_v-21
 BYTE   W02
 BYTE   BEND   c_v-17
 BYTE   W01
 BYTE   BEND   c_v-12
 BYTE   W02
 BYTE   BEND   c_v-7
 BYTE   W02
 BYTE   BEND   c_v+0
 BYTE   W02
 BYTE   N12  An0
 BYTE   W12
 BYTE   N06
 BYTE   W06
 BYTE   N12
 BYTE   W12
 BYTE   N06
 BYTE   W06
 BYTE   N12
 BYTE   W12
 BYTE   N06
 BYTE   W06
 BYTE   N12
 BYTE   W06
//  #08 //001   ----------------------------------------
 BYTE   W06
 BYTE   N06
 BYTE   W06
 BYTE   N12
 BYTE   W12
 BYTE   N06
 BYTE   W06
 BYTE   N12
 BYTE   W12
 BYTE   N06
 BYTE   W06
 BYTE   N11
 BYTE   W12
 BYTE   N06
 BYTE   W06
 BYTE   An1
 BYTE   W06
 BYTE   An0
 BYTE   W06
 BYTE   N06
 BYTE   W06
Label_01C6E2BC:
 BYTE   N06  En0  v127
 BYTE   W06
 BYTE   En1
 BYTE   W06
//  #08 //002   ----------------------------------------
Label_01C6E2C2:
 BYTE   N06  En0  v127
 BYTE   W06
 BYTE   En1
 BYTE   W06
 BYTE   En0
 BYTE   W06
 BYTE   N06
 BYTE   W06
 BYTE   En1
 BYTE   W06
 BYTE   En0
 BYTE   W06
 BYTE   N06
 BYTE   W06
 BYTE   En1
 BYTE   W06
 BYTE   En0
 BYTE   W06
 BYTE   N06
 BYTE   W06
 BYTE   N06
 BYTE   W06
 BYTE   En1
 BYTE   W06
 BYTE   En0
 BYTE   W06
 BYTE   En1
 BYTE   W06
 BYTE   En0
 BYTE   W06
 BYTE   N06
 BYTE   W06
 BYTE   PEND 
//  #08 //003   ----------------------------------------
Label_01C6E2E5:
 BYTE   N06  En1  v127
 BYTE   W06
 BYTE   En0
 BYTE   W06
 BYTE   N06
 BYTE   W06
 BYTE   En1
 BYTE   W06
 BYTE   En0
 BYTE   W06
 BYTE   N06
 BYTE   W06
 BYTE   N06
 BYTE   W06
 BYTE   En1
 BYTE   W06
 BYTE   En0
 BYTE   W06
 BYTE   En1
 BYTE   W06
 BYTE   En0
 BYTE   W06
 BYTE   N06
 BYTE   W06
 BYTE   En1
 BYTE   W06
 BYTE   En0
 BYTE   W06
 BYTE   N06
 BYTE   W06
 BYTE   En1
 BYTE   W06
 BYTE   PEND 
//  #08 //004   ----------------------------------------
 BYTE   En0
 BYTE   W06
 BYTE   N06
 BYTE   W06
 BYTE   N06
 BYTE   W06
 BYTE   En1
 BYTE   W06
 BYTE   En0
 BYTE   W06
 BYTE   En1
 BYTE   W06
 BYTE   En0
 BYTE   W06
 BYTE   N06
 BYTE   W06
 BYTE   En1
 BYTE   W06
 BYTE   En0
 BYTE   W06
 BYTE   N06
 BYTE   W06
 BYTE   En1
 BYTE   W06
 BYTE   En0
 BYTE   W06
 BYTE   N06
 BYTE   W06
 BYTE   N06
 BYTE   W06
 BYTE   En1
 BYTE   W06
//  #08 //005   ----------------------------------------
 BYTE   PATT
  POIN2 Label_01C6E2C2
//  #08 //006   ----------------------------------------
 BYTE   PATT
  POIN2 Label_01C6E2E5
//  #08 //007   ----------------------------------------
 BYTE   N06  En0  v127
 BYTE   W06
 BYTE   N06
 BYTE   W06
 BYTE   N06
 BYTE   W06
 BYTE   En1
 BYTE   W06
 BYTE   En0
 BYTE   W06
 BYTE   En1
 BYTE   W06
 BYTE   En0
 BYTE   W06
 BYTE   N06
 BYTE   W06
 BYTE   En1
 BYTE   W06
 BYTE   En0
 BYTE   W06
 BYTE   N06
 BYTE   W06
 BYTE   En1
 BYTE   W06
 BYTE   En0
 BYTE   W06
 BYTE   N06
 BYTE   W06
 BYTE   An0
 BYTE   W06
 BYTE   En1
 BYTE   W06
//  #08 //008   ----------------------------------------
 BYTE   An1
 BYTE   W06
 BYTE   Gn0
 BYTE   W06
 BYTE   Dn1
 BYTE   W06
 BYTE   Gn1
 BYTE   W06
 BYTE   An0
 BYTE   W06
 BYTE   En1
 BYTE   W06
 BYTE   An1
 BYTE   W06
 BYTE   Gn0
 BYTE   W06
 BYTE   Dn1
 BYTE   W06
 BYTE   Gn1
 BYTE   W06
 BYTE   An0
 BYTE   W06
 BYTE   En1
 BYTE   W06
 BYTE   An1
 BYTE   W06
 BYTE   Gn0
 BYTE   W06
 BYTE   Dn1
 BYTE   W06
 BYTE   Gn1
 BYTE   W06
//  #08 //009   ----------------------------------------
 BYTE   An0
 BYTE   W06
 BYTE   En1
 BYTE   W06
 BYTE   An1
 BYTE   W06
 BYTE   Gn0
 BYTE   W06
 BYTE   Dn1
 BYTE   W06
 BYTE   Gn1
 BYTE   W06
 BYTE   Gn0
 BYTE   W06
 BYTE   Dn1
 BYTE   W06
 BYTE   Gn1
 BYTE   W06
 BYTE   Dn1
 BYTE   W06
 BYTE   Gn0
 BYTE   W06
 BYTE   Gn1
 BYTE   W06
 BYTE   Gn0
 BYTE   W06
 BYTE   Dn1
 BYTE   W06
 BYTE   Gn1
 BYTE   W06
 BYTE   Dn1
 BYTE   W06
//  #08 //010   ----------------------------------------
 BYTE   Gn0
 BYTE   W06
 BYTE   Gn1
 BYTE   W06
 BYTE   Gn0
 BYTE   W06
 BYTE   Dn1
 BYTE   W06
 BYTE   Gn1
 BYTE   W06
 BYTE   Dn1
 BYTE   W06
 BYTE   Gn0
 BYTE   W06
 BYTE   Gn1
 BYTE   W06
 BYTE   Gn0
 BYTE   W06
 BYTE   Dn1
 BYTE   W06
 BYTE   Gn1
 BYTE   W06
 BYTE   Dn1
 BYTE   W06
 BYTE   Gn0
 BYTE   W06
 BYTE   Gn1
 BYTE   W06
 BYTE   Fn0
 BYTE   W06
 BYTE   Cn1
 BYTE   W06
//  #08 //011   ----------------------------------------
 BYTE   Fn1
 BYTE   W06
 BYTE   Cn1
 BYTE   W06
 BYTE   Fn0
 BYTE   W06
 BYTE   Fn1
 BYTE   W06
 BYTE   Fn0
 BYTE   W06
 BYTE   Cn1
 BYTE   W06
 BYTE   Fn1
 BYTE   W06
 BYTE   Cn1
 BYTE   W06
 BYTE   Fn0
 BYTE   W06
 BYTE   Fn1
 BYTE   W06
 BYTE   Fn0
 BYTE   W06
 BYTE   Cn1
 BYTE   W06
 BYTE   Fn1
 BYTE   W06
 BYTE   Cn1
 BYTE   W06
 BYTE   Fn0
 BYTE   W06
 BYTE   Fn1
 BYTE   W06
//  #08 //012   ----------------------------------------
 BYTE   Fn0
 BYTE   W06
 BYTE   Cn1
 BYTE   W06
 BYTE   Fn1
 BYTE   W06
 BYTE   Cn1
 BYTE   W06
 BYTE   Fn0
 BYTE   W06
 BYTE   Fn1
 BYTE   W06
 BYTE   Gn0
 BYTE   W06
 BYTE   Dn1
 BYTE   W06
 BYTE   Gn1
 BYTE   W06
 BYTE   Dn1
 BYTE   W06
 BYTE   Gn0
 BYTE   W06
 BYTE   Gn1
 BYTE   W06
 BYTE   Gn0
 BYTE   W06
 BYTE   Dn1
 BYTE   W06
 BYTE   Gn1
 BYTE   W06
 BYTE   Dn1
 BYTE   W06
//  #08 //013   ----------------------------------------
 BYTE   Gn0
 BYTE   W06
 BYTE   Gn1
 BYTE   W06
 BYTE   Gs0
 BYTE   W06
 BYTE   Ds1
 BYTE   W06
 BYTE   Cn2
 BYTE   W06
 BYTE   Gs0
 BYTE   W06
 BYTE   Ds1
 BYTE   W06
 BYTE   Cn2
 BYTE   W06
 BYTE   As0
 BYTE   W06
 BYTE   Fn1
 BYTE   W06
 BYTE   Dn2
 BYTE   W06
 BYTE   As0
 BYTE   W06
 BYTE   Fn1
 BYTE   W06
 BYTE   Dn2
 BYTE   W06
 BYTE   Cn1
 BYTE   W06
 BYTE   Cn2
 BYTE   W06
//  #08 //014   ----------------------------------------
 BYTE   Cn1
 BYTE   W06
 BYTE   N06
 BYTE   W06
 BYTE   Cn2
 BYTE   W06
 BYTE   Cn1
 BYTE   W06
 BYTE   N06
 BYTE   W06
 BYTE   Cn2
 BYTE   W06
 BYTE   Cn1
 BYTE   W06
 BYTE   N06
 BYTE   W06
 BYTE   Cn2
 BYTE   W06
 BYTE   Cn1
 BYTE   W06
 BYTE   N06
 BYTE   W06
 BYTE   Cn2
 BYTE   W06
 BYTE   Cn1
 BYTE   W06
 BYTE   N06
 BYTE   W06
 BYTE   Cn2
 BYTE   W06
 BYTE   Cn1
 BYTE   W06
//  #08 //015   ----------------------------------------
 BYTE   N06
 BYTE   W06
 BYTE   Cn2
 BYTE   W06
 BYTE   Cn1
 BYTE   W06
 BYTE   N06
 BYTE   W06
 BYTE   Cn2
 BYTE   W06
 BYTE   Cn1
 BYTE   W06
 BYTE   Gn0
 BYTE   W06
 BYTE   Gn1
 BYTE   W06
 BYTE   Gn0
 BYTE   W06
 BYTE   N06
 BYTE   W06
 BYTE   Gn1
 BYTE   W06
 BYTE   Gn0
 BYTE   W06
 BYTE   N06
 BYTE   W06
 BYTE   Gn1
 BYTE   W06
 BYTE   Gn0
 BYTE   W06
 BYTE   N06
 BYTE   W06
//  #08 //016   ----------------------------------------
 BYTE   Gn1
 BYTE   W06
 BYTE   Gn0
 BYTE   W06
 BYTE   N06
 BYTE   W06
 BYTE   Gn1
 BYTE   W06
 BYTE   Gn0
 BYTE   W06
 BYTE   N06
 BYTE   W06
 BYTE   Gn1
 BYTE   W06
 BYTE   Gn0
 BYTE   W06
 BYTE   N06
 BYTE   W06
 BYTE   Gn1
 BYTE   W06
 BYTE   Gn0
 BYTE   W06
 BYTE   N06
 BYTE   W06
 BYTE   Gn1
 BYTE   W06
 BYTE   Gn0
 BYTE   W06
 BYTE   Fn0
 BYTE   W06
 BYTE   Fn1
 BYTE   W06
//  #08 //017   ----------------------------------------
 BYTE   Fn0
 BYTE   W06
 BYTE   N06
 BYTE   W06
 BYTE   Fn1
 BYTE   W06
 BYTE   Fn0
 BYTE   W06
 BYTE   N06
 BYTE   W06
 BYTE   Fn1
 BYTE   W06
 BYTE   Fn0
 BYTE   W06
 BYTE   N06
 BYTE   W06
 BYTE   Fn1
 BYTE   W06
 BYTE   Fn0
 BYTE   W06
 BYTE   N06
 BYTE   W06
 BYTE   Fn1
 BYTE   W06
 BYTE   Fn0
 BYTE   W06
 BYTE   N06
 BYTE   W06
 BYTE   Fn1
 BYTE   W06
 BYTE   Fn0
 BYTE   W06
//  #08 //018   ----------------------------------------
 BYTE   N06
 BYTE   W06
 BYTE   Fn1
 BYTE   W06
 BYTE   Fn0
 BYTE   W06
 BYTE   N06
 BYTE   W06
 BYTE   Fn1
 BYTE   W06
 BYTE   Fn0
 BYTE   W06
 BYTE   N18  En0
 BYTE   W18
 BYTE   N12  En1
 BYTE   W12
 BYTE   N06  En0
 BYTE   W06
 BYTE   N12
 BYTE   W12
 BYTE   Dn1
 BYTE   W12
//  #08 //019   ----------------------------------------
 BYTE   Dn0
 BYTE   W12
 BYTE   N18  Cn1
 BYTE   W18
 BYTE   N12
 BYTE   W12
 BYTE   N06
 BYTE   W06
 BYTE   N12
 BYTE   W12
 BYTE   Bn0
 BYTE   W12
 BYTE   N12
 BYTE   W24
//  #08 //020   ----------------------------------------
 BYTE   W80
 BYTE   W02
 BYTE   GoTo
  POIN2 Label_01C6E2BC
//  #08 //021   ----------------------------------------
 BYTE   W14
 BYTE   W96
//  #08 //022   ----------------------------------------
 BYTE   W96
//  #08 //023   ----------------------------------------
 BYTE   W12
 BYTE   FINE

//**************** Track 9 (Midi-Chn.8) ****************//

NessiahSortie_Song_009:
//  #09 //000   ----------------------------------------
 BYTE   KEYSH   NessiahSortie_Song_key+0
 BYTE   VOICE   18
 BYTE   VOL   70*NessiahSortie_Song_mvl/mxv
 BYTE   W96
//  #09 //001   ----------------------------------------
 BYTE   W84
Label_01C41A08:
 BYTE   N72  Cn4  v088
 BYTE   N72  Ds4  v127
 BYTE   W12
//  #09 //002   ----------------------------------------
 BYTE   W60
 BYTE   N24  Bn3  v088
 BYTE   N24  En4  v127
 BYTE   W24
 BYTE   En3  v088
 BYTE   N24  Bn3  v127
 BYTE   W12
//  #09 //003   ----------------------------------------
 BYTE   W12
 BYTE   En4  v088
 BYTE   N24  Bn4  v127
 BYTE   W24
 BYTE   N48  Fs4  v088
 BYTE   N06  As4  v127
 BYTE   W06
 BYTE   Bn4
 BYTE   W06
 BYTE   N36  As4
 BYTE   W36
 BYTE   N24  Cs4  v088
 BYTE   N24  Fs4  v127
 BYTE   W12
//  #09 //004   ----------------------------------------
 BYTE   W12
 BYTE   N48  Fs4  v088
 BYTE   N48  Bn4  v127
 BYTE   W48
 BYTE   N24  Bn3  v088
 BYTE   N24  Fs4  v127
 BYTE   W24
 BYTE   N48  En4  v088
 BYTE   N48  An4  v127
 BYTE   W12
//  #09 //005   ----------------------------------------
 BYTE   W36
 BYTE   N24  Cs4  v088
 BYTE   N24  An4  v127
 BYTE   W24
 BYTE   An4  v088
 BYTE   N24  Cs5  v127
 BYTE   W24
 BYTE   En4  v088
 BYTE   N24  An4  v127
 BYTE   W12
//  #09 //006   ----------------------------------------
 BYTE   W12
 BYTE   N18  An4  v088
 BYTE   N18  En5  v127
 BYTE   W18
 BYTE   N03  Gs4  v088
 BYTE   N03  Ds5  v127
 BYTE   W03
 BYTE   Gn4  v088
 BYTE   N03  Dn5  v127
 BYTE   W03
 BYTE   N72  Gn4  v088
 BYTE   N72  Cn5  v127
 BYTE   W60
//  #09 //007   ----------------------------------------
 BYTE   W96
//  #09 //008   ----------------------------------------
 BYTE   W96
//  #09 //009   ----------------------------------------
 BYTE   W96
//  #09 //010   ----------------------------------------
 BYTE   W96
//  #09 //011   ----------------------------------------
 BYTE   W96
//  #09 //012   ----------------------------------------
 BYTE   W96
//  #09 //013   ----------------------------------------
 BYTE   W84
 BYTE   Gn4  v100
 BYTE   W12
//  #09 //014   ----------------------------------------
 BYTE   W60
 BYTE   N48  Dn5
 BYTE   W36
//  #09 //015   ----------------------------------------
 BYTE   W12
 BYTE   N24  As4
 BYTE   W24
 BYTE   N72  Gn5
 BYTE   W60
//  #09 //016   ----------------------------------------
 BYTE   W12
 BYTE   N48  As5
 BYTE   W48
 BYTE   N24  Dn5
 BYTE   W24
 BYTE   N72  Fn5
 BYTE   W12
//  #09 //017   ----------------------------------------
 BYTE   W60
 BYTE   N48  Gs5
 BYTE   W36
//  #09 //018   ----------------------------------------
 BYTE   W12
 BYTE   N24  Cn6
 BYTE   W24
 BYTE   N48  Bn4  v088
 BYTE   N48  Gn5  v100
 BYTE   W48
 BYTE   N24  An4  v088
 BYTE   N24  Fs5  v100
 BYTE   W12
//  #09 //019   ----------------------------------------
 BYTE   W12
 BYTE   N48  Gn4  v088
 BYTE   N48  En5  v100
 BYTE   W48
 BYTE   N24  An4  v088
 BYTE   N24  Dn5  v100
 BYTE   W24
 BYTE   N72  Fn4  v127
 BYTE   N72  Bn4
 BYTE   W12
//  #09 //020   ----------------------------------------
 BYTE   W80
 BYTE   W02
 BYTE   GoTo
  POIN2 Label_01C41A08
//  #09 //021   ----------------------------------------
 BYTE   W14
 BYTE   W96
//  #09 //022   ----------------------------------------
 BYTE   W96
//  #09 //023   ----------------------------------------
 BYTE   W12
 BYTE   FINE

//**************** Track 10 (Midi-Chn.9) ****************//

NessiahSortie_Song_010:
//  #10 //000   ----------------------------------------
 BYTE   KEYSH   NessiahSortie_Song_key+0
 BYTE   VOICE   48
 BYTE   VOL   45*NessiahSortie_Song_mvl/mxv
 BYTE   W12
 BYTE   N04  An2  v100
 BYTE   N04  Ds3
 BYTE   W04
 BYTE   Cn3
 BYTE   N04  Fn3
 BYTE   W04
 BYTE   Ds3
 BYTE   N04  Gn3
 BYTE   W04
 BYTE   An3
 BYTE   N04  Dn4
 BYTE   W04
 BYTE   Cn4
 BYTE   N04  Fn4
 BYTE   W04
 BYTE   Ds4
 BYTE   N04  Gs4
 BYTE   W04
 BYTE   N24  An3
 BYTE   N24  En4
 BYTE   N24  An4
 BYTE   W24
 BYTE   Gs3
 BYTE   N24  Ds4
 BYTE   N24  Gs4
 BYTE   W24
 BYTE   Gn3
 BYTE   N24  Bn3
 BYTE   N24  En4
 BYTE   W12
//  #10 //001   ----------------------------------------
 BYTE   W12
 BYTE   En3
 BYTE   N24  Dn4
 BYTE   N24  Gn4
 BYTE   W24
 BYTE   Ds3
 BYTE   N24  Cs4
 BYTE   N24  Fs4
 BYTE   W24
 BYTE   Dn3
 BYTE   N24  An3
 BYTE   N24  Dn4
 BYTE   W24
Label_01C41B1B:
 BYTE   W12
//  #10 //002   ----------------------------------------
 BYTE   W96
//  #10 //003   ----------------------------------------
 BYTE   W96
//  #10 //004   ----------------------------------------
 BYTE   W96
//  #10 //005   ----------------------------------------
 BYTE   W96
//  #10 //006   ----------------------------------------
 BYTE   W96
//  #10 //007   ----------------------------------------
 BYTE   MOD 4
 BYTE   W84
 BYTE   N72  Cn4  v088
 BYTE   N72  En4  v127
 BYTE   W01
 BYTE   MOD 0
 BYTE   W11
//  #10 //008   ----------------------------------------
 BYTE   W60
 BYTE   N24  Cn4  v088
 BYTE   N24  Fn4  v127
 BYTE   W24
 BYTE   Cn4  v088
 BYTE   N24  En4  v127
 BYTE   W12
//  #10 //009   ----------------------------------------
 BYTE   W12
 BYTE   Bn3  v088
 BYTE   N24  Dn4  v127
 BYTE   W24
 BYTE   N48  Cn4  v088
 BYTE   N48  En4  v127
 BYTE   W48
 BYTE   N24  Dn3  v088
 BYTE   N24  An3  v127
 BYTE   W12
//  #10 //010   ----------------------------------------
 BYTE   W12
 BYTE   N12  Gn3  v088
 BYTE   N12  Bn3  v127
 BYTE   W12
 BYTE   Gn2  v088
 BYTE   N12  Dn3  v127
 BYTE   W12
 BYTE   An3  v088
 BYTE   N12  Cn4  v127
 BYTE   W12
 BYTE   Gn2  v088
 BYTE   N12  Dn3
 BYTE   W12
 BYTE   Bn3
 BYTE   N12  Dn4  v127
 BYTE   W12
 BYTE   Dn3  v088
 BYTE   N12  Gn3  v127
 BYTE   W12
 BYTE   N48  Cn4  v088
 BYTE   N48  En4  v127
 BYTE   W12
//  #10 //011   ----------------------------------------
 BYTE   W36
 BYTE   N24  En4  v088
 BYTE   N24  An4  v127
 BYTE   W24
 BYTE   Dn4  v088
 BYTE   N24  Gn4  v127
 BYTE   W24
 BYTE   An3  v088
 BYTE   N24  Dn4  v127
 BYTE   W12
//  #10 //012   ----------------------------------------
 BYTE   W12
 BYTE   Fn3  v088
 BYTE   N24  An3  v127
 BYTE   W24
 BYTE   N48  Gn3  v088
 BYTE   N48  Cn4  v127
 BYTE   W48
 BYTE   N24  Gn3  v088
 BYTE   N24  Bn3  v127
 BYTE   W12
//  #10 //013   ----------------------------------------
 BYTE   W12
 BYTE   N12  Ds3  v088
 BYTE   N12  Gs3  v127
 BYTE   W12
 BYTE   Gs3  v088
 BYTE   N12  Cn4  v127
 BYTE   W12
 BYTE   Cn4  v088
 BYTE   N12  Ds4  v127
 BYTE   W12
 BYTE   Fn3  v088
 BYTE   N12  As3  v127
 BYTE   W12
 BYTE   As3  v088
 BYTE   N12  Dn4  v127
 BYTE   W12
 BYTE   Dn4  v088
 BYTE   N12  Fn4  v127
 BYTE   W24
//  #10 //014   ----------------------------------------
 BYTE   W96
//  #10 //015   ----------------------------------------
 BYTE   W96
//  #10 //016   ----------------------------------------
 BYTE   W96
//  #10 //017   ----------------------------------------
 BYTE   W96
//  #10 //018   ----------------------------------------
 BYTE   W96
//  #10 //019   ----------------------------------------
 BYTE   W96
//  #10 //020   ----------------------------------------
 BYTE   W80
 BYTE   W02
 BYTE   GoTo
  POIN2 Label_01C41B1B
//  #10 //021   ----------------------------------------
 BYTE   W14
 BYTE   W96
//  #10 //022   ----------------------------------------
 BYTE   W96
//  #10 //023   ----------------------------------------
 BYTE   W12
 BYTE   FINE

//**************** Track 11 (Midi-Chn.10) ****************//

NessiahSortie_Song_011:
//  #11 //000   ----------------------------------------
 BYTE   KEYSH   NessiahSortie_Song_key+0
 BYTE   VOICE   14
 BYTE   VOL   57*NessiahSortie_Song_mvl/mxv
 BYTE   BEND   c_v+32
 BYTE   W96
//  #11 //001   ----------------------------------------
 BYTE   W84
Label_01C414C6:
 BYTE   BEND   c_v+0
 BYTE   N72  Ds3  v100
 BYTE   W12
//  #11 //002   ----------------------------------------
 BYTE   W60
 BYTE   En3
 BYTE   W36
//  #11 //003   ----------------------------------------
 BYTE   W36
 BYTE   Fs3
 BYTE   W60
//  #11 //004   ----------------------------------------
 BYTE   W12
 BYTE   Dn3
 BYTE   W72
 BYTE   TIE  An3
 BYTE   W12
//  #11 //005   ----------------------------------------
 BYTE   W96
//  #11 //006   ----------------------------------------
 BYTE   W36
 BYTE   EOT
 BYTE   N60  Cn4
 BYTE   W60
//  #11 //007   ----------------------------------------
 BYTE   W96
//  #11 //008   ----------------------------------------
 BYTE   W96
//  #11 //009   ----------------------------------------
 BYTE   W96
//  #11 //010   ----------------------------------------
 BYTE   W96
//  #11 //011   ----------------------------------------
 BYTE   W96
//  #11 //012   ----------------------------------------
 BYTE   W96
//  #11 //013   ----------------------------------------
 BYTE   W84
 BYTE   TIE
 BYTE   W12
//  #11 //014   ----------------------------------------
 BYTE   W96
//  #11 //015   ----------------------------------------
 BYTE   W36
 BYTE   EOT
 BYTE   TIE  Gn3
 BYTE   W60
//  #11 //016   ----------------------------------------
 BYTE   W84
 BYTE   EOT
 BYTE   TIE  Fn4
 BYTE   W12
//  #11 //017   ----------------------------------------
 BYTE   W96
//  #11 //018   ----------------------------------------
 BYTE   W36
 BYTE   EOT
 BYTE   W60
//  #11 //019   ----------------------------------------
 BYTE   W96
//  #11 //020   ----------------------------------------
 BYTE   W80
 BYTE   W02
 BYTE   GoTo
  POIN2 Label_01C414C6
//  #11 //021   ----------------------------------------
 BYTE   W14
 BYTE   W96
//  #11 //022   ----------------------------------------
 BYTE   W96
//  #11 //023   ----------------------------------------
 BYTE   W12
 BYTE   FINE

//******************************************************//
	ALIGN 4

NessiahSortie_Song:
	BYTE	11	// NumTrks
	BYTE	0	// NumBlks
	BYTE	NessiahSortie_Song_pri	// Priority
	BYTE	NessiahSortie_Song_rev	// Reverb.
    
	POIN2	NessiahSortie_Song_grp
    
	POIN2	NessiahSortie_Song_001
	POIN2	NessiahSortie_Song_002
	POIN2	NessiahSortie_Song_003
	POIN2	NessiahSortie_Song_004
	POIN2	NessiahSortie_Song_005
	POIN2	NessiahSortie_Song_006
	POIN2	NessiahSortie_Song_007
	POIN2	NessiahSortie_Song_008
	POIN2	NessiahSortie_Song_009
	POIN2	NessiahSortie_Song_010
	POIN2	NessiahSortie_Song_011

	
