//Event file generated from Sappy .s format.
	#include "MPlayDef.event"

	#define	PointOfNoReturn_Song_grp  voicegroup000
	#define	PointOfNoReturn_Song_pri  0
	#define	PointOfNoReturn_Song_rev  0
	#define	PointOfNoReturn_Song_mvl  127
	#define	PointOfNoReturn_Song_key  0
	#define	PointOfNoReturn_Song_tbs  1
	#define	PointOfNoReturn_Song_exg  0
	#define	PointOfNoReturn_Song_cmp  1

	// .rodata
	//	PointOfNoReturn_Song
	ALIGN 4


//**************** Track 1 (Midi-Chn.0) ****************//

PointOfNoReturn_Song_001:
//  #01 //000   ----------------------------------------
 BYTE   KEYSH   PointOfNoReturn_Song_key+0
 BYTE   TEMPO   136*PointOfNoReturn_Song_tbs/2
 BYTE   VOICE   81
 BYTE   VOL   0*PointOfNoReturn_Song_mvl/mxv
 BYTE   PAN   c_v+0
 BYTE   VOL   25*PointOfNoReturn_Song_mvl/mxv
 BYTE   PAN   c_v+0
 BYTE   VOL   25*PointOfNoReturn_Song_mvl/mxv
 BYTE   PAN   c_v+0
 BYTE   W24
 BYTE   N11  Cn1  v100
 BYTE   W12
 BYTE   N05  Cn2
 BYTE   W06
 BYTE   N05
 BYTE   W06
 BYTE   Cn1
 BYTE   W06
 BYTE   Cn2
 BYTE   W06
 BYTE   N11  Cn1
 BYTE   W12
 BYTE   N05  Cn2
 BYTE   W06
 BYTE   N11  Cn1
 BYTE   W12
 BYTE   N05  Cn2
 BYTE   W06
//  #01 //001   ----------------------------------------
 BYTE   N11  Cn1
 BYTE   W12
 BYTE   N05  Cn2
 BYTE   W06
 BYTE   N05
 BYTE   W06
Label_012B3A58:
 BYTE   N11  Cn1  v100
 BYTE   W12
 BYTE   N05  Cn2
 BYTE   W06
 BYTE   N05
 BYTE   W06
 BYTE   Cn1
 BYTE   W06
 BYTE   Cn2
 BYTE   W06
 BYTE   N11  Cn1
 BYTE   W12
 BYTE   N05  Cn2
 BYTE   W06
 BYTE   N11  Cn1
 BYTE   W12
 BYTE   N05  Cn2
 BYTE   W06
//  #01 //002   ----------------------------------------
 BYTE   N11  Cn1
 BYTE   W12
 BYTE   N05  Cn2
 BYTE   W06
 BYTE   N05
 BYTE   W06
 BYTE   PEND 
//  #01 //003   ----------------------------------------
 BYTE   PATT
  POIN2 Label_012B3A58
//  #01 //004   ----------------------------------------
 BYTE   PATT
  POIN2 Label_012B3A58
//  #01 //005   ----------------------------------------
Label_012B3A84:
 BYTE   N11  Cn1  v100
 BYTE   W12
 BYTE   N05  Cn2
 BYTE   W06
 BYTE   N05
 BYTE   W06
 BYTE   Cn1
 BYTE   W06
 BYTE   Cn2
 BYTE   W06
 BYTE   N11  Cn1
 BYTE   W12
 BYTE   N05  Cn2
 BYTE   W06
 BYTE   N11  Cn1
 BYTE   W12
 BYTE   N05  Cn2
 BYTE   W06
 BYTE   N11  Cn1
 BYTE   W12
 BYTE   N05  Cn2
 BYTE   W06
 BYTE   N05
 BYTE   W06
 BYTE   PEND 
//  #01 //006   ----------------------------------------
Label_012B3AA6:
 BYTE   N11  Cn1  v100
 BYTE   W12
 BYTE   N05  Cn2
 BYTE   W06
 BYTE   N05
 BYTE   W06
 BYTE   Cn1
 BYTE   W06
 BYTE   Cn2
 BYTE   W06
 BYTE   N11  Cn1
 BYTE   W12
 BYTE   N05  Cn2
 BYTE   W06
 BYTE   N11  Cn1
 BYTE   W12
 BYTE   N05  Cn2
 BYTE   W06
 BYTE   N11  Cn1
 BYTE   W12
 BYTE   N05  Cn2
 BYTE   W06
 BYTE   N05
 BYTE   W06
 BYTE   PEND 
//  #01 //007   ----------------------------------------
 BYTE   PATT
  POIN2 Label_012B3A84
//  #01 //008   ----------------------------------------
Label_012B3ACD:
 BYTE   N11  Cn1  v100
 BYTE   W12
 BYTE   N05  Cn2
 BYTE   W06
 BYTE   N05
 BYTE   W06
 BYTE   Cn1
 BYTE   W06
 BYTE   Cn2
 BYTE   W06
 BYTE   N11  Cn1
 BYTE   W12
 BYTE   N05  Cn2
 BYTE   W06
 BYTE   N11  Cn1
 BYTE   W12
 BYTE   N05  Cn2
 BYTE   W06
 BYTE   N11  Cn1
 BYTE   W12
 BYTE   N05  Cn2
 BYTE   W06
 BYTE   N05
 BYTE   W06
 BYTE   PEND 
//  #01 //009   ----------------------------------------
Label_012B3AEF:
 BYTE   N11  Fn1  v100
 BYTE   W12
 BYTE   N05  Fn2
 BYTE   W06
 BYTE   N05
 BYTE   W06
 BYTE   Fn1
 BYTE   W06
 BYTE   Fn2
 BYTE   W06
 BYTE   N11  Fn1
 BYTE   W12
 BYTE   N05  Fn2
 BYTE   W06
 BYTE   N11  Fn1
 BYTE   W12
 BYTE   N05  Fn2
 BYTE   W06
 BYTE   N11  Fn1
 BYTE   W12
 BYTE   N05  Fn2
 BYTE   W06
 BYTE   N05
 BYTE   W06
 BYTE   PEND 
//  #01 //010   ----------------------------------------
Label_012B3B11:
 BYTE   N11  Gn1  v100
 BYTE   W12
 BYTE   N05  Gn2
 BYTE   W06
 BYTE   N05
 BYTE   W06
 BYTE   Gn1
 BYTE   W06
 BYTE   Gn2
 BYTE   W06
 BYTE   N11  Gn1
 BYTE   W12
 BYTE   N05  Gn2
 BYTE   W06
 BYTE   N11  Gn1
 BYTE   W12
 BYTE   N05  Gn2
 BYTE   W06
 BYTE   N11  Gn1
 BYTE   W12
 BYTE   N05  Gn2
 BYTE   W06
 BYTE   N05
 BYTE   W06
 BYTE   PEND 
//  #01 //011   ----------------------------------------
 BYTE   PATT
  POIN2 Label_012B3A84
//  #01 //012   ----------------------------------------
Label_012B3B38:
 BYTE   N11  Cn1  v100
 BYTE   W12
 BYTE   N05  Cn2
 BYTE   W06
 BYTE   N05
 BYTE   W06
 BYTE   Cn1
 BYTE   W06
 BYTE   Cn2
 BYTE   W06
 BYTE   N11  Cn1
 BYTE   W12
 BYTE   N05  Cn2
 BYTE   W06
 BYTE   N11  Cn1
 BYTE   W12
 BYTE   N05  Cn2
 BYTE   W06
 BYTE   N11  Cn1
 BYTE   W12
 BYTE   N05  Cn2
 BYTE   W06
 BYTE   N05
 BYTE   W06
 BYTE   PEND 
//  #01 //013   ----------------------------------------
Label_012B3B5A:
 BYTE   N11  Cn1  v100
 BYTE   W12
 BYTE   N05  Cn2
 BYTE   W06
 BYTE   N05
 BYTE   W06
 BYTE   Cn1
 BYTE   W06
 BYTE   Cn2
 BYTE   W06
 BYTE   N11  Cn1
 BYTE   W12
 BYTE   N05  Cn2
 BYTE   W06
 BYTE   N11  Cn1
 BYTE   W12
 BYTE   N05  Cn2
 BYTE   W06
 BYTE   N11  Cn1
 BYTE   W12
 BYTE   N05  Cn2
 BYTE   W06
 BYTE   N05
 BYTE   W06
 BYTE   PEND 
//  #01 //014   ----------------------------------------
Label_012B3B7C:
 BYTE   N11  Cn1  v100
 BYTE   W12
 BYTE   N05  Cn2
 BYTE   W06
 BYTE   N05
 BYTE   W06
 BYTE   Cn1
 BYTE   W06
 BYTE   Cn2
 BYTE   W06
 BYTE   N11  Cn1
 BYTE   W12
 BYTE   N05  Cn2
 BYTE   W06
 BYTE   N11  Cn1
 BYTE   W12
 BYTE   N05  Cn2
 BYTE   W06
 BYTE   N11  Cn1
 BYTE   W12
 BYTE   N05  Cn2
 BYTE   W06
 BYTE   N05
 BYTE   W06
 BYTE   PEND 
//  #01 //015   ----------------------------------------
 BYTE   PATT
  POIN2 Label_012B3B5A
//  #01 //016   ----------------------------------------
Label_012B3BA3:
 BYTE   N11  Cn1  v100
 BYTE   W12
 BYTE   N05  Cn2
 BYTE   W06
 BYTE   N05
 BYTE   W06
 BYTE   Cn1
 BYTE   W06
 BYTE   Cn2
 BYTE   W06
 BYTE   N11  Cn1
 BYTE   W12
 BYTE   N05  Cn2
 BYTE   W06
 BYTE   N11  Cn1
 BYTE   W12
 BYTE   N05  Cn2
 BYTE   W06
 BYTE   N11  Cn1
 BYTE   W12
 BYTE   N05  Cn2
 BYTE   W06
 BYTE   N05
 BYTE   W06
 BYTE   PEND 
//  #01 //017   ----------------------------------------
Label_012B3BC5:
 BYTE   N11  Fn1  v100
 BYTE   W12
 BYTE   N05  Fn2
 BYTE   W06
 BYTE   N05
 BYTE   W06
 BYTE   Fn1
 BYTE   W06
 BYTE   Fn2
 BYTE   W06
 BYTE   N11  Fn1
 BYTE   W12
 BYTE   N05  Fn2
 BYTE   W06
 BYTE   N11  Fn1
 BYTE   W12
 BYTE   N05  Fn2
 BYTE   W06
 BYTE   N11  Fn1
 BYTE   W12
 BYTE   N05  Fn2
 BYTE   W06
 BYTE   N05
 BYTE   W06
 BYTE   PEND 
//  #01 //018   ----------------------------------------
Label_012B3BE7:
 BYTE   N11  Gn1  v100
 BYTE   W12
 BYTE   N05  Gn2
 BYTE   W06
 BYTE   N05
 BYTE   W06
 BYTE   Gn1
 BYTE   W06
 BYTE   Gn2
 BYTE   W06
 BYTE   N11  Gn1
 BYTE   W12
 BYTE   N05  Gn2
 BYTE   W06
 BYTE   N11  Gn1
 BYTE   W12
 BYTE   N05  Gn2
 BYTE   W06
 BYTE   N11  Gn1
 BYTE   W12
 BYTE   N05  Gn2
 BYTE   W06
 BYTE   N05
 BYTE   W06
 BYTE   PEND 
//  #01 //019   ----------------------------------------
Label_012B3C09:
 BYTE   N11  Cn1  v100
 BYTE   W12
 BYTE   N05  Cn2
 BYTE   W06
 BYTE   N05
 BYTE   W06
 BYTE   Cn1
 BYTE   W06
 BYTE   Cn2
 BYTE   W06
 BYTE   N11  Cn1
 BYTE   W12
 BYTE   N05  Cn2
 BYTE   W06
 BYTE   N11  Cn1
 BYTE   W12
 BYTE   N05  Cn2
 BYTE   W06
 BYTE   N11  Cn1
 BYTE   W12
 BYTE   N05  Cn2
 BYTE   W06
 BYTE   N05
 BYTE   W06
 BYTE   PEND 
//  #01 //020   ----------------------------------------
Label_012B3C2B:
 BYTE   N11  Cn1  v100
 BYTE   W12
 BYTE   N05  Cn2
 BYTE   W06
 BYTE   N05
 BYTE   W06
 BYTE   Cn1
 BYTE   W06
 BYTE   Cn2
 BYTE   W06
 BYTE   N11  Cn1
 BYTE   W12
 BYTE   N05  Cn2
 BYTE   W06
 BYTE   N11  Cn1
 BYTE   W12
 BYTE   N05  Cn2
 BYTE   W06
 BYTE   N11  Cn1
 BYTE   W12
 BYTE   N05  Cn2
 BYTE   W06
 BYTE   N05
 BYTE   W06
 BYTE   PEND 
//  #01 //021   ----------------------------------------
 BYTE   PATT
  POIN2 Label_012B3B5A
//  #01 //022   ----------------------------------------
 BYTE   PATT
  POIN2 Label_012B3B7C
//  #01 //023   ----------------------------------------
 BYTE   PATT
  POIN2 Label_012B3B5A
//  #01 //024   ----------------------------------------
 BYTE   PATT
  POIN2 Label_012B3BA3
//  #01 //025   ----------------------------------------
 BYTE   PATT
  POIN2 Label_012B3BC5
//  #01 //026   ----------------------------------------
Label_012B3C66:
 BYTE   N11  Gn1  v100
 BYTE   W12
 BYTE   N05  Gn2
 BYTE   W06
 BYTE   N05
 BYTE   W06
 BYTE   Gn1
 BYTE   W06
 BYTE   Gn2
 BYTE   W06
 BYTE   N11  Gn1
 BYTE   W12
 BYTE   N05  Gn2
 BYTE   W06
 BYTE   N11  Gn1
 BYTE   W12
 BYTE   N05  Gn2
 BYTE   W06
 BYTE   N11  Gn1
 BYTE   W12
 BYTE   N05  Gn2
 BYTE   W06
 BYTE   N05
 BYTE   W06
 BYTE   PEND 
//  #01 //027   ----------------------------------------
 BYTE   PATT
  POIN2 Label_012B3C09
//  #01 //028   ----------------------------------------
Label_012B3C8D:
 BYTE   N11  As0  v100
 BYTE   W12
 BYTE   N05  As1
 BYTE   W06
 BYTE   N05
 BYTE   W06
 BYTE   As0
 BYTE   W06
 BYTE   As1
 BYTE   W06
 BYTE   N11  As0
 BYTE   W12
 BYTE   N05  As1
 BYTE   W06
 BYTE   N11  As0
 BYTE   W12
 BYTE   N05  As1
 BYTE   W06
 BYTE   N11  As0
 BYTE   W12
 BYTE   N05  As1
 BYTE   W06
 BYTE   N05
 BYTE   W06
 BYTE   PEND 
//  #01 //029   ----------------------------------------
Label_012B3CAF:
 BYTE   N11  Gs1  v100
 BYTE   W12
 BYTE   N05  Gs2
 BYTE   W06
 BYTE   N05
 BYTE   W06
 BYTE   Gs1
 BYTE   W06
 BYTE   Gs2
 BYTE   W06
 BYTE   N11  Gs1
 BYTE   W12
 BYTE   N05  Gs2
 BYTE   W06
 BYTE   N11  Gs1
 BYTE   W12
 BYTE   N05  Gs2
 BYTE   W06
 BYTE   N11  Gs1
 BYTE   W12
 BYTE   N05  Gs2
 BYTE   W06
 BYTE   N05
 BYTE   W06
 BYTE   PEND 
//  #01 //030   ----------------------------------------
Label_012B3CD1:
 BYTE   N11  Gs1  v100
 BYTE   W12
 BYTE   N05  Gs2
 BYTE   W06
 BYTE   N05
 BYTE   W06
 BYTE   Gs1
 BYTE   W06
 BYTE   Gs2
 BYTE   W06
 BYTE   N11  Gs1
 BYTE   W12
 BYTE   N05  Gs2
 BYTE   W06
 BYTE   N11  Gs1
 BYTE   W12
 BYTE   N05  Gs2
 BYTE   W06
 BYTE   N11  As1
 BYTE   W12
 BYTE   N05  As2
 BYTE   W06
 BYTE   N05
 BYTE   W06
 BYTE   PEND 
//  #01 //031   ----------------------------------------
Label_012B3CF3:
 BYTE   N11  Cn1  v100
 BYTE   W12
 BYTE   N05  Cn2
 BYTE   W06
 BYTE   N05
 BYTE   W06
 BYTE   Cn1
 BYTE   W06
 BYTE   Cn2
 BYTE   W06
 BYTE   N11  Cn1
 BYTE   W12
 BYTE   N05  Cn2
 BYTE   W06
 BYTE   N11  Cn1
 BYTE   W12
 BYTE   N05  Cn2
 BYTE   W06
 BYTE   N11  Cn1
 BYTE   W12
 BYTE   N05  Cn2
 BYTE   W06
 BYTE   N05
 BYTE   W06
 BYTE   PEND 
//  #01 //032   ----------------------------------------
Label_012B3D15:
 BYTE   N11  Cn1  v100
 BYTE   W12
 BYTE   N05  Cn2
 BYTE   W06
 BYTE   N05
 BYTE   W06
 BYTE   Cn1
 BYTE   W06
 BYTE   Cn2
 BYTE   W06
 BYTE   N11  Cn1
 BYTE   W12
 BYTE   N05  Cn2
 BYTE   W06
 BYTE   N11  Cn1
 BYTE   W12
 BYTE   N05  Cn2
 BYTE   W06
 BYTE   N11  As0
 BYTE   W12
 BYTE   N05  As1
 BYTE   W06
 BYTE   N05
 BYTE   W06
 BYTE   PEND 
//  #01 //033   ----------------------------------------
Label_012B3D37:
 BYTE   N11  Gs1  v100
 BYTE   W12
 BYTE   N05  Gs2
 BYTE   W06
 BYTE   N05
 BYTE   W06
 BYTE   Gs1
 BYTE   W06
 BYTE   Gs2
 BYTE   W06
 BYTE   N11  Gs1
 BYTE   W12
 BYTE   N05  Gs2
 BYTE   W06
 BYTE   N11  Gs1
 BYTE   W12
 BYTE   N05  Gs2
 BYTE   W06
 BYTE   N11  Gs1
 BYTE   W12
 BYTE   N05  Gs2
 BYTE   W06
 BYTE   N05
 BYTE   W06
 BYTE   PEND 
//  #01 //034   ----------------------------------------
Label_012B3D59:
 BYTE   N11  Gs1  v100
 BYTE   W12
 BYTE   N05  Gs2
 BYTE   W06
 BYTE   N05
 BYTE   W06
 BYTE   Gs1
 BYTE   W06
 BYTE   Gs2
 BYTE   W06
 BYTE   N11  Gs1
 BYTE   W12
 BYTE   N05  Gs2
 BYTE   W06
 BYTE   N11  Gs1
 BYTE   W12
 BYTE   N05  Gs2
 BYTE   W06
 BYTE   N11  Gn1
 BYTE   W12
 BYTE   N05  Gn2
 BYTE   W06
 BYTE   N05
 BYTE   W06
 BYTE   PEND 
//  #01 //035   ----------------------------------------
Label_012B3D7B:
 BYTE   N11  Fn1  v100
 BYTE   W12
 BYTE   N05  Fn2
 BYTE   W06
 BYTE   N05
 BYTE   W06
 BYTE   Fn1
 BYTE   W06
 BYTE   Fn2
 BYTE   W06
 BYTE   N11  Fn1
 BYTE   W12
 BYTE   N05  Fn2
 BYTE   W06
 BYTE   N11  Fn1
 BYTE   W12
 BYTE   N05  Fn2
 BYTE   W06
 BYTE   N11  Fn1
 BYTE   W12
 BYTE   N05  Fn2
 BYTE   W06
 BYTE   N05
 BYTE   W06
 BYTE   PEND 
//  #01 //036   ----------------------------------------
Label_012B3D9D:
 BYTE   N11  Gn1  v100
 BYTE   W12
 BYTE   N05  Gn2
 BYTE   W06
 BYTE   N05
 BYTE   W06
 BYTE   Gn1
 BYTE   W06
 BYTE   Gn2
 BYTE   W06
 BYTE   N11  Gn1
 BYTE   W12
 BYTE   N05  Gn2
 BYTE   W06
 BYTE   N11  Gn1
 BYTE   W12
 BYTE   N05  Gn2
 BYTE   W06
 BYTE   N11  Gn1
 BYTE   W12
 BYTE   N05  Gn2
 BYTE   W06
 BYTE   N05
 BYTE   W06
 BYTE   PEND 
//  #01 //037   ----------------------------------------
 BYTE   PATT
  POIN2 Label_012B3D37
//  #01 //038   ----------------------------------------
 BYTE   PATT
  POIN2 Label_012B3CD1
//  #01 //039   ----------------------------------------
 BYTE   PATT
  POIN2 Label_012B3CF3
//  #01 //040   ----------------------------------------
 BYTE   PATT
  POIN2 Label_012B3D15
//  #01 //041   ----------------------------------------
Label_012B3DD3:
 BYTE   N11  Gs1  v100
 BYTE   W12
 BYTE   N05  Gs2
 BYTE   W06
 BYTE   N05
 BYTE   W06
 BYTE   Gs1
 BYTE   W06
 BYTE   Gs2
 BYTE   W06
 BYTE   N11  Gs1
 BYTE   W12
 BYTE   N05  Gs2
 BYTE   W06
 BYTE   N11  Gs1
 BYTE   W12
 BYTE   N05  Gs2
 BYTE   W06
 BYTE   N11  Gn1
 BYTE   W12
 BYTE   N05  Gn2
 BYTE   W06
 BYTE   N05
 BYTE   W06
 BYTE   PEND 
//  #01 //042   ----------------------------------------
Label_012B3DF5:
 BYTE   N11  Fn1  v100
 BYTE   W12
 BYTE   N05  Fn2
 BYTE   W06
 BYTE   N05
 BYTE   W06
 BYTE   Fn1
 BYTE   W06
 BYTE   Fn2
 BYTE   W06
 BYTE   N11  Fn1
 BYTE   W12
 BYTE   N05  Fn2
 BYTE   W06
 BYTE   N11  Fn1
 BYTE   W12
 BYTE   N05  Fn2
 BYTE   W06
 BYTE   N11  Ds1
 BYTE   W12
 BYTE   N05  Ds2
 BYTE   W06
 BYTE   N05
 BYTE   W06
 BYTE   PEND 
//  #01 //043   ----------------------------------------
Label_012B3E17:
 BYTE   N11  Dn1  v100
 BYTE   W12
 BYTE   N05  Dn2
 BYTE   W06
 BYTE   N05
 BYTE   W06
 BYTE   Dn1
 BYTE   W06
 BYTE   Dn2
 BYTE   W06
 BYTE   N11  Dn1
 BYTE   W12
 BYTE   N05  Dn2
 BYTE   W06
 BYTE   N11  Dn1
 BYTE   W12
 BYTE   N05  Dn2
 BYTE   W06
 BYTE   N11  Dn1
 BYTE   W12
 BYTE   N05  Dn2
 BYTE   W06
 BYTE   N05
 BYTE   W06
 BYTE   PEND 
//  #01 //044   ----------------------------------------
 BYTE   PATT
  POIN2 Label_012B3D9D
//  #01 //045   ----------------------------------------
Label_012B3E3E:
 BYTE   N11  Cn1  v100
 BYTE   W12
 BYTE   N05  Cn2
 BYTE   W06
 BYTE   N05
 BYTE   W06
 BYTE   Cn1
 BYTE   W06
 BYTE   Cn2
 BYTE   W06
 BYTE   N11  Cn1
 BYTE   W12
 BYTE   N05  Cn2
 BYTE   W06
 BYTE   N11  Cn1
 BYTE   W12
 BYTE   N05  Cn2
 BYTE   W06
 BYTE   N11  Cn1
 BYTE   W12
 BYTE   N05  Cn2
 BYTE   W06
 BYTE   N05
 BYTE   W06
 BYTE   PEND 
//  #01 //046   ----------------------------------------
 BYTE   PATT
  POIN2 Label_012B3AA6
//  #01 //047   ----------------------------------------
 BYTE   PATT
  POIN2 Label_012B3A84
//  #01 //048   ----------------------------------------
 BYTE   PATT
  POIN2 Label_012B3ACD
//  #01 //049   ----------------------------------------
 BYTE   PATT
  POIN2 Label_012B3AEF
//  #01 //050   ----------------------------------------
 BYTE   PATT
  POIN2 Label_012B3B11
//  #01 //051   ----------------------------------------
 BYTE   PATT
  POIN2 Label_012B3A84
//  #01 //052   ----------------------------------------
 BYTE   PATT
  POIN2 Label_012B3B38
//  #01 //053   ----------------------------------------
 BYTE   PATT
  POIN2 Label_012B3B5A
//  #01 //054   ----------------------------------------
 BYTE   PATT
  POIN2 Label_012B3B7C
//  #01 //055   ----------------------------------------
 BYTE   PATT
  POIN2 Label_012B3B5A
//  #01 //056   ----------------------------------------
 BYTE   PATT
  POIN2 Label_012B3BA3
//  #01 //057   ----------------------------------------
 BYTE   PATT
  POIN2 Label_012B3BC5
//  #01 //058   ----------------------------------------
 BYTE   PATT
  POIN2 Label_012B3BE7
//  #01 //059   ----------------------------------------
 BYTE   PATT
  POIN2 Label_012B3C09
//  #01 //060   ----------------------------------------
 BYTE   PATT
  POIN2 Label_012B3C2B
//  #01 //061   ----------------------------------------
 BYTE   PATT
  POIN2 Label_012B3B5A
//  #01 //062   ----------------------------------------
 BYTE   PATT
  POIN2 Label_012B3B7C
//  #01 //063   ----------------------------------------
 BYTE   PATT
  POIN2 Label_012B3B5A
//  #01 //064   ----------------------------------------
 BYTE   PATT
  POIN2 Label_012B3BA3
//  #01 //065   ----------------------------------------
 BYTE   PATT
  POIN2 Label_012B3BC5
//  #01 //066   ----------------------------------------
 BYTE   PATT
  POIN2 Label_012B3C66
//  #01 //067   ----------------------------------------
 BYTE   PATT
  POIN2 Label_012B3C09
//  #01 //068   ----------------------------------------
 BYTE   PATT
  POIN2 Label_012B3C8D
//  #01 //069   ----------------------------------------
 BYTE   PATT
  POIN2 Label_012B3CAF
//  #01 //070   ----------------------------------------
 BYTE   PATT
  POIN2 Label_012B3CD1
//  #01 //071   ----------------------------------------
 BYTE   PATT
  POIN2 Label_012B3CF3
//  #01 //072   ----------------------------------------
 BYTE   PATT
  POIN2 Label_012B3D15
//  #01 //073   ----------------------------------------
 BYTE   PATT
  POIN2 Label_012B3D37
//  #01 //074   ----------------------------------------
 BYTE   PATT
  POIN2 Label_012B3D59
//  #01 //075   ----------------------------------------
 BYTE   PATT
  POIN2 Label_012B3D7B
//  #01 //076   ----------------------------------------
 BYTE   PATT
  POIN2 Label_012B3D9D
//  #01 //077   ----------------------------------------
 BYTE   PATT
  POIN2 Label_012B3D37
//  #01 //078   ----------------------------------------
 BYTE   PATT
  POIN2 Label_012B3CD1
//  #01 //079   ----------------------------------------
 BYTE   PATT
  POIN2 Label_012B3CF3
//  #01 //080   ----------------------------------------
 BYTE   PATT
  POIN2 Label_012B3D15
//  #01 //081   ----------------------------------------
 BYTE   PATT
  POIN2 Label_012B3DD3
//  #01 //082   ----------------------------------------
 BYTE   PATT
  POIN2 Label_012B3DF5
//  #01 //083   ----------------------------------------
 BYTE   PATT
  POIN2 Label_012B3E17
//  #01 //084   ----------------------------------------
 BYTE   PATT
  POIN2 Label_012B3D9D
//  #01 //085   ----------------------------------------
Label_012B3F23:
 BYTE   N11  Cn2  v100
 BYTE   W12
 BYTE   N05  Cn3
 BYTE   W06
 BYTE   N05
 BYTE   W06
 BYTE   Cn2
 BYTE   W06
 BYTE   Cn3
 BYTE   W06
 BYTE   N11  Cn2
 BYTE   W12
 BYTE   N05  Cn3
 BYTE   W06
 BYTE   N11  Cn2
 BYTE   W12
 BYTE   N05  Cn3
 BYTE   W06
 BYTE   N11  Cn2
 BYTE   W12
 BYTE   N05  Cn3
 BYTE   W06
 BYTE   N05
 BYTE   W06
 BYTE   PEND 
//  #01 //086   ----------------------------------------
Label_012B3F45:
 BYTE   N11  As1  v100
 BYTE   W12
 BYTE   N05  As2
 BYTE   W06
 BYTE   N05
 BYTE   W06
 BYTE   As1
 BYTE   W06
 BYTE   As2
 BYTE   W06
 BYTE   N11  As1
 BYTE   W12
 BYTE   N05  As2
 BYTE   W06
 BYTE   N11  As1
 BYTE   W12
 BYTE   N05  As2
 BYTE   W06
 BYTE   N11  As1
 BYTE   W12
 BYTE   N05  As2
 BYTE   W06
 BYTE   N05
 BYTE   W06
 BYTE   PEND 
//  #01 //087   ----------------------------------------
 BYTE   PATT
  POIN2 Label_012B3CAF
//  #01 //088   ----------------------------------------
Label_012B3F6C:
 BYTE   N11  Gn1  v100
 BYTE   W12
 BYTE   N05  Gn2
 BYTE   W06
 BYTE   N05
 BYTE   W06
 BYTE   Gn1
 BYTE   W06
 BYTE   Gn2
 BYTE   W06
 BYTE   N11  Gn1
 BYTE   W12
 BYTE   N05  Gn2
 BYTE   W06
 BYTE   N11  Gn1
 BYTE   W12
 BYTE   N05  Gn2
 BYTE   W06
 BYTE   N11  Gn1
 BYTE   W12
 BYTE   N05  Gn2
 BYTE   W06
 BYTE   N05
 BYTE   W06
 BYTE   PEND 
//  #01 //089   ----------------------------------------
Label_012B3F8E:
 BYTE   N11  Fn1  v100
 BYTE   W12
 BYTE   N05  Fn2
 BYTE   W06
 BYTE   N05
 BYTE   W06
 BYTE   Fn1
 BYTE   W06
 BYTE   Fn2
 BYTE   W06
 BYTE   N11  Fn1
 BYTE   W12
 BYTE   N05  Fn2
 BYTE   W06
 BYTE   N11  Fn1
 BYTE   W12
 BYTE   N05  Fn2
 BYTE   W06
 BYTE   N11  Fn1
 BYTE   W12
 BYTE   N05  Fn2
 BYTE   W06
 BYTE   N05
 BYTE   W06
 BYTE   PEND 
//  #01 //090   ----------------------------------------
Label_012B3FB0:
 BYTE   N11  Ds1  v100
 BYTE   W12
 BYTE   N05  Ds2
 BYTE   W06
 BYTE   N05
 BYTE   W06
 BYTE   Ds1
 BYTE   W06
 BYTE   Ds2
 BYTE   W06
 BYTE   N11  Ds1
 BYTE   W12
 BYTE   N05  Ds2
 BYTE   W06
 BYTE   N11  Ds1
 BYTE   W12
 BYTE   N05  Ds2
 BYTE   W06
 BYTE   N11  Ds1
 BYTE   W12
 BYTE   N05  Ds2
 BYTE   W06
 BYTE   N05
 BYTE   W06
 BYTE   PEND 
//  #01 //091   ----------------------------------------
Label_012B3FD2:
 BYTE   N11  Dn1  v100
 BYTE   W12
 BYTE   N05  Dn2
 BYTE   W06
 BYTE   N05
 BYTE   W06
 BYTE   Dn1
 BYTE   W06
 BYTE   Dn2
 BYTE   W06
 BYTE   N11  Dn1
 BYTE   W12
 BYTE   N05  Dn2
 BYTE   W06
 BYTE   N11  Dn1
 BYTE   W12
 BYTE   N05  Dn2
 BYTE   W06
 BYTE   N11  Dn1
 BYTE   W12
 BYTE   N05  Dn2
 BYTE   W06
 BYTE   N05
 BYTE   W06
 BYTE   PEND 
//  #01 //092   ----------------------------------------
Label_012B3FF4:
 BYTE   N11  Gn1  v100
 BYTE   W12
 BYTE   N05  Gn2
 BYTE   W06
 BYTE   N05
 BYTE   W06
 BYTE   Gn1
 BYTE   W06
 BYTE   Gn2
 BYTE   W06
 BYTE   N11  Gn1
 BYTE   W12
 BYTE   N05  Gn2
 BYTE   W06
 BYTE   N11  Gn1
 BYTE   W12
 BYTE   N05  Gn2
 BYTE   W06
 BYTE   N11  Gn1
 BYTE   W12
 BYTE   N05  Gn2
 BYTE   W06
 BYTE   N05
 BYTE   W06
 BYTE   PEND 
//  #01 //093   ----------------------------------------
Label_012B4016:
 BYTE   N11  Cn2  v100
 BYTE   W12
 BYTE   N05  Cn3
 BYTE   W06
 BYTE   N05
 BYTE   W06
 BYTE   Cn2
 BYTE   W06
 BYTE   Cn3
 BYTE   W06
 BYTE   N11  Cn2
 BYTE   W12
 BYTE   N05  Cn3
 BYTE   W06
 BYTE   N11  Cn2
 BYTE   W12
 BYTE   N05  Cn3
 BYTE   W06
 BYTE   N11  Cn2
 BYTE   W12
 BYTE   N05  Cn3
 BYTE   W06
 BYTE   N05
 BYTE   W06
 BYTE   PEND 
//  #01 //094   ----------------------------------------
 BYTE   PATT
  POIN2 Label_012B3F45
//  #01 //095   ----------------------------------------
 BYTE   PATT
  POIN2 Label_012B3CAF
//  #01 //096   ----------------------------------------
 BYTE   PATT
  POIN2 Label_012B3F6C
//  #01 //097   ----------------------------------------
 BYTE   PATT
  POIN2 Label_012B3F8E
//  #01 //098   ----------------------------------------
 BYTE   PATT
  POIN2 Label_012B3FB0
//  #01 //099   ----------------------------------------
 BYTE   PATT
  POIN2 Label_012B3FD2
//  #01 //100   ----------------------------------------
 BYTE   PATT
  POIN2 Label_012B3FF4
//  #01 //101   ----------------------------------------
Label_012B405B:
 BYTE   N11  Cn1  v100
 BYTE   W12
 BYTE   N05  Cn2
 BYTE   W06
 BYTE   N05
 BYTE   W06
 BYTE   Cn1
 BYTE   W06
 BYTE   Cn2
 BYTE   W06
 BYTE   N11  Cn1
 BYTE   W12
 BYTE   N05  Cn2
 BYTE   W06
 BYTE   N11  Cn1
 BYTE   W12
 BYTE   N05  Cn2
 BYTE   W06
 BYTE   N11  Cn1
 BYTE   W12
 BYTE   N05  Cn2
 BYTE   W06
 BYTE   N05
 BYTE   W06
 BYTE   PEND 
//  #01 //102   ----------------------------------------
 BYTE   PATT
  POIN2 Label_012B3AA6
//  #01 //103   ----------------------------------------
 BYTE   PATT
  POIN2 Label_012B3AA6
//  #01 //104   ----------------------------------------
 BYTE   PATT
  POIN2 Label_012B3AA6
//  #01 //105   ----------------------------------------
 BYTE   PATT
  POIN2 Label_012B3A84
//  #01 //106   ----------------------------------------
 BYTE   PATT
  POIN2 Label_012B3AA6
//  #01 //107   ----------------------------------------
 BYTE   PATT
  POIN2 Label_012B3A84
//  #01 //108   ----------------------------------------
 BYTE   PATT
  POIN2 Label_012B3ACD
//  #01 //109   ----------------------------------------
 BYTE   PATT
  POIN2 Label_012B3AEF
//  #01 //110   ----------------------------------------
 BYTE   PATT
  POIN2 Label_012B3B11
//  #01 //111   ----------------------------------------
 BYTE   PATT
  POIN2 Label_012B3A84
//  #01 //112   ----------------------------------------
 BYTE   PATT
  POIN2 Label_012B3B38
//  #01 //113   ----------------------------------------
 BYTE   GoTo
  POIN2 Label_012B3B5A
//  #01 //114   ----------------------------------------
 BYTE   PATT
  POIN2 Label_012B3B5A
//  #01 //115   ----------------------------------------
 BYTE   PATT
  POIN2 Label_012B3B7C
//  #01 //116   ----------------------------------------
 BYTE   PATT
  POIN2 Label_012B3B5A
//  #01 //117   ----------------------------------------
 BYTE   PATT
  POIN2 Label_012B3BA3
//  #01 //118   ----------------------------------------
 BYTE   PATT
  POIN2 Label_012B3BC5
//  #01 //119   ----------------------------------------
 BYTE   PATT
  POIN2 Label_012B3BE7
//  #01 //120   ----------------------------------------
 BYTE   PATT
  POIN2 Label_012B3C09
//  #01 //121   ----------------------------------------
 BYTE   PATT
  POIN2 Label_012B3C2B
//  #01 //122   ----------------------------------------
 BYTE   PATT
  POIN2 Label_012B3B5A
//  #01 //123   ----------------------------------------
 BYTE   PATT
  POIN2 Label_012B3B7C
//  #01 //124   ----------------------------------------
 BYTE   PATT
  POIN2 Label_012B3B5A
//  #01 //125   ----------------------------------------
 BYTE   PATT
  POIN2 Label_012B3BA3
//  #01 //126   ----------------------------------------
 BYTE   PATT
  POIN2 Label_012B3BC5
//  #01 //127   ----------------------------------------
 BYTE   PATT
  POIN2 Label_012B3C66
//  #01 //128   ----------------------------------------
 BYTE   PATT
  POIN2 Label_012B3C09
//  #01 //129   ----------------------------------------
 BYTE   PATT
  POIN2 Label_012B3C8D
//  #01 //130   ----------------------------------------
 BYTE   PATT
  POIN2 Label_012B3CAF
//  #01 //131   ----------------------------------------
 BYTE   PATT
  POIN2 Label_012B3CD1
//  #01 //132   ----------------------------------------
 BYTE   PATT
  POIN2 Label_012B3CF3
//  #01 //133   ----------------------------------------
 BYTE   PATT
  POIN2 Label_012B3D15
//  #01 //134   ----------------------------------------
 BYTE   PATT
  POIN2 Label_012B3D37
//  #01 //135   ----------------------------------------
 BYTE   PATT
  POIN2 Label_012B3D59
//  #01 //136   ----------------------------------------
 BYTE   PATT
  POIN2 Label_012B3D7B
//  #01 //137   ----------------------------------------
 BYTE   PATT
  POIN2 Label_012B3D9D
//  #01 //138   ----------------------------------------
 BYTE   PATT
  POIN2 Label_012B3D37
//  #01 //139   ----------------------------------------
 BYTE   PATT
  POIN2 Label_012B3CD1
//  #01 //140   ----------------------------------------
 BYTE   PATT
  POIN2 Label_012B3CF3
//  #01 //141   ----------------------------------------
 BYTE   PATT
  POIN2 Label_012B3D15
//  #01 //142   ----------------------------------------
 BYTE   PATT
  POIN2 Label_012B3DD3
//  #01 //143   ----------------------------------------
 BYTE   PATT
  POIN2 Label_012B3DF5
//  #01 //144   ----------------------------------------
 BYTE   PATT
  POIN2 Label_012B3E17
//  #01 //145   ----------------------------------------
 BYTE   PATT
  POIN2 Label_012B3D9D
//  #01 //146   ----------------------------------------
 BYTE   PATT
  POIN2 Label_012B3E3E
//  #01 //147   ----------------------------------------
 BYTE   PATT
  POIN2 Label_012B3AA6
//  #01 //148   ----------------------------------------
 BYTE   PATT
  POIN2 Label_012B3A84
//  #01 //149   ----------------------------------------
 BYTE   PATT
  POIN2 Label_012B3ACD
//  #01 //150   ----------------------------------------
 BYTE   PATT
  POIN2 Label_012B3AEF
//  #01 //151   ----------------------------------------
 BYTE   PATT
  POIN2 Label_012B3B11
//  #01 //152   ----------------------------------------
 BYTE   PATT
  POIN2 Label_012B3A84
//  #01 //153   ----------------------------------------
 BYTE   PATT
  POIN2 Label_012B3B38
//  #01 //154   ----------------------------------------
 BYTE   PATT
  POIN2 Label_012B3B5A
//  #01 //155   ----------------------------------------
 BYTE   PATT
  POIN2 Label_012B3B7C
//  #01 //156   ----------------------------------------
 BYTE   PATT
  POIN2 Label_012B3B5A
//  #01 //157   ----------------------------------------
 BYTE   PATT
  POIN2 Label_012B3BA3
//  #01 //158   ----------------------------------------
 BYTE   PATT
  POIN2 Label_012B3BC5
//  #01 //159   ----------------------------------------
 BYTE   PATT
  POIN2 Label_012B3BE7
//  #01 //160   ----------------------------------------
 BYTE   PATT
  POIN2 Label_012B3C09
//  #01 //161   ----------------------------------------
 BYTE   PATT
  POIN2 Label_012B3C2B
//  #01 //162   ----------------------------------------
 BYTE   PATT
  POIN2 Label_012B3B5A
//  #01 //163   ----------------------------------------
 BYTE   PATT
  POIN2 Label_012B3B7C
//  #01 //164   ----------------------------------------
 BYTE   PATT
  POIN2 Label_012B3B5A
//  #01 //165   ----------------------------------------
 BYTE   PATT
  POIN2 Label_012B3BA3
//  #01 //166   ----------------------------------------
 BYTE   PATT
  POIN2 Label_012B3BC5
//  #01 //167   ----------------------------------------
 BYTE   PATT
  POIN2 Label_012B3C66
//  #01 //168   ----------------------------------------
 BYTE   PATT
  POIN2 Label_012B3C09
//  #01 //169   ----------------------------------------
 BYTE   PATT
  POIN2 Label_012B3C8D
//  #01 //170   ----------------------------------------
 BYTE   PATT
  POIN2 Label_012B3CAF
//  #01 //171   ----------------------------------------
 BYTE   PATT
  POIN2 Label_012B3CD1
//  #01 //172   ----------------------------------------
 BYTE   PATT
  POIN2 Label_012B3CF3
//  #01 //173   ----------------------------------------
 BYTE   PATT
  POIN2 Label_012B3D15
//  #01 //174   ----------------------------------------
 BYTE   PATT
  POIN2 Label_012B3D37
//  #01 //175   ----------------------------------------
 BYTE   PATT
  POIN2 Label_012B3D59
//  #01 //176   ----------------------------------------
 BYTE   PATT
  POIN2 Label_012B3D7B
//  #01 //177   ----------------------------------------
 BYTE   PATT
  POIN2 Label_012B3D9D
//  #01 //178   ----------------------------------------
 BYTE   PATT
  POIN2 Label_012B3D37
//  #01 //179   ----------------------------------------
 BYTE   PATT
  POIN2 Label_012B3CD1
//  #01 //180   ----------------------------------------
 BYTE   PATT
  POIN2 Label_012B3CF3
//  #01 //181   ----------------------------------------
 BYTE   PATT
  POIN2 Label_012B3D15
//  #01 //182   ----------------------------------------
 BYTE   PATT
  POIN2 Label_012B3DD3
//  #01 //183   ----------------------------------------
 BYTE   PATT
  POIN2 Label_012B3DF5
//  #01 //184   ----------------------------------------
 BYTE   PATT
  POIN2 Label_012B3E17
//  #01 //185   ----------------------------------------
 BYTE   PATT
  POIN2 Label_012B3D9D
//  #01 //186   ----------------------------------------
 BYTE   PATT
  POIN2 Label_012B3F23
//  #01 //187   ----------------------------------------
 BYTE   PATT
  POIN2 Label_012B3F45
//  #01 //188   ----------------------------------------
 BYTE   PATT
  POIN2 Label_012B3CAF
//  #01 //189   ----------------------------------------
 BYTE   PATT
  POIN2 Label_012B3F6C
//  #01 //190   ----------------------------------------
 BYTE   PATT
  POIN2 Label_012B3F8E
//  #01 //191   ----------------------------------------
 BYTE   PATT
  POIN2 Label_012B3FB0
//  #01 //192   ----------------------------------------
 BYTE   PATT
  POIN2 Label_012B3FD2
//  #01 //193   ----------------------------------------
 BYTE   PATT
  POIN2 Label_012B3FF4
//  #01 //194   ----------------------------------------
 BYTE   PATT
  POIN2 Label_012B4016
//  #01 //195   ----------------------------------------
 BYTE   PATT
  POIN2 Label_012B3F45
//  #01 //196   ----------------------------------------
 BYTE   PATT
  POIN2 Label_012B3CAF
//  #01 //197   ----------------------------------------
 BYTE   PATT
  POIN2 Label_012B3F6C
//  #01 //198   ----------------------------------------
 BYTE   PATT
  POIN2 Label_012B3F8E
//  #01 //199   ----------------------------------------
 BYTE   PATT
  POIN2 Label_012B3FB0
//  #01 //200   ----------------------------------------
 BYTE   PATT
  POIN2 Label_012B3FD2
//  #01 //201   ----------------------------------------
 BYTE   PATT
  POIN2 Label_012B3FF4
//  #01 //202   ----------------------------------------
 BYTE   PATT
  POIN2 Label_012B405B
//  #01 //203   ----------------------------------------
 BYTE   PATT
  POIN2 Label_012B3AA6
//  #01 //204   ----------------------------------------
 BYTE   PATT
  POIN2 Label_012B3AA6
//  #01 //205   ----------------------------------------
 BYTE   PATT
  POIN2 Label_012B3AA6
//  #01 //206   ----------------------------------------
 BYTE   PATT
  POIN2 Label_012B3A84
//  #01 //207   ----------------------------------------
 BYTE   PATT
  POIN2 Label_012B3AA6
//  #01 //208   ----------------------------------------
 BYTE   PATT
  POIN2 Label_012B3A84
//  #01 //209   ----------------------------------------
 BYTE   N11  Cn1  v100
 BYTE   W12
 BYTE   N05  Cn2
 BYTE   W06
 BYTE   N05
 BYTE   W06
 BYTE   Cn1
 BYTE   W06
 BYTE   Cn2
 BYTE   W06
 BYTE   N11  Cn1
 BYTE   W12
 BYTE   N05  Cn2
 BYTE   W06
 BYTE   N11  Cn1
 BYTE   W12
 BYTE   N05  Cn2
 BYTE   W06
 BYTE   N11  Cn1
 BYTE   W12
 BYTE   N05  Cn2
 BYTE   W06
 BYTE   N05
 BYTE   W05
 BYTE   FINE

//**************** Track 2 (Midi-Chn.1) ****************//

PointOfNoReturn_Song_002:
//  #02 //000   ----------------------------------------
 BYTE   KEYSH   PointOfNoReturn_Song_key+0
 BYTE   VOICE   29
 BYTE   VOL   87*PointOfNoReturn_Song_mvl/mxv
 BYTE   PAN   c_v+0
 BYTE   VOL   95*PointOfNoReturn_Song_mvl/mxv
 BYTE   PAN   c_v+0
 BYTE   VOL   95*PointOfNoReturn_Song_mvl/mxv
 BYTE   PAN   c_v+0
 BYTE   W24
Label_F9F6B5:
 BYTE   N05  Cn0  v100
 BYTE   W12
 BYTE   N02  Cn1
 BYTE   W06
 BYTE   N02
 BYTE   W06
 BYTE   Cn0
 BYTE   W06
 BYTE   Cn1
 BYTE   W06
 BYTE   N05  Cn0
 BYTE   W12
 BYTE   N02  Cn1
 BYTE   W06
 BYTE   N05  Cn0
 BYTE   W12
 BYTE   N02  Cn1
 BYTE   W06
//  #02 //001   ----------------------------------------
 BYTE   N05  Cn0
 BYTE   W12
 BYTE   N02  Cn1
 BYTE   W06
 BYTE   N02
 BYTE   W06
 BYTE   PEND 
//  #02 //002   ----------------------------------------
 BYTE   PATT
  POIN2 Label_F9F6B5
//  #02 //003   ----------------------------------------
 BYTE   PATT
  POIN2 Label_F9F6B5
//  #02 //004   ----------------------------------------
 BYTE   PATT
  POIN2 Label_F9F6B5
//  #02 //005   ----------------------------------------
 BYTE   PATT
  POIN2 Label_F9F6B5
//  #02 //006   ----------------------------------------
 BYTE   PATT
  POIN2 Label_F9F6B5
//  #02 //007   ----------------------------------------
 BYTE   PATT
  POIN2 Label_F9F6B5
//  #02 //008   ----------------------------------------
 BYTE   PATT
  POIN2 Label_F9F6B5
//  #02 //009   ----------------------------------------
Label_F9F6FA:
 BYTE   N05  Fn0  v100
 BYTE   W12
 BYTE   N02  Fn1
 BYTE   W06
 BYTE   N02
 BYTE   W06
 BYTE   Fn0
 BYTE   W06
 BYTE   Fn1
 BYTE   W06
 BYTE   N05  Fn0
 BYTE   W12
 BYTE   N02  Fn1
 BYTE   W06
 BYTE   N05  Fn0
 BYTE   W12
 BYTE   N02  Fn1
 BYTE   W06
 BYTE   N05  Fn0
 BYTE   W12
 BYTE   N02  Fn1
 BYTE   W06
 BYTE   N02
 BYTE   W06
 BYTE   PEND 
//  #02 //010   ----------------------------------------
Label_F9F71C:
 BYTE   N05  Gn0  v100
 BYTE   W12
 BYTE   N02  Gn1
 BYTE   W06
 BYTE   N02
 BYTE   W06
 BYTE   Gn0
 BYTE   W06
 BYTE   Gn1
 BYTE   W06
 BYTE   N05  Gn0
 BYTE   W12
 BYTE   N02  Gn1
 BYTE   W06
 BYTE   N05  Gn0
 BYTE   W12
 BYTE   N02  Gn1
 BYTE   W06
 BYTE   N05  Gn0
 BYTE   W12
 BYTE   N02  Gn1
 BYTE   W06
 BYTE   N02
 BYTE   W06
 BYTE   PEND 
//  #02 //011   ----------------------------------------
 BYTE   PATT
  POIN2 Label_F9F6B5
//  #02 //012   ----------------------------------------
 BYTE   PATT
  POIN2 Label_F9F6B5
//  #02 //013   ----------------------------------------
Label_F9F748:
//  #02 //014   ----------------------------------------
 BYTE   PATT
  POIN2 Label_F9F6B5
//  #02 //015   ----------------------------------------
 BYTE   PATT
  POIN2 Label_F9F6B5
//  #02 //016   ----------------------------------------
 BYTE   PATT
  POIN2 Label_F9F6B5
//  #02 //017   ----------------------------------------
 BYTE   PATT
  POIN2 Label_F9F6B5
//  #02 //018   ----------------------------------------
 BYTE   PATT
  POIN2 Label_F9F6FA
//  #02 //019   ----------------------------------------
 BYTE   PATT
  POIN2 Label_F9F71C
//  #02 //020   ----------------------------------------
 BYTE   PATT
  POIN2 Label_F9F6B5
//  #02 //021   ----------------------------------------
 BYTE   PATT
  POIN2 Label_F9F6B5
//  #02 //022   ----------------------------------------
 BYTE   PATT
  POIN2 Label_F9F6B5
//  #02 //023   ----------------------------------------
 BYTE   PATT
  POIN2 Label_F9F6B5
//  #02 //024   ----------------------------------------
 BYTE   PATT
  POIN2 Label_F9F6B5
//  #02 //025   ----------------------------------------
 BYTE   PATT
  POIN2 Label_F9F6B5
//  #02 //026   ----------------------------------------
 BYTE   PATT
  POIN2 Label_F9F6FA
//  #02 //027   ----------------------------------------
 BYTE   PATT
  POIN2 Label_F9F71C
//  #02 //028   ----------------------------------------
 BYTE   PATT
  POIN2 Label_F9F6B5
//  #02 //029   ----------------------------------------
Label_F9F793:
 BYTE   N05  AsM1  v100
 BYTE   W12
 BYTE   N02  As0
 BYTE   W06
 BYTE   N02
 BYTE   W06
 BYTE   AsM1
 BYTE   W06
 BYTE   As0
 BYTE   W06
 BYTE   N05  AsM1
 BYTE   W12
 BYTE   N02  As0
 BYTE   W06
 BYTE   N05  AsM1
 BYTE   W12
 BYTE   N02  As0
 BYTE   W06
 BYTE   N05  AsM1
 BYTE   W12
 BYTE   N02  As0
 BYTE   W06
 BYTE   N02
 BYTE   W06
 BYTE   PEND 
//  #02 //030   ----------------------------------------
Label_F9F7B5:
 BYTE   N05  Gs0  v100
 BYTE   W12
 BYTE   N02  Gs1
 BYTE   W06
 BYTE   N02
 BYTE   W06
 BYTE   Gs0
 BYTE   W06
 BYTE   Gs1
 BYTE   W06
 BYTE   N05  Gs0
 BYTE   W12
 BYTE   N02  Gs1
 BYTE   W06
 BYTE   N05  Gs0
 BYTE   W12
 BYTE   N02  Gs1
 BYTE   W06
 BYTE   N05  Gs0
 BYTE   W12
 BYTE   N02  Gs1
 BYTE   W06
 BYTE   N02
 BYTE   W06
 BYTE   PEND 
//  #02 //031   ----------------------------------------
Label_F9F7D7:
 BYTE   N05  Gs0  v100
 BYTE   W12
 BYTE   N02  Gs1
 BYTE   W06
 BYTE   N02
 BYTE   W06
 BYTE   Gs0
 BYTE   W06
 BYTE   Gs1
 BYTE   W06
 BYTE   N05  Gs0
 BYTE   W12
 BYTE   N02  Gs1
 BYTE   W06
 BYTE   N05  Gs0
 BYTE   W12
 BYTE   N02  Gs1
 BYTE   W06
 BYTE   N05  As0
 BYTE   W12
 BYTE   N02  As1
 BYTE   W06
 BYTE   N02
 BYTE   W06
 BYTE   PEND 
//  #02 //032   ----------------------------------------
 BYTE   PATT
  POIN2 Label_F9F6B5
//  #02 //033   ----------------------------------------
Label_F9F7FE:
 BYTE   N05  Cn0  v100
 BYTE   W12
 BYTE   N02  Cn1
 BYTE   W06
 BYTE   N02
 BYTE   W06
 BYTE   Cn0
 BYTE   W06
 BYTE   Cn1
 BYTE   W06
 BYTE   N05  Cn0
 BYTE   W12
 BYTE   N02  Cn1
 BYTE   W06
 BYTE   N05  Cn0
 BYTE   W12
 BYTE   N02  Cn1
 BYTE   W06
 BYTE   N05  AsM1
 BYTE   W12
 BYTE   N02  As0
 BYTE   W06
 BYTE   N02
 BYTE   W06
 BYTE   PEND 
//  #02 //034   ----------------------------------------
 BYTE   PATT
  POIN2 Label_F9F7B5
//  #02 //035   ----------------------------------------
Label_F9F825:
 BYTE   N05  Gs0  v100
 BYTE   W12
 BYTE   N02  Gs1
 BYTE   W06
 BYTE   N02
 BYTE   W06
 BYTE   Gs0
 BYTE   W06
 BYTE   Gs1
 BYTE   W06
 BYTE   N05  Gs0
 BYTE   W12
 BYTE   N02  Gs1
 BYTE   W06
 BYTE   N05  Gs0
 BYTE   W12
 BYTE   N02  Gs1
 BYTE   W06
 BYTE   N05  Gn0
 BYTE   W12
 BYTE   N02  Gn1
 BYTE   W06
 BYTE   N02
 BYTE   W06
 BYTE   PEND 
//  #02 //036   ----------------------------------------
 BYTE   PATT
  POIN2 Label_F9F6FA
//  #02 //037   ----------------------------------------
 BYTE   PATT
  POIN2 Label_F9F71C
//  #02 //038   ----------------------------------------
 BYTE   PATT
  POIN2 Label_F9F7B5
//  #02 //039   ----------------------------------------
 BYTE   PATT
  POIN2 Label_F9F7D7
//  #02 //040   ----------------------------------------
 BYTE   PATT
  POIN2 Label_F9F6B5
//  #02 //041   ----------------------------------------
 BYTE   PATT
  POIN2 Label_F9F7FE
//  #02 //042   ----------------------------------------
 BYTE   PATT
  POIN2 Label_F9F825
//  #02 //043   ----------------------------------------
Label_F9F86A:
 BYTE   N05  Fn0  v100
 BYTE   W12
 BYTE   N02  Fn1
 BYTE   W06
 BYTE   N02
 BYTE   W06
 BYTE   Fn0
 BYTE   W06
 BYTE   Fn1
 BYTE   W06
 BYTE   N05  Fn0
 BYTE   W12
 BYTE   N02  Fn1
 BYTE   W06
 BYTE   N05  Fn0
 BYTE   W12
 BYTE   N02  Fn1
 BYTE   W06
 BYTE   N05  Ds0
 BYTE   W12
 BYTE   N02  Ds1
 BYTE   W06
 BYTE   N02
 BYTE   W06
 BYTE   PEND 
//  #02 //044   ----------------------------------------
Label_F9F88C:
 BYTE   N05  Dn0  v100
 BYTE   W12
 BYTE   N02  Dn1
 BYTE   W06
 BYTE   N02
 BYTE   W06
 BYTE   Dn0
 BYTE   W06
 BYTE   Dn1
 BYTE   W06
 BYTE   N05  Dn0
 BYTE   W12
 BYTE   N02  Dn1
 BYTE   W06
 BYTE   N05  Dn0
 BYTE   W12
 BYTE   N02  Dn1
 BYTE   W06
 BYTE   N05  Dn0
 BYTE   W12
 BYTE   N02  Dn1
 BYTE   W06
 BYTE   N02
 BYTE   W06
 BYTE   PEND 
//  #02 //045   ----------------------------------------
 BYTE   PATT
  POIN2 Label_F9F71C
//  #02 //046   ----------------------------------------
 BYTE   PATT
  POIN2 Label_F9F6B5
//  #02 //047   ----------------------------------------
 BYTE   PATT
  POIN2 Label_F9F6B5
//  #02 //048   ----------------------------------------
 BYTE   PATT
  POIN2 Label_F9F6B5
//  #02 //049   ----------------------------------------
 BYTE   PATT
  POIN2 Label_F9F6B5
//  #02 //050   ----------------------------------------
 BYTE   PATT
  POIN2 Label_F9F6FA
//  #02 //051   ----------------------------------------
 BYTE   PATT
  POIN2 Label_F9F71C
//  #02 //052   ----------------------------------------
 BYTE   PATT
  POIN2 Label_F9F6B5
//  #02 //053   ----------------------------------------
 BYTE   PATT
  POIN2 Label_F9F6B5
//  #02 //054   ----------------------------------------
 BYTE   PATT
  POIN2 Label_F9F6B5
//  #02 //055   ----------------------------------------
 BYTE   PATT
  POIN2 Label_F9F6B5
//  #02 //056   ----------------------------------------
 BYTE   PATT
  POIN2 Label_F9F6B5
//  #02 //057   ----------------------------------------
 BYTE   PATT
  POIN2 Label_F9F6B5
//  #02 //058   ----------------------------------------
 BYTE   PATT
  POIN2 Label_F9F6FA
//  #02 //059   ----------------------------------------
 BYTE   PATT
  POIN2 Label_F9F71C
//  #02 //060   ----------------------------------------
 BYTE   PATT
  POIN2 Label_F9F6B5
//  #02 //061   ----------------------------------------
 BYTE   PATT
  POIN2 Label_F9F6B5
//  #02 //062   ----------------------------------------
 BYTE   PATT
  POIN2 Label_F9F6B5
//  #02 //063   ----------------------------------------
 BYTE   PATT
  POIN2 Label_F9F6B5
//  #02 //064   ----------------------------------------
 BYTE   PATT
  POIN2 Label_F9F6B5
//  #02 //065   ----------------------------------------
 BYTE   PATT
  POIN2 Label_F9F6B5
//  #02 //066   ----------------------------------------
 BYTE   PATT
  POIN2 Label_F9F6FA
//  #02 //067   ----------------------------------------
 BYTE   PATT
  POIN2 Label_F9F71C
//  #02 //068   ----------------------------------------
 BYTE   PATT
  POIN2 Label_F9F6B5
//  #02 //069   ----------------------------------------
 BYTE   PATT
  POIN2 Label_F9F793
//  #02 //070   ----------------------------------------
 BYTE   PATT
  POIN2 Label_F9F7B5
//  #02 //071   ----------------------------------------
 BYTE   PATT
  POIN2 Label_F9F7D7
//  #02 //072   ----------------------------------------
 BYTE   PATT
  POIN2 Label_F9F6B5
//  #02 //073   ----------------------------------------
 BYTE   PATT
  POIN2 Label_F9F7FE
//  #02 //074   ----------------------------------------
 BYTE   PATT
  POIN2 Label_F9F7B5
//  #02 //075   ----------------------------------------
 BYTE   PATT
  POIN2 Label_F9F825
//  #02 //076   ----------------------------------------
 BYTE   PATT
  POIN2 Label_F9F6FA
//  #02 //077   ----------------------------------------
 BYTE   PATT
  POIN2 Label_F9F71C
//  #02 //078   ----------------------------------------
 BYTE   PATT
  POIN2 Label_F9F7B5
//  #02 //079   ----------------------------------------
 BYTE   PATT
  POIN2 Label_F9F7D7
//  #02 //080   ----------------------------------------
 BYTE   PATT
  POIN2 Label_F9F6B5
//  #02 //081   ----------------------------------------
 BYTE   PATT
  POIN2 Label_F9F7FE
//  #02 //082   ----------------------------------------
 BYTE   PATT
  POIN2 Label_F9F825
//  #02 //083   ----------------------------------------
 BYTE   PATT
  POIN2 Label_F9F86A
//  #02 //084   ----------------------------------------
 BYTE   PATT
  POIN2 Label_F9F88C
//  #02 //085   ----------------------------------------
 BYTE   PATT
  POIN2 Label_F9F71C
//  #02 //086   ----------------------------------------
Label_F9F97B:
 BYTE   N05  Cn1  v100
 BYTE   W12
 BYTE   N02  Cn2
 BYTE   W06
 BYTE   N02
 BYTE   W06
 BYTE   Cn1
 BYTE   W06
 BYTE   Cn2
 BYTE   W06
 BYTE   N05  Cn1
 BYTE   W12
 BYTE   N02  Cn2
 BYTE   W06
 BYTE   N05  Cn1
 BYTE   W12
 BYTE   N02  Cn2
 BYTE   W06
 BYTE   N05  Cn1
 BYTE   W12
 BYTE   N02  Cn2
 BYTE   W06
 BYTE   N02
 BYTE   W06
 BYTE   PEND 
//  #02 //087   ----------------------------------------
Label_F9F99D:
 BYTE   N05  As0  v100
 BYTE   W12
 BYTE   N02  As1
 BYTE   W06
 BYTE   N02
 BYTE   W06
 BYTE   As0
 BYTE   W06
 BYTE   As1
 BYTE   W06
 BYTE   N05  As0
 BYTE   W12
 BYTE   N02  As1
 BYTE   W06
 BYTE   N05  As0
 BYTE   W12
 BYTE   N02  As1
 BYTE   W06
 BYTE   N05  As0
 BYTE   W12
 BYTE   N02  As1
 BYTE   W06
 BYTE   N02
 BYTE   W06
 BYTE   PEND 
//  #02 //088   ----------------------------------------
 BYTE   PATT
  POIN2 Label_F9F7B5
//  #02 //089   ----------------------------------------
 BYTE   PATT
  POIN2 Label_F9F71C
//  #02 //090   ----------------------------------------
 BYTE   PATT
  POIN2 Label_F9F6FA
//  #02 //091   ----------------------------------------
Label_F9F9CE:
 BYTE   N05  Ds0  v100
 BYTE   W12
 BYTE   N02  Ds1
 BYTE   W06
 BYTE   N02
 BYTE   W06
 BYTE   Ds0
 BYTE   W06
 BYTE   Ds1
 BYTE   W06
 BYTE   N05  Ds0
 BYTE   W12
 BYTE   N02  Ds1
 BYTE   W06
 BYTE   N05  Ds0
 BYTE   W12
 BYTE   N02  Ds1
 BYTE   W06
 BYTE   N05  Ds0
 BYTE   W12
 BYTE   N02  Ds1
 BYTE   W06
 BYTE   N02
 BYTE   W06
 BYTE   PEND 
//  #02 //092   ----------------------------------------
 BYTE   PATT
  POIN2 Label_F9F88C
//  #02 //093   ----------------------------------------
 BYTE   PATT
  POIN2 Label_F9F71C
//  #02 //094   ----------------------------------------
 BYTE   PATT
  POIN2 Label_F9F97B
//  #02 //095   ----------------------------------------
 BYTE   PATT
  POIN2 Label_F9F99D
//  #02 //096   ----------------------------------------
 BYTE   PATT
  POIN2 Label_F9F7B5
//  #02 //097   ----------------------------------------
 BYTE   PATT
  POIN2 Label_F9F71C
//  #02 //098   ----------------------------------------
 BYTE   PATT
  POIN2 Label_F9F6FA
//  #02 //099   ----------------------------------------
 BYTE   PATT
  POIN2 Label_F9F9CE
//  #02 //100   ----------------------------------------
 BYTE   PATT
  POIN2 Label_F9F88C
//  #02 //101   ----------------------------------------
 BYTE   PATT
  POIN2 Label_F9F71C
//  #02 //102   ----------------------------------------
 BYTE   PATT
  POIN2 Label_F9F6B5
//  #02 //103   ----------------------------------------
 BYTE   PATT
  POIN2 Label_F9F6B5
//  #02 //104   ----------------------------------------
 BYTE   PATT
  POIN2 Label_F9F6B5
//  #02 //105   ----------------------------------------
 BYTE   PATT
  POIN2 Label_F9F6B5
//  #02 //106   ----------------------------------------
 BYTE   PATT
  POIN2 Label_F9F6B5
//  #02 //107   ----------------------------------------
 BYTE   PATT
  POIN2 Label_F9F6B5
//  #02 //108   ----------------------------------------
 BYTE   PATT
  POIN2 Label_F9F6B5
//  #02 //109   ----------------------------------------
 BYTE   PATT
  POIN2 Label_F9F6B5
//  #02 //110   ----------------------------------------
 BYTE   PATT
  POIN2 Label_F9F6FA
//  #02 //111   ----------------------------------------
 BYTE   PATT
  POIN2 Label_F9F71C
//  #02 //112   ----------------------------------------
 BYTE   PATT
  POIN2 Label_F9F6B5
//  #02 //113   ----------------------------------------
 BYTE   PATT
  POIN2 Label_F9F6B5
//  #02 //114   ----------------------------------------
 BYTE   GoTo
  POIN2 Label_F9F748
//  #02 //115   ----------------------------------------
 BYTE   PATT
  POIN2 Label_F9F6B5
//  #02 //116   ----------------------------------------
 BYTE   PATT
  POIN2 Label_F9F6B5
//  #02 //117   ----------------------------------------
 BYTE   PATT
  POIN2 Label_F9F6B5
//  #02 //118   ----------------------------------------
 BYTE   PATT
  POIN2 Label_F9F6B5
//  #02 //119   ----------------------------------------
 BYTE   PATT
  POIN2 Label_F9F6FA
//  #02 //120   ----------------------------------------
 BYTE   PATT
  POIN2 Label_F9F71C
//  #02 //121   ----------------------------------------
 BYTE   PATT
  POIN2 Label_F9F6B5
//  #02 //122   ----------------------------------------
 BYTE   PATT
  POIN2 Label_F9F6B5
//  #02 //123   ----------------------------------------
 BYTE   PATT
  POIN2 Label_F9F6B5
//  #02 //124   ----------------------------------------
 BYTE   PATT
  POIN2 Label_F9F6B5
//  #02 //125   ----------------------------------------
 BYTE   PATT
  POIN2 Label_F9F6B5
//  #02 //126   ----------------------------------------
 BYTE   PATT
  POIN2 Label_F9F6B5
//  #02 //127   ----------------------------------------
 BYTE   PATT
  POIN2 Label_F9F6FA
//  #02 //128   ----------------------------------------
 BYTE   PATT
  POIN2 Label_F9F71C
//  #02 //129   ----------------------------------------
 BYTE   PATT
  POIN2 Label_F9F6B5
//  #02 //130   ----------------------------------------
 BYTE   PATT
  POIN2 Label_F9F793
//  #02 //131   ----------------------------------------
 BYTE   PATT
  POIN2 Label_F9F7B5
//  #02 //132   ----------------------------------------
 BYTE   PATT
  POIN2 Label_F9F7D7
//  #02 //133   ----------------------------------------
 BYTE   PATT
  POIN2 Label_F9F6B5
//  #02 //134   ----------------------------------------
 BYTE   PATT
  POIN2 Label_F9F7FE
//  #02 //135   ----------------------------------------
 BYTE   PATT
  POIN2 Label_F9F7B5
//  #02 //136   ----------------------------------------
 BYTE   PATT
  POIN2 Label_F9F825
//  #02 //137   ----------------------------------------
 BYTE   PATT
  POIN2 Label_F9F6FA
//  #02 //138   ----------------------------------------
 BYTE   PATT
  POIN2 Label_F9F71C
//  #02 //139   ----------------------------------------
 BYTE   PATT
  POIN2 Label_F9F7B5
//  #02 //140   ----------------------------------------
 BYTE   PATT
  POIN2 Label_F9F7D7
//  #02 //141   ----------------------------------------
 BYTE   PATT
  POIN2 Label_F9F6B5
//  #02 //142   ----------------------------------------
 BYTE   PATT
  POIN2 Label_F9F7FE
//  #02 //143   ----------------------------------------
 BYTE   PATT
  POIN2 Label_F9F825
//  #02 //144   ----------------------------------------
 BYTE   PATT
  POIN2 Label_F9F86A
//  #02 //145   ----------------------------------------
 BYTE   PATT
  POIN2 Label_F9F88C
//  #02 //146   ----------------------------------------
 BYTE   PATT
  POIN2 Label_F9F71C
//  #02 //147   ----------------------------------------
 BYTE   PATT
  POIN2 Label_F9F6B5
//  #02 //148   ----------------------------------------
 BYTE   PATT
  POIN2 Label_F9F6B5
//  #02 //149   ----------------------------------------
 BYTE   PATT
  POIN2 Label_F9F6B5
//  #02 //150   ----------------------------------------
 BYTE   PATT
  POIN2 Label_F9F6B5
//  #02 //151   ----------------------------------------
 BYTE   PATT
  POIN2 Label_F9F6FA
//  #02 //152   ----------------------------------------
 BYTE   PATT
  POIN2 Label_F9F71C
//  #02 //153   ----------------------------------------
 BYTE   PATT
  POIN2 Label_F9F6B5
//  #02 //154   ----------------------------------------
 BYTE   PATT
  POIN2 Label_F9F6B5
//  #02 //155   ----------------------------------------
 BYTE   PATT
  POIN2 Label_F9F6B5
//  #02 //156   ----------------------------------------
 BYTE   PATT
  POIN2 Label_F9F6B5
//  #02 //157   ----------------------------------------
 BYTE   PATT
  POIN2 Label_F9F6B5
//  #02 //158   ----------------------------------------
 BYTE   PATT
  POIN2 Label_F9F6B5
//  #02 //159   ----------------------------------------
 BYTE   PATT
  POIN2 Label_F9F6FA
//  #02 //160   ----------------------------------------
 BYTE   PATT
  POIN2 Label_F9F71C
//  #02 //161   ----------------------------------------
 BYTE   PATT
  POIN2 Label_F9F6B5
//  #02 //162   ----------------------------------------
 BYTE   PATT
  POIN2 Label_F9F6B5
//  #02 //163   ----------------------------------------
 BYTE   PATT
  POIN2 Label_F9F6B5
//  #02 //164   ----------------------------------------
 BYTE   PATT
  POIN2 Label_F9F6B5
//  #02 //165   ----------------------------------------
 BYTE   PATT
  POIN2 Label_F9F6B5
//  #02 //166   ----------------------------------------
 BYTE   PATT
  POIN2 Label_F9F6B5
//  #02 //167   ----------------------------------------
 BYTE   PATT
  POIN2 Label_F9F6FA
//  #02 //168   ----------------------------------------
 BYTE   PATT
  POIN2 Label_F9F71C
//  #02 //169   ----------------------------------------
 BYTE   PATT
  POIN2 Label_F9F6B5
//  #02 //170   ----------------------------------------
 BYTE   PATT
  POIN2 Label_F9F793
//  #02 //171   ----------------------------------------
 BYTE   PATT
  POIN2 Label_F9F7B5
//  #02 //172   ----------------------------------------
 BYTE   PATT
  POIN2 Label_F9F7D7
//  #02 //173   ----------------------------------------
 BYTE   PATT
  POIN2 Label_F9F6B5
//  #02 //174   ----------------------------------------
 BYTE   PATT
  POIN2 Label_F9F7FE
//  #02 //175   ----------------------------------------
 BYTE   PATT
  POIN2 Label_F9F7B5
//  #02 //176   ----------------------------------------
 BYTE   PATT
  POIN2 Label_F9F825
//  #02 //177   ----------------------------------------
 BYTE   PATT
  POIN2 Label_F9F6FA
//  #02 //178   ----------------------------------------
 BYTE   PATT
  POIN2 Label_F9F71C
//  #02 //179   ----------------------------------------
 BYTE   PATT
  POIN2 Label_F9F7B5
//  #02 //180   ----------------------------------------
 BYTE   PATT
  POIN2 Label_F9F7D7
//  #02 //181   ----------------------------------------
 BYTE   PATT
  POIN2 Label_F9F6B5
//  #02 //182   ----------------------------------------
 BYTE   PATT
  POIN2 Label_F9F7FE
//  #02 //183   ----------------------------------------
 BYTE   PATT
  POIN2 Label_F9F825
//  #02 //184   ----------------------------------------
 BYTE   PATT
  POIN2 Label_F9F86A
//  #02 //185   ----------------------------------------
 BYTE   PATT
  POIN2 Label_F9F88C
//  #02 //186   ----------------------------------------
 BYTE   PATT
  POIN2 Label_F9F71C
//  #02 //187   ----------------------------------------
 BYTE   PATT
  POIN2 Label_F9F97B
//  #02 //188   ----------------------------------------
 BYTE   PATT
  POIN2 Label_F9F99D
//  #02 //189   ----------------------------------------
 BYTE   PATT
  POIN2 Label_F9F7B5
//  #02 //190   ----------------------------------------
 BYTE   PATT
  POIN2 Label_F9F71C
//  #02 //191   ----------------------------------------
 BYTE   PATT
  POIN2 Label_F9F6FA
//  #02 //192   ----------------------------------------
 BYTE   PATT
  POIN2 Label_F9F9CE
//  #02 //193   ----------------------------------------
 BYTE   PATT
  POIN2 Label_F9F88C
//  #02 //194   ----------------------------------------
 BYTE   PATT
  POIN2 Label_F9F71C
//  #02 //195   ----------------------------------------
 BYTE   PATT
  POIN2 Label_F9F97B
//  #02 //196   ----------------------------------------
 BYTE   PATT
  POIN2 Label_F9F99D
//  #02 //197   ----------------------------------------
 BYTE   PATT
  POIN2 Label_F9F7B5
//  #02 //198   ----------------------------------------
 BYTE   PATT
  POIN2 Label_F9F71C
//  #02 //199   ----------------------------------------
 BYTE   PATT
  POIN2 Label_F9F6FA
//  #02 //200   ----------------------------------------
 BYTE   PATT
  POIN2 Label_F9F9CE
//  #02 //201   ----------------------------------------
 BYTE   PATT
  POIN2 Label_F9F88C
//  #02 //202   ----------------------------------------
 BYTE   PATT
  POIN2 Label_F9F71C
//  #02 //203   ----------------------------------------
 BYTE   PATT
  POIN2 Label_F9F6B5
//  #02 //204   ----------------------------------------
 BYTE   PATT
  POIN2 Label_F9F6B5
//  #02 //205   ----------------------------------------
 BYTE   PATT
  POIN2 Label_F9F6B5
//  #02 //206   ----------------------------------------
 BYTE   PATT
  POIN2 Label_F9F6B5
//  #02 //207   ----------------------------------------
 BYTE   PATT
  POIN2 Label_F9F6B5
//  #02 //208   ----------------------------------------
 BYTE   PATT
  POIN2 Label_F9F6B5
//  #02 //209   ----------------------------------------
 BYTE   PATT
  POIN2 Label_F9F6B5
//  #02 //210   ----------------------------------------
 BYTE   N05  Cn0  v100
 BYTE   W12
 BYTE   N02  Cn1
 BYTE   W06
 BYTE   N02
 BYTE   W06
 BYTE   Cn0
 BYTE   W06
 BYTE   Cn1
 BYTE   W06
 BYTE   N05  Cn0
 BYTE   W12
 BYTE   N02  Cn1
 BYTE   W06
 BYTE   N05  Cn0
 BYTE   W12
 BYTE   N02  Cn1
 BYTE   W06
 BYTE   N05  Cn0
 BYTE   W12
 BYTE   N02  Cn1
 BYTE   W06
 BYTE   N02
 BYTE   W05
 BYTE   FINE

//**************** Track 3 (Midi-Chn.2) ****************//

PointOfNoReturn_Song_003:
//  #03 //000   ----------------------------------------
 BYTE   KEYSH   PointOfNoReturn_Song_key+0
 BYTE   VOICE   30
 BYTE   VOL   75*PointOfNoReturn_Song_mvl/mxv
 BYTE   PAN   c_v+0
 BYTE   VOL   75*PointOfNoReturn_Song_mvl/mxv
 BYTE   PAN   c_v+0
 BYTE   VOL   75*PointOfNoReturn_Song_mvl/mxv
 BYTE   PAN   c_v+0
 BYTE   W24
 BYTE   W96
//  #03 //001   ----------------------------------------
 BYTE   W96
//  #03 //002   ----------------------------------------
 BYTE   W96
//  #03 //003   ----------------------------------------
 BYTE   W96
//  #03 //004   ----------------------------------------
 BYTE   W96
//  #03 //005   ----------------------------------------
 BYTE   W96
//  #03 //006   ----------------------------------------
 BYTE   W96
//  #03 //007   ----------------------------------------
 BYTE   W96
//  #03 //008   ----------------------------------------
 BYTE   W96
//  #03 //009   ----------------------------------------
 BYTE   W96
//  #03 //010   ----------------------------------------
 BYTE   W96
//  #03 //011   ----------------------------------------
 BYTE   W96
//  #03 //012   ----------------------------------------
Label_FA0951:
 BYTE   N17  Ds2  v112
 BYTE   W18
 BYTE   N11  Dn2
 BYTE   W06
 BYTE   W12
 BYTE   N80  Gn1
 BYTE   W12
 BYTE   W48
 BYTE   PEND 
//  #03 //013   ----------------------------------------
Label_FA095E:
 BYTE   W36
 BYTE   N05  Gn1  v112
 BYTE   W12
 BYTE   N11  Fn1
 BYTE   W12
 BYTE   Gn1
 BYTE   W12
 BYTE   As1
 BYTE   W12
 BYTE   Cn2
 BYTE   W12
 BYTE   PEND 
//  #03 //014   ----------------------------------------
Label_FA096D:
 BYTE   N17  Dn2  v112
 BYTE   W18
 BYTE   N11  Ds2
 BYTE   W06
 BYTE   W12
 BYTE   N80  Dn2
 BYTE   W12
 BYTE   W48
 BYTE   PEND 
//  #03 //015   ----------------------------------------
Label_FA097A:
 BYTE   W36
 BYTE   N02  As1  v112
 BYTE   W06
 BYTE   N05
 BYTE   W06
 BYTE   N17  Fn2
 BYTE   W18
 BYTE   N11  Ds2
 BYTE   W06
 BYTE   W12
 BYTE   Fn2
 BYTE   W12
 BYTE   PEND 
//  #03 //016   ----------------------------------------
Label_FA098B:
 BYTE   N17  Gn2  v112
 BYTE   W18
 BYTE   N11  Gs2
 BYTE   W06
 BYTE   W12
 BYTE   N68  Cn2
 BYTE   W12
 BYTE   W48
 BYTE   PEND 
//  #03 //017   ----------------------------------------
Label_FA0998:
 BYTE   W24
 BYTE   N11  Gn1  v112
 BYTE   W12
 BYTE   Bn1
 BYTE   W12
 BYTE   N17  Fn2
 BYTE   W18
 BYTE   N11  Ds2
 BYTE   W06
 BYTE   W12
 BYTE   N05  Dn2
 BYTE   W12
 BYTE   PEND 
//  #03 //018   ----------------------------------------
Label_FA09AA:
 BYTE   TIE  Dn2  v112
 BYTE   W96
 BYTE   PEND 
//  #03 //019   ----------------------------------------
Label_FA09AF:
 BYTE   W44
 BYTE   W03
 BYTE   PEND 
 BYTE   EOT
 BYTE   Dn2
 BYTE   W48
 BYTE   W01
//  #03 //020   ----------------------------------------
 BYTE   PATT
  POIN2 Label_FA0951
//  #03 //021   ----------------------------------------
 BYTE   PATT
  POIN2 Label_FA095E
//  #03 //022   ----------------------------------------
 BYTE   PATT
  POIN2 Label_FA096D
//  #03 //023   ----------------------------------------
 BYTE   PATT
  POIN2 Label_FA097A
//  #03 //024   ----------------------------------------
Label_FA09CA:
 BYTE   N17  Gn2  v112
 BYTE   W18
 BYTE   N11  Gs2
 BYTE   W06
 BYTE   W12
 BYTE   N56  Gn2
 BYTE   W12
 BYTE   W48
 BYTE   PEND 
//  #03 //025   ----------------------------------------
Label_FA09D7:
 BYTE   W24
 BYTE   N11  Fn2  v112
 BYTE   W12
 BYTE   Gn2
 BYTE   W12
 BYTE   Fn2
 BYTE   W12
 BYTE   Ds2
 BYTE   W12
 BYTE   As1
 BYTE   W12
 BYTE   Ds2
 BYTE   W12
 BYTE   PEND 
//  #03 //026   ----------------------------------------
Label_FA09E7:
 BYTE   N92  Dn2  v112
 BYTE   W96
 BYTE   PEND 
//  #03 //027   ----------------------------------------
 BYTE   W96
//  #03 //028   ----------------------------------------
 BYTE   W96
//  #03 //029   ----------------------------------------
 BYTE   W96
//  #03 //030   ----------------------------------------
 BYTE   W96
//  #03 //031   ----------------------------------------
 BYTE   W96
//  #03 //032   ----------------------------------------
 BYTE   W96
//  #03 //033   ----------------------------------------
 BYTE   W96
//  #03 //034   ----------------------------------------
 BYTE   W96
//  #03 //035   ----------------------------------------
 BYTE   W96
//  #03 //036   ----------------------------------------
 BYTE   W96
//  #03 //037   ----------------------------------------
 BYTE   W96
//  #03 //038   ----------------------------------------
 BYTE   W96
//  #03 //039   ----------------------------------------
 BYTE   W96
//  #03 //040   ----------------------------------------
 BYTE   W96
//  #03 //041   ----------------------------------------
 BYTE   W96
//  #03 //042   ----------------------------------------
 BYTE   W96
//  #03 //043   ----------------------------------------
 BYTE   W96
//  #03 //044   ----------------------------------------
 BYTE   W96
//  #03 //045   ----------------------------------------
 BYTE   W96
//  #03 //046   ----------------------------------------
 BYTE   W96
//  #03 //047   ----------------------------------------
 BYTE   W96
//  #03 //048   ----------------------------------------
 BYTE   W96
//  #03 //049   ----------------------------------------
 BYTE   W96
//  #03 //050   ----------------------------------------
 BYTE   W96
//  #03 //051   ----------------------------------------
 BYTE   W96
//  #03 //052   ----------------------------------------
 BYTE   PATT
  POIN2 Label_FA0951
//  #03 //053   ----------------------------------------
 BYTE   PATT
  POIN2 Label_FA095E
//  #03 //054   ----------------------------------------
 BYTE   PATT
  POIN2 Label_FA096D
//  #03 //055   ----------------------------------------
 BYTE   PATT
  POIN2 Label_FA097A
//  #03 //056   ----------------------------------------
 BYTE   PATT
  POIN2 Label_FA098B
//  #03 //057   ----------------------------------------
 BYTE   PATT
  POIN2 Label_FA0998
//  #03 //058   ----------------------------------------
 BYTE   PATT
  POIN2 Label_FA09AA
//  #03 //059   ----------------------------------------
 BYTE   PATT
  POIN2 Label_FA09AF
//  #03 //060   ----------------------------------------
 BYTE   EOT
 BYTE   Dn2
 BYTE   W48
 BYTE   W01
//  #03 //061   ----------------------------------------
 BYTE   PATT
  POIN2 Label_FA0951
//  #03 //062   ----------------------------------------
 BYTE   PATT
  POIN2 Label_FA095E
//  #03 //063   ----------------------------------------
 BYTE   PATT
  POIN2 Label_FA096D
//  #03 //064   ----------------------------------------
 BYTE   PATT
  POIN2 Label_FA097A
//  #03 //065   ----------------------------------------
 BYTE   PATT
  POIN2 Label_FA09CA
//  #03 //066   ----------------------------------------
 BYTE   PATT
  POIN2 Label_FA09D7
//  #03 //067   ----------------------------------------
 BYTE   PATT
  POIN2 Label_FA09E7
//  #03 //068   ----------------------------------------
 BYTE   W96
//  #03 //069   ----------------------------------------
 BYTE   W96
//  #03 //070   ----------------------------------------
 BYTE   W96
//  #03 //071   ----------------------------------------
 BYTE   W96
//  #03 //072   ----------------------------------------
 BYTE   W96
//  #03 //073   ----------------------------------------
 BYTE   W96
//  #03 //074   ----------------------------------------
 BYTE   W96
//  #03 //075   ----------------------------------------
 BYTE   W96
//  #03 //076   ----------------------------------------
 BYTE   W96
//  #03 //077   ----------------------------------------
 BYTE   W96
//  #03 //078   ----------------------------------------
 BYTE   W96
//  #03 //079   ----------------------------------------
 BYTE   W96
//  #03 //080   ----------------------------------------
 BYTE   W96
//  #03 //081   ----------------------------------------
 BYTE   W96
//  #03 //082   ----------------------------------------
 BYTE   W96
//  #03 //083   ----------------------------------------
 BYTE   W96
//  #03 //084   ----------------------------------------
 BYTE   W96
//  #03 //085   ----------------------------------------
Label_FA0A65:
 BYTE   N44  Dn2  v112
 BYTE   W48
 BYTE   N17  Gn1
 BYTE   W18
 BYTE   Cn2
 BYTE   W06
 BYTE   W12
 BYTE   N11  Ds2
 BYTE   W12
 BYTE   PEND 
//  #03 //086   ----------------------------------------
Label_FA0A73:
 BYTE   N44  Dn2  v112
 BYTE   W48
 BYTE   N17  Cn2
 BYTE   W18
 BYTE   Ds2
 BYTE   W06
 BYTE   W12
 BYTE   N11  Fn2
 BYTE   W12
 BYTE   PEND 
//  #03 //087   ----------------------------------------
Label_FA0A81:
 BYTE   N08  Gn2  v112
 BYTE   W18
 BYTE   N11
 BYTE   W06
 BYTE   W12
 BYTE   N05
 BYTE   W12
 BYTE   N17
 BYTE   W18
 BYTE   N11  Fn2
 BYTE   W06
 BYTE   W12
 BYTE   N05  Ds2
 BYTE   W12
 BYTE   PEND 
//  #03 //088   ----------------------------------------
Label_FA0A94:
 BYTE   N17  Dn2  v112
 BYTE   W18
 BYTE   N05  Ds2
 BYTE   W18
 BYTE   N23  Fn2
 BYTE   W12
 BYTE   W12
 BYTE   N05  Ds2
 BYTE   W12
 BYTE   N11  Dn2
 BYTE   W12
 BYTE   As1
 BYTE   W12
 BYTE   PEND 
//  #03 //089   ----------------------------------------
Label_FA0AA8:
 BYTE   N44  Cn2  v112
 BYTE   W48
 BYTE   N17
 BYTE   W18
 BYTE   Dn2
 BYTE   W06
 BYTE   W12
 BYTE   N11  Ds2
 BYTE   W12
 BYTE   PEND 
//  #03 //090   ----------------------------------------
Label_FA0AB5:
 BYTE   N44  Fn2  v112
 BYTE   W48
 BYTE   N17  Cn2
 BYTE   W18
 BYTE   Ds2
 BYTE   W06
 BYTE   W12
 BYTE   N11  Fn2
 BYTE   W12
 BYTE   PEND 
//  #03 //091   ----------------------------------------
Label_FA0AC3:
 BYTE   N08  Gn2  v112
 BYTE   W18
 BYTE   N11
 BYTE   W06
 BYTE   W12
 BYTE   N05
 BYTE   W12
 BYTE   N17
 BYTE   W18
 BYTE   N11  Fn2
 BYTE   W06
 BYTE   W12
 BYTE   As2
 BYTE   W12
 BYTE   PEND 
//  #03 //092   ----------------------------------------
Label_FA0AD5:
 BYTE   N68  Gn2  v112
 BYTE   W96
 BYTE   PEND 
//  #03 //093   ----------------------------------------
 BYTE   PATT
  POIN2 Label_FA0A65
//  #03 //094   ----------------------------------------
 BYTE   PATT
  POIN2 Label_FA0A73
//  #03 //095   ----------------------------------------
 BYTE   PATT
  POIN2 Label_FA0A81
//  #03 //096   ----------------------------------------
Label_FA0AE9:
 BYTE   N17  Dn2  v112
 BYTE   W18
 BYTE   N05  Ds2
 BYTE   W18
 BYTE   N23  Fn2
 BYTE   W12
 BYTE   W12
 BYTE   N05  Gn2
 BYTE   W12
 BYTE   N11  Dn2
 BYTE   W12
 BYTE   As1
 BYTE   W12
 BYTE   PEND 
//  #03 //097   ----------------------------------------
Label_FA0AFD:
 BYTE   N44  Cn2  v112
 BYTE   W48
 BYTE   N17
 BYTE   W18
 BYTE   Ds2
 BYTE   W06
 BYTE   W12
 BYTE   N11  Fn2
 BYTE   W12
 BYTE   PEND 
//  #03 //098   ----------------------------------------
Label_FA0B0A:
 BYTE   N44  Gn2  v112
 BYTE   W48
 BYTE   N17
 BYTE   W18
 BYTE   Gs2
 BYTE   W06
 BYTE   W12
 BYTE   N11  As2
 BYTE   W12
 BYTE   PEND 
//  #03 //099   ----------------------------------------
Label_FA0B17:
 BYTE   N17  Cn3  v112
 BYTE   W18
 BYTE   N11  Dn3
 BYTE   W06
 BYTE   W12
 BYTE   Ds3
 BYTE   W12
 BYTE   N23  Dn3
 BYTE   W24
 BYTE   Cn3
 BYTE   W24
 BYTE   PEND 
//  #03 //100   ----------------------------------------
Label_FA0B27:
 BYTE   N11  Bn2  v112
 BYTE   W24
 BYTE   N23  Gn2
 BYTE   W24
 BYTE   Dn3
 BYTE   W24
 BYTE   Ds3
 BYTE   W24
 BYTE   PEND 
//  #03 //101   ----------------------------------------
Label_FA0B33:
 BYTE   TIE  Dn3  v112
 BYTE   W96
 BYTE   PEND 
//  #03 //102   ----------------------------------------
Label_FA0B38:
 BYTE   W92
 BYTE   W03
 BYTE   PEND 
 BYTE   EOT
 BYTE   Dn3
 BYTE   W01
//  #03 //103   ----------------------------------------
 BYTE   W96
//  #03 //104   ----------------------------------------
 BYTE   W96
//  #03 //105   ----------------------------------------
 BYTE   W96
//  #03 //106   ----------------------------------------
 BYTE   W96
//  #03 //107   ----------------------------------------
 BYTE   W96
//  #03 //108   ----------------------------------------
 BYTE   W96
//  #03 //109   ----------------------------------------
 BYTE   W96
//  #03 //110   ----------------------------------------
 BYTE   W96
//  #03 //111   ----------------------------------------
 BYTE   W96
//  #03 //112   ----------------------------------------
 BYTE   W96
//  #03 //113   ----------------------------------------
 BYTE   GoTo
  POIN2 Label_FA0951
//  #03 //114   ----------------------------------------
 BYTE   PATT
  POIN2 Label_FA0951
//  #03 //115   ----------------------------------------
 BYTE   PATT
  POIN2 Label_FA095E
//  #03 //116   ----------------------------------------
 BYTE   PATT
  POIN2 Label_FA096D
//  #03 //117   ----------------------------------------
 BYTE   PATT
  POIN2 Label_FA097A
//  #03 //118   ----------------------------------------
 BYTE   PATT
  POIN2 Label_FA098B
//  #03 //119   ----------------------------------------
 BYTE   PATT
  POIN2 Label_FA0998
//  #03 //120   ----------------------------------------
 BYTE   PATT
  POIN2 Label_FA09AA
//  #03 //121   ----------------------------------------
 BYTE   PATT
  POIN2 Label_FA09AF
//  #03 //122   ----------------------------------------
 BYTE   EOT
 BYTE   Dn2
 BYTE   W48
 BYTE   W01
//  #03 //123   ----------------------------------------
 BYTE   PATT
  POIN2 Label_FA0951
//  #03 //124   ----------------------------------------
 BYTE   PATT
  POIN2 Label_FA095E
//  #03 //125   ----------------------------------------
 BYTE   PATT
  POIN2 Label_FA096D
//  #03 //126   ----------------------------------------
 BYTE   PATT
  POIN2 Label_FA097A
//  #03 //127   ----------------------------------------
 BYTE   PATT
  POIN2 Label_FA09CA
//  #03 //128   ----------------------------------------
 BYTE   PATT
  POIN2 Label_FA09D7
//  #03 //129   ----------------------------------------
 BYTE   PATT
  POIN2 Label_FA09E7
//  #03 //130   ----------------------------------------
 BYTE   W96
//  #03 //131   ----------------------------------------
 BYTE   W96
//  #03 //132   ----------------------------------------
 BYTE   W96
//  #03 //133   ----------------------------------------
 BYTE   W96
//  #03 //134   ----------------------------------------
 BYTE   W96
//  #03 //135   ----------------------------------------
 BYTE   W96
//  #03 //136   ----------------------------------------
 BYTE   W96
//  #03 //137   ----------------------------------------
 BYTE   W96
//  #03 //138   ----------------------------------------
 BYTE   W96
//  #03 //139   ----------------------------------------
 BYTE   W96
//  #03 //140   ----------------------------------------
 BYTE   W96
//  #03 //141   ----------------------------------------
 BYTE   W96
//  #03 //142   ----------------------------------------
 BYTE   W96
//  #03 //143   ----------------------------------------
 BYTE   W96
//  #03 //144   ----------------------------------------
 BYTE   W96
//  #03 //145   ----------------------------------------
 BYTE   W96
//  #03 //146   ----------------------------------------
 BYTE   W96
//  #03 //147   ----------------------------------------
 BYTE   W96
//  #03 //148   ----------------------------------------
 BYTE   W96
//  #03 //149   ----------------------------------------
 BYTE   W96
//  #03 //150   ----------------------------------------
 BYTE   W96
//  #03 //151   ----------------------------------------
 BYTE   W96
//  #03 //152   ----------------------------------------
 BYTE   W96
//  #03 //153   ----------------------------------------
 BYTE   W96
//  #03 //154   ----------------------------------------
 BYTE   W96
//  #03 //155   ----------------------------------------
 BYTE   PATT
  POIN2 Label_FA0951
//  #03 //156   ----------------------------------------
 BYTE   PATT
  POIN2 Label_FA095E
//  #03 //157   ----------------------------------------
 BYTE   PATT
  POIN2 Label_FA096D
//  #03 //158   ----------------------------------------
 BYTE   PATT
  POIN2 Label_FA097A
//  #03 //159   ----------------------------------------
 BYTE   PATT
  POIN2 Label_FA098B
//  #03 //160   ----------------------------------------
 BYTE   PATT
  POIN2 Label_FA0998
//  #03 //161   ----------------------------------------
 BYTE   PATT
  POIN2 Label_FA09AA
//  #03 //162   ----------------------------------------
 BYTE   PATT
  POIN2 Label_FA09AF
//  #03 //163   ----------------------------------------
 BYTE   EOT
 BYTE   Dn2
 BYTE   W48
 BYTE   W01
//  #03 //164   ----------------------------------------
 BYTE   PATT
  POIN2 Label_FA0951
//  #03 //165   ----------------------------------------
 BYTE   PATT
  POIN2 Label_FA095E
//  #03 //166   ----------------------------------------
 BYTE   PATT
  POIN2 Label_FA096D
//  #03 //167   ----------------------------------------
 BYTE   PATT
  POIN2 Label_FA097A
//  #03 //168   ----------------------------------------
 BYTE   PATT
  POIN2 Label_FA09CA
//  #03 //169   ----------------------------------------
 BYTE   PATT
  POIN2 Label_FA09D7
//  #03 //170   ----------------------------------------
 BYTE   PATT
  POIN2 Label_FA09E7
//  #03 //171   ----------------------------------------
 BYTE   W96
//  #03 //172   ----------------------------------------
 BYTE   W96
//  #03 //173   ----------------------------------------
 BYTE   W96
//  #03 //174   ----------------------------------------
 BYTE   W96
//  #03 //175   ----------------------------------------
 BYTE   W96
//  #03 //176   ----------------------------------------
 BYTE   W96
//  #03 //177   ----------------------------------------
 BYTE   W96
//  #03 //178   ----------------------------------------
 BYTE   W96
//  #03 //179   ----------------------------------------
 BYTE   W96
//  #03 //180   ----------------------------------------
 BYTE   W96
//  #03 //181   ----------------------------------------
 BYTE   W96
//  #03 //182   ----------------------------------------
 BYTE   W96
//  #03 //183   ----------------------------------------
 BYTE   W96
//  #03 //184   ----------------------------------------
 BYTE   W96
//  #03 //185   ----------------------------------------
 BYTE   W96
//  #03 //186   ----------------------------------------
 BYTE   W96
//  #03 //187   ----------------------------------------
 BYTE   W96
//  #03 //188   ----------------------------------------
 BYTE   PATT
  POIN2 Label_FA0A65
//  #03 //189   ----------------------------------------
 BYTE   PATT
  POIN2 Label_FA0A73
//  #03 //190   ----------------------------------------
 BYTE   PATT
  POIN2 Label_FA0A81
//  #03 //191   ----------------------------------------
 BYTE   PATT
  POIN2 Label_FA0A94
//  #03 //192   ----------------------------------------
 BYTE   PATT
  POIN2 Label_FA0AA8
//  #03 //193   ----------------------------------------
 BYTE   PATT
  POIN2 Label_FA0AB5
//  #03 //194   ----------------------------------------
 BYTE   PATT
  POIN2 Label_FA0AC3
//  #03 //195   ----------------------------------------
 BYTE   PATT
  POIN2 Label_FA0AD5
//  #03 //196   ----------------------------------------
 BYTE   PATT
  POIN2 Label_FA0A65
//  #03 //197   ----------------------------------------
 BYTE   PATT
  POIN2 Label_FA0A73
//  #03 //198   ----------------------------------------
 BYTE   PATT
  POIN2 Label_FA0A81
//  #03 //199   ----------------------------------------
 BYTE   PATT
  POIN2 Label_FA0AE9
//  #03 //200   ----------------------------------------
 BYTE   PATT
  POIN2 Label_FA0AFD
//  #03 //201   ----------------------------------------
 BYTE   PATT
  POIN2 Label_FA0B0A
//  #03 //202   ----------------------------------------
 BYTE   PATT
  POIN2 Label_FA0B17
//  #03 //203   ----------------------------------------
 BYTE   PATT
  POIN2 Label_FA0B27
//  #03 //204   ----------------------------------------
 BYTE   PATT
  POIN2 Label_FA0B33
//  #03 //205   ----------------------------------------
 BYTE   PATT
  POIN2 Label_FA0B38
//  #03 //206   ----------------------------------------
 BYTE   EOT
 BYTE   Dn3
 BYTE   W01
 BYTE   W96
//  #03 //207   ----------------------------------------
 BYTE   W96
//  #03 //208   ----------------------------------------
 BYTE   W96
//  #03 //209   ----------------------------------------
 BYTE   W96
//  #03 //210   ----------------------------------------
 BYTE   W96
//  #03 //211   ----------------------------------------
 BYTE   W92
 BYTE   W03
 BYTE   FINE

//**************** Track 4 (Midi-Chn.3) ****************//

PointOfNoReturn_Song_004:
//  #04 //000   ----------------------------------------
 BYTE   KEYSH   PointOfNoReturn_Song_key+0
 BYTE   VOICE   80
 BYTE   VOL   25*PointOfNoReturn_Song_mvl/mxv
 BYTE   PAN   c_v+0
 BYTE   VOL   25*PointOfNoReturn_Song_mvl/mxv
 BYTE   PAN   c_v+0
 BYTE   VOL   25*PointOfNoReturn_Song_mvl/mxv
 BYTE   PAN   c_v+0
 BYTE   W24
Label_FA0461:
 BYTE   W12
 BYTE   N05  Cn3  v088
 BYTE   W12
 BYTE   As3
 BYTE   W12
 BYTE   Gn3
 BYTE   W06
 BYTE   Dn4
 BYTE   W12
 BYTE   Fn4
 BYTE   W06
 BYTE   As3
 BYTE   W12
//  #04 //001   ----------------------------------------
 BYTE   Cn4
 BYTE   W12
 BYTE   Fn3
 BYTE   W12
 BYTE   PEND 
//  #04 //002   ----------------------------------------
 BYTE   PATT
  POIN2 Label_FA0461
//  #04 //003   ----------------------------------------
 BYTE   PATT
  POIN2 Label_FA0461
//  #04 //004   ----------------------------------------
 BYTE   PATT
  POIN2 Label_FA0461
//  #04 //005   ----------------------------------------
 BYTE   W96
//  #04 //006   ----------------------------------------
 BYTE   W96
//  #04 //007   ----------------------------------------
 BYTE   W96
//  #04 //008   ----------------------------------------
 BYTE   W96
//  #04 //009   ----------------------------------------
 BYTE   W96
//  #04 //010   ----------------------------------------
 BYTE   W96
//  #04 //011   ----------------------------------------
 BYTE   W96
//  #04 //012   ----------------------------------------
 BYTE   W96
//  #04 //013   ----------------------------------------
Label_FA048C:
 BYTE   N17  Ds5  v088
 BYTE   W18
 BYTE   N11  Dn5
 BYTE   W06
 BYTE   W12
 BYTE   N80  Gn4
 BYTE   W12
 BYTE   W48
 BYTE   PEND 
//  #04 //014   ----------------------------------------
Label_FA0499:
 BYTE   W36
 BYTE   N05  Gn4  v088
 BYTE   W12
 BYTE   N11  Fn4
 BYTE   W12
 BYTE   Gn4
 BYTE   W12
 BYTE   As4
 BYTE   W12
 BYTE   Cn5
 BYTE   W12
 BYTE   PEND 
//  #04 //015   ----------------------------------------
Label_FA04A8:
 BYTE   N17  Dn5  v088
 BYTE   W18
 BYTE   N11  Ds5
 BYTE   W06
 BYTE   W12
 BYTE   N80  Dn5
 BYTE   W12
 BYTE   W48
 BYTE   PEND 
//  #04 //016   ----------------------------------------
Label_FA04B5:
 BYTE   W36
 BYTE   N02  As4  v088
 BYTE   W06
 BYTE   N05
 BYTE   W06
 BYTE   N17  Fn5
 BYTE   W18
 BYTE   N11  Ds5
 BYTE   W06
 BYTE   W12
 BYTE   Fn5
 BYTE   W12
 BYTE   PEND 
//  #04 //017   ----------------------------------------
Label_FA04C6:
 BYTE   N17  Gn5  v088
 BYTE   W18
 BYTE   N11  Gs5
 BYTE   W06
 BYTE   W12
 BYTE   N68  Cn5
 BYTE   W12
 BYTE   W48
 BYTE   PEND 
//  #04 //018   ----------------------------------------
Label_FA04D3:
 BYTE   W24
 BYTE   N11  Gn4  v088
 BYTE   W12
 BYTE   Bn4
 BYTE   W12
 BYTE   N17  Fn5
 BYTE   W18
 BYTE   N11  Ds5
 BYTE   W06
 BYTE   W12
 BYTE   N05  Dn5
 BYTE   W12
 BYTE   PEND 
//  #04 //019   ----------------------------------------
Label_FA04E5:
 BYTE   TIE  Dn5  v088
 BYTE   W96
 BYTE   PEND 
//  #04 //020   ----------------------------------------
Label_FA04EA:
 BYTE   W44
 BYTE   W03
 BYTE   PEND 
 BYTE   EOT
 BYTE   Dn5
 BYTE   W48
 BYTE   W01
//  #04 //021   ----------------------------------------
 BYTE   PATT
  POIN2 Label_FA048C
//  #04 //022   ----------------------------------------
 BYTE   PATT
  POIN2 Label_FA0499
//  #04 //023   ----------------------------------------
 BYTE   PATT
  POIN2 Label_FA04A8
//  #04 //024   ----------------------------------------
 BYTE   PATT
  POIN2 Label_FA04B5
//  #04 //025   ----------------------------------------
Label_FA0505:
 BYTE   N17  Gn5  v088
 BYTE   W18
 BYTE   N11  Gs5
 BYTE   W06
 BYTE   W12
 BYTE   N56  Gn5
 BYTE   W12
 BYTE   W48
 BYTE   PEND 
//  #04 //026   ----------------------------------------
Label_FA0512:
 BYTE   W24
 BYTE   N11  Fn5  v088
 BYTE   W12
 BYTE   Gn5
 BYTE   W12
 BYTE   Fn5
 BYTE   W12
 BYTE   Ds5
 BYTE   W12
 BYTE   As4
 BYTE   W12
 BYTE   Ds5
 BYTE   W12
 BYTE   PEND 
//  #04 //027   ----------------------------------------
Label_FA0522:
 BYTE   N92  Dn5  v088
 BYTE   W96
 BYTE   PEND 
//  #04 //028   ----------------------------------------
 BYTE   W96
//  #04 //029   ----------------------------------------
 BYTE   W96
//  #04 //030   ----------------------------------------
 BYTE   W96
//  #04 //031   ----------------------------------------
 BYTE   W96
//  #04 //032   ----------------------------------------
 BYTE   W96
//  #04 //033   ----------------------------------------
 BYTE   W96
//  #04 //034   ----------------------------------------
 BYTE   W96
//  #04 //035   ----------------------------------------
 BYTE   W96
//  #04 //036   ----------------------------------------
 BYTE   W96
//  #04 //037   ----------------------------------------
 BYTE   W96
//  #04 //038   ----------------------------------------
 BYTE   W96
//  #04 //039   ----------------------------------------
 BYTE   W96
//  #04 //040   ----------------------------------------
 BYTE   W96
//  #04 //041   ----------------------------------------
 BYTE   W96
//  #04 //042   ----------------------------------------
 BYTE   W96
//  #04 //043   ----------------------------------------
 BYTE   W96
//  #04 //044   ----------------------------------------
 BYTE   W96
//  #04 //045   ----------------------------------------
 BYTE   W96
//  #04 //046   ----------------------------------------
 BYTE   W96
//  #04 //047   ----------------------------------------
 BYTE   W96
//  #04 //048   ----------------------------------------
 BYTE   W96
//  #04 //049   ----------------------------------------
 BYTE   W96
//  #04 //050   ----------------------------------------
 BYTE   W96
//  #04 //051   ----------------------------------------
 BYTE   W96
//  #04 //052   ----------------------------------------
 BYTE   W96
//  #04 //053   ----------------------------------------
 BYTE   PATT
  POIN2 Label_FA048C
//  #04 //054   ----------------------------------------
 BYTE   PATT
  POIN2 Label_FA0499
//  #04 //055   ----------------------------------------
 BYTE   PATT
  POIN2 Label_FA04A8
//  #04 //056   ----------------------------------------
 BYTE   PATT
  POIN2 Label_FA04B5
//  #04 //057   ----------------------------------------
 BYTE   PATT
  POIN2 Label_FA04C6
//  #04 //058   ----------------------------------------
 BYTE   PATT
  POIN2 Label_FA04D3
//  #04 //059   ----------------------------------------
 BYTE   PATT
  POIN2 Label_FA04E5
//  #04 //060   ----------------------------------------
 BYTE   PATT
  POIN2 Label_FA04EA
//  #04 //061   ----------------------------------------
 BYTE   EOT
 BYTE   Dn5
 BYTE   W48
 BYTE   W01
//  #04 //062   ----------------------------------------
 BYTE   PATT
  POIN2 Label_FA048C
//  #04 //063   ----------------------------------------
 BYTE   PATT
  POIN2 Label_FA0499
//  #04 //064   ----------------------------------------
 BYTE   PATT
  POIN2 Label_FA04A8
//  #04 //065   ----------------------------------------
 BYTE   PATT
  POIN2 Label_FA04B5
//  #04 //066   ----------------------------------------
 BYTE   PATT
  POIN2 Label_FA0505
//  #04 //067   ----------------------------------------
 BYTE   PATT
  POIN2 Label_FA0512
//  #04 //068   ----------------------------------------
 BYTE   PATT
  POIN2 Label_FA0522
//  #04 //069   ----------------------------------------
 BYTE   W96
//  #04 //070   ----------------------------------------
 BYTE   W96
//  #04 //071   ----------------------------------------
 BYTE   W96
//  #04 //072   ----------------------------------------
 BYTE   W96
//  #04 //073   ----------------------------------------
 BYTE   W96
//  #04 //074   ----------------------------------------
 BYTE   W96
//  #04 //075   ----------------------------------------
 BYTE   W96
//  #04 //076   ----------------------------------------
 BYTE   W96
//  #04 //077   ----------------------------------------
 BYTE   W96
//  #04 //078   ----------------------------------------
 BYTE   W96
//  #04 //079   ----------------------------------------
 BYTE   W96
//  #04 //080   ----------------------------------------
 BYTE   W96
//  #04 //081   ----------------------------------------
 BYTE   W96
//  #04 //082   ----------------------------------------
 BYTE   W96
//  #04 //083   ----------------------------------------
 BYTE   W96
//  #04 //084   ----------------------------------------
 BYTE   W96
//  #04 //085   ----------------------------------------
 BYTE   W96
//  #04 //086   ----------------------------------------
Label_FA05A0:
 BYTE   N44  Dn5  v112
 BYTE   W48
 BYTE   N17  Gn4
 BYTE   W18
 BYTE   Cn5
 BYTE   W06
 BYTE   W12
 BYTE   N11  Ds5
 BYTE   W12
 BYTE   PEND 
//  #04 //087   ----------------------------------------
Label_FA05AE:
 BYTE   N44  Dn5  v112
 BYTE   W48
 BYTE   N17  Cn5
 BYTE   W18
 BYTE   Ds5
 BYTE   W06
 BYTE   W12
 BYTE   N11  Fn5
 BYTE   W12
 BYTE   PEND 
//  #04 //088   ----------------------------------------
Label_FA05BC:
 BYTE   N08  Gn5  v112
 BYTE   W18
 BYTE   N11
 BYTE   W06
 BYTE   W12
 BYTE   N05
 BYTE   W12
 BYTE   N17
 BYTE   W18
 BYTE   N11  Fn5
 BYTE   W06
 BYTE   W12
 BYTE   N05  Ds5
 BYTE   W12
 BYTE   PEND 
//  #04 //089   ----------------------------------------
Label_FA05CF:
 BYTE   N17  Dn5  v112
 BYTE   W18
 BYTE   N05  Ds5
 BYTE   W18
 BYTE   N23  Fn5
 BYTE   W12
 BYTE   W12
 BYTE   N05  Ds5
 BYTE   W12
 BYTE   N11  Dn5
 BYTE   W12
 BYTE   As4
 BYTE   W12
 BYTE   PEND 
//  #04 //090   ----------------------------------------
Label_FA05E3:
 BYTE   N44  Cn5  v112
 BYTE   W48
 BYTE   N17
 BYTE   W18
 BYTE   Dn5
 BYTE   W06
 BYTE   W12
 BYTE   N11  Ds5
 BYTE   W12
 BYTE   PEND 
//  #04 //091   ----------------------------------------
Label_FA05F0:
 BYTE   N44  Fn5  v112
 BYTE   W48
 BYTE   N17  Cn5
 BYTE   W18
 BYTE   Ds5
 BYTE   W06
 BYTE   W12
 BYTE   N11  Fn5
 BYTE   W12
 BYTE   PEND 
//  #04 //092   ----------------------------------------
Label_FA05FE:
 BYTE   N08  Gn5  v112
 BYTE   W18
 BYTE   N11
 BYTE   W06
 BYTE   W12
 BYTE   N05
 BYTE   W12
 BYTE   N17
 BYTE   W18
 BYTE   N11  Fn5
 BYTE   W06
 BYTE   W12
 BYTE   As5
 BYTE   W12
 BYTE   PEND 
//  #04 //093   ----------------------------------------
Label_FA0610:
 BYTE   N68  Gn5  v112
 BYTE   W96
 BYTE   PEND 
//  #04 //094   ----------------------------------------
 BYTE   PATT
  POIN2 Label_FA05A0
//  #04 //095   ----------------------------------------
 BYTE   PATT
  POIN2 Label_FA05AE
//  #04 //096   ----------------------------------------
 BYTE   PATT
  POIN2 Label_FA05BC
//  #04 //097   ----------------------------------------
Label_FA0624:
 BYTE   N17  Dn5  v112
 BYTE   W18
 BYTE   N05  Ds5
 BYTE   W18
 BYTE   N23  Fn5
 BYTE   W12
 BYTE   W12
 BYTE   N05  Gn5
 BYTE   W12
 BYTE   N11  Dn5
 BYTE   W12
 BYTE   As4
 BYTE   W12
 BYTE   PEND 
//  #04 //098   ----------------------------------------
Label_FA0638:
 BYTE   N44  Cn5  v112
 BYTE   W48
 BYTE   N17
 BYTE   W18
 BYTE   Ds5
 BYTE   W06
 BYTE   W12
 BYTE   N11  Fn5
 BYTE   W12
 BYTE   PEND 
//  #04 //099   ----------------------------------------
Label_FA0645:
 BYTE   N44  Gn5  v112
 BYTE   W48
 BYTE   N17
 BYTE   W18
 BYTE   Gs5
 BYTE   W06
 BYTE   W12
 BYTE   N11  As5
 BYTE   W12
 BYTE   PEND 
//  #04 //100   ----------------------------------------
Label_FA0652:
 BYTE   N17  Cn6  v112
 BYTE   W18
 BYTE   N11  Dn6
 BYTE   W06
 BYTE   W12
 BYTE   Ds6
 BYTE   W12
 BYTE   N23  Dn6
 BYTE   W24
 BYTE   Cn6
 BYTE   W24
 BYTE   PEND 
//  #04 //101   ----------------------------------------
Label_FA0662:
 BYTE   N11  Bn5  v112
 BYTE   W24
 BYTE   N23  Gn5
 BYTE   W24
 BYTE   Dn6
 BYTE   W24
 BYTE   Ds6
 BYTE   W24
 BYTE   PEND 
//  #04 //102   ----------------------------------------
Label_FA066E:
 BYTE   TIE  Dn6  v112
 BYTE   W96
 BYTE   PEND 
//  #04 //103   ----------------------------------------
Label_FA0673:
 BYTE   W92
 BYTE   W03
 BYTE   PEND 
 BYTE   EOT
 BYTE   Dn6
 BYTE   W01
//  #04 //104   ----------------------------------------
 BYTE   W96
//  #04 //105   ----------------------------------------
 BYTE   W96
//  #04 //106   ----------------------------------------
 BYTE   W96
//  #04 //107   ----------------------------------------
 BYTE   W96
//  #04 //108   ----------------------------------------
 BYTE   W96
//  #04 //109   ----------------------------------------
 BYTE   W96
//  #04 //110   ----------------------------------------
 BYTE   W96
//  #04 //111   ----------------------------------------
 BYTE   W96
//  #04 //112   ----------------------------------------
 BYTE   W96
//  #04 //113   ----------------------------------------
 BYTE   W96
//  #04 //114   ----------------------------------------
 BYTE   GoTo
  POIN2 Label_FA048C
//  #04 //115   ----------------------------------------
 BYTE   PATT
  POIN2 Label_FA048C
//  #04 //116   ----------------------------------------
 BYTE   PATT
  POIN2 Label_FA0499
//  #04 //117   ----------------------------------------
 BYTE   PATT
  POIN2 Label_FA04A8
//  #04 //118   ----------------------------------------
 BYTE   PATT
  POIN2 Label_FA04B5
//  #04 //119   ----------------------------------------
 BYTE   PATT
  POIN2 Label_FA04C6
//  #04 //120   ----------------------------------------
 BYTE   PATT
  POIN2 Label_FA04D3
//  #04 //121   ----------------------------------------
 BYTE   PATT
  POIN2 Label_FA04E5
//  #04 //122   ----------------------------------------
 BYTE   PATT
  POIN2 Label_FA04EA
//  #04 //123   ----------------------------------------
 BYTE   EOT
 BYTE   Dn5
 BYTE   W48
 BYTE   W01
//  #04 //124   ----------------------------------------
 BYTE   PATT
  POIN2 Label_FA048C
//  #04 //125   ----------------------------------------
 BYTE   PATT
  POIN2 Label_FA0499
//  #04 //126   ----------------------------------------
 BYTE   PATT
  POIN2 Label_FA04A8
//  #04 //127   ----------------------------------------
 BYTE   PATT
  POIN2 Label_FA04B5
//  #04 //128   ----------------------------------------
 BYTE   PATT
  POIN2 Label_FA0505
//  #04 //129   ----------------------------------------
 BYTE   PATT
  POIN2 Label_FA0512
//  #04 //130   ----------------------------------------
 BYTE   PATT
  POIN2 Label_FA0522
//  #04 //131   ----------------------------------------
 BYTE   W96
//  #04 //132   ----------------------------------------
 BYTE   W96
//  #04 //133   ----------------------------------------
 BYTE   W96
//  #04 //134   ----------------------------------------
 BYTE   W96
//  #04 //135   ----------------------------------------
 BYTE   W96
//  #04 //136   ----------------------------------------
 BYTE   W96
//  #04 //137   ----------------------------------------
 BYTE   W96
//  #04 //138   ----------------------------------------
 BYTE   W96
//  #04 //139   ----------------------------------------
 BYTE   W96
//  #04 //140   ----------------------------------------
 BYTE   W96
//  #04 //141   ----------------------------------------
 BYTE   W96
//  #04 //142   ----------------------------------------
 BYTE   W96
//  #04 //143   ----------------------------------------
 BYTE   W96
//  #04 //144   ----------------------------------------
 BYTE   W96
//  #04 //145   ----------------------------------------
 BYTE   W96
//  #04 //146   ----------------------------------------
 BYTE   W96
//  #04 //147   ----------------------------------------
 BYTE   W96
//  #04 //148   ----------------------------------------
 BYTE   W96
//  #04 //149   ----------------------------------------
 BYTE   W96
//  #04 //150   ----------------------------------------
 BYTE   W96
//  #04 //151   ----------------------------------------
 BYTE   W96
//  #04 //152   ----------------------------------------
 BYTE   W96
//  #04 //153   ----------------------------------------
 BYTE   W96
//  #04 //154   ----------------------------------------
 BYTE   W96
//  #04 //155   ----------------------------------------
 BYTE   W96
//  #04 //156   ----------------------------------------
 BYTE   PATT
  POIN2 Label_FA048C
//  #04 //157   ----------------------------------------
 BYTE   PATT
  POIN2 Label_FA0499
//  #04 //158   ----------------------------------------
 BYTE   PATT
  POIN2 Label_FA04A8
//  #04 //159   ----------------------------------------
 BYTE   PATT
  POIN2 Label_FA04B5
//  #04 //160   ----------------------------------------
 BYTE   PATT
  POIN2 Label_FA04C6
//  #04 //161   ----------------------------------------
 BYTE   PATT
  POIN2 Label_FA04D3
//  #04 //162   ----------------------------------------
 BYTE   PATT
  POIN2 Label_FA04E5
//  #04 //163   ----------------------------------------
 BYTE   PATT
  POIN2 Label_FA04EA
//  #04 //164   ----------------------------------------
 BYTE   EOT
 BYTE   Dn5
 BYTE   W48
 BYTE   W01
//  #04 //165   ----------------------------------------
 BYTE   PATT
  POIN2 Label_FA048C
//  #04 //166   ----------------------------------------
 BYTE   PATT
  POIN2 Label_FA0499
//  #04 //167   ----------------------------------------
 BYTE   PATT
  POIN2 Label_FA04A8
//  #04 //168   ----------------------------------------
 BYTE   PATT
  POIN2 Label_FA04B5
//  #04 //169   ----------------------------------------
 BYTE   PATT
  POIN2 Label_FA0505
//  #04 //170   ----------------------------------------
 BYTE   PATT
  POIN2 Label_FA0512
//  #04 //171   ----------------------------------------
 BYTE   PATT
  POIN2 Label_FA0522
//  #04 //172   ----------------------------------------
 BYTE   W96
//  #04 //173   ----------------------------------------
 BYTE   W96
//  #04 //174   ----------------------------------------
 BYTE   W96
//  #04 //175   ----------------------------------------
 BYTE   W96
//  #04 //176   ----------------------------------------
 BYTE   W96
//  #04 //177   ----------------------------------------
 BYTE   W96
//  #04 //178   ----------------------------------------
 BYTE   W96
//  #04 //179   ----------------------------------------
 BYTE   W96
//  #04 //180   ----------------------------------------
 BYTE   W96
//  #04 //181   ----------------------------------------
 BYTE   W96
//  #04 //182   ----------------------------------------
 BYTE   W96
//  #04 //183   ----------------------------------------
 BYTE   W96
//  #04 //184   ----------------------------------------
 BYTE   W96
//  #04 //185   ----------------------------------------
 BYTE   W96
//  #04 //186   ----------------------------------------
 BYTE   W96
//  #04 //187   ----------------------------------------
 BYTE   W96
//  #04 //188   ----------------------------------------
 BYTE   W96
//  #04 //189   ----------------------------------------
 BYTE   PATT
  POIN2 Label_FA05A0
//  #04 //190   ----------------------------------------
 BYTE   PATT
  POIN2 Label_FA05AE
//  #04 //191   ----------------------------------------
 BYTE   PATT
  POIN2 Label_FA05BC
//  #04 //192   ----------------------------------------
 BYTE   PATT
  POIN2 Label_FA05CF
//  #04 //193   ----------------------------------------
 BYTE   PATT
  POIN2 Label_FA05E3
//  #04 //194   ----------------------------------------
 BYTE   PATT
  POIN2 Label_FA05F0
//  #04 //195   ----------------------------------------
 BYTE   PATT
  POIN2 Label_FA05FE
//  #04 //196   ----------------------------------------
 BYTE   PATT
  POIN2 Label_FA0610
//  #04 //197   ----------------------------------------
 BYTE   PATT
  POIN2 Label_FA05A0
//  #04 //198   ----------------------------------------
 BYTE   PATT
  POIN2 Label_FA05AE
//  #04 //199   ----------------------------------------
 BYTE   PATT
  POIN2 Label_FA05BC
//  #04 //200   ----------------------------------------
 BYTE   PATT
  POIN2 Label_FA0624
//  #04 //201   ----------------------------------------
 BYTE   PATT
  POIN2 Label_FA0638
//  #04 //202   ----------------------------------------
 BYTE   PATT
  POIN2 Label_FA0645
//  #04 //203   ----------------------------------------
 BYTE   PATT
  POIN2 Label_FA0652
//  #04 //204   ----------------------------------------
 BYTE   PATT
  POIN2 Label_FA0662
//  #04 //205   ----------------------------------------
 BYTE   PATT
  POIN2 Label_FA066E
//  #04 //206   ----------------------------------------
 BYTE   PATT
  POIN2 Label_FA0673
//  #04 //207   ----------------------------------------
 BYTE   EOT
 BYTE   Dn6
 BYTE   W01
 BYTE   W96
//  #04 //208   ----------------------------------------
 BYTE   W96
//  #04 //209   ----------------------------------------
 BYTE   W96
//  #04 //210   ----------------------------------------
 BYTE   W96
//  #04 //211   ----------------------------------------
 BYTE   W96
//  #04 //212   ----------------------------------------
 BYTE   W92
 BYTE   W03
 BYTE   FINE

//**************** Track 5 (Midi-Chn.4) ****************//

PointOfNoReturn_Song_005:
//  #05 //000   ----------------------------------------
 BYTE   KEYSH   PointOfNoReturn_Song_key+0
 BYTE   VOICE   51
 BYTE   VOL   35*PointOfNoReturn_Song_mvl/mxv
 BYTE   PAN   c_v+0
 BYTE   VOL   35*PointOfNoReturn_Song_mvl/mxv
 BYTE   PAN   c_v+0
 BYTE   VOL   35*PointOfNoReturn_Song_mvl/mxv
 BYTE   PAN   c_v+0
 BYTE   VOL   35*PointOfNoReturn_Song_mvl/mxv
 BYTE   PAN   c_v+0
 BYTE   W24
Label_012B42DD:
 BYTE   W12
 BYTE   N05  Cn3  v080
 BYTE   W12
 BYTE   As3
 BYTE   W06
 BYTE   Cn3  v040
 BYTE   W06
 BYTE   Gn3  v080
 BYTE   W06
 BYTE   As3  v040
 BYTE   N05  Dn4  v080
 BYTE   W12
 BYTE   Gn3  v040
 BYTE   N05  Fn4  v080
 BYTE   W06
 BYTE   As3
 BYTE   N05  Dn4  v040
 BYTE   W12
//  #05 //001   ----------------------------------------
 BYTE   Cn4  v080
 BYTE   N05  Fn4  v040
 BYTE   W06
 BYTE   As3
 BYTE   W06
 BYTE   Fn3  v080
 BYTE   W06
 BYTE   Cn4  v040
 BYTE   W06
 BYTE   PEND 
Label_012B430A:
 BYTE   W06
 BYTE   N08  Fn3  v040
 BYTE   W06
 BYTE   N05  Cn3  v080
 BYTE   W12
 BYTE   As3
 BYTE   W06
 BYTE   Cn3  v040
 BYTE   W06
 BYTE   Gn3  v080
 BYTE   W06
 BYTE   As3  v040
 BYTE   N05  Dn4  v080
 BYTE   W12
 BYTE   Gn3  v040
 BYTE   N05  Fn4  v080
 BYTE   W06
 BYTE   As3
 BYTE   N05  Dn4  v040
 BYTE   W12
//  #05 //002   ----------------------------------------
 BYTE   Cn4  v080
 BYTE   N05  Fn4  v040
 BYTE   W06
 BYTE   As3
 BYTE   W06
 BYTE   Fn3  v080
 BYTE   W06
 BYTE   Cn4  v040
 BYTE   W06
 BYTE   PEND 
//  #05 //003   ----------------------------------------
 BYTE   PATT
  POIN2 Label_012B430A
//  #05 //004   ----------------------------------------
 BYTE   PATT
  POIN2 Label_012B430A
//  #05 //005   ----------------------------------------
 BYTE   W06
 BYTE   N08  Fn3  v040
 BYTE   W90
//  #05 //006   ----------------------------------------
 BYTE   W96
//  #05 //007   ----------------------------------------
 BYTE   W96
//  #05 //008   ----------------------------------------
 BYTE   W96
//  #05 //009   ----------------------------------------
 BYTE   W96
//  #05 //010   ----------------------------------------
 BYTE   W96
//  #05 //011   ----------------------------------------
 BYTE   W96
//  #05 //012   ----------------------------------------
 BYTE   W96
//  #05 //013   ----------------------------------------
Label_012B4351:
 BYTE   W96
//  #05 //014   ----------------------------------------
 BYTE   W96
//  #05 //015   ----------------------------------------
 BYTE   W96
//  #05 //016   ----------------------------------------
 BYTE   W96
//  #05 //017   ----------------------------------------
 BYTE   W96
//  #05 //018   ----------------------------------------
 BYTE   W96
//  #05 //019   ----------------------------------------
 BYTE   W96
//  #05 //020   ----------------------------------------
 BYTE   W96
//  #05 //021   ----------------------------------------
Label_012B4359:
 BYTE   N17  Gn5  v068
 BYTE   W18
 BYTE   N11  Fn5
 BYTE   W06
 BYTE   W12
 BYTE   N80  As4
 BYTE   W12
 BYTE   W48
 BYTE   PEND 
//  #05 //022   ----------------------------------------
Label_012B4366:
 BYTE   W36
 BYTE   N05  As4  v068
 BYTE   W12
 BYTE   N11  An4
 BYTE   W12
 BYTE   As4
 BYTE   W12
 BYTE   Dn5
 BYTE   W12
 BYTE   Ds5
 BYTE   W12
 BYTE   PEND 
//  #05 //023   ----------------------------------------
Label_012B4375:
 BYTE   N17  Fn5  v068
 BYTE   W18
 BYTE   N11  Gn5
 BYTE   W06
 BYTE   W12
 BYTE   N80  Fn5
 BYTE   W12
 BYTE   W48
 BYTE   PEND 
//  #05 //024   ----------------------------------------
Label_012B4382:
 BYTE   W36
 BYTE   N02  Dn5  v068
 BYTE   W06
 BYTE   N05
 BYTE   W06
 BYTE   N17  Gs5
 BYTE   W18
 BYTE   N11  Gn5
 BYTE   W06
 BYTE   W12
 BYTE   Gs5
 BYTE   W12
 BYTE   PEND 
//  #05 //025   ----------------------------------------
Label_012B4393:
 BYTE   N17  As5  v068
 BYTE   W18
 BYTE   N11  Cn6
 BYTE   W06
 BYTE   W12
 BYTE   N56  As5
 BYTE   W12
 BYTE   W48
 BYTE   PEND 
//  #05 //026   ----------------------------------------
Label_012B43A0:
 BYTE   W24
 BYTE   N11  Gs5  v068
 BYTE   W12
 BYTE   As5
 BYTE   W12
 BYTE   Gs5
 BYTE   W12
 BYTE   Gn5
 BYTE   W12
 BYTE   Dn5
 BYTE   W12
 BYTE   Gn5
 BYTE   W12
 BYTE   PEND 
//  #05 //027   ----------------------------------------
Label_012B43B0:
 BYTE   N92  Fn5  v068
 BYTE   W96
 BYTE   PEND 
//  #05 //028   ----------------------------------------
Label_012B43B5:
 BYTE   W72
 BYTE   N23  As4  v100
 BYTE   W24
 BYTE   PEND 
//  #05 //029   ----------------------------------------
Label_012B43BB:
 BYTE   N01  An5  v100
 BYTE   W02
 BYTE   N15  As5
 BYTE   W16
 BYTE   N17  Gs5
 BYTE   W06
 BYTE   W12
 BYTE   N11  Gn5
 BYTE   W12
 BYTE   N56  Gs5
 BYTE   W48
 BYTE   PEND 
//  #05 //030   ----------------------------------------
Label_012B43CD:
 BYTE   W24
 BYTE   N23  Cn5  v100
 BYTE   W24
 BYTE   N01  Fs5
 BYTE   W02
 BYTE   N21  Gn5
 BYTE   W04
 BYTE   W18
 BYTE   N23  Fn5
 BYTE   W24
 BYTE   PEND 
//  #05 //031   ----------------------------------------
Label_012B43DD:
 BYTE   N01  Dn5  v100
 BYTE   W02
 BYTE   N15  Ds5
 BYTE   W04
 BYTE   W12
 BYTE   N17  Dn5
 BYTE   W06
 BYTE   W12
 BYTE   TIE  Gn4
 BYTE   W12
 BYTE   W48
 BYTE   PEND 
//  #05 //032   ----------------------------------------
Label_012B43EE:
 BYTE   W44
 BYTE   W03
 BYTE   PEND 
 BYTE   EOT
 BYTE   Gn4
 BYTE   W13
 BYTE   N05  Cn5  v100
 BYTE   W12
 BYTE   N01  En5
 BYTE   W02
 BYTE   N09  Fn5
 BYTE   W10
 BYTE   N11  Gn5
 BYTE   W12
//  #05 //033   ----------------------------------------
 BYTE   PATT
  POIN2 Label_012B43BB
//  #05 //034   ----------------------------------------
Label_012B4406:
 BYTE   W24
 BYTE   N23  Gn5  v100
 BYTE   W24
 BYTE   N01  Bn5
 BYTE   W02
 BYTE   N21  Cn6
 BYTE   W04
 BYTE   W18
 BYTE   N23  Gn5
 BYTE   W24
 BYTE   PEND 
//  #05 //035   ----------------------------------------
Label_012B4416:
 BYTE   N01  En5  v100
 BYTE   W02
 BYTE   N15  Fn5
 BYTE   W04
 BYTE   W12
 BYTE   N17  Gn5
 BYTE   W06
 BYTE   W12
 BYTE   N05  Fn5
 BYTE   W12
 BYTE   N23  Cn5
 BYTE   W24
 BYTE   N01  Dn5
 BYTE   W02
 BYTE   N21  Ds5
 BYTE   W22
 BYTE   PEND 
//  #05 //036   ----------------------------------------
Label_012B442F:
 BYTE   N68  Dn5  v100
 BYTE   W72
 BYTE   N23  As4
 BYTE   W24
 BYTE   PEND 
//  #05 //037   ----------------------------------------
 BYTE   PATT
  POIN2 Label_012B43BB
//  #05 //038   ----------------------------------------
 BYTE   PATT
  POIN2 Label_012B43CD
//  #05 //039   ----------------------------------------
 BYTE   PATT
  POIN2 Label_012B43DD
//  #05 //040   ----------------------------------------
 BYTE   PATT
  POIN2 Label_012B43EE
//  #05 //041   ----------------------------------------
 BYTE   EOT
 BYTE   Gn4
 BYTE   W13
 BYTE   N05  Cn5  v100
 BYTE   W12
 BYTE   N01  En5
 BYTE   W02
 BYTE   N09  Fn5
 BYTE   W10
 BYTE   N11  Gn5
 BYTE   W12
//  #05 //042   ----------------------------------------
 BYTE   PATT
  POIN2 Label_012B43BB
//  #05 //043   ----------------------------------------
Label_012B4460:
 BYTE   W24
 BYTE   N23  Gn5  v100
 BYTE   W24
 BYTE   N01  Bn5
 BYTE   W02
 BYTE   N21  Cn6
 BYTE   W04
 BYTE   W18
 BYTE   N23  Dn6
 BYTE   W24
 BYTE   PEND 
//  #05 //044   ----------------------------------------
Label_012B4470:
 BYTE   N01  Dn6  v100
 BYTE   W02
 BYTE   N15  Ds6
 BYTE   W04
 BYTE   W12
 BYTE   N17  Fn6
 BYTE   W06
 BYTE   W12
 BYTE   N11  Ds6
 BYTE   W12
 BYTE   N01  Cs6
 BYTE   W02
 BYTE   N21  Dn6
 BYTE   W04
 BYTE   W18
 BYTE   N23  Cn6
 BYTE   W24
 BYTE   PEND 
//  #05 //045   ----------------------------------------
Label_012B448A:
 BYTE   N01  As5  v100
 BYTE   W02
 BYTE   N21  Bn5
 BYTE   W04
 BYTE   W18
 BYTE   N01  Gs5
 BYTE   W02
 BYTE   N21  Gn5
 BYTE   W04
 BYTE   W18
 BYTE   N01  En6
 BYTE   W02
 BYTE   N21  Fn6
 BYTE   W04
 BYTE   W18
 BYTE   N23  Ds6
 BYTE   W24
 BYTE   PEND 
//  #05 //046   ----------------------------------------
Label_012B44A4:
 BYTE   TIE  Dn6  v100
 BYTE   W96
 BYTE   PEND 
//  #05 //047   ----------------------------------------
Label_012B44A9:
 BYTE   W92
 BYTE   W03
 BYTE   PEND 
 BYTE   EOT
 BYTE   Dn6
 BYTE   W01
//  #05 //048   ----------------------------------------
 BYTE   W96
//  #05 //049   ----------------------------------------
 BYTE   W96
//  #05 //050   ----------------------------------------
 BYTE   W96
//  #05 //051   ----------------------------------------
 BYTE   W96
//  #05 //052   ----------------------------------------
 BYTE   W96
//  #05 //053   ----------------------------------------
 BYTE   W96
//  #05 //054   ----------------------------------------
 BYTE   W96
//  #05 //055   ----------------------------------------
 BYTE   W96
//  #05 //056   ----------------------------------------
 BYTE   W96
//  #05 //057   ----------------------------------------
 BYTE   W96
//  #05 //058   ----------------------------------------
 BYTE   W96
//  #05 //059   ----------------------------------------
 BYTE   W96
//  #05 //060   ----------------------------------------
 BYTE   W96
//  #05 //061   ----------------------------------------
 BYTE   W96
//  #05 //062   ----------------------------------------
 BYTE   PATT
  POIN2 Label_012B4359
//  #05 //063   ----------------------------------------
 BYTE   PATT
  POIN2 Label_012B4366
//  #05 //064   ----------------------------------------
 BYTE   PATT
  POIN2 Label_012B4375
//  #05 //065   ----------------------------------------
 BYTE   PATT
  POIN2 Label_012B4382
//  #05 //066   ----------------------------------------
 BYTE   PATT
  POIN2 Label_012B4393
//  #05 //067   ----------------------------------------
 BYTE   PATT
  POIN2 Label_012B43A0
//  #05 //068   ----------------------------------------
 BYTE   PATT
  POIN2 Label_012B43B0
//  #05 //069   ----------------------------------------
 BYTE   PATT
  POIN2 Label_012B43B5
//  #05 //070   ----------------------------------------
 BYTE   PATT
  POIN2 Label_012B43BB
//  #05 //071   ----------------------------------------
 BYTE   PATT
  POIN2 Label_012B43CD
//  #05 //072   ----------------------------------------
 BYTE   PATT
  POIN2 Label_012B43DD
//  #05 //073   ----------------------------------------
 BYTE   PATT
  POIN2 Label_012B43EE
//  #05 //074   ----------------------------------------
 BYTE   EOT
 BYTE   Gn4
 BYTE   W13
 BYTE   N05  Cn5  v100
 BYTE   W12
 BYTE   N01  En5
 BYTE   W02
 BYTE   N09  Fn5
 BYTE   W10
 BYTE   N11  Gn5
 BYTE   W12
//  #05 //075   ----------------------------------------
 BYTE   PATT
  POIN2 Label_012B43BB
//  #05 //076   ----------------------------------------
 BYTE   PATT
  POIN2 Label_012B4406
//  #05 //077   ----------------------------------------
 BYTE   PATT
  POIN2 Label_012B4416
//  #05 //078   ----------------------------------------
 BYTE   PATT
  POIN2 Label_012B442F
//  #05 //079   ----------------------------------------
 BYTE   PATT
  POIN2 Label_012B43BB
//  #05 //080   ----------------------------------------
 BYTE   PATT
  POIN2 Label_012B43CD
//  #05 //081   ----------------------------------------
 BYTE   PATT
  POIN2 Label_012B43DD
//  #05 //082   ----------------------------------------
 BYTE   PATT
  POIN2 Label_012B43EE
//  #05 //083   ----------------------------------------
 BYTE   EOT
 BYTE   Gn4
 BYTE   W13
 BYTE   N05  Cn5  v100
 BYTE   W12
 BYTE   N01  En5
 BYTE   W02
 BYTE   N09  Fn5
 BYTE   W10
 BYTE   N11  Gn5
 BYTE   W12
//  #05 //084   ----------------------------------------
 BYTE   PATT
  POIN2 Label_012B43BB
//  #05 //085   ----------------------------------------
 BYTE   PATT
  POIN2 Label_012B4460
//  #05 //086   ----------------------------------------
 BYTE   PATT
  POIN2 Label_012B4470
//  #05 //087   ----------------------------------------
 BYTE   PATT
  POIN2 Label_012B448A
//  #05 //088   ----------------------------------------
Label_012B4555:
 BYTE   N44  Gn4  v064
 BYTE   W48
 BYTE   N17  Ds4
 BYTE   W18
 BYTE   Gn4
 BYTE   W06
 BYTE   W12
 BYTE   N11  Cn5
 BYTE   W12
 BYTE   PEND 
//  #05 //089   ----------------------------------------
Label_012B4563:
 BYTE   N44  Gn4  v064
 BYTE   W48
 BYTE   N17
 BYTE   W18
 BYTE   Cn5
 BYTE   W06
 BYTE   W12
 BYTE   N11  Dn5
 BYTE   W12
 BYTE   PEND 
//  #05 //090   ----------------------------------------
Label_012B4570:
 BYTE   N08  Ds5  v064
 BYTE   W18
 BYTE   N11
 BYTE   W06
 BYTE   W12
 BYTE   N05
 BYTE   W12
 BYTE   N17
 BYTE   W18
 BYTE   N11  Dn5
 BYTE   W06
 BYTE   W12
 BYTE   N05  Cn5
 BYTE   W12
 BYTE   PEND 
//  #05 //091   ----------------------------------------
Label_012B4583:
 BYTE   N17  As4  v064
 BYTE   W18
 BYTE   N05  Cn5
 BYTE   W18
 BYTE   N23  Dn5
 BYTE   W12
 BYTE   W12
 BYTE   N05  Cn5
 BYTE   W12
 BYTE   N11  As4
 BYTE   W12
 BYTE   Gn4
 BYTE   W12
 BYTE   PEND 
//  #05 //092   ----------------------------------------
Label_012B4597:
 BYTE   N44  Gs4  v064
 BYTE   W48
 BYTE   N17
 BYTE   W18
 BYTE   As4
 BYTE   W06
 BYTE   W12
 BYTE   N11  Cn5
 BYTE   W12
 BYTE   PEND 
//  #05 //093   ----------------------------------------
Label_012B45A4:
 BYTE   N44  Dn5  v064
 BYTE   W48
 BYTE   N17  As4
 BYTE   W18
 BYTE   Cn5
 BYTE   W06
 BYTE   W12
 BYTE   N11  Fn5
 BYTE   W12
 BYTE   PEND 
//  #05 //094   ----------------------------------------
Label_012B45B2:
 BYTE   N08  Ds5  v064
 BYTE   W18
 BYTE   N11
 BYTE   W06
 BYTE   W12
 BYTE   N05
 BYTE   W12
 BYTE   N17
 BYTE   W18
 BYTE   N11  Dn5
 BYTE   W06
 BYTE   W12
 BYTE   Ds5
 BYTE   W12
 BYTE   PEND 
//  #05 //095   ----------------------------------------
Label_012B45C4:
 BYTE   N68  Dn5  v064
 BYTE   W96
 BYTE   PEND 
//  #05 //096   ----------------------------------------
 BYTE   PATT
  POIN2 Label_012B4555
//  #05 //097   ----------------------------------------
 BYTE   PATT
  POIN2 Label_012B4563
//  #05 //098   ----------------------------------------
 BYTE   PATT
  POIN2 Label_012B4570
//  #05 //099   ----------------------------------------
Label_012B45D8:
 BYTE   N17  As4  v064
 BYTE   W18
 BYTE   N05  Cn5
 BYTE   W18
 BYTE   N23  Dn5
 BYTE   W12
 BYTE   W12
 BYTE   N05  Ds5
 BYTE   W12
 BYTE   N11  As4
 BYTE   W12
 BYTE   Gn4
 BYTE   W12
 BYTE   PEND 
//  #05 //100   ----------------------------------------
 BYTE   PATT
  POIN2 Label_012B4597
//  #05 //101   ----------------------------------------
Label_012B45F1:
 BYTE   N44  Dn5  v064
 BYTE   W48
 BYTE   As4
 BYTE   W48
 BYTE   PEND 
//  #05 //102   ----------------------------------------
Label_012B45F8:
 BYTE   N44  Cn5  v064
 BYTE   W48
 BYTE   Gs4
 BYTE   W48
 BYTE   PEND 
//  #05 //103   ----------------------------------------
Label_012B45FF:
 BYTE   N44  Dn5  v064
 BYTE   W48
 BYTE   Bn4
 BYTE   W48
 BYTE   PEND 
//  #05 //104   ----------------------------------------
 BYTE   PATT
  POIN2 Label_012B42DD
//  #05 //105   ----------------------------------------
 BYTE   PATT
  POIN2 Label_012B430A
//  #05 //106   ----------------------------------------
 BYTE   PATT
  POIN2 Label_012B430A
//  #05 //107   ----------------------------------------
 BYTE   PATT
  POIN2 Label_012B430A
//  #05 //108   ----------------------------------------
 BYTE   W06
 BYTE   N08  Fn3  v040
 BYTE   W90
//  #05 //109   ----------------------------------------
 BYTE   W96
//  #05 //110   ----------------------------------------
 BYTE   W96
//  #05 //111   ----------------------------------------
 BYTE   W96
//  #05 //112   ----------------------------------------
 BYTE   W96
//  #05 //113   ----------------------------------------
 BYTE   W96
//  #05 //114   ----------------------------------------
 BYTE   W96
//  #05 //115   ----------------------------------------
 BYTE   W96
//  #05 //116   ----------------------------------------
 BYTE   GoTo
  POIN2 Label_012B4351
//  #05 //117   ----------------------------------------
 BYTE   W96
//  #05 //118   ----------------------------------------
 BYTE   W96
//  #05 //119   ----------------------------------------
 BYTE   W96
//  #05 //120   ----------------------------------------
 BYTE   W96
//  #05 //121   ----------------------------------------
 BYTE   W96
//  #05 //122   ----------------------------------------
 BYTE   W96
//  #05 //123   ----------------------------------------
 BYTE   W96
//  #05 //124   ----------------------------------------
 BYTE   W96
//  #05 //125   ----------------------------------------
 BYTE   PATT
  POIN2 Label_012B4359
//  #05 //126   ----------------------------------------
 BYTE   PATT
  POIN2 Label_012B4366
//  #05 //127   ----------------------------------------
 BYTE   PATT
  POIN2 Label_012B4375
//  #05 //128   ----------------------------------------
 BYTE   PATT
  POIN2 Label_012B4382
//  #05 //129   ----------------------------------------
 BYTE   PATT
  POIN2 Label_012B4393
//  #05 //130   ----------------------------------------
 BYTE   PATT
  POIN2 Label_012B43A0
//  #05 //131   ----------------------------------------
 BYTE   PATT
  POIN2 Label_012B43B0
//  #05 //132   ----------------------------------------
 BYTE   PATT
  POIN2 Label_012B43B5
//  #05 //133   ----------------------------------------
 BYTE   PATT
  POIN2 Label_012B43BB
//  #05 //134   ----------------------------------------
 BYTE   PATT
  POIN2 Label_012B43CD
//  #05 //135   ----------------------------------------
 BYTE   PATT
  POIN2 Label_012B43DD
//  #05 //136   ----------------------------------------
 BYTE   PATT
  POIN2 Label_012B43EE
//  #05 //137   ----------------------------------------
 BYTE   EOT
 BYTE   Gn4
 BYTE   W13
 BYTE   N05  Cn5  v100
 BYTE   W12
 BYTE   N01  En5
 BYTE   W02
 BYTE   N09  Fn5
 BYTE   W10
 BYTE   N11  Gn5
 BYTE   W12
//  #05 //138   ----------------------------------------
 BYTE   PATT
  POIN2 Label_012B43BB
//  #05 //139   ----------------------------------------
 BYTE   PATT
  POIN2 Label_012B4406
//  #05 //140   ----------------------------------------
 BYTE   PATT
  POIN2 Label_012B4416
//  #05 //141   ----------------------------------------
 BYTE   PATT
  POIN2 Label_012B442F
//  #05 //142   ----------------------------------------
 BYTE   PATT
  POIN2 Label_012B43BB
//  #05 //143   ----------------------------------------
 BYTE   PATT
  POIN2 Label_012B43CD
//  #05 //144   ----------------------------------------
 BYTE   PATT
  POIN2 Label_012B43DD
//  #05 //145   ----------------------------------------
 BYTE   PATT
  POIN2 Label_012B43EE
//  #05 //146   ----------------------------------------
 BYTE   EOT
 BYTE   Gn4
 BYTE   W13
 BYTE   N05  Cn5  v100
 BYTE   W12
 BYTE   N01  En5
 BYTE   W02
 BYTE   N09  Fn5
 BYTE   W10
 BYTE   N11  Gn5
 BYTE   W12
//  #05 //147   ----------------------------------------
 BYTE   PATT
  POIN2 Label_012B43BB
//  #05 //148   ----------------------------------------
 BYTE   PATT
  POIN2 Label_012B4460
//  #05 //149   ----------------------------------------
 BYTE   PATT
  POIN2 Label_012B4470
//  #05 //150   ----------------------------------------
 BYTE   PATT
  POIN2 Label_012B448A
//  #05 //151   ----------------------------------------
 BYTE   PATT
  POIN2 Label_012B44A4
//  #05 //152   ----------------------------------------
 BYTE   PATT
  POIN2 Label_012B44A9
//  #05 //153   ----------------------------------------
 BYTE   EOT
 BYTE   Dn6
 BYTE   W01
 BYTE   W96
//  #05 //154   ----------------------------------------
 BYTE   W96
//  #05 //155   ----------------------------------------
 BYTE   W96
//  #05 //156   ----------------------------------------
 BYTE   W96
//  #05 //157   ----------------------------------------
 BYTE   W96
//  #05 //158   ----------------------------------------
 BYTE   W96
//  #05 //159   ----------------------------------------
 BYTE   W96
//  #05 //160   ----------------------------------------
 BYTE   W96
//  #05 //161   ----------------------------------------
 BYTE   W96
//  #05 //162   ----------------------------------------
 BYTE   W96
//  #05 //163   ----------------------------------------
 BYTE   W96
//  #05 //164   ----------------------------------------
 BYTE   W96
//  #05 //165   ----------------------------------------
 BYTE   W96
//  #05 //166   ----------------------------------------
 BYTE   W96
//  #05 //167   ----------------------------------------
 BYTE   PATT
  POIN2 Label_012B4359
//  #05 //168   ----------------------------------------
 BYTE   PATT
  POIN2 Label_012B4366
//  #05 //169   ----------------------------------------
 BYTE   PATT
  POIN2 Label_012B4375
//  #05 //170   ----------------------------------------
 BYTE   PATT
  POIN2 Label_012B4382
//  #05 //171   ----------------------------------------
 BYTE   PATT
  POIN2 Label_012B4393
//  #05 //172   ----------------------------------------
 BYTE   PATT
  POIN2 Label_012B43A0
//  #05 //173   ----------------------------------------
 BYTE   PATT
  POIN2 Label_012B43B0
//  #05 //174   ----------------------------------------
 BYTE   PATT
  POIN2 Label_012B43B5
//  #05 //175   ----------------------------------------
 BYTE   PATT
  POIN2 Label_012B43BB
//  #05 //176   ----------------------------------------
 BYTE   PATT
  POIN2 Label_012B43CD
//  #05 //177   ----------------------------------------
 BYTE   PATT
  POIN2 Label_012B43DD
//  #05 //178   ----------------------------------------
 BYTE   PATT
  POIN2 Label_012B43EE
//  #05 //179   ----------------------------------------
 BYTE   EOT
 BYTE   Gn4
 BYTE   W13
 BYTE   N05  Cn5  v100
 BYTE   W12
 BYTE   N01  En5
 BYTE   W02
 BYTE   N09  Fn5
 BYTE   W10
 BYTE   N11  Gn5
 BYTE   W12
//  #05 //180   ----------------------------------------
 BYTE   PATT
  POIN2 Label_012B43BB
//  #05 //181   ----------------------------------------
 BYTE   PATT
  POIN2 Label_012B4406
//  #05 //182   ----------------------------------------
 BYTE   PATT
  POIN2 Label_012B4416
//  #05 //183   ----------------------------------------
 BYTE   PATT
  POIN2 Label_012B442F
//  #05 //184   ----------------------------------------
 BYTE   PATT
  POIN2 Label_012B43BB
//  #05 //185   ----------------------------------------
 BYTE   PATT
  POIN2 Label_012B43CD
//  #05 //186   ----------------------------------------
 BYTE   PATT
  POIN2 Label_012B43DD
//  #05 //187   ----------------------------------------
 BYTE   PATT
  POIN2 Label_012B43EE
//  #05 //188   ----------------------------------------
 BYTE   EOT
 BYTE   Gn4
 BYTE   W13
 BYTE   N05  Cn5  v100
 BYTE   W12
 BYTE   N01  En5
 BYTE   W02
 BYTE   N09  Fn5
 BYTE   W10
 BYTE   N11  Gn5
 BYTE   W12
//  #05 //189   ----------------------------------------
 BYTE   PATT
  POIN2 Label_012B43BB
//  #05 //190   ----------------------------------------
 BYTE   PATT
  POIN2 Label_012B4460
//  #05 //191   ----------------------------------------
 BYTE   PATT
  POIN2 Label_012B4470
//  #05 //192   ----------------------------------------
 BYTE   PATT
  POIN2 Label_012B448A
//  #05 //193   ----------------------------------------
 BYTE   PATT
  POIN2 Label_012B4555
//  #05 //194   ----------------------------------------
 BYTE   PATT
  POIN2 Label_012B4563
//  #05 //195   ----------------------------------------
 BYTE   PATT
  POIN2 Label_012B4570
//  #05 //196   ----------------------------------------
 BYTE   PATT
  POIN2 Label_012B4583
//  #05 //197   ----------------------------------------
 BYTE   PATT
  POIN2 Label_012B4597
//  #05 //198   ----------------------------------------
 BYTE   PATT
  POIN2 Label_012B45A4
//  #05 //199   ----------------------------------------
 BYTE   PATT
  POIN2 Label_012B45B2
//  #05 //200   ----------------------------------------
 BYTE   PATT
  POIN2 Label_012B45C4
//  #05 //201   ----------------------------------------
 BYTE   PATT
  POIN2 Label_012B4555
//  #05 //202   ----------------------------------------
 BYTE   PATT
  POIN2 Label_012B4563
//  #05 //203   ----------------------------------------
 BYTE   PATT
  POIN2 Label_012B4570
//  #05 //204   ----------------------------------------
 BYTE   PATT
  POIN2 Label_012B45D8
//  #05 //205   ----------------------------------------
 BYTE   PATT
  POIN2 Label_012B4597
//  #05 //206   ----------------------------------------
 BYTE   PATT
  POIN2 Label_012B45F1
//  #05 //207   ----------------------------------------
 BYTE   PATT
  POIN2 Label_012B45F8
//  #05 //208   ----------------------------------------
 BYTE   PATT
  POIN2 Label_012B45FF
//  #05 //209   ----------------------------------------
 BYTE   PATT
  POIN2 Label_012B42DD
//  #05 //210   ----------------------------------------
 BYTE   PATT
  POIN2 Label_012B430A
//  #05 //211   ----------------------------------------
 BYTE   PATT
  POIN2 Label_012B430A
//  #05 //212   ----------------------------------------
 BYTE   PATT
  POIN2 Label_012B430A
//  #05 //213   ----------------------------------------
 BYTE   W06
 BYTE   N08  Fn3  v040
 BYTE   W90
//  #05 //214   ----------------------------------------
 BYTE   W96
//  #05 //215   ----------------------------------------
 BYTE   W96
//  #05 //216   ----------------------------------------
 BYTE   W92
 BYTE   W03
 BYTE   FINE

//**************** Track 6 (Midi-Chn.5) ****************//

PointOfNoReturn_Song_006:
//  #06 //000   ----------------------------------------
 BYTE   KEYSH   PointOfNoReturn_Song_key+0
 BYTE   VOICE   48
 BYTE   VOL   20*PointOfNoReturn_Song_mvl/mxv
 BYTE   PAN   c_v+0
 BYTE   VOL   0*PointOfNoReturn_Song_mvl/mxv
 BYTE   PAN   c_v+0
 BYTE   VOL   20*PointOfNoReturn_Song_mvl/mxv
 BYTE   PAN   c_v+0
 BYTE   W24
 BYTE   W96
//  #06 //001   ----------------------------------------
 BYTE   W96
//  #06 //002   ----------------------------------------
 BYTE   W96
//  #06 //003   ----------------------------------------
 BYTE   W96
//  #06 //004   ----------------------------------------
Label_016B6069:
 BYTE   TIE  Fn2  v100
 BYTE   W06
 BYTE   As2
 BYTE   W02
 BYTE   Dn3
 BYTE   W88
 BYTE   PEND 
//  #06 //005   ----------------------------------------
 BYTE   W92
 BYTE   W03
 BYTE   EOT
 BYTE   Fn2  v058
 BYTE   Dn3
 BYTE   W01
//  #06 //006   ----------------------------------------
Label_016B6079:
 BYTE   W06
 BYTE   TIE  As2  v100
 BYTE   W02
 BYTE   Cn3
 BYTE   W88
 BYTE   PEND 
//  #06 //007   ----------------------------------------
 BYTE   W44
 BYTE   W03
 BYTE   EOT
 BYTE   As2  v060
 BYTE   W01
 BYTE   N44  As2
 BYTE   N44  Cn3
 BYTE   N44  Dn3
 BYTE   W48
//  #06 //008   ----------------------------------------
Label_016B608E:
 BYTE   W04
 BYTE   N90  Gs2  v100
 BYTE   W02
 BYTE   N88  Cn3
 BYTE   W02
 BYTE   N76  Ds3
 BYTE   W28
 BYTE   N56  Ds4
 BYTE   W24
 BYTE   N32  Cn4
 BYTE   W12
 BYTE   N23  Gs3
 BYTE   W12
 BYTE   N11  Ds3
 BYTE   W12
 BYTE   PEND 
//  #06 //009   ----------------------------------------
Label_016B60A6:
 BYTE   N44  Fn2  v100
 BYTE   N44  Gs2
 BYTE   N44  Bn2
 BYTE   N44  Ds3
 BYTE   W48
 BYTE   Fn2
 BYTE   N44  Bn2
 BYTE   N44  Dn3
 BYTE   W48
 BYTE   PEND 
//  #06 //010   ----------------------------------------
 BYTE   PATT
  POIN2 Label_016B6069
//  #06 //011   ----------------------------------------
 BYTE   W12
 BYTE   N44  As3  v100
 BYTE   W11
 BYTE   EOT
 BYTE   As2  v062
 BYTE   W01
 BYTE   N44  Gn3
 BYTE   W12
 BYTE   Ds3
 BYTE   W12
 BYTE   Dn3
 BYTE   W11
 BYTE   EOT
 BYTE   Fn2
 BYTE   W01
 BYTE   N32  As2
 BYTE   W36
//  #06 //012   ----------------------------------------
Label_016B60D2:
//  #06 //013   ----------------------------------------
 BYTE   PATT
  POIN2 Label_016B6069
//  #06 //014   ----------------------------------------
 BYTE   W92
 BYTE   W03
 BYTE   EOT
 BYTE   Fn2  v058
 BYTE   Dn3
 BYTE   W01
//  #06 //015   ----------------------------------------
 BYTE   PATT
  POIN2 Label_016B6079
//  #06 //016   ----------------------------------------
 BYTE   W44
 BYTE   W03
 BYTE   EOT
 BYTE   As2  v060
 BYTE   W01
 BYTE   N44  As2  v100
 BYTE   N44  Cn3
 BYTE   N44  Dn3
 BYTE   W48
//  #06 //017   ----------------------------------------
 BYTE   PATT
  POIN2 Label_016B608E
//  #06 //018   ----------------------------------------
 BYTE   PATT
  POIN2 Label_016B60A6
//  #06 //019   ----------------------------------------
 BYTE   PATT
  POIN2 Label_016B6069
//  #06 //020   ----------------------------------------
 BYTE   W12
 BYTE   N44  As3  v100
 BYTE   W11
 BYTE   EOT
 BYTE   As2  v062
 BYTE   W01
 BYTE   N44  Gn3
 BYTE   W12
 BYTE   Ds3
 BYTE   W12
 BYTE   Dn3
 BYTE   W11
 BYTE   EOT
 BYTE   Fn2
 BYTE   W01
 BYTE   N32  As2
 BYTE   W36
//  #06 //021   ----------------------------------------
 BYTE   PATT
  POIN2 Label_016B6069
//  #06 //022   ----------------------------------------
 BYTE   W92
 BYTE   W03
 BYTE   EOT
 BYTE   Fn2  v058
 BYTE   Dn3
 BYTE   W01
//  #06 //023   ----------------------------------------
 BYTE   PATT
  POIN2 Label_016B6079
//  #06 //024   ----------------------------------------
 BYTE   W44
 BYTE   W03
 BYTE   EOT
 BYTE   As2  v060
 BYTE   W01
 BYTE   N44  As2  v100
 BYTE   N44  Cn3
 BYTE   N44  Dn3
 BYTE   W48
//  #06 //025   ----------------------------------------
 BYTE   PATT
  POIN2 Label_016B608E
//  #06 //026   ----------------------------------------
 BYTE   PATT
  POIN2 Label_016B60A6
//  #06 //027   ----------------------------------------
Label_016B613F:
 BYTE   N92  Fn2  v100
 BYTE   W06
 BYTE   N88  As2
 BYTE   W02
 BYTE   N84  Dn3
 BYTE   W88
 BYTE   PEND 
//  #06 //028   ----------------------------------------
Label_016B614A:
 BYTE   N44  As2  v100
 BYTE   N44  Cn3
 BYTE   N44  Ds3
 BYTE   W48
 BYTE   As2
 BYTE   N44  Dn3
 BYTE   N44  Fn3
 BYTE   W48
 BYTE   PEND 
//  #06 //029   ----------------------------------------
Label_016B6159:
 BYTE   W12
 BYTE   N05  Ds3  v100
 BYTE   N05  Gs3
 BYTE   W18
 BYTE   N08  Ds3
 BYTE   N08  Gn3
 BYTE   W18
 BYTE   Ds3
 BYTE   N08  Gs3
 BYTE   W18
 BYTE   N02  Ds3
 BYTE   N02  Gn3
 BYTE   W18
 BYTE   Ds3
 BYTE   N02  Gs3
 BYTE   W06
 BYTE   Ds3
 BYTE   N02  Gs3
 BYTE   W06
 BYTE   PEND 
//  #06 //030   ----------------------------------------
 BYTE   PATT
  POIN2 Label_016B6159
//  #06 //031   ----------------------------------------
Label_016B617C:
 BYTE   W12
 BYTE   N05  Ds3  v100
 BYTE   N05  Gn3
 BYTE   W18
 BYTE   N08  Ds3
 BYTE   N08  Gn3
 BYTE   W18
 BYTE   Ds3
 BYTE   N08  Gn3
 BYTE   W18
 BYTE   N02  Ds3
 BYTE   N02  Gn3
 BYTE   W18
 BYTE   Ds3
 BYTE   N02  Gn3
 BYTE   W06
 BYTE   Ds3
 BYTE   N02  Gn3
 BYTE   W06
 BYTE   PEND 
//  #06 //032   ----------------------------------------
 BYTE   PATT
  POIN2 Label_016B617C
//  #06 //033   ----------------------------------------
 BYTE   PATT
  POIN2 Label_016B6159
//  #06 //034   ----------------------------------------
 BYTE   PATT
  POIN2 Label_016B6159
//  #06 //035   ----------------------------------------
Label_016B61A9:
 BYTE   W12
 BYTE   N05  Fn3  v100
 BYTE   N05  Gs3
 BYTE   W18
 BYTE   N08  Fn3
 BYTE   N08  Gs3
 BYTE   W18
 BYTE   Fn3
 BYTE   N08  Gs3
 BYTE   W18
 BYTE   N02  Fn3
 BYTE   N02  Gs3
 BYTE   W18
 BYTE   Fn3
 BYTE   N02  Gs3
 BYTE   W06
 BYTE   Fn3
 BYTE   N02  Gs3
 BYTE   W06
 BYTE   PEND 
//  #06 //036   ----------------------------------------
Label_016B61C7:
 BYTE   W12
 BYTE   N05  Gn3  v100
 BYTE   N05  Bn3
 BYTE   W18
 BYTE   N08  Gn3
 BYTE   N08  Bn3
 BYTE   W18
 BYTE   Gn3
 BYTE   N08  Bn3
 BYTE   W18
 BYTE   N02  Gn3
 BYTE   N02  Bn3
 BYTE   W18
 BYTE   Gn3
 BYTE   N02  Bn3
 BYTE   W06
 BYTE   Gn3
 BYTE   N02  Bn3
 BYTE   W06
 BYTE   PEND 
//  #06 //037   ----------------------------------------
 BYTE   PATT
  POIN2 Label_016B6159
//  #06 //038   ----------------------------------------
 BYTE   PATT
  POIN2 Label_016B6159
//  #06 //039   ----------------------------------------
 BYTE   PATT
  POIN2 Label_016B617C
//  #06 //040   ----------------------------------------
 BYTE   PATT
  POIN2 Label_016B617C
//  #06 //041   ----------------------------------------
 BYTE   PATT
  POIN2 Label_016B6159
//  #06 //042   ----------------------------------------
Label_016B61FE:
 BYTE   W12
 BYTE   N05  Fn3  v100
 BYTE   N05  Gs3
 BYTE   W18
 BYTE   N08  Fn3
 BYTE   N08  Gn3
 BYTE   W18
 BYTE   Fn3
 BYTE   N08  Gs3
 BYTE   W18
 BYTE   N02  Fn3
 BYTE   N02  Gn3
 BYTE   W18
 BYTE   Fn3
 BYTE   N02  Gs3
 BYTE   W06
 BYTE   Fn3
 BYTE   N02  Gs3
 BYTE   W06
 BYTE   PEND 
//  #06 //043   ----------------------------------------
Label_016B621C:
 BYTE   W12
 BYTE   N05  Dn3  v100
 BYTE   N05  Gs3
 BYTE   W18
 BYTE   N08  Dn3
 BYTE   N08  Gs3
 BYTE   W18
 BYTE   Dn3
 BYTE   N08  Gs3
 BYTE   W18
 BYTE   N02  Dn3
 BYTE   N02  Gs3
 BYTE   W18
 BYTE   Dn3
 BYTE   N02  Gs3
 BYTE   W06
 BYTE   Dn3
 BYTE   N02  Gs3
 BYTE   W06
 BYTE   PEND 
//  #06 //044   ----------------------------------------
 BYTE   PATT
  POIN2 Label_016B61C7
//  #06 //045   ----------------------------------------
 BYTE   PATT
  POIN2 Label_016B6069
//  #06 //046   ----------------------------------------
 BYTE   W92
 BYTE   W03
 BYTE   EOT
 BYTE   Fn2  v058
 BYTE   Dn3
 BYTE   W01
//  #06 //047   ----------------------------------------
 BYTE   PATT
  POIN2 Label_016B6079
//  #06 //048   ----------------------------------------
 BYTE   W44
 BYTE   W03
 BYTE   EOT
 BYTE   As2  v060
 BYTE   W01
 BYTE   N44  As2  v100
 BYTE   N44  Cn3
 BYTE   N44  Dn3
 BYTE   W48
//  #06 //049   ----------------------------------------
 BYTE   PATT
  POIN2 Label_016B608E
//  #06 //050   ----------------------------------------
 BYTE   PATT
  POIN2 Label_016B60A6
//  #06 //051   ----------------------------------------
 BYTE   PATT
  POIN2 Label_016B6069
//  #06 //052   ----------------------------------------
 BYTE   W12
 BYTE   N44  As3  v100
 BYTE   W11
 BYTE   EOT
 BYTE   As2  v062
 BYTE   W01
 BYTE   N44  Gn3
 BYTE   W12
 BYTE   Ds3
 BYTE   W12
 BYTE   Dn3
 BYTE   W11
 BYTE   EOT
 BYTE   Fn2
 BYTE   W01
 BYTE   N32  As2
 BYTE   W36
//  #06 //053   ----------------------------------------
 BYTE   PATT
  POIN2 Label_016B6069
//  #06 //054   ----------------------------------------
 BYTE   W92
 BYTE   W03
 BYTE   EOT
 BYTE   Fn2  v058
 BYTE   Dn3
 BYTE   W01
//  #06 //055   ----------------------------------------
 BYTE   PATT
  POIN2 Label_016B6079
//  #06 //056   ----------------------------------------
 BYTE   W44
 BYTE   W03
 BYTE   EOT
 BYTE   As2  v060
 BYTE   W01
 BYTE   N44  As2  v100
 BYTE   N44  Cn3
 BYTE   N44  Dn3
 BYTE   W48
//  #06 //057   ----------------------------------------
 BYTE   PATT
  POIN2 Label_016B608E
//  #06 //058   ----------------------------------------
 BYTE   PATT
  POIN2 Label_016B60A6
//  #06 //059   ----------------------------------------
 BYTE   PATT
  POIN2 Label_016B6069
//  #06 //060   ----------------------------------------
 BYTE   W12
 BYTE   N44  As3  v100
 BYTE   W11
 BYTE   EOT
 BYTE   As2  v062
 BYTE   W01
 BYTE   N44  Gn3
 BYTE   W12
 BYTE   Ds3
 BYTE   W12
 BYTE   Dn3
 BYTE   W11
 BYTE   EOT
 BYTE   Fn2
 BYTE   W01
 BYTE   N32  As2
 BYTE   W36
//  #06 //061   ----------------------------------------
 BYTE   PATT
  POIN2 Label_016B6069
//  #06 //062   ----------------------------------------
 BYTE   W92
 BYTE   W03
 BYTE   EOT
 BYTE   Fn2  v058
 BYTE   Dn3
 BYTE   W01
//  #06 //063   ----------------------------------------
 BYTE   PATT
  POIN2 Label_016B6079
//  #06 //064   ----------------------------------------
 BYTE   W44
 BYTE   W03
 BYTE   EOT
 BYTE   As2  v060
 BYTE   W01
 BYTE   N44  As2  v100
 BYTE   N44  Cn3
 BYTE   N44  Dn3
 BYTE   W48
//  #06 //065   ----------------------------------------
 BYTE   PATT
  POIN2 Label_016B608E
//  #06 //066   ----------------------------------------
 BYTE   PATT
  POIN2 Label_016B60A6
//  #06 //067   ----------------------------------------
 BYTE   PATT
  POIN2 Label_016B613F
//  #06 //068   ----------------------------------------
 BYTE   PATT
  POIN2 Label_016B614A
//  #06 //069   ----------------------------------------
 BYTE   PATT
  POIN2 Label_016B6159
//  #06 //070   ----------------------------------------
 BYTE   PATT
  POIN2 Label_016B6159
//  #06 //071   ----------------------------------------
 BYTE   PATT
  POIN2 Label_016B617C
//  #06 //072   ----------------------------------------
 BYTE   PATT
  POIN2 Label_016B617C
//  #06 //073   ----------------------------------------
 BYTE   PATT
  POIN2 Label_016B6159
//  #06 //074   ----------------------------------------
 BYTE   PATT
  POIN2 Label_016B6159
//  #06 //075   ----------------------------------------
 BYTE   PATT
  POIN2 Label_016B61A9
//  #06 //076   ----------------------------------------
 BYTE   PATT
  POIN2 Label_016B61C7
//  #06 //077   ----------------------------------------
 BYTE   PATT
  POIN2 Label_016B6159
//  #06 //078   ----------------------------------------
 BYTE   PATT
  POIN2 Label_016B6159
//  #06 //079   ----------------------------------------
 BYTE   PATT
  POIN2 Label_016B617C
//  #06 //080   ----------------------------------------
 BYTE   PATT
  POIN2 Label_016B617C
//  #06 //081   ----------------------------------------
 BYTE   PATT
  POIN2 Label_016B6159
//  #06 //082   ----------------------------------------
 BYTE   PATT
  POIN2 Label_016B61FE
//  #06 //083   ----------------------------------------
 BYTE   PATT
  POIN2 Label_016B621C
//  #06 //084   ----------------------------------------
 BYTE   PATT
  POIN2 Label_016B61C7
//  #06 //085   ----------------------------------------
Label_016B634A:
 BYTE   W12
 BYTE   N05  Cn2  v100
 BYTE   W18
 BYTE   N08
 BYTE   W18
 BYTE   N08
 BYTE   W18
 BYTE   N05
 BYTE   W18
 BYTE   N05
 BYTE   W12
 BYTE   PEND 
//  #06 //086   ----------------------------------------
Label_016B6358:
 BYTE   W12
 BYTE   N05  As1  v100
 BYTE   N05  Dn2
 BYTE   N05  Fn2
 BYTE   W18
 BYTE   N08  As1
 BYTE   N08  Dn2
 BYTE   N08  Fn2
 BYTE   W18
 BYTE   As1
 BYTE   N08  Dn2
 BYTE   N08  Fn2
 BYTE   W18
 BYTE   N05  As1
 BYTE   N05  Dn2
 BYTE   N05  Fn2
 BYTE   W18
 BYTE   As1
 BYTE   N05  Dn2
 BYTE   N05  Fn2
 BYTE   W12
 BYTE   PEND 
//  #06 //087   ----------------------------------------
Label_016B637C:
 BYTE   W12
 BYTE   N05  Gs1  v100
 BYTE   N05  Cn2
 BYTE   W18
 BYTE   N08  Gs1
 BYTE   N08  Cn2
 BYTE   W18
 BYTE   Gs1
 BYTE   N08  Cn2
 BYTE   W18
 BYTE   N05  Gs1
 BYTE   N05  Cn2
 BYTE   W18
 BYTE   Gs1
 BYTE   N05  Cn2
 BYTE   W12
 BYTE   PEND 
//  #06 //088   ----------------------------------------
Label_016B6396:
 BYTE   W12
 BYTE   N05  Gn1  v100
 BYTE   N05  As1
 BYTE   N05  Dn2
 BYTE   W18
 BYTE   N08  Gn1
 BYTE   N08  As1
 BYTE   N08  Dn2
 BYTE   W18
 BYTE   Gn1
 BYTE   N08  As1
 BYTE   N08  Dn2
 BYTE   W18
 BYTE   N05  Gn1
 BYTE   N05  As1
 BYTE   N05  Dn2
 BYTE   W18
 BYTE   Gn1
 BYTE   N05  As1
 BYTE   N05  Dn2
 BYTE   W12
 BYTE   PEND 
//  #06 //089   ----------------------------------------
 BYTE   PATT
  POIN2 Label_016B637C
//  #06 //090   ----------------------------------------
Label_016B63BF:
 BYTE   W12
 BYTE   N05  As1  v100
 BYTE   W18
 BYTE   N08
 BYTE   W18
 BYTE   N08
 BYTE   W18
 BYTE   N05
 BYTE   W18
 BYTE   N05
 BYTE   W12
 BYTE   PEND 
//  #06 //091   ----------------------------------------
Label_016B63CD:
 BYTE   W12
 BYTE   N05  Dn2  v100
 BYTE   N05  Fn2
 BYTE   N05  Gs2
 BYTE   W18
 BYTE   N08  Dn2
 BYTE   N08  Fn2
 BYTE   N08  Gs2
 BYTE   W18
 BYTE   Dn2
 BYTE   N08  Fn2
 BYTE   N08  Gs2
 BYTE   W18
 BYTE   N05  Dn2
 BYTE   N05  Fn2
 BYTE   N05  Gs2
 BYTE   W18
 BYTE   Dn2
 BYTE   N05  Fn2
 BYTE   N05  Gs2
 BYTE   W12
 BYTE   PEND 
//  #06 //092   ----------------------------------------
Label_016B63F1:
 BYTE   W12
 BYTE   N05  Bn1  v100
 BYTE   N05  Dn2
 BYTE   W18
 BYTE   N08  Bn1
 BYTE   N08  Dn2
 BYTE   W18
 BYTE   Bn1
 BYTE   N08  Dn2
 BYTE   W18
 BYTE   N05  Bn1
 BYTE   N05  Dn2
 BYTE   W18
 BYTE   Bn1
 BYTE   N05  Dn2
 BYTE   W12
 BYTE   PEND 
//  #06 //093   ----------------------------------------
 BYTE   PATT
  POIN2 Label_016B634A
//  #06 //094   ----------------------------------------
 BYTE   PATT
  POIN2 Label_016B6358
//  #06 //095   ----------------------------------------
 BYTE   PATT
  POIN2 Label_016B637C
//  #06 //096   ----------------------------------------
 BYTE   PATT
  POIN2 Label_016B6396
//  #06 //097   ----------------------------------------
 BYTE   PATT
  POIN2 Label_016B637C
//  #06 //098   ----------------------------------------
 BYTE   PATT
  POIN2 Label_016B63BF
//  #06 //099   ----------------------------------------
 BYTE   PATT
  POIN2 Label_016B63CD
//  #06 //100   ----------------------------------------
 BYTE   PATT
  POIN2 Label_016B63F1
//  #06 //101   ----------------------------------------
 BYTE   W96
//  #06 //102   ----------------------------------------
 BYTE   W96
//  #06 //103   ----------------------------------------
 BYTE   W96
//  #06 //104   ----------------------------------------
 BYTE   W96
//  #06 //105   ----------------------------------------
 BYTE   PATT
  POIN2 Label_016B6069
//  #06 //106   ----------------------------------------
 BYTE   W92
 BYTE   W03
 BYTE   EOT
 BYTE   Fn2  v058
 BYTE   Dn3
 BYTE   W01
//  #06 //107   ----------------------------------------
 BYTE   PATT
  POIN2 Label_016B6079
//  #06 //108   ----------------------------------------
 BYTE   W44
 BYTE   W03
 BYTE   EOT
 BYTE   As2  v060
 BYTE   W01
 BYTE   N44  As2  v100
 BYTE   N44  Cn3
 BYTE   N44  Dn3
 BYTE   W48
//  #06 //109   ----------------------------------------
 BYTE   PATT
  POIN2 Label_016B608E
//  #06 //110   ----------------------------------------
 BYTE   PATT
  POIN2 Label_016B60A6
//  #06 //111   ----------------------------------------
 BYTE   PATT
  POIN2 Label_016B6069
//  #06 //112   ----------------------------------------
 BYTE   W12
 BYTE   N44  As3  v100
 BYTE   W11
 BYTE   EOT
 BYTE   As2  v062
 BYTE   W01
 BYTE   N44  Gn3
 BYTE   W12
 BYTE   Ds3
 BYTE   W12
 BYTE   Dn3
 BYTE   W11
 BYTE   EOT
 BYTE   Fn2
 BYTE   W01
 BYTE   N32  As2
 BYTE   W36
//  #06 //113   ----------------------------------------
 BYTE   GoTo
  POIN2 Label_016B60D2
//  #06 //114   ----------------------------------------
 BYTE   PATT
  POIN2 Label_016B6069
//  #06 //115   ----------------------------------------
 BYTE   W92
 BYTE   W03
 BYTE   EOT
 BYTE   Fn2  v058
 BYTE   Dn3
 BYTE   W01
//  #06 //116   ----------------------------------------
 BYTE   PATT
  POIN2 Label_016B6079
//  #06 //117   ----------------------------------------
 BYTE   W44
 BYTE   W03
 BYTE   EOT
 BYTE   As2  v060
 BYTE   W01
 BYTE   N44  As2  v100
 BYTE   N44  Cn3
 BYTE   N44  Dn3
 BYTE   W48
//  #06 //118   ----------------------------------------
 BYTE   PATT
  POIN2 Label_016B608E
//  #06 //119   ----------------------------------------
 BYTE   PATT
  POIN2 Label_016B60A6
//  #06 //120   ----------------------------------------
 BYTE   PATT
  POIN2 Label_016B6069
//  #06 //121   ----------------------------------------
 BYTE   W12
 BYTE   N44  As3  v100
 BYTE   W11
 BYTE   EOT
 BYTE   As2  v062
 BYTE   W01
 BYTE   N44  Gn3
 BYTE   W12
 BYTE   Ds3
 BYTE   W12
 BYTE   Dn3
 BYTE   W11
 BYTE   EOT
 BYTE   Fn2
 BYTE   W01
 BYTE   N32  As2
 BYTE   W36
//  #06 //122   ----------------------------------------
 BYTE   PATT
  POIN2 Label_016B6069
//  #06 //123   ----------------------------------------
 BYTE   W92
 BYTE   W03
 BYTE   EOT
 BYTE   Fn2  v058
 BYTE   Dn3
 BYTE   W01
//  #06 //124   ----------------------------------------
 BYTE   PATT
  POIN2 Label_016B6079
//  #06 //125   ----------------------------------------
 BYTE   W44
 BYTE   W03
 BYTE   EOT
 BYTE   As2  v060
 BYTE   W01
 BYTE   N44  As2  v100
 BYTE   N44  Cn3
 BYTE   N44  Dn3
 BYTE   W48
//  #06 //126   ----------------------------------------
 BYTE   PATT
  POIN2 Label_016B608E
//  #06 //127   ----------------------------------------
 BYTE   PATT
  POIN2 Label_016B60A6
//  #06 //128   ----------------------------------------
 BYTE   PATT
  POIN2 Label_016B613F
//  #06 //129   ----------------------------------------
 BYTE   PATT
  POIN2 Label_016B614A
//  #06 //130   ----------------------------------------
 BYTE   PATT
  POIN2 Label_016B6159
//  #06 //131   ----------------------------------------
 BYTE   PATT
  POIN2 Label_016B6159
//  #06 //132   ----------------------------------------
 BYTE   PATT
  POIN2 Label_016B617C
//  #06 //133   ----------------------------------------
 BYTE   PATT
  POIN2 Label_016B617C
//  #06 //134   ----------------------------------------
 BYTE   PATT
  POIN2 Label_016B6159
//  #06 //135   ----------------------------------------
 BYTE   PATT
  POIN2 Label_016B6159
//  #06 //136   ----------------------------------------
 BYTE   PATT
  POIN2 Label_016B61A9
//  #06 //137   ----------------------------------------
 BYTE   PATT
  POIN2 Label_016B61C7
//  #06 //138   ----------------------------------------
 BYTE   PATT
  POIN2 Label_016B6159
//  #06 //139   ----------------------------------------
 BYTE   PATT
  POIN2 Label_016B6159
//  #06 //140   ----------------------------------------
 BYTE   PATT
  POIN2 Label_016B617C
//  #06 //141   ----------------------------------------
 BYTE   PATT
  POIN2 Label_016B617C
//  #06 //142   ----------------------------------------
 BYTE   PATT
  POIN2 Label_016B6159
//  #06 //143   ----------------------------------------
 BYTE   PATT
  POIN2 Label_016B61FE
//  #06 //144   ----------------------------------------
 BYTE   PATT
  POIN2 Label_016B621C
//  #06 //145   ----------------------------------------
 BYTE   PATT
  POIN2 Label_016B61C7
//  #06 //146   ----------------------------------------
 BYTE   PATT
  POIN2 Label_016B6069
//  #06 //147   ----------------------------------------
 BYTE   W92
 BYTE   W03
 BYTE   EOT
 BYTE   Fn2  v058
 BYTE   Dn3
 BYTE   W01
//  #06 //148   ----------------------------------------
 BYTE   PATT
  POIN2 Label_016B6079
//  #06 //149   ----------------------------------------
 BYTE   W44
 BYTE   W03
 BYTE   EOT
 BYTE   As2  v060
 BYTE   W01
 BYTE   N44  As2  v100
 BYTE   N44  Cn3
 BYTE   N44  Dn3
 BYTE   W48
//  #06 //150   ----------------------------------------
 BYTE   PATT
  POIN2 Label_016B608E
//  #06 //151   ----------------------------------------
 BYTE   PATT
  POIN2 Label_016B60A6
//  #06 //152   ----------------------------------------
 BYTE   PATT
  POIN2 Label_016B6069
//  #06 //153   ----------------------------------------
 BYTE   W12
 BYTE   N44  As3  v100
 BYTE   W11
 BYTE   EOT
 BYTE   As2  v062
 BYTE   W01
 BYTE   N44  Gn3
 BYTE   W12
 BYTE   Ds3
 BYTE   W12
 BYTE   Dn3
 BYTE   W11
 BYTE   EOT
 BYTE   Fn2
 BYTE   W01
 BYTE   N32  As2
 BYTE   W36
//  #06 //154   ----------------------------------------
 BYTE   PATT
  POIN2 Label_016B6069
//  #06 //155   ----------------------------------------
 BYTE   W92
 BYTE   W03
 BYTE   EOT
 BYTE   Fn2  v058
 BYTE   Dn3
 BYTE   W01
//  #06 //156   ----------------------------------------
 BYTE   PATT
  POIN2 Label_016B6079
//  #06 //157   ----------------------------------------
 BYTE   W44
 BYTE   W03
 BYTE   EOT
 BYTE   As2  v060
 BYTE   W01
 BYTE   N44  As2  v100
 BYTE   N44  Cn3
 BYTE   N44  Dn3
 BYTE   W48
//  #06 //158   ----------------------------------------
 BYTE   PATT
  POIN2 Label_016B608E
//  #06 //159   ----------------------------------------
 BYTE   PATT
  POIN2 Label_016B60A6
//  #06 //160   ----------------------------------------
 BYTE   PATT
  POIN2 Label_016B6069
//  #06 //161   ----------------------------------------
 BYTE   W12
 BYTE   N44  As3  v100
 BYTE   W11
 BYTE   EOT
 BYTE   As2  v062
 BYTE   W01
 BYTE   N44  Gn3
 BYTE   W12
 BYTE   Ds3
 BYTE   W12
 BYTE   Dn3
 BYTE   W11
 BYTE   EOT
 BYTE   Fn2
 BYTE   W01
 BYTE   N32  As2
 BYTE   W36
//  #06 //162   ----------------------------------------
 BYTE   PATT
  POIN2 Label_016B6069
//  #06 //163   ----------------------------------------
 BYTE   W92
 BYTE   W03
 BYTE   EOT
 BYTE   Fn2  v058
 BYTE   Dn3
 BYTE   W01
//  #06 //164   ----------------------------------------
 BYTE   PATT
  POIN2 Label_016B6079
//  #06 //165   ----------------------------------------
 BYTE   W44
 BYTE   W03
 BYTE   EOT
 BYTE   As2  v060
 BYTE   W01
 BYTE   N44  As2  v100
 BYTE   N44  Cn3
 BYTE   N44  Dn3
 BYTE   W48
//  #06 //166   ----------------------------------------
 BYTE   PATT
  POIN2 Label_016B608E
//  #06 //167   ----------------------------------------
 BYTE   PATT
  POIN2 Label_016B60A6
//  #06 //168   ----------------------------------------
 BYTE   PATT
  POIN2 Label_016B613F
//  #06 //169   ----------------------------------------
 BYTE   PATT
  POIN2 Label_016B614A
//  #06 //170   ----------------------------------------
 BYTE   PATT
  POIN2 Label_016B6159
//  #06 //171   ----------------------------------------
 BYTE   PATT
  POIN2 Label_016B6159
//  #06 //172   ----------------------------------------
 BYTE   PATT
  POIN2 Label_016B617C
//  #06 //173   ----------------------------------------
 BYTE   PATT
  POIN2 Label_016B617C
//  #06 //174   ----------------------------------------
 BYTE   PATT
  POIN2 Label_016B6159
//  #06 //175   ----------------------------------------
 BYTE   PATT
  POIN2 Label_016B6159
//  #06 //176   ----------------------------------------
 BYTE   PATT
  POIN2 Label_016B61A9
//  #06 //177   ----------------------------------------
 BYTE   PATT
  POIN2 Label_016B61C7
//  #06 //178   ----------------------------------------
 BYTE   PATT
  POIN2 Label_016B6159
//  #06 //179   ----------------------------------------
 BYTE   PATT
  POIN2 Label_016B6159
//  #06 //180   ----------------------------------------
 BYTE   PATT
  POIN2 Label_016B617C
//  #06 //181   ----------------------------------------
 BYTE   PATT
  POIN2 Label_016B617C
//  #06 //182   ----------------------------------------
 BYTE   PATT
  POIN2 Label_016B6159
//  #06 //183   ----------------------------------------
 BYTE   PATT
  POIN2 Label_016B61FE
//  #06 //184   ----------------------------------------
 BYTE   PATT
  POIN2 Label_016B621C
//  #06 //185   ----------------------------------------
 BYTE   PATT
  POIN2 Label_016B61C7
//  #06 //186   ----------------------------------------
 BYTE   PATT
  POIN2 Label_016B634A
//  #06 //187   ----------------------------------------
 BYTE   PATT
  POIN2 Label_016B6358
//  #06 //188   ----------------------------------------
 BYTE   PATT
  POIN2 Label_016B637C
//  #06 //189   ----------------------------------------
 BYTE   PATT
  POIN2 Label_016B6396
//  #06 //190   ----------------------------------------
 BYTE   PATT
  POIN2 Label_016B637C
//  #06 //191   ----------------------------------------
 BYTE   PATT
  POIN2 Label_016B63BF
//  #06 //192   ----------------------------------------
 BYTE   PATT
  POIN2 Label_016B63CD
//  #06 //193   ----------------------------------------
 BYTE   PATT
  POIN2 Label_016B63F1
//  #06 //194   ----------------------------------------
 BYTE   PATT
  POIN2 Label_016B634A
//  #06 //195   ----------------------------------------
 BYTE   PATT
  POIN2 Label_016B6358
//  #06 //196   ----------------------------------------
 BYTE   PATT
  POIN2 Label_016B637C
//  #06 //197   ----------------------------------------
 BYTE   PATT
  POIN2 Label_016B6396
//  #06 //198   ----------------------------------------
 BYTE   PATT
  POIN2 Label_016B637C
//  #06 //199   ----------------------------------------
 BYTE   PATT
  POIN2 Label_016B63BF
//  #06 //200   ----------------------------------------
 BYTE   PATT
  POIN2 Label_016B63CD
//  #06 //201   ----------------------------------------
 BYTE   PATT
  POIN2 Label_016B63F1
//  #06 //202   ----------------------------------------
 BYTE   W96
//  #06 //203   ----------------------------------------
 BYTE   W96
//  #06 //204   ----------------------------------------
 BYTE   W96
//  #06 //205   ----------------------------------------
 BYTE   W96
//  #06 //206   ----------------------------------------
 BYTE   PATT
  POIN2 Label_016B6069
//  #06 //207   ----------------------------------------
 BYTE   W92
 BYTE   W03
 BYTE   EOT
 BYTE   Fn2  v058
 BYTE   Dn3
 BYTE   W01
//  #06 //208   ----------------------------------------
 BYTE   PATT
  POIN2 Label_016B6079
//  #06 //209   ----------------------------------------
 BYTE   W44
 BYTE   W03
 BYTE   EOT
 BYTE   As2  v060
 BYTE   W01
 BYTE   N44  As2  v100
 BYTE   N44  Cn3
 BYTE   N44  Dn3
 BYTE   W44
 BYTE   W03
 BYTE   FINE

//**************** Track 7 (Midi-Chn.6) ****************//

PointOfNoReturn_Song_007:
//  #07 //000   ----------------------------------------
 BYTE   KEYSH   PointOfNoReturn_Song_key+0
 BYTE   VOICE   1
 BYTE   VOL   40*PointOfNoReturn_Song_mvl/mxv
 BYTE   PAN   c_v+0
 BYTE   VOL   40*PointOfNoReturn_Song_mvl/mxv
 BYTE   PAN   c_v+0
 BYTE   VOL   40*PointOfNoReturn_Song_mvl/mxv
 BYTE   PAN   c_v+0
 BYTE   W24
 BYTE   W96
//  #07 //001   ----------------------------------------
 BYTE   W96
//  #07 //002   ----------------------------------------
 BYTE   W96
//  #07 //003   ----------------------------------------
 BYTE   W96
//  #07 //004   ----------------------------------------
Label_FA0FFD:
 BYTE   TIE  Dn3  v100
 BYTE   W96
 BYTE   PEND 
//  #07 //005   ----------------------------------------
Label_FA1002:
 BYTE   W92
 BYTE   W03
 BYTE   PEND 
 BYTE   EOT
 BYTE   Dn3
 BYTE   W01
//  #07 //006   ----------------------------------------
Label_FA1008:
 BYTE   TIE  Cn3  v100
 BYTE   W96
 BYTE   PEND 
//  #07 //007   ----------------------------------------
Label_FA100D:
 BYTE   W44
 BYTE   W03
 BYTE   PEND 
 BYTE   EOT
 BYTE   Cn3
 BYTE   W01
 BYTE   N44  Dn3  v100
 BYTE   W48
//  #07 //008   ----------------------------------------
Label_FA1017:
 BYTE   N92  Ds3  v100
 BYTE   W96
 BYTE   PEND 
//  #07 //009   ----------------------------------------
Label_FA101C:
 BYTE   N44  Ds3  v100
 BYTE   W48
 BYTE   Dn3
 BYTE   W48
 BYTE   PEND 
//  #07 //010   ----------------------------------------
Label_FA1023:
 BYTE   N92  Dn3  v100
 BYTE   W96
 BYTE   PEND 
//  #07 //011   ----------------------------------------
 BYTE   W96
//  #07 //012   ----------------------------------------
Label_FA1029:
 BYTE   W96
//  #07 //013   ----------------------------------------
 BYTE   W96
//  #07 //014   ----------------------------------------
 BYTE   W96
//  #07 //015   ----------------------------------------
 BYTE   W96
//  #07 //016   ----------------------------------------
 BYTE   W96
//  #07 //017   ----------------------------------------
 BYTE   W96
//  #07 //018   ----------------------------------------
 BYTE   W96
//  #07 //019   ----------------------------------------
 BYTE   W96
//  #07 //020   ----------------------------------------
 BYTE   W96
//  #07 //021   ----------------------------------------
 BYTE   W96
//  #07 //022   ----------------------------------------
 BYTE   W96
//  #07 //023   ----------------------------------------
 BYTE   W96
//  #07 //024   ----------------------------------------
 BYTE   W96
//  #07 //025   ----------------------------------------
 BYTE   W96
//  #07 //026   ----------------------------------------
Label_FA1037:
 BYTE   W84
 BYTE   N05  Cn4  v100
 BYTE   N05  Cn5  v088
 BYTE   W06
 BYTE   Dn4  v100
 BYTE   N05  Dn5  v088
 BYTE   W06
 BYTE   PEND 
//  #07 //027   ----------------------------------------
Label_FA1046:
 BYTE   N05  Ds4  v100
 BYTE   N05  Ds5  v088
 BYTE   W06
 BYTE   Dn4  v100
 BYTE   N05  Dn5  v088
 BYTE   W06
 BYTE   As3  v100
 BYTE   N05  As4  v088
 BYTE   W06
 BYTE   Gn3  v100
 BYTE   N05  Gn4  v088
 BYTE   W06
 BYTE   Ds3  v100
 BYTE   N05  Ds4  v088
 BYTE   W06
 BYTE   As2  v100
 BYTE   N05  As3  v088
 BYTE   W06
 BYTE   Gn2  v100
 BYTE   N05  Gn3  v088
 BYTE   W06
 BYTE   Ds2  v100
 BYTE   N05  Ds3  v088
 BYTE   W06
 BYTE   As1  v100
 BYTE   N05  As2  v088
 BYTE   W06
 BYTE   Dn2  v100
 BYTE   N05  Dn3  v088
 BYTE   W06
 BYTE   Ds2  v100
 BYTE   N05  Ds3  v088
 BYTE   W06
 BYTE   Gn2  v100
 BYTE   N05  Gn3  v088
 BYTE   W06
 BYTE   As2  v100
 BYTE   N05  As3  v088
 BYTE   W06
 BYTE   Ds3  v100
 BYTE   N05  Ds4  v088
 BYTE   W06
 BYTE   Gn3  v100
 BYTE   N05  Gn4  v088
 BYTE   W06
 BYTE   As3  v100
 BYTE   N05  As4  v088
 BYTE   W06
 BYTE   PEND 
//  #07 //028   ----------------------------------------
Label_FA10A8:
 BYTE   TIE  Cn4  v100
 BYTE   W96
 BYTE   PEND 
//  #07 //029   ----------------------------------------
 BYTE   PATT
  POIN2 Label_FA1002
//  #07 //030   ----------------------------------------
 BYTE   EOT
 BYTE   Cn4
 BYTE   W01
Label_FA10B5:
 BYTE   N92  As3  v100
 BYTE   W96
 BYTE   PEND 
//  #07 //031   ----------------------------------------
Label_FA10BA:
 BYTE   N44  As3  v100
 BYTE   W48
 BYTE   Gn3
 BYTE   W48
 BYTE   PEND 
//  #07 //032   ----------------------------------------
 BYTE   PATT
  POIN2 Label_FA10B5
//  #07 //033   ----------------------------------------
Label_FA10C6:
 BYTE   N92  Cn4  v100
 BYTE   W96
 BYTE   PEND 
//  #07 //034   ----------------------------------------
Label_FA10CB:
 BYTE   N92  Ds4  v100
 BYTE   W96
 BYTE   PEND 
//  #07 //035   ----------------------------------------
Label_FA10D0:
 BYTE   N44  Ds4  v100
 BYTE   W48
 BYTE   Bn3
 BYTE   W48
 BYTE   PEND 
//  #07 //036   ----------------------------------------
 BYTE   PATT
  POIN2 Label_FA10A8
//  #07 //037   ----------------------------------------
 BYTE   PATT
  POIN2 Label_FA1002
//  #07 //038   ----------------------------------------
 BYTE   EOT
 BYTE   Cn4
 BYTE   W01
//  #07 //039   ----------------------------------------
 BYTE   PATT
  POIN2 Label_FA10B5
//  #07 //040   ----------------------------------------
 BYTE   PATT
  POIN2 Label_FA10BA
//  #07 //041   ----------------------------------------
 BYTE   PATT
  POIN2 Label_FA10B5
//  #07 //042   ----------------------------------------
 BYTE   PATT
  POIN2 Label_FA10C6
//  #07 //043   ----------------------------------------
 BYTE   PATT
  POIN2 Label_FA10CB
//  #07 //044   ----------------------------------------
Label_FA10FD:
 BYTE   N92  Dn4  v100
 BYTE   W96
 BYTE   PEND 
//  #07 //045   ----------------------------------------
 BYTE   PATT
  POIN2 Label_FA0FFD
//  #07 //046   ----------------------------------------
 BYTE   PATT
  POIN2 Label_FA1002
//  #07 //047   ----------------------------------------
 BYTE   EOT
 BYTE   Dn3
 BYTE   W01
//  #07 //048   ----------------------------------------
 BYTE   PATT
  POIN2 Label_FA1008
//  #07 //049   ----------------------------------------
 BYTE   PATT
  POIN2 Label_FA100D
//  #07 //050   ----------------------------------------
 BYTE   EOT
 BYTE   Cn3
 BYTE   W01
 BYTE   N44  Dn3  v100
 BYTE   W48
//  #07 //051   ----------------------------------------
 BYTE   PATT
  POIN2 Label_FA1017
//  #07 //052   ----------------------------------------
 BYTE   PATT
  POIN2 Label_FA101C
//  #07 //053   ----------------------------------------
 BYTE   PATT
  POIN2 Label_FA1023
//  #07 //054   ----------------------------------------
 BYTE   W96
//  #07 //055   ----------------------------------------
 BYTE   W96
//  #07 //056   ----------------------------------------
 BYTE   W96
//  #07 //057   ----------------------------------------
 BYTE   W96
//  #07 //058   ----------------------------------------
 BYTE   W96
//  #07 //059   ----------------------------------------
 BYTE   W96
//  #07 //060   ----------------------------------------
 BYTE   W96
//  #07 //061   ----------------------------------------
 BYTE   W96
//  #07 //062   ----------------------------------------
 BYTE   W96
//  #07 //063   ----------------------------------------
 BYTE   W96
//  #07 //064   ----------------------------------------
 BYTE   W96
//  #07 //065   ----------------------------------------
 BYTE   W96
//  #07 //066   ----------------------------------------
 BYTE   W96
//  #07 //067   ----------------------------------------
 BYTE   W96
//  #07 //068   ----------------------------------------
 BYTE   W96
//  #07 //069   ----------------------------------------
 BYTE   PATT
  POIN2 Label_FA1037
//  #07 //070   ----------------------------------------
 BYTE   PATT
  POIN2 Label_FA1046
//  #07 //071   ----------------------------------------
 BYTE   PATT
  POIN2 Label_FA10A8
//  #07 //072   ----------------------------------------
 BYTE   PATT
  POIN2 Label_FA1002
//  #07 //073   ----------------------------------------
 BYTE   EOT
 BYTE   Cn4
 BYTE   W01
//  #07 //074   ----------------------------------------
 BYTE   PATT
  POIN2 Label_FA10B5
//  #07 //075   ----------------------------------------
 BYTE   PATT
  POIN2 Label_FA10BA
//  #07 //076   ----------------------------------------
 BYTE   PATT
  POIN2 Label_FA10B5
//  #07 //077   ----------------------------------------
 BYTE   PATT
  POIN2 Label_FA10C6
//  #07 //078   ----------------------------------------
 BYTE   PATT
  POIN2 Label_FA10CB
//  #07 //079   ----------------------------------------
 BYTE   PATT
  POIN2 Label_FA10D0
//  #07 //080   ----------------------------------------
 BYTE   PATT
  POIN2 Label_FA10A8
//  #07 //081   ----------------------------------------
 BYTE   PATT
  POIN2 Label_FA1002
//  #07 //082   ----------------------------------------
 BYTE   EOT
 BYTE   Cn4
 BYTE   W01
//  #07 //083   ----------------------------------------
 BYTE   PATT
  POIN2 Label_FA10B5
//  #07 //084   ----------------------------------------
 BYTE   PATT
  POIN2 Label_FA10BA
//  #07 //085   ----------------------------------------
 BYTE   PATT
  POIN2 Label_FA10B5
//  #07 //086   ----------------------------------------
 BYTE   PATT
  POIN2 Label_FA10C6
//  #07 //087   ----------------------------------------
 BYTE   PATT
  POIN2 Label_FA10CB
//  #07 //088   ----------------------------------------
 BYTE   PATT
  POIN2 Label_FA10FD
//  #07 //089   ----------------------------------------
 BYTE   PATT
  POIN2 Label_FA10CB
//  #07 //090   ----------------------------------------
 BYTE   PATT
  POIN2 Label_FA10FD
//  #07 //091   ----------------------------------------
Label_FA11A8:
 BYTE   N44  Cn4  v100
 BYTE   W48
 BYTE   Gs4
 BYTE   W48
 BYTE   PEND 
//  #07 //092   ----------------------------------------
Label_FA11AF:
 BYTE   N44  Dn4  v100
 BYTE   W48
 BYTE   Fn4
 BYTE   W48
 BYTE   PEND 
//  #07 //093   ----------------------------------------
Label_FA11B6:
 BYTE   N92  Gn4  v100
 BYTE   W96
 BYTE   PEND 
//  #07 //094   ----------------------------------------
Label_FA11BB:
 BYTE   N44  Fn4  v100
 BYTE   W48
 BYTE   Dn4
 BYTE   W48
 BYTE   PEND 
//  #07 //095   ----------------------------------------
 BYTE   PATT
  POIN2 Label_FA10CB
//  #07 //096   ----------------------------------------
Label_FA11C7:
 BYTE   N44  Fn4  v100
 BYTE   W48
 BYTE   Gn4
 BYTE   W48
 BYTE   PEND 
//  #07 //097   ----------------------------------------
 BYTE   PATT
  POIN2 Label_FA10CB
//  #07 //098   ----------------------------------------
 BYTE   PATT
  POIN2 Label_FA10FD
//  #07 //099   ----------------------------------------
 BYTE   PATT
  POIN2 Label_FA11A8
//  #07 //100   ----------------------------------------
 BYTE   PATT
  POIN2 Label_FA11AF
//  #07 //101   ----------------------------------------
 BYTE   PATT
  POIN2 Label_FA11B6
//  #07 //102   ----------------------------------------
 BYTE   PATT
  POIN2 Label_FA11BB
//  #07 //103   ----------------------------------------
 BYTE   PATT
  POIN2 Label_FA10CB
//  #07 //104   ----------------------------------------
 BYTE   PATT
  POIN2 Label_FA11C7
//  #07 //105   ----------------------------------------
 BYTE   W96
//  #07 //106   ----------------------------------------
 BYTE   W96
//  #07 //107   ----------------------------------------
 BYTE   W96
//  #07 //108   ----------------------------------------
 BYTE   W96
//  #07 //109   ----------------------------------------
 BYTE   PATT
  POIN2 Label_FA0FFD
//  #07 //110   ----------------------------------------
 BYTE   PATT
  POIN2 Label_FA1002
//  #07 //111   ----------------------------------------
 BYTE   EOT
 BYTE   Dn3
 BYTE   W01
//  #07 //112   ----------------------------------------
 BYTE   PATT
  POIN2 Label_FA1008
//  #07 //113   ----------------------------------------
 BYTE   PATT
  POIN2 Label_FA100D
//  #07 //114   ----------------------------------------
 BYTE   EOT
 BYTE   Cn3
 BYTE   W01
 BYTE   N44  Dn3  v100
 BYTE   W48
//  #07 //115   ----------------------------------------
 BYTE   PATT
  POIN2 Label_FA1017
//  #07 //116   ----------------------------------------
 BYTE   PATT
  POIN2 Label_FA101C
//  #07 //117   ----------------------------------------
 BYTE   PATT
  POIN2 Label_FA1023
//  #07 //118   ----------------------------------------
 BYTE   W96
//  #07 //119   ----------------------------------------
 BYTE   GoTo
  POIN2 Label_FA1029
//  #07 //120   ----------------------------------------
 BYTE   W96
//  #07 //121   ----------------------------------------
 BYTE   W96
//  #07 //122   ----------------------------------------
 BYTE   W96
//  #07 //123   ----------------------------------------
 BYTE   W96
//  #07 //124   ----------------------------------------
 BYTE   W96
//  #07 //125   ----------------------------------------
 BYTE   W96
//  #07 //126   ----------------------------------------
 BYTE   W96
//  #07 //127   ----------------------------------------
 BYTE   W96
//  #07 //128   ----------------------------------------
 BYTE   W96
//  #07 //129   ----------------------------------------
 BYTE   W96
//  #07 //130   ----------------------------------------
 BYTE   W96
//  #07 //131   ----------------------------------------
 BYTE   W96
//  #07 //132   ----------------------------------------
 BYTE   W96
//  #07 //133   ----------------------------------------
 BYTE   W96
//  #07 //134   ----------------------------------------
 BYTE   PATT
  POIN2 Label_FA1037
//  #07 //135   ----------------------------------------
 BYTE   PATT
  POIN2 Label_FA1046
//  #07 //136   ----------------------------------------
 BYTE   PATT
  POIN2 Label_FA10A8
//  #07 //137   ----------------------------------------
 BYTE   PATT
  POIN2 Label_FA1002
//  #07 //138   ----------------------------------------
 BYTE   EOT
 BYTE   Cn4
 BYTE   W01
//  #07 //139   ----------------------------------------
 BYTE   PATT
  POIN2 Label_FA10B5
//  #07 //140   ----------------------------------------
 BYTE   PATT
  POIN2 Label_FA10BA
//  #07 //141   ----------------------------------------
 BYTE   PATT
  POIN2 Label_FA10B5
//  #07 //142   ----------------------------------------
 BYTE   PATT
  POIN2 Label_FA10C6
//  #07 //143   ----------------------------------------
 BYTE   PATT
  POIN2 Label_FA10CB
//  #07 //144   ----------------------------------------
 BYTE   PATT
  POIN2 Label_FA10D0
//  #07 //145   ----------------------------------------
 BYTE   PATT
  POIN2 Label_FA10A8
//  #07 //146   ----------------------------------------
 BYTE   PATT
  POIN2 Label_FA1002
//  #07 //147   ----------------------------------------
 BYTE   EOT
 BYTE   Cn4
 BYTE   W01
//  #07 //148   ----------------------------------------
 BYTE   PATT
  POIN2 Label_FA10B5
//  #07 //149   ----------------------------------------
 BYTE   PATT
  POIN2 Label_FA10BA
//  #07 //150   ----------------------------------------
 BYTE   PATT
  POIN2 Label_FA10B5
//  #07 //151   ----------------------------------------
 BYTE   PATT
  POIN2 Label_FA10C6
//  #07 //152   ----------------------------------------
 BYTE   PATT
  POIN2 Label_FA10CB
//  #07 //153   ----------------------------------------
 BYTE   PATT
  POIN2 Label_FA10FD
//  #07 //154   ----------------------------------------
 BYTE   PATT
  POIN2 Label_FA0FFD
//  #07 //155   ----------------------------------------
 BYTE   PATT
  POIN2 Label_FA1002
//  #07 //156   ----------------------------------------
 BYTE   EOT
 BYTE   Dn3
 BYTE   W01
//  #07 //157   ----------------------------------------
 BYTE   PATT
  POIN2 Label_FA1008
//  #07 //158   ----------------------------------------
 BYTE   PATT
  POIN2 Label_FA100D
//  #07 //159   ----------------------------------------
 BYTE   EOT
 BYTE   Cn3
 BYTE   W01
 BYTE   N44  Dn3  v100
 BYTE   W48
//  #07 //160   ----------------------------------------
 BYTE   PATT
  POIN2 Label_FA1017
//  #07 //161   ----------------------------------------
 BYTE   PATT
  POIN2 Label_FA101C
//  #07 //162   ----------------------------------------
 BYTE   PATT
  POIN2 Label_FA1023
//  #07 //163   ----------------------------------------
 BYTE   W96
//  #07 //164   ----------------------------------------
 BYTE   W96
//  #07 //165   ----------------------------------------
 BYTE   W96
//  #07 //166   ----------------------------------------
 BYTE   W96
//  #07 //167   ----------------------------------------
 BYTE   W96
//  #07 //168   ----------------------------------------
 BYTE   W96
//  #07 //169   ----------------------------------------
 BYTE   W96
//  #07 //170   ----------------------------------------
 BYTE   W96
//  #07 //171   ----------------------------------------
 BYTE   W96
//  #07 //172   ----------------------------------------
 BYTE   W96
//  #07 //173   ----------------------------------------
 BYTE   W96
//  #07 //174   ----------------------------------------
 BYTE   W96
//  #07 //175   ----------------------------------------
 BYTE   W96
//  #07 //176   ----------------------------------------
 BYTE   W96
//  #07 //177   ----------------------------------------
 BYTE   W96
//  #07 //178   ----------------------------------------
 BYTE   PATT
  POIN2 Label_FA1037
//  #07 //179   ----------------------------------------
 BYTE   PATT
  POIN2 Label_FA1046
//  #07 //180   ----------------------------------------
 BYTE   PATT
  POIN2 Label_FA10A8
//  #07 //181   ----------------------------------------
 BYTE   PATT
  POIN2 Label_FA1002
//  #07 //182   ----------------------------------------
 BYTE   EOT
 BYTE   Cn4
 BYTE   W01
//  #07 //183   ----------------------------------------
 BYTE   PATT
  POIN2 Label_FA10B5
//  #07 //184   ----------------------------------------
 BYTE   PATT
  POIN2 Label_FA10BA
//  #07 //185   ----------------------------------------
 BYTE   PATT
  POIN2 Label_FA10B5
//  #07 //186   ----------------------------------------
 BYTE   PATT
  POIN2 Label_FA10C6
//  #07 //187   ----------------------------------------
 BYTE   PATT
  POIN2 Label_FA10CB
//  #07 //188   ----------------------------------------
 BYTE   PATT
  POIN2 Label_FA10D0
//  #07 //189   ----------------------------------------
 BYTE   PATT
  POIN2 Label_FA10A8
//  #07 //190   ----------------------------------------
 BYTE   PATT
  POIN2 Label_FA1002
//  #07 //191   ----------------------------------------
 BYTE   EOT
 BYTE   Cn4
 BYTE   W01
//  #07 //192   ----------------------------------------
 BYTE   PATT
  POIN2 Label_FA10B5
//  #07 //193   ----------------------------------------
 BYTE   PATT
  POIN2 Label_FA10BA
//  #07 //194   ----------------------------------------
 BYTE   PATT
  POIN2 Label_FA10B5
//  #07 //195   ----------------------------------------
 BYTE   PATT
  POIN2 Label_FA10C6
//  #07 //196   ----------------------------------------
 BYTE   PATT
  POIN2 Label_FA10CB
//  #07 //197   ----------------------------------------
 BYTE   PATT
  POIN2 Label_FA10FD
//  #07 //198   ----------------------------------------
 BYTE   PATT
  POIN2 Label_FA10CB
//  #07 //199   ----------------------------------------
 BYTE   PATT
  POIN2 Label_FA10FD
//  #07 //200   ----------------------------------------
 BYTE   PATT
  POIN2 Label_FA11A8
//  #07 //201   ----------------------------------------
 BYTE   PATT
  POIN2 Label_FA11AF
//  #07 //202   ----------------------------------------
 BYTE   PATT
  POIN2 Label_FA11B6
//  #07 //203   ----------------------------------------
 BYTE   PATT
  POIN2 Label_FA11BB
//  #07 //204   ----------------------------------------
 BYTE   PATT
  POIN2 Label_FA10CB
//  #07 //205   ----------------------------------------
 BYTE   PATT
  POIN2 Label_FA11C7
//  #07 //206   ----------------------------------------
 BYTE   PATT
  POIN2 Label_FA10CB
//  #07 //207   ----------------------------------------
 BYTE   PATT
  POIN2 Label_FA10FD
//  #07 //208   ----------------------------------------
 BYTE   PATT
  POIN2 Label_FA11A8
//  #07 //209   ----------------------------------------
 BYTE   PATT
  POIN2 Label_FA11AF
//  #07 //210   ----------------------------------------
 BYTE   PATT
  POIN2 Label_FA11B6
//  #07 //211   ----------------------------------------
 BYTE   PATT
  POIN2 Label_FA11BB
//  #07 //212   ----------------------------------------
 BYTE   PATT
  POIN2 Label_FA10CB
//  #07 //213   ----------------------------------------
 BYTE   PATT
  POIN2 Label_FA11C7
//  #07 //214   ----------------------------------------
 BYTE   W96
//  #07 //215   ----------------------------------------
 BYTE   W96
//  #07 //216   ----------------------------------------
 BYTE   W96
//  #07 //217   ----------------------------------------
 BYTE   W96
//  #07 //218   ----------------------------------------
 BYTE   PATT
  POIN2 Label_FA0FFD
//  #07 //219   ----------------------------------------
 BYTE   PATT
  POIN2 Label_FA1002
//  #07 //220   ----------------------------------------
 BYTE   EOT
 BYTE   Dn3
 BYTE   W01
//  #07 //221   ----------------------------------------
 BYTE   PATT
  POIN2 Label_FA1008
//  #07 //222   ----------------------------------------
 BYTE   PATT
  POIN2 Label_FA100D
//  #07 //223   ----------------------------------------
 BYTE   EOT
 BYTE   Cn3
 BYTE   W01
 BYTE   N44  Dn3  v100
 BYTE   W44
 BYTE   W03
 BYTE   FINE

//**************** Track 8 (Midi-Chn.7) ****************//

PointOfNoReturn_Song_008:
//  #08 //000   ----------------------------------------
 BYTE   KEYSH   PointOfNoReturn_Song_key+0
 BYTE   VOICE   28
 BYTE   VOL   0*PointOfNoReturn_Song_mvl/mxv
 BYTE   PAN   c_v+0
 BYTE   VOL   0*PointOfNoReturn_Song_mvl/mxv
 BYTE   PAN   c_v+0
 BYTE   W24
 BYTE   W96
//  #08 //001   ----------------------------------------
 BYTE   W96
//  #08 //002   ----------------------------------------
 BYTE   W96
//  #08 //003   ----------------------------------------
 BYTE   W96
//  #08 //004   ----------------------------------------
 BYTE   W96
//  #08 //005   ----------------------------------------
 BYTE   W96
//  #08 //006   ----------------------------------------
 BYTE   W96
//  #08 //007   ----------------------------------------
 BYTE   W96
//  #08 //008   ----------------------------------------
 BYTE   W96
//  #08 //009   ----------------------------------------
 BYTE   W96
//  #08 //010   ----------------------------------------
 BYTE   W96
//  #08 //011   ----------------------------------------
 BYTE   W96
//  #08 //012   ----------------------------------------
Label_0167E2D1:
 BYTE   W36
 BYTE   N17  Ds2  v112
 BYTE   W12
 BYTE   W06
 BYTE   N08  Dn2
 BYTE   W18
 BYTE   N92  Gn1
 BYTE   W24
 BYTE   PEND 
//  #08 //013   ----------------------------------------
Label_0167E2DE:
 BYTE   W72
 BYTE   N05  Gn1  v112
 BYTE   W12
 BYTE   N11  Fn1
 BYTE   W12
 BYTE   PEND 
//  #08 //014   ----------------------------------------
Label_0167E2E7:
 BYTE   N11  Gn1  v112
 BYTE   W12
 BYTE   As1
 BYTE   W12
 BYTE   Cn2
 BYTE   W12
 BYTE   N17  Dn2
 BYTE   W12
 BYTE   W06
 BYTE   N08  Ds2
 BYTE   W18
 BYTE   N92  Dn2
 BYTE   W24
 BYTE   PEND 
//  #08 //015   ----------------------------------------
Label_0167E2FA:
 BYTE   W72
 BYTE   N02  As1  v112
 BYTE   W06
 BYTE   N05
 BYTE   W06
 BYTE   N17  Fn2
 BYTE   W12
 BYTE   PEND 
//  #08 //016   ----------------------------------------
Label_0167E305:
 BYTE   W06
 BYTE   N08  Ds2  v112
 BYTE   W18
 BYTE   N11  Fn2
 BYTE   W12
 BYTE   N17  Gn2
 BYTE   W12
 BYTE   W06
 BYTE   N08  Gs2
 BYTE   W18
 BYTE   N68  Cn2
 BYTE   W24
 BYTE   PEND 
//  #08 //017   ----------------------------------------
Label_0167E318:
 BYTE   W60
 BYTE   N11  Gn1  v112
 BYTE   W12
 BYTE   Bn1
 BYTE   W12
 BYTE   N17  Fn2
 BYTE   W12
 BYTE   PEND 
//  #08 //018   ----------------------------------------
Label_0167E323:
 BYTE   W06
 BYTE   N08  Ds2  v112
 BYTE   W18
 BYTE   N05  Dn2
 BYTE   W12
 BYTE   TIE
 BYTE   W12
 BYTE   W48
 BYTE   PEND 
//  #08 //019   ----------------------------------------
Label_0167E32F:
 BYTE   W92
 BYTE   W03
 BYTE   PEND 
 BYTE   EOT
 BYTE   Dn2
 BYTE   W01
//  #08 //020   ----------------------------------------
 BYTE   PATT
  POIN2 Label_0167E2D1
//  #08 //021   ----------------------------------------
 BYTE   PATT
  POIN2 Label_0167E2DE
//  #08 //022   ----------------------------------------
 BYTE   PATT
  POIN2 Label_0167E2E7
//  #08 //023   ----------------------------------------
Label_0167E344:
 BYTE   W72
 BYTE   N02  As1  v112
 BYTE   W06
 BYTE   N05
 BYTE   W06
 BYTE   N17  Fn2
 BYTE   W12
 BYTE   PEND 
//  #08 //024   ----------------------------------------
Label_0167E34F:
 BYTE   W06
 BYTE   N08  Ds2  v112
 BYTE   W18
 BYTE   N11  Fn2
 BYTE   W12
 BYTE   N17  Gn2
 BYTE   W12
 BYTE   W06
 BYTE   N08  Gs2
 BYTE   W18
 BYTE   N68  Gn2
 BYTE   W24
 BYTE   PEND 
//  #08 //025   ----------------------------------------
Label_0167E362:
 BYTE   W60
 BYTE   N11  Fn2  v112
 BYTE   W12
 BYTE   Gn2
 BYTE   W12
 BYTE   Fn2
 BYTE   W12
 BYTE   PEND 
//  #08 //026   ----------------------------------------
Label_0167E36C:
 BYTE   N11  Ds2  v112
 BYTE   W12
 BYTE   As1
 BYTE   W12
 BYTE   Ds2
 BYTE   W12
 BYTE   TIE  Dn2
 BYTE   W12
 BYTE   W48
 BYTE   PEND 
//  #08 //027   ----------------------------------------
Label_0167E379:
 BYTE   W44
 BYTE   W03
 BYTE   PEND 
 BYTE   EOT
 BYTE   Dn2
 BYTE   W48
 BYTE   W01
//  #08 //028   ----------------------------------------
 BYTE   W96
//  #08 //029   ----------------------------------------
 BYTE   W96
//  #08 //030   ----------------------------------------
 BYTE   W96
//  #08 //031   ----------------------------------------
 BYTE   W96
//  #08 //032   ----------------------------------------
 BYTE   W96
//  #08 //033   ----------------------------------------
 BYTE   W96
//  #08 //034   ----------------------------------------
 BYTE   W96
//  #08 //035   ----------------------------------------
 BYTE   W96
//  #08 //036   ----------------------------------------
 BYTE   W96
//  #08 //037   ----------------------------------------
 BYTE   W96
//  #08 //038   ----------------------------------------
 BYTE   W96
//  #08 //039   ----------------------------------------
 BYTE   W96
//  #08 //040   ----------------------------------------
 BYTE   W96
//  #08 //041   ----------------------------------------
 BYTE   W96
//  #08 //042   ----------------------------------------
 BYTE   W96
//  #08 //043   ----------------------------------------
 BYTE   W96
//  #08 //044   ----------------------------------------
 BYTE   W96
//  #08 //045   ----------------------------------------
 BYTE   W96
//  #08 //046   ----------------------------------------
 BYTE   W96
//  #08 //047   ----------------------------------------
 BYTE   W96
//  #08 //048   ----------------------------------------
 BYTE   W96
//  #08 //049   ----------------------------------------
 BYTE   W96
//  #08 //050   ----------------------------------------
 BYTE   W96
//  #08 //051   ----------------------------------------
 BYTE   W96
//  #08 //052   ----------------------------------------
 BYTE   PATT
  POIN2 Label_0167E2D1
//  #08 //053   ----------------------------------------
 BYTE   PATT
  POIN2 Label_0167E2DE
//  #08 //054   ----------------------------------------
 BYTE   PATT
  POIN2 Label_0167E2E7
//  #08 //055   ----------------------------------------
 BYTE   PATT
  POIN2 Label_0167E2FA
//  #08 //056   ----------------------------------------
 BYTE   PATT
  POIN2 Label_0167E305
//  #08 //057   ----------------------------------------
 BYTE   PATT
  POIN2 Label_0167E318
//  #08 //058   ----------------------------------------
 BYTE   PATT
  POIN2 Label_0167E323
//  #08 //059   ----------------------------------------
 BYTE   PATT
  POIN2 Label_0167E32F
//  #08 //060   ----------------------------------------
 BYTE   EOT
 BYTE   Dn2
 BYTE   W01
//  #08 //061   ----------------------------------------
 BYTE   PATT
  POIN2 Label_0167E2D1
//  #08 //062   ----------------------------------------
 BYTE   PATT
  POIN2 Label_0167E2DE
//  #08 //063   ----------------------------------------
 BYTE   PATT
  POIN2 Label_0167E2E7
//  #08 //064   ----------------------------------------
 BYTE   PATT
  POIN2 Label_0167E344
//  #08 //065   ----------------------------------------
 BYTE   PATT
  POIN2 Label_0167E34F
//  #08 //066   ----------------------------------------
 BYTE   PATT
  POIN2 Label_0167E362
//  #08 //067   ----------------------------------------
 BYTE   PATT
  POIN2 Label_0167E36C
//  #08 //068   ----------------------------------------
 BYTE   PATT
  POIN2 Label_0167E379
//  #08 //069   ----------------------------------------
 BYTE   EOT
 BYTE   Dn2
 BYTE   W48
 BYTE   W01
 BYTE   W96
//  #08 //070   ----------------------------------------
 BYTE   W96
//  #08 //071   ----------------------------------------
 BYTE   W96
//  #08 //072   ----------------------------------------
 BYTE   W96
//  #08 //073   ----------------------------------------
 BYTE   W96
//  #08 //074   ----------------------------------------
 BYTE   W96
//  #08 //075   ----------------------------------------
 BYTE   W96
//  #08 //076   ----------------------------------------
 BYTE   W96
//  #08 //077   ----------------------------------------
 BYTE   W96
//  #08 //078   ----------------------------------------
 BYTE   W96
//  #08 //079   ----------------------------------------
 BYTE   W96
//  #08 //080   ----------------------------------------
 BYTE   W96
//  #08 //081   ----------------------------------------
 BYTE   W96
//  #08 //082   ----------------------------------------
 BYTE   W96
//  #08 //083   ----------------------------------------
 BYTE   W96
//  #08 //084   ----------------------------------------
 BYTE   W96
//  #08 //085   ----------------------------------------
Label_0167E3FF:
 BYTE   W36
 BYTE   N40  Dn2  v112
 BYTE   W12
 BYTE   W24
 BYTE   W12
 BYTE   N17  Gn1
 BYTE   W12
 BYTE   PEND 
//  #08 //086   ----------------------------------------
Label_0167E40A:
 BYTE   W06
 BYTE   N17  Cn2  v112
 BYTE   W18
 BYTE   N11  Ds2
 BYTE   W12
 BYTE   N40  Dn2
 BYTE   W12
 BYTE   W24
 BYTE   W12
 BYTE   N17  Cn2
 BYTE   W12
 BYTE   PEND 
//  #08 //087   ----------------------------------------
Label_0167E41B:
 BYTE   W06
 BYTE   N17  Ds2  v112
 BYTE   W18
 BYTE   N11  Fn2
 BYTE   W12
 BYTE   Gn2
 BYTE   W18
 BYTE   N08
 BYTE   W18
 BYTE   N05
 BYTE   W12
 BYTE   N17
 BYTE   W12
 BYTE   PEND 
//  #08 //088   ----------------------------------------
Label_0167E42C:
 BYTE   W06
 BYTE   N08  Fn2  v112
 BYTE   W18
 BYTE   N05  Ds2
 BYTE   W12
 BYTE   N17  Dn2
 BYTE   W12
 BYTE   W06
 BYTE   N08  Ds2
 BYTE   W18
 BYTE   N23  Fn2
 BYTE   W24
 BYTE   PEND 
//  #08 //089   ----------------------------------------
Label_0167E43F:
 BYTE   N05  Ds2  v112
 BYTE   W12
 BYTE   N11  Dn2
 BYTE   W12
 BYTE   As1
 BYTE   W12
 BYTE   N40  Cn2
 BYTE   W12
 BYTE   W24
 BYTE   W12
 BYTE   N17
 BYTE   W12
 BYTE   PEND 
//  #08 //090   ----------------------------------------
Label_0167E450:
 BYTE   W06
 BYTE   N17  Dn2  v112
 BYTE   W18
 BYTE   N11  Ds2
 BYTE   W12
 BYTE   N40  Fn2
 BYTE   W12
 BYTE   W24
 BYTE   W12
 BYTE   N17  Cn2
 BYTE   W12
 BYTE   PEND 
//  #08 //091   ----------------------------------------
 BYTE   PATT
  POIN2 Label_0167E41B
//  #08 //092   ----------------------------------------
Label_0167E466:
 BYTE   W06
 BYTE   N08  Fn2  v112
 BYTE   W18
 BYTE   N11  As2
 BYTE   W12
 BYTE   N80  Gn2
 BYTE   W12
 BYTE   W48
 BYTE   PEND 
//  #08 //093   ----------------------------------------
Label_0167E473:
 BYTE   W36
 BYTE   N40  Dn2  v112
 BYTE   W12
 BYTE   W24
 BYTE   W12
 BYTE   N17  Gn1
 BYTE   W12
 BYTE   PEND 
//  #08 //094   ----------------------------------------
 BYTE   PATT
  POIN2 Label_0167E40A
//  #08 //095   ----------------------------------------
 BYTE   PATT
  POIN2 Label_0167E41B
//  #08 //096   ----------------------------------------
 BYTE   PATT
  POIN2 Label_0167E42C
//  #08 //097   ----------------------------------------
Label_0167E48D:
 BYTE   N05  Gn2  v112
 BYTE   W12
 BYTE   N11  Dn2
 BYTE   W12
 BYTE   As1
 BYTE   W12
 BYTE   N40  Cn2
 BYTE   W12
 BYTE   W24
 BYTE   W12
 BYTE   N17
 BYTE   W12
 BYTE   PEND 
//  #08 //098   ----------------------------------------
Label_0167E49E:
 BYTE   W06
 BYTE   N17  Ds2  v112
 BYTE   W18
 BYTE   N11  Fn2
 BYTE   W12
 BYTE   N40  Gn2
 BYTE   W12
 BYTE   W24
 BYTE   W12
 BYTE   N17
 BYTE   W12
 BYTE   PEND 
//  #08 //099   ----------------------------------------
Label_0167E4AE:
 BYTE   W06
 BYTE   N17  Gs2  v112
 BYTE   W18
 BYTE   N11  As2
 BYTE   W12
 BYTE   N17  Cn3
 BYTE   W12
 BYTE   W06
 BYTE   N08  Dn3
 BYTE   W18
 BYTE   N11  Ds3
 BYTE   W12
 BYTE   N23  Dn3
 BYTE   W12
 BYTE   PEND 
//  #08 //100   ----------------------------------------
Label_0167E4C4:
 BYTE   W12
 BYTE   N23  Cn3  v112
 BYTE   W24
 BYTE   N11  Bn2
 BYTE   W24
 BYTE   N23  Gn2
 BYTE   W24
 BYTE   Dn3
 BYTE   W12
 BYTE   PEND 
//  #08 //101   ----------------------------------------
Label_0167E4D2:
 BYTE   W12
 BYTE   N23  Ds3  v112
 BYTE   W24
 BYTE   TIE  Dn3
 BYTE   W12
 BYTE   W48
 BYTE   PEND 
//  #08 //102   ----------------------------------------
 BYTE   W96
//  #08 //103   ----------------------------------------
 BYTE   PATT
  POIN2 Label_0167E379
//  #08 //104   ----------------------------------------
 BYTE   EOT
 BYTE   Dn3
 BYTE   W48
 BYTE   W01
 BYTE   W96
//  #08 //105   ----------------------------------------
 BYTE   W96
//  #08 //106   ----------------------------------------
 BYTE   W96
//  #08 //107   ----------------------------------------
 BYTE   W96
//  #08 //108   ----------------------------------------
 BYTE   W96
//  #08 //109   ----------------------------------------
 BYTE   W96
//  #08 //110   ----------------------------------------
 BYTE   W96
//  #08 //111   ----------------------------------------
 BYTE   W96
//  #08 //112   ----------------------------------------
 BYTE   W96
//  #08 //113   ----------------------------------------
 BYTE   GoTo
  POIN2 Label_0167E2D1
//  #08 //114   ----------------------------------------
 BYTE   PATT
  POIN2 Label_0167E2D1
//  #08 //115   ----------------------------------------
 BYTE   PATT
  POIN2 Label_0167E2DE
//  #08 //116   ----------------------------------------
 BYTE   PATT
  POIN2 Label_0167E2E7
//  #08 //117   ----------------------------------------
 BYTE   PATT
  POIN2 Label_0167E2FA
//  #08 //118   ----------------------------------------
 BYTE   PATT
  POIN2 Label_0167E305
//  #08 //119   ----------------------------------------
 BYTE   PATT
  POIN2 Label_0167E318
//  #08 //120   ----------------------------------------
 BYTE   PATT
  POIN2 Label_0167E323
//  #08 //121   ----------------------------------------
 BYTE   PATT
  POIN2 Label_0167E32F
//  #08 //122   ----------------------------------------
 BYTE   EOT
 BYTE   Dn2
 BYTE   W01
//  #08 //123   ----------------------------------------
 BYTE   PATT
  POIN2 Label_0167E2D1
//  #08 //124   ----------------------------------------
 BYTE   PATT
  POIN2 Label_0167E2DE
//  #08 //125   ----------------------------------------
 BYTE   PATT
  POIN2 Label_0167E2E7
//  #08 //126   ----------------------------------------
 BYTE   PATT
  POIN2 Label_0167E344
//  #08 //127   ----------------------------------------
 BYTE   PATT
  POIN2 Label_0167E34F
//  #08 //128   ----------------------------------------
 BYTE   PATT
  POIN2 Label_0167E362
//  #08 //129   ----------------------------------------
 BYTE   PATT
  POIN2 Label_0167E36C
//  #08 //130   ----------------------------------------
 BYTE   PATT
  POIN2 Label_0167E379
//  #08 //131   ----------------------------------------
 BYTE   EOT
 BYTE   Dn2
 BYTE   W48
 BYTE   W01
 BYTE   W96
//  #08 //132   ----------------------------------------
 BYTE   W96
//  #08 //133   ----------------------------------------
 BYTE   W96
//  #08 //134   ----------------------------------------
 BYTE   W96
//  #08 //135   ----------------------------------------
 BYTE   W96
//  #08 //136   ----------------------------------------
 BYTE   W96
//  #08 //137   ----------------------------------------
 BYTE   W96
//  #08 //138   ----------------------------------------
 BYTE   W96
//  #08 //139   ----------------------------------------
 BYTE   W96
//  #08 //140   ----------------------------------------
 BYTE   W96
//  #08 //141   ----------------------------------------
 BYTE   W96
//  #08 //142   ----------------------------------------
 BYTE   W96
//  #08 //143   ----------------------------------------
 BYTE   W96
//  #08 //144   ----------------------------------------
 BYTE   W96
//  #08 //145   ----------------------------------------
 BYTE   W96
//  #08 //146   ----------------------------------------
 BYTE   W96
//  #08 //147   ----------------------------------------
 BYTE   W96
//  #08 //148   ----------------------------------------
 BYTE   W96
//  #08 //149   ----------------------------------------
 BYTE   W96
//  #08 //150   ----------------------------------------
 BYTE   W96
//  #08 //151   ----------------------------------------
 BYTE   W96
//  #08 //152   ----------------------------------------
 BYTE   W96
//  #08 //153   ----------------------------------------
 BYTE   W96
//  #08 //154   ----------------------------------------
 BYTE   W96
//  #08 //155   ----------------------------------------
 BYTE   PATT
  POIN2 Label_0167E2D1
//  #08 //156   ----------------------------------------
 BYTE   PATT
  POIN2 Label_0167E2DE
//  #08 //157   ----------------------------------------
 BYTE   PATT
  POIN2 Label_0167E2E7
//  #08 //158   ----------------------------------------
 BYTE   PATT
  POIN2 Label_0167E2FA
//  #08 //159   ----------------------------------------
 BYTE   PATT
  POIN2 Label_0167E305
//  #08 //160   ----------------------------------------
 BYTE   PATT
  POIN2 Label_0167E318
//  #08 //161   ----------------------------------------
 BYTE   PATT
  POIN2 Label_0167E323
//  #08 //162   ----------------------------------------
 BYTE   PATT
  POIN2 Label_0167E32F
//  #08 //163   ----------------------------------------
 BYTE   EOT
 BYTE   Dn2
 BYTE   W01
//  #08 //164   ----------------------------------------
 BYTE   PATT
  POIN2 Label_0167E2D1
//  #08 //165   ----------------------------------------
 BYTE   PATT
  POIN2 Label_0167E2DE
//  #08 //166   ----------------------------------------
 BYTE   PATT
  POIN2 Label_0167E2E7
//  #08 //167   ----------------------------------------
 BYTE   PATT
  POIN2 Label_0167E344
//  #08 //168   ----------------------------------------
 BYTE   PATT
  POIN2 Label_0167E34F
//  #08 //169   ----------------------------------------
 BYTE   PATT
  POIN2 Label_0167E362
//  #08 //170   ----------------------------------------
 BYTE   PATT
  POIN2 Label_0167E36C
//  #08 //171   ----------------------------------------
 BYTE   PATT
  POIN2 Label_0167E379
//  #08 //172   ----------------------------------------
 BYTE   EOT
 BYTE   Dn2
 BYTE   W48
 BYTE   W01
 BYTE   W96
//  #08 //173   ----------------------------------------
 BYTE   W96
//  #08 //174   ----------------------------------------
 BYTE   W96
//  #08 //175   ----------------------------------------
 BYTE   W96
//  #08 //176   ----------------------------------------
 BYTE   W96
//  #08 //177   ----------------------------------------
 BYTE   W96
//  #08 //178   ----------------------------------------
 BYTE   W96
//  #08 //179   ----------------------------------------
 BYTE   W96
//  #08 //180   ----------------------------------------
 BYTE   W96
//  #08 //181   ----------------------------------------
 BYTE   W96
//  #08 //182   ----------------------------------------
 BYTE   W96
//  #08 //183   ----------------------------------------
 BYTE   W96
//  #08 //184   ----------------------------------------
 BYTE   W96
//  #08 //185   ----------------------------------------
 BYTE   W96
//  #08 //186   ----------------------------------------
 BYTE   W96
//  #08 //187   ----------------------------------------
 BYTE   W96
//  #08 //188   ----------------------------------------
 BYTE   PATT
  POIN2 Label_0167E3FF
//  #08 //189   ----------------------------------------
 BYTE   PATT
  POIN2 Label_0167E40A
//  #08 //190   ----------------------------------------
 BYTE   PATT
  POIN2 Label_0167E41B
//  #08 //191   ----------------------------------------
 BYTE   PATT
  POIN2 Label_0167E42C
//  #08 //192   ----------------------------------------
 BYTE   PATT
  POIN2 Label_0167E43F
//  #08 //193   ----------------------------------------
 BYTE   PATT
  POIN2 Label_0167E450
//  #08 //194   ----------------------------------------
 BYTE   PATT
  POIN2 Label_0167E41B
//  #08 //195   ----------------------------------------
 BYTE   PATT
  POIN2 Label_0167E466
//  #08 //196   ----------------------------------------
 BYTE   PATT
  POIN2 Label_0167E473
//  #08 //197   ----------------------------------------
 BYTE   PATT
  POIN2 Label_0167E40A
//  #08 //198   ----------------------------------------
 BYTE   PATT
  POIN2 Label_0167E41B
//  #08 //199   ----------------------------------------
 BYTE   PATT
  POIN2 Label_0167E42C
//  #08 //200   ----------------------------------------
 BYTE   PATT
  POIN2 Label_0167E48D
//  #08 //201   ----------------------------------------
 BYTE   PATT
  POIN2 Label_0167E49E
//  #08 //202   ----------------------------------------
 BYTE   PATT
  POIN2 Label_0167E4AE
//  #08 //203   ----------------------------------------
 BYTE   PATT
  POIN2 Label_0167E4C4
//  #08 //204   ----------------------------------------
 BYTE   PATT
  POIN2 Label_0167E4D2
//  #08 //205   ----------------------------------------
 BYTE   W96
//  #08 //206   ----------------------------------------
 BYTE   PATT
  POIN2 Label_0167E379
//  #08 //207   ----------------------------------------
 BYTE   EOT
 BYTE   Dn3
 BYTE   W48
 BYTE   W01
 BYTE   W96
//  #08 //208   ----------------------------------------
 BYTE   W96
//  #08 //209   ----------------------------------------
 BYTE   W96
//  #08 //210   ----------------------------------------
 BYTE   W96
//  #08 //211   ----------------------------------------
 BYTE   W92
 BYTE   W03
 BYTE   FINE

//**************** Track 9 (Midi-Chn.8) ****************//

PointOfNoReturn_Song_009:
//  #09 //000   ----------------------------------------
 BYTE   KEYSH   PointOfNoReturn_Song_key+0
 BYTE   VOICE   100
 BYTE   VOL   40*PointOfNoReturn_Song_mvl/mxv
 BYTE   PAN   c_v+0
 BYTE   VOL   67*PointOfNoReturn_Song_mvl/mxv
 BYTE   PAN   c_v+0
 BYTE   VOL   40*PointOfNoReturn_Song_mvl/mxv
 BYTE   PAN   c_v+0
 BYTE   W24
Label_012B52CD:
 BYTE   TIE  Cn0  v100
 BYTE   W96
 BYTE   PEND 
//  #09 //001   ----------------------------------------
 BYTE   W96
//  #09 //002   ----------------------------------------
 BYTE   W96
//  #09 //003   ----------------------------------------
Label_012B52D4:
 BYTE   W92
 BYTE   W03
 BYTE   PEND 
 BYTE   EOT
 BYTE   Cn0
 BYTE   W01
//  #09 //004   ----------------------------------------
Label_012B52DA:
 BYTE   W12
 BYTE   N05  Cn3  v080
 BYTE   W12
 BYTE   As3
 BYTE   W06
 BYTE   Cn3  v040
 BYTE   W06
 BYTE   Gn3  v080
 BYTE   W06
 BYTE   As3  v040
 BYTE   N05  Dn4  v080
 BYTE   W12
 BYTE   Gn3  v040
 BYTE   N05  Fn4  v080
 BYTE   W06
 BYTE   As3
 BYTE   N05  Dn4  v040
 BYTE   W12
 BYTE   Cn4  v080
 BYTE   N05  Fn4  v040
 BYTE   W06
 BYTE   As3
 BYTE   W06
 BYTE   Fn3  v080
 BYTE   W06
 BYTE   Cn4  v040
 BYTE   W06
 BYTE   PEND 
//  #09 //005   ----------------------------------------
Label_012B5307:
 BYTE   W06
 BYTE   N08  Fn3  v040
 BYTE   W06
 BYTE   N05  Cn3  v080
 BYTE   W12
 BYTE   As3
 BYTE   W06
 BYTE   Cn3  v040
 BYTE   W06
 BYTE   Gn3  v080
 BYTE   W06
 BYTE   As3  v040
 BYTE   N05  Dn4  v080
 BYTE   W12
 BYTE   Gn3  v040
 BYTE   N05  Fn4  v080
 BYTE   W06
 BYTE   As3
 BYTE   N05  Dn4  v040
 BYTE   W12
 BYTE   Cn4  v080
 BYTE   N05  Fn4  v040
 BYTE   W06
 BYTE   As3
 BYTE   W06
 BYTE   Fn3  v080
 BYTE   W06
 BYTE   Cn4  v040
 BYTE   W06
 BYTE   PEND 
//  #09 //006   ----------------------------------------
 BYTE   PATT
  POIN2 Label_012B5307
//  #09 //007   ----------------------------------------
 BYTE   PATT
  POIN2 Label_012B5307
//  #09 //008   ----------------------------------------
Label_012B5342:
 BYTE   W06
 BYTE   N08  Fn3  v040
 BYTE   W06
 BYTE   N05  Ds3  v080
 BYTE   W12
 BYTE   Cn4
 BYTE   W06
 BYTE   Ds3  v040
 BYTE   W06
 BYTE   Gs3  v080
 BYTE   W06
 BYTE   Cn4  v040
 BYTE   N05  Ds4  v080
 BYTE   W12
 BYTE   Gs3  v040
 BYTE   N05  Gn4  v080
 BYTE   W06
 BYTE   As3
 BYTE   N05  Ds4  v040
 BYTE   W12
 BYTE   Cn4  v080
 BYTE   N05  Gn4  v040
 BYTE   W06
 BYTE   As3
 BYTE   W06
 BYTE   Gn3  v080
 BYTE   W06
 BYTE   Cn4  v040
 BYTE   W06
 BYTE   PEND 
//  #09 //009   ----------------------------------------
Label_012B5373:
 BYTE   W06
 BYTE   N08  Gn3  v040
 BYTE   W06
 BYTE   N05  Cn3  v080
 BYTE   W12
 BYTE   As3
 BYTE   W06
 BYTE   Cn3  v040
 BYTE   W06
 BYTE   Fn3  v080
 BYTE   W06
 BYTE   As3  v040
 BYTE   N05  Dn4  v080
 BYTE   W12
 BYTE   Fn3  v040
 BYTE   N05  Fn4  v080
 BYTE   W06
 BYTE   Gs3
 BYTE   N05  Dn4  v040
 BYTE   W12
 BYTE   Bn3  v080
 BYTE   N05  Fn4  v040
 BYTE   W06
 BYTE   Gs3
 BYTE   W06
 BYTE   Ds3  v080
 BYTE   W06
 BYTE   Bn3  v040
 BYTE   W06
 BYTE   PEND 
//  #09 //010   ----------------------------------------
Label_012B53A4:
 BYTE   W06
 BYTE   N08  Ds3  v040
 BYTE   W06
 BYTE   N05  Cn3  v080
 BYTE   W12
 BYTE   As3
 BYTE   W06
 BYTE   Cn3  v040
 BYTE   W06
 BYTE   Gn3  v080
 BYTE   W06
 BYTE   As3  v040
 BYTE   N05  Dn4  v080
 BYTE   W12
 BYTE   Gn3  v040
 BYTE   N05  Fn4  v080
 BYTE   W06
 BYTE   As3
 BYTE   N05  Dn4  v040
 BYTE   W12
 BYTE   Cn4  v080
 BYTE   N05  Fn4  v040
 BYTE   W06
 BYTE   As3
 BYTE   W06
 BYTE   Fn3  v080
 BYTE   W06
 BYTE   Cn4  v040
 BYTE   W06
 BYTE   PEND 
//  #09 //011   ----------------------------------------
 BYTE   PATT
  POIN2 Label_012B5307
//  #09 //012   ----------------------------------------
Label_012B53DA:
//  #09 //013   ----------------------------------------
 BYTE   PATT
  POIN2 Label_012B5307
//  #09 //014   ----------------------------------------
 BYTE   PATT
  POIN2 Label_012B5307
//  #09 //015   ----------------------------------------
 BYTE   PATT
  POIN2 Label_012B5307
//  #09 //016   ----------------------------------------
 BYTE   PATT
  POIN2 Label_012B5307
//  #09 //017   ----------------------------------------
 BYTE   PATT
  POIN2 Label_012B5342
//  #09 //018   ----------------------------------------
 BYTE   PATT
  POIN2 Label_012B5373
//  #09 //019   ----------------------------------------
 BYTE   PATT
  POIN2 Label_012B53A4
//  #09 //020   ----------------------------------------
 BYTE   PATT
  POIN2 Label_012B5307
//  #09 //021   ----------------------------------------
 BYTE   PATT
  POIN2 Label_012B5307
//  #09 //022   ----------------------------------------
 BYTE   PATT
  POIN2 Label_012B5307
//  #09 //023   ----------------------------------------
 BYTE   PATT
  POIN2 Label_012B5307
//  #09 //024   ----------------------------------------
 BYTE   PATT
  POIN2 Label_012B5307
//  #09 //025   ----------------------------------------
 BYTE   PATT
  POIN2 Label_012B5342
//  #09 //026   ----------------------------------------
 BYTE   PATT
  POIN2 Label_012B5373
//  #09 //027   ----------------------------------------
 BYTE   PATT
  POIN2 Label_012B53A4
//  #09 //028   ----------------------------------------
 BYTE   W06
 BYTE   N08  Fn3  v040
 BYTE   W90
//  #09 //029   ----------------------------------------
 BYTE   W96
//  #09 //030   ----------------------------------------
 BYTE   W96
//  #09 //031   ----------------------------------------
 BYTE   W96
//  #09 //032   ----------------------------------------
 BYTE   W96
//  #09 //033   ----------------------------------------
 BYTE   W96
//  #09 //034   ----------------------------------------
 BYTE   W96
//  #09 //035   ----------------------------------------
 BYTE   W96
//  #09 //036   ----------------------------------------
 BYTE   W96
//  #09 //037   ----------------------------------------
 BYTE   W96
//  #09 //038   ----------------------------------------
 BYTE   W96
//  #09 //039   ----------------------------------------
 BYTE   W96
//  #09 //040   ----------------------------------------
 BYTE   W96
//  #09 //041   ----------------------------------------
 BYTE   W96
//  #09 //042   ----------------------------------------
 BYTE   W96
//  #09 //043   ----------------------------------------
 BYTE   W96
//  #09 //044   ----------------------------------------
 BYTE   W96
//  #09 //045   ----------------------------------------
 BYTE   PATT
  POIN2 Label_012B52DA
//  #09 //046   ----------------------------------------
 BYTE   PATT
  POIN2 Label_012B5307
//  #09 //047   ----------------------------------------
 BYTE   PATT
  POIN2 Label_012B5307
//  #09 //048   ----------------------------------------
 BYTE   PATT
  POIN2 Label_012B5307
//  #09 //049   ----------------------------------------
 BYTE   PATT
  POIN2 Label_012B5342
//  #09 //050   ----------------------------------------
 BYTE   PATT
  POIN2 Label_012B5373
//  #09 //051   ----------------------------------------
 BYTE   PATT
  POIN2 Label_012B53A4
//  #09 //052   ----------------------------------------
 BYTE   PATT
  POIN2 Label_012B5307
//  #09 //053   ----------------------------------------
 BYTE   PATT
  POIN2 Label_012B5307
//  #09 //054   ----------------------------------------
 BYTE   PATT
  POIN2 Label_012B5307
//  #09 //055   ----------------------------------------
 BYTE   PATT
  POIN2 Label_012B5307
//  #09 //056   ----------------------------------------
 BYTE   PATT
  POIN2 Label_012B5307
//  #09 //057   ----------------------------------------
 BYTE   PATT
  POIN2 Label_012B5342
//  #09 //058   ----------------------------------------
 BYTE   PATT
  POIN2 Label_012B5373
//  #09 //059   ----------------------------------------
 BYTE   PATT
  POIN2 Label_012B53A4
//  #09 //060   ----------------------------------------
 BYTE   PATT
  POIN2 Label_012B5307
//  #09 //061   ----------------------------------------
 BYTE   PATT
  POIN2 Label_012B5307
//  #09 //062   ----------------------------------------
 BYTE   PATT
  POIN2 Label_012B5307
//  #09 //063   ----------------------------------------
 BYTE   PATT
  POIN2 Label_012B5307
//  #09 //064   ----------------------------------------
 BYTE   PATT
  POIN2 Label_012B5307
//  #09 //065   ----------------------------------------
 BYTE   PATT
  POIN2 Label_012B5342
//  #09 //066   ----------------------------------------
 BYTE   PATT
  POIN2 Label_012B5373
//  #09 //067   ----------------------------------------
 BYTE   PATT
  POIN2 Label_012B53A4
//  #09 //068   ----------------------------------------
 BYTE   W06
 BYTE   N08  Fn3  v040
 BYTE   W90
//  #09 //069   ----------------------------------------
 BYTE   W96
//  #09 //070   ----------------------------------------
 BYTE   W96
//  #09 //071   ----------------------------------------
 BYTE   W96
//  #09 //072   ----------------------------------------
 BYTE   W96
//  #09 //073   ----------------------------------------
 BYTE   W96
//  #09 //074   ----------------------------------------
 BYTE   W96
//  #09 //075   ----------------------------------------
 BYTE   W96
//  #09 //076   ----------------------------------------
 BYTE   W96
//  #09 //077   ----------------------------------------
 BYTE   W96
//  #09 //078   ----------------------------------------
 BYTE   W96
//  #09 //079   ----------------------------------------
 BYTE   W96
//  #09 //080   ----------------------------------------
 BYTE   W96
//  #09 //081   ----------------------------------------
 BYTE   W96
//  #09 //082   ----------------------------------------
 BYTE   W96
//  #09 //083   ----------------------------------------
 BYTE   W96
//  #09 //084   ----------------------------------------
 BYTE   W96
//  #09 //085   ----------------------------------------
Label_012B54C2:
 BYTE   N05  Cn3  v080
 BYTE   W12
 BYTE   Gn3
 BYTE   W06
 BYTE   N02  Cn3  v040
 BYTE   W06
 BYTE   N05  Cn4  v080
 BYTE   W06
 BYTE   Gn3  v040
 BYTE   W06
 BYTE   Ds4  v080
 BYTE   W06
 BYTE   N02  Cn4  v040
 BYTE   W06
 BYTE   N05  Gn4  v080
 BYTE   W06
 BYTE   Ds4  v040
 BYTE   W06
 BYTE   Cn5  v080
 BYTE   W06
 BYTE   N02  Gn4  v040
 BYTE   W06
 BYTE   N05  Ds5  v080
 BYTE   W06
 BYTE   Cn5  v040
 BYTE   W06
 BYTE   Gn5  v080
 BYTE   W06
 BYTE   N02  Ds5  v040
 BYTE   W06
 BYTE   PEND 
//  #09 //086   ----------------------------------------
Label_012B54F7:
 BYTE   N05  As2  v080
 BYTE   W06
 BYTE   Gn5  v040
 BYTE   W06
 BYTE   Fn3  v080
 BYTE   W06
 BYTE   N02  As2  v040
 BYTE   W06
 BYTE   N05  As3  v080
 BYTE   W06
 BYTE   Fn3  v040
 BYTE   W06
 BYTE   Dn4  v080
 BYTE   W06
 BYTE   N02  As3  v040
 BYTE   W06
 BYTE   N05  Fn4  v080
 BYTE   W06
 BYTE   Dn4  v040
 BYTE   W06
 BYTE   As4  v080
 BYTE   W06
 BYTE   N02  Fn4  v040
 BYTE   W06
 BYTE   N05  Dn5  v080
 BYTE   W06
 BYTE   As4  v040
 BYTE   W06
 BYTE   Fn5  v080
 BYTE   W06
 BYTE   N02  Dn5  v040
 BYTE   W06
 BYTE   PEND 
//  #09 //087   ----------------------------------------
Label_012B5530:
 BYTE   N05  Cn3  v080
 BYTE   W06
 BYTE   Fn5  v040
 BYTE   W06
 BYTE   Gn3  v080
 BYTE   W06
 BYTE   N02  Cn3  v040
 BYTE   W06
 BYTE   N05  Cn4  v080
 BYTE   W06
 BYTE   Gn3  v040
 BYTE   W06
 BYTE   Ds4  v080
 BYTE   W06
 BYTE   N02  Cn4  v040
 BYTE   W06
 BYTE   N05  Gn4  v080
 BYTE   W06
 BYTE   Ds4  v040
 BYTE   W06
 BYTE   Cn5  v080
 BYTE   W06
 BYTE   N02  Gn4  v040
 BYTE   W06
 BYTE   N05  Ds5  v080
 BYTE   W06
 BYTE   Cn5  v040
 BYTE   W06
 BYTE   Gn5  v080
 BYTE   W06
 BYTE   N02  Ds5  v040
 BYTE   W06
 BYTE   PEND 
//  #09 //088   ----------------------------------------
 BYTE   PATT
  POIN2 Label_012B54F7
//  #09 //089   ----------------------------------------
Label_012B556E:
 BYTE   N05  Cn3  v080
 BYTE   W06
 BYTE   Fn5  v040
 BYTE   W06
 BYTE   Gs3  v080
 BYTE   W06
 BYTE   N02  Cn3  v040
 BYTE   W06
 BYTE   N05  Cn4  v080
 BYTE   W06
 BYTE   Gs3  v040
 BYTE   W06
 BYTE   Ds4  v080
 BYTE   W06
 BYTE   N02  Cn4  v040
 BYTE   W06
 BYTE   N05  Gs4  v080
 BYTE   W06
 BYTE   Ds4  v040
 BYTE   W06
 BYTE   Cn5  v080
 BYTE   W06
 BYTE   N02  Gs4  v040
 BYTE   W06
 BYTE   N05  Ds5  v080
 BYTE   W06
 BYTE   Cn5  v040
 BYTE   W06
 BYTE   Gs5  v080
 BYTE   W06
 BYTE   N02  Ds5  v040
 BYTE   W06
 BYTE   PEND 
//  #09 //090   ----------------------------------------
Label_012B55A7:
 BYTE   N05  Cn3  v080
 BYTE   W06
 BYTE   Gs5  v040
 BYTE   W06
 BYTE   Gn3  v080
 BYTE   W06
 BYTE   N02  Cn3  v040
 BYTE   W06
 BYTE   N05  Cn4  v080
 BYTE   W06
 BYTE   Gn3  v040
 BYTE   W06
 BYTE   Ds4  v080
 BYTE   W06
 BYTE   N02  Cn4  v040
 BYTE   W06
 BYTE   N05  Gn4  v080
 BYTE   W06
 BYTE   Ds4  v040
 BYTE   W06
 BYTE   Cn5  v080
 BYTE   W06
 BYTE   N02  Gn4  v040
 BYTE   W06
 BYTE   N05  Ds5  v080
 BYTE   W06
 BYTE   Cn5  v040
 BYTE   W06
 BYTE   Gn5  v080
 BYTE   W06
 BYTE   N02  Ds5  v040
 BYTE   W06
 BYTE   PEND 
//  #09 //091   ----------------------------------------
Label_012B55E0:
 BYTE   N05  Cn3  v080
 BYTE   W06
 BYTE   Gn5  v040
 BYTE   W06
 BYTE   Gs3  v080
 BYTE   W06
 BYTE   N02  Cn3  v040
 BYTE   W06
 BYTE   N05  Cn4  v080
 BYTE   W06
 BYTE   Gs3  v040
 BYTE   W06
 BYTE   Ds4  v080
 BYTE   W06
 BYTE   N02  Cn4  v040
 BYTE   W06
 BYTE   N05  Gs4  v080
 BYTE   W06
 BYTE   Ds4  v040
 BYTE   W06
 BYTE   Cn5  v080
 BYTE   W06
 BYTE   N02  Gs4  v040
 BYTE   W06
 BYTE   N05  Ds5  v080
 BYTE   W06
 BYTE   Cn5  v040
 BYTE   W06
 BYTE   Gs5  v080
 BYTE   W06
 BYTE   N02  Ds5  v040
 BYTE   W06
 BYTE   PEND 
//  #09 //092   ----------------------------------------
Label_012B5619:
 BYTE   N05  Bn2  v080
 BYTE   W06
 BYTE   Gs5  v040
 BYTE   W06
 BYTE   Gn3  v080
 BYTE   W06
 BYTE   N02  Bn2  v040
 BYTE   W06
 BYTE   N05  Bn3  v080
 BYTE   W06
 BYTE   Gn3  v040
 BYTE   W06
 BYTE   Dn4  v080
 BYTE   W06
 BYTE   N02  Bn3  v040
 BYTE   W06
 BYTE   N05  Gn4  v080
 BYTE   W06
 BYTE   Dn4  v040
 BYTE   W06
 BYTE   Bn4  v080
 BYTE   W06
 BYTE   N02  Gn4  v040
 BYTE   W06
 BYTE   N05  Dn5  v080
 BYTE   W06
 BYTE   Bn4  v040
 BYTE   W06
 BYTE   Gn5  v080
 BYTE   W06
 BYTE   N02  Dn5  v040
 BYTE   W06
 BYTE   PEND 
//  #09 //093   ----------------------------------------
Label_012B5652:
 BYTE   N05  Cn3  v080
 BYTE   W06
 BYTE   Gn5  v040
 BYTE   W06
 BYTE   Gn3  v080
 BYTE   W06
 BYTE   N02  Cn3  v040
 BYTE   W06
 BYTE   N05  Cn4  v080
 BYTE   W06
 BYTE   Gn3  v040
 BYTE   W06
 BYTE   Ds4  v080
 BYTE   W06
 BYTE   N02  Cn4  v040
 BYTE   W06
 BYTE   N05  Gn4  v080
 BYTE   W06
 BYTE   Ds4  v040
 BYTE   W06
 BYTE   Cn5  v080
 BYTE   W06
 BYTE   N02  Gn4  v040
 BYTE   W06
 BYTE   N05  Ds5  v080
 BYTE   W06
 BYTE   Cn5  v040
 BYTE   W06
 BYTE   Gn5  v080
 BYTE   W06
 BYTE   N02  Ds5  v040
 BYTE   W06
 BYTE   PEND 
//  #09 //094   ----------------------------------------
 BYTE   PATT
  POIN2 Label_012B54F7
//  #09 //095   ----------------------------------------
 BYTE   PATT
  POIN2 Label_012B5530
//  #09 //096   ----------------------------------------
 BYTE   PATT
  POIN2 Label_012B54F7
//  #09 //097   ----------------------------------------
 BYTE   PATT
  POIN2 Label_012B556E
//  #09 //098   ----------------------------------------
 BYTE   PATT
  POIN2 Label_012B55A7
//  #09 //099   ----------------------------------------
 BYTE   PATT
  POIN2 Label_012B55E0
//  #09 //100   ----------------------------------------
 BYTE   PATT
  POIN2 Label_012B5619
//  #09 //101   ----------------------------------------
 BYTE   PATT
  POIN2 Label_012B52CD
//  #09 //102   ----------------------------------------
 BYTE   W96
//  #09 //103   ----------------------------------------
 BYTE   W96
//  #09 //104   ----------------------------------------
 BYTE   PATT
  POIN2 Label_012B52D4
//  #09 //105   ----------------------------------------
 BYTE   EOT
 BYTE   Cn0
 BYTE   W01
//  #09 //106   ----------------------------------------
 BYTE   PATT
  POIN2 Label_012B52DA
//  #09 //107   ----------------------------------------
 BYTE   PATT
  POIN2 Label_012B5307
//  #09 //108   ----------------------------------------
 BYTE   PATT
  POIN2 Label_012B5307
//  #09 //109   ----------------------------------------
 BYTE   PATT
  POIN2 Label_012B5307
//  #09 //110   ----------------------------------------
 BYTE   PATT
  POIN2 Label_012B5342
//  #09 //111   ----------------------------------------
 BYTE   PATT
  POIN2 Label_012B5373
//  #09 //112   ----------------------------------------
 BYTE   PATT
  POIN2 Label_012B53A4
//  #09 //113   ----------------------------------------
 BYTE   PATT
  POIN2 Label_012B5307
//  #09 //114   ----------------------------------------
 BYTE   GoTo
  POIN2 Label_012B53DA
//  #09 //115   ----------------------------------------
 BYTE   PATT
  POIN2 Label_012B5307
//  #09 //116   ----------------------------------------
 BYTE   PATT
  POIN2 Label_012B5307
//  #09 //117   ----------------------------------------
 BYTE   PATT
  POIN2 Label_012B5307
//  #09 //118   ----------------------------------------
 BYTE   PATT
  POIN2 Label_012B5307
//  #09 //119   ----------------------------------------
 BYTE   PATT
  POIN2 Label_012B5342
//  #09 //120   ----------------------------------------
 BYTE   PATT
  POIN2 Label_012B5373
//  #09 //121   ----------------------------------------
 BYTE   PATT
  POIN2 Label_012B53A4
//  #09 //122   ----------------------------------------
 BYTE   PATT
  POIN2 Label_012B5307
//  #09 //123   ----------------------------------------
 BYTE   PATT
  POIN2 Label_012B5307
//  #09 //124   ----------------------------------------
 BYTE   PATT
  POIN2 Label_012B5307
//  #09 //125   ----------------------------------------
 BYTE   PATT
  POIN2 Label_012B5307
//  #09 //126   ----------------------------------------
 BYTE   PATT
  POIN2 Label_012B5307
//  #09 //127   ----------------------------------------
 BYTE   PATT
  POIN2 Label_012B5342
//  #09 //128   ----------------------------------------
 BYTE   PATT
  POIN2 Label_012B5373
//  #09 //129   ----------------------------------------
 BYTE   PATT
  POIN2 Label_012B53A4
//  #09 //130   ----------------------------------------
 BYTE   W06
 BYTE   N08  Fn3  v040
 BYTE   W90
//  #09 //131   ----------------------------------------
 BYTE   W96
//  #09 //132   ----------------------------------------
 BYTE   W96
//  #09 //133   ----------------------------------------
 BYTE   W96
//  #09 //134   ----------------------------------------
 BYTE   W96
//  #09 //135   ----------------------------------------
 BYTE   W96
//  #09 //136   ----------------------------------------
 BYTE   W96
//  #09 //137   ----------------------------------------
 BYTE   W96
//  #09 //138   ----------------------------------------
 BYTE   W96
//  #09 //139   ----------------------------------------
 BYTE   W96
//  #09 //140   ----------------------------------------
 BYTE   W96
//  #09 //141   ----------------------------------------
 BYTE   W96
//  #09 //142   ----------------------------------------
 BYTE   W96
//  #09 //143   ----------------------------------------
 BYTE   W96
//  #09 //144   ----------------------------------------
 BYTE   W96
//  #09 //145   ----------------------------------------
 BYTE   W96
//  #09 //146   ----------------------------------------
 BYTE   W96
//  #09 //147   ----------------------------------------
 BYTE   PATT
  POIN2 Label_012B52DA
//  #09 //148   ----------------------------------------
 BYTE   PATT
  POIN2 Label_012B5307
//  #09 //149   ----------------------------------------
 BYTE   PATT
  POIN2 Label_012B5307
//  #09 //150   ----------------------------------------
 BYTE   PATT
  POIN2 Label_012B5307
//  #09 //151   ----------------------------------------
 BYTE   PATT
  POIN2 Label_012B5342
//  #09 //152   ----------------------------------------
 BYTE   PATT
  POIN2 Label_012B5373
//  #09 //153   ----------------------------------------
 BYTE   PATT
  POIN2 Label_012B53A4
//  #09 //154   ----------------------------------------
 BYTE   PATT
  POIN2 Label_012B5307
//  #09 //155   ----------------------------------------
 BYTE   PATT
  POIN2 Label_012B5307
//  #09 //156   ----------------------------------------
 BYTE   PATT
  POIN2 Label_012B5307
//  #09 //157   ----------------------------------------
 BYTE   PATT
  POIN2 Label_012B5307
//  #09 //158   ----------------------------------------
 BYTE   PATT
  POIN2 Label_012B5307
//  #09 //159   ----------------------------------------
 BYTE   PATT
  POIN2 Label_012B5342
//  #09 //160   ----------------------------------------
 BYTE   PATT
  POIN2 Label_012B5373
//  #09 //161   ----------------------------------------
 BYTE   PATT
  POIN2 Label_012B53A4
//  #09 //162   ----------------------------------------
 BYTE   PATT
  POIN2 Label_012B5307
//  #09 //163   ----------------------------------------
 BYTE   PATT
  POIN2 Label_012B5307
//  #09 //164   ----------------------------------------
 BYTE   PATT
  POIN2 Label_012B5307
//  #09 //165   ----------------------------------------
 BYTE   PATT
  POIN2 Label_012B5307
//  #09 //166   ----------------------------------------
 BYTE   PATT
  POIN2 Label_012B5307
//  #09 //167   ----------------------------------------
 BYTE   PATT
  POIN2 Label_012B5342
//  #09 //168   ----------------------------------------
 BYTE   PATT
  POIN2 Label_012B5373
//  #09 //169   ----------------------------------------
 BYTE   PATT
  POIN2 Label_012B53A4
//  #09 //170   ----------------------------------------
 BYTE   W06
 BYTE   N08  Fn3  v040
 BYTE   W90
//  #09 //171   ----------------------------------------
 BYTE   W96
//  #09 //172   ----------------------------------------
 BYTE   W96
//  #09 //173   ----------------------------------------
 BYTE   W96
//  #09 //174   ----------------------------------------
 BYTE   W96
//  #09 //175   ----------------------------------------
 BYTE   W96
//  #09 //176   ----------------------------------------
 BYTE   W96
//  #09 //177   ----------------------------------------
 BYTE   W96
//  #09 //178   ----------------------------------------
 BYTE   W96
//  #09 //179   ----------------------------------------
 BYTE   W96
//  #09 //180   ----------------------------------------
 BYTE   W96
//  #09 //181   ----------------------------------------
 BYTE   W96
//  #09 //182   ----------------------------------------
 BYTE   W96
//  #09 //183   ----------------------------------------
 BYTE   W96
//  #09 //184   ----------------------------------------
 BYTE   W96
//  #09 //185   ----------------------------------------
 BYTE   W96
//  #09 //186   ----------------------------------------
 BYTE   W96
//  #09 //187   ----------------------------------------
 BYTE   PATT
  POIN2 Label_012B54C2
//  #09 //188   ----------------------------------------
 BYTE   PATT
  POIN2 Label_012B54F7
//  #09 //189   ----------------------------------------
 BYTE   PATT
  POIN2 Label_012B5530
//  #09 //190   ----------------------------------------
 BYTE   PATT
  POIN2 Label_012B54F7
//  #09 //191   ----------------------------------------
 BYTE   PATT
  POIN2 Label_012B556E
//  #09 //192   ----------------------------------------
 BYTE   PATT
  POIN2 Label_012B55A7
//  #09 //193   ----------------------------------------
 BYTE   PATT
  POIN2 Label_012B55E0
//  #09 //194   ----------------------------------------
 BYTE   PATT
  POIN2 Label_012B5619
//  #09 //195   ----------------------------------------
 BYTE   PATT
  POIN2 Label_012B5652
//  #09 //196   ----------------------------------------
 BYTE   PATT
  POIN2 Label_012B54F7
//  #09 //197   ----------------------------------------
 BYTE   PATT
  POIN2 Label_012B5530
//  #09 //198   ----------------------------------------
 BYTE   PATT
  POIN2 Label_012B54F7
//  #09 //199   ----------------------------------------
 BYTE   PATT
  POIN2 Label_012B556E
//  #09 //200   ----------------------------------------
 BYTE   PATT
  POIN2 Label_012B55A7
//  #09 //201   ----------------------------------------
 BYTE   PATT
  POIN2 Label_012B55E0
//  #09 //202   ----------------------------------------
 BYTE   PATT
  POIN2 Label_012B5619
//  #09 //203   ----------------------------------------
 BYTE   PATT
  POIN2 Label_012B52CD
//  #09 //204   ----------------------------------------
 BYTE   W96
//  #09 //205   ----------------------------------------
 BYTE   W96
//  #09 //206   ----------------------------------------
 BYTE   PATT
  POIN2 Label_012B52D4
//  #09 //207   ----------------------------------------
 BYTE   EOT
 BYTE   Cn0
 BYTE   W01
//  #09 //208   ----------------------------------------
 BYTE   PATT
  POIN2 Label_012B52DA
//  #09 //209   ----------------------------------------
 BYTE   PATT
  POIN2 Label_012B5307
//  #09 //210   ----------------------------------------
 BYTE   PATT
  POIN2 Label_012B5307
//  #09 //211   ----------------------------------------
 BYTE   W06
 BYTE   N08  Fn3  v040
 BYTE   W06
 BYTE   N05  Cn3  v080
 BYTE   W12
 BYTE   As3
 BYTE   W06
 BYTE   Cn3  v040
 BYTE   W06
 BYTE   Gn3  v080
 BYTE   W06
 BYTE   As3  v040
 BYTE   N05  Dn4  v080
 BYTE   W12
 BYTE   Gn3  v040
 BYTE   N05  Fn4  v080
 BYTE   W06
 BYTE   As3
 BYTE   N05  Dn4  v040
 BYTE   W12
 BYTE   Cn4  v080
 BYTE   N05  Fn4  v040
 BYTE   W06
 BYTE   As3
 BYTE   W06
 BYTE   Fn3  v080
 BYTE   W06
 BYTE   Cn4  v040
 BYTE   W05
 BYTE   FINE

//**************** Track 10 (Midi-Chn.9) ****************//

PointOfNoReturn_Song_010:
//  #10 //000   ----------------------------------------
 BYTE   KEYSH   PointOfNoReturn_Song_key+0
 BYTE   VOICE   127
 BYTE   VOL   40*PointOfNoReturn_Song_mvl/mxv
 BYTE   PAN   c_v+0
 BYTE   VOL   40*PointOfNoReturn_Song_mvl/mxv
 BYTE   PAN   c_v+0
 BYTE   VOL   40*PointOfNoReturn_Song_mvl/mxv
 BYTE   PAN   c_v+0
 BYTE   W24
 BYTE   N23  Cn1  v092
 BYTE   N23  Cs2  v088
 BYTE   W18
 BYTE   N05  Fs1  v064
 BYTE   W06
 BYTE   Fs1  v088
 BYTE   N23  Cs2  v004
 BYTE   W06
 BYTE   N05  Fs1  v064
 BYTE   W06
 BYTE   Fs1  v088
 BYTE   W06
 BYTE   As1
 BYTE   W06
 BYTE   Fs1
 BYTE   W06
 BYTE   Fs1  v064
 BYTE   W06
 BYTE   N11  As1  v088
 BYTE   W12
//  #10 //001   ----------------------------------------
 BYTE   N05  Fs1
 BYTE   W06
 BYTE   Fs1  v064
 BYTE   W06
 BYTE   As1  v088
 BYTE   W06
 BYTE   Fs1
 BYTE   W06
Label_01679F2B:
 BYTE   N05  Fs1  v088
 BYTE   W06
 BYTE   Fs1  v064
 BYTE   W06
 BYTE   As1  v088
 BYTE   W06
 BYTE   Fs1  v064
 BYTE   W06
 BYTE   Fs1  v088
 BYTE   W06
 BYTE   Fs1  v064
 BYTE   W06
 BYTE   Fs1  v088
 BYTE   W06
 BYTE   As1
 BYTE   W06
 BYTE   Fs1
 BYTE   W06
 BYTE   Fs1  v064
 BYTE   W06
 BYTE   N11  As1  v088
 BYTE   W12
//  #10 //002   ----------------------------------------
 BYTE   N05  Fs1
 BYTE   W06
 BYTE   Fs1  v064
 BYTE   W06
 BYTE   N11  Cn1  v092
 BYTE   N05  As1  v088
 BYTE   N11  Gn2  v100
 BYTE   W06
 BYTE   N05  Fs1  v088
 BYTE   W06
 BYTE   PEND 
Label_01679F61:
 BYTE   N23  Cn1  v092
 BYTE   N23  Cs2  v088
 BYTE   N23  Gn2  v004
 BYTE   W18
 BYTE   N05  Fs1  v064
 BYTE   W06
 BYTE   Fs1  v088
 BYTE   N23  Cs2  v004
 BYTE   W06
 BYTE   N05  Fs1  v064
 BYTE   W06
 BYTE   Fs1  v088
 BYTE   W06
 BYTE   As1
 BYTE   W06
 BYTE   Fs1
 BYTE   W06
 BYTE   Fs1  v064
 BYTE   W06
 BYTE   N11  As1  v088
 BYTE   W12
//  #10 //003   ----------------------------------------
 BYTE   N05  Fs1
 BYTE   W06
 BYTE   Fs1  v064
 BYTE   W06
 BYTE   As1  v088
 BYTE   W06
 BYTE   Fs1
 BYTE   W06
 BYTE   PEND 
Label_01679F93:
 BYTE   N05  Fs1  v088
 BYTE   W06
 BYTE   Fs1  v064
 BYTE   W06
 BYTE   As1  v088
 BYTE   W06
 BYTE   Fs1  v064
 BYTE   W06
 BYTE   Fs1  v088
 BYTE   W06
 BYTE   Fs1  v064
 BYTE   W06
 BYTE   Fs1  v088
 BYTE   W06
 BYTE   Dn1  v080
 BYTE   N05  As1  v088
 BYTE   W06
 BYTE   Fs1
 BYTE   W06
 BYTE   Cn1  v080
 BYTE   N05  Fs1  v064
 BYTE   W06
 BYTE   N11  Cn1  v092
 BYTE   N11  As1  v088
 BYTE   W11
 BYTE   N01  Dn1  v064
 BYTE   W01
//  #10 //004   ----------------------------------------
 BYTE   N05  Dn1  v080
 BYTE   N05  Fs1  v088
 BYTE   W06
 BYTE   N17  Dn1  v064
 BYTE   N05  Fs1
 BYTE   W06
 BYTE   N11  Cn1  v092
 BYTE   N11  As1  v088
 BYTE   W12
 BYTE   PEND 
Label_01679FD7:
 BYTE   N17  Cn1  v092
 BYTE   N23  Cs2  v088
 BYTE   W18
 BYTE   N05  Cn1  v080
 BYTE   N05  Fs1  v064
 BYTE   W06
 BYTE   N23  Dn1  v080
 BYTE   N05  Fs1  v088
 BYTE   N23  Cs2  v004
 BYTE   W06
 BYTE   N05  Fs1  v064
 BYTE   W06
 BYTE   Cn1  v080
 BYTE   N05  Fs1  v088
 BYTE   W06
 BYTE   Cn1  v092
 BYTE   N05  As1  v088
 BYTE   W06
 BYTE   Fs1
 BYTE   W06
 BYTE   Fs1  v064
 BYTE   W06
 BYTE   N11  Cn1  v080
 BYTE   N11  As1  v088
 BYTE   W12
//  #10 //005   ----------------------------------------
 BYTE   N23  Dn1  v080
 BYTE   N05  Fs1  v088
 BYTE   W06
 BYTE   Fs1  v064
 BYTE   W06
 BYTE   As1  v088
 BYTE   W06
 BYTE   Cn1  v080
 BYTE   N05  Fs1  v064
 BYTE   W06
 BYTE   PEND 
Label_0167A01F:
 BYTE   N17  Cn1  v092
 BYTE   N11  Fs1  v088
 BYTE   W12
 BYTE   N05
 BYTE   W06
 BYTE   Cn1  v080
 BYTE   N05  Fs1  v064
 BYTE   W06
 BYTE   N23  Dn1  v080
 BYTE   N05  Fs1  v088
 BYTE   W06
 BYTE   Fs1  v064
 BYTE   W06
 BYTE   Cn1  v080
 BYTE   N05  Fs1  v088
 BYTE   W06
 BYTE   Cn1  v092
 BYTE   N05  As1  v088
 BYTE   W06
 BYTE   Fs1
 BYTE   W06
 BYTE   N17  Dn1  v064
 BYTE   N05  Fs1
 BYTE   W06
 BYTE   N11  Cn1  v092
 BYTE   N11  As1  v088
 BYTE   W12
//  #10 //006   ----------------------------------------
 BYTE   N23  Dn1  v080
 BYTE   N05  Fs1  v088
 BYTE   W06
 BYTE   Fs1  v064
 BYTE   W06
 BYTE   N11  Cn1  v080
 BYTE   N11  As1  v088
 BYTE   W12
 BYTE   PEND 
Label_0167A065:
 BYTE   N17  Cn1  v092
 BYTE   N11  Fs1  v088
 BYTE   W12
 BYTE   N05
 BYTE   W06
 BYTE   Cn1  v080
 BYTE   N05  Fs1  v064
 BYTE   W06
 BYTE   N23  Dn1  v080
 BYTE   N05  Fs1  v088
 BYTE   W06
 BYTE   Fs1  v064
 BYTE   W06
 BYTE   Cn1  v080
 BYTE   N05  Fs1  v088
 BYTE   W06
 BYTE   Cn1  v092
 BYTE   N05  As1  v088
 BYTE   W06
 BYTE   Fs1
 BYTE   W06
 BYTE   Fs1  v064
 BYTE   W06
 BYTE   N11  Cn1  v080
 BYTE   N11  As1  v088
 BYTE   W12
//  #10 //007   ----------------------------------------
 BYTE   N23  Dn1  v080
 BYTE   N05  Fs1  v088
 BYTE   W06
 BYTE   Fs1  v064
 BYTE   W06
 BYTE   As1  v088
 BYTE   W06
 BYTE   Cn1  v080
 BYTE   N05  Fs1  v064
 BYTE   W06
 BYTE   PEND 
Label_0167A0AA:
 BYTE   N17  Cn1  v092
 BYTE   N11  Fs1  v088
 BYTE   W12
 BYTE   N05
 BYTE   W06
 BYTE   Cn1  v080
 BYTE   N05  Fs1  v064
 BYTE   W06
 BYTE   N23  Dn1  v080
 BYTE   N05  Fs1  v088
 BYTE   W06
 BYTE   Fs1  v064
 BYTE   W06
 BYTE   Cn1  v080
 BYTE   N05  Fs1  v088
 BYTE   W06
 BYTE   Cn1  v092
 BYTE   N05  As1  v088
 BYTE   W06
 BYTE   Fs1
 BYTE   W06
 BYTE   N17  Dn1  v064
 BYTE   N05  Fs1
 BYTE   W06
 BYTE   N11  Cn1  v092
 BYTE   N11  As1  v088
 BYTE   W12
//  #10 //008   ----------------------------------------
 BYTE   N17  Dn1  v080
 BYTE   N05  Fs1  v088
 BYTE   W06
 BYTE   Fs1  v064
 BYTE   W06
 BYTE   N11  Cn1  v080
 BYTE   N11  As1  v088
 BYTE   W06
 BYTE   N05  Dn1  v064
 BYTE   W06
 BYTE   PEND 
//  #10 //009   ----------------------------------------
 BYTE   PATT
  POIN2 Label_01679FD7
//  #10 //010   ----------------------------------------
 BYTE   PATT
  POIN2 Label_0167A01F
//  #10 //011   ----------------------------------------
 BYTE   PATT
  POIN2 Label_0167A065
//  #10 //012   ----------------------------------------
Label_0167A103:
 BYTE   N17  Cn1  v092
 BYTE   N11  Fs1  v088
 BYTE   W06
 BYTE   N02  Dn1  v080
 BYTE   W03
 BYTE   Dn1  v064
 BYTE   W03
 BYTE   N11  Dn1  v080
 BYTE   N05  Fs1  v088
 BYTE   W06
 BYTE   Cn1  v080
 BYTE   N05  Fs1  v064
 BYTE   W06
 BYTE   N23  Dn1  v080
 BYTE   N05  Fs1  v088
 BYTE   W06
 BYTE   Fs1  v064
 BYTE   W06
 BYTE   Cn1  v080
 BYTE   N05  Fs1  v088
 BYTE   W06
 BYTE   Cn1  v092
 BYTE   N05  As1  v088
 BYTE   W06
 BYTE   Fs1
 BYTE   W06
 BYTE   N11  Dn1  v080
 BYTE   N05  Fs1  v064
 BYTE   W06
 BYTE   N11  Cn1  v092
 BYTE   N11  As1  v088
 BYTE   W11
 BYTE   N01  Dn1  v064
 BYTE   W01
 BYTE   N05  Dn1  v080
 BYTE   N05  Fs1  v088
 BYTE   W06
 BYTE   N17  Dn1  v064
 BYTE   N05  Fs1
 BYTE   W06
 BYTE   N11  Cn1  v092
 BYTE   N11  As1  v088
 BYTE   W12
 BYTE   PEND 
//  #10 //013   ----------------------------------------
Label_0167A15D:
//  #10 //014   ----------------------------------------
 BYTE   PATT
  POIN2 Label_01679FD7
//  #10 //015   ----------------------------------------
 BYTE   PATT
  POIN2 Label_0167A01F
//  #10 //016   ----------------------------------------
 BYTE   PATT
  POIN2 Label_0167A065
//  #10 //017   ----------------------------------------
 BYTE   PATT
  POIN2 Label_0167A0AA
//  #10 //018   ----------------------------------------
 BYTE   PATT
  POIN2 Label_01679FD7
//  #10 //019   ----------------------------------------
 BYTE   PATT
  POIN2 Label_0167A0AA
//  #10 //020   ----------------------------------------
 BYTE   PATT
  POIN2 Label_0167A065
//  #10 //021   ----------------------------------------
Label_0167A180:
 BYTE   N17  Cn1  v092
 BYTE   N11  Fs1  v088
 BYTE   W12
 BYTE   N05
 BYTE   W06
 BYTE   Cn1  v080
 BYTE   N05  Fs1  v064
 BYTE   W06
 BYTE   N11  Dn1  v080
 BYTE   N05  Fs1  v088
 BYTE   W06
 BYTE   Fs1  v064
 BYTE   W06
 BYTE   N11  Dn1  v080
 BYTE   N05  Fs1  v088
 BYTE   W06
 BYTE   Cn1  v092
 BYTE   N05  As1  v088
 BYTE   W06
 BYTE   Fs1
 BYTE   W06
 BYTE   N11  Dn1  v080
 BYTE   N05  Fs1  v064
 BYTE   W06
 BYTE   N11  Cn1  v092
 BYTE   N11  As1  v088
 BYTE   W11
 BYTE   N01  Dn1  v064
 BYTE   W01
 BYTE   N05  Dn1  v080
 BYTE   N05  Fs1  v088
 BYTE   W06
 BYTE   N17  Dn1  v064
 BYTE   N05  Fs1
 BYTE   W06
 BYTE   N11  Cn1  v092
 BYTE   N11  As1  v088
 BYTE   W12
 BYTE   PEND 
//  #10 //022   ----------------------------------------
 BYTE   PATT
  POIN2 Label_01679FD7
//  #10 //023   ----------------------------------------
 BYTE   PATT
  POIN2 Label_0167A01F
//  #10 //024   ----------------------------------------
 BYTE   PATT
  POIN2 Label_0167A065
//  #10 //025   ----------------------------------------
 BYTE   PATT
  POIN2 Label_0167A0AA
//  #10 //026   ----------------------------------------
 BYTE   PATT
  POIN2 Label_01679FD7
//  #10 //027   ----------------------------------------
 BYTE   PATT
  POIN2 Label_0167A0AA
//  #10 //028   ----------------------------------------
Label_0167A1ED:
 BYTE   N17  Cn1  v092
 BYTE   N11  Fs1  v088
 BYTE   W12
 BYTE   N05
 BYTE   W06
 BYTE   Cn1  v080
 BYTE   N05  Fs1  v064
 BYTE   W06
 BYTE   N23  Dn1  v080
 BYTE   N05  Fs1  v088
 BYTE   W06
 BYTE   Fs1  v064
 BYTE   W06
 BYTE   Cn1  v080
 BYTE   N05  Fs1  v088
 BYTE   W06
 BYTE   Cn1  v092
 BYTE   N05  As1  v088
 BYTE   W06
 BYTE   Fs1
 BYTE   W06
 BYTE   Fs1  v064
 BYTE   W06
 BYTE   N11  Cn1  v080
 BYTE   N11  As1  v088
 BYTE   W12
 BYTE   Dn1  v080
 BYTE   N05  Fs1  v088
 BYTE   W06
 BYTE   Fs1  v064
 BYTE   W06
 BYTE   N11  Dn1  v080
 BYTE   N05  As1  v088
 BYTE   W06
 BYTE   Cn1  v080
 BYTE   N05  Fs1  v064
 BYTE   W06
 BYTE   PEND 
//  #10 //029   ----------------------------------------
Label_0167A235:
 BYTE   N23  Cn1  v092
 BYTE   N11  Fs1  v088
 BYTE   W06
 BYTE   N05  Dn1  v064
 BYTE   W06
 BYTE   Dn1  v080
 BYTE   N05  Fs1  v088
 BYTE   W06
 BYTE   N02  Dn1  v064
 BYTE   N05  Fs1
 BYTE   W03
 BYTE   N02  Dn1
 BYTE   W03
 BYTE   N05  Dn1  v080
 BYTE   N05  Fs1  v088
 BYTE   W06
 BYTE   N17  Dn1  v064
 BYTE   N05  Fs1
 BYTE   W06
 BYTE   N11  Cn1  v092
 BYTE   N05  Fs1  v088
 BYTE   W06
 BYTE   As1
 BYTE   W06
 BYTE   N11  Cn1  v092
 BYTE   N05  Fs1  v088
 BYTE   W06
 BYTE   N17  Dn1  v064
 BYTE   N05  Fs1
 BYTE   W06
 BYTE   N11  Cn1  v092
 BYTE   N11  As1  v088
 BYTE   W12
 BYTE   N05  Dn1  v080
 BYTE   N05  Fs1  v088
 BYTE   W06
 BYTE   N17  Dn1  v064
 BYTE   N05  Fs1
 BYTE   W06
 BYTE   N11  Cn1  v092
 BYTE   N11  As1  v088
 BYTE   W12
 BYTE   PEND 
//  #10 //030   ----------------------------------------
 BYTE   PATT
  POIN2 Label_01679FD7
//  #10 //031   ----------------------------------------
 BYTE   PATT
  POIN2 Label_0167A01F
//  #10 //032   ----------------------------------------
 BYTE   PATT
  POIN2 Label_0167A065
//  #10 //033   ----------------------------------------
 BYTE   PATT
  POIN2 Label_0167A0AA
//  #10 //034   ----------------------------------------
 BYTE   PATT
  POIN2 Label_01679FD7
//  #10 //035   ----------------------------------------
 BYTE   PATT
  POIN2 Label_0167A0AA
//  #10 //036   ----------------------------------------
Label_0167A2AC:
 BYTE   N17  Cn1  v092
 BYTE   N23  An2  v088
 BYTE   W18
 BYTE   N05  Cn1  v080
 BYTE   N05  Fs1  v064
 BYTE   W06
 BYTE   N23  Dn1  v080
 BYTE   N05  Fs1  v088
 BYTE   N23  An2  v004
 BYTE   W06
 BYTE   N05  Fs1  v064
 BYTE   W06
 BYTE   Cn1  v080
 BYTE   N05  Fs1  v088
 BYTE   W06
 BYTE   Cn1  v092
 BYTE   N05  As1  v088
 BYTE   W06
 BYTE   Fs1
 BYTE   W06
 BYTE   Fs1  v064
 BYTE   W06
 BYTE   N11  Cn1  v080
 BYTE   N11  As1  v088
 BYTE   W12
 BYTE   N23  Dn1  v080
 BYTE   N05  Fs1  v088
 BYTE   W06
 BYTE   Fs1  v064
 BYTE   W06
 BYTE   As1  v088
 BYTE   W06
 BYTE   Cn1  v080
 BYTE   N05  Fs1  v064
 BYTE   W06
 BYTE   PEND 
//  #10 //037   ----------------------------------------
Label_0167A2F4:
 BYTE   N17  Cn1  v092
 BYTE   N11  Fs1  v088
 BYTE   W12
 BYTE   N05
 BYTE   W06
 BYTE   Cn1  v080
 BYTE   N05  Fs1  v064
 BYTE   W06
 BYTE   N11  Dn1  v080
 BYTE   N05  Fs1  v088
 BYTE   W06
 BYTE   Fs1  v064
 BYTE   W06
 BYTE   N11  Dn1
 BYTE   N05  Fs1  v088
 BYTE   W06
 BYTE   Cn1  v092
 BYTE   N05  As1  v088
 BYTE   W06
 BYTE   Fs1
 BYTE   W06
 BYTE   N11  Dn1  v080
 BYTE   N05  Fs1  v064
 BYTE   W06
 BYTE   N11  Cn1  v092
 BYTE   N11  As1  v088
 BYTE   W11
 BYTE   N01  Dn1  v064
 BYTE   W01
 BYTE   N05  Dn1  v080
 BYTE   N05  Fs1  v088
 BYTE   W06
 BYTE   N17  Dn1  v064
 BYTE   N05  Fs1
 BYTE   W06
 BYTE   N11  Cn1  v092
 BYTE   N11  As1  v088
 BYTE   W12
 BYTE   PEND 
//  #10 //038   ----------------------------------------
 BYTE   PATT
  POIN2 Label_01679FD7
//  #10 //039   ----------------------------------------
 BYTE   PATT
  POIN2 Label_0167A01F
//  #10 //040   ----------------------------------------
 BYTE   PATT
  POIN2 Label_0167A065
//  #10 //041   ----------------------------------------
 BYTE   PATT
  POIN2 Label_0167A0AA
//  #10 //042   ----------------------------------------
 BYTE   PATT
  POIN2 Label_01679FD7
//  #10 //043   ----------------------------------------
 BYTE   PATT
  POIN2 Label_0167A0AA
//  #10 //044   ----------------------------------------
Label_0167A360:
 BYTE   N17  Cn1  v092
 BYTE   N23  An2  v088
 BYTE   W18
 BYTE   N05  Cn1  v080
 BYTE   N05  Fs1  v064
 BYTE   W06
 BYTE   N23  Dn1  v080
 BYTE   N05  Fs1  v088
 BYTE   N23  An2  v004
 BYTE   W06
 BYTE   N05  Fs1  v064
 BYTE   W06
 BYTE   Cn1  v080
 BYTE   N05  Fs1  v088
 BYTE   W06
 BYTE   Cn1  v092
 BYTE   N05  As1  v088
 BYTE   W06
 BYTE   Fs1
 BYTE   W06
 BYTE   Fs1  v064
 BYTE   W06
 BYTE   N11  Cn1  v080
 BYTE   N11  As1  v088
 BYTE   W12
 BYTE   Dn1  v080
 BYTE   N05  Fs1  v088
 BYTE   W06
 BYTE   Fs1  v064
 BYTE   W06
 BYTE   N11  Dn1  v080
 BYTE   N05  As1  v088
 BYTE   W06
 BYTE   Cn1  v080
 BYTE   N05  Fs1  v064
 BYTE   W06
 BYTE   PEND 
//  #10 //045   ----------------------------------------
Label_0167A3AB:
 BYTE   N17  Cn1  v092
 BYTE   N11  Fs1  v088
 BYTE   W06
 BYTE   N05  Dn1  v080
 BYTE   W06
 BYTE   N11  Dn1  v064
 BYTE   N05  Fs1  v088
 BYTE   W06
 BYTE   Cn1  v080
 BYTE   N05  Fs1  v064
 BYTE   W06
 BYTE   Dn1  v080
 BYTE   N05  Fs1  v088
 BYTE   W06
 BYTE   N17  Dn1  v064
 BYTE   N05  Fs1
 BYTE   W06
 BYTE   N11  Cn1  v092
 BYTE   N05  Fs1  v088
 BYTE   W06
 BYTE   As1
 BYTE   W06
 BYTE   N11  Cn1  v092
 BYTE   N05  Fs1  v088
 BYTE   W06
 BYTE   N11  Dn1  v080
 BYTE   N05  Fs1  v064
 BYTE   W06
 BYTE   N11  Cn1  v092
 BYTE   N11  As1  v088
 BYTE   W11
 BYTE   N01  Dn1  v064
 BYTE   W01
 BYTE   N05  Dn1  v080
 BYTE   N05  Fs1  v088
 BYTE   W06
 BYTE   N17  Dn1  v064
 BYTE   N05  Fs1
 BYTE   W06
 BYTE   N11  Cn1  v092
 BYTE   N11  As1  v088
 BYTE   W12
 BYTE   PEND 
//  #10 //046   ----------------------------------------
 BYTE   PATT
  POIN2 Label_01679FD7
//  #10 //047   ----------------------------------------
 BYTE   PATT
  POIN2 Label_0167A01F
//  #10 //048   ----------------------------------------
 BYTE   PATT
  POIN2 Label_0167A065
//  #10 //049   ----------------------------------------
 BYTE   PATT
  POIN2 Label_0167A0AA
//  #10 //050   ----------------------------------------
 BYTE   PATT
  POIN2 Label_01679FD7
//  #10 //051   ----------------------------------------
 BYTE   PATT
  POIN2 Label_0167A01F
//  #10 //052   ----------------------------------------
 BYTE   PATT
  POIN2 Label_0167A065
//  #10 //053   ----------------------------------------
 BYTE   PATT
  POIN2 Label_0167A103
//  #10 //054   ----------------------------------------
 BYTE   PATT
  POIN2 Label_01679FD7
//  #10 //055   ----------------------------------------
 BYTE   PATT
  POIN2 Label_0167A01F
//  #10 //056   ----------------------------------------
 BYTE   PATT
  POIN2 Label_0167A065
//  #10 //057   ----------------------------------------
 BYTE   PATT
  POIN2 Label_0167A0AA
//  #10 //058   ----------------------------------------
 BYTE   PATT
  POIN2 Label_01679FD7
//  #10 //059   ----------------------------------------
 BYTE   PATT
  POIN2 Label_0167A0AA
//  #10 //060   ----------------------------------------
 BYTE   PATT
  POIN2 Label_0167A065
//  #10 //061   ----------------------------------------
 BYTE   PATT
  POIN2 Label_0167A180
//  #10 //062   ----------------------------------------
 BYTE   PATT
  POIN2 Label_01679FD7
//  #10 //063   ----------------------------------------
 BYTE   PATT
  POIN2 Label_0167A01F
//  #10 //064   ----------------------------------------
 BYTE   PATT
  POIN2 Label_0167A065
//  #10 //065   ----------------------------------------
 BYTE   PATT
  POIN2 Label_0167A0AA
//  #10 //066   ----------------------------------------
 BYTE   PATT
  POIN2 Label_01679FD7
//  #10 //067   ----------------------------------------
 BYTE   PATT
  POIN2 Label_0167A0AA
//  #10 //068   ----------------------------------------
 BYTE   PATT
  POIN2 Label_0167A1ED
//  #10 //069   ----------------------------------------
 BYTE   PATT
  POIN2 Label_0167A235
//  #10 //070   ----------------------------------------
 BYTE   PATT
  POIN2 Label_01679FD7
//  #10 //071   ----------------------------------------
 BYTE   PATT
  POIN2 Label_0167A01F
//  #10 //072   ----------------------------------------
 BYTE   PATT
  POIN2 Label_0167A065
//  #10 //073   ----------------------------------------
 BYTE   PATT
  POIN2 Label_0167A0AA
//  #10 //074   ----------------------------------------
 BYTE   PATT
  POIN2 Label_01679FD7
//  #10 //075   ----------------------------------------
 BYTE   PATT
  POIN2 Label_0167A0AA
//  #10 //076   ----------------------------------------
 BYTE   PATT
  POIN2 Label_0167A2AC
//  #10 //077   ----------------------------------------
 BYTE   PATT
  POIN2 Label_0167A2F4
//  #10 //078   ----------------------------------------
 BYTE   PATT
  POIN2 Label_01679FD7
//  #10 //079   ----------------------------------------
 BYTE   PATT
  POIN2 Label_0167A01F
//  #10 //080   ----------------------------------------
 BYTE   PATT
  POIN2 Label_0167A065
//  #10 //081   ----------------------------------------
 BYTE   PATT
  POIN2 Label_0167A0AA
//  #10 //082   ----------------------------------------
 BYTE   PATT
  POIN2 Label_01679FD7
//  #10 //083   ----------------------------------------
 BYTE   PATT
  POIN2 Label_0167A0AA
//  #10 //084   ----------------------------------------
Label_0167A4C4:
 BYTE   N17  Cn1  v092
 BYTE   N23  An2  v088
 BYTE   W18
 BYTE   N05  Cn1  v080
 BYTE   N05  Fs1  v064
 BYTE   W06
 BYTE   N23  Dn1  v080
 BYTE   N05  Fs1  v088
 BYTE   N23  An2  v004
 BYTE   W06
 BYTE   N05  Fs1  v064
 BYTE   W06
 BYTE   Cn1  v080
 BYTE   N05  Fs1  v088
 BYTE   W06
 BYTE   Cn1  v092
 BYTE   N05  As1  v088
 BYTE   W06
 BYTE   Fs1
 BYTE   W06
 BYTE   N17  Dn1  v080
 BYTE   N05  Fs1  v064
 BYTE   W06
 BYTE   N11  Cn1  v080
 BYTE   N11  As1  v088
 BYTE   W12
 BYTE   Dn1  v080
 BYTE   N05  Fs1  v088
 BYTE   W06
 BYTE   Fs1  v064
 BYTE   W06
 BYTE   N11  Dn1  v080
 BYTE   N05  As1  v088
 BYTE   W06
 BYTE   Cn1  v080
 BYTE   N05  Fs1  v064
 BYTE   W06
 BYTE   PEND 
//  #10 //085   ----------------------------------------
Label_0167A513:
 BYTE   N17  Cn1  v092
 BYTE   N11  Fs1  v088
 BYTE   W06
 BYTE   N05  Dn1  v080
 BYTE   W06
 BYTE   N11  Dn1  v064
 BYTE   N05  Fs1  v088
 BYTE   W06
 BYTE   Cn1  v080
 BYTE   N05  Fs1  v064
 BYTE   W06
 BYTE   Dn1  v080
 BYTE   N05  Fs1  v088
 BYTE   W06
 BYTE   N17  Dn1  v064
 BYTE   N05  Fs1
 BYTE   W06
 BYTE   N11  Cn1  v092
 BYTE   N05  Fs1  v088
 BYTE   W06
 BYTE   Fs1  v064
 BYTE   W06
 BYTE   N11  Cn1  v092
 BYTE   N11  Fs1  v088
 BYTE   W06
 BYTE   Dn1  v080
 BYTE   W06
 BYTE   Cn1  v092
 BYTE   N05  Fs1  v088
 BYTE   W06
 BYTE   Fs1  v064
 BYTE   W05
 BYTE   N01  Dn1
 BYTE   W01
 BYTE   N23  Dn1  v080
 BYTE   N23  Gn2  v100
 BYTE   W12
 BYTE   N11  Cn1  v092
 BYTE   W12
 BYTE   PEND 
//  #10 //086   ----------------------------------------
Label_0167A563:
 BYTE   N17  Cn1  v092
 BYTE   N11  Cs2  v088
 BYTE   N11  Gn2  v004
 BYTE   W12
 BYTE   Ds1  v080
 BYTE   W06
 BYTE   N05  Cn1
 BYTE   N05  Fs1  v064
 BYTE   W06
 BYTE   N23  Dn1  v080
 BYTE   N05  Fs1  v088
 BYTE   N11  Cs2  v004
 BYTE   W06
 BYTE   N05  Fs1  v064
 BYTE   W06
 BYTE   Cn1  v092
 BYTE   N11  Ds1  v080
 BYTE   N05  Fs1  v088
 BYTE   W06
 BYTE   Cn1  v080
 BYTE   N05  As1  v088
 BYTE   W06
 BYTE   Fs1
 BYTE   W06
 BYTE   Fs1  v064
 BYTE   W06
 BYTE   N11  Cn1  v092
 BYTE   N11  Ds1  v080
 BYTE   N11  As1  v088
 BYTE   W12
 BYTE   N23  Dn1  v080
 BYTE   N05  Fs1  v088
 BYTE   W06
 BYTE   Fs1  v064
 BYTE   W06
 BYTE   N11  Ds1  v080
 BYTE   N05  As1  v088
 BYTE   W06
 BYTE   Fs1  v064
 BYTE   W06
 BYTE   PEND 
//  #10 //087   ----------------------------------------
Label_0167A5B7:
 BYTE   N17  Cn1  v092
 BYTE   N11  Fs1  v088
 BYTE   W12
 BYTE   Ds1  v080
 BYTE   N05  Fs1  v088
 BYTE   W06
 BYTE   Cn1  v080
 BYTE   N05  Fs1  v064
 BYTE   W06
 BYTE   N23  Dn1  v080
 BYTE   N05  Fs1  v088
 BYTE   W06
 BYTE   Fs1  v064
 BYTE   W06
 BYTE   Cn1  v092
 BYTE   N11  Ds1  v080
 BYTE   N05  Fs1  v088
 BYTE   W06
 BYTE   Cn1  v080
 BYTE   N05  As1  v088
 BYTE   W06
 BYTE   Fs1
 BYTE   W06
 BYTE   Fs1  v064
 BYTE   W06
 BYTE   N11  Cn1  v092
 BYTE   N11  Ds1  v080
 BYTE   N11  As1  v088
 BYTE   W12
 BYTE   N23  Dn1  v080
 BYTE   N05  Fs1  v088
 BYTE   W06
 BYTE   Fs1  v064
 BYTE   W06
 BYTE   N11  Ds1  v080
 BYTE   N11  As1  v088
 BYTE   W12
 BYTE   PEND 
//  #10 //088   ----------------------------------------
Label_0167A604:
 BYTE   N17  Cn1  v092
 BYTE   N11  Fs1  v088
 BYTE   W12
 BYTE   Ds1  v080
 BYTE   N05  Fs1  v088
 BYTE   W06
 BYTE   Cn1  v080
 BYTE   N05  Fs1  v064
 BYTE   W06
 BYTE   N23  Dn1  v080
 BYTE   N05  Fs1  v088
 BYTE   W06
 BYTE   Fs1  v064
 BYTE   W06
 BYTE   Cn1  v092
 BYTE   N11  Ds1  v080
 BYTE   N05  Fs1  v088
 BYTE   W06
 BYTE   Cn1  v080
 BYTE   N05  As1  v088
 BYTE   W06
 BYTE   Fs1
 BYTE   W06
 BYTE   Fs1  v064
 BYTE   W06
 BYTE   N11  Cn1  v092
 BYTE   N05  Ds1  v080
 BYTE   N11  As1  v088
 BYTE   W06
 BYTE   N05  Ds1  v080
 BYTE   W06
 BYTE   N23  Dn1
 BYTE   N05  Fs1  v088
 BYTE   W06
 BYTE   Fs1  v064
 BYTE   W06
 BYTE   N11  Ds1  v080
 BYTE   N05  As1  v088
 BYTE   W06
 BYTE   Fs1  v064
 BYTE   W06
 BYTE   PEND 
//  #10 //089   ----------------------------------------
Label_0167A657:
 BYTE   N17  Cn1  v092
 BYTE   N11  Fs1  v088
 BYTE   W12
 BYTE   Ds1  v080
 BYTE   N05  Fs1  v088
 BYTE   W06
 BYTE   Cn1  v080
 BYTE   N05  Fs1  v064
 BYTE   W06
 BYTE   N23  Dn1  v080
 BYTE   N05  Fs1  v088
 BYTE   W06
 BYTE   Fs1  v064
 BYTE   W06
 BYTE   Cn1  v092
 BYTE   N11  Ds1  v080
 BYTE   N05  Fs1  v088
 BYTE   W06
 BYTE   Cn1  v080
 BYTE   N05  As1  v088
 BYTE   W06
 BYTE   Fs1
 BYTE   W06
 BYTE   N17  Dn1  v080
 BYTE   N05  Fs1  v064
 BYTE   W06
 BYTE   N11  Cn1  v092
 BYTE   N05  Ds1  v080
 BYTE   N11  As1  v088
 BYTE   W06
 BYTE   N05  Ds1  v080
 BYTE   W06
 BYTE   Dn1
 BYTE   N05  Fs1  v088
 BYTE   W06
 BYTE   N17  Dn1  v064
 BYTE   N05  Fs1
 BYTE   W06
 BYTE   N11  Cn1  v092
 BYTE   N11  Ds1  v080
 BYTE   N11  As1  v088
 BYTE   W12
 BYTE   PEND 
//  #10 //090   ----------------------------------------
Label_0167A6B0:
 BYTE   N17  Cn1  v092
 BYTE   N11  Cs2  v088
 BYTE   W12
 BYTE   Ds1  v080
 BYTE   W06
 BYTE   N05  Cn1
 BYTE   N05  Fs1  v064
 BYTE   W06
 BYTE   N23  Dn1  v080
 BYTE   N05  Fs1  v088
 BYTE   N11  Cs2  v004
 BYTE   W06
 BYTE   N05  Fs1  v064
 BYTE   W06
 BYTE   Cn1  v092
 BYTE   N11  Ds1  v080
 BYTE   N05  Fs1  v088
 BYTE   W06
 BYTE   Cn1  v080
 BYTE   N05  As1  v088
 BYTE   W06
 BYTE   Fs1
 BYTE   W06
 BYTE   Fs1  v064
 BYTE   W06
 BYTE   N11  Cn1  v092
 BYTE   N11  Ds1  v080
 BYTE   N11  As1  v088
 BYTE   W12
 BYTE   N23  Dn1  v080
 BYTE   N05  Fs1  v088
 BYTE   W06
 BYTE   Fs1  v064
 BYTE   W06
 BYTE   N11  Ds1  v080
 BYTE   N05  As1  v088
 BYTE   W06
 BYTE   Fs1  v064
 BYTE   W06
 BYTE   PEND 
//  #10 //091   ----------------------------------------
Label_0167A701:
 BYTE   N17  Cn1  v092
 BYTE   N11  Fs1  v088
 BYTE   W12
 BYTE   Ds1  v080
 BYTE   N05  Fs1  v088
 BYTE   W06
 BYTE   Cn1  v080
 BYTE   N05  Fs1  v064
 BYTE   W06
 BYTE   N23  Dn1  v080
 BYTE   N05  Fs1  v088
 BYTE   W06
 BYTE   Fs1  v064
 BYTE   W06
 BYTE   Cn1  v092
 BYTE   N11  Ds1  v080
 BYTE   N05  Fs1  v088
 BYTE   W06
 BYTE   Cn1  v080
 BYTE   N05  As1  v088
 BYTE   W06
 BYTE   Fs1
 BYTE   W06
 BYTE   Fs1  v064
 BYTE   W06
 BYTE   N11  Cn1  v092
 BYTE   N05  Ds1  v080
 BYTE   N11  As1  v088
 BYTE   W06
 BYTE   N05  Ds1  v080
 BYTE   W06
 BYTE   N23  Dn1
 BYTE   N05  Fs1  v088
 BYTE   W06
 BYTE   Fs1  v064
 BYTE   W06
 BYTE   N11  Ds1  v080
 BYTE   N11  As1  v088
 BYTE   W12
 BYTE   PEND 
//  #10 //092   ----------------------------------------
Label_0167A751:
 BYTE   N17  Cn1  v092
 BYTE   N11  An2  v088
 BYTE   W12
 BYTE   Ds1  v080
 BYTE   W06
 BYTE   N05  Cn1
 BYTE   N05  Fs1  v064
 BYTE   W06
 BYTE   N23  Dn1  v080
 BYTE   N05  Fs1  v088
 BYTE   N11  An2  v004
 BYTE   W06
 BYTE   N05  Fs1  v064
 BYTE   W06
 BYTE   Cn1  v092
 BYTE   N11  Ds1  v080
 BYTE   N05  Fs1  v088
 BYTE   W06
 BYTE   Cn1  v080
 BYTE   N05  As1  v088
 BYTE   W06
 BYTE   Fs1
 BYTE   W06
 BYTE   Fs1  v064
 BYTE   W06
 BYTE   N11  Cn1  v092
 BYTE   N05  Ds1  v080
 BYTE   N11  As1  v088
 BYTE   W06
 BYTE   N05  Ds1  v080
 BYTE   W06
 BYTE   N23  Dn1
 BYTE   N05  Fs1  v088
 BYTE   W06
 BYTE   Fs1  v064
 BYTE   W06
 BYTE   N11  Cn1  v080
 BYTE   N11  Ds1
 BYTE   N05  As1  v088
 BYTE   W06
 BYTE   Fs1  v064
 BYTE   W06
 BYTE   PEND 
//  #10 //093   ----------------------------------------
Label_0167A7A7:
 BYTE   N05  Cn1  v092
 BYTE   N23  An2  v088
 BYTE   W06
 BYTE   N11  Cn1  v080
 BYTE   W06
 BYTE   Dn1  v064
 BYTE   W06
 BYTE   N05  Cn1  v080
 BYTE   N05  Fs1  v064
 BYTE   W06
 BYTE   Dn1  v080
 BYTE   N05  Fs1  v088
 BYTE   N23  An2  v004
 BYTE   W06
 BYTE   N11  Dn1  v064
 BYTE   N05  Fs1
 BYTE   W06
 BYTE   N11  Cn1  v092
 BYTE   N05  Fs1  v088
 BYTE   W06
 BYTE   Dn1  v064
 BYTE   N05  As1  v088
 BYTE   W06
 BYTE   N11  Cn1  v092
 BYTE   N23  Fs1  v004
 BYTE   N23  Cs2  v088
 BYTE   W12
 BYTE   N05  Cn1  v092
 BYTE   W06
 BYTE   Cn1  v080
 BYTE   W06
 BYTE   N23  Dn1
 BYTE   N23  Cs2  v004
 BYTE   N23  Gn2  v100
 BYTE   W12
 BYTE   N11  Cn1  v092
 BYTE   W12
 BYTE   PEND 
//  #10 //094   ----------------------------------------
 BYTE   PATT
  POIN2 Label_0167A563
//  #10 //095   ----------------------------------------
 BYTE   PATT
  POIN2 Label_0167A5B7
//  #10 //096   ----------------------------------------
 BYTE   PATT
  POIN2 Label_0167A604
//  #10 //097   ----------------------------------------
 BYTE   PATT
  POIN2 Label_0167A657
//  #10 //098   ----------------------------------------
 BYTE   PATT
  POIN2 Label_0167A6B0
//  #10 //099   ----------------------------------------
 BYTE   PATT
  POIN2 Label_0167A701
//  #10 //100   ----------------------------------------
Label_0167A815:
 BYTE   N17  Cn1  v092
 BYTE   N11  An2  v088
 BYTE   W12
 BYTE   Ds1  v080
 BYTE   W06
 BYTE   N05  Cn1
 BYTE   N05  Fs1  v064
 BYTE   W06
 BYTE   N23  Dn1  v080
 BYTE   N05  Fs1  v088
 BYTE   N11  An2  v004
 BYTE   W06
 BYTE   N05  Fs1  v064
 BYTE   W06
 BYTE   Cn1  v092
 BYTE   N11  Ds1  v080
 BYTE   N05  Fs1  v088
 BYTE   W06
 BYTE   Cn1  v080
 BYTE   N05  As1  v088
 BYTE   W06
 BYTE   Fs1
 BYTE   W06
 BYTE   Fs1  v064
 BYTE   W06
 BYTE   N11  Cn1  v092
 BYTE   N05  Ds1  v080
 BYTE   N11  As1  v088
 BYTE   W06
 BYTE   N05  Ds1  v080
 BYTE   W06
 BYTE   Dn1
 BYTE   N05  Fs1  v088
 BYTE   W06
 BYTE   N17  Dn1  v080
 BYTE   N05  Fs1  v064
 BYTE   W06
 BYTE   N11  Cn1  v080
 BYTE   N11  Ds1
 BYTE   N05  As1  v088
 BYTE   W06
 BYTE   Fs1  v064
 BYTE   W06
 BYTE   PEND 
//  #10 //101   ----------------------------------------
Label_0167A86E:
 BYTE   N17  Cn1  v092
 BYTE   N23  An2  v088
 BYTE   W06
 BYTE   N05  Dn1  v080
 BYTE   W06
 BYTE   N11  Dn1  v064
 BYTE   W06
 BYTE   N05  Cn1  v080
 BYTE   N05  Fs1  v064
 BYTE   W06
 BYTE   Dn1  v080
 BYTE   N05  Fs1  v088
 BYTE   N23  An2  v004
 BYTE   W06
 BYTE   N17  Dn1  v064
 BYTE   N05  Fs1
 BYTE   W06
 BYTE   Cn1  v092
 BYTE   N05  Fs1  v088
 BYTE   W06
 BYTE   Cn1  v080
 BYTE   N05  As1  v088
 BYTE   W06
 BYTE   Cn1  v092
 BYTE   N23  Fs1  v004
 BYTE   N23  Cs2  v088
 BYTE   W06
 BYTE   N17  Cn1  v080
 BYTE   W05
 BYTE   N01  Dn1  v064
 BYTE   W01
 BYTE   N11  Dn1  v080
 BYTE   W12
 BYTE   N11
 BYTE   N23  Cs2  v004
 BYTE   N23  Gn2  v100
 BYTE   W12
 BYTE   N05  Dn1  v080
 BYTE   W06
 BYTE   Dn1  v064
 BYTE   W06
 BYTE   PEND 
//  #10 //102   ----------------------------------------
 BYTE   PATT
  POIN2 Label_01679F61
//  #10 //103   ----------------------------------------
 BYTE   PATT
  POIN2 Label_01679F2B
//  #10 //104   ----------------------------------------
 BYTE   PATT
  POIN2 Label_01679F61
//  #10 //105   ----------------------------------------
 BYTE   PATT
  POIN2 Label_01679F93
//  #10 //106   ----------------------------------------
 BYTE   PATT
  POIN2 Label_01679FD7
//  #10 //107   ----------------------------------------
 BYTE   PATT
  POIN2 Label_0167A01F
//  #10 //108   ----------------------------------------
 BYTE   PATT
  POIN2 Label_0167A065
//  #10 //109   ----------------------------------------
 BYTE   PATT
  POIN2 Label_0167A0AA
//  #10 //110   ----------------------------------------
 BYTE   PATT
  POIN2 Label_01679FD7
//  #10 //111   ----------------------------------------
 BYTE   PATT
  POIN2 Label_0167A01F
//  #10 //112   ----------------------------------------
 BYTE   PATT
  POIN2 Label_0167A065
//  #10 //113   ----------------------------------------
 BYTE   PATT
  POIN2 Label_0167A103
//  #10 //114   ----------------------------------------
 BYTE   GoTo
  POIN2 Label_0167A15D
//  #10 //115   ----------------------------------------
 BYTE   PATT
  POIN2 Label_01679FD7
//  #10 //116   ----------------------------------------
 BYTE   PATT
  POIN2 Label_0167A01F
//  #10 //117   ----------------------------------------
 BYTE   PATT
  POIN2 Label_0167A065
//  #10 //118   ----------------------------------------
 BYTE   PATT
  POIN2 Label_0167A0AA
//  #10 //119   ----------------------------------------
 BYTE   PATT
  POIN2 Label_01679FD7
//  #10 //120   ----------------------------------------
 BYTE   PATT
  POIN2 Label_0167A0AA
//  #10 //121   ----------------------------------------
 BYTE   PATT
  POIN2 Label_0167A065
//  #10 //122   ----------------------------------------
 BYTE   PATT
  POIN2 Label_0167A180
//  #10 //123   ----------------------------------------
 BYTE   PATT
  POIN2 Label_01679FD7
//  #10 //124   ----------------------------------------
 BYTE   PATT
  POIN2 Label_0167A01F
//  #10 //125   ----------------------------------------
 BYTE   PATT
  POIN2 Label_0167A065
//  #10 //126   ----------------------------------------
 BYTE   PATT
  POIN2 Label_0167A0AA
//  #10 //127   ----------------------------------------
 BYTE   PATT
  POIN2 Label_01679FD7
//  #10 //128   ----------------------------------------
 BYTE   PATT
  POIN2 Label_0167A0AA
//  #10 //129   ----------------------------------------
 BYTE   PATT
  POIN2 Label_0167A1ED
//  #10 //130   ----------------------------------------
 BYTE   PATT
  POIN2 Label_0167A235
//  #10 //131   ----------------------------------------
 BYTE   PATT
  POIN2 Label_01679FD7
//  #10 //132   ----------------------------------------
 BYTE   PATT
  POIN2 Label_0167A01F
//  #10 //133   ----------------------------------------
 BYTE   PATT
  POIN2 Label_0167A065
//  #10 //134   ----------------------------------------
 BYTE   PATT
  POIN2 Label_0167A0AA
//  #10 //135   ----------------------------------------
 BYTE   PATT
  POIN2 Label_01679FD7
//  #10 //136   ----------------------------------------
 BYTE   PATT
  POIN2 Label_0167A0AA
//  #10 //137   ----------------------------------------
 BYTE   PATT
  POIN2 Label_0167A2AC
//  #10 //138   ----------------------------------------
 BYTE   PATT
  POIN2 Label_0167A2F4
//  #10 //139   ----------------------------------------
 BYTE   PATT
  POIN2 Label_01679FD7
//  #10 //140   ----------------------------------------
 BYTE   PATT
  POIN2 Label_0167A01F
//  #10 //141   ----------------------------------------
 BYTE   PATT
  POIN2 Label_0167A065
//  #10 //142   ----------------------------------------
 BYTE   PATT
  POIN2 Label_0167A0AA
//  #10 //143   ----------------------------------------
 BYTE   PATT
  POIN2 Label_01679FD7
//  #10 //144   ----------------------------------------
 BYTE   PATT
  POIN2 Label_0167A0AA
//  #10 //145   ----------------------------------------
 BYTE   PATT
  POIN2 Label_0167A360
//  #10 //146   ----------------------------------------
 BYTE   PATT
  POIN2 Label_0167A3AB
//  #10 //147   ----------------------------------------
 BYTE   PATT
  POIN2 Label_01679FD7
//  #10 //148   ----------------------------------------
 BYTE   PATT
  POIN2 Label_0167A01F
//  #10 //149   ----------------------------------------
 BYTE   PATT
  POIN2 Label_0167A065
//  #10 //150   ----------------------------------------
 BYTE   PATT
  POIN2 Label_0167A0AA
//  #10 //151   ----------------------------------------
 BYTE   PATT
  POIN2 Label_01679FD7
//  #10 //152   ----------------------------------------
 BYTE   PATT
  POIN2 Label_0167A01F
//  #10 //153   ----------------------------------------
 BYTE   PATT
  POIN2 Label_0167A065
//  #10 //154   ----------------------------------------
 BYTE   PATT
  POIN2 Label_0167A103
//  #10 //155   ----------------------------------------
 BYTE   PATT
  POIN2 Label_01679FD7
//  #10 //156   ----------------------------------------
 BYTE   PATT
  POIN2 Label_0167A01F
//  #10 //157   ----------------------------------------
 BYTE   PATT
  POIN2 Label_0167A065
//  #10 //158   ----------------------------------------
 BYTE   PATT
  POIN2 Label_0167A0AA
//  #10 //159   ----------------------------------------
 BYTE   PATT
  POIN2 Label_01679FD7
//  #10 //160   ----------------------------------------
 BYTE   PATT
  POIN2 Label_0167A0AA
//  #10 //161   ----------------------------------------
 BYTE   PATT
  POIN2 Label_0167A065
//  #10 //162   ----------------------------------------
 BYTE   PATT
  POIN2 Label_0167A180
//  #10 //163   ----------------------------------------
 BYTE   PATT
  POIN2 Label_01679FD7
//  #10 //164   ----------------------------------------
 BYTE   PATT
  POIN2 Label_0167A01F
//  #10 //165   ----------------------------------------
 BYTE   PATT
  POIN2 Label_0167A065
//  #10 //166   ----------------------------------------
 BYTE   PATT
  POIN2 Label_0167A0AA
//  #10 //167   ----------------------------------------
 BYTE   PATT
  POIN2 Label_01679FD7
//  #10 //168   ----------------------------------------
 BYTE   PATT
  POIN2 Label_0167A0AA
//  #10 //169   ----------------------------------------
 BYTE   PATT
  POIN2 Label_0167A1ED
//  #10 //170   ----------------------------------------
 BYTE   PATT
  POIN2 Label_0167A235
//  #10 //171   ----------------------------------------
 BYTE   PATT
  POIN2 Label_01679FD7
//  #10 //172   ----------------------------------------
 BYTE   PATT
  POIN2 Label_0167A01F
//  #10 //173   ----------------------------------------
 BYTE   PATT
  POIN2 Label_0167A065
//  #10 //174   ----------------------------------------
 BYTE   PATT
  POIN2 Label_0167A0AA
//  #10 //175   ----------------------------------------
 BYTE   PATT
  POIN2 Label_01679FD7
//  #10 //176   ----------------------------------------
 BYTE   PATT
  POIN2 Label_0167A0AA
//  #10 //177   ----------------------------------------
 BYTE   PATT
  POIN2 Label_0167A2AC
//  #10 //178   ----------------------------------------
 BYTE   PATT
  POIN2 Label_0167A2F4
//  #10 //179   ----------------------------------------
 BYTE   PATT
  POIN2 Label_01679FD7
//  #10 //180   ----------------------------------------
 BYTE   PATT
  POIN2 Label_0167A01F
//  #10 //181   ----------------------------------------
 BYTE   PATT
  POIN2 Label_0167A065
//  #10 //182   ----------------------------------------
 BYTE   PATT
  POIN2 Label_0167A0AA
//  #10 //183   ----------------------------------------
 BYTE   PATT
  POIN2 Label_01679FD7
//  #10 //184   ----------------------------------------
 BYTE   PATT
  POIN2 Label_0167A0AA
//  #10 //185   ----------------------------------------
 BYTE   PATT
  POIN2 Label_0167A4C4
//  #10 //186   ----------------------------------------
 BYTE   PATT
  POIN2 Label_0167A513
//  #10 //187   ----------------------------------------
 BYTE   PATT
  POIN2 Label_0167A563
//  #10 //188   ----------------------------------------
 BYTE   PATT
  POIN2 Label_0167A5B7
//  #10 //189   ----------------------------------------
 BYTE   PATT
  POIN2 Label_0167A604
//  #10 //190   ----------------------------------------
 BYTE   PATT
  POIN2 Label_0167A657
//  #10 //191   ----------------------------------------
 BYTE   PATT
  POIN2 Label_0167A6B0
//  #10 //192   ----------------------------------------
 BYTE   PATT
  POIN2 Label_0167A701
//  #10 //193   ----------------------------------------
 BYTE   PATT
  POIN2 Label_0167A751
//  #10 //194   ----------------------------------------
 BYTE   PATT
  POIN2 Label_0167A7A7
//  #10 //195   ----------------------------------------
 BYTE   PATT
  POIN2 Label_0167A563
//  #10 //196   ----------------------------------------
 BYTE   PATT
  POIN2 Label_0167A5B7
//  #10 //197   ----------------------------------------
 BYTE   PATT
  POIN2 Label_0167A604
//  #10 //198   ----------------------------------------
 BYTE   PATT
  POIN2 Label_0167A657
//  #10 //199   ----------------------------------------
 BYTE   PATT
  POIN2 Label_0167A6B0
//  #10 //200   ----------------------------------------
 BYTE   PATT
  POIN2 Label_0167A701
//  #10 //201   ----------------------------------------
 BYTE   PATT
  POIN2 Label_0167A815
//  #10 //202   ----------------------------------------
 BYTE   PATT
  POIN2 Label_0167A86E
//  #10 //203   ----------------------------------------
 BYTE   PATT
  POIN2 Label_01679F61
//  #10 //204   ----------------------------------------
 BYTE   PATT
  POIN2 Label_01679F2B
//  #10 //205   ----------------------------------------
 BYTE   PATT
  POIN2 Label_01679F61
//  #10 //206   ----------------------------------------
 BYTE   PATT
  POIN2 Label_01679F93
//  #10 //207   ----------------------------------------
 BYTE   PATT
  POIN2 Label_01679FD7
//  #10 //208   ----------------------------------------
 BYTE   PATT
  POIN2 Label_0167A01F
//  #10 //209   ----------------------------------------
 BYTE   PATT
  POIN2 Label_0167A065
//  #10 //210   ----------------------------------------
 BYTE   N17  Cn1  v092
 BYTE   N11  Fs1  v088
 BYTE   W12
 BYTE   N05
 BYTE   W06
 BYTE   Cn1  v080
 BYTE   N05  Fs1  v064
 BYTE   W06
 BYTE   N23  Dn1  v080
 BYTE   N05  Fs1  v088
 BYTE   W06
 BYTE   Fs1  v064
 BYTE   W06
 BYTE   Cn1  v080
 BYTE   N05  Fs1  v088
 BYTE   W06
 BYTE   Cn1  v092
 BYTE   N05  As1  v088
 BYTE   W06
 BYTE   Fs1
 BYTE   W06
 BYTE   N17  Dn1  v064
 BYTE   N05  Fs1
 BYTE   W06
 BYTE   N11  Cn1  v092
 BYTE   N11  As1  v088
 BYTE   W12
 BYTE   N17  Dn1  v080
 BYTE   N05  Fs1  v088
 BYTE   W06
 BYTE   Fs1  v064
 BYTE   W06
 BYTE   N11  Cn1  v080
 BYTE   N11  As1  v088
 BYTE   W06
 BYTE   N05  Dn1  v064
 BYTE   W05
 BYTE   FINE

//**************** Track 11 (Midi-Chn.10) ****************//

PointOfNoReturn_Song_011:
//  #11 //000   ----------------------------------------
 BYTE   KEYSH   PointOfNoReturn_Song_key+0
 BYTE   VOICE   38
 BYTE   VOL   106*PointOfNoReturn_Song_mvl/mxv
 BYTE   PAN   c_v+0
 BYTE   VOL   70*PointOfNoReturn_Song_mvl/mxv
 BYTE   PAN   c_v+0
 BYTE   W24
Label_0172719D:
 BYTE   N11  Gn0  v072
 BYTE   W12
 BYTE   N11
 BYTE   W12
 BYTE   N11
 BYTE   W12
 BYTE   N11
 BYTE   W12
 BYTE   N11
 BYTE   W12
 BYTE   N11
 BYTE   W12
//  #11 //001   ----------------------------------------
 BYTE   N11
 BYTE   W12
 BYTE   N11
 BYTE   W12
 BYTE   PEND 
Label_017271B0:
 BYTE   N11  Gn0  v072
 BYTE   W12
 BYTE   N11
 BYTE   W12
 BYTE   N11
 BYTE   W12
 BYTE   N11
 BYTE   W12
 BYTE   N11
 BYTE   W12
 BYTE   N11
 BYTE   W12
//  #11 //002   ----------------------------------------
 BYTE   N11
 BYTE   W12
 BYTE   N05
 BYTE   W06
 BYTE   N05
 BYTE   W06
 BYTE   PEND 
//  #11 //003   ----------------------------------------
 BYTE   PATT
  POIN2 Label_0172719D
//  #11 //004   ----------------------------------------
Label_017271CA:
 BYTE   N11  Gn0  v072
 BYTE   W12
 BYTE   N11
 BYTE   W12
 BYTE   N11
 BYTE   W12
 BYTE   N11
 BYTE   W12
 BYTE   N11
 BYTE   W12
 BYTE   N05
 BYTE   W06
 BYTE   N05
 BYTE   W06
 BYTE   N23
 BYTE   W24
 BYTE   PEND 
//  #11 //005   ----------------------------------------
Label_017271DD:
 BYTE   N11  Gn0  v072
 BYTE   W12
 BYTE   N11
 BYTE   W12
 BYTE   N11
 BYTE   W12
 BYTE   N23
 BYTE   W24
 BYTE   N05
 BYTE   W06
 BYTE   N05
 BYTE   W06
 BYTE   N11
 BYTE   W12
 BYTE   N11
 BYTE   W12
 BYTE   PEND 
//  #11 //006   ----------------------------------------
 BYTE   PATT
  POIN2 Label_017271DD
//  #11 //007   ----------------------------------------
 BYTE   PATT
  POIN2 Label_017271DD
//  #11 //008   ----------------------------------------
 BYTE   PATT
  POIN2 Label_017271DD
//  #11 //009   ----------------------------------------
Label_017271FF:
 BYTE   N11  Fn0  v100
 BYTE   W12
 BYTE   N11
 BYTE   W12
 BYTE   N11
 BYTE   W12
 BYTE   N23
 BYTE   W24
 BYTE   N05
 BYTE   W06
 BYTE   N05
 BYTE   W06
 BYTE   N11
 BYTE   W12
 BYTE   N11
 BYTE   W12
 BYTE   PEND 
//  #11 //010   ----------------------------------------
Label_01727212:
 BYTE   N11  Gn0  v100
 BYTE   W12
 BYTE   N11
 BYTE   W12
 BYTE   N11
 BYTE   W12
 BYTE   N23
 BYTE   W24
 BYTE   N05
 BYTE   W06
 BYTE   N05
 BYTE   W06
 BYTE   N11
 BYTE   W12
 BYTE   N11
 BYTE   W12
 BYTE   PEND 
//  #11 //011   ----------------------------------------
 BYTE   PATT
  POIN2 Label_017271DD
//  #11 //012   ----------------------------------------
 BYTE   PATT
  POIN2 Label_017271DD
//  #11 //013   ----------------------------------------
Label_0172722F:
//  #11 //014   ----------------------------------------
 BYTE   PATT
  POIN2 Label_017271DD
//  #11 //015   ----------------------------------------
 BYTE   PATT
  POIN2 Label_017271DD
//  #11 //016   ----------------------------------------
 BYTE   PATT
  POIN2 Label_017271DD
//  #11 //017   ----------------------------------------
 BYTE   PATT
  POIN2 Label_017271DD
//  #11 //018   ----------------------------------------
 BYTE   PATT
  POIN2 Label_017271FF
//  #11 //019   ----------------------------------------
 BYTE   PATT
  POIN2 Label_01727212
//  #11 //020   ----------------------------------------
 BYTE   PATT
  POIN2 Label_017271DD
//  #11 //021   ----------------------------------------
 BYTE   PATT
  POIN2 Label_017271DD
//  #11 //022   ----------------------------------------
 BYTE   PATT
  POIN2 Label_017271DD
//  #11 //023   ----------------------------------------
 BYTE   PATT
  POIN2 Label_017271DD
//  #11 //024   ----------------------------------------
 BYTE   PATT
  POIN2 Label_017271DD
//  #11 //025   ----------------------------------------
 BYTE   PATT
  POIN2 Label_017271DD
//  #11 //026   ----------------------------------------
 BYTE   PATT
  POIN2 Label_017271FF
//  #11 //027   ----------------------------------------
 BYTE   PATT
  POIN2 Label_01727212
//  #11 //028   ----------------------------------------
 BYTE   PATT
  POIN2 Label_017271DD
//  #11 //029   ----------------------------------------
Label_0172727A:
 BYTE   N11  Fn0  v072
 BYTE   N11  As0  v100
 BYTE   W12
 BYTE   Fn0  v072
 BYTE   N11  As0  v100
 BYTE   W12
 BYTE   Fn0  v072
 BYTE   N11  As0  v100
 BYTE   W12
 BYTE   N23  Fn0  v072
 BYTE   N23  As0  v100
 BYTE   W24
 BYTE   N05  Fn0  v072
 BYTE   N05  As0  v100
 BYTE   W06
 BYTE   Fn0  v072
 BYTE   N05  As0  v100
 BYTE   W06
 BYTE   N11  Fn0  v072
 BYTE   N11  As0  v100
 BYTE   W12
 BYTE   Fn0  v072
 BYTE   N11  As0  v100
 BYTE   W12
 BYTE   PEND 
//  #11 //030   ----------------------------------------
Label_017272AF:
 BYTE   N11  Ds0  v072
 BYTE   N11  Gs0  v100
 BYTE   W12
 BYTE   Ds0  v072
 BYTE   N11  Gs0  v100
 BYTE   W12
 BYTE   Ds0  v072
 BYTE   N11  Gs0  v100
 BYTE   W12
 BYTE   N23  Ds0  v072
 BYTE   N23  Gs0  v100
 BYTE   W24
 BYTE   N05  Ds0  v072
 BYTE   N05  Gs0  v100
 BYTE   W06
 BYTE   Ds0  v072
 BYTE   N05  Gs0  v100
 BYTE   W06
 BYTE   N11  Ds0  v072
 BYTE   N11  Gs0  v100
 BYTE   W12
 BYTE   Ds0  v072
 BYTE   N11  Gs0  v100
 BYTE   W12
 BYTE   PEND 
//  #11 //031   ----------------------------------------
Label_017272E4:
 BYTE   N11  Ds0  v072
 BYTE   N11  Gs0  v100
 BYTE   W12
 BYTE   Ds0  v072
 BYTE   N11  Gs0  v100
 BYTE   W12
 BYTE   Ds0  v072
 BYTE   N11  Gs0  v100
 BYTE   W12
 BYTE   N23  Ds0  v072
 BYTE   N23  Gs0  v100
 BYTE   W24
 BYTE   N05  Ds0  v072
 BYTE   N05  Gs0  v100
 BYTE   W06
 BYTE   Ds0  v072
 BYTE   N05  Gs0  v100
 BYTE   W06
 BYTE   N11  Fn0  v072
 BYTE   N11  As0  v100
 BYTE   W12
 BYTE   Fn0  v072
 BYTE   N11  As0  v100
 BYTE   W12
 BYTE   PEND 
//  #11 //032   ----------------------------------------
 BYTE   PATT
  POIN2 Label_017271DD
//  #11 //033   ----------------------------------------
Label_0172731E:
 BYTE   N11  Gn0  v072
 BYTE   W12
 BYTE   N11
 BYTE   W12
 BYTE   N11
 BYTE   W12
 BYTE   N23
 BYTE   W24
 BYTE   N05
 BYTE   W06
 BYTE   N05
 BYTE   W06
 BYTE   N11  Fn0
 BYTE   N11  As0  v100
 BYTE   W12
 BYTE   Fn0  v072
 BYTE   N11  As0  v100
 BYTE   W12
 BYTE   PEND 
//  #11 //034   ----------------------------------------
 BYTE   PATT
  POIN2 Label_017272AF
//  #11 //035   ----------------------------------------
Label_0172733E:
 BYTE   N11  Ds0  v072
 BYTE   N11  Gs0  v100
 BYTE   W12
 BYTE   Ds0  v072
 BYTE   N11  Gs0  v100
 BYTE   W12
 BYTE   Ds0  v072
 BYTE   N11  Gs0  v100
 BYTE   W12
 BYTE   N23  Ds0  v072
 BYTE   N23  Gs0  v100
 BYTE   W24
 BYTE   N05  Ds0  v072
 BYTE   N05  Gs0  v100
 BYTE   W06
 BYTE   Ds0  v072
 BYTE   N05  Gs0  v100
 BYTE   W06
 BYTE   N11  Gn0
 BYTE   W12
 BYTE   N11
 BYTE   W12
 BYTE   PEND 
//  #11 //036   ----------------------------------------
 BYTE   PATT
  POIN2 Label_017271FF
//  #11 //037   ----------------------------------------
 BYTE   PATT
  POIN2 Label_01727212
//  #11 //038   ----------------------------------------
 BYTE   PATT
  POIN2 Label_017272AF
//  #11 //039   ----------------------------------------
 BYTE   PATT
  POIN2 Label_017272E4
//  #11 //040   ----------------------------------------
 BYTE   PATT
  POIN2 Label_017271DD
//  #11 //041   ----------------------------------------
 BYTE   PATT
  POIN2 Label_0172731E
//  #11 //042   ----------------------------------------
Label_01727389:
 BYTE   N11  Ds0  v072
 BYTE   N11  Gs0  v100
 BYTE   W12
 BYTE   Ds0  v072
 BYTE   N11  Gs0  v100
 BYTE   W12
 BYTE   Ds0  v072
 BYTE   N11  Gs0  v100
 BYTE   W12
 BYTE   N23
 BYTE   W24
 BYTE   N05  Ds0  v072
 BYTE   N05  Gs0  v100
 BYTE   W06
 BYTE   Ds0  v072
 BYTE   N05  Gs0  v100
 BYTE   W06
 BYTE   N11  Gn0
 BYTE   W12
 BYTE   Dn0  v072
 BYTE   N11  Gn0  v100
 BYTE   W12
 BYTE   PEND 
//  #11 //043   ----------------------------------------
Label_017273B5:
 BYTE   N11  Fn0  v100
 BYTE   W12
 BYTE   N11
 BYTE   W12
 BYTE   N11
 BYTE   W12
 BYTE   N23
 BYTE   W24
 BYTE   N05
 BYTE   W06
 BYTE   N05
 BYTE   W06
 BYTE   N11  Ds0
 BYTE   N11  As0  v072
 BYTE   W12
 BYTE   Ds0  v100
 BYTE   N11  As0  v072
 BYTE   W12
 BYTE   PEND 
//  #11 //044   ----------------------------------------
Label_017273D0:
 BYTE   N11  Dn0  v100
 BYTE   N11  An0  v072
 BYTE   W12
 BYTE   Dn0  v100
 BYTE   N11  An0  v072
 BYTE   W12
 BYTE   Dn0  v100
 BYTE   N11  An0  v072
 BYTE   W12
 BYTE   N23  Dn0  v100
 BYTE   N23  An0  v072
 BYTE   W24
 BYTE   N05  Dn0  v100
 BYTE   N05  An0  v072
 BYTE   W06
 BYTE   Dn0  v100
 BYTE   N05  An0  v072
 BYTE   W06
 BYTE   N11  Dn0  v100
 BYTE   N11  An0  v072
 BYTE   W12
 BYTE   Dn0  v100
 BYTE   N11  An0  v072
 BYTE   W12
 BYTE   PEND 
//  #11 //045   ----------------------------------------
 BYTE   PATT
  POIN2 Label_01727212
//  #11 //046   ----------------------------------------
 BYTE   PATT
  POIN2 Label_017271DD
//  #11 //047   ----------------------------------------
 BYTE   PATT
  POIN2 Label_017271DD
//  #11 //048   ----------------------------------------
 BYTE   PATT
  POIN2 Label_017271DD
//  #11 //049   ----------------------------------------
 BYTE   PATT
  POIN2 Label_017271DD
//  #11 //050   ----------------------------------------
 BYTE   PATT
  POIN2 Label_017271FF
//  #11 //051   ----------------------------------------
 BYTE   PATT
  POIN2 Label_01727212
//  #11 //052   ----------------------------------------
 BYTE   PATT
  POIN2 Label_017271DD
//  #11 //053   ----------------------------------------
 BYTE   PATT
  POIN2 Label_017271DD
//  #11 //054   ----------------------------------------
 BYTE   PATT
  POIN2 Label_017271DD
//  #11 //055   ----------------------------------------
 BYTE   PATT
  POIN2 Label_017271DD
//  #11 //056   ----------------------------------------
 BYTE   PATT
  POIN2 Label_017271DD
//  #11 //057   ----------------------------------------
 BYTE   PATT
  POIN2 Label_017271DD
//  #11 //058   ----------------------------------------
 BYTE   PATT
  POIN2 Label_017271FF
//  #11 //059   ----------------------------------------
 BYTE   PATT
  POIN2 Label_01727212
//  #11 //060   ----------------------------------------
 BYTE   PATT
  POIN2 Label_017271DD
//  #11 //061   ----------------------------------------
 BYTE   PATT
  POIN2 Label_017271DD
//  #11 //062   ----------------------------------------
 BYTE   PATT
  POIN2 Label_017271DD
//  #11 //063   ----------------------------------------
 BYTE   PATT
  POIN2 Label_017271DD
//  #11 //064   ----------------------------------------
 BYTE   PATT
  POIN2 Label_017271DD
//  #11 //065   ----------------------------------------
 BYTE   PATT
  POIN2 Label_017271DD
//  #11 //066   ----------------------------------------
 BYTE   PATT
  POIN2 Label_017271FF
//  #11 //067   ----------------------------------------
 BYTE   PATT
  POIN2 Label_01727212
//  #11 //068   ----------------------------------------
 BYTE   PATT
  POIN2 Label_017271DD
//  #11 //069   ----------------------------------------
 BYTE   PATT
  POIN2 Label_0172727A
//  #11 //070   ----------------------------------------
 BYTE   PATT
  POIN2 Label_017272AF
//  #11 //071   ----------------------------------------
 BYTE   PATT
  POIN2 Label_017272E4
//  #11 //072   ----------------------------------------
 BYTE   PATT
  POIN2 Label_017271DD
//  #11 //073   ----------------------------------------
 BYTE   PATT
  POIN2 Label_0172731E
//  #11 //074   ----------------------------------------
 BYTE   PATT
  POIN2 Label_017272AF
//  #11 //075   ----------------------------------------
 BYTE   PATT
  POIN2 Label_0172733E
//  #11 //076   ----------------------------------------
 BYTE   PATT
  POIN2 Label_017271FF
//  #11 //077   ----------------------------------------
 BYTE   PATT
  POIN2 Label_01727212
//  #11 //078   ----------------------------------------
 BYTE   PATT
  POIN2 Label_017272AF
//  #11 //079   ----------------------------------------
 BYTE   PATT
  POIN2 Label_017272E4
//  #11 //080   ----------------------------------------
 BYTE   PATT
  POIN2 Label_017271DD
//  #11 //081   ----------------------------------------
 BYTE   PATT
  POIN2 Label_0172731E
//  #11 //082   ----------------------------------------
 BYTE   PATT
  POIN2 Label_01727389
//  #11 //083   ----------------------------------------
 BYTE   PATT
  POIN2 Label_017273B5
//  #11 //084   ----------------------------------------
 BYTE   PATT
  POIN2 Label_017273D0
//  #11 //085   ----------------------------------------
 BYTE   PATT
  POIN2 Label_01727212
//  #11 //086   ----------------------------------------
Label_017274D2:
 BYTE   N32  Gn0  v072
 BYTE   W36
 BYTE   N05
 BYTE   W06
 BYTE   N05
 BYTE   W06
 BYTE   N23
 BYTE   W24
 BYTE   N11
 BYTE   W12
 BYTE   N11
 BYTE   W12
 BYTE   PEND 
//  #11 //087   ----------------------------------------
Label_017274E1:
 BYTE   N32  Fn0  v072
 BYTE   N32  As0  v100
 BYTE   W36
 BYTE   N05  Fn0  v072
 BYTE   N05  As0  v100
 BYTE   W06
 BYTE   Fn0  v072
 BYTE   N05  As0  v100
 BYTE   W06
 BYTE   N23  Fn0  v072
 BYTE   N23  As0  v100
 BYTE   W24
 BYTE   N11  Fn0  v072
 BYTE   N11  As0  v100
 BYTE   W12
 BYTE   Fn0  v072
 BYTE   N11  As0  v100
 BYTE   W12
 BYTE   PEND 
//  #11 //088   ----------------------------------------
Label_0172750A:
 BYTE   N32  Ds0  v072
 BYTE   N32  Gs0  v100
 BYTE   W36
 BYTE   N05  Ds0  v072
 BYTE   N05  Gs0  v100
 BYTE   W06
 BYTE   Ds0  v072
 BYTE   N05  Gs0  v100
 BYTE   W06
 BYTE   N23  Ds0  v072
 BYTE   N23  Gs0  v100
 BYTE   W24
 BYTE   N11  Ds0  v072
 BYTE   N11  Gs0  v100
 BYTE   W12
 BYTE   Ds0  v072
 BYTE   N11  Gs0  v100
 BYTE   W12
 BYTE   PEND 
//  #11 //089   ----------------------------------------
Label_01727533:
 BYTE   N32  Dn0  v072
 BYTE   N32  Gn0  v100
 BYTE   W36
 BYTE   N05  Dn0  v072
 BYTE   N05  Gn0  v100
 BYTE   W06
 BYTE   Dn0  v072
 BYTE   N05  Gn0  v100
 BYTE   W06
 BYTE   N23  Dn0  v072
 BYTE   N23  Gn0  v100
 BYTE   W24
 BYTE   N11  Dn0  v072
 BYTE   N11  Gn0  v100
 BYTE   W12
 BYTE   Dn0  v072
 BYTE   N11  Gn0  v100
 BYTE   W12
 BYTE   PEND 
//  #11 //090   ----------------------------------------
Label_0172755C:
 BYTE   N32  Fn0  v100
 BYTE   W36
 BYTE   N05
 BYTE   W06
 BYTE   N05
 BYTE   W06
 BYTE   N23
 BYTE   W24
 BYTE   N11
 BYTE   W12
 BYTE   N11
 BYTE   W12
 BYTE   PEND 
//  #11 //091   ----------------------------------------
Label_0172756B:
 BYTE   N32  Ds0  v100
 BYTE   N32  As0  v072
 BYTE   W36
 BYTE   N05  Ds0  v100
 BYTE   N05  As0  v072
 BYTE   W06
 BYTE   Ds0  v100
 BYTE   N05  As0  v072
 BYTE   W06
 BYTE   N23  Ds0  v100
 BYTE   N23  As0  v072
 BYTE   W24
 BYTE   N11  Ds0  v100
 BYTE   N11  As0  v072
 BYTE   W12
 BYTE   Ds0  v100
 BYTE   N11  As0  v072
 BYTE   W12
 BYTE   PEND 
//  #11 //092   ----------------------------------------
Label_01727594:
 BYTE   N32  Dn0  v100
 BYTE   N32  An0  v072
 BYTE   W36
 BYTE   N05  Dn0  v100
 BYTE   N05  An0  v072
 BYTE   W06
 BYTE   Dn0  v100
 BYTE   N05  An0  v072
 BYTE   W06
 BYTE   N23  Dn0  v100
 BYTE   N23  An0  v072
 BYTE   W24
 BYTE   N11  Dn0  v100
 BYTE   N11  An0  v072
 BYTE   W12
 BYTE   Dn0  v100
 BYTE   N11  An0  v072
 BYTE   W12
 BYTE   PEND 
//  #11 //093   ----------------------------------------
 BYTE   PATT
  POIN2 Label_01727533
//  #11 //094   ----------------------------------------
 BYTE   PATT
  POIN2 Label_017274D2
//  #11 //095   ----------------------------------------
 BYTE   PATT
  POIN2 Label_017274E1
//  #11 //096   ----------------------------------------
 BYTE   PATT
  POIN2 Label_0172750A
//  #11 //097   ----------------------------------------
 BYTE   PATT
  POIN2 Label_01727533
//  #11 //098   ----------------------------------------
 BYTE   PATT
  POIN2 Label_0172755C
//  #11 //099   ----------------------------------------
 BYTE   PATT
  POIN2 Label_0172756B
//  #11 //100   ----------------------------------------
 BYTE   PATT
  POIN2 Label_01727594
//  #11 //101   ----------------------------------------
 BYTE   PATT
  POIN2 Label_01727533
//  #11 //102   ----------------------------------------
 BYTE   PATT
  POIN2 Label_0172719D
//  #11 //103   ----------------------------------------
 BYTE   PATT
  POIN2 Label_017271B0
//  #11 //104   ----------------------------------------
 BYTE   PATT
  POIN2 Label_0172719D
//  #11 //105   ----------------------------------------
 BYTE   PATT
  POIN2 Label_017271CA
//  #11 //106   ----------------------------------------
 BYTE   PATT
  POIN2 Label_017271DD
//  #11 //107   ----------------------------------------
 BYTE   PATT
  POIN2 Label_017271DD
//  #11 //108   ----------------------------------------
 BYTE   PATT
  POIN2 Label_017271DD
//  #11 //109   ----------------------------------------
 BYTE   PATT
  POIN2 Label_017271DD
//  #11 //110   ----------------------------------------
 BYTE   PATT
  POIN2 Label_017271FF
//  #11 //111   ----------------------------------------
 BYTE   PATT
  POIN2 Label_01727212
//  #11 //112   ----------------------------------------
 BYTE   PATT
  POIN2 Label_017271DD
//  #11 //113   ----------------------------------------
 BYTE   PATT
  POIN2 Label_017271DD
//  #11 //114   ----------------------------------------
 BYTE   GoTo
  POIN2 Label_0172722F
//  #11 //115   ----------------------------------------
 BYTE   PATT
  POIN2 Label_017271DD
//  #11 //116   ----------------------------------------
 BYTE   PATT
  POIN2 Label_017271DD
//  #11 //117   ----------------------------------------
 BYTE   PATT
  POIN2 Label_017271DD
//  #11 //118   ----------------------------------------
 BYTE   PATT
  POIN2 Label_017271DD
//  #11 //119   ----------------------------------------
 BYTE   PATT
  POIN2 Label_017271FF
//  #11 //120   ----------------------------------------
 BYTE   PATT
  POIN2 Label_01727212
//  #11 //121   ----------------------------------------
 BYTE   PATT
  POIN2 Label_017271DD
//  #11 //122   ----------------------------------------
 BYTE   PATT
  POIN2 Label_017271DD
//  #11 //123   ----------------------------------------
 BYTE   PATT
  POIN2 Label_017271DD
//  #11 //124   ----------------------------------------
 BYTE   PATT
  POIN2 Label_017271DD
//  #11 //125   ----------------------------------------
 BYTE   PATT
  POIN2 Label_017271DD
//  #11 //126   ----------------------------------------
 BYTE   PATT
  POIN2 Label_017271DD
//  #11 //127   ----------------------------------------
 BYTE   PATT
  POIN2 Label_017271FF
//  #11 //128   ----------------------------------------
 BYTE   PATT
  POIN2 Label_01727212
//  #11 //129   ----------------------------------------
 BYTE   PATT
  POIN2 Label_017271DD
//  #11 //130   ----------------------------------------
 BYTE   PATT
  POIN2 Label_0172727A
//  #11 //131   ----------------------------------------
 BYTE   PATT
  POIN2 Label_017272AF
//  #11 //132   ----------------------------------------
 BYTE   PATT
  POIN2 Label_017272E4
//  #11 //133   ----------------------------------------
 BYTE   PATT
  POIN2 Label_017271DD
//  #11 //134   ----------------------------------------
 BYTE   PATT
  POIN2 Label_0172731E
//  #11 //135   ----------------------------------------
 BYTE   PATT
  POIN2 Label_017272AF
//  #11 //136   ----------------------------------------
 BYTE   PATT
  POIN2 Label_0172733E
//  #11 //137   ----------------------------------------
 BYTE   PATT
  POIN2 Label_017271FF
//  #11 //138   ----------------------------------------
 BYTE   PATT
  POIN2 Label_01727212
//  #11 //139   ----------------------------------------
 BYTE   PATT
  POIN2 Label_017272AF
//  #11 //140   ----------------------------------------
 BYTE   PATT
  POIN2 Label_017272E4
//  #11 //141   ----------------------------------------
 BYTE   PATT
  POIN2 Label_017271DD
//  #11 //142   ----------------------------------------
 BYTE   PATT
  POIN2 Label_0172731E
//  #11 //143   ----------------------------------------
 BYTE   PATT
  POIN2 Label_01727389
//  #11 //144   ----------------------------------------
 BYTE   PATT
  POIN2 Label_017273B5
//  #11 //145   ----------------------------------------
 BYTE   PATT
  POIN2 Label_017273D0
//  #11 //146   ----------------------------------------
 BYTE   PATT
  POIN2 Label_01727212
//  #11 //147   ----------------------------------------
 BYTE   PATT
  POIN2 Label_017271DD
//  #11 //148   ----------------------------------------
 BYTE   PATT
  POIN2 Label_017271DD
//  #11 //149   ----------------------------------------
 BYTE   PATT
  POIN2 Label_017271DD
//  #11 //150   ----------------------------------------
 BYTE   PATT
  POIN2 Label_017271DD
//  #11 //151   ----------------------------------------
 BYTE   PATT
  POIN2 Label_017271FF
//  #11 //152   ----------------------------------------
 BYTE   PATT
  POIN2 Label_01727212
//  #11 //153   ----------------------------------------
 BYTE   PATT
  POIN2 Label_017271DD
//  #11 //154   ----------------------------------------
 BYTE   PATT
  POIN2 Label_017271DD
//  #11 //155   ----------------------------------------
 BYTE   PATT
  POIN2 Label_017271DD
//  #11 //156   ----------------------------------------
 BYTE   PATT
  POIN2 Label_017271DD
//  #11 //157   ----------------------------------------
 BYTE   PATT
  POIN2 Label_017271DD
//  #11 //158   ----------------------------------------
 BYTE   PATT
  POIN2 Label_017271DD
//  #11 //159   ----------------------------------------
 BYTE   PATT
  POIN2 Label_017271FF
//  #11 //160   ----------------------------------------
 BYTE   PATT
  POIN2 Label_01727212
//  #11 //161   ----------------------------------------
 BYTE   PATT
  POIN2 Label_017271DD
//  #11 //162   ----------------------------------------
 BYTE   PATT
  POIN2 Label_017271DD
//  #11 //163   ----------------------------------------
 BYTE   PATT
  POIN2 Label_017271DD
//  #11 //164   ----------------------------------------
 BYTE   PATT
  POIN2 Label_017271DD
//  #11 //165   ----------------------------------------
 BYTE   PATT
  POIN2 Label_017271DD
//  #11 //166   ----------------------------------------
 BYTE   PATT
  POIN2 Label_017271DD
//  #11 //167   ----------------------------------------
 BYTE   PATT
  POIN2 Label_017271FF
//  #11 //168   ----------------------------------------
 BYTE   PATT
  POIN2 Label_01727212
//  #11 //169   ----------------------------------------
 BYTE   PATT
  POIN2 Label_017271DD
//  #11 //170   ----------------------------------------
 BYTE   PATT
  POIN2 Label_0172727A
//  #11 //171   ----------------------------------------
 BYTE   PATT
  POIN2 Label_017272AF
//  #11 //172   ----------------------------------------
 BYTE   PATT
  POIN2 Label_017272E4
//  #11 //173   ----------------------------------------
 BYTE   PATT
  POIN2 Label_017271DD
//  #11 //174   ----------------------------------------
 BYTE   PATT
  POIN2 Label_0172731E
//  #11 //175   ----------------------------------------
 BYTE   PATT
  POIN2 Label_017272AF
//  #11 //176   ----------------------------------------
 BYTE   PATT
  POIN2 Label_0172733E
//  #11 //177   ----------------------------------------
 BYTE   PATT
  POIN2 Label_017271FF
//  #11 //178   ----------------------------------------
 BYTE   PATT
  POIN2 Label_01727212
//  #11 //179   ----------------------------------------
 BYTE   PATT
  POIN2 Label_017272AF
//  #11 //180   ----------------------------------------
 BYTE   PATT
  POIN2 Label_017272E4
//  #11 //181   ----------------------------------------
 BYTE   PATT
  POIN2 Label_017271DD
//  #11 //182   ----------------------------------------
 BYTE   PATT
  POIN2 Label_0172731E
//  #11 //183   ----------------------------------------
 BYTE   PATT
  POIN2 Label_01727389
//  #11 //184   ----------------------------------------
 BYTE   PATT
  POIN2 Label_017273B5
//  #11 //185   ----------------------------------------
 BYTE   PATT
  POIN2 Label_017273D0
//  #11 //186   ----------------------------------------
 BYTE   PATT
  POIN2 Label_01727212
//  #11 //187   ----------------------------------------
 BYTE   PATT
  POIN2 Label_017274D2
//  #11 //188   ----------------------------------------
 BYTE   PATT
  POIN2 Label_017274E1
//  #11 //189   ----------------------------------------
 BYTE   PATT
  POIN2 Label_0172750A
//  #11 //190   ----------------------------------------
 BYTE   PATT
  POIN2 Label_01727533
//  #11 //191   ----------------------------------------
 BYTE   PATT
  POIN2 Label_0172755C
//  #11 //192   ----------------------------------------
 BYTE   PATT
  POIN2 Label_0172756B
//  #11 //193   ----------------------------------------
 BYTE   PATT
  POIN2 Label_01727594
//  #11 //194   ----------------------------------------
 BYTE   PATT
  POIN2 Label_01727533
//  #11 //195   ----------------------------------------
 BYTE   PATT
  POIN2 Label_017274D2
//  #11 //196   ----------------------------------------
 BYTE   PATT
  POIN2 Label_017274E1
//  #11 //197   ----------------------------------------
 BYTE   PATT
  POIN2 Label_0172750A
//  #11 //198   ----------------------------------------
 BYTE   PATT
  POIN2 Label_01727533
//  #11 //199   ----------------------------------------
 BYTE   PATT
  POIN2 Label_0172755C
//  #11 //200   ----------------------------------------
 BYTE   PATT
  POIN2 Label_0172756B
//  #11 //201   ----------------------------------------
 BYTE   PATT
  POIN2 Label_01727594
//  #11 //202   ----------------------------------------
 BYTE   PATT
  POIN2 Label_01727533
//  #11 //203   ----------------------------------------
 BYTE   PATT
  POIN2 Label_0172719D
//  #11 //204   ----------------------------------------
 BYTE   PATT
  POIN2 Label_017271B0
//  #11 //205   ----------------------------------------
 BYTE   PATT
  POIN2 Label_0172719D
//  #11 //206   ----------------------------------------
 BYTE   PATT
  POIN2 Label_017271CA
//  #11 //207   ----------------------------------------
 BYTE   PATT
  POIN2 Label_017271DD
//  #11 //208   ----------------------------------------
 BYTE   PATT
  POIN2 Label_017271DD
//  #11 //209   ----------------------------------------
 BYTE   PATT
  POIN2 Label_017271DD
//  #11 //210   ----------------------------------------
 BYTE   N11  Gn0  v072
 BYTE   W12
 BYTE   N11
 BYTE   W12
 BYTE   N11
 BYTE   W12
 BYTE   N23
 BYTE   W24
 BYTE   N05
 BYTE   W06
 BYTE   N05
 BYTE   W06
 BYTE   N11
 BYTE   W12
 BYTE   N11
 BYTE   W11
 BYTE   FINE

//**************** Track 12 (Midi-Chn.11) ****************//

PointOfNoReturn_Song_012:
//  #12 //000   ----------------------------------------
 BYTE   KEYSH   PointOfNoReturn_Song_key+0
 BYTE   VOICE   127
 BYTE   VOL   32*PointOfNoReturn_Song_mvl/mxv
 BYTE   PAN   c_v+0
 BYTE   VOL   40*PointOfNoReturn_Song_mvl/mxv
 BYTE   PAN   c_v+0
 BYTE   W24
 BYTE   W96
//  #12 //001   ----------------------------------------
Label_F9F412:
 BYTE   W36
 BYTE   N02  Cn3  v100
 BYTE   W03
 BYTE   Cn3  v064
 BYTE   W03
 BYTE   N05  Cn3  v100
 BYTE   W06
 BYTE   N08  An2
 BYTE   W18
 BYTE   N05  Fs2
 BYTE   W18
 BYTE   Cn2
 BYTE   W12
 BYTE   PEND 
//  #12 //002   ----------------------------------------
Label_F9F427:
 BYTE   W84
 BYTE   N02  Cn3  v100
 BYTE   W03
 BYTE   Cn3  v064
 BYTE   W03
 BYTE   Cn3  v100
 BYTE   W03
 BYTE   Cn3  v064
 BYTE   W03
 BYTE   PEND 
//  #12 //003   ----------------------------------------
Label_F9F436:
 BYTE   N05  An3  v100
 BYTE   W06
 BYTE   N05
 BYTE   W12
 BYTE   Cn3
 BYTE   W12
 BYTE   N05
 BYTE   W12
 BYTE   Fs2
 BYTE   W18
 BYTE   Cn2
 BYTE   W24
 BYTE   N05
 BYTE   W12
 BYTE   PEND 
//  #12 //004   ----------------------------------------
 BYTE   W96
//  #12 //005   ----------------------------------------
 BYTE   W96
//  #12 //006   ----------------------------------------
 BYTE   W96
//  #12 //007   ----------------------------------------
 BYTE   W96
//  #12 //008   ----------------------------------------
 BYTE   W96
//  #12 //009   ----------------------------------------
 BYTE   W96
//  #12 //010   ----------------------------------------
 BYTE   W96
//  #12 //011   ----------------------------------------
Label_F9F44E:
 BYTE   W42
 BYTE   N05  An3  v100
 BYTE   W18
 BYTE   An2
 BYTE   W24
 BYTE   Cn2
 BYTE   W12
 BYTE   PEND 
//  #12 //012   ----------------------------------------
Label_F9F458:
 BYTE   W96
//  #12 //013   ----------------------------------------
 BYTE   W96
//  #12 //014   ----------------------------------------
 BYTE   W96
//  #12 //015   ----------------------------------------
 BYTE   W96
//  #12 //016   ----------------------------------------
 BYTE   W96
//  #12 //017   ----------------------------------------
Label_F9F45D:
 BYTE   W78
 BYTE   N05  Cn3  v100
 BYTE   W06
 BYTE   Fs2
 BYTE   W06
 BYTE   Cn2
 BYTE   W06
 BYTE   PEND 
//  #12 //018   ----------------------------------------
 BYTE   W96
//  #12 //019   ----------------------------------------
 BYTE   PATT
  POIN2 Label_F9F44E
//  #12 //020   ----------------------------------------
 BYTE   W96
//  #12 //021   ----------------------------------------
 BYTE   W96
//  #12 //022   ----------------------------------------
 BYTE   W96
//  #12 //023   ----------------------------------------
 BYTE   W96
//  #12 //024   ----------------------------------------
 BYTE   W96
//  #12 //025   ----------------------------------------
 BYTE   PATT
  POIN2 Label_F9F45D
//  #12 //026   ----------------------------------------
 BYTE   W96
//  #12 //027   ----------------------------------------
Label_F9F478:
 BYTE   W36
 BYTE   N05  Cn2  v100
 BYTE   W24
 BYTE   Cn3
 BYTE   W18
 BYTE   Fs2
 BYTE   W06
 BYTE   Cn2
 BYTE   W12
 BYTE   PEND 
//  #12 //028   ----------------------------------------
 BYTE   W96
//  #12 //029   ----------------------------------------
 BYTE   W96
//  #12 //030   ----------------------------------------
 BYTE   W96
//  #12 //031   ----------------------------------------
 BYTE   W96
//  #12 //032   ----------------------------------------
 BYTE   W96
//  #12 //033   ----------------------------------------
 BYTE   W96
//  #12 //034   ----------------------------------------
 BYTE   W96
//  #12 //035   ----------------------------------------
Label_F9F48B:
 BYTE   W60
 BYTE   N05  Cn3  v100
 BYTE   W06
 BYTE   N05
 BYTE   W06
 BYTE   Fs2
 BYTE   W06
 BYTE   N05
 BYTE   W06
 BYTE   Cn2
 BYTE   W06
 BYTE   N05
 BYTE   W06
 BYTE   PEND 
//  #12 //036   ----------------------------------------
 BYTE   W96
//  #12 //037   ----------------------------------------
 BYTE   W96
//  #12 //038   ----------------------------------------
 BYTE   W96
//  #12 //039   ----------------------------------------
 BYTE   W96
//  #12 //040   ----------------------------------------
 BYTE   W96
//  #12 //041   ----------------------------------------
 BYTE   W96
//  #12 //042   ----------------------------------------
 BYTE   W96
//  #12 //043   ----------------------------------------
Label_F9F4A2:
 BYTE   W30
 BYTE   N05  Fs2  v100
 BYTE   W06
 BYTE   Cn2
 BYTE   W18
 BYTE   N02  An3
 BYTE   W03
 BYTE   An3  v064
 BYTE   W09
 BYTE   N05  An3  v100
 BYTE   W06
 BYTE   Cn3
 BYTE   W06
 BYTE   Fs2
 BYTE   W06
 BYTE   Cn2
 BYTE   W12
 BYTE   PEND 
//  #12 //044   ----------------------------------------
 BYTE   W96
//  #12 //045   ----------------------------------------
 BYTE   W96
//  #12 //046   ----------------------------------------
 BYTE   W96
//  #12 //047   ----------------------------------------
 BYTE   W96
//  #12 //048   ----------------------------------------
 BYTE   W96
//  #12 //049   ----------------------------------------
 BYTE   W96
//  #12 //050   ----------------------------------------
 BYTE   W96
//  #12 //051   ----------------------------------------
 BYTE   PATT
  POIN2 Label_F9F44E
//  #12 //052   ----------------------------------------
 BYTE   W96
//  #12 //053   ----------------------------------------
 BYTE   W96
//  #12 //054   ----------------------------------------
 BYTE   W96
//  #12 //055   ----------------------------------------
 BYTE   W96
//  #12 //056   ----------------------------------------
 BYTE   W96
//  #12 //057   ----------------------------------------
 BYTE   PATT
  POIN2 Label_F9F45D
//  #12 //058   ----------------------------------------
 BYTE   W96
//  #12 //059   ----------------------------------------
 BYTE   PATT
  POIN2 Label_F9F44E
//  #12 //060   ----------------------------------------
 BYTE   W96
//  #12 //061   ----------------------------------------
 BYTE   W96
//  #12 //062   ----------------------------------------
 BYTE   W96
//  #12 //063   ----------------------------------------
 BYTE   W96
//  #12 //064   ----------------------------------------
 BYTE   W96
//  #12 //065   ----------------------------------------
 BYTE   PATT
  POIN2 Label_F9F45D
//  #12 //066   ----------------------------------------
 BYTE   W96
//  #12 //067   ----------------------------------------
 BYTE   PATT
  POIN2 Label_F9F478
//  #12 //068   ----------------------------------------
 BYTE   W96
//  #12 //069   ----------------------------------------
 BYTE   W96
//  #12 //070   ----------------------------------------
 BYTE   W96
//  #12 //071   ----------------------------------------
 BYTE   W96
//  #12 //072   ----------------------------------------
 BYTE   W96
//  #12 //073   ----------------------------------------
 BYTE   W96
//  #12 //074   ----------------------------------------
 BYTE   W96
//  #12 //075   ----------------------------------------
 BYTE   PATT
  POIN2 Label_F9F48B
//  #12 //076   ----------------------------------------
 BYTE   W96
//  #12 //077   ----------------------------------------
 BYTE   W96
//  #12 //078   ----------------------------------------
 BYTE   W96
//  #12 //079   ----------------------------------------
 BYTE   W96
//  #12 //080   ----------------------------------------
 BYTE   W96
//  #12 //081   ----------------------------------------
 BYTE   W96
//  #12 //082   ----------------------------------------
 BYTE   W96
//  #12 //083   ----------------------------------------
Label_F9F4F9:
 BYTE   W36
 BYTE   N05  Fs2  v100
 BYTE   W06
 BYTE   Cn2
 BYTE   W18
 BYTE   Fs2
 BYTE   W06
 BYTE   N05
 BYTE   W06
 BYTE   Cn3
 BYTE   W12
 BYTE   Cn2
 BYTE   W12
 BYTE   PEND 
//  #12 //084   ----------------------------------------
 BYTE   W96
//  #12 //085   ----------------------------------------
 BYTE   W96
//  #12 //086   ----------------------------------------
 BYTE   W96
//  #12 //087   ----------------------------------------
Label_F9F50C:
 BYTE   W60
 BYTE   N05  Fs2  v100
 BYTE   W12
 BYTE   Cn3
 BYTE   W06
 BYTE   Fs2
 BYTE   W06
 BYTE   Cn2
 BYTE   W12
 BYTE   PEND 
//  #12 //088   ----------------------------------------
 BYTE   W96
//  #12 //089   ----------------------------------------
 BYTE   W96
//  #12 //090   ----------------------------------------
 BYTE   W96
//  #12 //091   ----------------------------------------
Label_F9F51B:
 BYTE   W54
 BYTE   N02  An3  v100
 BYTE   W03
 BYTE   An3  v064
 BYTE   W03
 BYTE   N05  Cn3  v100
 BYTE   W06
 BYTE   Fs2
 BYTE   W12
 BYTE   N05
 BYTE   W06
 BYTE   Cn2
 BYTE   W12
 BYTE   PEND 
//  #12 //092   ----------------------------------------
 BYTE   W96
//  #12 //093   ----------------------------------------
 BYTE   W96
//  #12 //094   ----------------------------------------
 BYTE   W96
//  #12 //095   ----------------------------------------
 BYTE   PATT
  POIN2 Label_F9F50C
//  #12 //096   ----------------------------------------
 BYTE   W96
//  #12 //097   ----------------------------------------
 BYTE   W96
//  #12 //098   ----------------------------------------
 BYTE   W84
 BYTE   N05  Cn2  v100
 BYTE   W12
//  #12 //099   ----------------------------------------
Label_F9F53D:
 BYTE   W36
 BYTE   N02  Fs2  v100
 BYTE   W03
 BYTE   Fs2  v064
 BYTE   W03
 BYTE   N05  Cn2  v100
 BYTE   W54
 BYTE   PEND 
//  #12 //100   ----------------------------------------
 BYTE   W96
//  #12 //101   ----------------------------------------
 BYTE   PATT
  POIN2 Label_F9F412
//  #12 //102   ----------------------------------------
 BYTE   PATT
  POIN2 Label_F9F427
//  #12 //103   ----------------------------------------
 BYTE   PATT
  POIN2 Label_F9F436
//  #12 //104   ----------------------------------------
 BYTE   W96
//  #12 //105   ----------------------------------------
 BYTE   W96
//  #12 //106   ----------------------------------------
 BYTE   W96
//  #12 //107   ----------------------------------------
 BYTE   W96
//  #12 //108   ----------------------------------------
 BYTE   W96
//  #12 //109   ----------------------------------------
 BYTE   W96
//  #12 //110   ----------------------------------------
 BYTE   W96
//  #12 //111   ----------------------------------------
 BYTE   PATT
  POIN2 Label_F9F44E
//  #12 //112   ----------------------------------------
 BYTE   GoTo
  POIN2 Label_F9F458
//  #12 //113   ----------------------------------------
 BYTE   W96
//  #12 //114   ----------------------------------------
 BYTE   W96
//  #12 //115   ----------------------------------------
 BYTE   W96
//  #12 //116   ----------------------------------------
 BYTE   W96
//  #12 //117   ----------------------------------------
 BYTE   W96
//  #12 //118   ----------------------------------------
 BYTE   PATT
  POIN2 Label_F9F45D
//  #12 //119   ----------------------------------------
 BYTE   W96
//  #12 //120   ----------------------------------------
 BYTE   PATT
  POIN2 Label_F9F44E
//  #12 //121   ----------------------------------------
 BYTE   W96
//  #12 //122   ----------------------------------------
 BYTE   W96
//  #12 //123   ----------------------------------------
 BYTE   W96
//  #12 //124   ----------------------------------------
 BYTE   W96
//  #12 //125   ----------------------------------------
 BYTE   W96
//  #12 //126   ----------------------------------------
 BYTE   PATT
  POIN2 Label_F9F45D
//  #12 //127   ----------------------------------------
 BYTE   W96
//  #12 //128   ----------------------------------------
 BYTE   PATT
  POIN2 Label_F9F478
//  #12 //129   ----------------------------------------
 BYTE   W96
//  #12 //130   ----------------------------------------
 BYTE   W96
//  #12 //131   ----------------------------------------
 BYTE   W96
//  #12 //132   ----------------------------------------
 BYTE   W96
//  #12 //133   ----------------------------------------
 BYTE   W96
//  #12 //134   ----------------------------------------
 BYTE   W96
//  #12 //135   ----------------------------------------
 BYTE   W96
//  #12 //136   ----------------------------------------
 BYTE   PATT
  POIN2 Label_F9F48B
//  #12 //137   ----------------------------------------
 BYTE   W96
//  #12 //138   ----------------------------------------
 BYTE   W96
//  #12 //139   ----------------------------------------
 BYTE   W96
//  #12 //140   ----------------------------------------
 BYTE   W96
//  #12 //141   ----------------------------------------
 BYTE   W96
//  #12 //142   ----------------------------------------
 BYTE   W96
//  #12 //143   ----------------------------------------
 BYTE   W96
//  #12 //144   ----------------------------------------
 BYTE   PATT
  POIN2 Label_F9F4A2
//  #12 //145   ----------------------------------------
 BYTE   W96
//  #12 //146   ----------------------------------------
 BYTE   W96
//  #12 //147   ----------------------------------------
 BYTE   W96
//  #12 //148   ----------------------------------------
 BYTE   W96
//  #12 //149   ----------------------------------------
 BYTE   W96
//  #12 //150   ----------------------------------------
 BYTE   W96
//  #12 //151   ----------------------------------------
 BYTE   W96
//  #12 //152   ----------------------------------------
 BYTE   PATT
  POIN2 Label_F9F44E
//  #12 //153   ----------------------------------------
 BYTE   W96
//  #12 //154   ----------------------------------------
 BYTE   W96
//  #12 //155   ----------------------------------------
 BYTE   W96
//  #12 //156   ----------------------------------------
 BYTE   W96
//  #12 //157   ----------------------------------------
 BYTE   W96
//  #12 //158   ----------------------------------------
 BYTE   PATT
  POIN2 Label_F9F45D
//  #12 //159   ----------------------------------------
 BYTE   W96
//  #12 //160   ----------------------------------------
 BYTE   PATT
  POIN2 Label_F9F44E
//  #12 //161   ----------------------------------------
 BYTE   W96
//  #12 //162   ----------------------------------------
 BYTE   W96
//  #12 //163   ----------------------------------------
 BYTE   W96
//  #12 //164   ----------------------------------------
 BYTE   W96
//  #12 //165   ----------------------------------------
 BYTE   W96
//  #12 //166   ----------------------------------------
 BYTE   PATT
  POIN2 Label_F9F45D
//  #12 //167   ----------------------------------------
 BYTE   W96
//  #12 //168   ----------------------------------------
 BYTE   PATT
  POIN2 Label_F9F478
//  #12 //169   ----------------------------------------
 BYTE   W96
//  #12 //170   ----------------------------------------
 BYTE   W96
//  #12 //171   ----------------------------------------
 BYTE   W96
//  #12 //172   ----------------------------------------
 BYTE   W96
//  #12 //173   ----------------------------------------
 BYTE   W96
//  #12 //174   ----------------------------------------
 BYTE   W96
//  #12 //175   ----------------------------------------
 BYTE   W96
//  #12 //176   ----------------------------------------
 BYTE   PATT
  POIN2 Label_F9F48B
//  #12 //177   ----------------------------------------
 BYTE   W96
//  #12 //178   ----------------------------------------
 BYTE   W96
//  #12 //179   ----------------------------------------
 BYTE   W96
//  #12 //180   ----------------------------------------
 BYTE   W96
//  #12 //181   ----------------------------------------
 BYTE   W96
//  #12 //182   ----------------------------------------
 BYTE   W96
//  #12 //183   ----------------------------------------
 BYTE   W96
//  #12 //184   ----------------------------------------
 BYTE   PATT
  POIN2 Label_F9F4F9
//  #12 //185   ----------------------------------------
 BYTE   W96
//  #12 //186   ----------------------------------------
 BYTE   W96
//  #12 //187   ----------------------------------------
 BYTE   W96
//  #12 //188   ----------------------------------------
 BYTE   PATT
  POIN2 Label_F9F50C
//  #12 //189   ----------------------------------------
 BYTE   W96
//  #12 //190   ----------------------------------------
 BYTE   W96
//  #12 //191   ----------------------------------------
 BYTE   W96
//  #12 //192   ----------------------------------------
 BYTE   PATT
  POIN2 Label_F9F51B
//  #12 //193   ----------------------------------------
 BYTE   W96
//  #12 //194   ----------------------------------------
 BYTE   W96
//  #12 //195   ----------------------------------------
 BYTE   W96
//  #12 //196   ----------------------------------------
 BYTE   PATT
  POIN2 Label_F9F50C
//  #12 //197   ----------------------------------------
 BYTE   W96
//  #12 //198   ----------------------------------------
 BYTE   W96
//  #12 //199   ----------------------------------------
 BYTE   W84
 BYTE   N05  Cn2  v100
 BYTE   W12
//  #12 //200   ----------------------------------------
 BYTE   PATT
  POIN2 Label_F9F53D
//  #12 //201   ----------------------------------------
 BYTE   W96
//  #12 //202   ----------------------------------------
 BYTE   PATT
  POIN2 Label_F9F412
//  #12 //203   ----------------------------------------
 BYTE   PATT
  POIN2 Label_F9F427
//  #12 //204   ----------------------------------------
 BYTE   PATT
  POIN2 Label_F9F436
//  #12 //205   ----------------------------------------
 BYTE   W96
//  #12 //206   ----------------------------------------
 BYTE   W96
//  #12 //207   ----------------------------------------
 BYTE   W96
//  #12 //208   ----------------------------------------
 BYTE   W92
 BYTE   W03
 BYTE   FINE

//**************** Track 13 (Midi-Chn.12) ****************//

PointOfNoReturn_Song_013:
//  #13 //000   ----------------------------------------
 BYTE   KEYSH   PointOfNoReturn_Song_key+0
 BYTE   VOICE   28
 BYTE   VOL   0*PointOfNoReturn_Song_mvl/mxv
 BYTE   PAN   c_v+0
 BYTE   VOL   40*PointOfNoReturn_Song_mvl/mxv
 BYTE   PAN   c_v+0
 BYTE   W24
 BYTE   W96
//  #13 //001   ----------------------------------------
 BYTE   W96
//  #13 //002   ----------------------------------------
 BYTE   W96
//  #13 //003   ----------------------------------------
 BYTE   W96
//  #13 //004   ----------------------------------------
 BYTE   W96
//  #13 //005   ----------------------------------------
 BYTE   W96
//  #13 //006   ----------------------------------------
 BYTE   W96
//  #13 //007   ----------------------------------------
 BYTE   W96
//  #13 //008   ----------------------------------------
 BYTE   W96
//  #13 //009   ----------------------------------------
 BYTE   W96
//  #13 //010   ----------------------------------------
 BYTE   W96
//  #13 //011   ----------------------------------------
 BYTE   W96
//  #13 //012   ----------------------------------------
Label_01693149:
 BYTE   W72
 BYTE   N17  Ds2  v112
 BYTE   W18
 BYTE   Dn2
 BYTE   W06
 BYTE   PEND 
//  #13 //013   ----------------------------------------
Label_01693151:
 BYTE   W12
 BYTE   N80  Gn1  v112
 BYTE   W36
 BYTE   W48
 BYTE   PEND 
//  #13 //014   ----------------------------------------
Label_01693158:
 BYTE   W12
 BYTE   N05  Gn1  v112
 BYTE   W12
 BYTE   N11  Fn1
 BYTE   W12
 BYTE   Gn1
 BYTE   W12
 BYTE   As1
 BYTE   W12
 BYTE   Cn2
 BYTE   W12
 BYTE   N17  Dn2
 BYTE   W18
 BYTE   Ds2
 BYTE   W06
 BYTE   PEND 
//  #13 //015   ----------------------------------------
Label_0169316C:
 BYTE   W12
 BYTE   N80  Dn2  v112
 BYTE   W36
 BYTE   W48
 BYTE   PEND 
//  #13 //016   ----------------------------------------
Label_01693173:
 BYTE   W12
 BYTE   N02  As1  v112
 BYTE   W06
 BYTE   N05
 BYTE   W06
 BYTE   N17  Fn2
 BYTE   W18
 BYTE   N11  Ds2
 BYTE   W06
 BYTE   W12
 BYTE   Fn2
 BYTE   W12
 BYTE   N17  Gn2
 BYTE   W18
 BYTE   Gs2
 BYTE   W06
 BYTE   PEND 
//  #13 //017   ----------------------------------------
Label_01693189:
 BYTE   W12
 BYTE   N68  Cn2  v112
 BYTE   W36
 BYTE   W48
 BYTE   PEND 
//  #13 //018   ----------------------------------------
Label_01693190:
 BYTE   N11  Gn1  v112
 BYTE   W12
 BYTE   Bn1
 BYTE   W12
 BYTE   N17  Fn2
 BYTE   W18
 BYTE   N11  Ds2
 BYTE   W06
 BYTE   W12
 BYTE   N05  Dn2
 BYTE   W12
 BYTE   TIE
 BYTE   W24
 BYTE   PEND 
//  #13 //019   ----------------------------------------
 BYTE   W96
//  #13 //020   ----------------------------------------
 BYTE   W23
 BYTE   EOT
 BYTE   W48
 BYTE   W01
 BYTE   N17  Ds2
 BYTE   W18
 BYTE   Dn2
 BYTE   W06
//  #13 //021   ----------------------------------------
 BYTE   PATT
  POIN2 Label_01693151
//  #13 //022   ----------------------------------------
 BYTE   PATT
  POIN2 Label_01693158
//  #13 //023   ----------------------------------------
 BYTE   PATT
  POIN2 Label_0169316C
//  #13 //024   ----------------------------------------
 BYTE   PATT
  POIN2 Label_01693173
//  #13 //025   ----------------------------------------
Label_016931C1:
 BYTE   W12
 BYTE   N56  Gn2  v112
 BYTE   W36
 BYTE   W48
 BYTE   PEND 
//  #13 //026   ----------------------------------------
Label_016931C8:
 BYTE   N11  Fn2  v112
 BYTE   W12
 BYTE   Gn2
 BYTE   W12
 BYTE   Fn2
 BYTE   W12
 BYTE   Ds2
 BYTE   W12
 BYTE   As1
 BYTE   W12
 BYTE   Ds2
 BYTE   W12
 BYTE   N92  Dn2
 BYTE   W24
 BYTE   PEND 
//  #13 //027   ----------------------------------------
 BYTE   W96
//  #13 //028   ----------------------------------------
 BYTE   W96
//  #13 //029   ----------------------------------------
 BYTE   W96
//  #13 //030   ----------------------------------------
 BYTE   W96
//  #13 //031   ----------------------------------------
 BYTE   W96
//  #13 //032   ----------------------------------------
 BYTE   W96
//  #13 //033   ----------------------------------------
 BYTE   W96
//  #13 //034   ----------------------------------------
 BYTE   W96
//  #13 //035   ----------------------------------------
 BYTE   W96
//  #13 //036   ----------------------------------------
 BYTE   W96
//  #13 //037   ----------------------------------------
 BYTE   W96
//  #13 //038   ----------------------------------------
 BYTE   W96
//  #13 //039   ----------------------------------------
 BYTE   W96
//  #13 //040   ----------------------------------------
 BYTE   W96
//  #13 //041   ----------------------------------------
 BYTE   W96
//  #13 //042   ----------------------------------------
 BYTE   W96
//  #13 //043   ----------------------------------------
 BYTE   W96
//  #13 //044   ----------------------------------------
 BYTE   W96
//  #13 //045   ----------------------------------------
 BYTE   W96
//  #13 //046   ----------------------------------------
 BYTE   W96
//  #13 //047   ----------------------------------------
 BYTE   W96
//  #13 //048   ----------------------------------------
 BYTE   W96
//  #13 //049   ----------------------------------------
 BYTE   W96
//  #13 //050   ----------------------------------------
 BYTE   W96
//  #13 //051   ----------------------------------------
 BYTE   W96
//  #13 //052   ----------------------------------------
 BYTE   PATT
  POIN2 Label_01693149
//  #13 //053   ----------------------------------------
 BYTE   PATT
  POIN2 Label_01693151
//  #13 //054   ----------------------------------------
 BYTE   PATT
  POIN2 Label_01693158
//  #13 //055   ----------------------------------------
 BYTE   PATT
  POIN2 Label_0169316C
//  #13 //056   ----------------------------------------
 BYTE   PATT
  POIN2 Label_01693173
//  #13 //057   ----------------------------------------
 BYTE   PATT
  POIN2 Label_01693189
//  #13 //058   ----------------------------------------
 BYTE   PATT
  POIN2 Label_01693190
//  #13 //059   ----------------------------------------
 BYTE   W96
//  #13 //060   ----------------------------------------
 BYTE   W23
 BYTE   EOT
 BYTE   Dn2
 BYTE   W48
 BYTE   W01
 BYTE   N17  Ds2  v112
 BYTE   W18
 BYTE   Dn2
 BYTE   W06
//  #13 //061   ----------------------------------------
 BYTE   PATT
  POIN2 Label_01693151
//  #13 //062   ----------------------------------------
 BYTE   PATT
  POIN2 Label_01693158
//  #13 //063   ----------------------------------------
 BYTE   PATT
  POIN2 Label_0169316C
//  #13 //064   ----------------------------------------
 BYTE   PATT
  POIN2 Label_01693173
//  #13 //065   ----------------------------------------
 BYTE   PATT
  POIN2 Label_016931C1
//  #13 //066   ----------------------------------------
 BYTE   PATT
  POIN2 Label_016931C8
//  #13 //067   ----------------------------------------
 BYTE   W96
//  #13 //068   ----------------------------------------
 BYTE   W96
//  #13 //069   ----------------------------------------
 BYTE   W96
//  #13 //070   ----------------------------------------
 BYTE   W96
//  #13 //071   ----------------------------------------
 BYTE   W96
//  #13 //072   ----------------------------------------
 BYTE   W96
//  #13 //073   ----------------------------------------
 BYTE   W96
//  #13 //074   ----------------------------------------
 BYTE   W96
//  #13 //075   ----------------------------------------
 BYTE   W96
//  #13 //076   ----------------------------------------
 BYTE   W96
//  #13 //077   ----------------------------------------
 BYTE   W96
//  #13 //078   ----------------------------------------
 BYTE   W96
//  #13 //079   ----------------------------------------
 BYTE   W96
//  #13 //080   ----------------------------------------
 BYTE   W96
//  #13 //081   ----------------------------------------
 BYTE   W96
//  #13 //082   ----------------------------------------
 BYTE   W96
//  #13 //083   ----------------------------------------
 BYTE   W96
//  #13 //084   ----------------------------------------
Label_01693251:
 BYTE   W72
 BYTE   N44  Dn2  v112
 BYTE   W24
 BYTE   PEND 
//  #13 //085   ----------------------------------------
Label_01693257:
 BYTE   W24
 BYTE   N17  Gn1  v112
 BYTE   W18
 BYTE   Cn2
 BYTE   W06
 BYTE   W12
 BYTE   N11  Ds2
 BYTE   W12
 BYTE   N44  Dn2
 BYTE   W24
 BYTE   PEND 
//  #13 //086   ----------------------------------------
Label_01693266:
 BYTE   W24
 BYTE   N17  Cn2  v112
 BYTE   W18
 BYTE   Ds2
 BYTE   W06
 BYTE   W12
 BYTE   N11  Fn2
 BYTE   W12
 BYTE   N08  Gn2
 BYTE   W18
 BYTE   N17
 BYTE   W06
 BYTE   PEND 
//  #13 //087   ----------------------------------------
Label_01693277:
 BYTE   W12
 BYTE   N05  Gn2  v112
 BYTE   W12
 BYTE   N17
 BYTE   W18
 BYTE   N11  Fn2
 BYTE   W06
 BYTE   W12
 BYTE   N05  Ds2
 BYTE   W12
 BYTE   N17  Dn2
 BYTE   W18
 BYTE   N05  Ds2
 BYTE   W06
 BYTE   PEND 
//  #13 //088   ----------------------------------------
Label_0169328C:
 BYTE   W12
 BYTE   N23  Fn2  v112
 BYTE   W24
 BYTE   N05  Ds2
 BYTE   W12
 BYTE   N11  Dn2
 BYTE   W12
 BYTE   As1
 BYTE   W12
 BYTE   N44  Cn2
 BYTE   W24
 BYTE   PEND 
//  #13 //089   ----------------------------------------
Label_0169329D:
 BYTE   W24
 BYTE   N17  Cn2  v112
 BYTE   W18
 BYTE   Dn2
 BYTE   W06
 BYTE   W12
 BYTE   N11  Ds2
 BYTE   W12
 BYTE   N44  Fn2
 BYTE   W24
 BYTE   PEND 
//  #13 //090   ----------------------------------------
 BYTE   PATT
  POIN2 Label_01693266
//  #13 //091   ----------------------------------------
Label_016932B1:
 BYTE   W12
 BYTE   N05  Gn2  v112
 BYTE   W12
 BYTE   N17
 BYTE   W18
 BYTE   N11  Fn2
 BYTE   W06
 BYTE   W12
 BYTE   As2
 BYTE   W12
 BYTE   N68  Gn2
 BYTE   W24
 BYTE   PEND 
//  #13 //092   ----------------------------------------
Label_016932C2:
 BYTE   W72
 BYTE   N44  Dn2  v112
 BYTE   W24
 BYTE   PEND 
//  #13 //093   ----------------------------------------
 BYTE   PATT
  POIN2 Label_01693257
//  #13 //094   ----------------------------------------
 BYTE   PATT
  POIN2 Label_01693266
//  #13 //095   ----------------------------------------
 BYTE   PATT
  POIN2 Label_01693277
//  #13 //096   ----------------------------------------
Label_016932D7:
 BYTE   W12
 BYTE   N23  Fn2  v112
 BYTE   W24
 BYTE   N05  Gn2
 BYTE   W12
 BYTE   N11  Dn2
 BYTE   W12
 BYTE   As1
 BYTE   W12
 BYTE   N44  Cn2
 BYTE   W24
 BYTE   PEND 
//  #13 //097   ----------------------------------------
Label_016932E8:
 BYTE   W24
 BYTE   N17  Cn2  v112
 BYTE   W18
 BYTE   Ds2
 BYTE   W06
 BYTE   W12
 BYTE   N11  Fn2
 BYTE   W12
 BYTE   N44  Gn2
 BYTE   W24
 BYTE   PEND 
//  #13 //098   ----------------------------------------
Label_016932F7:
 BYTE   W24
 BYTE   N17  Gn2  v112
 BYTE   W18
 BYTE   Gs2
 BYTE   W06
 BYTE   W12
 BYTE   N11  As2
 BYTE   W12
 BYTE   N17  Cn3
 BYTE   W18
 BYTE   Dn3
 BYTE   W06
 BYTE   PEND 
//  #13 //099   ----------------------------------------
Label_01693308:
 BYTE   W12
 BYTE   N11  Ds3  v112
 BYTE   W12
 BYTE   N23  Dn3
 BYTE   W24
 BYTE   Cn3
 BYTE   W24
 BYTE   N11  Bn2
 BYTE   W24
 BYTE   PEND 
//  #13 //100   ----------------------------------------
Label_01693316:
 BYTE   N23  Gn2  v112
 BYTE   W24
 BYTE   Dn3
 BYTE   W24
 BYTE   Ds3
 BYTE   W24
 BYTE   TIE  Dn3
 BYTE   W24
 BYTE   PEND 
//  #13 //101   ----------------------------------------
 BYTE   W96
//  #13 //102   ----------------------------------------
Label_01693323:
 BYTE   W68
 BYTE   W03
 BYTE   PEND 
 BYTE   EOT
 BYTE   Dn3
 BYTE   W24
 BYTE   W01
//  #13 //103   ----------------------------------------
 BYTE   W96
//  #13 //104   ----------------------------------------
 BYTE   W96
//  #13 //105   ----------------------------------------
 BYTE   W96
//  #13 //106   ----------------------------------------
 BYTE   W96
//  #13 //107   ----------------------------------------
 BYTE   W96
//  #13 //108   ----------------------------------------
 BYTE   W96
//  #13 //109   ----------------------------------------
 BYTE   W96
//  #13 //110   ----------------------------------------
 BYTE   W96
//  #13 //111   ----------------------------------------
 BYTE   W96
//  #13 //112   ----------------------------------------
 BYTE   GoTo
  POIN2 Label_01693149
//  #13 //113   ----------------------------------------
 BYTE   PATT
  POIN2 Label_01693149
//  #13 //114   ----------------------------------------
 BYTE   PATT
  POIN2 Label_01693151
//  #13 //115   ----------------------------------------
 BYTE   PATT
  POIN2 Label_01693158
//  #13 //116   ----------------------------------------
 BYTE   PATT
  POIN2 Label_0169316C
//  #13 //117   ----------------------------------------
 BYTE   PATT
  POIN2 Label_01693173
//  #13 //118   ----------------------------------------
 BYTE   PATT
  POIN2 Label_01693189
//  #13 //119   ----------------------------------------
 BYTE   PATT
  POIN2 Label_01693190
//  #13 //120   ----------------------------------------
 BYTE   W96
//  #13 //121   ----------------------------------------
 BYTE   W23
 BYTE   EOT
 BYTE   Dn2
 BYTE   W48
 BYTE   W01
 BYTE   N17  Ds2  v112
 BYTE   W18
 BYTE   Dn2
 BYTE   W06
//  #13 //122   ----------------------------------------
 BYTE   PATT
  POIN2 Label_01693151
//  #13 //123   ----------------------------------------
 BYTE   PATT
  POIN2 Label_01693158
//  #13 //124   ----------------------------------------
 BYTE   PATT
  POIN2 Label_0169316C
//  #13 //125   ----------------------------------------
 BYTE   PATT
  POIN2 Label_01693173
//  #13 //126   ----------------------------------------
 BYTE   PATT
  POIN2 Label_016931C1
//  #13 //127   ----------------------------------------
 BYTE   PATT
  POIN2 Label_016931C8
//  #13 //128   ----------------------------------------
 BYTE   W96
//  #13 //129   ----------------------------------------
 BYTE   W96
//  #13 //130   ----------------------------------------
 BYTE   W96
//  #13 //131   ----------------------------------------
 BYTE   W96
//  #13 //132   ----------------------------------------
 BYTE   W96
//  #13 //133   ----------------------------------------
 BYTE   W96
//  #13 //134   ----------------------------------------
 BYTE   W96
//  #13 //135   ----------------------------------------
 BYTE   W96
//  #13 //136   ----------------------------------------
 BYTE   W96
//  #13 //137   ----------------------------------------
 BYTE   W96
//  #13 //138   ----------------------------------------
 BYTE   W96
//  #13 //139   ----------------------------------------
 BYTE   W96
//  #13 //140   ----------------------------------------
 BYTE   W96
//  #13 //141   ----------------------------------------
 BYTE   W96
//  #13 //142   ----------------------------------------
 BYTE   W96
//  #13 //143   ----------------------------------------
 BYTE   W96
//  #13 //144   ----------------------------------------
 BYTE   W96
//  #13 //145   ----------------------------------------
 BYTE   W96
//  #13 //146   ----------------------------------------
 BYTE   W96
//  #13 //147   ----------------------------------------
 BYTE   W96
//  #13 //148   ----------------------------------------
 BYTE   W96
//  #13 //149   ----------------------------------------
 BYTE   W96
//  #13 //150   ----------------------------------------
 BYTE   W96
//  #13 //151   ----------------------------------------
 BYTE   W96
//  #13 //152   ----------------------------------------
 BYTE   W96
//  #13 //153   ----------------------------------------
 BYTE   PATT
  POIN2 Label_01693149
//  #13 //154   ----------------------------------------
 BYTE   PATT
  POIN2 Label_01693151
//  #13 //155   ----------------------------------------
 BYTE   PATT
  POIN2 Label_01693158
//  #13 //156   ----------------------------------------
 BYTE   PATT
  POIN2 Label_0169316C
//  #13 //157   ----------------------------------------
 BYTE   PATT
  POIN2 Label_01693173
//  #13 //158   ----------------------------------------
 BYTE   PATT
  POIN2 Label_01693189
//  #13 //159   ----------------------------------------
 BYTE   PATT
  POIN2 Label_01693190
//  #13 //160   ----------------------------------------
 BYTE   W96
//  #13 //161   ----------------------------------------
 BYTE   W23
 BYTE   EOT
 BYTE   Dn2
 BYTE   W48
 BYTE   W01
 BYTE   N17  Ds2  v112
 BYTE   W18
 BYTE   Dn2
 BYTE   W06
//  #13 //162   ----------------------------------------
 BYTE   PATT
  POIN2 Label_01693151
//  #13 //163   ----------------------------------------
 BYTE   PATT
  POIN2 Label_01693158
//  #13 //164   ----------------------------------------
 BYTE   PATT
  POIN2 Label_0169316C
//  #13 //165   ----------------------------------------
 BYTE   PATT
  POIN2 Label_01693173
//  #13 //166   ----------------------------------------
 BYTE   PATT
  POIN2 Label_016931C1
//  #13 //167   ----------------------------------------
 BYTE   PATT
  POIN2 Label_016931C8
//  #13 //168   ----------------------------------------
 BYTE   W96
//  #13 //169   ----------------------------------------
 BYTE   W96
//  #13 //170   ----------------------------------------
 BYTE   W96
//  #13 //171   ----------------------------------------
 BYTE   W96
//  #13 //172   ----------------------------------------
 BYTE   W96
//  #13 //173   ----------------------------------------
 BYTE   W96
//  #13 //174   ----------------------------------------
 BYTE   W96
//  #13 //175   ----------------------------------------
 BYTE   W96
//  #13 //176   ----------------------------------------
 BYTE   W96
//  #13 //177   ----------------------------------------
 BYTE   W96
//  #13 //178   ----------------------------------------
 BYTE   W96
//  #13 //179   ----------------------------------------
 BYTE   W96
//  #13 //180   ----------------------------------------
 BYTE   W96
//  #13 //181   ----------------------------------------
 BYTE   W96
//  #13 //182   ----------------------------------------
 BYTE   W96
//  #13 //183   ----------------------------------------
 BYTE   W96
//  #13 //184   ----------------------------------------
 BYTE   W96
//  #13 //185   ----------------------------------------
 BYTE   PATT
  POIN2 Label_01693251
//  #13 //186   ----------------------------------------
 BYTE   PATT
  POIN2 Label_01693257
//  #13 //187   ----------------------------------------
 BYTE   PATT
  POIN2 Label_01693266
//  #13 //188   ----------------------------------------
 BYTE   PATT
  POIN2 Label_01693277
//  #13 //189   ----------------------------------------
 BYTE   PATT
  POIN2 Label_0169328C
//  #13 //190   ----------------------------------------
 BYTE   PATT
  POIN2 Label_0169329D
//  #13 //191   ----------------------------------------
 BYTE   PATT
  POIN2 Label_01693266
//  #13 //192   ----------------------------------------
 BYTE   PATT
  POIN2 Label_016932B1
//  #13 //193   ----------------------------------------
 BYTE   PATT
  POIN2 Label_016932C2
//  #13 //194   ----------------------------------------
 BYTE   PATT
  POIN2 Label_01693257
//  #13 //195   ----------------------------------------
 BYTE   PATT
  POIN2 Label_01693266
//  #13 //196   ----------------------------------------
 BYTE   PATT
  POIN2 Label_01693277
//  #13 //197   ----------------------------------------
 BYTE   PATT
  POIN2 Label_016932D7
//  #13 //198   ----------------------------------------
 BYTE   PATT
  POIN2 Label_016932E8
//  #13 //199   ----------------------------------------
 BYTE   PATT
  POIN2 Label_016932F7
//  #13 //200   ----------------------------------------
 BYTE   PATT
  POIN2 Label_01693308
//  #13 //201   ----------------------------------------
 BYTE   PATT
  POIN2 Label_01693316
//  #13 //202   ----------------------------------------
 BYTE   W96
//  #13 //203   ----------------------------------------
 BYTE   PATT
  POIN2 Label_01693323
//  #13 //204   ----------------------------------------
 BYTE   EOT
 BYTE   Dn3
 BYTE   W24
 BYTE   W01
 BYTE   W96
//  #13 //205   ----------------------------------------
 BYTE   W96
//  #13 //206   ----------------------------------------
 BYTE   W96
//  #13 //207   ----------------------------------------
 BYTE   W96
//  #13 //208   ----------------------------------------
 BYTE   W92
 BYTE   W03
 BYTE   FINE

//**************** Track 14 (Midi-Chn.13) ****************//

PointOfNoReturn_Song_014:
//  #14 //000   ----------------------------------------
 BYTE   KEYSH   PointOfNoReturn_Song_key+0
 BYTE   VOICE   73
 BYTE   VOL   0*PointOfNoReturn_Song_mvl/mxv
 BYTE   PAN   c_v+0
 BYTE   VOL   30*PointOfNoReturn_Song_mvl/mxv
 BYTE   PAN   c_v+0
 BYTE   W24
 BYTE   W96
//  #14 //001   ----------------------------------------
 BYTE   W96
//  #14 //002   ----------------------------------------
 BYTE   W96
//  #14 //003   ----------------------------------------
 BYTE   W96
//  #14 //004   ----------------------------------------
 BYTE   W96
//  #14 //005   ----------------------------------------
 BYTE   W96
//  #14 //006   ----------------------------------------
 BYTE   W96
//  #14 //007   ----------------------------------------
 BYTE   W96
//  #14 //008   ----------------------------------------
 BYTE   W96
//  #14 //009   ----------------------------------------
 BYTE   W96
//  #14 //010   ----------------------------------------
 BYTE   W96
//  #14 //011   ----------------------------------------
 BYTE   W96
//  #14 //012   ----------------------------------------
Label_016B66F1:
 BYTE   W96
//  #14 //013   ----------------------------------------
 BYTE   W96
//  #14 //014   ----------------------------------------
 BYTE   W96
//  #14 //015   ----------------------------------------
 BYTE   W96
//  #14 //016   ----------------------------------------
 BYTE   W96
//  #14 //017   ----------------------------------------
 BYTE   W96
//  #14 //018   ----------------------------------------
 BYTE   W96
//  #14 //019   ----------------------------------------
 BYTE   W96
//  #14 //020   ----------------------------------------
 BYTE   W96
//  #14 //021   ----------------------------------------
 BYTE   W96
//  #14 //022   ----------------------------------------
 BYTE   W96
//  #14 //023   ----------------------------------------
 BYTE   W96
//  #14 //024   ----------------------------------------
 BYTE   W96
//  #14 //025   ----------------------------------------
 BYTE   W96
//  #14 //026   ----------------------------------------
 BYTE   W96
//  #14 //027   ----------------------------------------
 BYTE   W96
//  #14 //028   ----------------------------------------
 BYTE   W24
 BYTE   N23  As4  v100
 BYTE   W24
 BYTE   N01  An5
 BYTE   W02
 BYTE   N15  As5
 BYTE   W04
 BYTE   W12
 BYTE   N17  Gs5
 BYTE   W06
 BYTE   W12
 BYTE   N11  Gn5
 BYTE   W12
//  #14 //029   ----------------------------------------
Label_016B6714:
 BYTE   N68  Gs5  v100
 BYTE   W72
 BYTE   N23  Cn5
 BYTE   W24
 BYTE   PEND 
//  #14 //030   ----------------------------------------
Label_016B671C:
 BYTE   N01  Fs5  v100
 BYTE   W02
 BYTE   N21  Gn5
 BYTE   W04
 BYTE   W18
 BYTE   N23  Fn5
 BYTE   W24
 BYTE   N01  Dn5
 BYTE   W02
 BYTE   N15  Ds5
 BYTE   W04
 BYTE   W12
 BYTE   N17  Dn5
 BYTE   W06
 BYTE   W12
 BYTE   TIE  Gn4
 BYTE   W12
 BYTE   PEND 
//  #14 //031   ----------------------------------------
Label_016B6736:
 BYTE   W92
 BYTE   W03
 BYTE   PEND 
 BYTE   EOT
 BYTE   Gn4
 BYTE   W01
//  #14 //032   ----------------------------------------
Label_016B673C:
 BYTE   W12
 BYTE   N05  Cn5  v100
 BYTE   W12
 BYTE   N01  En5
 BYTE   W02
 BYTE   N09  Fn5
 BYTE   W04
 BYTE   W06
 BYTE   N11  Gn5
 BYTE   W12
 BYTE   N01  An5
 BYTE   W02
 BYTE   N15  As5
 BYTE   W04
 BYTE   W12
 BYTE   N17  Gs5
 BYTE   W06
 BYTE   W12
 BYTE   N11  Gn5
 BYTE   W12
 BYTE   PEND 
//  #14 //033   ----------------------------------------
Label_016B675A:
 BYTE   N68  Gs5  v100
 BYTE   W72
 BYTE   N23  Gn5
 BYTE   W24
 BYTE   PEND 
//  #14 //034   ----------------------------------------
 BYTE   N01  Bn5
 BYTE   W02
 BYTE   N21  Cn6
 BYTE   W04
 BYTE   W18
 BYTE   N23  Gn5
 BYTE   W24
 BYTE   N01  En5
 BYTE   W02
 BYTE   N15  Fn5
 BYTE   W04
 BYTE   W12
 BYTE   N17  Gn5
 BYTE   W06
 BYTE   W12
 BYTE   N05  Fn5
 BYTE   W12
//  #14 //035   ----------------------------------------
 BYTE   N23  Cn5
 BYTE   W24
 BYTE   N01  Dn5
 BYTE   W02
 BYTE   N21  Ds5
 BYTE   W04
 BYTE   W18
 BYTE   N56  Dn5
 BYTE   W48
//  #14 //036   ----------------------------------------
 BYTE   W24
 BYTE   N23  As4
 BYTE   W24
 BYTE   N01  An5
 BYTE   W02
 BYTE   N15  As5
 BYTE   W04
 BYTE   W12
 BYTE   N17  Gs5
 BYTE   W06
 BYTE   W12
 BYTE   N11  Gn5
 BYTE   W12
//  #14 //037   ----------------------------------------
 BYTE   PATT
  POIN2 Label_016B6714
//  #14 //038   ----------------------------------------
 BYTE   PATT
  POIN2 Label_016B671C
//  #14 //039   ----------------------------------------
 BYTE   PATT
  POIN2 Label_016B6736
//  #14 //040   ----------------------------------------
 BYTE   EOT
 BYTE   Gn4
 BYTE   W01
//  #14 //041   ----------------------------------------
 BYTE   PATT
  POIN2 Label_016B673C
//  #14 //042   ----------------------------------------
 BYTE   PATT
  POIN2 Label_016B675A
//  #14 //043   ----------------------------------------
 BYTE   N01  Bn5  v100
 BYTE   W02
 BYTE   N21  Cn6
 BYTE   W04
 BYTE   W18
 BYTE   N23  Dn6
 BYTE   W24
 BYTE   N01
 BYTE   W02
 BYTE   N15  Ds6
 BYTE   W04
 BYTE   W12
 BYTE   N17  Fn6
 BYTE   W06
 BYTE   W12
 BYTE   N11  Ds6
 BYTE   W12
//  #14 //044   ----------------------------------------
 BYTE   N01  Cs6
 BYTE   W02
 BYTE   N21  Dn6
 BYTE   W04
 BYTE   W18
 BYTE   N23  Cn6
 BYTE   W24
 BYTE   N01  As5
 BYTE   W02
 BYTE   N21  Bn5
 BYTE   W04
 BYTE   W18
 BYTE   N01  Gs5
 BYTE   W02
 BYTE   N21  Gn5
 BYTE   W22
//  #14 //045   ----------------------------------------
Label_016B67E4:
 BYTE   TIE  Dn6  v100
 BYTE   W96
 BYTE   PEND 
//  #14 //046   ----------------------------------------
 BYTE   PATT
  POIN2 Label_016B6736
//  #14 //047   ----------------------------------------
 BYTE   EOT
 BYTE   Dn6
 BYTE   W01
 BYTE   W92
 BYTE   W03
//  #14 //048   ----------------------------------------
 BYTE   W01
 BYTE   W96
//  #14 //049   ----------------------------------------
 BYTE   W96
//  #14 //050   ----------------------------------------
 BYTE   W96
//  #14 //051   ----------------------------------------
 BYTE   W96
//  #14 //052   ----------------------------------------
 BYTE   W96
//  #14 //053   ----------------------------------------
 BYTE   W96
//  #14 //054   ----------------------------------------
 BYTE   W96
//  #14 //055   ----------------------------------------
 BYTE   W96
//  #14 //056   ----------------------------------------
 BYTE   W96
//  #14 //057   ----------------------------------------
 BYTE   W96
//  #14 //058   ----------------------------------------
 BYTE   W96
//  #14 //059   ----------------------------------------
 BYTE   W96
//  #14 //060   ----------------------------------------
 BYTE   W96
//  #14 //061   ----------------------------------------
 BYTE   W96
//  #14 //062   ----------------------------------------
 BYTE   W96
//  #14 //063   ----------------------------------------
 BYTE   W96
//  #14 //064   ----------------------------------------
 BYTE   W96
//  #14 //065   ----------------------------------------
 BYTE   W96
//  #14 //066   ----------------------------------------
 BYTE   W96
//  #14 //067   ----------------------------------------
 BYTE   W96
//  #14 //068   ----------------------------------------
 BYTE   W96
//  #14 //069   ----------------------------------------
Label_016B6809:
 BYTE   W23
 BYTE   N23  As4  v100
 BYTE   W24
 BYTE   N01  An5
 BYTE   W02
 BYTE   N15  As5
 BYTE   W04
 BYTE   W12
 BYTE   N17  Gs5
 BYTE   W06
 BYTE   W12
 BYTE   N11  Gn5
 BYTE   W12
 BYTE   N68  Gs5
 BYTE   W01
 BYTE   PEND 
//  #14 //070   ----------------------------------------
Label_016B6820:
 BYTE   W68
 BYTE   W03
 BYTE   N23  Cn5  v100
 BYTE   W24
 BYTE   N01  Fs5
 BYTE   W01
 BYTE   PEND 
//  #14 //071   ----------------------------------------
Label_016B682A:
 BYTE   W01
 BYTE   N21  Gn5  v100
 BYTE   W04
 BYTE   W18
 BYTE   N23  Fn5
 BYTE   W24
 BYTE   N01  Dn5
 BYTE   W02
 BYTE   N15  Ds5
 BYTE   W04
 BYTE   W12
 BYTE   N17  Dn5
 BYTE   W06
 BYTE   W12
 BYTE   TIE  Gn4
 BYTE   W12
 BYTE   W01
 BYTE   PEND 
//  #14 //072   ----------------------------------------
 BYTE   W92
 BYTE   W02
 BYTE   EOT
 BYTE   W02
//  #14 //073   ----------------------------------------
Label_016B6847:
 BYTE   W11
 BYTE   N05  Cn5  v100
 BYTE   W12
 BYTE   N01  En5
 BYTE   W02
 BYTE   N09  Fn5
 BYTE   W04
 BYTE   W06
 BYTE   N11  Gn5
 BYTE   W12
 BYTE   N01  An5
 BYTE   W02
 BYTE   N15  As5
 BYTE   W04
 BYTE   W12
 BYTE   N17  Gs5
 BYTE   W06
 BYTE   W12
 BYTE   N11  Gn5
 BYTE   W12
 BYTE   N68  Gs5
 BYTE   W01
 BYTE   PEND 
//  #14 //074   ----------------------------------------
Label_016B6868:
 BYTE   W68
 BYTE   W03
 BYTE   N23  Gn5  v100
 BYTE   W24
 BYTE   N01  Bn5
 BYTE   W01
 BYTE   PEND 
//  #14 //075   ----------------------------------------
Label_016B6872:
 BYTE   W01
 BYTE   N21  Cn6  v100
 BYTE   W04
 BYTE   W18
 BYTE   N23  Gn5
 BYTE   W24
 BYTE   N01  En5
 BYTE   W02
 BYTE   N15  Fn5
 BYTE   W04
 BYTE   W12
 BYTE   N17  Gn5
 BYTE   W06
 BYTE   W12
 BYTE   N05  Fn5
 BYTE   W12
 BYTE   N23  Cn5
 BYTE   W01
 BYTE   PEND 
//  #14 //076   ----------------------------------------
Label_016B688D:
 BYTE   W23
 BYTE   N01  Dn5  v100
 BYTE   W02
 BYTE   N21  Ds5
 BYTE   W04
 BYTE   W18
 BYTE   N56  Dn5
 BYTE   W48
 BYTE   W01
 BYTE   PEND 
//  #14 //077   ----------------------------------------
 BYTE   PATT
  POIN2 Label_016B6809
//  #14 //078   ----------------------------------------
 BYTE   PATT
  POIN2 Label_016B6820
//  #14 //079   ----------------------------------------
 BYTE   PATT
  POIN2 Label_016B682A
//  #14 //080   ----------------------------------------
 BYTE   W92
 BYTE   W02
 BYTE   EOT
 BYTE   Gn4
 BYTE   W02
//  #14 //081   ----------------------------------------
 BYTE   PATT
  POIN2 Label_016B6847
//  #14 //082   ----------------------------------------
 BYTE   PATT
  POIN2 Label_016B6868
//  #14 //083   ----------------------------------------
Label_016B68B9:
 BYTE   W01
 BYTE   N21  Cn6  v100
 BYTE   W04
 BYTE   W18
 BYTE   N23  Dn6
 BYTE   W24
 BYTE   N01
 BYTE   W02
 BYTE   N15  Ds6
 BYTE   W04
 BYTE   W12
 BYTE   N17  Fn6
 BYTE   W06
 BYTE   W12
 BYTE   N11  Ds6
 BYTE   W12
 BYTE   N01  Cs6
 BYTE   W01
 BYTE   PEND 
//  #14 //084   ----------------------------------------
 BYTE   W01
 BYTE   N21  Dn6
 BYTE   W04
 BYTE   W18
 BYTE   N23  Cn6
 BYTE   W24
 BYTE   N01  As5
 BYTE   W02
 BYTE   N21  Bn5
 BYTE   W04
 BYTE   W18
 BYTE   N01  Gs5
 BYTE   W02
 BYTE   N21  Gn5
 BYTE   W22
 BYTE   W01
//  #14 //085   ----------------------------------------
 BYTE   PATT
  POIN2 Label_016B67E4
//  #14 //086   ----------------------------------------
 BYTE   PATT
  POIN2 Label_016B6736
//  #14 //087   ----------------------------------------
 BYTE   EOT
 BYTE   Dn6
 BYTE   W01
 BYTE   W96
//  #14 //088   ----------------------------------------
 BYTE   W96
//  #14 //089   ----------------------------------------
 BYTE   W96
//  #14 //090   ----------------------------------------
 BYTE   W96
//  #14 //091   ----------------------------------------
 BYTE   W96
//  #14 //092   ----------------------------------------
 BYTE   W96
//  #14 //093   ----------------------------------------
 BYTE   W96
//  #14 //094   ----------------------------------------
 BYTE   W96
//  #14 //095   ----------------------------------------
 BYTE   W96
//  #14 //096   ----------------------------------------
 BYTE   W96
//  #14 //097   ----------------------------------------
 BYTE   W96
//  #14 //098   ----------------------------------------
 BYTE   W96
//  #14 //099   ----------------------------------------
 BYTE   W96
//  #14 //100   ----------------------------------------
 BYTE   W96
//  #14 //101   ----------------------------------------
 BYTE   W96
//  #14 //102   ----------------------------------------
 BYTE   W96
//  #14 //103   ----------------------------------------
 BYTE   W96
//  #14 //104   ----------------------------------------
 BYTE   W96
//  #14 //105   ----------------------------------------
 BYTE   W96
//  #14 //106   ----------------------------------------
 BYTE   W96
//  #14 //107   ----------------------------------------
 BYTE   W96
//  #14 //108   ----------------------------------------
 BYTE   W96
//  #14 //109   ----------------------------------------
 BYTE   W96
//  #14 //110   ----------------------------------------
 BYTE   W96
//  #14 //111   ----------------------------------------
 BYTE   W96
//  #14 //112   ----------------------------------------
 BYTE   W96
//  #14 //113   ----------------------------------------
 BYTE   GoTo
  POIN2 Label_016B66F1
//  #14 //114   ----------------------------------------
 BYTE   W96
//  #14 //115   ----------------------------------------
 BYTE   W96
//  #14 //116   ----------------------------------------
 BYTE   W96
//  #14 //117   ----------------------------------------
 BYTE   W96
//  #14 //118   ----------------------------------------
 BYTE   W96
//  #14 //119   ----------------------------------------
 BYTE   W96
//  #14 //120   ----------------------------------------
 BYTE   W96
//  #14 //121   ----------------------------------------
 BYTE   W96
//  #14 //122   ----------------------------------------
 BYTE   W96
//  #14 //123   ----------------------------------------
 BYTE   W96
//  #14 //124   ----------------------------------------
 BYTE   W96
//  #14 //125   ----------------------------------------
 BYTE   W96
//  #14 //126   ----------------------------------------
 BYTE   W96
//  #14 //127   ----------------------------------------
 BYTE   W96
//  #14 //128   ----------------------------------------
 BYTE   W96
//  #14 //129   ----------------------------------------
 BYTE   W96
//  #14 //130   ----------------------------------------
 BYTE   PATT
  POIN2 Label_016B6809
//  #14 //131   ----------------------------------------
 BYTE   PATT
  POIN2 Label_016B6820
//  #14 //132   ----------------------------------------
 BYTE   PATT
  POIN2 Label_016B682A
//  #14 //133   ----------------------------------------
 BYTE   W92
 BYTE   W02
 BYTE   EOT
 BYTE   Gn4
 BYTE   W02
//  #14 //134   ----------------------------------------
 BYTE   PATT
  POIN2 Label_016B6847
//  #14 //135   ----------------------------------------
 BYTE   PATT
  POIN2 Label_016B6868
//  #14 //136   ----------------------------------------
 BYTE   PATT
  POIN2 Label_016B6872
//  #14 //137   ----------------------------------------
 BYTE   PATT
  POIN2 Label_016B688D
//  #14 //138   ----------------------------------------
 BYTE   PATT
  POIN2 Label_016B6809
//  #14 //139   ----------------------------------------
 BYTE   PATT
  POIN2 Label_016B6820
//  #14 //140   ----------------------------------------
 BYTE   PATT
  POIN2 Label_016B682A
//  #14 //141   ----------------------------------------
 BYTE   W92
 BYTE   W02
 BYTE   EOT
 BYTE   Gn4
 BYTE   W02
//  #14 //142   ----------------------------------------
 BYTE   PATT
  POIN2 Label_016B6847
//  #14 //143   ----------------------------------------
 BYTE   PATT
  POIN2 Label_016B6868
//  #14 //144   ----------------------------------------
 BYTE   PATT
  POIN2 Label_016B68B9
//  #14 //145   ----------------------------------------
Label_016B6970:
 BYTE   W01
 BYTE   N21  Dn6  v100
 BYTE   W04
 BYTE   W18
 BYTE   N23  Cn6
 BYTE   W24
 BYTE   N01  As5
 BYTE   W02
 BYTE   N21  Bn5
 BYTE   W04
 BYTE   W18
 BYTE   N01  Gs5
 BYTE   W02
 BYTE   N21  Gn5
 BYTE   W22
 BYTE   N01  En6
 BYTE   W01
 BYTE   PEND 
//  #14 //146   ----------------------------------------
 BYTE   W01
 BYTE   N21  Fn6
 BYTE   W04
 BYTE   W18
 BYTE   N23  Ds6
 BYTE   W24
 BYTE   TIE  Dn6
 BYTE   W48
 BYTE   W01
//  #14 //147   ----------------------------------------
 BYTE   W92
 BYTE   W03
 BYTE   W01
//  #14 //148   ----------------------------------------
 BYTE   W44
 BYTE   W02
 BYTE   EOT
 BYTE   W48
 BYTE   W02
//  #14 //149   ----------------------------------------
 BYTE   W96
//  #14 //150   ----------------------------------------
 BYTE   W96
//  #14 //151   ----------------------------------------
 BYTE   W96
//  #14 //152   ----------------------------------------
 BYTE   W96
//  #14 //153   ----------------------------------------
 BYTE   W96
//  #14 //154   ----------------------------------------
 BYTE   W96
//  #14 //155   ----------------------------------------
 BYTE   W96
//  #14 //156   ----------------------------------------
 BYTE   W96
//  #14 //157   ----------------------------------------
 BYTE   W96
//  #14 //158   ----------------------------------------
 BYTE   W96
//  #14 //159   ----------------------------------------
 BYTE   W96
//  #14 //160   ----------------------------------------
 BYTE   W96
//  #14 //161   ----------------------------------------
 BYTE   W96
//  #14 //162   ----------------------------------------
 BYTE   W96
//  #14 //163   ----------------------------------------
 BYTE   W96
//  #14 //164   ----------------------------------------
 BYTE   W96
//  #14 //165   ----------------------------------------
 BYTE   W96
//  #14 //166   ----------------------------------------
 BYTE   W96
//  #14 //167   ----------------------------------------
 BYTE   W96
//  #14 //168   ----------------------------------------
 BYTE   W96
//  #14 //169   ----------------------------------------
 BYTE   W96
//  #14 //170   ----------------------------------------
 BYTE   PATT
  POIN2 Label_016B6809
//  #14 //171   ----------------------------------------
 BYTE   PATT
  POIN2 Label_016B6820
//  #14 //172   ----------------------------------------
 BYTE   PATT
  POIN2 Label_016B682A
//  #14 //173   ----------------------------------------
 BYTE   W92
 BYTE   W02
 BYTE   EOT
 BYTE   Gn4
 BYTE   W02
//  #14 //174   ----------------------------------------
 BYTE   PATT
  POIN2 Label_016B6847
//  #14 //175   ----------------------------------------
 BYTE   PATT
  POIN2 Label_016B6868
//  #14 //176   ----------------------------------------
 BYTE   PATT
  POIN2 Label_016B6872
//  #14 //177   ----------------------------------------
 BYTE   PATT
  POIN2 Label_016B688D
//  #14 //178   ----------------------------------------
 BYTE   PATT
  POIN2 Label_016B6809
//  #14 //179   ----------------------------------------
 BYTE   PATT
  POIN2 Label_016B6820
//  #14 //180   ----------------------------------------
 BYTE   PATT
  POIN2 Label_016B682A
//  #14 //181   ----------------------------------------
 BYTE   W92
 BYTE   W02
 BYTE   EOT
 BYTE   Gn4
 BYTE   W02
//  #14 //182   ----------------------------------------
 BYTE   PATT
  POIN2 Label_016B6847
//  #14 //183   ----------------------------------------
 BYTE   PATT
  POIN2 Label_016B6868
//  #14 //184   ----------------------------------------
 BYTE   PATT
  POIN2 Label_016B68B9
//  #14 //185   ----------------------------------------
 BYTE   PATT
  POIN2 Label_016B6970
//  #14 //186   ----------------------------------------
 BYTE   W01
 BYTE   N21  Fn6  v100
 BYTE   W22
 BYTE   N23  Ds6
 BYTE   W72
 BYTE   W01
//  #14 //187   ----------------------------------------
 BYTE   W96
//  #14 //188   ----------------------------------------
 BYTE   W96
//  #14 //189   ----------------------------------------
 BYTE   W96
//  #14 //190   ----------------------------------------
 BYTE   W96
//  #14 //191   ----------------------------------------
 BYTE   W96
//  #14 //192   ----------------------------------------
 BYTE   W96
//  #14 //193   ----------------------------------------
 BYTE   W96
//  #14 //194   ----------------------------------------
 BYTE   W96
//  #14 //195   ----------------------------------------
 BYTE   W96
//  #14 //196   ----------------------------------------
 BYTE   W96
//  #14 //197   ----------------------------------------
 BYTE   W96
//  #14 //198   ----------------------------------------
 BYTE   W96
//  #14 //199   ----------------------------------------
 BYTE   W96
//  #14 //200   ----------------------------------------
 BYTE   W96
//  #14 //201   ----------------------------------------
 BYTE   W96
//  #14 //202   ----------------------------------------
 BYTE   W96
//  #14 //203   ----------------------------------------
 BYTE   W96
//  #14 //204   ----------------------------------------
 BYTE   W96
//  #14 //205   ----------------------------------------
 BYTE   W96
//  #14 //206   ----------------------------------------
 BYTE   W96
//  #14 //207   ----------------------------------------
 BYTE   W96
//  #14 //208   ----------------------------------------
 BYTE   W96
//  #14 //209   ----------------------------------------
 BYTE   W92
 BYTE   W03
 BYTE   FINE

//******************************************************//
	ALIGN 4

PointOfNoReturn_Song:
	BYTE	14	// NumTrks
	BYTE	0	// NumBlks
	BYTE	PointOfNoReturn_Song_pri	// Priority
	BYTE	PointOfNoReturn_Song_rev	// Reverb.
    
	POIN2	PointOfNoReturn_Song_grp
    
	POIN2	PointOfNoReturn_Song_001
	POIN2	PointOfNoReturn_Song_002
	POIN2	PointOfNoReturn_Song_003
	POIN2	PointOfNoReturn_Song_004
	POIN2	PointOfNoReturn_Song_005
	POIN2	PointOfNoReturn_Song_006
	POIN2	PointOfNoReturn_Song_007
	POIN2	PointOfNoReturn_Song_008
	POIN2	PointOfNoReturn_Song_009
	POIN2	PointOfNoReturn_Song_010
	POIN2	PointOfNoReturn_Song_011
	POIN2	PointOfNoReturn_Song_012
	POIN2	PointOfNoReturn_Song_013
	POIN2	PointOfNoReturn_Song_014

	
