//Event file generated from Sappy .s format.
	#include "MPlayDef.event"

	#define	The_One_They_Call_Witch_Song_grp  voicegroup000
	#define	The_One_They_Call_Witch_Song_pri  0
	#define	The_One_They_Call_Witch_Song_rev  0
	#define	The_One_They_Call_Witch_Song_mvl  127
	#define	The_One_They_Call_Witch_Song_key  0
	#define	The_One_They_Call_Witch_Song_tbs  1
	#define	The_One_They_Call_Witch_Song_exg  0
	#define	The_One_They_Call_Witch_Song_cmp  1

	// .rodata
	//	The_One_They_Call_Witch_Song
	ALIGN 4


//**************** Track 1 (Midi-Chn.0) ****************//

The_One_They_Call_Witch_Song_001:
//  #01 //000   ----------------------------------------
 BYTE   KEYSH   The_One_They_Call_Witch_Song_key+0
 BYTE   TEMPO   174*The_One_They_Call_Witch_Song_tbs/2
 BYTE   VOICE   54
 BYTE   MODT 0
 BYTE   LFOS 44
 BYTE   BENDR  12
 BYTE   VOL   44*The_One_They_Call_Witch_Song_mvl/mxv
 BYTE   PAN   c_v+0
 BYTE   BENDR  12
 BYTE   VOL   44*The_One_They_Call_Witch_Song_mvl/mxv
 BYTE   PAN   c_v+0
 BYTE   BENDR  12
 BYTE   VOL   44*The_One_They_Call_Witch_Song_mvl/mxv
 BYTE   PAN   c_v+0
 BYTE   N23  As3  v088
 BYTE   W24
 BYTE   N23
 BYTE   W48
 BYTE   N23
 BYTE   W24
//  #01 //001   ----------------------------------------
 BYTE   N23
 BYTE   W96
//  #01 //002   ----------------------------------------
 BYTE   W96
//  #01 //003   ----------------------------------------
 BYTE   W96
//  #01 //004   ----------------------------------------
 BYTE   W96
//  #01 //005   ----------------------------------------
 BYTE   W96
//  #01 //006   ----------------------------------------
 BYTE   W96
//  #01 //007   ----------------------------------------
 BYTE   W96
//  #01 //008   ----------------------------------------
Label_01377ADC:
 BYTE   N92  Cn4  v088
 BYTE   W96
//  #01 //009   ----------------------------------------
 BYTE   W96
//  #01 //010   ----------------------------------------
 BYTE   Fn3
 BYTE   W96
//  #01 //011   ----------------------------------------
 BYTE   W96
//  #01 //012   ----------------------------------------
 BYTE   W96
//  #01 //013   ----------------------------------------
 BYTE   W96
//  #01 //014   ----------------------------------------
 BYTE   W96
//  #01 //015   ----------------------------------------
 BYTE   W96
//  #01 //016   ----------------------------------------
 BYTE   W96
//  #01 //017   ----------------------------------------
 BYTE   W96
//  #01 //018   ----------------------------------------
 BYTE   W96
//  #01 //019   ----------------------------------------
 BYTE   W96
//  #01 //020   ----------------------------------------
 BYTE   W96
//  #01 //021   ----------------------------------------
 BYTE   W96
//  #01 //022   ----------------------------------------
 BYTE   W96
//  #01 //023   ----------------------------------------
 BYTE   W96
//  #01 //024   ----------------------------------------
 BYTE   W96
//  #01 //025   ----------------------------------------
 BYTE   W96
//  #01 //026   ----------------------------------------
 BYTE   W96
//  #01 //027   ----------------------------------------
 BYTE   W96
//  #01 //028   ----------------------------------------
 BYTE   As3
 BYTE   W96
//  #01 //029   ----------------------------------------
 BYTE   W96
//  #01 //030   ----------------------------------------
 BYTE   N92
 BYTE   W96
//  #01 //031   ----------------------------------------
 BYTE   W96
//  #01 //032   ----------------------------------------
 BYTE   N92
 BYTE   W96
//  #01 //033   ----------------------------------------
 BYTE   W96
//  #01 //034   ----------------------------------------
 BYTE   N92
 BYTE   W96
//  #01 //035   ----------------------------------------
 BYTE   W96
//  #01 //036   ----------------------------------------
Label_01377B00:
 BYTE   N92  As3  v088
 BYTE   N44  Ds4  v108
 BYTE   W48
 BYTE   Cs4
 BYTE   W48
 BYTE   PEND 
//  #01 //037   ----------------------------------------
Label_01377B0A:
 BYTE   N44  Cn4  v108
 BYTE   W48
 BYTE   Cs4
 BYTE   W48
 BYTE   PEND 
//  #01 //038   ----------------------------------------
Label_01377B11:
 BYTE   N23  Cn4  v108
 BYTE   W24
 BYTE   As3
 BYTE   W24
 BYTE   N44  Fn3
 BYTE   W48
 BYTE   PEND 
//  #01 //039   ----------------------------------------
Label_01377B1B:
 BYTE   W24
 BYTE   N11  Fn3  v108
 BYTE   W12
 BYTE   Gn3
 BYTE   W12
 BYTE   An3
 BYTE   W12
 BYTE   As3
 BYTE   W12
 BYTE   Cn4
 BYTE   W12
 BYTE   Cs4
 BYTE   W12
 BYTE   PEND 
//  #01 //040   ----------------------------------------
Label_01377B2B:
 BYTE   N92  Gs3  v088
 BYTE   N44  Ds4  v108
 BYTE   W48
 BYTE   Cs4
 BYTE   W48
 BYTE   PEND 
//  #01 //041   ----------------------------------------
Label_01377B35:
 BYTE   N32  Cn4  v108
 BYTE   W36
 BYTE   Cs4
 BYTE   W12
 BYTE   W24
 BYTE   N23  Ds4
 BYTE   W24
 BYTE   PEND 
//  #01 //042   ----------------------------------------
Label_01377B40:
 BYTE   N92  Fs3  v088
 BYTE   N68  Fn4  v108
 BYTE   W72
 BYTE   N23  Ds4
 BYTE   W24
 BYTE   PEND 
//  #01 //043   ----------------------------------------
Label_01377B4B:
 BYTE   N68  Ds4  v108
 BYTE   W96
 BYTE   PEND 
//  #01 //044   ----------------------------------------
 BYTE   N92  Cn4  v088
 BYTE   N44  Ds4  v108
 BYTE   W48
 BYTE   Cs4
 BYTE   W48
//  #01 //045   ----------------------------------------
 BYTE   N24  Fn3  v088
 BYTE   N23  Cn4  v108
 BYTE   W24
 BYTE   Fn3
 BYTE   W24
 BYTE   Ds4
 BYTE   W24
 BYTE   Cs4
 BYTE   W24
//  #01 //046   ----------------------------------------
 BYTE   N92  As3  v088
 BYTE   N32  Cn4  v108
 BYTE   W36
 BYTE   N44  Cs4
 BYTE   W12
 BYTE   W48
//  #01 //047   ----------------------------------------
 BYTE   N92  Gs3  v088
 BYTE   N32  Ds4  v108
 BYTE   W36
 BYTE   N11  Fn4
 BYTE   W12
 BYTE   N44
 BYTE   W48
//  #01 //048   ----------------------------------------
 BYTE   N92  Gn3  v088
 BYTE   N44  Fn4  v108
 BYTE   W48
 BYTE   N15  As3
 BYTE   W16
 BYTE   An3
 BYTE   W16
 BYTE   As3
 BYTE   W16
//  #01 //049   ----------------------------------------
 BYTE   N92  Cn4  v088
 BYTE   N32  En4  v108
 BYTE   W36
 BYTE   Fn4
 BYTE   W12
 BYTE   W24
 BYTE   N23  Gn4
 BYTE   W24
//  #01 //050   ----------------------------------------
 BYTE   N92  Fn3  v088
 BYTE   N32  As4  v108
 BYTE   W36
 BYTE   An4
 BYTE   W12
 BYTE   W24
 BYTE   N23  Gn4
 BYTE   W24
//  #01 //051   ----------------------------------------
Label_01377BA5:
 BYTE   N68  An4  v108
 BYTE   W96
 BYTE   PEND 
//  #01 //052   ----------------------------------------
 BYTE   PATT
  POIN2 Label_01377B00
//  #01 //053   ----------------------------------------
 BYTE   PATT
  POIN2 Label_01377B0A
//  #01 //054   ----------------------------------------
 BYTE   PATT
  POIN2 Label_01377B11
//  #01 //055   ----------------------------------------
 BYTE   PATT
  POIN2 Label_01377B1B
//  #01 //056   ----------------------------------------
 BYTE   PATT
  POIN2 Label_01377B2B
//  #01 //057   ----------------------------------------
 BYTE   PATT
  POIN2 Label_01377B35
//  #01 //058   ----------------------------------------
 BYTE   PATT
  POIN2 Label_01377B40
//  #01 //059   ----------------------------------------
 BYTE   PATT
  POIN2 Label_01377B4B
//  #01 //060   ----------------------------------------
 BYTE   N92  Fn3  v088
 BYTE   N68  Ds4  v108
 BYTE   W72
 BYTE   N23
 BYTE   W24
//  #01 //061   ----------------------------------------
 BYTE   N92  As3  v088
 BYTE   N32  Dn4  v108
 BYTE   W36
 BYTE   Ds4
 BYTE   W12
 BYTE   W24
 BYTE   N23  Fn4
 BYTE   W24
//  #01 //062   ----------------------------------------
 BYTE   N44  Ds3  v088
 BYTE   N44  Fs4  v108
 BYTE   W48
 BYTE   Gs4
 BYTE   W48
//  #01 //063   ----------------------------------------
 BYTE   Fs3  v088
 BYTE   N44  As4  v108
 BYTE   W48
 BYTE   Ds3  v088
 BYTE   N23  Gn4  v108
 BYTE   W48
//  #01 //064   ----------------------------------------
 BYTE   N92  Gs3  v088
 BYTE   N23  Gs4  v108
 BYTE   W24
 BYTE   Fs4
 BYTE   W24
 BYTE   Fn4
 BYTE   W24
 BYTE   Ds4
 BYTE   W24
//  #01 //065   ----------------------------------------
 BYTE   N92  As3  v088
 BYTE   N44  Dn4  v108
 BYTE   W48
 BYTE   Fn4
 BYTE   W48
//  #01 //066   ----------------------------------------
 BYTE   N92  Ds3  v088
 BYTE   N92  Ds4  v108
 BYTE   W96
//  #01 //067   ----------------------------------------
 BYTE   W96
//  #01 //068   ----------------------------------------
 BYTE   Ds3  v088
 BYTE   W96
//  #01 //069   ----------------------------------------
 BYTE   W96
//  #01 //070   ----------------------------------------
 BYTE   W96
//  #01 //071   ----------------------------------------
 BYTE   W96
//  #01 //072   ----------------------------------------
 BYTE   W96
//  #01 //073   ----------------------------------------
 BYTE   W96
//  #01 //074   ----------------------------------------
 BYTE   W96
//  #01 //075   ----------------------------------------
 BYTE   W96
//  #01 //076   ----------------------------------------
 BYTE   N23  As3  v108
 BYTE   W24
 BYTE   Gs4
 BYTE   W24
 BYTE   Fs4
 BYTE   W24
 BYTE   Fn4
 BYTE   W24
//  #01 //077   ----------------------------------------
 BYTE   N44  Fs4
 BYTE   W48
 BYTE   Ds4
 BYTE   W48
//  #01 //078   ----------------------------------------
 BYTE   N23  Cs4
 BYTE   W24
 BYTE   As4
 BYTE   W24
 BYTE   Gs4
 BYTE   W24
 BYTE   Fs4
 BYTE   W24
//  #01 //079   ----------------------------------------
 BYTE   N44  Gs4
 BYTE   W48
 BYTE   Ds4
 BYTE   W48
//  #01 //080   ----------------------------------------
 BYTE   N23  Fs4
 BYTE   W24
 BYTE   Fn4
 BYTE   W24
 BYTE   Fs4
 BYTE   W24
 BYTE   Gs4
 BYTE   W24
//  #01 //081   ----------------------------------------
 BYTE   N44  Fn4
 BYTE   W48
 BYTE   Cs4
 BYTE   W48
//  #01 //082   ----------------------------------------
 BYTE   N92  Ds3  v088
 BYTE   TIE  Ds4  v108
 BYTE   W96
//  #01 //083   ----------------------------------------
Label_01377C57:
 BYTE   W92
 BYTE   W03
 BYTE   PEND 
 BYTE   EOT
 BYTE   Ds4
 BYTE   W01
//  #01 //084   ----------------------------------------
 BYTE   N92  Ds3  v088
 BYTE   W96
//  #01 //085   ----------------------------------------
 BYTE   W96
//  #01 //086   ----------------------------------------
 BYTE   As3
 BYTE   W96
//  #01 //087   ----------------------------------------
 BYTE   W96
//  #01 //088   ----------------------------------------
 BYTE   N92
 BYTE   W96
//  #01 //089   ----------------------------------------
 BYTE   W96
//  #01 //090   ----------------------------------------
 BYTE   GoTo
  POIN2 Label_01377ADC
//  #01 //091   ----------------------------------------
 BYTE   N92  As3  v100
 BYTE   W96
//  #01 //092   ----------------------------------------
 BYTE   W96
//  #01 //093   ----------------------------------------
 BYTE   W96
//  #01 //094   ----------------------------------------
 BYTE   W96
//  #01 //095   ----------------------------------------
 BYTE   N92
 BYTE   W96
//  #01 //096   ----------------------------------------
 BYTE   W96
//  #01 //097   ----------------------------------------
 BYTE   W96
//  #01 //098   ----------------------------------------
 BYTE   W96
//  #01 //099   ----------------------------------------
 BYTE   N92
 BYTE   W96
//  #01 //100   ----------------------------------------
 BYTE   W96
//  #01 //101   ----------------------------------------
 BYTE   W96
//  #01 //102   ----------------------------------------
 BYTE   W96
//  #01 //103   ----------------------------------------
 BYTE   Fs3
 BYTE   W96
//  #01 //104   ----------------------------------------
 BYTE   Fn3
 BYTE   W96
//  #01 //105   ----------------------------------------
 BYTE   Ds3
 BYTE   W96
//  #01 //106   ----------------------------------------
 BYTE   Fn3
 BYTE   W96
//  #01 //107   ----------------------------------------
 BYTE   W96
//  #01 //108   ----------------------------------------
 BYTE   W96
//  #01 //109   ----------------------------------------
 BYTE   W96
//  #01 //110   ----------------------------------------
 BYTE   W96
//  #01 //111   ----------------------------------------
 BYTE   W96
//  #01 //112   ----------------------------------------
 BYTE   W96
//  #01 //113   ----------------------------------------
 BYTE   W96
//  #01 //114   ----------------------------------------
 BYTE   W96
//  #01 //115   ----------------------------------------
 BYTE   W96
//  #01 //116   ----------------------------------------
 BYTE   W96
//  #01 //117   ----------------------------------------
 BYTE   W96
//  #01 //118   ----------------------------------------
 BYTE   W96
//  #01 //119   ----------------------------------------
 BYTE   W96
//  #01 //120   ----------------------------------------
 BYTE   W96
//  #01 //121   ----------------------------------------
Label_01377C94:
 BYTE   N44  Ds4  v108
 BYTE   W48
 BYTE   Cs4
 BYTE   W48
 BYTE   PEND 
//  #01 //122   ----------------------------------------
 BYTE   PATT
  POIN2 Label_01377B0A
//  #01 //123   ----------------------------------------
 BYTE   PATT
  POIN2 Label_01377B11
//  #01 //124   ----------------------------------------
 BYTE   PATT
  POIN2 Label_01377B1B
//  #01 //125   ----------------------------------------
 BYTE   PATT
  POIN2 Label_01377C94
//  #01 //126   ----------------------------------------
 BYTE   PATT
  POIN2 Label_01377B35
//  #01 //127   ----------------------------------------
Label_01377CB4:
 BYTE   N68  Fn4  v108
 BYTE   W72
 BYTE   N23  Ds4
 BYTE   W24
 BYTE   PEND 
//  #01 //128   ----------------------------------------
 BYTE   PATT
  POIN2 Label_01377B4B
//  #01 //129   ----------------------------------------
 BYTE   PATT
  POIN2 Label_01377C94
//  #01 //130   ----------------------------------------
 BYTE   N23  Cn4  v108
 BYTE   W24
 BYTE   Fn3
 BYTE   W24
 BYTE   Ds4
 BYTE   W24
 BYTE   Cs4
 BYTE   W24
//  #01 //131   ----------------------------------------
 BYTE   N32  Cn4
 BYTE   W36
 BYTE   N11  Cs4
 BYTE   W12
 BYTE   N44
 BYTE   W48
//  #01 //132   ----------------------------------------
 BYTE   N32  Ds4
 BYTE   W36
 BYTE   N11  Fn4
 BYTE   W12
 BYTE   N44
 BYTE   W48
//  #01 //133   ----------------------------------------
 BYTE   N44
 BYTE   W48
 BYTE   N15  As3
 BYTE   W16
 BYTE   An3
 BYTE   W16
 BYTE   As3
 BYTE   W16
//  #01 //134   ----------------------------------------
 BYTE   N32  En4
 BYTE   W36
 BYTE   Fn4
 BYTE   W12
 BYTE   W24
 BYTE   N23  Gn4
 BYTE   W24
//  #01 //135   ----------------------------------------
 BYTE   N32  As4
 BYTE   W36
 BYTE   An4
 BYTE   W12
 BYTE   W24
 BYTE   N23  Gn4
 BYTE   W24
//  #01 //136   ----------------------------------------
 BYTE   PATT
  POIN2 Label_01377BA5
//  #01 //137   ----------------------------------------
 BYTE   PATT
  POIN2 Label_01377C94
//  #01 //138   ----------------------------------------
 BYTE   PATT
  POIN2 Label_01377B0A
//  #01 //139   ----------------------------------------
 BYTE   PATT
  POIN2 Label_01377B11
//  #01 //140   ----------------------------------------
 BYTE   PATT
  POIN2 Label_01377B1B
//  #01 //141   ----------------------------------------
 BYTE   PATT
  POIN2 Label_01377C94
//  #01 //142   ----------------------------------------
 BYTE   PATT
  POIN2 Label_01377B35
//  #01 //143   ----------------------------------------
 BYTE   PATT
  POIN2 Label_01377CB4
//  #01 //144   ----------------------------------------
 BYTE   PATT
  POIN2 Label_01377B4B
//  #01 //145   ----------------------------------------
 BYTE   N68  Ds4  v108
 BYTE   W72
 BYTE   N23
 BYTE   W24
//  #01 //146   ----------------------------------------
 BYTE   N32  Dn4
 BYTE   W36
 BYTE   Ds4
 BYTE   W12
 BYTE   W24
 BYTE   N23  Fn4
 BYTE   W24
//  #01 //147   ----------------------------------------
 BYTE   N44  Fs4
 BYTE   W48
 BYTE   Gs4
 BYTE   W48
//  #01 //148   ----------------------------------------
 BYTE   As4
 BYTE   W48
 BYTE   N23  Gn4
 BYTE   W48
//  #01 //149   ----------------------------------------
 BYTE   Gs4
 BYTE   W24
 BYTE   Fs4
 BYTE   W24
 BYTE   Fn4
 BYTE   W24
 BYTE   Ds4
 BYTE   W24
//  #01 //150   ----------------------------------------
 BYTE   N44  Dn4
 BYTE   W48
 BYTE   Fn4
 BYTE   W48
//  #01 //151   ----------------------------------------
 BYTE   TIE  Ds4
 BYTE   W96
//  #01 //152   ----------------------------------------
 BYTE   PATT
  POIN2 Label_01377C57
//  #01 //153   ----------------------------------------
 BYTE   EOT
 BYTE   Ds4
 BYTE   W01
 BYTE   W96
//  #01 //154   ----------------------------------------
 BYTE   W96
//  #01 //155   ----------------------------------------
 BYTE   W96
//  #01 //156   ----------------------------------------
 BYTE   W96
//  #01 //157   ----------------------------------------
 BYTE   W96
//  #01 //158   ----------------------------------------
 BYTE   W96
//  #01 //159   ----------------------------------------
 BYTE   W96
//  #01 //160   ----------------------------------------
 BYTE   W96
//  #01 //161   ----------------------------------------
 BYTE   W96
//  #01 //162   ----------------------------------------
 BYTE   W96
//  #01 //163   ----------------------------------------
 BYTE   W96
//  #01 //164   ----------------------------------------
 BYTE   W96
//  #01 //165   ----------------------------------------
 BYTE   W96
//  #01 //166   ----------------------------------------
 BYTE   W96
//  #01 //167   ----------------------------------------
 BYTE   W96
//  #01 //168   ----------------------------------------
 BYTE   W96
//  #01 //169   ----------------------------------------
 BYTE   PATT
  POIN2 Label_01377C94
//  #01 //170   ----------------------------------------
Label_01377D6E:
 BYTE   N44  Cn4  v108
 BYTE   W48
 BYTE   As3
 BYTE   W48
 BYTE   PEND 
//  #01 //171   ----------------------------------------
Label_01377D75:
 BYTE   N44  As3  v108
 BYTE   W48
 BYTE   Gs3
 BYTE   W48
 BYTE   PEND 
//  #01 //172   ----------------------------------------
Label_01377D7C:
 BYTE   N44  Gn3  v108
 BYTE   W48
 BYTE   Gs3
 BYTE   W48
 BYTE   PEND 
//  #01 //173   ----------------------------------------
 BYTE   PATT
  POIN2 Label_01377C94
//  #01 //174   ----------------------------------------
 BYTE   PATT
  POIN2 Label_01377D6E
//  #01 //175   ----------------------------------------
 BYTE   PATT
  POIN2 Label_01377D75
//  #01 //176   ----------------------------------------
 BYTE   N44  As3  v108
 BYTE   W48
 BYTE   Cn4
 BYTE   W48
//  #01 //177   ----------------------------------------
 BYTE   PATT
  POIN2 Label_01377C94
//  #01 //178   ----------------------------------------
 BYTE   PATT
  POIN2 Label_01377D6E
//  #01 //179   ----------------------------------------
 BYTE   PATT
  POIN2 Label_01377D75
//  #01 //180   ----------------------------------------
 BYTE   PATT
  POIN2 Label_01377D7C
//  #01 //181   ----------------------------------------
 BYTE   N44  Fn3  v108
 BYTE   W60
 BYTE   N11
 BYTE   W12
 BYTE   Gn3
 BYTE   W12
 BYTE   Gs3
 BYTE   W12
//  #01 //182   ----------------------------------------
 BYTE   N44  As3
 BYTE   W48
 BYTE   Cs4
 BYTE   W48
//  #01 //183   ----------------------------------------
 BYTE   N68  Cn4
 BYTE   W72
 BYTE   N07  Cs4  v100
 BYTE   W06
 BYTE   W01
 BYTE   N04  Dn4  v088
 BYTE   W05
 BYTE   N07  Ds4  v092
 BYTE   W06
 BYTE   W01
 BYTE   N04  En4  v100
 BYTE   W05
//  #01 //184   ----------------------------------------
 BYTE   N92  Fn4  v108
 BYTE   W96
//  #01 //185   ----------------------------------------
 BYTE   W96
//  #01 //186   ----------------------------------------
 BYTE   W96
//  #01 //187   ----------------------------------------
 BYTE   W96
//  #01 //188   ----------------------------------------
 BYTE   W96
//  #01 //189   ----------------------------------------
 BYTE   W96
//  #01 //190   ----------------------------------------
 BYTE   W96
//  #01 //191   ----------------------------------------
 BYTE   W96
//  #01 //192   ----------------------------------------
 BYTE   W96
//  #01 //193   ----------------------------------------
 BYTE   N23  Fn3
 BYTE   W24
 BYTE   Ds4
 BYTE   W24
 BYTE   Cs4
 BYTE   W24
 BYTE   Cn4
 BYTE   W24
//  #01 //194   ----------------------------------------
 BYTE   N44  Cs4
 BYTE   W48
 BYTE   As3
 BYTE   W48
//  #01 //195   ----------------------------------------
 BYTE   N23  Fn3
 BYTE   W24
 BYTE   Fn4
 BYTE   W24
 BYTE   Ds4
 BYTE   W24
 BYTE   Cs4
 BYTE   W24
//  #01 //196   ----------------------------------------
 BYTE   N44  Ds4
 BYTE   W48
 BYTE   As3
 BYTE   W48
//  #01 //197   ----------------------------------------
 BYTE   TIE  Cs4
 BYTE   W96
//  #01 //198   ----------------------------------------
 BYTE   W23
 BYTE   EOT
 BYTE   W01
 BYTE   N23  As3
 BYTE   W24
 BYTE   Cn4
 BYTE   W24
 BYTE   Cs4
 BYTE   W24
//  #01 //199   ----------------------------------------
 BYTE   N92  Cn4
 BYTE   W96
//  #01 //200   ----------------------------------------
 BYTE   An4
 BYTE   W96
//  #01 //201   ----------------------------------------
 BYTE   TIE  As4
 BYTE   W96
//  #01 //202   ----------------------------------------
 BYTE   PATT
  POIN2 Label_01377C57
//  #01 //203   ----------------------------------------
 BYTE   EOT
 BYTE   As4
 BYTE   FINE

//**************** Track 2 (Midi-Chn.1) ****************//

The_One_They_Call_Witch_Song_002:
//  #02 //000   ----------------------------------------
 BYTE   KEYSH   The_One_They_Call_Witch_Song_key+0
 BYTE   VOICE   35
 BYTE   MODT 0
 BYTE   LFOS 44
 BYTE   BENDR  12
 BYTE   VOL   44*The_One_They_Call_Witch_Song_mvl/mxv
 BYTE   PAN   c_v+0
 BYTE   BENDR  12
 BYTE   VOL   44*The_One_They_Call_Witch_Song_mvl/mxv
 BYTE   PAN   c_v+0
 BYTE   BENDR  12
 BYTE   VOL   44*The_One_They_Call_Witch_Song_mvl/mxv
 BYTE   PAN   c_v+0
 BYTE   N11  As0  v080
 BYTE   N11  Cn4  v064
 BYTE   W12
 BYTE   As0
 BYTE   N11  Cn4
 BYTE   W12
 BYTE   N23  As0  v080
 BYTE   N23  Cs4  v064
 BYTE   W48
 BYTE   N11  As0  v080
 BYTE   N11  Ds4  v064
 BYTE   W12
 BYTE   As0
 BYTE   N11  Ds4
 BYTE   W12
//  #02 //001   ----------------------------------------
 BYTE   N23  As0  v080
 BYTE   N23  Cs4  v064
 BYTE   W60
 BYTE   N11  As0
 BYTE   W12
 BYTE   As0  v080
 BYTE   W12
 BYTE   As0  v064
 BYTE   W12
//  #02 //002   ----------------------------------------
Label_013CC95F:
 BYTE   N11  As0  v080
 BYTE   W12
 BYTE   As0  v064
 BYTE   W12
 BYTE   As0  v080
 BYTE   W12
 BYTE   As0  v064
 BYTE   W12
 BYTE   As0  v080
 BYTE   W12
 BYTE   As0  v064
 BYTE   W12
 BYTE   As0  v080
 BYTE   W12
 BYTE   As0  v064
 BYTE   W12
 BYTE   PEND 
//  #02 //003   ----------------------------------------
 BYTE   PATT
  POIN2 Label_013CC95F
//  #02 //004   ----------------------------------------
 BYTE   N11  Fs0  v080
 BYTE   N11  Cn4  v064
 BYTE   W12
 BYTE   Fs0
 BYTE   N11  Cn4
 BYTE   W12
 BYTE   N23  Fs0  v080
 BYTE   N23  Cs4  v064
 BYTE   W48
 BYTE   N11  Fs0  v080
 BYTE   N11  Ds4  v064
 BYTE   W12
 BYTE   Fs0
 BYTE   N11  Ds4
 BYTE   W12
//  #02 //005   ----------------------------------------
 BYTE   N23  Fs0  v080
 BYTE   N23  Cs4  v064
 BYTE   W60
 BYTE   N11  Fs0
 BYTE   W12
 BYTE   Fs0  v080
 BYTE   W12
 BYTE   Fs0  v064
 BYTE   W12
//  #02 //006   ----------------------------------------
Label_013CC9AB:
 BYTE   N11  Fs0  v080
 BYTE   W12
 BYTE   Fs0  v064
 BYTE   W12
 BYTE   Fs0  v080
 BYTE   W12
 BYTE   Fs0  v064
 BYTE   W12
 BYTE   Fs0  v080
 BYTE   W12
 BYTE   Fs0  v064
 BYTE   W12
 BYTE   Fs0  v080
 BYTE   W12
 BYTE   Fs0  v064
 BYTE   W12
 BYTE   PEND 
//  #02 //007   ----------------------------------------
 BYTE   Fs0  v080
 BYTE   W12
 BYTE   Fs0  v064
 BYTE   W12
 BYTE   Fs0  v080
 BYTE   W12
 BYTE   Fs0  v064
 BYTE   W12
 BYTE   Fs0  v080
 BYTE   N11  Ds4  v064
 BYTE   W12
 BYTE   Fs0
 BYTE   N11  Ds4
 BYTE   W12
 BYTE   Fs0  v080
 BYTE   N23  Fn4  v064
 BYTE   W12
 BYTE   N11  Fs0
 BYTE   W12
//  #02 //008   ----------------------------------------
Label_013CC9E4:
 BYTE   TIE  Cn1  v080
 BYTE   N44  Fs4  v064
 BYTE   W48
 BYTE   Fn4
 BYTE   W48
//  #02 //009   ----------------------------------------
 BYTE   Ds4
 BYTE   W44
 BYTE   W03
 BYTE   EOT
 BYTE   Cn1
 BYTE   W01
 BYTE   N23  Ds1  v080
 BYTE   N44  Cs4  v064
 BYTE   W24
 BYTE   N23  En1  v080
 BYTE   W24
//  #02 //010   ----------------------------------------
 BYTE   TIE  Fn1
 BYTE   N44  Cn4  v064
 BYTE   W48
 BYTE   As3
 BYTE   W48
//  #02 //011   ----------------------------------------
 BYTE   N23  An3
 BYTE   W24
 BYTE   As3
 BYTE   W24
 BYTE   Cn4
 BYTE   W24
 BYTE   Ds4
 BYTE   W23
 BYTE   EOT
 BYTE   Fn1
 BYTE   W01
//  #02 //012   ----------------------------------------
Label_013CCA12:
 BYTE   N11  As0  v080
 BYTE   N23  Cs4  v064
 BYTE   W12
 BYTE   N11  As0
 BYTE   W12
 BYTE   As0  v080
 BYTE   W12
 BYTE   As0  v064
 BYTE   W12
 BYTE   As0  v080
 BYTE   W12
 BYTE   As0  v064
 BYTE   W12
 BYTE   As0  v080
 BYTE   W12
 BYTE   As0  v064
 BYTE   W12
 BYTE   PEND 
//  #02 //013   ----------------------------------------
 BYTE   As0  v080
 BYTE   N23  Cn4  v064
 BYTE   W12
 BYTE   N11  As0
 BYTE   W12
 BYTE   As0  v080
 BYTE   W12
 BYTE   As0  v064
 BYTE   W12
 BYTE   As0  v080
 BYTE   W12
 BYTE   As0  v064
 BYTE   W12
 BYTE   As0  v080
 BYTE   W12
 BYTE   As0  v064
 BYTE   W12
//  #02 //014   ----------------------------------------
 BYTE   As0  v080
 BYTE   N23  Bn3  v064
 BYTE   W12
 BYTE   N11  As0
 BYTE   W12
 BYTE   As0  v080
 BYTE   W12
 BYTE   As0  v064
 BYTE   W12
 BYTE   As0  v080
 BYTE   W12
 BYTE   As0  v064
 BYTE   W12
 BYTE   As0  v080
 BYTE   W12
 BYTE   As0  v064
 BYTE   W12
//  #02 //015   ----------------------------------------
 BYTE   As0  v080
 BYTE   N44  As3  v064
 BYTE   W12
 BYTE   N11  As0
 BYTE   W12
 BYTE   As0  v080
 BYTE   W12
 BYTE   As0  v064
 BYTE   W12
 BYTE   As0  v080
 BYTE   N44  An3  v064
 BYTE   W12
 BYTE   N11  As0
 BYTE   W12
 BYTE   As0  v080
 BYTE   W12
 BYTE   As0  v064
 BYTE   W12
//  #02 //016   ----------------------------------------
 BYTE   PATT
  POIN2 Label_013CCA12
//  #02 //017   ----------------------------------------
 BYTE   N11  As0  v080
 BYTE   N23  Ds4  v064
 BYTE   W12
 BYTE   N11  As0
 BYTE   W12
 BYTE   As0  v080
 BYTE   W12
 BYTE   As0  v064
 BYTE   W12
 BYTE   As0  v080
 BYTE   W12
 BYTE   As0  v064
 BYTE   W12
 BYTE   As0  v080
 BYTE   W12
 BYTE   As0  v064
 BYTE   W12
//  #02 //018   ----------------------------------------
 BYTE   As0  v080
 BYTE   N23  An3  v064
 BYTE   W12
 BYTE   N11  As0
 BYTE   W12
 BYTE   As0  v080
 BYTE   W12
 BYTE   As0  v064
 BYTE   N23  As3
 BYTE   W12
 BYTE   N11  As0  v080
 BYTE   W12
 BYTE   As0  v064
 BYTE   W12
 BYTE   As0  v080
 BYTE   N23  Cn4  v064
 BYTE   W12
 BYTE   N11  As0
 BYTE   W12
//  #02 //019   ----------------------------------------
 BYTE   As0  v080
 BYTE   W12
 BYTE   As0  v064
 BYTE   N32  Cs4
 BYTE   W12
 BYTE   N11  As0  v080
 BYTE   W12
 BYTE   As0  v064
 BYTE   W12
 BYTE   As0  v080
 BYTE   N23  Ds4  v064
 BYTE   W12
 BYTE   N11  As0
 BYTE   W12
 BYTE   As0  v080
 BYTE   N23  En4  v064
 BYTE   W12
 BYTE   N11  As0
 BYTE   W12
//  #02 //020   ----------------------------------------
 BYTE   As0  v080
 BYTE   N23  Cs4  v048
 BYTE   W12
 BYTE   N11  As0  v064
 BYTE   W12
 BYTE   As0  v080
 BYTE   W12
 BYTE   As0  v064
 BYTE   W12
 BYTE   As0  v080
 BYTE   W12
 BYTE   As0  v064
 BYTE   W12
 BYTE   As0  v080
 BYTE   W12
 BYTE   As0  v064
 BYTE   W12
//  #02 //021   ----------------------------------------
 BYTE   As0  v080
 BYTE   N23  Cn4  v048
 BYTE   W12
 BYTE   N11  As0  v064
 BYTE   W12
 BYTE   As0  v080
 BYTE   W12
 BYTE   As0  v064
 BYTE   W12
 BYTE   As0  v080
 BYTE   W12
 BYTE   As0  v064
 BYTE   W12
 BYTE   As0  v080
 BYTE   W12
 BYTE   As0  v064
 BYTE   W12
//  #02 //022   ----------------------------------------
 BYTE   As0  v080
 BYTE   N23  Bn3  v048
 BYTE   W12
 BYTE   N11  As0  v064
 BYTE   W12
 BYTE   As0  v080
 BYTE   W12
 BYTE   As0  v064
 BYTE   W12
 BYTE   As0  v080
 BYTE   W12
 BYTE   As0  v064
 BYTE   W12
 BYTE   As0  v080
 BYTE   W12
 BYTE   As0  v064
 BYTE   W12
//  #02 //023   ----------------------------------------
 BYTE   As0  v080
 BYTE   N44  As3  v048
 BYTE   W12
 BYTE   N11  As0  v064
 BYTE   W12
 BYTE   As0  v080
 BYTE   W12
 BYTE   As0  v064
 BYTE   W12
 BYTE   As0  v080
 BYTE   N44  An3  v048
 BYTE   W12
 BYTE   N11  As0  v064
 BYTE   W12
 BYTE   As0  v080
 BYTE   W12
 BYTE   As0  v064
 BYTE   W12
//  #02 //024   ----------------------------------------
 BYTE   Fs0  v080
 BYTE   N92  As3  v048
 BYTE   W12
 BYTE   N11  Fs0  v064
 BYTE   W12
 BYTE   Fs0  v080
 BYTE   W12
 BYTE   Fs0  v064
 BYTE   W12
 BYTE   Fs0  v080
 BYTE   W12
 BYTE   Fs0  v064
 BYTE   W12
 BYTE   Fs0  v080
 BYTE   W12
 BYTE   Fs0  v064
 BYTE   W12
//  #02 //025   ----------------------------------------
 BYTE   Ds0  v080
 BYTE   N92  As3  v048
 BYTE   W12
 BYTE   N11  Ds0  v064
 BYTE   W12
 BYTE   Ds0  v080
 BYTE   W12
 BYTE   Ds0  v064
 BYTE   W12
 BYTE   Ds0  v080
 BYTE   W12
 BYTE   Ds0  v064
 BYTE   W12
 BYTE   Ds0  v080
 BYTE   W12
 BYTE   Ds0  v064
 BYTE   W12
//  #02 //026   ----------------------------------------
 BYTE   Fn0  v080
 BYTE   N92  An3  v048
 BYTE   W12
 BYTE   N11  Fn0  v064
 BYTE   W12
 BYTE   Fn0  v080
 BYTE   W12
 BYTE   Fn0  v064
 BYTE   W12
 BYTE   Fn0  v080
 BYTE   W12
 BYTE   Fn0  v064
 BYTE   W12
 BYTE   Fn0  v080
 BYTE   W12
 BYTE   Fn0  v064
 BYTE   W12
//  #02 //027   ----------------------------------------
 BYTE   N23  Fn0  v080
 BYTE   N23  Gs3  v064
 BYTE   W24
 BYTE   Fn0  v080
 BYTE   N23  Gs3  v064
 BYTE   W24
 BYTE   N19  Fn0  v080
 BYTE   N19  Gs3  v064
 BYTE   W18
 BYTE   W01
 BYTE   N04  Fn0  v080
 BYTE   N04  Gs3  v064
 BYTE   W17
 BYTE   N11  Fn0  v080
 BYTE   N11  Gs3  v064
 BYTE   W12
//  #02 //028   ----------------------------------------
 BYTE   N23  As0  v100
 BYTE   N23  Fn3  v064
 BYTE   W24
 BYTE   Fs3
 BYTE   W24
 BYTE   Fn3
 BYTE   W24
 BYTE   Ds3
 BYTE   W24
//  #02 //029   ----------------------------------------
 BYTE   Cs3
 BYTE   W24
 BYTE   Cn3
 BYTE   W24
 BYTE   Cs3
 BYTE   W12
 BYTE   N11  Fn0  v100
 BYTE   W12
 BYTE   N23  Ds3  v064
 BYTE   W24
//  #02 //030   ----------------------------------------
 BYTE   As0  v100
 BYTE   N23  Fn3  v064
 BYTE   W24
 BYTE   Ds3
 BYTE   W12
 BYTE   N11  As0  v100
 BYTE   W12
 BYTE   N23  Fn3  v064
 BYTE   W24
 BYTE   As0  v100
 BYTE   N23  As3  v064
 BYTE   W24
//  #02 //031   ----------------------------------------
 BYTE   An3
 BYTE   W24
 BYTE   Cn4
 BYTE   W24
 BYTE   Cs4
 BYTE   W24
 BYTE   As3
 BYTE   W24
//  #02 //032   ----------------------------------------
 BYTE   N11  As0  v080
 BYTE   N23  As3  v064
 BYTE   W12
 BYTE   N11  As0
 BYTE   W12
 BYTE   As0  v080
 BYTE   N23  An3  v064
 BYTE   W12
 BYTE   N11  As0
 BYTE   W12
 BYTE   As0  v080
 BYTE   N23  As3  v064
 BYTE   W12
 BYTE   N11  As0
 BYTE   W12
 BYTE   As0  v080
 BYTE   N23  Cn4  v064
 BYTE   W12
 BYTE   N11  As0
 BYTE   W12
//  #02 //033   ----------------------------------------
 BYTE   As0  v080
 BYTE   N23  Cs4  v064
 BYTE   W12
 BYTE   N11  As0
 BYTE   W12
 BYTE   As0  v080
 BYTE   N23  An3  v064
 BYTE   W12
 BYTE   N11  As0
 BYTE   W12
 BYTE   As0  v080
 BYTE   N23  As3  v064
 BYTE   W12
 BYTE   N11  As0
 BYTE   W12
 BYTE   As0  v080
 BYTE   N23  Cn4  v064
 BYTE   W12
 BYTE   N11  As0
 BYTE   W12
//  #02 //034   ----------------------------------------
 BYTE   As0  v080
 BYTE   N23  Cs4  v064
 BYTE   W12
 BYTE   N11  As0
 BYTE   W12
 BYTE   As0  v080
 BYTE   N23  Cn4  v064
 BYTE   W12
 BYTE   N11  As0
 BYTE   W12
 BYTE   As0  v080
 BYTE   N23  Cs4  v064
 BYTE   W12
 BYTE   N11  As0
 BYTE   W12
 BYTE   As0  v080
 BYTE   N23  Ds4  v064
 BYTE   W12
 BYTE   N11  As0
 BYTE   W12
//  #02 //035   ----------------------------------------
 BYTE   As0  v080
 BYTE   N23  Fn4  v064
 BYTE   W12
 BYTE   N11  As0
 BYTE   W12
 BYTE   As0  v080
 BYTE   N23  Ds4  v064
 BYTE   W12
 BYTE   N11  As0
 BYTE   W12
 BYTE   As0  v080
 BYTE   N23  Fn4  v064
 BYTE   W12
 BYTE   N11  As0
 BYTE   W12
 BYTE   As0  v080
 BYTE   N23  An4  v064
 BYTE   W12
 BYTE   N11  As0
 BYTE   W12
//  #02 //036   ----------------------------------------
 BYTE   PATT
  POIN2 Label_013CC95F
//  #02 //037   ----------------------------------------
 BYTE   PATT
  POIN2 Label_013CC95F
//  #02 //038   ----------------------------------------
 BYTE   PATT
  POIN2 Label_013CC95F
//  #02 //039   ----------------------------------------
 BYTE   PATT
  POIN2 Label_013CC95F
//  #02 //040   ----------------------------------------
Label_013CCCAF:
 BYTE   N11  Gs0  v080
 BYTE   W12
 BYTE   Gs0  v064
 BYTE   W12
 BYTE   Gs0  v080
 BYTE   W12
 BYTE   Gs0  v064
 BYTE   W12
 BYTE   Gs0  v080
 BYTE   W12
 BYTE   Gs0  v064
 BYTE   W12
 BYTE   Gs0  v080
 BYTE   W12
 BYTE   Gs0  v064
 BYTE   W12
 BYTE   PEND 
//  #02 //041   ----------------------------------------
 BYTE   PATT
  POIN2 Label_013CCCAF
//  #02 //042   ----------------------------------------
 BYTE   PATT
  POIN2 Label_013CC9AB
//  #02 //043   ----------------------------------------
 BYTE   PATT
  POIN2 Label_013CC9AB
//  #02 //044   ----------------------------------------
Label_013CCCD8:
 BYTE   N11  Cn1  v080
 BYTE   W12
 BYTE   Cn1  v064
 BYTE   W12
 BYTE   Cn1  v080
 BYTE   W12
 BYTE   Cn1  v064
 BYTE   W12
 BYTE   Cn1  v080
 BYTE   W12
 BYTE   Cn1  v064
 BYTE   W12
 BYTE   Cn1  v080
 BYTE   W12
 BYTE   Cn1  v064
 BYTE   W12
 BYTE   PEND 
//  #02 //045   ----------------------------------------
Label_013CCCF2:
 BYTE   N11  Fn0  v080
 BYTE   W12
 BYTE   Fn0  v064
 BYTE   W12
 BYTE   Fn0  v080
 BYTE   W12
 BYTE   Fn0  v064
 BYTE   W12
 BYTE   Fn0  v080
 BYTE   W12
 BYTE   Fn0  v064
 BYTE   W12
 BYTE   Fn0  v080
 BYTE   W12
 BYTE   Fn0  v064
 BYTE   W12
 BYTE   PEND 
//  #02 //046   ----------------------------------------
 BYTE   PATT
  POIN2 Label_013CC95F
//  #02 //047   ----------------------------------------
 BYTE   PATT
  POIN2 Label_013CCCAF
//  #02 //048   ----------------------------------------
Label_013CCD16:
 BYTE   N11  Gn0  v080
 BYTE   W12
 BYTE   Gn0  v064
 BYTE   W12
 BYTE   Gn0  v080
 BYTE   W12
 BYTE   Gn0  v064
 BYTE   W12
 BYTE   Gn0  v080
 BYTE   W12
 BYTE   Gn0  v064
 BYTE   W12
 BYTE   Gn0  v080
 BYTE   W12
 BYTE   Gn0  v064
 BYTE   W12
 BYTE   PEND 
//  #02 //049   ----------------------------------------
 BYTE   PATT
  POIN2 Label_013CCCD8
//  #02 //050   ----------------------------------------
 BYTE   PATT
  POIN2 Label_013CCCF2
//  #02 //051   ----------------------------------------
 BYTE   N11  Fn0  v108
 BYTE   W12
 BYTE   Fn0  v064
 BYTE   W12
 BYTE   N11
 BYTE   W12
 BYTE   Gn0  v108
 BYTE   W12
 BYTE   Gn0  v064
 BYTE   W12
 BYTE   N11
 BYTE   W12
 BYTE   An0  v108
 BYTE   W12
 BYTE   An0  v064
 BYTE   W12
//  #02 //052   ----------------------------------------
 BYTE   PATT
  POIN2 Label_013CC95F
//  #02 //053   ----------------------------------------
 BYTE   PATT
  POIN2 Label_013CC95F
//  #02 //054   ----------------------------------------
 BYTE   PATT
  POIN2 Label_013CC95F
//  #02 //055   ----------------------------------------
 BYTE   PATT
  POIN2 Label_013CC95F
//  #02 //056   ----------------------------------------
 BYTE   PATT
  POIN2 Label_013CCCAF
//  #02 //057   ----------------------------------------
 BYTE   PATT
  POIN2 Label_013CCCAF
//  #02 //058   ----------------------------------------
 BYTE   PATT
  POIN2 Label_013CC9AB
//  #02 //059   ----------------------------------------
 BYTE   PATT
  POIN2 Label_013CC9AB
//  #02 //060   ----------------------------------------
 BYTE   PATT
  POIN2 Label_013CCCF2
//  #02 //061   ----------------------------------------
 BYTE   PATT
  POIN2 Label_013CC95F
//  #02 //062   ----------------------------------------
Label_013CCD83:
 BYTE   N11  Ds0  v080
 BYTE   W12
 BYTE   Ds0  v064
 BYTE   W12
 BYTE   Ds0  v080
 BYTE   W12
 BYTE   Ds0  v064
 BYTE   W12
 BYTE   Fn0  v080
 BYTE   W12
 BYTE   Fn0  v064
 BYTE   W12
 BYTE   Fn0  v080
 BYTE   W12
 BYTE   Fn0  v064
 BYTE   W12
 BYTE   PEND 
//  #02 //063   ----------------------------------------
Label_013CCD9D:
 BYTE   N11  Fs0  v080
 BYTE   W12
 BYTE   Fs0  v064
 BYTE   W12
 BYTE   Fs0  v080
 BYTE   W12
 BYTE   Fs0  v064
 BYTE   W12
 BYTE   Gn0  v080
 BYTE   W12
 BYTE   Gn0  v064
 BYTE   W12
 BYTE   Gn0  v080
 BYTE   W12
 BYTE   Gn0  v064
 BYTE   W12
 BYTE   PEND 
//  #02 //064   ----------------------------------------
 BYTE   PATT
  POIN2 Label_013CCCAF
//  #02 //065   ----------------------------------------
 BYTE   PATT
  POIN2 Label_013CC95F
//  #02 //066   ----------------------------------------
Label_013CCDC1:
 BYTE   N11  Ds0  v080
 BYTE   W12
 BYTE   Ds0  v064
 BYTE   W12
 BYTE   Ds0  v080
 BYTE   W12
 BYTE   Ds0  v064
 BYTE   W12
 BYTE   Ds0  v080
 BYTE   W12
 BYTE   Ds0  v064
 BYTE   W12
 BYTE   Ds0  v080
 BYTE   W12
 BYTE   Ds0  v064
 BYTE   W12
 BYTE   PEND 
//  #02 //067   ----------------------------------------
 BYTE   As0  v080
 BYTE   N11  Dn4  v048
 BYTE   W12
 BYTE   As0  v080
 BYTE   N11  Dn4  v048
 BYTE   W24
 BYTE   As0  v080
 BYTE   N11  Dn4  v048
 BYTE   W24
 BYTE   N32  As0  v080
 BYTE   N32  Dn4  v048
 BYTE   W36
//  #02 //068   ----------------------------------------
Label_013CCDF4:
 BYTE   N11  Ds0  v080
 BYTE   N92  Ds4  v048
 BYTE   W12
 BYTE   N11  Ds0  v064
 BYTE   W12
 BYTE   Ds0  v080
 BYTE   W12
 BYTE   Ds0  v064
 BYTE   W12
 BYTE   Ds0  v080
 BYTE   W12
 BYTE   Ds0  v064
 BYTE   W12
 BYTE   Ds0  v080
 BYTE   W12
 BYTE   Ds0  v064
 BYTE   W12
 BYTE   PEND 
//  #02 //069   ----------------------------------------
Label_013CCE12:
 BYTE   N11  Bn0  v080
 BYTE   N44  Ds4  v048
 BYTE   W12
 BYTE   N11  Bn0  v064
 BYTE   W12
 BYTE   Bn0  v080
 BYTE   W12
 BYTE   Bn0  v064
 BYTE   W12
 BYTE   Bn0  v080
 BYTE   N44  Ds4  v048
 BYTE   W12
 BYTE   N11  Bn0  v064
 BYTE   W12
 BYTE   Bn0  v080
 BYTE   W12
 BYTE   Bn0  v064
 BYTE   W12
 BYTE   PEND 
//  #02 //070   ----------------------------------------
Label_013CCE34:
 BYTE   N11  Fs0  v080
 BYTE   N92  Fs4  v048
 BYTE   W12
 BYTE   N11  Fs0  v064
 BYTE   W12
 BYTE   Fs0  v080
 BYTE   W12
 BYTE   Fs0  v064
 BYTE   W12
 BYTE   Fs0  v080
 BYTE   W12
 BYTE   Fs0  v064
 BYTE   W12
 BYTE   Fs0  v080
 BYTE   W12
 BYTE   Fs0  v064
 BYTE   W12
 BYTE   PEND 
//  #02 //071   ----------------------------------------
 BYTE   Fn0  v080
 BYTE   N44  Fn4  v048
 BYTE   W12
 BYTE   N11  Fn0  v064
 BYTE   W12
 BYTE   Fn0  v080
 BYTE   W12
 BYTE   Fn0  v064
 BYTE   W12
 BYTE   Fn0  v080
 BYTE   N44  Cs4  v048
 BYTE   W12
 BYTE   N11  Fn0  v064
 BYTE   W12
 BYTE   Fn0  v080
 BYTE   W12
 BYTE   Fn0  v064
 BYTE   W12
//  #02 //072   ----------------------------------------
 BYTE   PATT
  POIN2 Label_013CCDF4
//  #02 //073   ----------------------------------------
 BYTE   PATT
  POIN2 Label_013CCE12
//  #02 //074   ----------------------------------------
 BYTE   N11  Gs0  v080
 BYTE   N92  Bn3  v048
 BYTE   W12
 BYTE   N11  Gs0  v064
 BYTE   W12
 BYTE   Gs0  v080
 BYTE   W12
 BYTE   Gs0  v064
 BYTE   W12
 BYTE   Gs0  v080
 BYTE   W12
 BYTE   Gs0  v064
 BYTE   W12
 BYTE   Gs0  v080
 BYTE   W12
 BYTE   Gs0  v064
 BYTE   W12
//  #02 //075   ----------------------------------------
 BYTE   As0  v080
 BYTE   N44  Fs4  v048
 BYTE   W12
 BYTE   N11  As0  v064
 BYTE   W12
 BYTE   As0  v080
 BYTE   W12
 BYTE   As0  v064
 BYTE   W12
 BYTE   As0  v080
 BYTE   N44  Fn4  v048
 BYTE   W12
 BYTE   N11  As0  v064
 BYTE   W12
 BYTE   As0  v080
 BYTE   W12
 BYTE   As0  v064
 BYTE   W12
//  #02 //076   ----------------------------------------
 BYTE   PATT
  POIN2 Label_013CCDF4
//  #02 //077   ----------------------------------------
 BYTE   PATT
  POIN2 Label_013CCE12
//  #02 //078   ----------------------------------------
 BYTE   PATT
  POIN2 Label_013CCE34
//  #02 //079   ----------------------------------------
 BYTE   N11  Gs0  v080
 BYTE   N44  Cn4  v048
 BYTE   W12
 BYTE   N11  Gs0  v064
 BYTE   W12
 BYTE   Gs0  v080
 BYTE   W12
 BYTE   Gs0  v064
 BYTE   W12
 BYTE   Gs0  v080
 BYTE   N44  Cn4  v048
 BYTE   W12
 BYTE   N11  Gs0  v064
 BYTE   W12
 BYTE   Gs0  v080
 BYTE   W12
 BYTE   Gs0  v064
 BYTE   W12
//  #02 //080   ----------------------------------------
 BYTE   Bn0  v080
 BYTE   N92  Ds4  v048
 BYTE   W12
 BYTE   N11  Bn0  v064
 BYTE   W12
 BYTE   Bn0  v080
 BYTE   W12
 BYTE   Bn0  v064
 BYTE   W12
 BYTE   Bn0  v080
 BYTE   W12
 BYTE   Bn0  v064
 BYTE   W12
 BYTE   Bn0  v080
 BYTE   W12
 BYTE   Bn0  v064
 BYTE   W12
//  #02 //081   ----------------------------------------
 BYTE   N44  Cs1  v080
 BYTE   N92  Fn4  v048
 BYTE   W48
 BYTE   N44  Cs1  v080
 BYTE   W48
//  #02 //082   ----------------------------------------
 BYTE   N11  Ds1
 BYTE   TIE  Ds4  v036
 BYTE   W12
 BYTE   N11  Ds1  v064
 BYTE   W12
 BYTE   Ds1  v080
 BYTE   W12
 BYTE   Ds1  v064
 BYTE   W12
 BYTE   Ds1  v080
 BYTE   W12
 BYTE   Ds1  v064
 BYTE   W12
 BYTE   Ds1  v080
 BYTE   W12
 BYTE   Ds1  v064
 BYTE   W12
//  #02 //083   ----------------------------------------
 BYTE   Ds1  v080
 BYTE   W12
 BYTE   Ds1  v064
 BYTE   W12
 BYTE   Ds1  v080
 BYTE   W12
 BYTE   Ds1  v064
 BYTE   W12
 BYTE   Ds1  v080
 BYTE   W12
 BYTE   Ds1  v064
 BYTE   W12
 BYTE   Ds1  v080
 BYTE   W12
 BYTE   Ds1  v064
 BYTE   W11
 BYTE   EOT
 BYTE   Ds4
 BYTE   W01
//  #02 //084   ----------------------------------------
Label_013CCF47:
 BYTE   N11  Ds1  v080
 BYTE   W12
 BYTE   Ds1  v064
 BYTE   W12
 BYTE   Ds1  v080
 BYTE   W12
 BYTE   Ds1  v064
 BYTE   W12
 BYTE   Ds1  v080
 BYTE   W12
 BYTE   Ds1  v064
 BYTE   W12
 BYTE   Ds1  v080
 BYTE   W12
 BYTE   Ds1  v064
 BYTE   W12
 BYTE   PEND 
//  #02 //085   ----------------------------------------
 BYTE   PATT
  POIN2 Label_013CCF47
//  #02 //086   ----------------------------------------
 BYTE   PATT
  POIN2 Label_013CC95F
//  #02 //087   ----------------------------------------
 BYTE   PATT
  POIN2 Label_013CC95F
//  #02 //088   ----------------------------------------
 BYTE   PATT
  POIN2 Label_013CC95F
//  #02 //089   ----------------------------------------
 BYTE   N44  Fn0  v080
 BYTE   W48
 BYTE   N44
 BYTE   W48
//  #02 //090   ----------------------------------------
 BYTE   GoTo
  POIN2 Label_013CC9E4
//  #02 //091   ----------------------------------------
 BYTE   PATT
  POIN2 Label_013CC95F
//  #02 //092   ----------------------------------------
 BYTE   PATT
  POIN2 Label_013CC95F
//  #02 //093   ----------------------------------------
 BYTE   PATT
  POIN2 Label_013CC95F
//  #02 //094   ----------------------------------------
 BYTE   PATT
  POIN2 Label_013CC95F
//  #02 //095   ----------------------------------------
 BYTE   PATT
  POIN2 Label_013CC95F
//  #02 //096   ----------------------------------------
 BYTE   PATT
  POIN2 Label_013CC95F
//  #02 //097   ----------------------------------------
 BYTE   PATT
  POIN2 Label_013CC95F
//  #02 //098   ----------------------------------------
 BYTE   PATT
  POIN2 Label_013CC95F
//  #02 //099   ----------------------------------------
 BYTE   PATT
  POIN2 Label_013CC95F
//  #02 //100   ----------------------------------------
 BYTE   PATT
  POIN2 Label_013CC95F
//  #02 //101   ----------------------------------------
 BYTE   PATT
  POIN2 Label_013CC95F
//  #02 //102   ----------------------------------------
 BYTE   PATT
  POIN2 Label_013CC95F
//  #02 //103   ----------------------------------------
 BYTE   PATT
  POIN2 Label_013CC9AB
//  #02 //104   ----------------------------------------
 BYTE   PATT
  POIN2 Label_013CCCF2
//  #02 //105   ----------------------------------------
 BYTE   PATT
  POIN2 Label_013CCDC1
//  #02 //106   ----------------------------------------
 BYTE   PATT
  POIN2 Label_013CCCF2
//  #02 //107   ----------------------------------------
 BYTE   TIE  Cn1  v084
 BYTE   W96
//  #02 //108   ----------------------------------------
 BYTE   W23
 BYTE   EOT
 BYTE   W01
 BYTE   N23  Gn0
 BYTE   W24
 BYTE   Cn1
 BYTE   W24
 BYTE   Gn0
 BYTE   W24
//  #02 //109   ----------------------------------------
 BYTE   N92  Fn0
 BYTE   W96
//  #02 //110   ----------------------------------------
 BYTE   PATT
  POIN2 Label_013CCCF2
//  #02 //111   ----------------------------------------
 BYTE   PATT
  POIN2 Label_013CC95F
//  #02 //112   ----------------------------------------
 BYTE   PATT
  POIN2 Label_013CC95F
//  #02 //113   ----------------------------------------
 BYTE   PATT
  POIN2 Label_013CC95F
//  #02 //114   ----------------------------------------
 BYTE   PATT
  POIN2 Label_013CC95F
//  #02 //115   ----------------------------------------
 BYTE   PATT
  POIN2 Label_013CC95F
//  #02 //116   ----------------------------------------
 BYTE   PATT
  POIN2 Label_013CC95F
//  #02 //117   ----------------------------------------
Label_013CD004:
 BYTE   N11  As0  v080
 BYTE   W12
 BYTE   As0  v064
 BYTE   W12
 BYTE   As0  v080
 BYTE   W12
 BYTE   As0  v064
 BYTE   W12
 BYTE   As0  v080
 BYTE   W12
 BYTE   As0  v064
 BYTE   W12
 BYTE   As0  v080
 BYTE   W12
 BYTE   N23  Cs1  v084
 BYTE   W12
 BYTE   PEND 
//  #02 //118   ----------------------------------------
Label_013CD01F:
 BYTE   W12
 BYTE   N11  Bn0  v084
 BYTE   W12
 BYTE   As0
 BYTE   W12
 BYTE   Bn0
 BYTE   W12
 BYTE   N23  Fs0
 BYTE   W24
 BYTE   Gs0
 BYTE   W24
 BYTE   PEND 
//  #02 //119   ----------------------------------------
Label_013CD02E:
 BYTE   W12
 BYTE   N11  Ds0  v084
 BYTE   W12
 BYTE   Gs0
 BYTE   W12
 BYTE   Cs1
 BYTE   W12
 BYTE   En1
 BYTE   W12
 BYTE   Bn0
 BYTE   W12
 BYTE   Fs0
 BYTE   W12
 BYTE   An0
 BYTE   W12
 BYTE   PEND 
//  #02 //120   ----------------------------------------
Label_013CD040:
 BYTE   N11  Dn1  v084
 BYTE   W12
 BYTE   Gn1
 BYTE   W12
 BYTE   As1
 BYTE   W12
 BYTE   Fn1
 BYTE   W12
 BYTE   Cn1
 BYTE   W12
 BYTE   Ds1
 BYTE   W12
 BYTE   Gs0
 BYTE   W12
 BYTE   Cs1
 BYTE   W12
 BYTE   PEND 
//  #02 //121   ----------------------------------------
 BYTE   PATT
  POIN2 Label_013CC95F
//  #02 //122   ----------------------------------------
 BYTE   PATT
  POIN2 Label_013CC95F
//  #02 //123   ----------------------------------------
 BYTE   PATT
  POIN2 Label_013CC95F
//  #02 //124   ----------------------------------------
 BYTE   PATT
  POIN2 Label_013CC95F
//  #02 //125   ----------------------------------------
 BYTE   PATT
  POIN2 Label_013CCCAF
//  #02 //126   ----------------------------------------
 BYTE   PATT
  POIN2 Label_013CCCAF
//  #02 //127   ----------------------------------------
 BYTE   PATT
  POIN2 Label_013CC9AB
//  #02 //128   ----------------------------------------
 BYTE   PATT
  POIN2 Label_013CC9AB
//  #02 //129   ----------------------------------------
 BYTE   PATT
  POIN2 Label_013CCCD8
//  #02 //130   ----------------------------------------
 BYTE   PATT
  POIN2 Label_013CCCF2
//  #02 //131   ----------------------------------------
 BYTE   PATT
  POIN2 Label_013CC95F
//  #02 //132   ----------------------------------------
 BYTE   PATT
  POIN2 Label_013CCCAF
//  #02 //133   ----------------------------------------
 BYTE   PATT
  POIN2 Label_013CCD16
//  #02 //134   ----------------------------------------
 BYTE   PATT
  POIN2 Label_013CCCD8
//  #02 //135   ----------------------------------------
 BYTE   PATT
  POIN2 Label_013CCCF2
//  #02 //136   ----------------------------------------
 BYTE   N32  Fn0  v084
 BYTE   W36
 BYTE   Gn0
 BYTE   W36
 BYTE   N23  An0
 BYTE   W24
//  #02 //137   ----------------------------------------
 BYTE   PATT
  POIN2 Label_013CC95F
//  #02 //138   ----------------------------------------
 BYTE   PATT
  POIN2 Label_013CC95F
//  #02 //139   ----------------------------------------
 BYTE   PATT
  POIN2 Label_013CC95F
//  #02 //140   ----------------------------------------
 BYTE   PATT
  POIN2 Label_013CC95F
//  #02 //141   ----------------------------------------
 BYTE   PATT
  POIN2 Label_013CCCAF
//  #02 //142   ----------------------------------------
 BYTE   PATT
  POIN2 Label_013CCCAF
//  #02 //143   ----------------------------------------
 BYTE   PATT
  POIN2 Label_013CC9AB
//  #02 //144   ----------------------------------------
 BYTE   PATT
  POIN2 Label_013CC9AB
//  #02 //145   ----------------------------------------
 BYTE   PATT
  POIN2 Label_013CCCF2
//  #02 //146   ----------------------------------------
 BYTE   PATT
  POIN2 Label_013CC95F
//  #02 //147   ----------------------------------------
 BYTE   PATT
  POIN2 Label_013CCD83
//  #02 //148   ----------------------------------------
 BYTE   PATT
  POIN2 Label_013CCD9D
//  #02 //149   ----------------------------------------
 BYTE   PATT
  POIN2 Label_013CCCAF
//  #02 //150   ----------------------------------------
 BYTE   PATT
  POIN2 Label_013CC95F
//  #02 //151   ----------------------------------------
 BYTE   N23  Ds0  v084
 BYTE   W96
//  #02 //152   ----------------------------------------
 BYTE   W60
 BYTE   N11  Ds1  v064
 BYTE   W12
 BYTE   As0
 BYTE   W12
 BYTE   N11
 BYTE   W12
//  #02 //153   ----------------------------------------
 BYTE   N23  Ds0  v084
 BYTE   W96
//  #02 //154   ----------------------------------------
 BYTE   W96
//  #02 //155   ----------------------------------------
 BYTE   PATT
  POIN2 Label_013CCDC1
//  #02 //156   ----------------------------------------
 BYTE   PATT
  POIN2 Label_013CCDC1
//  #02 //157   ----------------------------------------
 BYTE   PATT
  POIN2 Label_013CCDC1
//  #02 //158   ----------------------------------------
 BYTE   PATT
  POIN2 Label_013CCDC1
//  #02 //159   ----------------------------------------
 BYTE   N23  Fn0  v084
 BYTE   W96
//  #02 //160   ----------------------------------------
 BYTE   W60
 BYTE   N11  Fn1  v064
 BYTE   W12
 BYTE   Cn1
 BYTE   W12
 BYTE   N11
 BYTE   W12
//  #02 //161   ----------------------------------------
 BYTE   N23  Fn0  v084
 BYTE   W96
//  #02 //162   ----------------------------------------
 BYTE   W96
//  #02 //163   ----------------------------------------
 BYTE   PATT
  POIN2 Label_013CCCF2
//  #02 //164   ----------------------------------------
 BYTE   PATT
  POIN2 Label_013CCCF2
//  #02 //165   ----------------------------------------
 BYTE   PATT
  POIN2 Label_013CCCF2
//  #02 //166   ----------------------------------------
 BYTE   PATT
  POIN2 Label_013CCCF2
//  #02 //167   ----------------------------------------
 BYTE   N23  Fn0  v084
 BYTE   W24
 BYTE   En0
 BYTE   W24
 BYTE   Fn0
 BYTE   W24
 BYTE   Gn0
 BYTE   W24
//  #02 //168   ----------------------------------------
 BYTE   Gs0
 BYTE   W24
 BYTE   Gn0
 BYTE   W24
 BYTE   Gs0
 BYTE   W24
 BYTE   An0
 BYTE   W24
//  #02 //169   ----------------------------------------
 BYTE   N56  As0
 BYTE   W60
 BYTE   N11  Fn0
 BYTE   W12
 BYTE   As0
 BYTE   W12
 BYTE   Bn0
 BYTE   W12
//  #02 //170   ----------------------------------------
 BYTE   N32  Cn1
 BYTE   W36
 BYTE   N23  Gn0
 BYTE   W24
 BYTE   N11
 BYTE   W12
 BYTE   Cn1
 BYTE   W12
 BYTE   Gn0
 BYTE   W12
//  #02 //171   ----------------------------------------
Label_013CD161:
 BYTE   N32  Fn0  v084
 BYTE   W36
 BYTE   Cn1
 BYTE   W36
 BYTE   N23  Fn1
 BYTE   W24
 BYTE   PEND 
//  #02 //172   ----------------------------------------
 BYTE   N32  Ds1
 BYTE   W36
 BYTE   Cn1
 BYTE   W36
 BYTE   N23  Ds1
 BYTE   W24
//  #02 //173   ----------------------------------------
 BYTE   N32  Cs1
 BYTE   W36
 BYTE   Gs0
 BYTE   W36
 BYTE   N23  Cs1
 BYTE   W24
//  #02 //174   ----------------------------------------
 BYTE   N32  Cn1
 BYTE   W36
 BYTE   N23  Gn0
 BYTE   W24
 BYTE   N11  Cn1
 BYTE   W12
 BYTE   Gn0
 BYTE   W12
 BYTE   Fs0
 BYTE   W12
//  #02 //175   ----------------------------------------
 BYTE   N32  Fn0
 BYTE   W36
 BYTE   N11  Cn1
 BYTE   W24
 BYTE   Fn0
 BYTE   W12
 BYTE   N23
 BYTE   W24
//  #02 //176   ----------------------------------------
 BYTE   PATT
  POIN2 Label_013CD161
//  #02 //177   ----------------------------------------
 BYTE   N11  As0  v080
 BYTE   W12
 BYTE   As0  v064
 BYTE   W12
 BYTE   As0  v080
 BYTE   W12
 BYTE   As0  v064
 BYTE   W12
 BYTE   As0  v080
 BYTE   W12
 BYTE   Fn0  v072
 BYTE   W12
 BYTE   As0  v084
 BYTE   W12
 BYTE   Bn0  v072
 BYTE   W12
//  #02 //178   ----------------------------------------
 BYTE   Cn1  v080
 BYTE   W12
 BYTE   Cn1  v064
 BYTE   W12
 BYTE   Cn1  v080
 BYTE   W12
 BYTE   Cn1  v064
 BYTE   W12
 BYTE   Cn1  v080
 BYTE   W12
 BYTE   Cn1  v064
 BYTE   W12
 BYTE   Gn1  v080
 BYTE   W12
 BYTE   Gn1  v064
 BYTE   W12
//  #02 //179   ----------------------------------------
Label_013CD1C8:
 BYTE   N11  Fn1  v080
 BYTE   W12
 BYTE   Fn1  v064
 BYTE   W12
 BYTE   Fn1  v080
 BYTE   W12
 BYTE   Fn1  v064
 BYTE   W12
 BYTE   Fn1  v080
 BYTE   W12
 BYTE   Fn1  v064
 BYTE   W12
 BYTE   Fn1  v080
 BYTE   W12
 BYTE   Fn1  v064
 BYTE   W12
 BYTE   PEND 
//  #02 //180   ----------------------------------------
 BYTE   PATT
  POIN2 Label_013CCF47
//  #02 //181   ----------------------------------------
 BYTE   N56  Cs1  v084
 BYTE   W60
 BYTE   N11
 BYTE   W12
 BYTE   Gs0
 BYTE   W12
 BYTE   Gn0
 BYTE   W12
//  #02 //182   ----------------------------------------
 BYTE   N32  Fs0
 BYTE   W36
 BYTE   Cs1
 BYTE   W36
 BYTE   N23  Fs0
 BYTE   W24
//  #02 //183   ----------------------------------------
 BYTE   N32  Fn0
 BYTE   W36
 BYTE   Cn1
 BYTE   W36
 BYTE   N23  Gn1
 BYTE   W24
//  #02 //184   ----------------------------------------
 BYTE   N32  Fn1
 BYTE   W36
 BYTE   N32
 BYTE   W36
 BYTE   N23  Cn1
 BYTE   W24
//  #02 //185   ----------------------------------------
 BYTE   PATT
  POIN2 Label_013CC95F
//  #02 //186   ----------------------------------------
 BYTE   PATT
  POIN2 Label_013CC9AB
//  #02 //187   ----------------------------------------
Label_013CD213:
 BYTE   N11  Cs1  v080
 BYTE   W12
 BYTE   Cs1  v064
 BYTE   W12
 BYTE   Cs1  v080
 BYTE   W12
 BYTE   Cs1  v064
 BYTE   W12
 BYTE   Cs1  v080
 BYTE   W12
 BYTE   Cs1  v064
 BYTE   W12
 BYTE   Cs1  v080
 BYTE   W12
 BYTE   Cs1  v064
 BYTE   W12
 BYTE   PEND 
//  #02 //188   ----------------------------------------
 BYTE   PATT
  POIN2 Label_013CCCD8
//  #02 //189   ----------------------------------------
 BYTE   PATT
  POIN2 Label_013CC95F
//  #02 //190   ----------------------------------------
 BYTE   PATT
  POIN2 Label_013CC9AB
//  #02 //191   ----------------------------------------
 BYTE   PATT
  POIN2 Label_013CCF47
//  #02 //192   ----------------------------------------
 BYTE   PATT
  POIN2 Label_013CD1C8
//  #02 //193   ----------------------------------------
 BYTE   PATT
  POIN2 Label_013CC95F
//  #02 //194   ----------------------------------------
 BYTE   PATT
  POIN2 Label_013CC9AB
//  #02 //195   ----------------------------------------
 BYTE   PATT
  POIN2 Label_013CD213
//  #02 //196   ----------------------------------------
 BYTE   PATT
  POIN2 Label_013CCF47
//  #02 //197   ----------------------------------------
 BYTE   N23  Fs0  v084
 BYTE   W24
 BYTE   N32
 BYTE   W36
 BYTE   N11
 BYTE   W12
 BYTE   Cs1
 BYTE   W12
 BYTE   N23  Gs1
 BYTE   W12
//  #02 //198   ----------------------------------------
 BYTE   W12
 BYTE   Fs1
 BYTE   W24
 BYTE   Cs1
 BYTE   W24
 BYTE   N11  Fs0
 BYTE   W12
 BYTE   N23
 BYTE   W24
//  #02 //199   ----------------------------------------
 BYTE   N11  Gs0
 BYTE   W12
 BYTE   Gs0  v064
 BYTE   W12
 BYTE   Gs0  v080
 BYTE   W12
 BYTE   Gs0  v064
 BYTE   W12
 BYTE   Gs0  v080
 BYTE   W12
 BYTE   Gs0  v064
 BYTE   W12
 BYTE   Gs0  v080
 BYTE   W12
 BYTE   Gs0  v064
 BYTE   W12
//  #02 //200   ----------------------------------------
 BYTE   PATT
  POIN2 Label_013CCCF2
//  #02 //201   ----------------------------------------
 BYTE   PATT
  POIN2 Label_013CC95F
//  #02 //202   ----------------------------------------
 BYTE   PATT
  POIN2 Label_013CC95F
//  #02 //203   ----------------------------------------
 BYTE   PATT
  POIN2 Label_013CC95F
//  #02 //204   ----------------------------------------
 BYTE   PATT
  POIN2 Label_013CC95F
//  #02 //205   ----------------------------------------
 BYTE   PATT
  POIN2 Label_013CC95F
//  #02 //206   ----------------------------------------
 BYTE   PATT
  POIN2 Label_013CC95F
//  #02 //207   ----------------------------------------
 BYTE   PATT
  POIN2 Label_013CD004
//  #02 //208   ----------------------------------------
 BYTE   PATT
  POIN2 Label_013CD01F
//  #02 //209   ----------------------------------------
 BYTE   PATT
  POIN2 Label_013CD02E
//  #02 //210   ----------------------------------------
 BYTE   PATT
  POIN2 Label_013CD040
//  #02 //211   ----------------------------------------
 BYTE   W24
 BYTE   TIE  As0  v084
 BYTE   W72
//  #02 //212   ----------------------------------------
 BYTE   W92
 BYTE   W03
 BYTE   EOT
 BYTE   FINE

//**************** Track 3 (Midi-Chn.2) ****************//

The_One_They_Call_Witch_Song_003:
//  #03 //000   ----------------------------------------
 BYTE   KEYSH   The_One_They_Call_Witch_Song_key+0
 BYTE   VOICE   38
 BYTE   MODT 0
 BYTE   LFOS 44
 BYTE   BENDR  12
 BYTE   VOL   44*The_One_They_Call_Witch_Song_mvl/mxv
 BYTE   PAN   c_v+0
 BYTE   BENDR  12
 BYTE   VOL   44*The_One_They_Call_Witch_Song_mvl/mxv
 BYTE   PAN   c_v+0
 BYTE   BENDR  12
 BYTE   VOL   44*The_One_They_Call_Witch_Song_mvl/mxv
 BYTE   PAN   c_v+0
 BYTE   N11  Gs3  v064
 BYTE   W12
 BYTE   N11
 BYTE   W12
 BYTE   N23  As3
 BYTE   W48
 BYTE   N11  Cn4
 BYTE   W12
 BYTE   N11
 BYTE   W12
//  #03 //001   ----------------------------------------
Label_013C9BB0:
 BYTE   N23  As3  v064
 BYTE   W96
 BYTE   PEND 
//  #03 //002   ----------------------------------------
 BYTE   W96
//  #03 //003   ----------------------------------------
 BYTE   W96
//  #03 //004   ----------------------------------------
 BYTE   N11  Gs3
 BYTE   W12
 BYTE   N11
 BYTE   W12
 BYTE   N23  As3
 BYTE   W48
 BYTE   N11  Cn4
 BYTE   W12
 BYTE   N11
 BYTE   W12
//  #03 //005   ----------------------------------------
 BYTE   PATT
  POIN2 Label_013C9BB0
//  #03 //006   ----------------------------------------
 BYTE   W96
//  #03 //007   ----------------------------------------
 BYTE   W48
 BYTE   N11  Cn4  v064
 BYTE   W12
 BYTE   N11
 BYTE   W12
 BYTE   N23  Cs4
 BYTE   W24
//  #03 //008   ----------------------------------------
Label_013C9BD4:
 BYTE   N44  As3  v064
 BYTE   W48
 BYTE   N44
 BYTE   W48
//  #03 //009   ----------------------------------------
 BYTE   Fs3
 BYTE   W48
 BYTE   N44
 BYTE   W48
//  #03 //010   ----------------------------------------
 BYTE   Ds3
 BYTE   W48
 BYTE   Cs3
 BYTE   W48
//  #03 //011   ----------------------------------------
 BYTE   N23  Cn3
 BYTE   W24
 BYTE   Cs3
 BYTE   W24
 BYTE   Ds3
 BYTE   W24
 BYTE   Fs3
 BYTE   W24
//  #03 //012   ----------------------------------------
 BYTE   PATT
  POIN2 Label_013C9BB0
//  #03 //013   ----------------------------------------
Label_013C9BF0:
 BYTE   N23  Fs3  v064
 BYTE   W96
 BYTE   PEND 
//  #03 //014   ----------------------------------------
 BYTE   PATT
  POIN2 Label_013C9BF0
//  #03 //015   ----------------------------------------
 BYTE   N44  Fn3  v064
 BYTE   W48
 BYTE   N44
 BYTE   W48
//  #03 //016   ----------------------------------------
 BYTE   PATT
  POIN2 Label_013C9BB0
//  #03 //017   ----------------------------------------
 BYTE   N23  Bn3  v064
 BYTE   W96
//  #03 //018   ----------------------------------------
 BYTE   Fn3
 BYTE   W36
 BYTE   Fs3
 BYTE   W12
 BYTE   W24
 BYTE   Gs3
 BYTE   W24
//  #03 //019   ----------------------------------------
 BYTE   W12
 BYTE   N32  An3
 BYTE   W36
 BYTE   N23  Bn3
 BYTE   W24
 BYTE   Cn4
 BYTE   W24
//  #03 //020   ----------------------------------------
 BYTE   As3  v048
 BYTE   W96
//  #03 //021   ----------------------------------------
Label_013C9C1C:
 BYTE   N23  Fs3  v048
 BYTE   W96
 BYTE   PEND 
//  #03 //022   ----------------------------------------
 BYTE   PATT
  POIN2 Label_013C9C1C
//  #03 //023   ----------------------------------------
 BYTE   N44  Fn3  v048
 BYTE   W48
 BYTE   N44
 BYTE   W48
//  #03 //024   ----------------------------------------
Label_013C9C2C:
 BYTE   N92  Fs3  v048
 BYTE   W96
 BYTE   PEND 
//  #03 //025   ----------------------------------------
 BYTE   PATT
  POIN2 Label_013C9C2C
//  #03 //026   ----------------------------------------
 BYTE   N92  Ds3  v048
 BYTE   W96
//  #03 //027   ----------------------------------------
 BYTE   N23  Cs3  v064
 BYTE   W24
 BYTE   N23
 BYTE   W24
 BYTE   N19
 BYTE   W18
 BYTE   W01
 BYTE   N04
 BYTE   W17
 BYTE   N11
 BYTE   W12
//  #03 //028   ----------------------------------------
 BYTE   N23
 BYTE   W24
 BYTE   Ds3
 BYTE   W24
 BYTE   Cs3
 BYTE   W24
 BYTE   Cn3
 BYTE   W24
//  #03 //029   ----------------------------------------
 BYTE   As2
 BYTE   W24
 BYTE   An2
 BYTE   W24
 BYTE   As2
 BYTE   W24
 BYTE   Cn3
 BYTE   W24
//  #03 //030   ----------------------------------------
 BYTE   Cs3
 BYTE   W24
 BYTE   Cn3
 BYTE   W24
 BYTE   Cs3
 BYTE   W24
 BYTE   Fn3
 BYTE   W24
//  #03 //031   ----------------------------------------
 BYTE   N23
 BYTE   W24
 BYTE   An3
 BYTE   W24
 BYTE   As3
 BYTE   W24
 BYTE   Fn3
 BYTE   W24
//  #03 //032   ----------------------------------------
 BYTE   N23
 BYTE   W24
 BYTE   N23
 BYTE   W24
 BYTE   N23
 BYTE   W24
 BYTE   An3
 BYTE   W24
//  #03 //033   ----------------------------------------
 BYTE   As3
 BYTE   W24
 BYTE   Fn3
 BYTE   W24
 BYTE   N23
 BYTE   W24
 BYTE   An3
 BYTE   W24
//  #03 //034   ----------------------------------------
 BYTE   As3
 BYTE   W24
 BYTE   An3
 BYTE   W24
 BYTE   As3
 BYTE   W24
 BYTE   Cn4
 BYTE   W24
//  #03 //035   ----------------------------------------
 BYTE   Cs4
 BYTE   W24
 BYTE   Cn4
 BYTE   W24
 BYTE   Cs4
 BYTE   W24
 BYTE   Fn4
 BYTE   W24
//  #03 //036   ----------------------------------------
 BYTE   W96
//  #03 //037   ----------------------------------------
 BYTE   W96
//  #03 //038   ----------------------------------------
 BYTE   W96
//  #03 //039   ----------------------------------------
 BYTE   W96
//  #03 //040   ----------------------------------------
 BYTE   W96
//  #03 //041   ----------------------------------------
 BYTE   W96
//  #03 //042   ----------------------------------------
 BYTE   W96
//  #03 //043   ----------------------------------------
 BYTE   W96
//  #03 //044   ----------------------------------------
 BYTE   W96
//  #03 //045   ----------------------------------------
 BYTE   W96
//  #03 //046   ----------------------------------------
 BYTE   W96
//  #03 //047   ----------------------------------------
 BYTE   W96
//  #03 //048   ----------------------------------------
 BYTE   W96
//  #03 //049   ----------------------------------------
 BYTE   W96
//  #03 //050   ----------------------------------------
 BYTE   W96
//  #03 //051   ----------------------------------------
 BYTE   W96
//  #03 //052   ----------------------------------------
 BYTE   W96
//  #03 //053   ----------------------------------------
 BYTE   W96
//  #03 //054   ----------------------------------------
 BYTE   W96
//  #03 //055   ----------------------------------------
 BYTE   W96
//  #03 //056   ----------------------------------------
 BYTE   W96
//  #03 //057   ----------------------------------------
 BYTE   W96
//  #03 //058   ----------------------------------------
 BYTE   W96
//  #03 //059   ----------------------------------------
 BYTE   W96
//  #03 //060   ----------------------------------------
 BYTE   W96
//  #03 //061   ----------------------------------------
 BYTE   W96
//  #03 //062   ----------------------------------------
 BYTE   W96
//  #03 //063   ----------------------------------------
 BYTE   W96
//  #03 //064   ----------------------------------------
 BYTE   W96
//  #03 //065   ----------------------------------------
 BYTE   W96
//  #03 //066   ----------------------------------------
 BYTE   W96
//  #03 //067   ----------------------------------------
 BYTE   N11  As3  v048
 BYTE   W12
 BYTE   N11
 BYTE   W24
 BYTE   N11
 BYTE   W24
 BYTE   N32
 BYTE   W36
//  #03 //068   ----------------------------------------
Label_013C9CB0:
 BYTE   N92  As3  v048
 BYTE   W96
 BYTE   PEND 
//  #03 //069   ----------------------------------------
Label_013C9CB5:
 BYTE   N44  Bn3  v048
 BYTE   W48
 BYTE   N44
 BYTE   W48
 BYTE   PEND 
//  #03 //070   ----------------------------------------
Label_013C9CBC:
 BYTE   N92  Cs4  v048
 BYTE   W96
 BYTE   PEND 
//  #03 //071   ----------------------------------------
 BYTE   N44
 BYTE   W48
 BYTE   Gs3
 BYTE   W48
//  #03 //072   ----------------------------------------
 BYTE   PATT
  POIN2 Label_013C9CB0
//  #03 //073   ----------------------------------------
 BYTE   PATT
  POIN2 Label_013C9CB5
//  #03 //074   ----------------------------------------
 BYTE   N92  Gs3  v048
 BYTE   W96
//  #03 //075   ----------------------------------------
 BYTE   N44  Ds4
 BYTE   W48
 BYTE   Dn4
 BYTE   W48
//  #03 //076   ----------------------------------------
 BYTE   PATT
  POIN2 Label_013C9CB0
//  #03 //077   ----------------------------------------
 BYTE   PATT
  POIN2 Label_013C9CB5
//  #03 //078   ----------------------------------------
 BYTE   PATT
  POIN2 Label_013C9CBC
//  #03 //079   ----------------------------------------
 BYTE   N44  Gs3  v048
 BYTE   W48
 BYTE   N44
 BYTE   W48
//  #03 //080   ----------------------------------------
 BYTE   N92  Bn3
 BYTE   W96
//  #03 //081   ----------------------------------------
 BYTE   PATT
  POIN2 Label_013C9CBC
//  #03 //082   ----------------------------------------
 BYTE   TIE  As3  v036
 BYTE   W96
//  #03 //083   ----------------------------------------
 BYTE   W92
 BYTE   W03
 BYTE   EOT
 BYTE   W01
//  #03 //084   ----------------------------------------
 BYTE   W96
//  #03 //085   ----------------------------------------
 BYTE   W96
//  #03 //086   ----------------------------------------
 BYTE   W96
//  #03 //087   ----------------------------------------
 BYTE   W96
//  #03 //088   ----------------------------------------
 BYTE   W96
//  #03 //089   ----------------------------------------
 BYTE   W96
//  #03 //090   ----------------------------------------
 BYTE   GoTo
  POIN2 Label_013C9BD4
//  #03 //091   ----------------------------------------
 BYTE   W96
//  #03 //092   ----------------------------------------
 BYTE   W96
//  #03 //093   ----------------------------------------
 BYTE   W96
//  #03 //094   ----------------------------------------
 BYTE   W96
//  #03 //095   ----------------------------------------
 BYTE   W96
//  #03 //096   ----------------------------------------
 BYTE   W96
//  #03 //097   ----------------------------------------
 BYTE   W96
//  #03 //098   ----------------------------------------
 BYTE   W96
//  #03 //099   ----------------------------------------
 BYTE   W96
//  #03 //100   ----------------------------------------
 BYTE   W96
//  #03 //101   ----------------------------------------
 BYTE   W96
//  #03 //102   ----------------------------------------
 BYTE   W96
//  #03 //103   ----------------------------------------
 BYTE   W96
//  #03 //104   ----------------------------------------
 BYTE   W96
//  #03 //105   ----------------------------------------
 BYTE   W96
//  #03 //106   ----------------------------------------
 BYTE   W96
//  #03 //107   ----------------------------------------
 BYTE   W96
//  #03 //108   ----------------------------------------
 BYTE   W96
//  #03 //109   ----------------------------------------
 BYTE   W96
//  #03 //110   ----------------------------------------
 BYTE   W96
//  #03 //111   ----------------------------------------
 BYTE   W96
//  #03 //112   ----------------------------------------
 BYTE   W96
//  #03 //113   ----------------------------------------
 BYTE   W96
//  #03 //114   ----------------------------------------
 BYTE   W96
//  #03 //115   ----------------------------------------
 BYTE   W96
//  #03 //116   ----------------------------------------
 BYTE   W96
//  #03 //117   ----------------------------------------
 BYTE   W96
//  #03 //118   ----------------------------------------
 BYTE   W96
//  #03 //119   ----------------------------------------
 BYTE   W96
//  #03 //120   ----------------------------------------
 BYTE   W96
//  #03 //121   ----------------------------------------
 BYTE   W96
//  #03 //122   ----------------------------------------
 BYTE   W96
//  #03 //123   ----------------------------------------
 BYTE   W96
//  #03 //124   ----------------------------------------
 BYTE   W96
//  #03 //125   ----------------------------------------
 BYTE   W96
//  #03 //126   ----------------------------------------
 BYTE   W96
//  #03 //127   ----------------------------------------
 BYTE   W96
//  #03 //128   ----------------------------------------
 BYTE   W96
//  #03 //129   ----------------------------------------
 BYTE   W96
//  #03 //130   ----------------------------------------
 BYTE   W96
//  #03 //131   ----------------------------------------
 BYTE   W96
//  #03 //132   ----------------------------------------
 BYTE   W96
//  #03 //133   ----------------------------------------
 BYTE   W96
//  #03 //134   ----------------------------------------
 BYTE   W96
//  #03 //135   ----------------------------------------
 BYTE   W96
//  #03 //136   ----------------------------------------
 BYTE   W96
//  #03 //137   ----------------------------------------
 BYTE   W96
//  #03 //138   ----------------------------------------
 BYTE   W96
//  #03 //139   ----------------------------------------
 BYTE   W96
//  #03 //140   ----------------------------------------
 BYTE   W96
//  #03 //141   ----------------------------------------
 BYTE   W96
//  #03 //142   ----------------------------------------
 BYTE   W96
//  #03 //143   ----------------------------------------
 BYTE   W96
//  #03 //144   ----------------------------------------
 BYTE   W96
//  #03 //145   ----------------------------------------
 BYTE   W96
//  #03 //146   ----------------------------------------
 BYTE   W96
//  #03 //147   ----------------------------------------
 BYTE   W96
//  #03 //148   ----------------------------------------
 BYTE   W96
//  #03 //149   ----------------------------------------
 BYTE   W96
//  #03 //150   ----------------------------------------
 BYTE   W96
//  #03 //151   ----------------------------------------
 BYTE   W96
//  #03 //152   ----------------------------------------
 BYTE   W96
//  #03 //153   ----------------------------------------
 BYTE   W96
//  #03 //154   ----------------------------------------
 BYTE   W96
//  #03 //155   ----------------------------------------
 BYTE   W96
//  #03 //156   ----------------------------------------
 BYTE   W96
//  #03 //157   ----------------------------------------
 BYTE   W96
//  #03 //158   ----------------------------------------
 BYTE   W96
//  #03 //159   ----------------------------------------
 BYTE   W96
//  #03 //160   ----------------------------------------
 BYTE   W96
//  #03 //161   ----------------------------------------
 BYTE   W96
//  #03 //162   ----------------------------------------
 BYTE   W96
//  #03 //163   ----------------------------------------
 BYTE   W96
//  #03 //164   ----------------------------------------
 BYTE   W96
//  #03 //165   ----------------------------------------
 BYTE   W96
//  #03 //166   ----------------------------------------
 BYTE   W96
//  #03 //167   ----------------------------------------
 BYTE   W96
//  #03 //168   ----------------------------------------
 BYTE   W96
//  #03 //169   ----------------------------------------
 BYTE   W96
//  #03 //170   ----------------------------------------
 BYTE   W96
//  #03 //171   ----------------------------------------
 BYTE   W96
//  #03 //172   ----------------------------------------
 BYTE   W96
//  #03 //173   ----------------------------------------
 BYTE   W96
//  #03 //174   ----------------------------------------
 BYTE   W96
//  #03 //175   ----------------------------------------
 BYTE   W96
//  #03 //176   ----------------------------------------
 BYTE   W96
//  #03 //177   ----------------------------------------
 BYTE   W96
//  #03 //178   ----------------------------------------
 BYTE   W96
//  #03 //179   ----------------------------------------
 BYTE   W96
//  #03 //180   ----------------------------------------
 BYTE   W96
//  #03 //181   ----------------------------------------
 BYTE   W96
//  #03 //182   ----------------------------------------
 BYTE   W96
//  #03 //183   ----------------------------------------
 BYTE   W96
//  #03 //184   ----------------------------------------
 BYTE   W96
//  #03 //185   ----------------------------------------
 BYTE   W96
//  #03 //186   ----------------------------------------
 BYTE   W96
//  #03 //187   ----------------------------------------
 BYTE   W96
//  #03 //188   ----------------------------------------
 BYTE   W96
//  #03 //189   ----------------------------------------
 BYTE   W96
//  #03 //190   ----------------------------------------
 BYTE   W96
//  #03 //191   ----------------------------------------
 BYTE   W96
//  #03 //192   ----------------------------------------
 BYTE   W96
//  #03 //193   ----------------------------------------
 BYTE   W96
//  #03 //194   ----------------------------------------
 BYTE   W96
//  #03 //195   ----------------------------------------
 BYTE   W96
//  #03 //196   ----------------------------------------
 BYTE   W96
//  #03 //197   ----------------------------------------
 BYTE   W96
//  #03 //198   ----------------------------------------
 BYTE   W96
//  #03 //199   ----------------------------------------
 BYTE   W96
//  #03 //200   ----------------------------------------
 BYTE   W96
//  #03 //201   ----------------------------------------
 BYTE   W96
//  #03 //202   ----------------------------------------
 BYTE   W92
 BYTE   W03
 BYTE   FINE

//**************** Track 4 (Midi-Chn.3) ****************//

The_One_They_Call_Witch_Song_004:
//  #04 //000   ----------------------------------------
 BYTE   KEYSH   The_One_They_Call_Witch_Song_key+0
 BYTE   VOICE   39
 BYTE   MODT 0
 BYTE   LFOS 44
 BYTE   BENDR  12
 BYTE   VOL   44*The_One_They_Call_Witch_Song_mvl/mxv
 BYTE   PAN   c_v+0
 BYTE   BENDR  12
 BYTE   VOL   44*The_One_They_Call_Witch_Song_mvl/mxv
 BYTE   PAN   c_v+0
 BYTE   BENDR  12
 BYTE   VOL   44*The_One_They_Call_Witch_Song_mvl/mxv
 BYTE   PAN   c_v+0
 BYTE   N11  As2  v044
 BYTE   N11  Ds3  v064
 BYTE   W12
 BYTE   As2  v044
 BYTE   N11  Ds3  v064
 BYTE   W12
 BYTE   N23  As2  v044
 BYTE   N23  Fn3  v064
 BYTE   W48
 BYTE   N11  As2  v044
 BYTE   N11  Gs3  v064
 BYTE   W12
 BYTE   As2  v044
 BYTE   N11  Gs3  v064
 BYTE   W12
//  #04 //001   ----------------------------------------
 BYTE   N23  As2  v044
 BYTE   N23  Fn3  v064
 BYTE   W96
//  #04 //002   ----------------------------------------
 BYTE   W96
//  #04 //003   ----------------------------------------
 BYTE   W96
//  #04 //004   ----------------------------------------
 BYTE   N11  Fs2  v044
 BYTE   N11  Ds3  v064
 BYTE   W12
 BYTE   Fs2  v044
 BYTE   N11  Ds3  v064
 BYTE   W12
 BYTE   N23  Fs2  v044
 BYTE   N23  Fn3  v064
 BYTE   W48
 BYTE   N11  Fs2  v044
 BYTE   N11  Gs3  v064
 BYTE   W12
 BYTE   Fs2  v044
 BYTE   N11  Gs3  v064
 BYTE   W12
//  #04 //005   ----------------------------------------
 BYTE   N23  Fs2  v044
 BYTE   N23  Fn3  v064
 BYTE   W96
//  #04 //006   ----------------------------------------
 BYTE   W96
//  #04 //007   ----------------------------------------
 BYTE   W48
 BYTE   N11  Gs3
 BYTE   W12
 BYTE   N11
 BYTE   W12
 BYTE   N23  As3
 BYTE   W24
//  #04 //008   ----------------------------------------
Label_013D0C3E:
 BYTE   N44  Fs3  v064
 BYTE   W48
 BYTE   Fn3
 BYTE   W48
 BYTE   PEND 
//  #04 //009   ----------------------------------------
Label_013D0C45:
 BYTE   N44  Ds3  v064
 BYTE   W48
 BYTE   Cs3
 BYTE   W48
 BYTE   PEND 
//  #04 //010   ----------------------------------------
Label_013D0C4C:
 BYTE   N44  Cn3  v064
 BYTE   W48
 BYTE   As2
 BYTE   W48
 BYTE   PEND 
//  #04 //011   ----------------------------------------
Label_013D0C53:
 BYTE   N23  An2  v064
 BYTE   W24
 BYTE   As2
 BYTE   W24
 BYTE   Cn3
 BYTE   W24
 BYTE   Ds3
 BYTE   W24
 BYTE   PEND 
//  #04 //012   ----------------------------------------
Label_013D0C5E:
 BYTE   N11  As2  v072
 BYTE   N23  Fn3  v064
 BYTE   W12
 BYTE   N11  As2  v044
 BYTE   W12
 BYTE   N11
 BYTE   W12
 BYTE   N11
 BYTE   W12
 BYTE   As2  v072
 BYTE   W12
 BYTE   As2  v044
 BYTE   W12
 BYTE   N11
 BYTE   W12
 BYTE   N11
 BYTE   W12
 BYTE   PEND 
//  #04 //013   ----------------------------------------
 BYTE   Cn3  v072
 BYTE   N23  Ds3  v064
 BYTE   W12
 BYTE   N11  Cn3  v044
 BYTE   W12
 BYTE   N11
 BYTE   W12
 BYTE   N11
 BYTE   W12
 BYTE   Cn3  v072
 BYTE   W12
 BYTE   Cn3  v044
 BYTE   W12
 BYTE   N11
 BYTE   W12
 BYTE   N11
 BYTE   W12
//  #04 //014   ----------------------------------------
 BYTE   Bn2  v072
 BYTE   N23  Ds3  v064
 BYTE   W12
 BYTE   N11  Bn2  v044
 BYTE   W12
 BYTE   N11
 BYTE   W12
 BYTE   N11
 BYTE   W12
 BYTE   Bn2  v072
 BYTE   W12
 BYTE   Bn2  v044
 BYTE   W12
 BYTE   N11
 BYTE   W12
 BYTE   N11
 BYTE   W12
//  #04 //015   ----------------------------------------
 BYTE   As2  v072
 BYTE   N44  Cs3  v064
 BYTE   W12
 BYTE   N11  As2  v044
 BYTE   W12
 BYTE   N11
 BYTE   W12
 BYTE   N11
 BYTE   W12
 BYTE   An2  v072
 BYTE   N44  Cn3  v064
 BYTE   W12
 BYTE   N11  An2  v044
 BYTE   W12
 BYTE   N11
 BYTE   W12
 BYTE   N11
 BYTE   W12
//  #04 //016   ----------------------------------------
 BYTE   PATT
  POIN2 Label_013D0C5E
//  #04 //017   ----------------------------------------
 BYTE   N11  Bn2  v072
 BYTE   N23  Fs3  v064
 BYTE   W12
 BYTE   N11  Bn2  v044
 BYTE   W12
 BYTE   N11
 BYTE   W12
 BYTE   N11
 BYTE   W12
 BYTE   Bn2  v072
 BYTE   W12
 BYTE   Bn2  v044
 BYTE   W12
 BYTE   N11
 BYTE   W12
 BYTE   N11
 BYTE   W12
//  #04 //018   ----------------------------------------
 BYTE   Cn3  v072
 BYTE   W12
 BYTE   Cn3  v044
 BYTE   W12
 BYTE   N11
 BYTE   W12
 BYTE   Cs3  v072
 BYTE   W12
 BYTE   Cs3  v044
 BYTE   W12
 BYTE   N11
 BYTE   W12
 BYTE   Ds3  v072
 BYTE   W12
 BYTE   Ds3  v044
 BYTE   W12
//  #04 //019   ----------------------------------------
 BYTE   N11
 BYTE   W12
 BYTE   Cs3  v072
 BYTE   N32  En3  v064
 BYTE   W12
 BYTE   N11  Cs3  v044
 BYTE   W12
 BYTE   N11
 BYTE   W12
 BYTE   Ds3  v072
 BYTE   N23  Fs3  v064
 BYTE   W12
 BYTE   N11  Ds3  v044
 BYTE   W12
 BYTE   En3  v072
 BYTE   N23  Gn3  v064
 BYTE   W12
 BYTE   N11  En3  v044
 BYTE   W12
//  #04 //020   ----------------------------------------
 BYTE   As2  v072
 BYTE   N23  Fn3  v048
 BYTE   W12
 BYTE   N11  As2  v044
 BYTE   W12
 BYTE   N11
 BYTE   W12
 BYTE   N11
 BYTE   W12
 BYTE   As2  v072
 BYTE   W12
 BYTE   As2  v044
 BYTE   W12
 BYTE   N11
 BYTE   W12
 BYTE   N11
 BYTE   W12
//  #04 //021   ----------------------------------------
 BYTE   Cn3  v072
 BYTE   N23  Ds3  v048
 BYTE   W12
 BYTE   N11  Cn3  v044
 BYTE   W12
 BYTE   N11
 BYTE   W12
 BYTE   N11
 BYTE   W12
 BYTE   Cn3  v072
 BYTE   W12
 BYTE   Cn3  v044
 BYTE   W12
 BYTE   N11
 BYTE   W12
 BYTE   N11
 BYTE   W12
//  #04 //022   ----------------------------------------
 BYTE   Bn2  v072
 BYTE   N23  Ds3  v048
 BYTE   W12
 BYTE   N11  Bn2  v044
 BYTE   W12
 BYTE   N11
 BYTE   W12
 BYTE   N11
 BYTE   W12
 BYTE   Bn2  v072
 BYTE   W12
 BYTE   Bn2  v044
 BYTE   W12
 BYTE   N11
 BYTE   W12
 BYTE   N11
 BYTE   W12
//  #04 //023   ----------------------------------------
 BYTE   As2  v072
 BYTE   N44  Cs3  v048
 BYTE   W12
 BYTE   N11  As2  v044
 BYTE   W12
 BYTE   N11
 BYTE   W12
 BYTE   N11
 BYTE   W12
 BYTE   Cn3  v072
 BYTE   W12
 BYTE   Cn3  v044
 BYTE   W12
 BYTE   N11
 BYTE   W12
 BYTE   N11
 BYTE   W12
//  #04 //024   ----------------------------------------
 BYTE   N44  Cs3  v048
 BYTE   W48
 BYTE   Fs3
 BYTE   W48
//  #04 //025   ----------------------------------------
 BYTE   N48  Ds3
 BYTE   N44  Fs3
 BYTE   W48
 BYTE   N23  Ds3
 BYTE   W24
 BYTE   Fs3
 BYTE   W24
//  #04 //026   ----------------------------------------
 BYTE   N92  Cn3
 BYTE   N92  Fn3
 BYTE   W96
//  #04 //027   ----------------------------------------
 BYTE   N23  An2  v064
 BYTE   N23  Cs3  v048
 BYTE   W24
 BYTE   An2  v064
 BYTE   N23  Cs3  v048
 BYTE   W24
 BYTE   N19  An2  v064
 BYTE   N19  Cs3  v048
 BYTE   W18
 BYTE   W01
 BYTE   N04  An2  v064
 BYTE   N04  Cs3  v048
 BYTE   W17
 BYTE   N11  An2  v064
 BYTE   N11  Cs3  v048
 BYTE   W12
//  #04 //028   ----------------------------------------
 BYTE   N23  As2  v064
 BYTE   N23  Cs3  v048
 BYTE   W24
 BYTE   Cn3  v064
 BYTE   W24
 BYTE   As2
 BYTE   W24
 BYTE   An2
 BYTE   W24
//  #04 //029   ----------------------------------------
 BYTE   Fn2
 BYTE   W24
 BYTE   N23
 BYTE   W24
 BYTE   N23
 BYTE   W24
 BYTE   An2
 BYTE   W24
//  #04 //030   ----------------------------------------
 BYTE   As2
 BYTE   W24
 BYTE   An2
 BYTE   W24
 BYTE   As2
 BYTE   W24
 BYTE   Cs3
 BYTE   W24
//  #04 //031   ----------------------------------------
 BYTE   Cn3
 BYTE   W24
 BYTE   Fn3
 BYTE   W24
 BYTE   N23
 BYTE   W24
 BYTE   Cs3
 BYTE   W24
//  #04 //032   ----------------------------------------
 BYTE   N23
 BYTE   W24
 BYTE   Cn3
 BYTE   W24
 BYTE   Cs3
 BYTE   W24
 BYTE   Fn3
 BYTE   W24
//  #04 //033   ----------------------------------------
 BYTE   N23
 BYTE   W24
 BYTE   Cn3
 BYTE   W24
 BYTE   Cs3
 BYTE   W24
 BYTE   Fn3
 BYTE   W24
//  #04 //034   ----------------------------------------
 BYTE   N23
 BYTE   W24
 BYTE   N23
 BYTE   W24
 BYTE   N23
 BYTE   W24
 BYTE   An3
 BYTE   W24
//  #04 //035   ----------------------------------------
 BYTE   As3
 BYTE   W24
 BYTE   An3
 BYTE   W24
 BYTE   As3
 BYTE   W24
 BYTE   Cn4
 BYTE   W24
//  #04 //036   ----------------------------------------
 BYTE   W96
//  #04 //037   ----------------------------------------
 BYTE   W96
//  #04 //038   ----------------------------------------
 BYTE   W96
//  #04 //039   ----------------------------------------
 BYTE   W96
//  #04 //040   ----------------------------------------
 BYTE   W96
//  #04 //041   ----------------------------------------
 BYTE   W96
//  #04 //042   ----------------------------------------
 BYTE   W96
//  #04 //043   ----------------------------------------
 BYTE   W96
//  #04 //044   ----------------------------------------
Label_013D0E00:
 BYTE   N11  As2  v072
 BYTE   W12
 BYTE   As2  v044
 BYTE   W12
 BYTE   N11
 BYTE   W12
 BYTE   N11
 BYTE   W12
 BYTE   As2  v072
 BYTE   W12
 BYTE   As2  v044
 BYTE   W12
 BYTE   N11
 BYTE   W12
 BYTE   N11
 BYTE   W12
 BYTE   PEND 
//  #04 //045   ----------------------------------------
Label_013D0E16:
 BYTE   N11  An2  v072
 BYTE   W12
 BYTE   An2  v044
 BYTE   W12
 BYTE   N11
 BYTE   W12
 BYTE   N11
 BYTE   W12
 BYTE   An2  v072
 BYTE   W12
 BYTE   An2  v044
 BYTE   W12
 BYTE   N11
 BYTE   W12
 BYTE   N11
 BYTE   W12
 BYTE   PEND 
//  #04 //046   ----------------------------------------
Label_013D0E2C:
 BYTE   N11  As2  v072
 BYTE   W12
 BYTE   As2  v044
 BYTE   W12
 BYTE   N11
 BYTE   W12
 BYTE   As2  v072
 BYTE   W12
 BYTE   As2  v044
 BYTE   W12
 BYTE   N11
 BYTE   W12
 BYTE   As2  v072
 BYTE   W12
 BYTE   As2  v044
 BYTE   W12
 BYTE   PEND 
//  #04 //047   ----------------------------------------
Label_013D0E44:
 BYTE   N11  Cs3  v072
 BYTE   W12
 BYTE   Cs3  v044
 BYTE   W12
 BYTE   N11
 BYTE   W12
 BYTE   Cs3  v072
 BYTE   W12
 BYTE   Cs3  v044
 BYTE   W12
 BYTE   N11
 BYTE   W12
 BYTE   Cs3  v072
 BYTE   W12
 BYTE   Cs3  v044
 BYTE   W12
 BYTE   PEND 
//  #04 //048   ----------------------------------------
Label_013D0E5C:
 BYTE   N11  Cs3  v072
 BYTE   W12
 BYTE   Cs3  v044
 BYTE   W12
 BYTE   N11
 BYTE   W12
 BYTE   N11
 BYTE   W12
 BYTE   Cs3  v072
 BYTE   W12
 BYTE   Cs3  v044
 BYTE   W12
 BYTE   N11
 BYTE   W12
 BYTE   N11
 BYTE   W12
 BYTE   PEND 
//  #04 //049   ----------------------------------------
Label_013D0E72:
 BYTE   N11  Cn3  v072
 BYTE   W12
 BYTE   Cn3  v044
 BYTE   W12
 BYTE   N11
 BYTE   W12
 BYTE   Cn3  v072
 BYTE   W12
 BYTE   Cn3  v044
 BYTE   W12
 BYTE   N11
 BYTE   W12
 BYTE   Cn3  v072
 BYTE   W12
 BYTE   Cn3  v044
 BYTE   W12
 BYTE   PEND 
//  #04 //050   ----------------------------------------
 BYTE   PATT
  POIN2 Label_013D0E72
//  #04 //051   ----------------------------------------
Label_013D0E8F:
 BYTE   N11  An2  v084
 BYTE   W12
 BYTE   An2  v044
 BYTE   W12
 BYTE   N11
 BYTE   W12
 BYTE   As2  v084
 BYTE   W12
 BYTE   As2  v044
 BYTE   W12
 BYTE   N11
 BYTE   W12
 BYTE   Cn3  v084
 BYTE   W12
 BYTE   Cn3  v044
 BYTE   W12
 BYTE   PEND 
//  #04 //052   ----------------------------------------
 BYTE   W96
//  #04 //053   ----------------------------------------
 BYTE   W96
//  #04 //054   ----------------------------------------
 BYTE   W96
//  #04 //055   ----------------------------------------
 BYTE   W96
//  #04 //056   ----------------------------------------
 BYTE   W96
//  #04 //057   ----------------------------------------
 BYTE   W96
//  #04 //058   ----------------------------------------
 BYTE   W96
//  #04 //059   ----------------------------------------
 BYTE   W96
//  #04 //060   ----------------------------------------
 BYTE   W96
//  #04 //061   ----------------------------------------
 BYTE   W96
//  #04 //062   ----------------------------------------
 BYTE   W96
//  #04 //063   ----------------------------------------
 BYTE   W96
//  #04 //064   ----------------------------------------
 BYTE   W96
//  #04 //065   ----------------------------------------
 BYTE   W96
//  #04 //066   ----------------------------------------
 BYTE   W96
//  #04 //067   ----------------------------------------
 BYTE   As2  v056
 BYTE   N11  Dn3  v048
 BYTE   W12
 BYTE   As2  v056
 BYTE   N11  Dn3  v048
 BYTE   W24
 BYTE   As2  v056
 BYTE   N11  Dn3  v048
 BYTE   W24
 BYTE   N32  As2  v056
 BYTE   N32  Dn3  v048
 BYTE   W36
//  #04 //068   ----------------------------------------
Label_013D0ECF:
 BYTE   N92  As2  v056
 BYTE   N92  Fs3  v048
 BYTE   W96
 BYTE   PEND 
//  #04 //069   ----------------------------------------
Label_013D0ED7:
 BYTE   N23  Fs2  v056
 BYTE   N44  Fs3  v048
 BYTE   W24
 BYTE   N23  Gs2  v056
 BYTE   W24
 BYTE   As2
 BYTE   N44  Fs3  v048
 BYTE   W24
 BYTE   N23  Fs2  v056
 BYTE   W24
 BYTE   PEND 
//  #04 //070   ----------------------------------------
Label_013D0EEC:
 BYTE   N92  As2  v056
 BYTE   N92  As3  v048
 BYTE   W96
 BYTE   PEND 
//  #04 //071   ----------------------------------------
 BYTE   N44  Gs2  v056
 BYTE   N44  Gs3  v048
 BYTE   W48
 BYTE   Fn2  v056
 BYTE   N44  Fn3  v048
 BYTE   W48
//  #04 //072   ----------------------------------------
 BYTE   PATT
  POIN2 Label_013D0ECF
//  #04 //073   ----------------------------------------
 BYTE   PATT
  POIN2 Label_013D0ED7
//  #04 //074   ----------------------------------------
 BYTE   N92  Bn2  v056
 BYTE   N92  Ds3  v048
 BYTE   W96
//  #04 //075   ----------------------------------------
 BYTE   N44  As2  v056
 BYTE   N44  As3  v048
 BYTE   W48
 BYTE   Gs2  v056
 BYTE   N44  As3  v048
 BYTE   W48
//  #04 //076   ----------------------------------------
 BYTE   PATT
  POIN2 Label_013D0ECF
//  #04 //077   ----------------------------------------
 BYTE   PATT
  POIN2 Label_013D0ED7
//  #04 //078   ----------------------------------------
 BYTE   PATT
  POIN2 Label_013D0EEC
//  #04 //079   ----------------------------------------
 BYTE   N44  Cn3  v056
 BYTE   N44  Ds3  v048
 BYTE   W48
 BYTE   Cn3  v056
 BYTE   N44  Ds3  v048
 BYTE   W48
//  #04 //080   ----------------------------------------
 BYTE   N92  Bn2  v056
 BYTE   N92  Fs3  v048
 BYTE   W96
//  #04 //081   ----------------------------------------
 BYTE   N44  Cs3  v056
 BYTE   N92  Gs3  v048
 BYTE   W48
 BYTE   N44  Fn3  v056
 BYTE   W48
//  #04 //082   ----------------------------------------
 BYTE   N84  Fs3  v036
 BYTE   W12
 BYTE   N11  Ds3  v092
 BYTE   W12
 BYTE   N23
 BYTE   W24
 BYTE   N11  En3
 BYTE   W12
 BYTE   N11
 BYTE   W24
 BYTE   Fs3
 BYTE   W12
//  #04 //083   ----------------------------------------
 BYTE   N23
 BYTE   W24
 BYTE   N11  En3
 BYTE   W12
 BYTE   N11
 BYTE   W24
 BYTE   Ds3
 BYTE   W24
 BYTE   Cs3
 BYTE   W12
//  #04 //084   ----------------------------------------
 BYTE   W12
 BYTE   Ds3  v080
 BYTE   W12
 BYTE   N23
 BYTE   W24
 BYTE   N11  En3
 BYTE   W12
 BYTE   N11
 BYTE   W24
 BYTE   Fs3
 BYTE   W12
//  #04 //085   ----------------------------------------
 BYTE   N23
 BYTE   W24
 BYTE   N11  En3
 BYTE   W12
 BYTE   N11
 BYTE   W24
 BYTE   Ds3
 BYTE   W24
 BYTE   En3
 BYTE   W12
//  #04 //086   ----------------------------------------
 BYTE   W12
 BYTE   Ds3
 BYTE   N11  As3
 BYTE   W12
 BYTE   N23  Ds3
 BYTE   N23  As3
 BYTE   W24
 BYTE   N11  En3
 BYTE   N11  Bn3
 BYTE   W12
 BYTE   En3
 BYTE   N11  Bn3
 BYTE   W24
 BYTE   Fs3
 BYTE   N11  Cs4
 BYTE   W12
//  #04 //087   ----------------------------------------
 BYTE   N23  Fs3
 BYTE   N23  Cs4
 BYTE   W24
 BYTE   N11  En3
 BYTE   N11  Bn3
 BYTE   W12
 BYTE   En3
 BYTE   N11  Bn3
 BYTE   W24
 BYTE   Ds3
 BYTE   N11  As3
 BYTE   W24
 BYTE   Cs3
 BYTE   N11  Gs3
 BYTE   W12
//  #04 //088   ----------------------------------------
 BYTE   W12
 BYTE   As2
 BYTE   N11  Ds3
 BYTE   W12
 BYTE   N23  As2
 BYTE   N23  Ds3
 BYTE   W24
 BYTE   N11  Bn2
 BYTE   N11  En3
 BYTE   W12
 BYTE   Bn2
 BYTE   N11  En3
 BYTE   W24
 BYTE   Bn2
 BYTE   N11  En3
 BYTE   W12
//  #04 //089   ----------------------------------------
 BYTE   N44  Cn3
 BYTE   N44  Fn3
 BYTE   W48
 BYTE   Cn3
 BYTE   N44  Fn3
 BYTE   W48
//  #04 //090   ----------------------------------------
 BYTE   GoTo
  POIN2 Label_013D0C3E
//  #04 //091   ----------------------------------------
 BYTE   W96
//  #04 //092   ----------------------------------------
 BYTE   W96
//  #04 //093   ----------------------------------------
 BYTE   W96
//  #04 //094   ----------------------------------------
 BYTE   W96
//  #04 //095   ----------------------------------------
 BYTE   W96
//  #04 //096   ----------------------------------------
 BYTE   W96
//  #04 //097   ----------------------------------------
 BYTE   W96
//  #04 //098   ----------------------------------------
 BYTE   W96
//  #04 //099   ----------------------------------------
 BYTE   W96
//  #04 //100   ----------------------------------------
 BYTE   W96
//  #04 //101   ----------------------------------------
 BYTE   W96
//  #04 //102   ----------------------------------------
 BYTE   W96
//  #04 //103   ----------------------------------------
 BYTE   W96
//  #04 //104   ----------------------------------------
 BYTE   W96
//  #04 //105   ----------------------------------------
 BYTE   W96
//  #04 //106   ----------------------------------------
 BYTE   W96
//  #04 //107   ----------------------------------------
 BYTE   PATT
  POIN2 Label_013D0C3E
//  #04 //108   ----------------------------------------
 BYTE   PATT
  POIN2 Label_013D0C45
//  #04 //109   ----------------------------------------
 BYTE   PATT
  POIN2 Label_013D0C4C
//  #04 //110   ----------------------------------------
 BYTE   PATT
  POIN2 Label_013D0C53
//  #04 //111   ----------------------------------------
Label_013D0FF7:
 BYTE   W12
 BYTE   N11  Fn3  v064
 BYTE   W12
 BYTE   N23
 BYTE   W24
 BYTE   N11
 BYTE   W12
 BYTE   N11
 BYTE   W24
 BYTE   TIE  Ds3
 BYTE   W12
 BYTE   PEND 
//  #04 //112   ----------------------------------------
Label_013D1006:
 BYTE   W92
 BYTE   W03
 BYTE   PEND 
 BYTE   EOT
 BYTE   Ds3
 BYTE   W01
//  #04 //113   ----------------------------------------
Label_013D100C:
 BYTE   W12
 BYTE   N11  Fn3  v064
 BYTE   W12
 BYTE   N23
 BYTE   W24
 BYTE   N11
 BYTE   W12
 BYTE   N11
 BYTE   W24
 BYTE   TIE  Fs3
 BYTE   W12
 BYTE   PEND 
//  #04 //114   ----------------------------------------
 BYTE   PATT
  POIN2 Label_013D1006
//  #04 //115   ----------------------------------------
 BYTE   EOT
 BYTE   Fs3
 BYTE   W01
//  #04 //116   ----------------------------------------
 BYTE   PATT
  POIN2 Label_013D0FF7
//  #04 //117   ----------------------------------------
 BYTE   PATT
  POIN2 Label_013D1006
//  #04 //118   ----------------------------------------
 BYTE   EOT
 BYTE   Ds3
 BYTE   W01
Label_013D1030:
 BYTE   W12
 BYTE   N11  Fn3  v064
 BYTE   W12
 BYTE   N23
 BYTE   W24
 BYTE   N11
 BYTE   W12
 BYTE   N11
 BYTE   W24
 BYTE   N23  Cs3
 BYTE   W12
 BYTE   PEND 
//  #04 //119   ----------------------------------------
Label_013D103F:
 BYTE   W12
 BYTE   N11  Bn2  v064
 BYTE   W12
 BYTE   As2
 BYTE   W12
 BYTE   Bn2
 BYTE   W12
 BYTE   N23  Fs2
 BYTE   W24
 BYTE   Gs2
 BYTE   W24
 BYTE   PEND 
//  #04 //120   ----------------------------------------
 BYTE   W96
//  #04 //121   ----------------------------------------
 BYTE   W96
//  #04 //122   ----------------------------------------
 BYTE   W96
//  #04 //123   ----------------------------------------
 BYTE   W96
//  #04 //124   ----------------------------------------
 BYTE   W96
//  #04 //125   ----------------------------------------
 BYTE   W96
//  #04 //126   ----------------------------------------
 BYTE   W96
//  #04 //127   ----------------------------------------
 BYTE   W96
//  #04 //128   ----------------------------------------
 BYTE   W96
//  #04 //129   ----------------------------------------
 BYTE   W96
//  #04 //130   ----------------------------------------
 BYTE   PATT
  POIN2 Label_013D0E00
//  #04 //131   ----------------------------------------
 BYTE   PATT
  POIN2 Label_013D0E16
//  #04 //132   ----------------------------------------
 BYTE   PATT
  POIN2 Label_013D0E2C
//  #04 //133   ----------------------------------------
 BYTE   PATT
  POIN2 Label_013D0E44
//  #04 //134   ----------------------------------------
 BYTE   PATT
  POIN2 Label_013D0E5C
//  #04 //135   ----------------------------------------
 BYTE   PATT
  POIN2 Label_013D0E72
//  #04 //136   ----------------------------------------
 BYTE   PATT
  POIN2 Label_013D0E72
//  #04 //137   ----------------------------------------
 BYTE   PATT
  POIN2 Label_013D0E8F
//  #04 //138   ----------------------------------------
 BYTE   TIE  As2  v048
 BYTE   W96
//  #04 //139   ----------------------------------------
 BYTE   W96
//  #04 //140   ----------------------------------------
 BYTE   PATT
  POIN2 Label_013D1006
//  #04 //141   ----------------------------------------
 BYTE   EOT
 BYTE   As2
 BYTE   W01
Label_013D108D:
 BYTE   N23  Cn3  v048
 BYTE   W24
 BYTE   As2
 BYTE   W24
 BYTE   An2
 BYTE   W24
 BYTE   As2
 BYTE   W24
 BYTE   PEND 
//  #04 //142   ----------------------------------------
Label_013D1098:
 BYTE   N92  As2  v048
 BYTE   W96
 BYTE   PEND 
//  #04 //143   ----------------------------------------
 BYTE   PATT
  POIN2 Label_013D108D
//  #04 //144   ----------------------------------------
 BYTE   PATT
  POIN2 Label_013D1098
//  #04 //145   ----------------------------------------
 BYTE   PATT
  POIN2 Label_013D108D
//  #04 //146   ----------------------------------------
 BYTE   N68  Ds3  v048
 BYTE   W72
 BYTE   N23
 BYTE   W24
//  #04 //147   ----------------------------------------
 BYTE   PATT
  POIN2 Label_013D1098
//  #04 //148   ----------------------------------------
 BYTE   N44  As2  v048
 BYTE   W48
 BYTE   Cs3
 BYTE   W48
//  #04 //149   ----------------------------------------
 BYTE   N44
 BYTE   W48
 BYTE   Ds3
 BYTE   W48
//  #04 //150   ----------------------------------------
 BYTE   W96
//  #04 //151   ----------------------------------------
 BYTE   N23  As2
 BYTE   W24
 BYTE   Gs2
 BYTE   W24
 BYTE   Fs2
 BYTE   W24
 BYTE   Fn2
 BYTE   W24
//  #04 //152   ----------------------------------------
Label_013D10CB:
 BYTE   N11  Ds2  v048
 BYTE   W12
 BYTE   N11
 BYTE   W12
 BYTE   Fn2
 BYTE   W12
 BYTE   N23  Fs2
 BYTE   W12
 BYTE   W12
 BYTE   N11  Fn2
 BYTE   W12
 BYTE   N23  Fs2
 BYTE   W24
 BYTE   PEND 
//  #04 //153   ----------------------------------------
 BYTE   N11  Fn2
 BYTE   W12
 BYTE   N23  Fs2
 BYTE   W24
 BYTE   N11  Fn2
 BYTE   W12
 BYTE   Fs2
 BYTE   W12
 BYTE   Fn2
 BYTE   W12
 BYTE   En2
 BYTE   W12
 BYTE   Fn2
 BYTE   W12
//  #04 //154   ----------------------------------------
 BYTE   PATT
  POIN2 Label_013D10CB
//  #04 //155   ----------------------------------------
 BYTE   N11  Fn2  v048
 BYTE   W12
 BYTE   N23  Fs2
 BYTE   W24
 BYTE   N11  Fn2
 BYTE   W12
 BYTE   Fs2
 BYTE   W12
 BYTE   Fn2
 BYTE   W12
 BYTE   Fs2
 BYTE   W12
 BYTE   Gs2
 BYTE   W12
//  #04 //156   ----------------------------------------
Label_013D1106:
 BYTE   N23  As3  v064
 BYTE   W96
 BYTE   PEND 
//  #04 //157   ----------------------------------------
Label_013D110B:
 BYTE   N23  Gs3  v064
 BYTE   W96
 BYTE   PEND 
//  #04 //158   ----------------------------------------
 BYTE   PATT
  POIN2 Label_013D110B
//  #04 //159   ----------------------------------------
 BYTE   PATT
  POIN2 Label_013D0C3E
//  #04 //160   ----------------------------------------
Label_013D111A:
 BYTE   N11  Fn2  v048
 BYTE   W12
 BYTE   N11
 BYTE   W12
 BYTE   Gn2
 BYTE   W12
 BYTE   N23  Gs2
 BYTE   W12
 BYTE   W12
 BYTE   N11  Gn2
 BYTE   W12
 BYTE   N23  Gs2
 BYTE   W24
 BYTE   PEND 
//  #04 //161   ----------------------------------------
 BYTE   N11  Gn2
 BYTE   W12
 BYTE   N23  Gs2
 BYTE   W24
 BYTE   N11  Gn2
 BYTE   W12
 BYTE   Gs2
 BYTE   W12
 BYTE   Gn2
 BYTE   W12
 BYTE   Fs2
 BYTE   W12
 BYTE   Gn2
 BYTE   W12
//  #04 //162   ----------------------------------------
 BYTE   PATT
  POIN2 Label_013D111A
//  #04 //163   ----------------------------------------
 BYTE   N11  Gn2  v048
 BYTE   W12
 BYTE   N23  Gs2
 BYTE   W24
 BYTE   N11  Gn2
 BYTE   W12
 BYTE   Gs2
 BYTE   W12
 BYTE   Gn2
 BYTE   W12
 BYTE   Gs2
 BYTE   W12
 BYTE   As2
 BYTE   W12
//  #04 //164   ----------------------------------------
 BYTE   N23  Cn4  v064
 BYTE   W96
//  #04 //165   ----------------------------------------
 BYTE   PATT
  POIN2 Label_013D1106
//  #04 //166   ----------------------------------------
 BYTE   PATT
  POIN2 Label_013D1106
//  #04 //167   ----------------------------------------
 BYTE   N44  Gs3  v064
 BYTE   W48
 BYTE   Gn3
 BYTE   W48
//  #04 //168   ----------------------------------------
 BYTE   N23  Cn3
 BYTE   W24
 BYTE   N23
 BYTE   W24
 BYTE   N23
 BYTE   W24
 BYTE   En3
 BYTE   W24
//  #04 //169   ----------------------------------------
 BYTE   Fn3
 BYTE   W24
 BYTE   En3
 BYTE   W24
 BYTE   Fn3
 BYTE   W24
 BYTE   N23
 BYTE   W24
//  #04 //170   ----------------------------------------
 BYTE   W48
 BYTE   N44  Fn2
 BYTE   W48
//  #04 //171   ----------------------------------------
 BYTE   N32  Gn2
 BYTE   W36
 BYTE   Gs2
 BYTE   W12
 BYTE   W24
 BYTE   N23  As2
 BYTE   W24
//  #04 //172   ----------------------------------------
Label_013D1187:
 BYTE   N92  Gs2  v064
 BYTE   W96
 BYTE   PEND 
//  #04 //173   ----------------------------------------
 BYTE   Gn2
 BYTE   W96
//  #04 //174   ----------------------------------------
 BYTE   W24
 BYTE   N23  Gs2
 BYTE   W24
 BYTE   Gn2
 BYTE   W24
 BYTE   Gs2
 BYTE   W24
//  #04 //175   ----------------------------------------
 BYTE   N44  As2
 BYTE   W48
 BYTE   N23
 BYTE   W24
 BYTE   Gn2
 BYTE   W24
//  #04 //176   ----------------------------------------
 BYTE   N44  As2
 BYTE   W48
 BYTE   Gs2
 BYTE   W48
//  #04 //177   ----------------------------------------
 BYTE   As2
 BYTE   W48
 BYTE   Cn3
 BYTE   W48
//  #04 //178   ----------------------------------------
 BYTE   As2
 BYTE   W48
 BYTE   Fn3
 BYTE   W48
//  #04 //179   ----------------------------------------
 BYTE   En3
 BYTE   W48
 BYTE   N44
 BYTE   W48
//  #04 //180   ----------------------------------------
 BYTE   N44
 BYTE   W48
 BYTE   Fn3
 BYTE   W48
//  #04 //181   ----------------------------------------
 BYTE   N92  Ds3
 BYTE   W96
//  #04 //182   ----------------------------------------
Label_013D11B5:
 BYTE   N92  Cs3  v064
 BYTE   W96
 BYTE   PEND 
//  #04 //183   ----------------------------------------
 BYTE   PATT
  POIN2 Label_013D11B5
//  #04 //184   ----------------------------------------
Label_013D11BF:
 BYTE   N92  Cn3  v064
 BYTE   W96
 BYTE   PEND 
//  #04 //185   ----------------------------------------
 BYTE   PATT
  POIN2 Label_013D11BF
//  #04 //186   ----------------------------------------
Label_013D11C9:
 BYTE   N92  As2  v064
 BYTE   W96
 BYTE   PEND 
//  #04 //187   ----------------------------------------
Label_013D11CE:
 BYTE   N44  As2  v064
 BYTE   W48
 BYTE   N44
 BYTE   W48
 BYTE   PEND 
//  #04 //188   ----------------------------------------
 BYTE   PATT
  POIN2 Label_013D1187
//  #04 //189   ----------------------------------------
 BYTE   N44  Gs2  v064
 BYTE   W48
 BYTE   N44
 BYTE   W48
//  #04 //190   ----------------------------------------
 BYTE   PATT
  POIN2 Label_013D11C9
//  #04 //191   ----------------------------------------
 BYTE   PATT
  POIN2 Label_013D11CE
//  #04 //192   ----------------------------------------
 BYTE   PATT
  POIN2 Label_013D11C9
//  #04 //193   ----------------------------------------
 BYTE   N44  As2  v064
 BYTE   W48
 BYTE   An2
 BYTE   W48
//  #04 //194   ----------------------------------------
 BYTE   PATT
  POIN2 Label_013D11C9
//  #04 //195   ----------------------------------------
 BYTE   PATT
  POIN2 Label_013D11CE
//  #04 //196   ----------------------------------------
 BYTE   PATT
  POIN2 Label_013D1187
//  #04 //197   ----------------------------------------
 BYTE   PATT
  POIN2 Label_013D11CE
//  #04 //198   ----------------------------------------
 BYTE   TIE  As2  v064
 BYTE   W96
//  #04 //199   ----------------------------------------
 BYTE   PATT
  POIN2 Label_013D1006
//  #04 //200   ----------------------------------------
 BYTE   EOT
 BYTE   As2
 BYTE   W01
//  #04 //201   ----------------------------------------
 BYTE   PATT
  POIN2 Label_013D11BF
//  #04 //202   ----------------------------------------
 BYTE   N92  Fn3  v064
 BYTE   W96
//  #04 //203   ----------------------------------------
 BYTE   PATT
  POIN2 Label_013D0FF7
//  #04 //204   ----------------------------------------
 BYTE   PATT
  POIN2 Label_013D1006
//  #04 //205   ----------------------------------------
 BYTE   EOT
 BYTE   Ds3
 BYTE   W01
//  #04 //206   ----------------------------------------
 BYTE   PATT
  POIN2 Label_013D100C
//  #04 //207   ----------------------------------------
 BYTE   PATT
  POIN2 Label_013D1006
//  #04 //208   ----------------------------------------
 BYTE   EOT
 BYTE   Fs3
 BYTE   W01
//  #04 //209   ----------------------------------------
 BYTE   PATT
  POIN2 Label_013D0FF7
//  #04 //210   ----------------------------------------
 BYTE   PATT
  POIN2 Label_013D1006
//  #04 //211   ----------------------------------------
 BYTE   EOT
 BYTE   Ds3
 BYTE   W01
//  #04 //212   ----------------------------------------
 BYTE   PATT
  POIN2 Label_013D1030
//  #04 //213   ----------------------------------------
 BYTE   PATT
  POIN2 Label_013D103F
//  #04 //214   ----------------------------------------
 BYTE   W96
//  #04 //215   ----------------------------------------
 BYTE   W96
//  #04 //216   ----------------------------------------
 BYTE   W24
 BYTE   TIE  As2  v048
 BYTE   W72
//  #04 //217   ----------------------------------------
 BYTE   PATT
  POIN2 Label_013D1006
//  #04 //218   ----------------------------------------
 BYTE   EOT
 BYTE   As2
 BYTE   FINE

//**************** Track 5 (Midi-Chn.4) ****************//

The_One_They_Call_Witch_Song_005:
//  #05 //000   ----------------------------------------
 BYTE   KEYSH   The_One_They_Call_Witch_Song_key+0
 BYTE   VOICE   67
 BYTE   MODT 0
 BYTE   LFOS 44
 BYTE   BENDR  12
 BYTE   VOL   44*The_One_They_Call_Witch_Song_mvl/mxv
 BYTE   PAN   c_v+0
 BYTE   BENDR  12
 BYTE   VOL   44*The_One_They_Call_Witch_Song_mvl/mxv
 BYTE   PAN   c_v+0
 BYTE   BENDR  12
 BYTE   VOL   44*The_One_They_Call_Witch_Song_mvl/mxv
 BYTE   PAN   c_v+0
 BYTE   N23  As1  v080
 BYTE   N11  Cn3  v064
 BYTE   W12
 BYTE   N11
 BYTE   W12
 BYTE   N23  As1  v080
 BYTE   N23  Cs3  v064
 BYTE   W48
 BYTE   As1  v080
 BYTE   N11  Ds3  v064
 BYTE   W12
 BYTE   N11
 BYTE   W12
//  #05 //001   ----------------------------------------
 BYTE   N23  As1  v080
 BYTE   N23  Cs3  v064
 BYTE   W96
//  #05 //002   ----------------------------------------
 BYTE   W96
//  #05 //003   ----------------------------------------
 BYTE   W12
 BYTE   N11  Fn1  v048
 BYTE   W12
 BYTE   As1  v052
 BYTE   W12
 BYTE   Fn1  v056
 BYTE   W12
 BYTE   As1  v060
 BYTE   W12
 BYTE   Fn1  v064
 BYTE   W12
 BYTE   As1
 BYTE   W12
 BYTE   Fn1  v072
 BYTE   W12
//  #05 //004   ----------------------------------------
 BYTE   N23  Fs1  v080
 BYTE   N11  Cn3  v064
 BYTE   W12
 BYTE   N11
 BYTE   W12
 BYTE   N23  Fs1  v080
 BYTE   N23  Cs3  v064
 BYTE   W48
 BYTE   Fs1  v080
 BYTE   N11  Ds3  v064
 BYTE   W12
 BYTE   N11
 BYTE   W12
//  #05 //005   ----------------------------------------
 BYTE   N23  Fs1  v080
 BYTE   N23  Cs3  v064
 BYTE   W96
//  #05 //006   ----------------------------------------
 BYTE   W96
//  #05 //007   ----------------------------------------
 BYTE   W48
 BYTE   N11  Ds3
 BYTE   W12
 BYTE   N11
 BYTE   W12
 BYTE   N23  Fn3
 BYTE   W24
//  #05 //008   ----------------------------------------
Label_013CDA01:
 BYTE   TIE  Cn2  v080
 BYTE   N44  Ds3  v064
 BYTE   W48
 BYTE   N44
 BYTE   W48
//  #05 //009   ----------------------------------------
 BYTE   As2
 BYTE   W48
 BYTE   N44
 BYTE   W44
 BYTE   W03
 BYTE   EOT
 BYTE   Cn2
 BYTE   W01
//  #05 //010   ----------------------------------------
 BYTE   TIE  Fn1  v080
 BYTE   N44  An2  v064
 BYTE   W48
 BYTE   Fn2
 BYTE   W48
//  #05 //011   ----------------------------------------
 BYTE   N23
 BYTE   W24
 BYTE   Gn2
 BYTE   W24
 BYTE   An2
 BYTE   W24
 BYTE   N23
 BYTE   W23
 BYTE   EOT
 BYTE   Fn1
 BYTE   W01
//  #05 //012   ----------------------------------------
Label_013CDA26:
 BYTE   N23  As1  v100
 BYTE   N23  Cs3  v064
 BYTE   W36
 BYTE   N19  As1  v060
 BYTE   W36
 BYTE   N23  As1  v084
 BYTE   W24
 BYTE   PEND 
//  #05 //013   ----------------------------------------
 BYTE   As1  v100
 BYTE   N23  Cn3  v064
 BYTE   W36
 BYTE   N19  As1  v060
 BYTE   W36
 BYTE   N23  As1  v084
 BYTE   W24
//  #05 //014   ----------------------------------------
 BYTE   As1  v100
 BYTE   N23  Bn2  v064
 BYTE   W36
 BYTE   N19  As1  v060
 BYTE   W36
 BYTE   N23  As1  v084
 BYTE   W24
//  #05 //015   ----------------------------------------
 BYTE   As1  v100
 BYTE   N44  As2  v064
 BYTE   W36
 BYTE   N19  As1  v060
 BYTE   W12
 BYTE   N44  An2  v064
 BYTE   W24
 BYTE   N23  As1  v084
 BYTE   W24
//  #05 //016   ----------------------------------------
 BYTE   PATT
  POIN2 Label_013CDA26
//  #05 //017   ----------------------------------------
 BYTE   N23  As1  v100
 BYTE   N23  Ds3  v064
 BYTE   W36
 BYTE   N19  As1  v060
 BYTE   W36
 BYTE   N17  As1  v084
 BYTE   W18
 BYTE   N02  As1  v036
 BYTE   W03
 BYTE   N02
 BYTE   W03
//  #05 //018   ----------------------------------------
 BYTE   N23  As1  v100
 BYTE   N23  Cn3  v064
 BYTE   W36
 BYTE   N19  As1  v084
 BYTE   N23  Cs3  v064
 BYTE   W12
 BYTE   W24
 BYTE   As1  v084
 BYTE   N23  Ds3  v064
 BYTE   W24
//  #05 //019   ----------------------------------------
 BYTE   W12
 BYTE   N32  As1  v084
 BYTE   N32  En3  v064
 BYTE   W36
 BYTE   N23  As1  v084
 BYTE   N23  Fs3  v064
 BYTE   W24
 BYTE   As1  v084
 BYTE   N23  Gn3  v064
 BYTE   W24
//  #05 //020   ----------------------------------------
 BYTE   As1  v100
 BYTE   N23  Cs3  v048
 BYTE   W36
 BYTE   N19  As1  v060
 BYTE   W36
 BYTE   N23  As1  v084
 BYTE   W24
//  #05 //021   ----------------------------------------
 BYTE   As1  v100
 BYTE   N23  Cn3  v048
 BYTE   W36
 BYTE   N19  As1  v060
 BYTE   W36
 BYTE   N23  As1  v084
 BYTE   W24
//  #05 //022   ----------------------------------------
 BYTE   As1  v100
 BYTE   N23  Bn2  v048
 BYTE   W36
 BYTE   N19  As1  v060
 BYTE   W36
 BYTE   N23  As1  v084
 BYTE   W24
//  #05 //023   ----------------------------------------
 BYTE   As1  v100
 BYTE   N44  As2  v048
 BYTE   W36
 BYTE   N19  As1  v060
 BYTE   W12
 BYTE   N44  An2  v048
 BYTE   W24
 BYTE   N23  As1  v084
 BYTE   W24
//  #05 //024   ----------------------------------------
 BYTE   Fs1  v100
 BYTE   N92  As2  v048
 BYTE   W36
 BYTE   N19  Fs1  v060
 BYTE   W36
 BYTE   N23  Fs1  v084
 BYTE   W24
//  #05 //025   ----------------------------------------
 BYTE   Ds1  v100
 BYTE   N92  As2  v048
 BYTE   W36
 BYTE   N19  Ds1  v060
 BYTE   W36
 BYTE   N23  Ds1  v084
 BYTE   W24
//  #05 //026   ----------------------------------------
 BYTE   Fn1  v100
 BYTE   N92  An2  v048
 BYTE   W36
 BYTE   N19  Fn1  v060
 BYTE   W36
 BYTE   N23  Fn1  v084
 BYTE   W24
//  #05 //027   ----------------------------------------
 BYTE   N23
 BYTE   N23  Fn2  v064
 BYTE   W24
 BYTE   Fn1  v060
 BYTE   N23  Fn2  v064
 BYTE   W24
 BYTE   N19  Fn1  v060
 BYTE   N19  Fn2  v064
 BYTE   W18
 BYTE   W01
 BYTE   N11  Fn1  v060
 BYTE   N04  Fn2  v064
 BYTE   W17
 BYTE   N11  Fn1  v060
 BYTE   N11  Fn2  v064
 BYTE   W12
//  #05 //028   ----------------------------------------
 BYTE   N23  As1  v100
 BYTE   N23  Fn2  v064
 BYTE   W24
 BYTE   Fs2
 BYTE   W24
 BYTE   Fn2
 BYTE   W24
 BYTE   Ds2
 BYTE   W24
//  #05 //029   ----------------------------------------
 BYTE   Cs2
 BYTE   W24
 BYTE   Cn2
 BYTE   W24
 BYTE   Cs2
 BYTE   W12
 BYTE   N11  Fn1  v084
 BYTE   W12
 BYTE   N23  Ds2  v064
 BYTE   W24
//  #05 //030   ----------------------------------------
 BYTE   As1  v084
 BYTE   N23  Fn2  v064
 BYTE   W24
 BYTE   Ds2
 BYTE   W12
 BYTE   N11  As1  v084
 BYTE   W12
 BYTE   N23  Fn2  v064
 BYTE   W24
 BYTE   As1  v084
 BYTE   N23  As2  v064
 BYTE   W24
//  #05 //031   ----------------------------------------
 BYTE   An2
 BYTE   W24
 BYTE   Cn3
 BYTE   W24
 BYTE   Cs3
 BYTE   W24
 BYTE   As2
 BYTE   W24
//  #05 //032   ----------------------------------------
 BYTE   N11  As1  v048
 BYTE   N23  As2  v064
 BYTE   W12
 BYTE   N11  As1  v032
 BYTE   W12
 BYTE   As1  v052
 BYTE   N23  An2  v064
 BYTE   W12
 BYTE   N11  As1  v032
 BYTE   W12
 BYTE   As1  v056
 BYTE   N23  As2  v064
 BYTE   W12
 BYTE   N11  As1  v036
 BYTE   W12
 BYTE   As1  v060
 BYTE   N23  Cn3  v064
 BYTE   W12
 BYTE   N11  As1  v036
 BYTE   W12
//  #05 //033   ----------------------------------------
 BYTE   As1  v064
 BYTE   N23  Cs3
 BYTE   W12
 BYTE   N11  As1  v040
 BYTE   W12
 BYTE   As1  v068
 BYTE   N23  An2  v064
 BYTE   W12
 BYTE   N11  As1  v044
 BYTE   W12
 BYTE   As1  v072
 BYTE   N23  As2  v064
 BYTE   W12
 BYTE   N11  As1  v048
 BYTE   W12
 BYTE   As1  v076
 BYTE   N23  Cn3  v064
 BYTE   W12
 BYTE   N11  As1  v048
 BYTE   W12
//  #05 //034   ----------------------------------------
 BYTE   As1  v084
 BYTE   N23  Cs3  v064
 BYTE   W12
 BYTE   N11  As1  v052
 BYTE   W12
 BYTE   As1  v088
 BYTE   N23  Cn3  v064
 BYTE   W12
 BYTE   N11  As1  v056
 BYTE   W12
 BYTE   As1  v092
 BYTE   N23  Cs3  v064
 BYTE   W12
 BYTE   N11  As1  v056
 BYTE   W12
 BYTE   As1  v100
 BYTE   N23  Ds3  v064
 BYTE   W12
 BYTE   N11  As1  v060
 BYTE   W12
//  #05 //035   ----------------------------------------
 BYTE   As1  v104
 BYTE   N23  Fn3  v064
 BYTE   W12
 BYTE   N11  As1
 BYTE   W12
 BYTE   As1  v108
 BYTE   N23  Ds3  v064
 BYTE   W12
 BYTE   N11  As1  v068
 BYTE   W12
 BYTE   As1  v112
 BYTE   N23  Fn3  v064
 BYTE   W12
 BYTE   N11  As1  v072
 BYTE   W12
 BYTE   As1  v120
 BYTE   N23  An3  v064
 BYTE   W12
 BYTE   N11  As1  v072
 BYTE   W12
//  #05 //036   ----------------------------------------
 BYTE   N23  As1  v124
 BYTE   W36
 BYTE   N19  As1  v060
 BYTE   W36
 BYTE   N23  As1  v084
 BYTE   W24
//  #05 //037   ----------------------------------------
Label_013CDC13:
 BYTE   N11  As1  v100
 BYTE   W12
 BYTE   Fn1  v044
 BYTE   W24
 BYTE   N11
 BYTE   W12
 BYTE   As1  v060
 BYTE   W12
 BYTE   Fn1  v044
 BYTE   W12
 BYTE   As1  v084
 BYTE   W12
 BYTE   Fn1  v060
 BYTE   W12
 BYTE   PEND 
//  #05 //038   ----------------------------------------
Label_013CDC29:
 BYTE   N23  As1  v100
 BYTE   W36
 BYTE   N19  As1  v060
 BYTE   W36
 BYTE   N23  As1  v084
 BYTE   W24
 BYTE   PEND 
//  #05 //039   ----------------------------------------
 BYTE   PATT
  POIN2 Label_013CDC13
//  #05 //040   ----------------------------------------
Label_013CDC3B:
 BYTE   N23  Gs1  v100
 BYTE   W36
 BYTE   N19  Gs1  v060
 BYTE   W36
 BYTE   N23  Gs1  v084
 BYTE   W24
 BYTE   PEND 
//  #05 //041   ----------------------------------------
Label_013CDC48:
 BYTE   N11  Gs1  v100
 BYTE   W12
 BYTE   Ds1  v044
 BYTE   W24
 BYTE   N11
 BYTE   W12
 BYTE   Gs1  v060
 BYTE   W12
 BYTE   Ds1  v044
 BYTE   W12
 BYTE   Gs1  v084
 BYTE   W12
 BYTE   Ds1  v060
 BYTE   W12
 BYTE   PEND 
//  #05 //042   ----------------------------------------
Label_013CDC5E:
 BYTE   N23  Fs1  v100
 BYTE   W36
 BYTE   N19  Fs1  v060
 BYTE   W36
 BYTE   N23  Fs1  v084
 BYTE   W24
 BYTE   PEND 
//  #05 //043   ----------------------------------------
Label_013CDC6B:
 BYTE   N11  Fs1  v100
 BYTE   W12
 BYTE   Cs1  v044
 BYTE   W24
 BYTE   N11
 BYTE   W12
 BYTE   Fs1  v060
 BYTE   W12
 BYTE   Cs1  v044
 BYTE   W12
 BYTE   Fs1  v084
 BYTE   W12
 BYTE   Cs1  v060
 BYTE   W12
 BYTE   PEND 
//  #05 //044   ----------------------------------------
 BYTE   N23  Cn1  v100
 BYTE   W36
 BYTE   N19  Cn1  v060
 BYTE   W36
 BYTE   N23  Cn1  v084
 BYTE   W24
//  #05 //045   ----------------------------------------
 BYTE   N11  Fn1  v100
 BYTE   W12
 BYTE   Cn2  v044
 BYTE   W24
 BYTE   N11
 BYTE   W12
 BYTE   Fn1  v060
 BYTE   W12
 BYTE   Cn2  v044
 BYTE   W12
 BYTE   Fn1  v084
 BYTE   W12
 BYTE   Cn2  v060
 BYTE   W12
//  #05 //046   ----------------------------------------
 BYTE   PATT
  POIN2 Label_013CDC29
//  #05 //047   ----------------------------------------
 BYTE   PATT
  POIN2 Label_013CDC48
//  #05 //048   ----------------------------------------
 BYTE   N23  Gn1  v100
 BYTE   W36
 BYTE   N19  Gn1  v060
 BYTE   W36
 BYTE   N23  Gn1  v084
 BYTE   W24
//  #05 //049   ----------------------------------------
 BYTE   N11  Cn2  v100
 BYTE   W12
 BYTE   Gn1  v044
 BYTE   W24
 BYTE   N11
 BYTE   W12
 BYTE   Cn2  v060
 BYTE   W12
 BYTE   Gn1  v044
 BYTE   W12
 BYTE   Cn2  v084
 BYTE   W12
 BYTE   Gn1  v060
 BYTE   W12
//  #05 //050   ----------------------------------------
Label_013CDCCD:
 BYTE   N23  Fn1  v100
 BYTE   W36
 BYTE   N19  Fn1  v060
 BYTE   W36
 BYTE   N23  Fn1  v084
 BYTE   W24
 BYTE   PEND 
//  #05 //051   ----------------------------------------
 BYTE   Fn1  v100
 BYTE   W36
 BYTE   N19  Gn1
 BYTE   W36
 BYTE   N23  An1
 BYTE   W24
//  #05 //052   ----------------------------------------
 BYTE   PATT
  POIN2 Label_013CDC29
//  #05 //053   ----------------------------------------
 BYTE   PATT
  POIN2 Label_013CDC13
//  #05 //054   ----------------------------------------
 BYTE   PATT
  POIN2 Label_013CDC29
//  #05 //055   ----------------------------------------
 BYTE   PATT
  POIN2 Label_013CDC13
//  #05 //056   ----------------------------------------
 BYTE   PATT
  POIN2 Label_013CDC3B
//  #05 //057   ----------------------------------------
 BYTE   PATT
  POIN2 Label_013CDC48
//  #05 //058   ----------------------------------------
 BYTE   PATT
  POIN2 Label_013CDC5E
//  #05 //059   ----------------------------------------
 BYTE   PATT
  POIN2 Label_013CDC6B
//  #05 //060   ----------------------------------------
 BYTE   PATT
  POIN2 Label_013CDCCD
//  #05 //061   ----------------------------------------
 BYTE   PATT
  POIN2 Label_013CDC13
//  #05 //062   ----------------------------------------
 BYTE   N23  Ds1  v100
 BYTE   W48
 BYTE   Fn1  v084
 BYTE   W48
//  #05 //063   ----------------------------------------
 BYTE   Fs1
 BYTE   W48
 BYTE   Gn1
 BYTE   W48
//  #05 //064   ----------------------------------------
 BYTE   PATT
  POIN2 Label_013CDC3B
//  #05 //065   ----------------------------------------
 BYTE   PATT
  POIN2 Label_013CDC29
//  #05 //066   ----------------------------------------
Label_013CDD2A:
 BYTE   N23  Ds1  v100
 BYTE   W36
 BYTE   N19  Ds1  v060
 BYTE   W36
 BYTE   N23  Ds1  v084
 BYTE   W24
 BYTE   PEND 
//  #05 //067   ----------------------------------------
 BYTE   N11  Dn3  v048
 BYTE   W12
 BYTE   N11
 BYTE   W24
 BYTE   N11
 BYTE   W24
 BYTE   N32
 BYTE   W36
//  #05 //068   ----------------------------------------
Label_013CDD41:
 BYTE   N23  Ds1  v100
 BYTE   N92  Ds3  v048
 BYTE   W36
 BYTE   N19  Ds1  v060
 BYTE   W36
 BYTE   N23  Ds1  v084
 BYTE   W24
 BYTE   PEND 
//  #05 //069   ----------------------------------------
Label_013CDD51:
 BYTE   N23  Bn1  v100
 BYTE   N44  Ds3  v048
 BYTE   W36
 BYTE   N19  Bn1  v060
 BYTE   W12
 BYTE   N44  Ds3  v048
 BYTE   W24
 BYTE   N23  Bn1  v084
 BYTE   W24
 BYTE   PEND 
//  #05 //070   ----------------------------------------
Label_013CDD65:
 BYTE   N23  Fs1  v100
 BYTE   N92  Fs3  v048
 BYTE   W36
 BYTE   N19  Fs1  v060
 BYTE   W36
 BYTE   N23  Fs1  v084
 BYTE   W24
 BYTE   PEND 
//  #05 //071   ----------------------------------------
 BYTE   Fn1  v100
 BYTE   N44  Fn3  v048
 BYTE   W36
 BYTE   N19  Fn1  v060
 BYTE   W12
 BYTE   N44  Cs3  v048
 BYTE   W24
 BYTE   N23  Fn1  v084
 BYTE   W24
//  #05 //072   ----------------------------------------
 BYTE   PATT
  POIN2 Label_013CDD41
//  #05 //073   ----------------------------------------
 BYTE   PATT
  POIN2 Label_013CDD51
//  #05 //074   ----------------------------------------
 BYTE   N23  Gs1  v100
 BYTE   N92  Bn2  v048
 BYTE   W36
 BYTE   N19  Gs1  v060
 BYTE   W36
 BYTE   N23  Gs1  v084
 BYTE   W24
//  #05 //075   ----------------------------------------
 BYTE   As1  v100
 BYTE   N44  Fs3  v048
 BYTE   W36
 BYTE   N19  As1  v060
 BYTE   W12
 BYTE   N44  Fn3  v048
 BYTE   W24
 BYTE   N23  As1  v084
 BYTE   W24
//  #05 //076   ----------------------------------------
 BYTE   PATT
  POIN2 Label_013CDD41
//  #05 //077   ----------------------------------------
 BYTE   PATT
  POIN2 Label_013CDD51
//  #05 //078   ----------------------------------------
 BYTE   PATT
  POIN2 Label_013CDD65
//  #05 //079   ----------------------------------------
 BYTE   N23  Gs1  v100
 BYTE   N44  Cn3  v048
 BYTE   W36
 BYTE   N19  Gs1  v060
 BYTE   W12
 BYTE   N44  Cn3  v048
 BYTE   W24
 BYTE   N23  Gs1  v084
 BYTE   W24
//  #05 //080   ----------------------------------------
 BYTE   Bn1  v100
 BYTE   N92  Ds3  v048
 BYTE   W36
 BYTE   N19  Bn1  v060
 BYTE   W36
 BYTE   N23  Bn1  v084
 BYTE   W24
//  #05 //081   ----------------------------------------
 BYTE   Cs2  v100
 BYTE   N92  Fn3  v048
 BYTE   W48
 BYTE   N23  Cs2  v100
 BYTE   W48
//  #05 //082   ----------------------------------------
 BYTE   Ds2
 BYTE   TIE  Fs3  v036
 BYTE   W36
 BYTE   N19  Ds2  v060
 BYTE   W36
 BYTE   N23  Ds2  v084
 BYTE   W24
//  #05 //083   ----------------------------------------
 BYTE   W12
 BYTE   N32  Ds2  v060
 BYTE   W36
 BYTE   N23  Ds2  v084
 BYTE   W24
 BYTE   N23
 BYTE   W23
 BYTE   EOT
 BYTE   Fs3
 BYTE   W01
//  #05 //084   ----------------------------------------
 BYTE   N23  Ds2  v100
 BYTE   W36
 BYTE   N19  Ds2  v060
 BYTE   W36
 BYTE   N23  Ds2  v084
 BYTE   W24
//  #05 //085   ----------------------------------------
 BYTE   W12
 BYTE   N32  Ds2  v060
 BYTE   W36
 BYTE   N23  Ds2  v084
 BYTE   W24
 BYTE   N23
 BYTE   W24
//  #05 //086   ----------------------------------------
 BYTE   PATT
  POIN2 Label_013CDC29
//  #05 //087   ----------------------------------------
 BYTE   W12
 BYTE   N32  As1  v060
 BYTE   W36
 BYTE   N23  As1  v084
 BYTE   W24
 BYTE   N23
 BYTE   W24
//  #05 //088   ----------------------------------------
 BYTE   PATT
  POIN2 Label_013CDC29
//  #05 //089   ----------------------------------------
 BYTE   N32  Fn1  v100
 BYTE   W48
 BYTE   N32
 BYTE   W36
 BYTE   N05  As1  v060
 BYTE   W06
 BYTE   N05
 BYTE   W06
//  #05 //090   ----------------------------------------
 BYTE   GoTo
  POIN2 Label_013CDA01
//  #05 //091   ----------------------------------------
 BYTE   PATT
  POIN2 Label_013CDC29
//  #05 //092   ----------------------------------------
 BYTE   PATT
  POIN2 Label_013CDC29
//  #05 //093   ----------------------------------------
 BYTE   PATT
  POIN2 Label_013CDC29
//  #05 //094   ----------------------------------------
Label_013CDE53:
 BYTE   N23  As1  v100
 BYTE   W36
 BYTE   N19  As1  v060
 BYTE   W36
 BYTE   N17  As1  v084
 BYTE   W18
 BYTE   N02  As1  v060
 BYTE   W03
 BYTE   N02
 BYTE   W03
 BYTE   PEND 
//  #05 //095   ----------------------------------------
 BYTE   PATT
  POIN2 Label_013CDC29
//  #05 //096   ----------------------------------------
 BYTE   PATT
  POIN2 Label_013CDC29
//  #05 //097   ----------------------------------------
 BYTE   PATT
  POIN2 Label_013CDC29
//  #05 //098   ----------------------------------------
 BYTE   PATT
  POIN2 Label_013CDE53
//  #05 //099   ----------------------------------------
 BYTE   PATT
  POIN2 Label_013CDC29
//  #05 //100   ----------------------------------------
 BYTE   PATT
  POIN2 Label_013CDC29
//  #05 //101   ----------------------------------------
 BYTE   PATT
  POIN2 Label_013CDC29
//  #05 //102   ----------------------------------------
 BYTE   N23  As1  v100
 BYTE   W36
 BYTE   N19  As1  v060
 BYTE   W36
 BYTE   N17  As1  v084
 BYTE   W18
 BYTE   N02  Fs1  v060
 BYTE   W03
 BYTE   N02
 BYTE   W03
//  #05 //103   ----------------------------------------
 BYTE   PATT
  POIN2 Label_013CDC5E
//  #05 //104   ----------------------------------------
 BYTE   PATT
  POIN2 Label_013CDCCD
//  #05 //105   ----------------------------------------
 BYTE   PATT
  POIN2 Label_013CDD2A
//  #05 //106   ----------------------------------------
 BYTE   N11  Fn1  v100
 BYTE   W36
 BYTE   N15  Fn1  v060
 BYTE   W36
 BYTE   N11  Fn1  v084
 BYTE   W12
 BYTE   N05  Cn2  v080
 BYTE   W06
 BYTE   N05
 BYTE   W06
//  #05 //107   ----------------------------------------
 BYTE   TIE  Cn2  v056
 BYTE   W96
//  #05 //108   ----------------------------------------
 BYTE   W92
 BYTE   W03
 BYTE   EOT
 BYTE   W01
//  #05 //109   ----------------------------------------
 BYTE   TIE  Fn1
 BYTE   W96
//  #05 //110   ----------------------------------------
 BYTE   W92
 BYTE   W03
 BYTE   EOT
 BYTE   W01
//  #05 //111   ----------------------------------------
 BYTE   W96
//  #05 //112   ----------------------------------------
 BYTE   W96
//  #05 //113   ----------------------------------------
 BYTE   W96
//  #05 //114   ----------------------------------------
 BYTE   W96
//  #05 //115   ----------------------------------------
 BYTE   W96
//  #05 //116   ----------------------------------------
 BYTE   W96
//  #05 //117   ----------------------------------------
 BYTE   W96
//  #05 //118   ----------------------------------------
 BYTE   W96
//  #05 //119   ----------------------------------------
 BYTE   W96
//  #05 //120   ----------------------------------------
 BYTE   W96
//  #05 //121   ----------------------------------------
 BYTE   W96
//  #05 //122   ----------------------------------------
 BYTE   W96
//  #05 //123   ----------------------------------------
 BYTE   W96
//  #05 //124   ----------------------------------------
 BYTE   W96
//  #05 //125   ----------------------------------------
 BYTE   W96
//  #05 //126   ----------------------------------------
 BYTE   W96
//  #05 //127   ----------------------------------------
 BYTE   W96
//  #05 //128   ----------------------------------------
 BYTE   W96
//  #05 //129   ----------------------------------------
 BYTE   W96
//  #05 //130   ----------------------------------------
 BYTE   W96
//  #05 //131   ----------------------------------------
 BYTE   W96
//  #05 //132   ----------------------------------------
 BYTE   W96
//  #05 //133   ----------------------------------------
 BYTE   W96
//  #05 //134   ----------------------------------------
 BYTE   W96
//  #05 //135   ----------------------------------------
 BYTE   W96
//  #05 //136   ----------------------------------------
 BYTE   N32  Fn1  v024
 BYTE   W36
 BYTE   Gn1
 BYTE   W36
 BYTE   N23  An1
 BYTE   W24
//  #05 //137   ----------------------------------------
 BYTE   W96
//  #05 //138   ----------------------------------------
 BYTE   W96
//  #05 //139   ----------------------------------------
 BYTE   W96
//  #05 //140   ----------------------------------------
 BYTE   W96
//  #05 //141   ----------------------------------------
 BYTE   W96
//  #05 //142   ----------------------------------------
 BYTE   W96
//  #05 //143   ----------------------------------------
 BYTE   W96
//  #05 //144   ----------------------------------------
 BYTE   W96
//  #05 //145   ----------------------------------------
 BYTE   W96
//  #05 //146   ----------------------------------------
 BYTE   W96
//  #05 //147   ----------------------------------------
 BYTE   W96
//  #05 //148   ----------------------------------------
 BYTE   W96
//  #05 //149   ----------------------------------------
 BYTE   W96
//  #05 //150   ----------------------------------------
 BYTE   W96
//  #05 //151   ----------------------------------------
 BYTE   W96
//  #05 //152   ----------------------------------------
 BYTE   W96
//  #05 //153   ----------------------------------------
 BYTE   W96
//  #05 //154   ----------------------------------------
 BYTE   W96
//  #05 //155   ----------------------------------------
 BYTE   W96
//  #05 //156   ----------------------------------------
 BYTE   W96
//  #05 //157   ----------------------------------------
 BYTE   W96
//  #05 //158   ----------------------------------------
 BYTE   W96
//  #05 //159   ----------------------------------------
 BYTE   W96
//  #05 //160   ----------------------------------------
 BYTE   W96
//  #05 //161   ----------------------------------------
 BYTE   W96
//  #05 //162   ----------------------------------------
 BYTE   W96
//  #05 //163   ----------------------------------------
 BYTE   W96
//  #05 //164   ----------------------------------------
 BYTE   W96
//  #05 //165   ----------------------------------------
 BYTE   W96
//  #05 //166   ----------------------------------------
 BYTE   W96
//  #05 //167   ----------------------------------------
 BYTE   W96
//  #05 //168   ----------------------------------------
 BYTE   W96
//  #05 //169   ----------------------------------------
 BYTE   W96
//  #05 //170   ----------------------------------------
 BYTE   W96
//  #05 //171   ----------------------------------------
 BYTE   W96
//  #05 //172   ----------------------------------------
 BYTE   W96
//  #05 //173   ----------------------------------------
 BYTE   W96
//  #05 //174   ----------------------------------------
 BYTE   W96
//  #05 //175   ----------------------------------------
 BYTE   W96
//  #05 //176   ----------------------------------------
 BYTE   W96
//  #05 //177   ----------------------------------------
 BYTE   W96
//  #05 //178   ----------------------------------------
 BYTE   W96
//  #05 //179   ----------------------------------------
 BYTE   W96
//  #05 //180   ----------------------------------------
 BYTE   W96
//  #05 //181   ----------------------------------------
 BYTE   W96
//  #05 //182   ----------------------------------------
 BYTE   W96
//  #05 //183   ----------------------------------------
 BYTE   W96
//  #05 //184   ----------------------------------------
 BYTE   W96
//  #05 //185   ----------------------------------------
 BYTE   W96
//  #05 //186   ----------------------------------------
 BYTE   W96
//  #05 //187   ----------------------------------------
 BYTE   W96
//  #05 //188   ----------------------------------------
 BYTE   W96
//  #05 //189   ----------------------------------------
 BYTE   W96
//  #05 //190   ----------------------------------------
 BYTE   W96
//  #05 //191   ----------------------------------------
 BYTE   W96
//  #05 //192   ----------------------------------------
 BYTE   W96
//  #05 //193   ----------------------------------------
 BYTE   W96
//  #05 //194   ----------------------------------------
 BYTE   W96
//  #05 //195   ----------------------------------------
 BYTE   W96
//  #05 //196   ----------------------------------------
 BYTE   W96
//  #05 //197   ----------------------------------------
 BYTE   W96
//  #05 //198   ----------------------------------------
 BYTE   W96
//  #05 //199   ----------------------------------------
 BYTE   W96
//  #05 //200   ----------------------------------------
 BYTE   W96
//  #05 //201   ----------------------------------------
 BYTE   W96
//  #05 //202   ----------------------------------------
 BYTE   W92
 BYTE   W03
 BYTE   FINE

//**************** Track 6 (Midi-Chn.5) ****************//

The_One_They_Call_Witch_Song_006:
//  #06 //000   ----------------------------------------
 BYTE   KEYSH   The_One_They_Call_Witch_Song_key+0
 BYTE   VOICE   30
 BYTE   MODT 0
 BYTE   LFOS 44
 BYTE   BENDR  12
 BYTE   VOL   44*The_One_They_Call_Witch_Song_mvl/mxv
 BYTE   PAN   c_v+0
 BYTE   BENDR  12
 BYTE   VOL   44*The_One_They_Call_Witch_Song_mvl/mxv
 BYTE   PAN   c_v+0
 BYTE   N11  Ds3  v064
 BYTE   N11  Gs3
 BYTE   N11  Cn4
 BYTE   W12
 BYTE   Ds3
 BYTE   N11  Gs3
 BYTE   N11  Cn4
 BYTE   W12
 BYTE   N23  Fn3
 BYTE   N23  As3
 BYTE   N23  Cs4
 BYTE   W48
 BYTE   N11  Gs3
 BYTE   N11  Cn4
 BYTE   N11  Ds4
 BYTE   W12
 BYTE   Gs3
 BYTE   N11  Cn4
 BYTE   N11  Ds4
 BYTE   W12
//  #06 //001   ----------------------------------------
Label_013D6C92:
 BYTE   N23  Fn3  v064
 BYTE   N23  As3
 BYTE   N23  Cs4
 BYTE   W48
 BYTE   N11  Ds3
 BYTE   N11  Gs3
 BYTE   N11  Cn4
 BYTE   W12
 BYTE   Ds3
 BYTE   N11  Gs3
 BYTE   N11  Cn4
 BYTE   W12
 BYTE   N23  Fn3
 BYTE   N23  As3
 BYTE   N23  Cs4
 BYTE   W24
 BYTE   PEND 
//  #06 //002   ----------------------------------------
Label_013D6CAF:
 BYTE   N11  Ds3  v064
 BYTE   N11  Gs3
 BYTE   N11  Cn4
 BYTE   W12
 BYTE   Ds3
 BYTE   N11  Gs3
 BYTE   N11  Cn4
 BYTE   W12
 BYTE   N23  Fn3
 BYTE   N23  As3
 BYTE   N23  Cs4
 BYTE   W48
 BYTE   N11  Gs3
 BYTE   N11  Cn4
 BYTE   N11  Ds4
 BYTE   W12
 BYTE   Gs3
 BYTE   N11  Cn4
 BYTE   N11  Ds4
 BYTE   W12
 BYTE   PEND 
//  #06 //003   ----------------------------------------
Label_013D6CD2:
 BYTE   N23  Fn3  v064
 BYTE   N23  As3
 BYTE   N23  Cs4
 BYTE   W48
 BYTE   N11  Gs3
 BYTE   N11  Cn4
 BYTE   N11  Ds4
 BYTE   W12
 BYTE   Gs3
 BYTE   N11  Cn4
 BYTE   N11  Ds4
 BYTE   W12
 BYTE   N23  As3
 BYTE   N23  Cs4
 BYTE   N23  Fn4
 BYTE   W24
 BYTE   PEND 
//  #06 //004   ----------------------------------------
 BYTE   PATT
  POIN2 Label_013D6CAF
//  #06 //005   ----------------------------------------
 BYTE   PATT
  POIN2 Label_013D6C92
//  #06 //006   ----------------------------------------
 BYTE   PATT
  POIN2 Label_013D6CAF
//  #06 //007   ----------------------------------------
 BYTE   PATT
  POIN2 Label_013D6CD2
//  #06 //008   ----------------------------------------
Label_013D6D03:
 BYTE   W96
//  #06 //009   ----------------------------------------
 BYTE   W96
//  #06 //010   ----------------------------------------
 BYTE   W96
//  #06 //011   ----------------------------------------
 BYTE   W96
//  #06 //012   ----------------------------------------
Label_013D6D07:
 BYTE   N23  Fn3  v040
 BYTE   N23  As3
 BYTE   N23  Cs4  v064
 BYTE   W36
 BYTE   N11  Ds3
 BYTE   W12
 BYTE   N19  Fn3
 BYTE   W18
 BYTE   W01
 BYTE   N16  Fs3
 BYTE   W05
 BYTE   W12
 BYTE   N11  Cs4
 BYTE   W12
 BYTE   PEND 
//  #06 //013   ----------------------------------------
Label_013D6D1F:
 BYTE   N23  Ds3  v040
 BYTE   N23  Fs3
 BYTE   N23  Cn4  v064
 BYTE   W36
 BYTE   N11  Ds3
 BYTE   W12
 BYTE   N19  Fn3
 BYTE   W18
 BYTE   W01
 BYTE   N16  Fs3
 BYTE   W05
 BYTE   W12
 BYTE   N11  Cn4
 BYTE   W12
 BYTE   PEND 
//  #06 //014   ----------------------------------------
Label_013D6D37:
 BYTE   N23  Ds3  v040
 BYTE   N23  Fs3
 BYTE   N23  Bn3  v064
 BYTE   W36
 BYTE   N11  Ds3
 BYTE   W12
 BYTE   N19  Fn3
 BYTE   W18
 BYTE   W01
 BYTE   N16  Fs3
 BYTE   W05
 BYTE   W12
 BYTE   N11  Bn3
 BYTE   W12
 BYTE   PEND 
//  #06 //015   ----------------------------------------
Label_013D6D4F:
 BYTE   N44  Cs3  v040
 BYTE   N44  Fn3
 BYTE   N32  As3  v064
 BYTE   W36
 BYTE   N07  Cn4
 BYTE   W06
 BYTE   W01
 BYTE   N04  As3
 BYTE   W05
 BYTE   N44  Cn3  v040
 BYTE   N44  Fn3
 BYTE   N44  An3  v064
 BYTE   W48
 BYTE   PEND 
//  #06 //016   ----------------------------------------
 BYTE   PATT
  POIN2 Label_013D6D07
//  #06 //017   ----------------------------------------
 BYTE   N23  Fs3  v040
 BYTE   N23  Bn3
 BYTE   N23  Ds4  v064
 BYTE   W36
 BYTE   N11
 BYTE   W12
 BYTE   N19
 BYTE   W18
 BYTE   W01
 BYTE   N16  Cs4
 BYTE   W05
 BYTE   W12
 BYTE   N11  Bn3
 BYTE   W12
//  #06 //018   ----------------------------------------
 BYTE   N23  Cn3  v040
 BYTE   N23  Fn3
 BYTE   N23  An3  v064
 BYTE   W36
 BYTE   Cs3  v040
 BYTE   N23  Fs3
 BYTE   N23  As3  v064
 BYTE   W12
 BYTE   W24
 BYTE   Ds3  v040
 BYTE   N23  Gs3
 BYTE   N23  Cn4  v064
 BYTE   W24
//  #06 //019   ----------------------------------------
 BYTE   W12
 BYTE   N32  En3  v040
 BYTE   N32  An3
 BYTE   N32  Cs4  v064
 BYTE   W36
 BYTE   N23  Fs3  v040
 BYTE   N23  Bn3
 BYTE   N23  Ds4  v064
 BYTE   W24
 BYTE   Gn3  v040
 BYTE   N23  Cn4
 BYTE   N23  En4  v064
 BYTE   W24
//  #06 //020   ----------------------------------------
 BYTE   PATT
  POIN2 Label_013D6D07
//  #06 //021   ----------------------------------------
 BYTE   PATT
  POIN2 Label_013D6D1F
//  #06 //022   ----------------------------------------
 BYTE   PATT
  POIN2 Label_013D6D37
//  #06 //023   ----------------------------------------
 BYTE   PATT
  POIN2 Label_013D6D4F
//  #06 //024   ----------------------------------------
 BYTE   N92  Cs3  v040
 BYTE   N92  Fs3
 BYTE   N92  As3
 BYTE   W96
//  #06 //025   ----------------------------------------
 BYTE   As2
 BYTE   N92  Ds3
 BYTE   N92  As3
 BYTE   W96
//  #06 //026   ----------------------------------------
 BYTE   Cn3
 BYTE   N92  Ds3
 BYTE   N92  An3
 BYTE   W96
//  #06 //027   ----------------------------------------
 BYTE   N23  An2  v048
 BYTE   N23  Cs3
 BYTE   N23  Fn3
 BYTE   N23  Gs3
 BYTE   W24
 BYTE   An2
 BYTE   N23  Cs3
 BYTE   N23  Fn3
 BYTE   N23  Gs3
 BYTE   W24
 BYTE   N19  An2
 BYTE   N19  Cs3
 BYTE   N19  Fn3
 BYTE   N19  Gs3
 BYTE   W18
 BYTE   W01
 BYTE   N04  An2
 BYTE   N04  Cs3
 BYTE   N04  Fn3
 BYTE   N04  Gs3
 BYTE   W17
 BYTE   N11  An2
 BYTE   N11  Cs3
 BYTE   N11  Fn3
 BYTE   N11  Gs3
 BYTE   W12
//  #06 //028   ----------------------------------------
 BYTE   N23  As3  v064
 BYTE   N23  Cs4
 BYTE   N23  Fn4
 BYTE   W24
 BYTE   Cn4
 BYTE   N23  Ds4
 BYTE   N23  Fs4
 BYTE   W24
 BYTE   As3
 BYTE   N23  Cs4
 BYTE   N23  Fn4
 BYTE   W24
 BYTE   An3
 BYTE   N23  Cn4
 BYTE   N23  Ds4
 BYTE   W24
//  #06 //029   ----------------------------------------
 BYTE   Fn3
 BYTE   N23  As3
 BYTE   N23  Cs4
 BYTE   W24
 BYTE   Fn3
 BYTE   N23  An3
 BYTE   N23  Cn4
 BYTE   W24
 BYTE   Fn3
 BYTE   N23  As3
 BYTE   N23  Cs4
 BYTE   W24
 BYTE   An3
 BYTE   N23  Cn4
 BYTE   N23  Ds4
 BYTE   W24
//  #06 //030   ----------------------------------------
 BYTE   As3
 BYTE   N23  Cs4
 BYTE   N23  Fn4
 BYTE   W24
 BYTE   An3
 BYTE   N23  Cn4
 BYTE   N23  Ds4
 BYTE   W24
 BYTE   As3
 BYTE   N23  Cs4
 BYTE   N23  Fn4
 BYTE   W24
 BYTE   Cs4
 BYTE   N23  Fn4
 BYTE   N23  As4
 BYTE   W24
//  #06 //031   ----------------------------------------
 BYTE   Cn4
 BYTE   N23  Fn4
 BYTE   N23  An4
 BYTE   W24
 BYTE   Fn4
 BYTE   N23  An4
 BYTE   N23  Cn5
 BYTE   W24
 BYTE   Fn4
 BYTE   N23  As4
 BYTE   N23  Cs5
 BYTE   W24
 BYTE   Cs4
 BYTE   N23  Fn4
 BYTE   N23  As4
 BYTE   W24
//  #06 //032   ----------------------------------------
 BYTE   Cs4
 BYTE   N23  Fn4
 BYTE   N23  As4
 BYTE   W24
 BYTE   Cn4
 BYTE   N23  Fn4
 BYTE   N23  An4
 BYTE   W24
 BYTE   Cs4
 BYTE   N23  Fn4
 BYTE   N23  As4
 BYTE   W24
 BYTE   Fn4
 BYTE   N23  An4
 BYTE   N23  Cn5
 BYTE   W24
//  #06 //033   ----------------------------------------
 BYTE   Fn4
 BYTE   N23  As4
 BYTE   N23  Cs5
 BYTE   W24
 BYTE   Cn4
 BYTE   N23  Fn4
 BYTE   N23  An4
 BYTE   W24
 BYTE   Cs4
 BYTE   N23  Fn4
 BYTE   N23  As4
 BYTE   W24
 BYTE   Fn4
 BYTE   N23  An4
 BYTE   N23  Cn5
 BYTE   W24
//  #06 //034   ----------------------------------------
 BYTE   Fn4
 BYTE   N23  As4
 BYTE   N23  Cs5
 BYTE   W24
 BYTE   Fn4
 BYTE   N23  An4
 BYTE   N23  Cn5
 BYTE   W24
 BYTE   Fn4
 BYTE   N23  As4
 BYTE   N23  Cs5
 BYTE   W24
 BYTE   An4
 BYTE   N23  Cn5
 BYTE   N23  Ds5
 BYTE   W24
//  #06 //035   ----------------------------------------
 BYTE   As4
 BYTE   N23  Cs5
 BYTE   N23  Fn5
 BYTE   W24
 BYTE   An4
 BYTE   N23  Cn5
 BYTE   N23  Ds5
 BYTE   W24
 BYTE   As4
 BYTE   N23  Cs5
 BYTE   N23  Fn5
 BYTE   W24
 BYTE   Cn5
 BYTE   N23  Fn5
 BYTE   N23  An5
 BYTE   W24
//  #06 //036   ----------------------------------------
Label_013D6ED0:
 BYTE   N11  Ds4  v048
 BYTE   W12
 BYTE   As3
 BYTE   W12
 BYTE   Ds4
 BYTE   W12
 BYTE   As3
 BYTE   W12
 BYTE   Cs4
 BYTE   W12
 BYTE   As3
 BYTE   W12
 BYTE   Cs4
 BYTE   W12
 BYTE   As3
 BYTE   W12
 BYTE   PEND 
//  #06 //037   ----------------------------------------
Label_013D6EE3:
 BYTE   N11  Cn4  v048
 BYTE   W12
 BYTE   As3
 BYTE   W12
 BYTE   Cn4
 BYTE   W12
 BYTE   As3
 BYTE   W12
 BYTE   Cs4
 BYTE   W12
 BYTE   As3
 BYTE   W12
 BYTE   Cs4
 BYTE   W12
 BYTE   As3
 BYTE   W12
 BYTE   PEND 
//  #06 //038   ----------------------------------------
Label_013D6EF6:
 BYTE   N11  Cn4  v048
 BYTE   W12
 BYTE   Fn3
 BYTE   W12
 BYTE   As3
 BYTE   W12
 BYTE   Fn3
 BYTE   W12
 BYTE   Cs4
 BYTE   W12
 BYTE   As3
 BYTE   W12
 BYTE   Cs4
 BYTE   W12
 BYTE   As3
 BYTE   W12
 BYTE   PEND 
//  #06 //039   ----------------------------------------
 BYTE   PATT
  POIN2 Label_013D6EE3
//  #06 //040   ----------------------------------------
 BYTE   PATT
  POIN2 Label_013D6ED0
//  #06 //041   ----------------------------------------
Label_013D6F13:
 BYTE   N11  Cn4  v048
 BYTE   W12
 BYTE   Fn3
 BYTE   W12
 BYTE   As3
 BYTE   W12
 BYTE   Cs4
 BYTE   W12
 BYTE   Fn3
 BYTE   W12
 BYTE   As3
 BYTE   W12
 BYTE   Ds4
 BYTE   W12
 BYTE   Fn3
 BYTE   W12
 BYTE   PEND 
//  #06 //042   ----------------------------------------
Label_013D6F26:
 BYTE   N11  Fn4  v048
 BYTE   W12
 BYTE   Fn3
 BYTE   W12
 BYTE   As3
 BYTE   W12
 BYTE   Fn4
 BYTE   W12
 BYTE   Fn3
 BYTE   W12
 BYTE   As3
 BYTE   W12
 BYTE   Ds4
 BYTE   W12
 BYTE   As3
 BYTE   W12
 BYTE   PEND 
//  #06 //043   ----------------------------------------
Label_013D6F39:
 BYTE   N11  Ds4  v048
 BYTE   W12
 BYTE   Fn3
 BYTE   W12
 BYTE   As3
 BYTE   W12
 BYTE   Ds4
 BYTE   W12
 BYTE   Fn3
 BYTE   W12
 BYTE   As3
 BYTE   W12
 BYTE   Ds4
 BYTE   W12
 BYTE   As3
 BYTE   W12
 BYTE   PEND 
//  #06 //044   ----------------------------------------
 BYTE   Ds4
 BYTE   W12
 BYTE   Fn3
 BYTE   W12
 BYTE   Ds4
 BYTE   W12
 BYTE   Fn3
 BYTE   W12
 BYTE   Cs4
 BYTE   W12
 BYTE   Fn3
 BYTE   W12
 BYTE   Cs4
 BYTE   W12
 BYTE   Fn3
 BYTE   W12
//  #06 //045   ----------------------------------------
 BYTE   Cn4
 BYTE   W12
 BYTE   Fn3
 BYTE   W12
 BYTE   Cn4
 BYTE   W12
 BYTE   Fn3
 BYTE   W12
 BYTE   Ds4
 BYTE   W12
 BYTE   Fn3
 BYTE   W12
 BYTE   Cs4
 BYTE   W12
 BYTE   Fn3
 BYTE   W12
//  #06 //046   ----------------------------------------
 BYTE   Cn4
 BYTE   W12
 BYTE   Fn3
 BYTE   W12
 BYTE   As3
 BYTE   W12
 BYTE   Cs4
 BYTE   W12
 BYTE   Fn3
 BYTE   W12
 BYTE   As3
 BYTE   W12
 BYTE   Cs4
 BYTE   W12
 BYTE   Fn3
 BYTE   W12
//  #06 //047   ----------------------------------------
 BYTE   Ds4
 BYTE   W12
 BYTE   Fn3
 BYTE   W12
 BYTE   As3
 BYTE   W12
 BYTE   Fn4
 BYTE   W12
 BYTE   Fn3
 BYTE   W12
 BYTE   As3
 BYTE   W12
 BYTE   Fn4
 BYTE   W12
 BYTE   As3
 BYTE   W12
//  #06 //048   ----------------------------------------
 BYTE   Fn4
 BYTE   W12
 BYTE   Gn3
 BYTE   W12
 BYTE   As3
 BYTE   W12
 BYTE   Fn4
 BYTE   W12
 BYTE   Gn3
 BYTE   W12
 BYTE   As3
 BYTE   W12
 BYTE   Fn4
 BYTE   W12
 BYTE   As3
 BYTE   W12
//  #06 //049   ----------------------------------------
 BYTE   En4
 BYTE   W12
 BYTE   Gn3
 BYTE   W12
 BYTE   Cn4
 BYTE   W12
 BYTE   Fn4
 BYTE   W12
 BYTE   Gn3
 BYTE   W12
 BYTE   Cn4
 BYTE   W12
 BYTE   Gn4
 BYTE   W12
 BYTE   Cn4
 BYTE   W12
//  #06 //050   ----------------------------------------
 BYTE   As4
 BYTE   W12
 BYTE   An3
 BYTE   W12
 BYTE   Cn4
 BYTE   W12
 BYTE   An4
 BYTE   W12
 BYTE   An3
 BYTE   W12
 BYTE   Cn4
 BYTE   W12
 BYTE   Gn4
 BYTE   W12
 BYTE   Cn4
 BYTE   W12
//  #06 //051   ----------------------------------------
 BYTE   An4
 BYTE   W12
 BYTE   An3
 BYTE   W12
 BYTE   Cn4
 BYTE   W12
 BYTE   As4
 BYTE   W12
 BYTE   An3
 BYTE   W12
 BYTE   Cn4
 BYTE   W12
 BYTE   Cn5
 BYTE   W12
 BYTE   Cn4
 BYTE   W12
//  #06 //052   ----------------------------------------
 BYTE   PATT
  POIN2 Label_013D6ED0
//  #06 //053   ----------------------------------------
 BYTE   PATT
  POIN2 Label_013D6EE3
//  #06 //054   ----------------------------------------
 BYTE   PATT
  POIN2 Label_013D6EF6
//  #06 //055   ----------------------------------------
 BYTE   PATT
  POIN2 Label_013D6EE3
//  #06 //056   ----------------------------------------
 BYTE   PATT
  POIN2 Label_013D6ED0
//  #06 //057   ----------------------------------------
 BYTE   PATT
  POIN2 Label_013D6F13
//  #06 //058   ----------------------------------------
 BYTE   PATT
  POIN2 Label_013D6F26
//  #06 //059   ----------------------------------------
 BYTE   PATT
  POIN2 Label_013D6F39
//  #06 //060   ----------------------------------------
 BYTE   N11  Ds4  v048
 BYTE   W12
 BYTE   Fn3
 BYTE   W12
 BYTE   Bn3
 BYTE   W12
 BYTE   Ds4
 BYTE   W12
 BYTE   Fn3
 BYTE   W12
 BYTE   Bn3
 BYTE   W12
 BYTE   Ds4
 BYTE   W12
 BYTE   Bn3
 BYTE   W12
//  #06 //061   ----------------------------------------
 BYTE   Dn4
 BYTE   W12
 BYTE   Fn3
 BYTE   W12
 BYTE   As3
 BYTE   W12
 BYTE   Ds4
 BYTE   W12
 BYTE   Fn3
 BYTE   W12
 BYTE   As3
 BYTE   W12
 BYTE   Fn4
 BYTE   W12
 BYTE   As3
 BYTE   W12
//  #06 //062   ----------------------------------------
 BYTE   Fs4
 BYTE   W12
 BYTE   As3
 BYTE   W12
 BYTE   Ds4
 BYTE   W12
 BYTE   Fs4
 BYTE   W12
 BYTE   Gs4
 BYTE   W12
 BYTE   Cs4
 BYTE   W12
 BYTE   Fn4
 BYTE   W12
 BYTE   Gs4
 BYTE   W12
//  #06 //063   ----------------------------------------
 BYTE   As4
 BYTE   W12
 BYTE   Cs4
 BYTE   W12
 BYTE   Fs4
 BYTE   W12
 BYTE   As4
 BYTE   W12
 BYTE   Gn4
 BYTE   W12
 BYTE   Ds4
 BYTE   W12
 BYTE   As4
 BYTE   W12
 BYTE   Gn4
 BYTE   W12
//  #06 //064   ----------------------------------------
 BYTE   Gs4
 BYTE   W12
 BYTE   Bn3
 BYTE   W12
 BYTE   Fs4
 BYTE   W12
 BYTE   As3
 BYTE   W12
 BYTE   Fn4
 BYTE   W12
 BYTE   Gs3
 BYTE   W12
 BYTE   Ds4
 BYTE   W12
 BYTE   Fs3
 BYTE   W12
//  #06 //065   ----------------------------------------
 BYTE   Dn4
 BYTE   W12
 BYTE   As3
 BYTE   W12
 BYTE   Dn4
 BYTE   W12
 BYTE   As3
 BYTE   W12
 BYTE   Fn4
 BYTE   W12
 BYTE   Dn4
 BYTE   W12
 BYTE   Fn4
 BYTE   W12
 BYTE   Dn4
 BYTE   W12
//  #06 //066   ----------------------------------------
 BYTE   W96
//  #06 //067   ----------------------------------------
 BYTE   W96
//  #06 //068   ----------------------------------------
 BYTE   W96
//  #06 //069   ----------------------------------------
 BYTE   W96
//  #06 //070   ----------------------------------------
 BYTE   W96
//  #06 //071   ----------------------------------------
 BYTE   W96
//  #06 //072   ----------------------------------------
 BYTE   W96
//  #06 //073   ----------------------------------------
 BYTE   W96
//  #06 //074   ----------------------------------------
 BYTE   W96
//  #06 //075   ----------------------------------------
 BYTE   W96
//  #06 //076   ----------------------------------------
 BYTE   W96
//  #06 //077   ----------------------------------------
 BYTE   W96
//  #06 //078   ----------------------------------------
 BYTE   W96
//  #06 //079   ----------------------------------------
 BYTE   W96
//  #06 //080   ----------------------------------------
 BYTE   W96
//  #06 //081   ----------------------------------------
 BYTE   W96
//  #06 //082   ----------------------------------------
 BYTE   W96
//  #06 //083   ----------------------------------------
 BYTE   W96
//  #06 //084   ----------------------------------------
 BYTE   W12
 BYTE   Gs3  v064
 BYTE   N11  As3
 BYTE   N11  Ds4
 BYTE   W12
 BYTE   N23  Gs3
 BYTE   N23  As3
 BYTE   N23  Ds4
 BYTE   W24
 BYTE   N11  An3
 BYTE   N11  Bn3
 BYTE   N11  En4
 BYTE   W12
 BYTE   An3
 BYTE   N11  Bn3
 BYTE   N11  En4
 BYTE   W24
 BYTE   Bn3
 BYTE   N11  Cs4
 BYTE   N11  Fs4
 BYTE   W12
//  #06 //085   ----------------------------------------
 BYTE   N23  Bn3
 BYTE   N23  Cs4
 BYTE   N23  Fs4
 BYTE   W24
 BYTE   N11  An3
 BYTE   N11  Bn3
 BYTE   N11  En4
 BYTE   W12
 BYTE   An3
 BYTE   N11  Bn3
 BYTE   N11  En4
 BYTE   W24
 BYTE   Gs3
 BYTE   N11  As3
 BYTE   N11  Ds4
 BYTE   W24
 BYTE   An3
 BYTE   N11  Bn3
 BYTE   N11  En4
 BYTE   W12
//  #06 //086   ----------------------------------------
 BYTE   W96
//  #06 //087   ----------------------------------------
 BYTE   W96
//  #06 //088   ----------------------------------------
 BYTE   W12
 BYTE   As3
 BYTE   N11  Ds4
 BYTE   N11  Fn4
 BYTE   N11  As4
 BYTE   W12
 BYTE   N23  As3
 BYTE   N23  Ds4
 BYTE   N23  Fn4
 BYTE   N23  As4
 BYTE   W24
 BYTE   N11  Bn3
 BYTE   N11  En4
 BYTE   N11  Fs4
 BYTE   N11  Bn4
 BYTE   W12
 BYTE   Bn3
 BYTE   N11  En4
 BYTE   N11  Fs4
 BYTE   N11  Bn4
 BYTE   W24
 BYTE   Bn3
 BYTE   N11  En4
 BYTE   N11  Fs4
 BYTE   N11  Bn4
 BYTE   W12
//  #06 //089   ----------------------------------------
 BYTE   N44  As3  v040
 BYTE   N44  Cn4
 BYTE   N44  Fn4
 BYTE   N44  As4  v064
 BYTE   W48
 BYTE   An3  v040
 BYTE   N44  Cn4
 BYTE   N44  Fn4
 BYTE   N44  An4  v064
 BYTE   W48
//  #06 //090   ----------------------------------------
 BYTE   GoTo
  POIN2 Label_013D6D03
//  #06 //091   ----------------------------------------
 BYTE   W96
//  #06 //092   ----------------------------------------
 BYTE   W96
//  #06 //093   ----------------------------------------
 BYTE   W96
//  #06 //094   ----------------------------------------
 BYTE   W96
//  #06 //095   ----------------------------------------
 BYTE   W96
//  #06 //096   ----------------------------------------
 BYTE   W96
//  #06 //097   ----------------------------------------
 BYTE   W96
//  #06 //098   ----------------------------------------
 BYTE   W96
//  #06 //099   ----------------------------------------
 BYTE   W96
//  #06 //100   ----------------------------------------
 BYTE   W96
//  #06 //101   ----------------------------------------
 BYTE   W96
//  #06 //102   ----------------------------------------
 BYTE   W96
//  #06 //103   ----------------------------------------
 BYTE   W96
//  #06 //104   ----------------------------------------
 BYTE   W96
//  #06 //105   ----------------------------------------
 BYTE   W96
//  #06 //106   ----------------------------------------
 BYTE   W96
//  #06 //107   ----------------------------------------
 BYTE   W96
//  #06 //108   ----------------------------------------
 BYTE   W96
//  #06 //109   ----------------------------------------
 BYTE   W96
//  #06 //110   ----------------------------------------
 BYTE   W96
//  #06 //111   ----------------------------------------
Label_013D7105:
 BYTE   W12
 BYTE   N11  Ds4  v056
 BYTE   N11  Fn4
 BYTE   N11  As4
 BYTE   W12
 BYTE   N23  Ds4
 BYTE   N23  Fn4
 BYTE   N23  As4
 BYTE   W24
 BYTE   N11  Ds4
 BYTE   N11  Fn4
 BYTE   N11  As4
 BYTE   W12
 BYTE   Ds4
 BYTE   N11  Fn4
 BYTE   N11  As4
 BYTE   W24
 BYTE   Gs4
 BYTE   W12
 BYTE   PEND 
//  #06 //112   ----------------------------------------
Label_013D7125:
 BYTE   W12
 BYTE   N11  Ds4  v056
 BYTE   W12
 BYTE   As3
 BYTE   W12
 BYTE   Gs4
 BYTE   W24
 BYTE   Ds4
 BYTE   W12
 BYTE   As3
 BYTE   W12
 BYTE   Ds4
 BYTE   W12
 BYTE   PEND 
//  #06 //113   ----------------------------------------
Label_013D7135:
 BYTE   W12
 BYTE   N11  Ds4  v056
 BYTE   N11  Fn4
 BYTE   N11  As4
 BYTE   W12
 BYTE   N23  Ds4
 BYTE   N23  Fn4
 BYTE   N23  As4
 BYTE   W24
 BYTE   N11  Ds4
 BYTE   N11  Fn4
 BYTE   N11  As4
 BYTE   W12
 BYTE   Ds4
 BYTE   N11  Fn4
 BYTE   N11  As4
 BYTE   W24
 BYTE   Bn4
 BYTE   W12
 BYTE   PEND 
//  #06 //114   ----------------------------------------
Label_013D7155:
 BYTE   W12
 BYTE   N11  En4  v056
 BYTE   W12
 BYTE   Bn3
 BYTE   W12
 BYTE   Bn4
 BYTE   W24
 BYTE   En4
 BYTE   W12
 BYTE   Bn3
 BYTE   W12
 BYTE   En4
 BYTE   W12
 BYTE   PEND 
//  #06 //115   ----------------------------------------
 BYTE   PATT
  POIN2 Label_013D7105
//  #06 //116   ----------------------------------------
 BYTE   PATT
  POIN2 Label_013D7125
//  #06 //117   ----------------------------------------
Label_013D716F:
 BYTE   W12
 BYTE   N11  Ds4  v056
 BYTE   N11  Fn4
 BYTE   N11  As4
 BYTE   W12
 BYTE   N23  Ds4
 BYTE   N23  Fn4
 BYTE   N23  As4
 BYTE   W24
 BYTE   N11  Ds4
 BYTE   N11  Fn4
 BYTE   N11  As4
 BYTE   W12
 BYTE   Ds4
 BYTE   N11  Fn4
 BYTE   N11  As4
 BYTE   W24
 BYTE   N23  Cs5
 BYTE   W12
 BYTE   PEND 
//  #06 //118   ----------------------------------------
Label_013D7190:
 BYTE   W12
 BYTE   N11  Bn4  v056
 BYTE   W12
 BYTE   As4
 BYTE   W12
 BYTE   Bn4
 BYTE   W12
 BYTE   N23  Fs4
 BYTE   W24
 BYTE   Gs4
 BYTE   W24
 BYTE   PEND 
//  #06 //119   ----------------------------------------
Label_013D719F:
 BYTE   W12
 BYTE   N11  Ds2  v056
 BYTE   N11  Ds3
 BYTE   W12
 BYTE   Gs2
 BYTE   N11  Gs3
 BYTE   W12
 BYTE   Cs3
 BYTE   N11  Cs4
 BYTE   W12
 BYTE   En3
 BYTE   N11  En4
 BYTE   W12
 BYTE   Bn2
 BYTE   N11  Bn3
 BYTE   W12
 BYTE   Fs2
 BYTE   N11  Fs3
 BYTE   W12
 BYTE   An1
 BYTE   N11  An2
 BYTE   W12
 BYTE   PEND 
//  #06 //120   ----------------------------------------
 BYTE   Dn2
 BYTE   N11  Dn3
 BYTE   W12
 BYTE   Gn2
 BYTE   N11  Gn3
 BYTE   W12
 BYTE   As2
 BYTE   N11  As3
 BYTE   W12
 BYTE   Fn2
 BYTE   N11  Fn3
 BYTE   W12
 BYTE   Cn2
 BYTE   N11  Cn3
 BYTE   W12
 BYTE   Ds2
 BYTE   N11  Ds3
 BYTE   W12
 BYTE   Gs1
 BYTE   N11  Gs2
 BYTE   W12
 BYTE   Cs2
 BYTE   N11  Cs3
 BYTE   W12
//  #06 //121   ----------------------------------------
Label_013D71DF:
 BYTE   N11  Ds4  v048
 BYTE   W12
 BYTE   As3
 BYTE   W12
 BYTE   Ds4
 BYTE   W12
 BYTE   As3
 BYTE   W12
 BYTE   Cs4
 BYTE   W12
 BYTE   As3
 BYTE   W12
 BYTE   Cs4
 BYTE   W12
 BYTE   As3
 BYTE   W12
 BYTE   PEND 
//  #06 //122   ----------------------------------------
Label_013D71F2:
 BYTE   N11  Cn4  v048
 BYTE   W12
 BYTE   As3
 BYTE   W12
 BYTE   Cn4
 BYTE   W12
 BYTE   As3
 BYTE   W12
 BYTE   Cs4
 BYTE   W12
 BYTE   As3
 BYTE   W12
 BYTE   Cs4
 BYTE   W12
 BYTE   As3
 BYTE   W12
 BYTE   PEND 
//  #06 //123   ----------------------------------------
Label_013D7205:
 BYTE   N11  Cn4  v048
 BYTE   W12
 BYTE   Fn3
 BYTE   W12
 BYTE   As3
 BYTE   W12
 BYTE   Fn3
 BYTE   W12
 BYTE   Cs4
 BYTE   W12
 BYTE   As3
 BYTE   W12
 BYTE   Cs4
 BYTE   W12
 BYTE   As3
 BYTE   W12
 BYTE   PEND 
//  #06 //124   ----------------------------------------
 BYTE   PATT
  POIN2 Label_013D71F2
//  #06 //125   ----------------------------------------
 BYTE   PATT
  POIN2 Label_013D71DF
//  #06 //126   ----------------------------------------
Label_013D7222:
 BYTE   N11  Cn4  v048
 BYTE   W12
 BYTE   Fn3
 BYTE   W12
 BYTE   As3
 BYTE   W12
 BYTE   Cs4
 BYTE   W12
 BYTE   Fn3
 BYTE   W12
 BYTE   As3
 BYTE   W12
 BYTE   Ds4
 BYTE   W12
 BYTE   Fn3
 BYTE   W12
 BYTE   PEND 
//  #06 //127   ----------------------------------------
Label_013D7235:
 BYTE   N11  Fn4  v048
 BYTE   W12
 BYTE   Fn3
 BYTE   W12
 BYTE   As3
 BYTE   W12
 BYTE   Fn4
 BYTE   W12
 BYTE   Fn3
 BYTE   W12
 BYTE   As3
 BYTE   W12
 BYTE   Ds4
 BYTE   W12
 BYTE   As3
 BYTE   W12
 BYTE   PEND 
//  #06 //128   ----------------------------------------
Label_013D7248:
 BYTE   N11  Ds4  v048
 BYTE   W12
 BYTE   Fn3
 BYTE   W12
 BYTE   As3
 BYTE   W12
 BYTE   Ds4
 BYTE   W12
 BYTE   Fn3
 BYTE   W12
 BYTE   As3
 BYTE   W12
 BYTE   Ds4
 BYTE   W12
 BYTE   As3
 BYTE   W12
 BYTE   PEND 
//  #06 //129   ----------------------------------------
 BYTE   Ds4
 BYTE   W12
 BYTE   Fn3
 BYTE   W12
 BYTE   Ds4
 BYTE   W12
 BYTE   Fn3
 BYTE   W12
 BYTE   Cs4
 BYTE   W12
 BYTE   Fn3
 BYTE   W12
 BYTE   Cs4
 BYTE   W12
 BYTE   Fn3
 BYTE   W12
//  #06 //130   ----------------------------------------
 BYTE   Cn4
 BYTE   W12
 BYTE   Fn3
 BYTE   W12
 BYTE   Cn4
 BYTE   W12
 BYTE   Fn3
 BYTE   W12
 BYTE   Ds4
 BYTE   W12
 BYTE   Fn3
 BYTE   W12
 BYTE   Cs4
 BYTE   W12
 BYTE   Fn3
 BYTE   W12
//  #06 //131   ----------------------------------------
 BYTE   Cn4
 BYTE   W12
 BYTE   Fn3
 BYTE   W12
 BYTE   As3
 BYTE   W12
 BYTE   Cs4
 BYTE   W12
 BYTE   Fn3
 BYTE   W12
 BYTE   As3
 BYTE   W12
 BYTE   Cs4
 BYTE   W12
 BYTE   Fn3
 BYTE   W12
//  #06 //132   ----------------------------------------
 BYTE   Ds4
 BYTE   W12
 BYTE   Fn3
 BYTE   W12
 BYTE   As3
 BYTE   W12
 BYTE   Fn4
 BYTE   W12
 BYTE   Fn3
 BYTE   W12
 BYTE   As3
 BYTE   W12
 BYTE   Fn4
 BYTE   W12
 BYTE   As3
 BYTE   W12
//  #06 //133   ----------------------------------------
 BYTE   Fn4
 BYTE   W12
 BYTE   Gn3
 BYTE   W12
 BYTE   As3
 BYTE   W12
 BYTE   Fn4
 BYTE   W12
 BYTE   Gn3
 BYTE   W12
 BYTE   As3
 BYTE   W12
 BYTE   Fn4
 BYTE   W12
 BYTE   As3
 BYTE   W12
//  #06 //134   ----------------------------------------
 BYTE   En4
 BYTE   W12
 BYTE   Gn3
 BYTE   W12
 BYTE   Cn4
 BYTE   W12
 BYTE   Fn4
 BYTE   W12
 BYTE   Gn3
 BYTE   W12
 BYTE   Cn4
 BYTE   W12
 BYTE   Gn4
 BYTE   W12
 BYTE   Cn4
 BYTE   W12
//  #06 //135   ----------------------------------------
 BYTE   As4
 BYTE   W12
 BYTE   An3
 BYTE   W12
 BYTE   Cn4
 BYTE   W12
 BYTE   An4
 BYTE   W12
 BYTE   An3
 BYTE   W12
 BYTE   Cn4
 BYTE   W12
 BYTE   Gn4
 BYTE   W12
 BYTE   Cn4
 BYTE   W12
//  #06 //136   ----------------------------------------
 BYTE   An4
 BYTE   W12
 BYTE   An3
 BYTE   W12
 BYTE   Cn4
 BYTE   W12
 BYTE   As4
 BYTE   W12
 BYTE   An3
 BYTE   W12
 BYTE   Cn4
 BYTE   W12
 BYTE   Cn5
 BYTE   W12
 BYTE   Cn4
 BYTE   W12
//  #06 //137   ----------------------------------------
 BYTE   PATT
  POIN2 Label_013D71DF
//  #06 //138   ----------------------------------------
 BYTE   PATT
  POIN2 Label_013D71F2
//  #06 //139   ----------------------------------------
 BYTE   PATT
  POIN2 Label_013D7205
//  #06 //140   ----------------------------------------
 BYTE   PATT
  POIN2 Label_013D71F2
//  #06 //141   ----------------------------------------
 BYTE   PATT
  POIN2 Label_013D71DF
//  #06 //142   ----------------------------------------
 BYTE   PATT
  POIN2 Label_013D7222
//  #06 //143   ----------------------------------------
 BYTE   PATT
  POIN2 Label_013D7235
//  #06 //144   ----------------------------------------
 BYTE   PATT
  POIN2 Label_013D7248
//  #06 //145   ----------------------------------------
 BYTE   N11  Ds4  v048
 BYTE   W12
 BYTE   Fn3
 BYTE   W12
 BYTE   Bn3
 BYTE   W12
 BYTE   Ds4
 BYTE   W12
 BYTE   Fn3
 BYTE   W12
 BYTE   Bn3
 BYTE   W12
 BYTE   Ds4
 BYTE   W12
 BYTE   Bn3
 BYTE   W12
//  #06 //146   ----------------------------------------
 BYTE   Dn4
 BYTE   W12
 BYTE   Fn3
 BYTE   W12
 BYTE   As3
 BYTE   W12
 BYTE   Ds4
 BYTE   W12
 BYTE   Fn3
 BYTE   W12
 BYTE   As3
 BYTE   W12
 BYTE   Fn4
 BYTE   W12
 BYTE   As3
 BYTE   W12
//  #06 //147   ----------------------------------------
 BYTE   Fs4
 BYTE   W12
 BYTE   As3
 BYTE   W12
 BYTE   Ds4
 BYTE   W12
 BYTE   Fs4
 BYTE   W12
 BYTE   Gs4
 BYTE   W12
 BYTE   Cs4
 BYTE   W12
 BYTE   Fn4
 BYTE   W12
 BYTE   Gs4
 BYTE   W12
//  #06 //148   ----------------------------------------
 BYTE   As4
 BYTE   W12
 BYTE   Cs4
 BYTE   W12
 BYTE   Fs4
 BYTE   W12
 BYTE   As4
 BYTE   W12
 BYTE   Gn4
 BYTE   W12
 BYTE   Ds4
 BYTE   W12
 BYTE   As4
 BYTE   W12
 BYTE   Gn4
 BYTE   W12
//  #06 //149   ----------------------------------------
 BYTE   Gs4
 BYTE   W12
 BYTE   Bn3
 BYTE   W12
 BYTE   Fs4
 BYTE   W12
 BYTE   As3
 BYTE   W12
 BYTE   Fn4
 BYTE   W12
 BYTE   Gs3
 BYTE   W12
 BYTE   Ds4
 BYTE   W12
 BYTE   Fs3
 BYTE   W12
//  #06 //150   ----------------------------------------
 BYTE   Dn4
 BYTE   W12
 BYTE   As3
 BYTE   W12
 BYTE   Dn4
 BYTE   W12
 BYTE   As3
 BYTE   W12
 BYTE   Fn4
 BYTE   W12
 BYTE   Dn4
 BYTE   W12
 BYTE   Fn4
 BYTE   W12
 BYTE   Dn4
 BYTE   W12
//  #06 //151   ----------------------------------------
 BYTE   W96
//  #06 //152   ----------------------------------------
 BYTE   W96
//  #06 //153   ----------------------------------------
 BYTE   W96
//  #06 //154   ----------------------------------------
 BYTE   W96
//  #06 //155   ----------------------------------------
 BYTE   N23  As3  v040
 BYTE   N23  Ds4
 BYTE   N23  Fs4  v064
 BYTE   W36
 BYTE   N11  Gs3
 BYTE   W12
 BYTE   N19  As3
 BYTE   W18
 BYTE   W01
 BYTE   N16  Bn3
 BYTE   W05
 BYTE   W12
 BYTE   N11  Fs4
 BYTE   W12
//  #06 //156   ----------------------------------------
 BYTE   N23  Gs3  v040
 BYTE   N23  Bn3
 BYTE   N23  Fn4  v064
 BYTE   W36
 BYTE   N11  Gs3
 BYTE   W12
 BYTE   N19  As3
 BYTE   W18
 BYTE   W01
 BYTE   N16  Bn3
 BYTE   W05
 BYTE   W12
 BYTE   N11  Fn4
 BYTE   W12
//  #06 //157   ----------------------------------------
 BYTE   N23  Gs3  v040
 BYTE   N23  Bn3
 BYTE   N23  En4  v064
 BYTE   W36
 BYTE   N11  Gs3
 BYTE   W12
 BYTE   N19  As3
 BYTE   W18
 BYTE   W01
 BYTE   N16  Bn3
 BYTE   W05
 BYTE   W12
 BYTE   N11  En4
 BYTE   W12
//  #06 //158   ----------------------------------------
 BYTE   N44  Fs3  v040
 BYTE   N44  As3
 BYTE   N32  Ds4  v064
 BYTE   W36
 BYTE   N07  Fn4
 BYTE   W06
 BYTE   W01
 BYTE   N04  Ds4
 BYTE   W05
 BYTE   N44  Fn3  v040
 BYTE   N44  As3
 BYTE   N44  Dn4  v064
 BYTE   W48
//  #06 //159   ----------------------------------------
 BYTE   W96
//  #06 //160   ----------------------------------------
 BYTE   W96
//  #06 //161   ----------------------------------------
 BYTE   W96
//  #06 //162   ----------------------------------------
 BYTE   W96
//  #06 //163   ----------------------------------------
 BYTE   N23  Cn4  v040
 BYTE   N23  Fn4
 BYTE   N23  Gs4  v064
 BYTE   W36
 BYTE   N11  As3
 BYTE   W12
 BYTE   N19  Cn4
 BYTE   W18
 BYTE   W01
 BYTE   N16  Cs4
 BYTE   W05
 BYTE   W12
 BYTE   N11  Gs4
 BYTE   W12
//  #06 //164   ----------------------------------------
 BYTE   N23  As3  v040
 BYTE   N23  Cs4
 BYTE   N23  Gn4  v064
 BYTE   W36
 BYTE   N11  As3
 BYTE   W12
 BYTE   N19  Cn4
 BYTE   W18
 BYTE   W01
 BYTE   N16  Cs4
 BYTE   W05
 BYTE   W12
 BYTE   N11  Gn4
 BYTE   W12
//  #06 //165   ----------------------------------------
 BYTE   N23  As3  v040
 BYTE   N23  Cs4
 BYTE   N23  Fs4  v064
 BYTE   W36
 BYTE   N11  As3
 BYTE   W12
 BYTE   N19  Cn4
 BYTE   W18
 BYTE   W01
 BYTE   N16  Cs4
 BYTE   W05
 BYTE   W12
 BYTE   N11  Fs4
 BYTE   W12
//  #06 //166   ----------------------------------------
 BYTE   N44  Gs3  v040
 BYTE   N44  Cn4
 BYTE   N32  Fn4  v064
 BYTE   W36
 BYTE   N07  Gn4
 BYTE   W06
 BYTE   W01
 BYTE   N04  Fn4
 BYTE   W05
 BYTE   N44  Gn3  v040
 BYTE   N44  Cn4
 BYTE   N44  En4  v064
 BYTE   W48
//  #06 //167   ----------------------------------------
 BYTE   W96
//  #06 //168   ----------------------------------------
 BYTE   W96
//  #06 //169   ----------------------------------------
 BYTE   W96
//  #06 //170   ----------------------------------------
 BYTE   W96
//  #06 //171   ----------------------------------------
 BYTE   W96
//  #06 //172   ----------------------------------------
 BYTE   W96
//  #06 //173   ----------------------------------------
 BYTE   W96
//  #06 //174   ----------------------------------------
 BYTE   W96
//  #06 //175   ----------------------------------------
 BYTE   W96
//  #06 //176   ----------------------------------------
 BYTE   W96
//  #06 //177   ----------------------------------------
 BYTE   W96
//  #06 //178   ----------------------------------------
 BYTE   W96
//  #06 //179   ----------------------------------------
 BYTE   W96
//  #06 //180   ----------------------------------------
 BYTE   W96
//  #06 //181   ----------------------------------------
 BYTE   W96
//  #06 //182   ----------------------------------------
 BYTE   W96
//  #06 //183   ----------------------------------------
 BYTE   W96
//  #06 //184   ----------------------------------------
 BYTE   W96
//  #06 //185   ----------------------------------------
 BYTE   W96
//  #06 //186   ----------------------------------------
 BYTE   W96
//  #06 //187   ----------------------------------------
 BYTE   W96
//  #06 //188   ----------------------------------------
 BYTE   W96
//  #06 //189   ----------------------------------------
 BYTE   W96
//  #06 //190   ----------------------------------------
 BYTE   W96
//  #06 //191   ----------------------------------------
 BYTE   W96
//  #06 //192   ----------------------------------------
 BYTE   W96
//  #06 //193   ----------------------------------------
 BYTE   W96
//  #06 //194   ----------------------------------------
 BYTE   W96
//  #06 //195   ----------------------------------------
 BYTE   W96
//  #06 //196   ----------------------------------------
 BYTE   W96
//  #06 //197   ----------------------------------------
 BYTE   W96
//  #06 //198   ----------------------------------------
 BYTE   W96
//  #06 //199   ----------------------------------------
 BYTE   W96
//  #06 //200   ----------------------------------------
 BYTE   W96
//  #06 //201   ----------------------------------------
 BYTE   PATT
  POIN2 Label_013D7105
//  #06 //202   ----------------------------------------
 BYTE   PATT
  POIN2 Label_013D7125
//  #06 //203   ----------------------------------------
 BYTE   PATT
  POIN2 Label_013D7135
//  #06 //204   ----------------------------------------
 BYTE   PATT
  POIN2 Label_013D7155
//  #06 //205   ----------------------------------------
 BYTE   PATT
  POIN2 Label_013D7105
//  #06 //206   ----------------------------------------
 BYTE   PATT
  POIN2 Label_013D7125
//  #06 //207   ----------------------------------------
 BYTE   PATT
  POIN2 Label_013D716F
//  #06 //208   ----------------------------------------
 BYTE   PATT
  POIN2 Label_013D7190
//  #06 //209   ----------------------------------------
 BYTE   PATT
  POIN2 Label_013D719F
//  #06 //210   ----------------------------------------
 BYTE   N11  Dn2  v056
 BYTE   N11  Dn3
 BYTE   W12
 BYTE   Gn2
 BYTE   N11  Gn3
 BYTE   W12
 BYTE   As2
 BYTE   N11  As3
 BYTE   W12
 BYTE   Fn2
 BYTE   N11  Fn3
 BYTE   W12
 BYTE   Cn2
 BYTE   N11  Cn3
 BYTE   W12
 BYTE   Ds2
 BYTE   N11  Ds3
 BYTE   W12
 BYTE   Gs1
 BYTE   N11  Gs2
 BYTE   W12
 BYTE   Cs2
 BYTE   N11  Cs3
 BYTE   W11
 BYTE   FINE

//**************** Track 7 (Midi-Chn.6) ****************//

The_One_They_Call_Witch_Song_007:
//  #07 //000   ----------------------------------------
 BYTE   KEYSH   The_One_They_Call_Witch_Song_key+0
 BYTE   VOICE   51
 BYTE   MODT 0
 BYTE   LFOS 44
 BYTE   BENDR  12
 BYTE   VOL   44*The_One_They_Call_Witch_Song_mvl/mxv
 BYTE   PAN   c_v+0
 BYTE   BENDR  12
 BYTE   VOL   44*The_One_They_Call_Witch_Song_mvl/mxv
 BYTE   PAN   c_v+0
 BYTE   N11  As1  v044
 BYTE   N11  Cn4  v064
 BYTE   W12
 BYTE   As1  v044
 BYTE   N11  Cn4  v064
 BYTE   W12
 BYTE   N23  As1  v044
 BYTE   N23  Cs4  v064
 BYTE   W48
 BYTE   N11  As1  v044
 BYTE   N11  Ds4  v064
 BYTE   W12
 BYTE   As1  v044
 BYTE   N11  Ds4  v064
 BYTE   W12
//  #07 //001   ----------------------------------------
 BYTE   N23  As1  v044
 BYTE   N23  Cs4  v064
 BYTE   W48
 BYTE   N11  Cn4
 BYTE   W12
 BYTE   As1  v044
 BYTE   N11  Cn4  v064
 BYTE   W12
 BYTE   As1  v044
 BYTE   N23  Cs4  v064
 BYTE   W12
 BYTE   N11  As1  v044
 BYTE   W12
//  #07 //002   ----------------------------------------
 BYTE   N11
 BYTE   N11  Cn4  v064
 BYTE   W12
 BYTE   As1  v044
 BYTE   N11  Cn4  v064
 BYTE   W12
 BYTE   As1  v044
 BYTE   N23  Cs4  v064
 BYTE   W12
 BYTE   N11  As1  v044
 BYTE   W12
 BYTE   N11
 BYTE   W12
 BYTE   N11
 BYTE   W12
 BYTE   N11
 BYTE   N11  Ds4  v064
 BYTE   W12
 BYTE   As1  v044
 BYTE   N11  Ds4  v064
 BYTE   W12
//  #07 //003   ----------------------------------------
 BYTE   As1  v044
 BYTE   N23  Cs4  v064
 BYTE   W12
 BYTE   N11  As1  v044
 BYTE   W12
 BYTE   N11
 BYTE   W12
 BYTE   N11
 BYTE   W12
 BYTE   N11
 BYTE   N11  Ds4  v064
 BYTE   W12
 BYTE   As1  v044
 BYTE   N11  Ds4  v064
 BYTE   W12
 BYTE   As1  v044
 BYTE   N23  Fn4  v064
 BYTE   W12
 BYTE   N11  As1  v044
 BYTE   W12
//  #07 //004   ----------------------------------------
 BYTE   Fs1
 BYTE   N11  Cn4  v064
 BYTE   W12
 BYTE   Fs1  v044
 BYTE   N11  Cn4  v064
 BYTE   W12
 BYTE   N23  Fs1  v044
 BYTE   N23  Cs4  v064
 BYTE   W48
 BYTE   N11  Fs1  v044
 BYTE   N11  Ds4  v064
 BYTE   W12
 BYTE   Fs1  v044
 BYTE   N11  Ds4  v064
 BYTE   W12
//  #07 //005   ----------------------------------------
 BYTE   N23  Fs1  v044
 BYTE   N23  Cs4  v064
 BYTE   W48
 BYTE   N11  Cn4
 BYTE   W12
 BYTE   Fs1  v044
 BYTE   N11  Cn4  v064
 BYTE   W12
 BYTE   Fs1  v044
 BYTE   N23  Cs4  v064
 BYTE   W12
 BYTE   N11  Fs1  v044
 BYTE   W12
//  #07 //006   ----------------------------------------
 BYTE   N11
 BYTE   N11  Cn4  v064
 BYTE   W12
 BYTE   Fs1  v044
 BYTE   N11  Cn4  v064
 BYTE   W12
 BYTE   Fs1  v044
 BYTE   N23  Cs4  v064
 BYTE   W12
 BYTE   N11  Fs1  v044
 BYTE   W12
 BYTE   N11
 BYTE   W12
 BYTE   N11
 BYTE   W12
 BYTE   N11
 BYTE   N11  Ds4  v064
 BYTE   W12
 BYTE   Fs1  v044
 BYTE   N11  Ds4  v064
 BYTE   W12
//  #07 //007   ----------------------------------------
 BYTE   Fs1  v044
 BYTE   N23  Cs4  v064
 BYTE   W12
 BYTE   N11  Fs1  v044
 BYTE   W12
 BYTE   N11
 BYTE   W12
 BYTE   N11
 BYTE   W12
 BYTE   N11
 BYTE   N11  Ds4  v064
 BYTE   W12
 BYTE   Fs1  v044
 BYTE   N11  Ds4  v064
 BYTE   W12
 BYTE   Fs1  v044
 BYTE   N23  Fn4  v064
 BYTE   W12
 BYTE   N11  Fs1  v044
 BYTE   W12
//  #07 //008   ----------------------------------------
Label_013CE8C2:
 BYTE   TIE  Cn2  v064
 BYTE   N44  Fs4
 BYTE   W48
 BYTE   Fn4
 BYTE   W48
 BYTE   PEND 
//  #07 //009   ----------------------------------------
Label_013CE8CB:
 BYTE   N44  Ds4  v064
 BYTE   W48
 BYTE   Cs4
 BYTE   W44
 BYTE   W03
 BYTE   PEND 
 BYTE   EOT
 BYTE   Cn2
 BYTE   W01
//  #07 //010   ----------------------------------------
Label_013CE8D6:
 BYTE   TIE  Fn2  v064
 BYTE   N44  Cn4
 BYTE   W48
 BYTE   As3
 BYTE   W48
 BYTE   PEND 
//  #07 //011   ----------------------------------------
Label_013CE8DF:
 BYTE   N23  An3  v064
 BYTE   W24
 BYTE   As3
 BYTE   W24
 BYTE   Cn4
 BYTE   W24
 BYTE   Ds4
 BYTE   W23
 BYTE   PEND 
 BYTE   EOT
 BYTE   Fn2
 BYTE   W01
//  #07 //012   ----------------------------------------
Label_013CE8ED:
 BYTE   N11  Fn2  v072
 BYTE   N23  Cs4  v064
 BYTE   W12
 BYTE   N11  Fn2  v044
 BYTE   W12
 BYTE   N11
 BYTE   W12
 BYTE   N11
 BYTE   W12
 BYTE   Fn2  v072
 BYTE   W12
 BYTE   Fn2  v044
 BYTE   W12
 BYTE   N11
 BYTE   W12
 BYTE   N11
 BYTE   W12
 BYTE   PEND 
//  #07 //013   ----------------------------------------
 BYTE   Fs2  v072
 BYTE   N23  Cn4  v064
 BYTE   W12
 BYTE   N11  Fs2  v044
 BYTE   W12
 BYTE   N11
 BYTE   W12
 BYTE   N11
 BYTE   W12
 BYTE   Fs2  v072
 BYTE   W12
 BYTE   Fs2  v044
 BYTE   W12
 BYTE   N11
 BYTE   W12
 BYTE   N11
 BYTE   W12
//  #07 //014   ----------------------------------------
 BYTE   Fs2  v072
 BYTE   N23  Bn3  v064
 BYTE   W12
 BYTE   N11  Fs2  v044
 BYTE   W12
 BYTE   N11
 BYTE   W12
 BYTE   N11
 BYTE   W12
 BYTE   Fs2  v072
 BYTE   W12
 BYTE   Fs2  v044
 BYTE   W12
 BYTE   N11
 BYTE   W12
 BYTE   N11
 BYTE   W12
//  #07 //015   ----------------------------------------
 BYTE   Fn2  v072
 BYTE   N32  As3  v064
 BYTE   W12
 BYTE   N11  Fn2  v044
 BYTE   W12
 BYTE   N11
 BYTE   W12
 BYTE   N11
 BYTE   N07  Cn4  v064
 BYTE   W06
 BYTE   W01
 BYTE   N04  As3
 BYTE   W05
 BYTE   N11  Fn2  v072
 BYTE   N44  An3  v064
 BYTE   W12
 BYTE   N11  Fn2  v044
 BYTE   W12
 BYTE   N11
 BYTE   W12
 BYTE   N11
 BYTE   W12
//  #07 //016   ----------------------------------------
 BYTE   PATT
  POIN2 Label_013CE8ED
//  #07 //017   ----------------------------------------
 BYTE   N11  Fs2  v072
 BYTE   N23  Ds4  v064
 BYTE   W12
 BYTE   N11  Fs2  v044
 BYTE   W12
 BYTE   N11
 BYTE   W12
 BYTE   N11
 BYTE   W12
 BYTE   Fs2  v072
 BYTE   W12
 BYTE   Fs2  v044
 BYTE   W12
 BYTE   N11
 BYTE   W12
 BYTE   N11
 BYTE   W12
//  #07 //018   ----------------------------------------
 BYTE   Fn2  v072
 BYTE   N23  An3  v064
 BYTE   W12
 BYTE   N11  Fn2  v044
 BYTE   W12
 BYTE   N11
 BYTE   W12
 BYTE   Fs2  v072
 BYTE   N23  As3  v064
 BYTE   W12
 BYTE   N11  Fs2  v044
 BYTE   W12
 BYTE   N11
 BYTE   W12
 BYTE   Gs2  v072
 BYTE   N23  Cn4  v064
 BYTE   W12
 BYTE   N11  Gs2  v044
 BYTE   W12
//  #07 //019   ----------------------------------------
 BYTE   N11
 BYTE   W12
 BYTE   An2  v072
 BYTE   N32  Cs4  v064
 BYTE   W12
 BYTE   N11  An2  v044
 BYTE   W12
 BYTE   N11
 BYTE   W12
 BYTE   Bn2  v072
 BYTE   N23  Ds4  v064
 BYTE   W12
 BYTE   N11  Bn2  v044
 BYTE   W12
 BYTE   Cn3  v072
 BYTE   N23  En4  v064
 BYTE   W12
 BYTE   N11  Cn3  v044
 BYTE   W12
//  #07 //020   ----------------------------------------
 BYTE   Fn2  v072
 BYTE   N23  Cs5  v088
 BYTE   W12
 BYTE   N11  Fn2  v044
 BYTE   W12
 BYTE   N11
 BYTE   W12
 BYTE   N11
 BYTE   N11  Ds4  v088
 BYTE   W12
 BYTE   Fn2  v072
 BYTE   N19  Fn4  v088
 BYTE   W12
 BYTE   N11  Fn2  v044
 BYTE   W06
 BYTE   W01
 BYTE   N16  Fs4  v088
 BYTE   W05
 BYTE   N11  Fn2  v044
 BYTE   W12
 BYTE   N11
 BYTE   N11  Cs5  v088
 BYTE   W12
//  #07 //021   ----------------------------------------
 BYTE   Fs2  v072
 BYTE   N23  Cn5  v088
 BYTE   W12
 BYTE   N11  Fs2  v044
 BYTE   W12
 BYTE   N11
 BYTE   W12
 BYTE   N11
 BYTE   N11  Ds4  v088
 BYTE   W12
 BYTE   Fs2  v072
 BYTE   N19  Fn4  v088
 BYTE   W12
 BYTE   N11  Fs2  v044
 BYTE   W06
 BYTE   W01
 BYTE   N16  Fs4  v088
 BYTE   W05
 BYTE   N11  Fs2  v044
 BYTE   W12
 BYTE   N11
 BYTE   N11  Cn5  v088
 BYTE   W12
//  #07 //022   ----------------------------------------
 BYTE   Fs2  v072
 BYTE   N23  Bn4  v088
 BYTE   W12
 BYTE   N11  Fs2  v044
 BYTE   W12
 BYTE   N11
 BYTE   W12
 BYTE   N11
 BYTE   N11  Ds4  v088
 BYTE   W12
 BYTE   Fs2  v072
 BYTE   N19  Fn4  v088
 BYTE   W12
 BYTE   N11  Fs2  v044
 BYTE   W06
 BYTE   W01
 BYTE   N16  Fs4  v088
 BYTE   W05
 BYTE   N11  Fs2  v044
 BYTE   W12
 BYTE   N11
 BYTE   N11  Bn4  v088
 BYTE   W12
//  #07 //023   ----------------------------------------
 BYTE   Fn2  v072
 BYTE   N32  As4  v088
 BYTE   W12
 BYTE   N11  Fn2  v044
 BYTE   W12
 BYTE   N11
 BYTE   W12
 BYTE   N11
 BYTE   N07  Cn5  v088
 BYTE   W06
 BYTE   W01
 BYTE   N04  As4
 BYTE   W05
 BYTE   N11  Fn2  v072
 BYTE   N44  An4  v088
 BYTE   W12
 BYTE   N11  Fn2  v044
 BYTE   W12
 BYTE   N11
 BYTE   W12
 BYTE   N11
 BYTE   W12
//  #07 //024   ----------------------------------------
 BYTE   N92  Fs2  v048
 BYTE   N44  As4  v088
 BYTE   W48
 BYTE   N19
 BYTE   W18
 BYTE   W01
 BYTE   N16  Gs4
 BYTE   W05
 BYTE   W12
 BYTE   N11  Fs4
 BYTE   W12
//  #07 //025   ----------------------------------------
 BYTE   N44  Fs2  v048
 BYTE   N44  Gs4  v088
 BYTE   W48
 BYTE   N23  Ds2  v048
 BYTE   N44  Cs4  v088
 BYTE   W24
 BYTE   N23  Fs2  v048
 BYTE   W24
//  #07 //026   ----------------------------------------
 BYTE   N92  Fn2
 BYTE   N92  Ds4  v088
 BYTE   W96
//  #07 //027   ----------------------------------------
 BYTE   N23  Fn2  v048
 BYTE   N23  Gs4  v088
 BYTE   W24
 BYTE   Fn2  v048
 BYTE   N23  Gs4  v088
 BYTE   W24
 BYTE   N19  Fn2  v048
 BYTE   N19  Gs4  v088
 BYTE   W18
 BYTE   W01
 BYTE   N04  Fn2  v048
 BYTE   N04  Gs4  v088
 BYTE   W17
 BYTE   N11  Fn2  v048
 BYTE   N11  Gs4  v088
 BYTE   W12
//  #07 //028   ----------------------------------------
 BYTE   N23  Fn2  v048
 BYTE   N23  As4  v088
 BYTE   W96
//  #07 //029   ----------------------------------------
 BYTE   W96
//  #07 //030   ----------------------------------------
 BYTE   W96
//  #07 //031   ----------------------------------------
 BYTE   W96
//  #07 //032   ----------------------------------------
 BYTE   W96
//  #07 //033   ----------------------------------------
 BYTE   W96
//  #07 //034   ----------------------------------------
 BYTE   W96
//  #07 //035   ----------------------------------------
 BYTE   W96
//  #07 //036   ----------------------------------------
Label_013CEAB6:
 BYTE   N11  Fn2  v072
 BYTE   W12
 BYTE   Fn2  v044
 BYTE   W12
 BYTE   N11
 BYTE   W12
 BYTE   N11
 BYTE   W12
 BYTE   Fn2  v072
 BYTE   W12
 BYTE   Fn2  v044
 BYTE   W12
 BYTE   N11
 BYTE   W12
 BYTE   N11
 BYTE   W12
 BYTE   PEND 
//  #07 //037   ----------------------------------------
 BYTE   PATT
  POIN2 Label_013CEAB6
//  #07 //038   ----------------------------------------
Label_013CEAD1:
 BYTE   N11  Fn2  v072
 BYTE   W12
 BYTE   Fn2  v044
 BYTE   W12
 BYTE   Fn2  v072
 BYTE   W12
 BYTE   Fn2  v044
 BYTE   W12
 BYTE   Fn2  v072
 BYTE   W12
 BYTE   Fn2  v044
 BYTE   W12
 BYTE   N11
 BYTE   W12
 BYTE   N11
 BYTE   W12
 BYTE   PEND 
//  #07 //039   ----------------------------------------
 BYTE   PATT
  POIN2 Label_013CEAB6
//  #07 //040   ----------------------------------------
 BYTE   PATT
  POIN2 Label_013CEAB6
//  #07 //041   ----------------------------------------
Label_013CEAF3:
 BYTE   N11  Fn2  v072
 BYTE   W12
 BYTE   Fn2  v044
 BYTE   W12
 BYTE   N11
 BYTE   W12
 BYTE   Fn2  v072
 BYTE   W12
 BYTE   Fn2  v044
 BYTE   W12
 BYTE   N11
 BYTE   W12
 BYTE   Fn2  v072
 BYTE   W12
 BYTE   Fn2  v044
 BYTE   W12
 BYTE   PEND 
//  #07 //042   ----------------------------------------
 BYTE   PATT
  POIN2 Label_013CEAF3
//  #07 //043   ----------------------------------------
 BYTE   PATT
  POIN2 Label_013CEAF3
//  #07 //044   ----------------------------------------
Label_013CEB15:
 BYTE   N11  Ds2  v072
 BYTE   W12
 BYTE   Ds2  v044
 BYTE   W12
 BYTE   N11
 BYTE   W12
 BYTE   N11
 BYTE   W12
 BYTE   Ds2  v072
 BYTE   W12
 BYTE   Ds2  v044
 BYTE   W12
 BYTE   N11
 BYTE   W12
 BYTE   N11
 BYTE   W12
 BYTE   PEND 
//  #07 //045   ----------------------------------------
Label_013CEB2B:
 BYTE   N11  Fn2  v072
 BYTE   W12
 BYTE   Fn2  v044
 BYTE   W12
 BYTE   N11
 BYTE   W12
 BYTE   N11
 BYTE   W12
 BYTE   Fn2  v072
 BYTE   W12
 BYTE   Fn2  v044
 BYTE   W12
 BYTE   Fn2  v072
 BYTE   W12
 BYTE   Fn2  v044
 BYTE   W12
 BYTE   PEND 
//  #07 //046   ----------------------------------------
 BYTE   PATT
  POIN2 Label_013CEAF3
//  #07 //047   ----------------------------------------
Label_013CEB48:
 BYTE   N11  Gs2  v072
 BYTE   W12
 BYTE   Gs2  v044
 BYTE   W12
 BYTE   N11
 BYTE   W12
 BYTE   Gs2  v072
 BYTE   W12
 BYTE   Gs2  v044
 BYTE   W12
 BYTE   N11
 BYTE   W12
 BYTE   Gs2  v072
 BYTE   W12
 BYTE   Gs2  v044
 BYTE   W12
 BYTE   PEND 
//  #07 //048   ----------------------------------------
Label_013CEB60:
 BYTE   N11  Gn2  v072
 BYTE   W12
 BYTE   Gn2  v044
 BYTE   W12
 BYTE   N11
 BYTE   W12
 BYTE   N11
 BYTE   W12
 BYTE   Gn2  v072
 BYTE   W12
 BYTE   Gn2  v044
 BYTE   W12
 BYTE   N11
 BYTE   W12
 BYTE   N11
 BYTE   W12
 BYTE   PEND 
//  #07 //049   ----------------------------------------
Label_013CEB76:
 BYTE   N11  Gn2  v072
 BYTE   W12
 BYTE   Gn2  v044
 BYTE   W12
 BYTE   N11
 BYTE   W12
 BYTE   Gn2  v072
 BYTE   W12
 BYTE   Gn2  v044
 BYTE   W12
 BYTE   N11
 BYTE   W12
 BYTE   Gn2  v072
 BYTE   W12
 BYTE   Gn2  v044
 BYTE   W12
 BYTE   PEND 
//  #07 //050   ----------------------------------------
 BYTE   PATT
  POIN2 Label_013CEAF3
//  #07 //051   ----------------------------------------
 BYTE   N11  Fn2  v108
 BYTE   W12
 BYTE   Fn2  v044
 BYTE   W12
 BYTE   N11
 BYTE   W12
 BYTE   Gn2  v108
 BYTE   W12
 BYTE   Gn2  v044
 BYTE   W12
 BYTE   N11
 BYTE   W12
 BYTE   An2  v108
 BYTE   W12
 BYTE   An2  v044
 BYTE   W12
//  #07 //052   ----------------------------------------
 BYTE   N92  Fn3  v056
 BYTE   N44  Ds4  v064
 BYTE   W48
 BYTE   Cs4
 BYTE   W48
//  #07 //053   ----------------------------------------
 BYTE   N23  Fn3  v056
 BYTE   N23  Cn4  v064
 BYTE   W24
 BYTE   Ds3  v056
 BYTE   N23  As3  v064
 BYTE   W24
 BYTE   Cs3  v056
 BYTE   N23  An3  v064
 BYTE   W24
 BYTE   Cn3  v056
 BYTE   N23  As3  v064
 BYTE   W24
//  #07 //054   ----------------------------------------
 BYTE   TIE  As2  v056
 BYTE   N92  Fn3  v064
 BYTE   W96
//  #07 //055   ----------------------------------------
 BYTE   N23
 BYTE   W23
 BYTE   EOT
 BYTE   As2
 BYTE   W01
 BYTE   N23  As2  v056
 BYTE   N23  As3  v064
 BYTE   W24
 BYTE   An2  v056
 BYTE   N23  Cn4  v064
 BYTE   W24
 BYTE   As2  v056
 BYTE   N23  Cs4  v064
 BYTE   W24
//  #07 //056   ----------------------------------------
 BYTE   N32  Cn3  v056
 BYTE   N44  Ds4  v064
 BYTE   W36
 BYTE   N56  Cs3  v056
 BYTE   W12
 BYTE   N44  Cs4  v064
 BYTE   W48
//  #07 //057   ----------------------------------------
 BYTE   N23  Cn3  v056
 BYTE   N23  Cn4  v064
 BYTE   W24
 BYTE   Cs3  v056
 BYTE   N23  As3  v064
 BYTE   W24
 BYTE   Cn3  v056
 BYTE   N23  An3  v064
 BYTE   W24
 BYTE   As2  v056
 BYTE   N23  As3  v064
 BYTE   W24
//  #07 //058   ----------------------------------------
 BYTE   Fn2  v056
 BYTE   N23  Fn3  v064
 BYTE   W24
 BYTE   Fn2  v056
 BYTE   N44  Cs4  v064
 BYTE   W24
 BYTE   N19  As2  v056
 BYTE   W18
 BYTE   W01
 BYTE   N16  Cn3
 BYTE   W05
 BYTE   N23  Cs4  v064
 BYTE   W12
 BYTE   N11  Cs3  v056
 BYTE   W12
//  #07 //059   ----------------------------------------
 BYTE   N23  Ds3
 BYTE   N23  Cn4  v064
 BYTE   W24
 BYTE   Cs3  v056
 BYTE   N23  As3  v064
 BYTE   W24
 BYTE   Cn3  v056
 BYTE   N23  An3  v064
 BYTE   W24
 BYTE   As2  v056
 BYTE   N23  As3  v064
 BYTE   W24
//  #07 //060   ----------------------------------------
 BYTE   N92  Gs2  v056
 BYTE   N68  Bn3  v064
 BYTE   W72
 BYTE   N23
 BYTE   W24
//  #07 //061   ----------------------------------------
 BYTE   N92  As2  v056
 BYTE   N32  As3  v064
 BYTE   W36
 BYTE   Gs4
 BYTE   W12
 BYTE   W24
 BYTE   N23  Fn4
 BYTE   W24
//  #07 //062   ----------------------------------------
 BYTE   N44  As2  v056
 BYTE   N11  Fs4  v064
 BYTE   W12
 BYTE   As3
 BYTE   W12
 BYTE   Ds4
 BYTE   W12
 BYTE   Fs4
 BYTE   W12
 BYTE   N44  Cs3  v056
 BYTE   N11  Gs4  v064
 BYTE   W12
 BYTE   Cs4
 BYTE   W12
 BYTE   Fn4
 BYTE   W12
 BYTE   Gs4
 BYTE   W12
//  #07 //063   ----------------------------------------
 BYTE   N44  Cs3  v056
 BYTE   N11  As4  v064
 BYTE   W12
 BYTE   Cs4
 BYTE   W12
 BYTE   Fs4
 BYTE   W12
 BYTE   As4
 BYTE   W12
 BYTE   N44  As2  v056
 BYTE   N23  Gn4  v064
 BYTE   W24
 BYTE   As4
 BYTE   W24
//  #07 //064   ----------------------------------------
 BYTE   N92  Bn2  v056
 BYTE   N23  Bn4  v064
 BYTE   W24
 BYTE   As4
 BYTE   W24
 BYTE   Gs4
 BYTE   W24
 BYTE   Fs4
 BYTE   W24
//  #07 //065   ----------------------------------------
 BYTE   As2  v056
 BYTE   N44  Fn4  v064
 BYTE   W24
 BYTE   N23  Gs2  v056
 BYTE   W24
 BYTE   Fs2
 BYTE   N44  Dn4  v064
 BYTE   W24
 BYTE   N23  Fn2  v056
 BYTE   W24
//  #07 //066   ----------------------------------------
 BYTE   N92  Ds2
 BYTE   N92  Ds4  v064
 BYTE   W96
//  #07 //067   ----------------------------------------
 BYTE   N11  As1  v056
 BYTE   N11  Dn4  v064
 BYTE   W12
 BYTE   As1  v056
 BYTE   N11  Dn4  v064
 BYTE   W24
 BYTE   As1  v056
 BYTE   N11  Dn4  v064
 BYTE   W24
 BYTE   N32  As1  v056
 BYTE   N32  Dn4  v064
 BYTE   W36
//  #07 //068   ----------------------------------------
Label_013CECCD:
 BYTE   N92  Ds2  v056
 BYTE   N23  As3  v092
 BYTE   W24
 BYTE   Gs4
 BYTE   W24
 BYTE   Fs4
 BYTE   W24
 BYTE   Fn4
 BYTE   W24
 BYTE   PEND 
//  #07 //069   ----------------------------------------
Label_013CECDB:
 BYTE   N23  Ds2  v056
 BYTE   N44  Fs4  v092
 BYTE   W24
 BYTE   N23  Fn2  v056
 BYTE   W24
 BYTE   Fs2
 BYTE   N44  Ds4  v092
 BYTE   W24
 BYTE   N23  Ds2  v056
 BYTE   W24
 BYTE   PEND 
//  #07 //070   ----------------------------------------
 BYTE   N92  Cs2
 BYTE   N23  Cs4  v092
 BYTE   W24
 BYTE   As4
 BYTE   W24
 BYTE   Gs4
 BYTE   W24
 BYTE   Fs4
 BYTE   W24
//  #07 //071   ----------------------------------------
 BYTE   N44  Cs2  v056
 BYTE   N44  Gs4  v092
 BYTE   W48
 BYTE   Cs2  v056
 BYTE   N44  Fn4  v092
 BYTE   W48
//  #07 //072   ----------------------------------------
 BYTE   PATT
  POIN2 Label_013CECCD
//  #07 //073   ----------------------------------------
 BYTE   PATT
  POIN2 Label_013CECDB
//  #07 //074   ----------------------------------------
 BYTE   N92  Gs2  v056
 BYTE   N23  Ds4  v092
 BYTE   W24
 BYTE   Dn4
 BYTE   W24
 BYTE   Ds4
 BYTE   W24
 BYTE   Fn4
 BYTE   W24
//  #07 //075   ----------------------------------------
 BYTE   N44  Fs2  v056
 BYTE   N44  Fs4  v092
 BYTE   W48
 BYTE   Fn2  v056
 BYTE   N44  Fn4  v092
 BYTE   W48
//  #07 //076   ----------------------------------------
 BYTE   N92  Ds2  v056
 BYTE   N23  As3  v080
 BYTE   W24
 BYTE   Gs4
 BYTE   W24
 BYTE   Fs4
 BYTE   W24
 BYTE   Fn4
 BYTE   W24
//  #07 //077   ----------------------------------------
 BYTE   Ds2  v056
 BYTE   N44  Fs4  v080
 BYTE   W24
 BYTE   N23  Fn2  v056
 BYTE   W24
 BYTE   Fs2
 BYTE   N44  Ds4  v080
 BYTE   W24
 BYTE   N23  Ds2  v056
 BYTE   W24
//  #07 //078   ----------------------------------------
 BYTE   N92  Cs2
 BYTE   N23  Cs4  v080
 BYTE   W24
 BYTE   As4
 BYTE   W24
 BYTE   Gs4
 BYTE   W24
 BYTE   Fs4
 BYTE   W24
//  #07 //079   ----------------------------------------
 BYTE   N44  Ds2  v056
 BYTE   N44  Gs4  v080
 BYTE   W48
 BYTE   Ds2  v056
 BYTE   N44  Ds4  v080
 BYTE   W48
//  #07 //080   ----------------------------------------
 BYTE   N92  Fs2  v056
 BYTE   N23  Fs4  v080
 BYTE   W24
 BYTE   Fn4
 BYTE   W24
 BYTE   Fs4
 BYTE   W24
 BYTE   Gs4
 BYTE   W24
//  #07 //081   ----------------------------------------
 BYTE   N44  Fn2  v056
 BYTE   N44  Fn4  v080
 BYTE   W48
 BYTE   Fn2  v056
 BYTE   N44  Cs4  v080
 BYTE   W48
//  #07 //082   ----------------------------------------
 BYTE   TIE  Ds4  v072
 BYTE   W12
 BYTE   N11  As2  v092
 BYTE   W12
 BYTE   N23
 BYTE   W24
 BYTE   N11  Bn2
 BYTE   W12
 BYTE   N11
 BYTE   W24
 BYTE   Cs3
 BYTE   W12
//  #07 //083   ----------------------------------------
 BYTE   N23
 BYTE   W24
 BYTE   N11  Bn2
 BYTE   W12
 BYTE   N11
 BYTE   W24
 BYTE   As2
 BYTE   W24
 BYTE   Gs2
 BYTE   W11
 BYTE   EOT
 BYTE   Ds4
 BYTE   W01
//  #07 //084   ----------------------------------------
 BYTE   W12
 BYTE   N11  As2  v080
 BYTE   N11  Ds4
 BYTE   W12
 BYTE   N23  As2
 BYTE   N23  Ds4
 BYTE   W24
 BYTE   N11  Bn2
 BYTE   N11  En4
 BYTE   W12
 BYTE   Bn2
 BYTE   N11  En4
 BYTE   W24
 BYTE   Cs3
 BYTE   N11  Fs4
 BYTE   W12
//  #07 //085   ----------------------------------------
 BYTE   N23  Cs3
 BYTE   N23  Fs4
 BYTE   W24
 BYTE   N11  Bn2
 BYTE   N11  En4
 BYTE   W12
 BYTE   Bn2
 BYTE   N11  En4
 BYTE   W24
 BYTE   As2
 BYTE   N11  Ds4
 BYTE   W24
 BYTE   Bn2
 BYTE   N11  En4
 BYTE   W12
//  #07 //086   ----------------------------------------
 BYTE   W12
 BYTE   Fn2
 BYTE   N11  As2
 BYTE   W12
 BYTE   N23  Fn2
 BYTE   N23  As2
 BYTE   W24
 BYTE   N11  Fs2
 BYTE   N11  Bn2
 BYTE   W12
 BYTE   Fs2
 BYTE   N11  Bn2
 BYTE   W24
 BYTE   Gs2
 BYTE   N11  Cs3
 BYTE   W12
//  #07 //087   ----------------------------------------
 BYTE   N23  Gs2
 BYTE   N23  Cs3
 BYTE   W24
 BYTE   N11  Fs2
 BYTE   N11  Bn2
 BYTE   W12
 BYTE   Fs2
 BYTE   N11  Bn2
 BYTE   W24
 BYTE   Fn2
 BYTE   N11  As2
 BYTE   W24
 BYTE   Ds2
 BYTE   N11  Gs2
 BYTE   W12
//  #07 //088   ----------------------------------------
 BYTE   W12
 BYTE   Fn2
 BYTE   N11  As4
 BYTE   W12
 BYTE   N23  Fn2
 BYTE   N23  As4
 BYTE   W24
 BYTE   N11  Fs2
 BYTE   N11  Bn4
 BYTE   W12
 BYTE   Fs2
 BYTE   N11  Bn4
 BYTE   W24
 BYTE   Fs2
 BYTE   N11  Bn4
 BYTE   W12
//  #07 //089   ----------------------------------------
 BYTE   N44  Fn2
 BYTE   N44  As4
 BYTE   W48
 BYTE   Fn2
 BYTE   N44  An4
 BYTE   W48
//  #07 //090   ----------------------------------------
 BYTE   GoTo
  POIN2 Label_013CE8C2
//  #07 //091   ----------------------------------------
Label_013CEE20:
 BYTE   N11  As1  v100
 BYTE   N11  Cs3
 BYTE   W12
 BYTE   As1  v068
 BYTE   N11  Cs3
 BYTE   W24
 BYTE   As1
 BYTE   N11  Cs3
 BYTE   W12
 BYTE   As1  v100
 BYTE   N11  Cs3
 BYTE   W12
 BYTE   As1  v068
 BYTE   N11  Cs3
 BYTE   W24
 BYTE   As1
 BYTE   N11  Cs3
 BYTE   W12
 BYTE   PEND 
//  #07 //092   ----------------------------------------
Label_013CEE3E:
 BYTE   N11  As1  v100
 BYTE   N11  Ds3
 BYTE   W12
 BYTE   As1  v068
 BYTE   N11  Ds3
 BYTE   W24
 BYTE   As1
 BYTE   N11  Ds3
 BYTE   W12
 BYTE   As1  v100
 BYTE   N11  Ds3
 BYTE   W12
 BYTE   As1  v068
 BYTE   N11  Ds3
 BYTE   W24
 BYTE   As1
 BYTE   N11  Ds3
 BYTE   W12
 BYTE   PEND 
//  #07 //093   ----------------------------------------
Label_013CEE5C:
 BYTE   N11  As1  v100
 BYTE   N11  Cn3
 BYTE   W12
 BYTE   As1  v068
 BYTE   N11  Cn3
 BYTE   W24
 BYTE   As1
 BYTE   N11  Cn3
 BYTE   W12
 BYTE   As1  v100
 BYTE   N11  Cn3
 BYTE   W12
 BYTE   As1  v068
 BYTE   N11  Cn3
 BYTE   W24
 BYTE   As1
 BYTE   N11  Cn3
 BYTE   W12
 BYTE   PEND 
//  #07 //094   ----------------------------------------
 BYTE   PATT
  POIN2 Label_013CEE20
//  #07 //095   ----------------------------------------
 BYTE   PATT
  POIN2 Label_013CEE20
//  #07 //096   ----------------------------------------
 BYTE   PATT
  POIN2 Label_013CEE3E
//  #07 //097   ----------------------------------------
 BYTE   PATT
  POIN2 Label_013CEE3E
//  #07 //098   ----------------------------------------
 BYTE   PATT
  POIN2 Label_013CEE5C
//  #07 //099   ----------------------------------------
 BYTE   PATT
  POIN2 Label_013CEE20
//  #07 //100   ----------------------------------------
 BYTE   PATT
  POIN2 Label_013CEE3E
//  #07 //101   ----------------------------------------
 BYTE   PATT
  POIN2 Label_013CEE5C
//  #07 //102   ----------------------------------------
 BYTE   PATT
  POIN2 Label_013CEE20
//  #07 //103   ----------------------------------------
 BYTE   N11  Fs1  v100
 BYTE   N11  Cs3
 BYTE   W12
 BYTE   Fs1  v068
 BYTE   N11  Cs3
 BYTE   W24
 BYTE   Fs1
 BYTE   N11  Cs3
 BYTE   W12
 BYTE   Fs1  v100
 BYTE   N11  Cs3
 BYTE   W12
 BYTE   Fs1  v068
 BYTE   N11  Cs3
 BYTE   W24
 BYTE   Fs1
 BYTE   N11  Cs3
 BYTE   W12
//  #07 //104   ----------------------------------------
 BYTE   Fn1  v100
 BYTE   N11  Ds3
 BYTE   W12
 BYTE   Fn1  v068
 BYTE   N11  Ds3
 BYTE   W24
 BYTE   Fn1
 BYTE   N11  Ds3
 BYTE   W12
 BYTE   Fn1  v100
 BYTE   N11  Ds3
 BYTE   W12
 BYTE   Fn1  v068
 BYTE   N11  Ds3
 BYTE   W24
 BYTE   Fn1
 BYTE   N11  Ds3
 BYTE   W12
//  #07 //105   ----------------------------------------
 BYTE   Ds1  v100
 BYTE   N11  Ds3
 BYTE   W12
 BYTE   Ds1  v068
 BYTE   N11  Ds3
 BYTE   W24
 BYTE   Ds1
 BYTE   N11  Ds3
 BYTE   W12
 BYTE   Ds1  v100
 BYTE   N11  Ds3
 BYTE   W12
 BYTE   Ds1  v068
 BYTE   N11  Ds3
 BYTE   W24
 BYTE   Ds1
 BYTE   N11  Ds3
 BYTE   W12
//  #07 //106   ----------------------------------------
 BYTE   Fn1  v100
 BYTE   N11  Cn3
 BYTE   W12
 BYTE   Fn1  v068
 BYTE   N11  Cn3
 BYTE   W24
 BYTE   Fn1
 BYTE   N11  Cn3
 BYTE   W12
 BYTE   Fn1  v100
 BYTE   N11  Cn3
 BYTE   W12
 BYTE   Fn1  v068
 BYTE   N11  Cn3
 BYTE   W12
 BYTE   N03  An3  v044
 BYTE   W01
 BYTE   W02
 BYTE   W01
 BYTE   As3  v048
 BYTE   W02
 BYTE   W01
 BYTE   W01
 BYTE   Cn4
 BYTE   W01
 BYTE   W01
 BYTE   W02
 BYTE   N11  Fn1  v068
 BYTE   N03  Cs4  v056
 BYTE   W01
 BYTE   W02
 BYTE   W01
 BYTE   Ds4
 BYTE   W02
 BYTE   W01
 BYTE   W01
 BYTE   Fn4  v060
 BYTE   W01
 BYTE   W01
 BYTE   W02
//  #07 //107   ----------------------------------------
 BYTE   PATT
  POIN2 Label_013CE8C2
//  #07 //108   ----------------------------------------
 BYTE   PATT
  POIN2 Label_013CE8CB
//  #07 //109   ----------------------------------------
 BYTE   EOT
 BYTE   Cn2
 BYTE   W01
//  #07 //110   ----------------------------------------
 BYTE   PATT
  POIN2 Label_013CE8D6
//  #07 //111   ----------------------------------------
 BYTE   PATT
  POIN2 Label_013CE8DF
//  #07 //112   ----------------------------------------
 BYTE   EOT
 BYTE   Fn2
 BYTE   W01
Label_013CEF4F:
 BYTE   N11  As1  v032
 BYTE   W12
 BYTE   N11
 BYTE   N11  As4  v064
 BYTE   W12
 BYTE   As1  v032
 BYTE   N23  As4  v064
 BYTE   W12
 BYTE   N11  As1  v032
 BYTE   W12
 BYTE   N11
 BYTE   N11  As4  v064
 BYTE   W12
 BYTE   As1  v032
 BYTE   N11  As4  v064
 BYTE   W12
 BYTE   As1  v032
 BYTE   W12
 BYTE   N11
 BYTE   N11  Gs4  v064
 BYTE   W12
 BYTE   PEND 
//  #07 //113   ----------------------------------------
Label_013CEF76:
 BYTE   N11  As1  v032
 BYTE   W12
 BYTE   N11
 BYTE   N11  Ds4  v064
 BYTE   W12
 BYTE   As1  v032
 BYTE   N11  As3  v064
 BYTE   W12
 BYTE   As1  v032
 BYTE   N11  Gs4  v064
 BYTE   W12
 BYTE   As1  v032
 BYTE   W12
 BYTE   N11
 BYTE   N11  Ds4  v064
 BYTE   W12
 BYTE   As1  v032
 BYTE   N11  As3  v064
 BYTE   W12
 BYTE   As1  v032
 BYTE   N11  Ds4  v064
 BYTE   W12
 BYTE   PEND 
//  #07 //114   ----------------------------------------
Label_013CEFA0:
 BYTE   N11  As1  v032
 BYTE   W12
 BYTE   N11
 BYTE   N11  As4  v064
 BYTE   W12
 BYTE   As1  v032
 BYTE   N23  As4  v064
 BYTE   W12
 BYTE   N11  As1  v032
 BYTE   W12
 BYTE   N11
 BYTE   N11  As4  v064
 BYTE   W12
 BYTE   As1  v032
 BYTE   N11  As4  v064
 BYTE   W12
 BYTE   As1  v032
 BYTE   W12
 BYTE   N11
 BYTE   N11  Bn4  v064
 BYTE   W12
 BYTE   PEND 
//  #07 //115   ----------------------------------------
Label_013CEFC7:
 BYTE   N11  As1  v032
 BYTE   W12
 BYTE   N11
 BYTE   N11  En4  v064
 BYTE   W12
 BYTE   As1  v032
 BYTE   N11  Bn3  v064
 BYTE   W12
 BYTE   As1  v032
 BYTE   N11  Bn4  v064
 BYTE   W12
 BYTE   As1  v032
 BYTE   W12
 BYTE   N11
 BYTE   N11  En4  v064
 BYTE   W12
 BYTE   As1  v032
 BYTE   N11  Bn3  v064
 BYTE   W12
 BYTE   As1  v032
 BYTE   N11  En4  v064
 BYTE   W12
 BYTE   PEND 
//  #07 //116   ----------------------------------------
 BYTE   PATT
  POIN2 Label_013CEF4F
//  #07 //117   ----------------------------------------
 BYTE   PATT
  POIN2 Label_013CEF76
//  #07 //118   ----------------------------------------
Label_013CEFFB:
 BYTE   N11  As1  v032
 BYTE   W12
 BYTE   N11
 BYTE   N11  As4  v064
 BYTE   W12
 BYTE   As1  v032
 BYTE   N23  As4  v064
 BYTE   W12
 BYTE   N11  As1  v032
 BYTE   W12
 BYTE   N11
 BYTE   N11  As4  v064
 BYTE   W12
 BYTE   As1  v032
 BYTE   N11  As4  v064
 BYTE   W12
 BYTE   As1  v032
 BYTE   W12
 BYTE   N23  Cs2
 BYTE   N23  Cs5  v064
 BYTE   W12
 BYTE   PEND 
//  #07 //119   ----------------------------------------
Label_013CF023:
 BYTE   W12
 BYTE   N11  Bn1  v032
 BYTE   N11  Bn4  v064
 BYTE   W12
 BYTE   As1  v032
 BYTE   N11  As4  v064
 BYTE   W12
 BYTE   Bn1  v032
 BYTE   N11  Bn4  v064
 BYTE   W12
 BYTE   N23  Fs1  v032
 BYTE   N23  Fs4  v064
 BYTE   W24
 BYTE   Gs1  v032
 BYTE   N23  Gs4  v064
 BYTE   W24
 BYTE   PEND 
//  #07 //120   ----------------------------------------
Label_013CF045:
 BYTE   W48
 BYTE   N11  En5  v064
 BYTE   W12
 BYTE   Bn4
 BYTE   W12
 BYTE   N23  Fs4
 BYTE   W24
 BYTE   PEND 
//  #07 //121   ----------------------------------------
Label_013CF050:
 BYTE   W24
 BYTE   N11  As4  v064
 BYTE   W12
 BYTE   Fn4
 BYTE   W12
 BYTE   Cn4
 BYTE   W12
 BYTE   Ds4
 BYTE   W12
 BYTE   Gs4
 BYTE   W12
 BYTE   Cs5
 BYTE   W12
 BYTE   PEND 
//  #07 //122   ----------------------------------------
 BYTE   PATT
  POIN2 Label_013CEAB6
//  #07 //123   ----------------------------------------
 BYTE   PATT
  POIN2 Label_013CEAB6
//  #07 //124   ----------------------------------------
 BYTE   PATT
  POIN2 Label_013CEAD1
//  #07 //125   ----------------------------------------
 BYTE   PATT
  POIN2 Label_013CEAB6
//  #07 //126   ----------------------------------------
 BYTE   PATT
  POIN2 Label_013CEAB6
//  #07 //127   ----------------------------------------
 BYTE   PATT
  POIN2 Label_013CEAF3
//  #07 //128   ----------------------------------------
 BYTE   PATT
  POIN2 Label_013CEAF3
//  #07 //129   ----------------------------------------
 BYTE   PATT
  POIN2 Label_013CEAF3
//  #07 //130   ----------------------------------------
 BYTE   PATT
  POIN2 Label_013CEB15
//  #07 //131   ----------------------------------------
 BYTE   PATT
  POIN2 Label_013CEB2B
//  #07 //132   ----------------------------------------
 BYTE   PATT
  POIN2 Label_013CEAF3
//  #07 //133   ----------------------------------------
 BYTE   PATT
  POIN2 Label_013CEB48
//  #07 //134   ----------------------------------------
 BYTE   PATT
  POIN2 Label_013CEB60
//  #07 //135   ----------------------------------------
 BYTE   PATT
  POIN2 Label_013CEB76
//  #07 //136   ----------------------------------------
 BYTE   PATT
  POIN2 Label_013CEAF3
//  #07 //137   ----------------------------------------
 BYTE   N23  Fn2  v108
 BYTE   W36
 BYTE   N11  Gn2
 BYTE   W36
 BYTE   N23  An2
 BYTE   W24
//  #07 //138   ----------------------------------------
Label_013CF0B5:
 BYTE   TIE  Fn2  v048
 BYTE   N44  Ds4  v064
 BYTE   W48
 BYTE   Cs4
 BYTE   W48
 BYTE   PEND 
//  #07 //139   ----------------------------------------
Label_013CF0BF:
 BYTE   N23  Cn4  v064
 BYTE   W24
 BYTE   As3
 BYTE   W24
 BYTE   An3
 BYTE   W24
 BYTE   As3
 BYTE   W24
 BYTE   PEND 
//  #07 //140   ----------------------------------------
 BYTE   N92  Fn3
 BYTE   W96
//  #07 //141   ----------------------------------------
 BYTE   N23
 BYTE   W24
 BYTE   As3
 BYTE   W24
 BYTE   Cn4
 BYTE   W24
 BYTE   Cs4
 BYTE   W23
 BYTE   EOT
 BYTE   Fn2
 BYTE   W01
//  #07 //142   ----------------------------------------
 BYTE   PATT
  POIN2 Label_013CF0B5
//  #07 //143   ----------------------------------------
 BYTE   PATT
  POIN2 Label_013CF0BF
//  #07 //144   ----------------------------------------
 BYTE   N23  Fn3  v064
 BYTE   W24
 BYTE   N44  Cs4
 BYTE   W48
 BYTE   N23
 BYTE   W24
//  #07 //145   ----------------------------------------
 BYTE   Cn4
 BYTE   W24
 BYTE   As3
 BYTE   W24
 BYTE   An3
 BYTE   W24
 BYTE   As3
 BYTE   W23
 BYTE   EOT
 BYTE   Fn2
 BYTE   W01
//  #07 //146   ----------------------------------------
 BYTE   N92  Fn2  v048
 BYTE   N68  Bn3  v064
 BYTE   W72
 BYTE   N23
 BYTE   W24
//  #07 //147   ----------------------------------------
 BYTE   N44  Fn2  v048
 BYTE   N32  As3  v064
 BYTE   W36
 BYTE   Gs4
 BYTE   W12
 BYTE   N23  Ds2  v048
 BYTE   W24
 BYTE   Dn2
 BYTE   N23  Fn4  v064
 BYTE   W24
//  #07 //148   ----------------------------------------
 BYTE   N44  Ds2  v048
 BYTE   N11  Fs4  v064
 BYTE   W12
 BYTE   As3
 BYTE   W12
 BYTE   Ds4
 BYTE   W12
 BYTE   Fs4
 BYTE   W12
 BYTE   N44  Fn2  v048
 BYTE   N11  Gs4  v064
 BYTE   W12
 BYTE   Cs4
 BYTE   W12
 BYTE   Fn4
 BYTE   W12
 BYTE   Gs4
 BYTE   W12
//  #07 //149   ----------------------------------------
 BYTE   N44  Fs2  v048
 BYTE   N11  As4  v064
 BYTE   W12
 BYTE   Cs4
 BYTE   W12
 BYTE   Fs4
 BYTE   W12
 BYTE   As4
 BYTE   W12
 BYTE   N44  Gn2  v048
 BYTE   N23  Gn4  v064
 BYTE   W24
 BYTE   As4
 BYTE   W24
//  #07 //150   ----------------------------------------
 BYTE   N92  Gs2  v048
 BYTE   N23  Bn4  v064
 BYTE   W24
 BYTE   As4
 BYTE   W24
 BYTE   Gs4
 BYTE   W24
 BYTE   Fs4
 BYTE   W24
//  #07 //151   ----------------------------------------
 BYTE   N44  Fn4
 BYTE   W48
 BYTE   Dn4
 BYTE   W48
//  #07 //152   ----------------------------------------
 BYTE   N11  Ds1  v048
 BYTE   W12
 BYTE   N11
 BYTE   W12
 BYTE   Fn1
 BYTE   N23  Ds5  v064
 BYTE   W12
 BYTE   Fs1  v048
 BYTE   W12
 BYTE   Ds5  v064
 BYTE   W12
 BYTE   N11  Fn1  v048
 BYTE   W12
 BYTE   N23  Fs1
 BYTE   N23  Ds5  v064
 BYTE   W24
//  #07 //153   ----------------------------------------
 BYTE   N11  Fn1  v048
 BYTE   N23  Ds5  v064
 BYTE   W12
 BYTE   Fs1  v048
 BYTE   W12
 BYTE   Ds5  v064
 BYTE   W12
 BYTE   N11  Fn1  v048
 BYTE   W12
 BYTE   Fs1
 BYTE   N23  Ds5  v064
 BYTE   W12
 BYTE   N11  Fn1  v048
 BYTE   W12
 BYTE   En1
 BYTE   N23  Ds5  v064
 BYTE   W12
 BYTE   N11  Fn1  v048
 BYTE   W12
//  #07 //154   ----------------------------------------
 BYTE   Ds1
 BYTE   N23  Ds5  v064
 BYTE   W12
 BYTE   N11  Ds1  v048
 BYTE   W12
 BYTE   Fn1
 BYTE   N23  Ds5  v064
 BYTE   W12
 BYTE   Fs1  v048
 BYTE   W12
 BYTE   Ds5  v064
 BYTE   W12
 BYTE   N11  Fn1  v048
 BYTE   W12
 BYTE   N23  Fs1
 BYTE   N23  Ds5  v064
 BYTE   W24
//  #07 //155   ----------------------------------------
 BYTE   N11  Fn1  v048
 BYTE   N23  Ds5  v064
 BYTE   W12
 BYTE   Fs1  v048
 BYTE   W12
 BYTE   Ds5  v064
 BYTE   W12
 BYTE   N11  Fn1  v048
 BYTE   W12
 BYTE   Fs1
 BYTE   N23  Ds5  v064
 BYTE   W12
 BYTE   N11  Fn1  v048
 BYTE   W12
 BYTE   Fs1
 BYTE   N23  Ds5  v064
 BYTE   W12
 BYTE   N11  Gs1  v048
 BYTE   W12
//  #07 //156   ----------------------------------------
Label_013CF1D2:
 BYTE   N23  Fs4  v064
 BYTE   W96
 BYTE   PEND 
//  #07 //157   ----------------------------------------
 BYTE   Fn4
 BYTE   W96
//  #07 //158   ----------------------------------------
 BYTE   En4
 BYTE   W96
//  #07 //159   ----------------------------------------
 BYTE   N32  Ds4
 BYTE   W36
 BYTE   N07  Fn4
 BYTE   W06
 BYTE   W01
 BYTE   N04  Ds4
 BYTE   W05
 BYTE   N44  Dn4
 BYTE   W48
//  #07 //160   ----------------------------------------
 BYTE   N11  Fn1  v048
 BYTE   W12
 BYTE   N11
 BYTE   W12
 BYTE   Gn1
 BYTE   N23  Fn5  v064
 BYTE   W12
 BYTE   Gs1  v048
 BYTE   W12
 BYTE   Fn5  v064
 BYTE   W12
 BYTE   N11  Gn1  v048
 BYTE   W12
 BYTE   N23  Gs1
 BYTE   N23  Fn5  v064
 BYTE   W24
//  #07 //161   ----------------------------------------
 BYTE   N11  Gn1  v048
 BYTE   N23  Fn5  v064
 BYTE   W12
 BYTE   Gs1  v048
 BYTE   W12
 BYTE   Fn5  v064
 BYTE   W12
 BYTE   N11  Gn1  v048
 BYTE   W12
 BYTE   Gs1
 BYTE   N23  Fn5  v064
 BYTE   W12
 BYTE   N11  Gn1  v048
 BYTE   W12
 BYTE   Fs1
 BYTE   N23  Fn5  v064
 BYTE   W12
 BYTE   N11  Gn1  v048
 BYTE   W12
//  #07 //162   ----------------------------------------
 BYTE   Fn1
 BYTE   N23  Fn5  v064
 BYTE   W12
 BYTE   N11  Fn1  v048
 BYTE   W12
 BYTE   Gn1
 BYTE   N23  Fn5  v064
 BYTE   W12
 BYTE   Gs1  v048
 BYTE   W12
 BYTE   Fn5  v064
 BYTE   W12
 BYTE   N11  Gn1  v048
 BYTE   W12
 BYTE   N23  Gs1
 BYTE   N23  Fn5  v064
 BYTE   W24
//  #07 //163   ----------------------------------------
 BYTE   N11  Gn1  v048
 BYTE   N23  Fn5  v064
 BYTE   W12
 BYTE   Gs1  v048
 BYTE   W12
 BYTE   Fn5  v064
 BYTE   W12
 BYTE   N11  Gn1  v048
 BYTE   W12
 BYTE   Gs1
 BYTE   N23  Fn5  v064
 BYTE   W12
 BYTE   N11  Gn1  v048
 BYTE   W12
 BYTE   Gs1
 BYTE   N23  Fn5  v064
 BYTE   W12
 BYTE   N11  As1  v048
 BYTE   W12
//  #07 //164   ----------------------------------------
 BYTE   N23  Gs4  v064
 BYTE   W96
//  #07 //165   ----------------------------------------
 BYTE   Gn4
 BYTE   W96
//  #07 //166   ----------------------------------------
 BYTE   PATT
  POIN2 Label_013CF1D2
//  #07 //167   ----------------------------------------
 BYTE   N32  Fn4  v064
 BYTE   W36
 BYTE   N07  Gn4
 BYTE   W06
 BYTE   W01
 BYTE   N04  Fn4
 BYTE   W05
 BYTE   N44  En4
 BYTE   W48
//  #07 //168   ----------------------------------------
 BYTE   N23  Gs2
 BYTE   N23  Fn4
 BYTE   W24
 BYTE   Gn2
 BYTE   N23  En4
 BYTE   W24
 BYTE   Gs2
 BYTE   N23  Fn4
 BYTE   W24
 BYTE   As2
 BYTE   N23  Gn4
 BYTE   W24
//  #07 //169   ----------------------------------------
 BYTE   Cn3
 BYTE   N23  Gs4
 BYTE   W24
 BYTE   Cn3
 BYTE   N23  Gn4
 BYTE   W24
 BYTE   Cn3
 BYTE   N23  Gs4
 BYTE   W24
 BYTE   Cn3
 BYTE   N23  An4
 BYTE   W24
//  #07 //170   ----------------------------------------
 BYTE   N92  As1  v048
 BYTE   W48
 BYTE   N44  Fn3  v064
 BYTE   W48
//  #07 //171   ----------------------------------------
 BYTE   N92  Cn2  v048
 BYTE   N32  En3  v064
 BYTE   W36
 BYTE   Fn3
 BYTE   W12
 BYTE   W24
 BYTE   N23  Gn3
 BYTE   W24
//  #07 //172   ----------------------------------------
 BYTE   N92  Fn2  v048
 BYTE   N44  As3  v064
 BYTE   W48
 BYTE   Gs3
 BYTE   W48
//  #07 //173   ----------------------------------------
 BYTE   N92  Ds2  v048
 BYTE   N44  As3  v064
 BYTE   W48
 BYTE   Cn4
 BYTE   W48
//  #07 //174   ----------------------------------------
 BYTE   N92  Cs2  v048
 BYTE   W24
 BYTE   N23  Ds4  v064
 BYTE   W24
 BYTE   Cs4
 BYTE   W24
 BYTE   Cn4
 BYTE   W24
//  #07 //175   ----------------------------------------
 BYTE   N92  Cn2  v048
 BYTE   N44  As3  v064
 BYTE   W48
 BYTE   N23  Gn4
 BYTE   W24
 BYTE   En4
 BYTE   W24
//  #07 //176   ----------------------------------------
 BYTE   TIE  Fn1  v048
 BYTE   N44  Gn4  v064
 BYTE   W48
 BYTE   Fn4
 BYTE   W48
//  #07 //177   ----------------------------------------
 BYTE   Gn4
 BYTE   W48
 BYTE   An4
 BYTE   W44
 BYTE   W03
 BYTE   EOT
 BYTE   Fn1
 BYTE   W01
//  #07 //178   ----------------------------------------
 BYTE   N92  As1  v048
 BYTE   W24
 BYTE   N23  Ds5  v064
 BYTE   W24
 BYTE   Cs5
 BYTE   W24
 BYTE   Cn5
 BYTE   W24
//  #07 //179   ----------------------------------------
 BYTE   N92  Cn2  v048
 BYTE   N23  As4  v064
 BYTE   W24
 BYTE   Gs4
 BYTE   W24
 BYTE   Gn4
 BYTE   W24
 BYTE   En4
 BYTE   W24
//  #07 //180   ----------------------------------------
 BYTE   N92  Fn2  v048
 BYTE   N23  Gn4  v064
 BYTE   W24
 BYTE   En4
 BYTE   W24
 BYTE   N44  Fn4
 BYTE   W48
//  #07 //181   ----------------------------------------
 BYTE   N92  Ds2  v048
 BYTE   N23  Fn4  v064
 BYTE   W24
 BYTE   Gn4
 BYTE   W24
 BYTE   Gs4
 BYTE   W24
 BYTE   As4
 BYTE   W24
//  #07 //182   ----------------------------------------
 BYTE   N92  Cs2  v048
 BYTE   N44  Cn5  v064
 BYTE   W48
 BYTE   Fn4
 BYTE   W48
//  #07 //183   ----------------------------------------
 BYTE   N92  Fs1  v048
 BYTE   N44  As4  v064
 BYTE   W48
 BYTE   Cs5
 BYTE   W48
//  #07 //184   ----------------------------------------
 BYTE   TIE  Fn1  v048
 BYTE   N92  Cn5  v064
 BYTE   W96
//  #07 //185   ----------------------------------------
 BYTE   Fn5
 BYTE   W92
 BYTE   W03
 BYTE   EOT
 BYTE   Fn1
 BYTE   W01
//  #07 //186   ----------------------------------------
Label_013CF342:
 BYTE   N92  As1  v048
 BYTE   N23  Fn4  v092
 BYTE   W24
 BYTE   Ds5
 BYTE   W24
 BYTE   Cs5
 BYTE   W24
 BYTE   Cn5
 BYTE   W24
 BYTE   PEND 
//  #07 //187   ----------------------------------------
Label_013CF350:
 BYTE   N23  Cs2  v048
 BYTE   N44  Cs5  v092
 BYTE   W24
 BYTE   N23  Ds2  v048
 BYTE   W24
 BYTE   Fn2
 BYTE   N44  As4  v092
 BYTE   W24
 BYTE   N23  Cs2  v048
 BYTE   W24
 BYTE   PEND 
//  #07 //188   ----------------------------------------
Label_013CF365:
 BYTE   N92  Fn2  v048
 BYTE   N23  Fn4  v092
 BYTE   W24
 BYTE   Fn5
 BYTE   W24
 BYTE   Ds5
 BYTE   W24
 BYTE   Cs5
 BYTE   W24
 BYTE   PEND 
//  #07 //189   ----------------------------------------
 BYTE   N44  Ds2  v048
 BYTE   N44  Ds5  v092
 BYTE   W48
 BYTE   Cn2  v048
 BYTE   N44  Cn5  v092
 BYTE   W48
//  #07 //190   ----------------------------------------
 BYTE   PATT
  POIN2 Label_013CF342
//  #07 //191   ----------------------------------------
 BYTE   PATT
  POIN2 Label_013CF350
//  #07 //192   ----------------------------------------
 BYTE   N92  Ds2  v048
 BYTE   N23  As4  v092
 BYTE   W24
 BYTE   An4
 BYTE   W24
 BYTE   As4
 BYTE   W24
 BYTE   Cn5
 BYTE   W24
//  #07 //193   ----------------------------------------
 BYTE   N44  Fn2  v048
 BYTE   N44  Cs5  v092
 BYTE   W48
 BYTE   Fn2  v048
 BYTE   N44  Cn5  v092
 BYTE   W48
//  #07 //194   ----------------------------------------
 BYTE   PATT
  POIN2 Label_013CF342
//  #07 //195   ----------------------------------------
 BYTE   PATT
  POIN2 Label_013CF350
//  #07 //196   ----------------------------------------
 BYTE   PATT
  POIN2 Label_013CF365
//  #07 //197   ----------------------------------------
 BYTE   N44  Ds2  v048
 BYTE   N44  Ds5  v092
 BYTE   W48
 BYTE   Ds2  v048
 BYTE   N44  As4  v092
 BYTE   W48
//  #07 //198   ----------------------------------------
 BYTE   TIE  Fs2  v048
 BYTE   TIE  Cs5  v092
 BYTE   W96
//  #07 //199   ----------------------------------------
 BYTE   W23
 BYTE   EOT
 BYTE   W01
 BYTE   N23  As4
 BYTE   W24
 BYTE   Cn5
 BYTE   W24
 BYTE   Cs5
 BYTE   W23
 BYTE   EOT
 BYTE   Fs2
 BYTE   W01
//  #07 //200   ----------------------------------------
 BYTE   N92  Ds2  v048
 BYTE   N92  Cn5  v092
 BYTE   W96
//  #07 //201   ----------------------------------------
 BYTE   Cn2  v048
 BYTE   N92  An5  v092
 BYTE   W96
//  #07 //202   ----------------------------------------
 BYTE   PATT
  POIN2 Label_013CEF4F
//  #07 //203   ----------------------------------------
 BYTE   PATT
  POIN2 Label_013CEF76
//  #07 //204   ----------------------------------------
 BYTE   PATT
  POIN2 Label_013CEFA0
//  #07 //205   ----------------------------------------
 BYTE   PATT
  POIN2 Label_013CEFC7
//  #07 //206   ----------------------------------------
 BYTE   PATT
  POIN2 Label_013CEF4F
//  #07 //207   ----------------------------------------
 BYTE   PATT
  POIN2 Label_013CEF76
//  #07 //208   ----------------------------------------
 BYTE   PATT
  POIN2 Label_013CEFFB
//  #07 //209   ----------------------------------------
 BYTE   PATT
  POIN2 Label_013CF023
//  #07 //210   ----------------------------------------
 BYTE   PATT
  POIN2 Label_013CF045
//  #07 //211   ----------------------------------------
 BYTE   PATT
  POIN2 Label_013CF050
//  #07 //212   ----------------------------------------
 BYTE   W24
 BYTE   TIE  As1  v072
 BYTE   W72
//  #07 //213   ----------------------------------------
 BYTE   W92
 BYTE   W03
 BYTE   EOT
 BYTE   FINE

//**************** Track 8 (Midi-Chn.7) ****************//

The_One_They_Call_Witch_Song_008:
//  #08 //000   ----------------------------------------
 BYTE   KEYSH   The_One_They_Call_Witch_Song_key+0
 BYTE   VOICE   121
 BYTE   MODT 0
 BYTE   LFOS 44
 BYTE   VOL   44*The_One_They_Call_Witch_Song_mvl/mxv
 BYTE   PAN   c_v+0
 BYTE   N24  Cn1  v088
 BYTE   N24  Dn1  v036
 BYTE   N12  Fn1  v088
 BYTE   N24  An1
 BYTE   N24  Cs2  v060
 BYTE   W12
 BYTE   N12  Fn1  v088
 BYTE   W12
 BYTE   N48  Cn1
 BYTE   N48  Dn1  v036
 BYTE   N48  Fn1  v088
 BYTE   N48  An1
 BYTE   N48  Cs2  v060
 BYTE   W48
 BYTE   N24  Cn1  v088
 BYTE   N24  Dn1  v036
 BYTE   N12  Fn1  v088
 BYTE   N24  An1
 BYTE   N24  Cs2  v060
 BYTE   W12
 BYTE   N12  Fn1  v088
 BYTE   W12
//  #08 //001   ----------------------------------------
Label_013D8034:
 BYTE   TIE  Cn1  v088
 BYTE   N60  Dn1  v036
 BYTE   N60  Fn1  v088
 BYTE   N60  An1
 BYTE   TIE  Cs2  v060
 BYTE   W60
 BYTE   N12  Dn1  v036
 BYTE   N24  Fn1  v088
 BYTE   N36  An1
 BYTE   W12
 BYTE   N12  Dn1  v016
 BYTE   W12
 BYTE   N12
 BYTE   N12  Fn1
 BYTE   W12
 BYTE   PEND 
//  #08 //002   ----------------------------------------
Label_013D8055:
 BYTE   N12  Dn1  v036
 BYTE   N24  Fn1  v088
 BYTE   N36  An1
 BYTE   W12
 BYTE   N12  Dn1  v016
 BYTE   W12
 BYTE   N12
 BYTE   N12  Fn1  v036
 BYTE   W12
 BYTE   Dn1
 BYTE   N24  Fn1  v088
 BYTE   N36  An1
 BYTE   W12
 BYTE   N12  Dn1  v016
 BYTE   W12
 BYTE   N12
 BYTE   N12  Fn1  v036
 BYTE   W12
 BYTE   Dn1
 BYTE   N24  Fn1  v088
 BYTE   N36  An1
 BYTE   W12
 BYTE   N12  Dn1  v016
 BYTE   W12
 BYTE   PEND 
//  #08 //003   ----------------------------------------
 BYTE   N12
 BYTE   N12  Fn1  v036
 BYTE   W12
 BYTE   Dn1
 BYTE   N24  Fn1  v088
 BYTE   N36  An1
 BYTE   W12
 BYTE   N12  Dn1  v016
 BYTE   W12
 BYTE   N12
 BYTE   N12  Fn1  v036
 BYTE   W12
 BYTE   Dn1
 BYTE   N12  Fn1  v088
 BYTE   N24  An1
 BYTE   W12
 BYTE   N12  Dn1  v024
 BYTE   N12  Fn1  v056
 BYTE   W12
 BYTE   Dn1  v036
 BYTE   N12  Fn1  v088
 BYTE   N24  An1
 BYTE   W12
 BYTE   N12  Dn1  v036
 BYTE   N12  Fn1  v088
 BYTE   W12
//  #08 //004   ----------------------------------------
 BYTE   EOT
 BYTE   Cn1  v049
 BYTE   N24  Cn1
 BYTE   N24  Dn1  v036
 BYTE   N12  Fn1  v088
 BYTE   N24  An1
 BYTE   N24  Cs2  v060
 BYTE   W12
 BYTE   N12  Fn1  v088
 BYTE   W12
 BYTE   N48  Cn1
 BYTE   N48  Dn1  v036
 BYTE   N48  Fn1  v088
 BYTE   N48  An1
 BYTE   N48  Cs2  v060
 BYTE   W48
 BYTE   N24  Cn1  v088
 BYTE   N24  Dn1  v036
 BYTE   N12  Fn1  v088
 BYTE   N24  An1
 BYTE   N24  Cs2  v060
 BYTE   W12
 BYTE   N12  Fn1  v088
 BYTE   W12
//  #08 //005   ----------------------------------------
 BYTE   PATT
  POIN2 Label_013D8034
//  #08 //006   ----------------------------------------
 BYTE   PATT
  POIN2 Label_013D8055
//  #08 //007   ----------------------------------------
 BYTE   N12  Dn1  v016
 BYTE   N12  Fn1  v036
 BYTE   W12
 BYTE   Dn1
 BYTE   N24  Fn1  v088
 BYTE   N36  An1
 BYTE   W12
 BYTE   N12  Dn1  v016
 BYTE   W12
 BYTE   N12
 BYTE   N12  Fn1  v036
 BYTE   W12
 BYTE   Dn1
 BYTE   N12  Fn1  v088
 BYTE   N24  An1
 BYTE   W12
 BYTE   N12  Dn1  v024
 BYTE   N12  Fn1  v056
 BYTE   W12
 BYTE   Dn1  v036
 BYTE   N12  Fn1  v088
 BYTE   N24  An1
 BYTE   W12
 BYTE   TIE  Dn1  v036
 BYTE   N12  Fn1  v088
 BYTE   W12
//  #08 //008   ----------------------------------------
 BYTE   EOT
 BYTE   Cn1  v049
Label_013D812C:
 BYTE   TIE  Cn1  v100
 BYTE   TIE  Fn1
 BYTE   TIE  An1
 BYTE   TIE  Cs2  v060
 BYTE   W96
//  #08 //009   ----------------------------------------
 BYTE   W96
//  #08 //010   ----------------------------------------
 BYTE   EOT
 BYTE   Cn1  v041
 BYTE   An1  v049
 BYTE   N96  Cn1  v100
 BYTE   N96  Fn1
 BYTE   N96  An1
 BYTE   N96  Cs2  v060
 BYTE   W96
//  #08 //011   ----------------------------------------
 BYTE   N24  Cn1  v100
 BYTE   N12  Fn1
 BYTE   N24  An1
 BYTE   N96  Cs2  v060
 BYTE   W12
 BYTE   N12  Fn1  v056
 BYTE   W12
 BYTE   N24  Cn1  v088
 BYTE   N24  Fn1
 BYTE   N24  An1
 BYTE   W24
 BYTE   Cn1
 BYTE   N12  Fn1
 BYTE   N24  An1
 BYTE   W12
 BYTE   N12  Fn1  v056
 BYTE   W12
 BYTE   N24  Cn1  v088
 BYTE   N12  Fn1
 BYTE   N24  An1
 BYTE   W12
 BYTE   N12  Fn1
 BYTE   W12
//  #08 //012   ----------------------------------------
Label_013D8174:
 BYTE   N36  Cn1  v100
 BYTE   N24  Fn1
 BYTE   N36  An1
 BYTE   N96  Cs2  v060
 BYTE   N12  As3  v036
 BYTE   W12
 BYTE   As3  v016
 BYTE   W12
 BYTE   N36  Fn1  v024
 BYTE   N12  As3  v016
 BYTE   W12
 BYTE   N36  Cn1  v060
 BYTE   N36  An1
 BYTE   N96  Cn2
 BYTE   N12  As3  v036
 BYTE   W12
 BYTE   As3  v016
 BYTE   W12
 BYTE   Fn1  v024
 BYTE   N12  As3  v016
 BYTE   W12
 BYTE   N24  Cn1  v084
 BYTE   N24  Fn1
 BYTE   N24  An1
 BYTE   N12  As3  v036
 BYTE   W12
 BYTE   As3  v016
 BYTE   W12
 BYTE   PEND 
//  #08 //013   ----------------------------------------
 BYTE   PATT
  POIN2 Label_013D8174
//  #08 //014   ----------------------------------------
 BYTE   PATT
  POIN2 Label_013D8174
//  #08 //015   ----------------------------------------
Label_013D81B9:
 BYTE   N36  Cn1  v100
 BYTE   N24  Fn1
 BYTE   N36  An1
 BYTE   N48  Cs2  v060
 BYTE   N12  As3  v036
 BYTE   W12
 BYTE   As3  v016
 BYTE   W12
 BYTE   N36  Fn1  v024
 BYTE   N12  As3  v016
 BYTE   W12
 BYTE   N36  Cn1  v060
 BYTE   N36  An1
 BYTE   N96  Cn2
 BYTE   N12  As3  v036
 BYTE   W12
 BYTE   N48  Cs2  v060
 BYTE   N12  As3  v016
 BYTE   W12
 BYTE   Fn1  v024
 BYTE   N12  As3  v016
 BYTE   W12
 BYTE   N24  Cn1  v084
 BYTE   N24  Fn1
 BYTE   N24  An1
 BYTE   N12  As3  v036
 BYTE   W12
 BYTE   As3  v016
 BYTE   W12
 BYTE   PEND 
//  #08 //016   ----------------------------------------
 BYTE   PATT
  POIN2 Label_013D8174
//  #08 //017   ----------------------------------------
 BYTE   PATT
  POIN2 Label_013D8174
//  #08 //018   ----------------------------------------
 BYTE   N36  Cn1  v100
 BYTE   N24  Fn1
 BYTE   N36  An1
 BYTE   N36  Cs2  v060
 BYTE   N12  As3  v036
 BYTE   W12
 BYTE   As3  v016
 BYTE   W12
 BYTE   N36  Fn1  v024
 BYTE   N12  As3  v016
 BYTE   W12
 BYTE   N36  Cn1  v060
 BYTE   N36  An1
 BYTE   N72  Cn2
 BYTE   N36  Cs2
 BYTE   N12  As3  v036
 BYTE   W12
 BYTE   As3  v016
 BYTE   W12
 BYTE   Fn1  v024
 BYTE   N12  As3  v016
 BYTE   W12
 BYTE   N36  Cn1  v084
 BYTE   N24  Fn1
 BYTE   N36  An1
 BYTE   N36  Cs2  v060
 BYTE   N12  As3  v036
 BYTE   W12
 BYTE   As3  v016
 BYTE   W12
//  #08 //019   ----------------------------------------
 BYTE   N36  Fn1  v024
 BYTE   N12  As3  v016
 BYTE   W12
 BYTE   N36  Cn1  v060
 BYTE   N36  An1
 BYTE   TIE  Cn2
 BYTE   N36  Cs2
 BYTE   N12  As3  v036
 BYTE   W12
 BYTE   As3  v016
 BYTE   W12
 BYTE   Fn1  v024
 BYTE   N12  As3  v016
 BYTE   W12
 BYTE   N24  Cn1  v084
 BYTE   N12  Fn1
 BYTE   N24  An1
 BYTE   N24  Cs2  v060
 BYTE   N12  As3  v036
 BYTE   W12
 BYTE   Fn1  v024
 BYTE   N12  As3  v016
 BYTE   W12
 BYTE   N18  Cn1  v084
 BYTE   N12  Fn1
 BYTE   N24  An1
 BYTE   N24  Cs2  v060
 BYTE   N12  As3  v036
 BYTE   W12
 BYTE   Fn1  v024
 BYTE   N12  As3  v016
 BYTE   W06
 BYTE   N03  Cn1  v036
 BYTE   W03
 BYTE   N03
 BYTE   W03
//  #08 //020   ----------------------------------------
 BYTE   N36  Cn1  v100
 BYTE   N24  Fn1
 BYTE   N36  An1
 BYTE   N96  Cs2  v060
 BYTE   N12  As3  v036
 BYTE   W12
 BYTE   As3  v016
 BYTE   W12
 BYTE   N36  Fn1  v024
 BYTE   N12  As3  v016
 BYTE   W12
 BYTE   EOT
 BYTE   Cn2
 BYTE   N36  Cn1  v060
 BYTE   N36  An1
 BYTE   N96  Cn2
 BYTE   N12  As3  v036
 BYTE   W12
 BYTE   As3  v016
 BYTE   W12
 BYTE   Fn1  v024
 BYTE   N12  As3  v016
 BYTE   W12
 BYTE   N24  Cn1  v084
 BYTE   N24  Fn1
 BYTE   N24  An1
 BYTE   N12  As3  v036
 BYTE   W12
 BYTE   As3  v016
 BYTE   W12
//  #08 //021   ----------------------------------------
 BYTE   PATT
  POIN2 Label_013D8174
//  #08 //022   ----------------------------------------
 BYTE   PATT
  POIN2 Label_013D8174
//  #08 //023   ----------------------------------------
Label_013D82D2:
 BYTE   N36  Cn1  v100
 BYTE   N24  Fn1
 BYTE   N36  An1
 BYTE   N48  Cs2  v060
 BYTE   N12  As3  v036
 BYTE   W12
 BYTE   As3  v016
 BYTE   W12
 BYTE   N36  Fn1  v024
 BYTE   N12  As3  v016
 BYTE   W12
 BYTE   N36  Cn1  v060
 BYTE   N36  An1
 BYTE   N96  Cn2
 BYTE   N12  As3  v036
 BYTE   W12
 BYTE   N48  Cs2  v060
 BYTE   N12  As3  v016
 BYTE   W12
 BYTE   Fn1  v024
 BYTE   N12  As3  v016
 BYTE   W12
 BYTE   N18  Cn1  v084
 BYTE   N24  Fn1
 BYTE   N24  An1
 BYTE   N12  As3  v036
 BYTE   W12
 BYTE   As3  v016
 BYTE   W06
 BYTE   N03  Cn1  v036
 BYTE   W03
 BYTE   N03
 BYTE   W03
 BYTE   PEND 
//  #08 //024   ----------------------------------------
 BYTE   PATT
  POIN2 Label_013D8174
//  #08 //025   ----------------------------------------
 BYTE   PATT
  POIN2 Label_013D8174
//  #08 //026   ----------------------------------------
Label_013D8321:
 BYTE   N36  Cn1  v100
 BYTE   N24  Fn1
 BYTE   N36  An1
 BYTE   N96  Cs2  v060
 BYTE   N12  As3  v036
 BYTE   W12
 BYTE   As3  v016
 BYTE   W12
 BYTE   N36  Fn1  v024
 BYTE   N12  As3  v016
 BYTE   W12
 BYTE   N36  Cn1  v060
 BYTE   N36  An1
 BYTE   TIE  Cn2
 BYTE   N12  As3  v036
 BYTE   W12
 BYTE   As3  v016
 BYTE   W12
 BYTE   Fn1  v024
 BYTE   N12  As3  v016
 BYTE   W12
 BYTE   N24  Cn1  v084
 BYTE   N24  Fn1
 BYTE   N24  An1
 BYTE   N12  As3  v036
 BYTE   W12
 BYTE   As3  v016
 BYTE   W12
 BYTE   PEND 
//  #08 //027   ----------------------------------------
 BYTE   N24  Cn1  v100
 BYTE   N24  Fn1
 BYTE   N24  An1
 BYTE   N24  Cs2  v060
 BYTE   N24  As3  v036
 BYTE   W24
 BYTE   Cn1  v060
 BYTE   N24  Fn1
 BYTE   N24  An1
 BYTE   N24  Cs2
 BYTE   N24  As3  v036
 BYTE   W24
 BYTE   N19  Cn1  v060
 BYTE   N19  Fn1
 BYTE   N19  An1
 BYTE   N19  Cs2
 BYTE   N19  As3  v036
 BYTE   W19
 BYTE   N16  Cn1  v060
 BYTE   N16  Fn1
 BYTE   N16  An1
 BYTE   N16  Cs2
 BYTE   N16  As3  v036
 BYTE   W17
 BYTE   N12  Cn1  v060
 BYTE   N12  Fn1
 BYTE   N12  An1
 BYTE   N12  Cs2
 BYTE   N12  As3  v036
 BYTE   W12
//  #08 //028   ----------------------------------------
 BYTE   TIE  Cn1  v100
 BYTE   TIE  Fn1  v060
 BYTE   TIE  An1
 BYTE   TIE  Cs2
 BYTE   TIE  As3  v036
 BYTE   W96
//  #08 //029   ----------------------------------------
 BYTE   W60
 BYTE   EOT
 BYTE   Cn1  v041
 BYTE   Cs2
 BYTE   N36  Cn1  v100
 BYTE   N36  Fn1
 BYTE   N36  Cs2  v060
 BYTE   W36
//  #08 //030   ----------------------------------------
 BYTE   Cn1  v100
 BYTE   N36  Fn1
 BYTE   N36  Cs2  v060
 BYTE   W36
 BYTE   Cn1  v100
 BYTE   N36  Fn1
 BYTE   N36  Cs2  v060
 BYTE   W36
 BYTE   TIE  Cn1  v100
 BYTE   TIE  Fn1
 BYTE   TIE  Cs2  v060
 BYTE   W24
//  #08 //031   ----------------------------------------
 BYTE   W96
//  #08 //032   ----------------------------------------
 BYTE   EOT
 BYTE   Cn1  v041
 BYTE   An1  v049
 BYTE   As3
 BYTE   N24  Cn1  v100
 BYTE   N12  Fn1  v056
 BYTE   N24  An1
 BYTE   TIE  Cs2  v060
 BYTE   N12  As3  v016
 BYTE   W12
 BYTE   Fn1  v048
 BYTE   N12  As3  v016
 BYTE   W12
 BYTE   N24  Cn1  v060
 BYTE   N12  Fn1
 BYTE   N24  An1
 BYTE   N12  As3  v016
 BYTE   W12
 BYTE   Fn1  v048
 BYTE   N12  As3  v016
 BYTE   W12
 BYTE   N24  Cn1  v060
 BYTE   N12  Fn1
 BYTE   N24  An1
 BYTE   N12  As3  v016
 BYTE   W12
 BYTE   Fn1  v052
 BYTE   N12  As3  v020
 BYTE   W12
 BYTE   N24  Cn1  v064
 BYTE   N12  Fn1
 BYTE   N24  An1
 BYTE   N12  As3  v020
 BYTE   W12
 BYTE   Fn1  v052
 BYTE   N12  As3  v020
 BYTE   W12
//  #08 //033   ----------------------------------------
 BYTE   N24  Cn1  v064
 BYTE   N12  Fn1
 BYTE   N24  An1
 BYTE   N12  As3  v020
 BYTE   W12
 BYTE   Fn1  v056
 BYTE   N12  As3  v020
 BYTE   W12
 BYTE   N24  Cn1  v068
 BYTE   N12  Fn1
 BYTE   N24  An1
 BYTE   N12  As3  v020
 BYTE   W12
 BYTE   Fn1  v056
 BYTE   N12  As3  v024
 BYTE   W12
 BYTE   N24  Cn1  v068
 BYTE   N12  Fn1
 BYTE   N24  An1
 BYTE   N12  As3  v024
 BYTE   W12
 BYTE   Fn1  v056
 BYTE   N12  As3  v024
 BYTE   W12
 BYTE   N24  Cn1  v072
 BYTE   N12  Fn1
 BYTE   N24  An1
 BYTE   N12  As3  v024
 BYTE   W12
 BYTE   Fn1  v056
 BYTE   N12  As3  v024
 BYTE   W12
//  #08 //034   ----------------------------------------
 BYTE   EOT
 BYTE   Cs2
 BYTE   N24  Cn1  v100
 BYTE   N12  Fn1  v072
 BYTE   N24  An1
 BYTE   N96  Cs2  v060
 BYTE   N12  As3  v024
 BYTE   W12
 BYTE   Fn1  v060
 BYTE   N12  As3  v024
 BYTE   W12
 BYTE   N24  Cn1  v076
 BYTE   N12  Fn1
 BYTE   N24  An1
 BYTE   N12  As3  v024
 BYTE   W12
 BYTE   Fn1  v060
 BYTE   N12  As3  v028
 BYTE   W12
 BYTE   N24  Cn1  v076
 BYTE   N12  Fn1
 BYTE   N24  An1
 BYTE   N12  As3  v028
 BYTE   W12
 BYTE   Fn1  v060
 BYTE   N12  As3  v028
 BYTE   W12
 BYTE   N24  Cn1  v080
 BYTE   N12  Fn1
 BYTE   N24  An1
 BYTE   N12  As3  v028
 BYTE   W12
 BYTE   Fn1  v064
 BYTE   N12  As3  v028
 BYTE   W12
//  #08 //035   ----------------------------------------
 BYTE   N24  Cn1  v100
 BYTE   N12  Fn1  v084
 BYTE   N24  An1
 BYTE   N96  Cs2  v060
 BYTE   N12  As3  v032
 BYTE   W12
 BYTE   Fn1  v064
 BYTE   N12  As3  v032
 BYTE   W12
 BYTE   N24  Cn1  v084
 BYTE   N12  Fn1
 BYTE   N24  An1
 BYTE   N12  As3  v032
 BYTE   W12
 BYTE   Fn1  v064
 BYTE   N12  As3  v032
 BYTE   W12
 BYTE   N24  Cn1  v084
 BYTE   N12  Fn1
 BYTE   N24  An1
 BYTE   N12  As3  v032
 BYTE   W12
 BYTE   Fn1  v068
 BYTE   N12  As3  v032
 BYTE   W12
 BYTE   N18  Cn1  v088
 BYTE   N12  Fn1
 BYTE   N24  An1
 BYTE   N12  As3  v032
 BYTE   W12
 BYTE   Fn1  v068
 BYTE   N12  As3  v032
 BYTE   W06
 BYTE   N03  Cn1  v036
 BYTE   W03
 BYTE   N03
 BYTE   W03
//  #08 //036   ----------------------------------------
Label_013D84FD:
 BYTE   N36  Cn1  v100
 BYTE   N24  Fn1
 BYTE   N36  An1
 BYTE   TIE  Cs2  v060
 BYTE   N12  As3  v036
 BYTE   W12
 BYTE   As3  v016
 BYTE   W12
 BYTE   N36  Fn1  v024
 BYTE   N12  As3  v016
 BYTE   W12
 BYTE   PEND 
 BYTE   EOT
 BYTE   Cn2
 BYTE   N36  Cn1  v060
 BYTE   N36  An1
 BYTE   N96  Cn2
 BYTE   N12  As3  v036
 BYTE   W12
 BYTE   As3  v016
 BYTE   W12
 BYTE   Fn1  v024
 BYTE   N12  As3  v016
 BYTE   W12
 BYTE   N24  Cn1  v084
 BYTE   N24  Fn1
 BYTE   N24  An1
 BYTE   N12  As3  v036
 BYTE   W12
 BYTE   As3  v016
 BYTE   W12
//  #08 //037   ----------------------------------------
Label_013D853A:
 BYTE   N36  Cn1  v100
 BYTE   N24  Fn1
 BYTE   N36  An1
 BYTE   N12  As3  v036
 BYTE   W12
 BYTE   As3  v016
 BYTE   W12
 BYTE   N36  Fn1  v024
 BYTE   N12  As3  v016
 BYTE   W12
 BYTE   N36  Cn1  v060
 BYTE   N36  An1
 BYTE   N96  Cn2
 BYTE   N12  As3  v036
 BYTE   W12
 BYTE   As3  v016
 BYTE   W12
 BYTE   Fn1  v024
 BYTE   N12  As3  v016
 BYTE   W12
 BYTE   N24  Cn1  v084
 BYTE   N24  Fn1
 BYTE   N24  An1
 BYTE   N12  As3  v036
 BYTE   W12
 BYTE   As3  v016
 BYTE   W12
 BYTE   PEND 
//  #08 //038   ----------------------------------------
 BYTE   PATT
  POIN2 Label_013D853A
//  #08 //039   ----------------------------------------
 BYTE   N36  Cn1  v100
 BYTE   N24  Fn1
 BYTE   N36  An1
 BYTE   N12  As3  v036
 BYTE   W12
 BYTE   As3  v016
 BYTE   W12
 BYTE   N36  Fn1  v024
 BYTE   N12  As3  v016
 BYTE   W12
 BYTE   N36  Cn1  v060
 BYTE   N36  An1
 BYTE   N96  Cn2
 BYTE   N12  As3  v036
 BYTE   W12
 BYTE   As3  v016
 BYTE   W12
 BYTE   Fn1  v024
 BYTE   N12  As3  v016
 BYTE   W12
 BYTE   N18  Cn1  v084
 BYTE   N24  Fn1
 BYTE   N24  An1
 BYTE   N12  As3  v036
 BYTE   W12
 BYTE   As3  v016
 BYTE   W06
 BYTE   N03  Cn1  v036
 BYTE   W03
 BYTE   N03
 BYTE   W03
//  #08 //040   ----------------------------------------
 BYTE   PATT
  POIN2 Label_013D853A
//  #08 //041   ----------------------------------------
 BYTE   PATT
  POIN2 Label_013D853A
//  #08 //042   ----------------------------------------
 BYTE   PATT
  POIN2 Label_013D853A
//  #08 //043   ----------------------------------------
Label_013D85C3:
 BYTE   N36  Cn1  v100
 BYTE   N24  Fn1
 BYTE   N36  An1
 BYTE   N12  As3  v036
 BYTE   W12
 BYTE   As3  v016
 BYTE   W12
 BYTE   Fn1  v060
 BYTE   N12  As3  v016
 BYTE   W12
 BYTE   N36  Cn1  v060
 BYTE   N12  Fn1
 BYTE   N36  An1
 BYTE   N96  Cn2
 BYTE   N12  As3  v036
 BYTE   W12
 BYTE   Fn1  v060
 BYTE   N12  As3  v016
 BYTE   W12
 BYTE   Fn1  v060
 BYTE   N12  As3  v016
 BYTE   W12
 BYTE   Cn1  v084
 BYTE   N12  Fn1
 BYTE   N12  An1
 BYTE   N12  As3  v036
 BYTE   W12
 BYTE   Cn1  v084
 BYTE   N12  Fn1
 BYTE   N12  An1
 BYTE   N12  As3  v016
 BYTE   W12
 BYTE   PEND 
//  #08 //044   ----------------------------------------
 BYTE   EOT
 BYTE   Cs2
Label_013D8607:
 BYTE   N36  Cn1  v100
 BYTE   N24  Fn1
 BYTE   N36  An1
 BYTE   TIE  Cs2  v060
 BYTE   N12  As3  v036
 BYTE   W12
 BYTE   As3  v016
 BYTE   W12
 BYTE   N36  Fn1  v024
 BYTE   N12  As3  v016
 BYTE   W12
 BYTE   N36  Cn1  v060
 BYTE   N36  An1
 BYTE   N96  Cn2
 BYTE   N12  As3  v036
 BYTE   W12
 BYTE   As3  v016
 BYTE   W12
 BYTE   Fn1  v024
 BYTE   N12  As3  v016
 BYTE   W12
 BYTE   N24  Cn1  v084
 BYTE   N24  Fn1
 BYTE   N24  An1
 BYTE   N12  As3  v036
 BYTE   W12
 BYTE   As3  v016
 BYTE   W12
 BYTE   PEND 
//  #08 //045   ----------------------------------------
 BYTE   PATT
  POIN2 Label_013D853A
//  #08 //046   ----------------------------------------
 BYTE   PATT
  POIN2 Label_013D853A
//  #08 //047   ----------------------------------------
 BYTE   PATT
  POIN2 Label_013D85C3
//  #08 //048   ----------------------------------------
 BYTE   PATT
  POIN2 Label_013D853A
//  #08 //049   ----------------------------------------
 BYTE   PATT
  POIN2 Label_013D853A
//  #08 //050   ----------------------------------------
 BYTE   N36  Cn1  v100
 BYTE   N24  Fn1
 BYTE   N36  An1
 BYTE   N12  As3  v036
 BYTE   W12
 BYTE   As3  v016
 BYTE   W12
 BYTE   N36  Fn1  v024
 BYTE   N12  As3  v016
 BYTE   W12
 BYTE   N36  Cn1  v060
 BYTE   N36  An1
 BYTE   TIE  Cn2
 BYTE   N12  As3  v036
 BYTE   W12
 BYTE   As3  v016
 BYTE   W12
 BYTE   Fn1  v024
 BYTE   N12  As3  v016
 BYTE   W12
 BYTE   N24  Cn1  v084
 BYTE   N24  Fn1
 BYTE   N24  An1
 BYTE   N12  As3  v036
 BYTE   W12
 BYTE   As3  v016
 BYTE   W12
//  #08 //051   ----------------------------------------
 BYTE   EOT
 BYTE   Cs2
 BYTE   N36  Cn1  v100
 BYTE   N36  Fn1
 BYTE   N36  An1
 BYTE   N36  Cs2  v060
 BYTE   N12  As3  v036
 BYTE   W12
 BYTE   As3  v016
 BYTE   W12
 BYTE   N12
 BYTE   W12
 BYTE   N36  Cn1  v084
 BYTE   N36  Fn1
 BYTE   N36  An1
 BYTE   N36  Cs2  v060
 BYTE   N12  As3  v036
 BYTE   W12
 BYTE   As3  v016
 BYTE   W12
 BYTE   N12
 BYTE   W12
 BYTE   N18  Cn1  v084
 BYTE   N24  Fn1
 BYTE   N24  An1
 BYTE   N24  Cs2  v060
 BYTE   N12  As3  v036
 BYTE   W12
 BYTE   As3  v016
 BYTE   W06
 BYTE   N03  Cn1  v036
 BYTE   W03
 BYTE   N03
 BYTE   W03
//  #08 //052   ----------------------------------------
 BYTE   PATT
  POIN2 Label_013D84FD
//  #08 //053   ----------------------------------------
 BYTE   EOT
 BYTE   Cn2
 BYTE   N36  Cn1  v060
 BYTE   N36  An1
 BYTE   N96  Cn2
 BYTE   N12  As3  v036
 BYTE   W12
 BYTE   As3  v016
 BYTE   W12
 BYTE   Fn1  v024
 BYTE   N12  As3  v016
 BYTE   W12
 BYTE   N24  Cn1  v084
 BYTE   N24  Fn1
 BYTE   N24  An1
 BYTE   N12  As3  v036
 BYTE   W12
 BYTE   As3  v016
 BYTE   W12
//  #08 //054   ----------------------------------------
 BYTE   PATT
  POIN2 Label_013D853A
//  #08 //055   ----------------------------------------
 BYTE   PATT
  POIN2 Label_013D853A
//  #08 //056   ----------------------------------------
 BYTE   PATT
  POIN2 Label_013D85C3
//  #08 //057   ----------------------------------------
 BYTE   PATT
  POIN2 Label_013D853A
//  #08 //058   ----------------------------------------
 BYTE   PATT
  POIN2 Label_013D853A
//  #08 //059   ----------------------------------------
 BYTE   PATT
  POIN2 Label_013D853A
//  #08 //060   ----------------------------------------
 BYTE   PATT
  POIN2 Label_013D85C3
//  #08 //061   ----------------------------------------
 BYTE   EOT
 BYTE   Cs2
//  #08 //062   ----------------------------------------
 BYTE   PATT
  POIN2 Label_013D8607
//  #08 //063   ----------------------------------------
 BYTE   PATT
  POIN2 Label_013D853A
//  #08 //064   ----------------------------------------
 BYTE   EOT
 BYTE   Cs2
//  #08 //065   ----------------------------------------
 BYTE   PATT
  POIN2 Label_013D81B9
//  #08 //066   ----------------------------------------
 BYTE   PATT
  POIN2 Label_013D82D2
//  #08 //067   ----------------------------------------
 BYTE   PATT
  POIN2 Label_013D8174
//  #08 //068   ----------------------------------------
 BYTE   PATT
  POIN2 Label_013D8174
//  #08 //069   ----------------------------------------
 BYTE   PATT
  POIN2 Label_013D8321
//  #08 //070   ----------------------------------------
 BYTE   N12  Cn1  v100
 BYTE   N12  Fn1
 BYTE   N12  An1
 BYTE   N12  Cs2  v060
 BYTE   N12  As3  v036
 BYTE   W12
 BYTE   N24  Cn1  v084
 BYTE   N24  Fn1
 BYTE   N24  An1
 BYTE   N24  Cs2  v060
 BYTE   N24  As3  v036
 BYTE   W24
 BYTE   Cn1  v084
 BYTE   N24  Fn1
 BYTE   N24  An1
 BYTE   N24  Cs2  v060
 BYTE   N24  As3  v036
 BYTE   W24
 BYTE   N30  Cn1  v084
 BYTE   N36  Fn1
 BYTE   N36  An1
 BYTE   N36  Cs2  v060
 BYTE   N36  As3  v036
 BYTE   W30
 BYTE   N03  Cn1
 BYTE   W03
 BYTE   N03
 BYTE   W03
//  #08 //071   ----------------------------------------
 BYTE   PATT
  POIN2 Label_013D84FD
//  #08 //072   ----------------------------------------
 BYTE   EOT
 BYTE   Cn2
 BYTE   N36  Cn1  v060
 BYTE   N36  An1
 BYTE   N96  Cn2
 BYTE   N12  As3  v036
 BYTE   W12
 BYTE   As3  v016
 BYTE   W12
 BYTE   Fn1  v024
 BYTE   N12  As3  v016
 BYTE   W12
 BYTE   N24  Cn1  v084
 BYTE   N24  Fn1
 BYTE   N24  An1
 BYTE   N12  As3  v036
 BYTE   W12
 BYTE   As3  v016
 BYTE   W12
//  #08 //073   ----------------------------------------
 BYTE   PATT
  POIN2 Label_013D853A
//  #08 //074   ----------------------------------------
 BYTE   EOT
 BYTE   Cs2
//  #08 //075   ----------------------------------------
 BYTE   PATT
  POIN2 Label_013D8607
//  #08 //076   ----------------------------------------
 BYTE   PATT
  POIN2 Label_013D85C3
//  #08 //077   ----------------------------------------
 BYTE   EOT
 BYTE   Cs2
//  #08 //078   ----------------------------------------
 BYTE   PATT
  POIN2 Label_013D8607
//  #08 //079   ----------------------------------------
 BYTE   PATT
  POIN2 Label_013D853A
//  #08 //080   ----------------------------------------
 BYTE   EOT
 BYTE   Cs2
//  #08 //081   ----------------------------------------
 BYTE   PATT
  POIN2 Label_013D8607
//  #08 //082   ----------------------------------------
 BYTE   PATT
  POIN2 Label_013D85C3
//  #08 //083   ----------------------------------------
 BYTE   EOT
 BYTE   Cs2
//  #08 //084   ----------------------------------------
 BYTE   PATT
  POIN2 Label_013D8607
//  #08 //085   ----------------------------------------
 BYTE   PATT
  POIN2 Label_013D853A
//  #08 //086   ----------------------------------------
 BYTE   EOT
 BYTE   Cs2
//  #08 //087   ----------------------------------------
 BYTE   PATT
  POIN2 Label_013D8607
//  #08 //088   ----------------------------------------
 BYTE   PATT
  POIN2 Label_013D85C3
//  #08 //089   ----------------------------------------
 BYTE   EOT
 BYTE   Cs2
//  #08 //090   ----------------------------------------
 BYTE   PATT
  POIN2 Label_013D8321
//  #08 //091   ----------------------------------------
 BYTE   N48  Cn1  v100
 BYTE   N48  Fn1
 BYTE   N48  An1
 BYTE   N48  Cs2  v060
 BYTE   N48  As3  v036
 BYTE   W48
 BYTE   Cn1  v100
 BYTE   N48  Fn1
 BYTE   N48  An1
 BYTE   N48  Cs2  v060
 BYTE   N48  As3  v036
 BYTE   W48
//  #08 //092   ----------------------------------------
 BYTE   EOT
 BYTE   Dn1
 BYTE   N36  Cn1  v100
 BYTE   N12  Dn1  v044
 BYTE   N24  Fn1  v100
 BYTE   N36  An1
 BYTE   TIE  Cs2  v060
 BYTE   N12  As3  v036
 BYTE   W12
 BYTE   Dn1  v016
 BYTE   N12  As3
 BYTE   W12
 BYTE   Dn1
 BYTE   N36  Fn1  v036
 BYTE   N12  As3  v016
 BYTE   W12
 BYTE   EOT
 BYTE   Cn2
 BYTE   N36  Cn1  v088
 BYTE   N12  Dn1  v036
 BYTE   N36  An1  v088
 BYTE   N72  Cn2
 BYTE   N12  As3  v036
 BYTE   W12
 BYTE   Dn1  v016
 BYTE   N12  As3
 BYTE   W12
 BYTE   Dn1
 BYTE   N12  Fn1  v036
 BYTE   N12  As3  v016
 BYTE   W12
 BYTE   N36  Cn1  v088
 BYTE   N12  Dn1  v036
 BYTE   N24  Fn1  v088
 BYTE   N36  An1
 BYTE   N12  As3  v036
 BYTE   W12
 BYTE   Dn1  v016
 BYTE   N12  As3
 BYTE   W12
//  #08 //093   ----------------------------------------
Label_013D885F:
 BYTE   N12  Dn1  v016
 BYTE   N36  Fn1  v036
 BYTE   N12  As3  v016
 BYTE   W12
 BYTE   N36  Cn1  v088
 BYTE   N12  Dn1  v036
 BYTE   N36  An1  v088
 BYTE   TIE  Cn2
 BYTE   N12  As3  v036
 BYTE   W12
 BYTE   Dn1  v016
 BYTE   N12  As3
 BYTE   W12
 BYTE   Dn1
 BYTE   N12  Fn1  v036
 BYTE   N12  As3  v016
 BYTE   W12
 BYTE   N24  Cn1  v088
 BYTE   N12  Dn1  v036
 BYTE   N12  Fn1  v088
 BYTE   N24  An1
 BYTE   N12  As3  v036
 BYTE   W12
 BYTE   Dn1  v024
 BYTE   N12  Fn1  v056
 BYTE   N12  As3  v016
 BYTE   W12
 BYTE   N24  Cn1  v088
 BYTE   N12  Dn1  v036
 BYTE   N12  Fn1  v088
 BYTE   N24  An1
 BYTE   N12  As3  v036
 BYTE   W12
 BYTE   Dn1  v024
 BYTE   N12  Fn1  v056
 BYTE   N12  As3  v016
 BYTE   W12
 BYTE   PEND 
//  #08 //094   ----------------------------------------
 BYTE   EOT
 BYTE   Cs2
Label_013D88B8:
 BYTE   N36  Cn1  v088
 BYTE   N12  Dn1  v036
 BYTE   N24  Fn1  v088
 BYTE   N36  An1
 BYTE   TIE  Cs2  v060
 BYTE   N12  As3  v036
 BYTE   W12
 BYTE   Dn1  v016
 BYTE   N12  As3
 BYTE   W12
 BYTE   Dn1
 BYTE   N36  Fn1  v036
 BYTE   N12  As3  v016
 BYTE   W12
 BYTE   PEND 
 BYTE   EOT
 BYTE   Cn2
 BYTE   N36  Cn1  v088
 BYTE   N12  Dn1  v036
 BYTE   N36  An1  v088
 BYTE   N72  Cn2
 BYTE   N12  As3  v036
 BYTE   W12
 BYTE   Dn1  v016
 BYTE   N12  As3
 BYTE   W12
 BYTE   Dn1
 BYTE   N12  Fn1  v036
 BYTE   N12  As3  v016
 BYTE   W12
 BYTE   N36  Cn1  v088
 BYTE   N12  Dn1  v036
 BYTE   N24  Fn1  v088
 BYTE   N36  An1
 BYTE   N12  As3  v036
 BYTE   W12
 BYTE   Dn1  v016
 BYTE   N12  As3
 BYTE   W12
//  #08 //095   ----------------------------------------
 BYTE   PATT
  POIN2 Label_013D885F
//  #08 //096   ----------------------------------------
 BYTE   EOT
 BYTE   Cs2
//  #08 //097   ----------------------------------------
 BYTE   PATT
  POIN2 Label_013D88B8
//  #08 //098   ----------------------------------------
 BYTE   EOT
 BYTE   Cn2
 BYTE   N36  Cn1  v088
 BYTE   N12  Dn1  v036
 BYTE   N36  An1  v088
 BYTE   N72  Cn2
 BYTE   N12  As3  v036
 BYTE   W12
 BYTE   Dn1  v016
 BYTE   N12  As3
 BYTE   W12
 BYTE   Dn1
 BYTE   N12  Fn1  v036
 BYTE   N12  As3  v016
 BYTE   W12
 BYTE   N36  Cn1  v088
 BYTE   N12  Dn1  v036
 BYTE   N24  Fn1  v088
 BYTE   N36  An1
 BYTE   N12  As3  v036
 BYTE   W12
 BYTE   Dn1  v016
 BYTE   N12  As3
 BYTE   W12
//  #08 //099   ----------------------------------------
 BYTE   PATT
  POIN2 Label_013D885F
//  #08 //100   ----------------------------------------
 BYTE   EOT
 BYTE   Cs2
 BYTE   N36  Cn1  v088
 BYTE   N12  Dn1  v036
 BYTE   N24  Fn1  v088
 BYTE   N36  An1
 BYTE   N96  Cs2  v060
 BYTE   N12  As3  v036
 BYTE   W12
 BYTE   Dn1  v016
 BYTE   N12  As3
 BYTE   W12
 BYTE   Dn1
 BYTE   N36  Fn1  v036
 BYTE   N12  As3  v016
 BYTE   W12
 BYTE   EOT
 BYTE   Cn2
 BYTE   N36  Cn1  v088
 BYTE   N12  Dn1  v036
 BYTE   N36  An1  v088
 BYTE   TIE  Cn2
 BYTE   N12  As3  v036
 BYTE   W12
 BYTE   Dn1  v016
 BYTE   N12  As3
 BYTE   W12
 BYTE   Dn1
 BYTE   N12  Fn1  v036
 BYTE   N12  As3  v016
 BYTE   W12
 BYTE   N24  Cn1  v088
 BYTE   N12  Dn1  v036
 BYTE   N24  Fn1  v088
 BYTE   N24  An1
 BYTE   N12  As3  v036
 BYTE   W12
 BYTE   TIE  Dn1  v016
 BYTE   N12  As3
 BYTE   W12
//  #08 //101   ----------------------------------------
 BYTE   N48  Cn1  v088
 BYTE   N48  Fn1
 BYTE   N48  An1
 BYTE   N48  Cs2  v060
 BYTE   N48  As3  v036
 BYTE   W48
 BYTE   N19  Cn1  v088
 BYTE   N19  Fn1
 BYTE   N19  An1
 BYTE   N48  Cs2  v060
 BYTE   N19  As3  v036
 BYTE   W19
 BYTE   N16  Cn1  v088
 BYTE   N16  Fn1
 BYTE   N16  An1
 BYTE   N16  As3  v036
 BYTE   W17
 BYTE   N12  Cn1  v088
 BYTE   N12  Fn1
 BYTE   N12  An1
 BYTE   N12  As3  v036
 BYTE   W12
//  #08 //102   ----------------------------------------
 BYTE   EOT
 BYTE   Cn2
 BYTE   GoTo
  POIN2 Label_013D812C
//  #08 //103   ----------------------------------------
 BYTE   W12
 BYTE   N12  Fn1  v024
 BYTE   N12  As3  v016
 BYTE   W12
 BYTE   N24  Cn1  v084
 BYTE   N24  Fn1
 BYTE   N24  An1
 BYTE   N12  As3  v036
 BYTE   W12
 BYTE   As3  v016
 BYTE   W12
 BYTE   N36  Cn1  v100
 BYTE   N24  Fn1
 BYTE   N36  An1
 BYTE   N12  As3  v036
 BYTE   W12
 BYTE   As3  v016
 BYTE   W12
 BYTE   N36  Fn1  v024
 BYTE   N12  As3  v016
 BYTE   W12
 BYTE   N36  Cn1  v060
 BYTE   N36  An1
 BYTE   N96  Cn2
 BYTE   N12  As3  v036
 BYTE   W12
//  #08 //104   ----------------------------------------
Label_013D8A10:
 BYTE   N12  As3  v016
 BYTE   W12
 BYTE   Fn1  v024
 BYTE   N12  As3  v016
 BYTE   W12
 BYTE   N24  Cn1  v084
 BYTE   N24  Fn1
 BYTE   N24  An1
 BYTE   N12  As3  v036
 BYTE   W12
 BYTE   As3  v016
 BYTE   W12
 BYTE   N36  Cn1  v100
 BYTE   N24  Fn1
 BYTE   N36  An1
 BYTE   N12  As3  v036
 BYTE   W12
 BYTE   As3  v016
 BYTE   W12
 BYTE   N36  Fn1  v024
 BYTE   N12  As3  v016
 BYTE   W12
 BYTE   N36  Cn1  v060
 BYTE   N36  An1
 BYTE   N96  Cn2
 BYTE   N12  As3  v036
 BYTE   W12
 BYTE   PEND 
//  #08 //105   ----------------------------------------
 BYTE   PATT
  POIN2 Label_013D8A10
//  #08 //106   ----------------------------------------
 BYTE   N12  As3  v016
 BYTE   W12
 BYTE   Fn1  v024
 BYTE   N12  As3  v016
 BYTE   W12
 BYTE   N18  Cn1  v084
 BYTE   N24  Fn1
 BYTE   N24  An1
 BYTE   N12  As3  v036
 BYTE   W12
 BYTE   As3  v016
 BYTE   W06
 BYTE   N03  Cn1  v036
 BYTE   W03
 BYTE   N03
 BYTE   W03
 BYTE   N36  Cn1  v100
 BYTE   N24  Fn1
 BYTE   N36  An1
 BYTE   TIE  Cs2  v084
 BYTE   N12  As3  v036
 BYTE   W12
 BYTE   As3  v016
 BYTE   W12
 BYTE   N36  Fn1  v024
 BYTE   N12  As3  v016
 BYTE   W12
 BYTE   N36  Cn1  v060
 BYTE   N36  An1
 BYTE   N96  Cn2
 BYTE   N12  As3  v036
 BYTE   W12
//  #08 //107   ----------------------------------------
 BYTE   PATT
  POIN2 Label_013D8A10
//  #08 //108   ----------------------------------------
 BYTE   PATT
  POIN2 Label_013D8A10
//  #08 //109   ----------------------------------------
 BYTE   PATT
  POIN2 Label_013D8A10
//  #08 //110   ----------------------------------------
Label_013D8A9E:
 BYTE   N12  As3  v016
 BYTE   W12
 BYTE   Fn1  v024
 BYTE   N12  As3  v016
 BYTE   W12
 BYTE   N18  Cn1  v084
 BYTE   N24  Fn1
 BYTE   N24  An1
 BYTE   N12  As3  v036
 BYTE   W12
 BYTE   As3  v016
 BYTE   W06
 BYTE   N03  Cn1  v036
 BYTE   W03
 BYTE   N03
 BYTE   W03
 BYTE   PEND 
 BYTE   EOT
 BYTE   Cs2
 BYTE   N36  Cn1  v100
 BYTE   N24  Fn1
 BYTE   N36  An1
 BYTE   TIE  Cs2  v084
 BYTE   N12  As3  v036
 BYTE   W12
 BYTE   As3  v016
 BYTE   W12
 BYTE   N36  Fn1  v024
 BYTE   N12  As3  v016
 BYTE   W12
 BYTE   N36  Cn1  v060
 BYTE   N36  An1
 BYTE   N96  Cn2
 BYTE   N12  As3  v036
 BYTE   W12
//  #08 //111   ----------------------------------------
 BYTE   PATT
  POIN2 Label_013D8A10
//  #08 //112   ----------------------------------------
 BYTE   PATT
  POIN2 Label_013D8A10
//  #08 //113   ----------------------------------------
 BYTE   PATT
  POIN2 Label_013D8A10
//  #08 //114   ----------------------------------------
 BYTE   PATT
  POIN2 Label_013D8A9E
//  #08 //115   ----------------------------------------
 BYTE   EOT
 BYTE   Cs2
 BYTE   N36  Cn1  v100
 BYTE   N24  Fn1
 BYTE   N36  An1
 BYTE   TIE  Cs2  v084
 BYTE   N12  As3  v036
 BYTE   W12
 BYTE   As3  v016
 BYTE   W12
 BYTE   N36  Fn1  v024
 BYTE   N12  As3  v016
 BYTE   W12
 BYTE   N36  Cn1  v060
 BYTE   N36  An1
 BYTE   N96  Cn2
 BYTE   N12  As3  v036
 BYTE   W12
//  #08 //116   ----------------------------------------
 BYTE   PATT
  POIN2 Label_013D8A10
//  #08 //117   ----------------------------------------
 BYTE   PATT
  POIN2 Label_013D8A10
//  #08 //118   ----------------------------------------
 BYTE   N12  As3  v016
 BYTE   W12
 BYTE   Fn1  v024
 BYTE   N12  As3  v016
 BYTE   W12
 BYTE   N24  Cn1  v084
 BYTE   N24  Fn1
 BYTE   N24  An1
 BYTE   N12  As3  v036
 BYTE   W12
 BYTE   As3  v016
 BYTE   W12
 BYTE   N36  Cn1  v100
 BYTE   N24  Fn1
 BYTE   N36  An1
 BYTE   N12  As3  v036
 BYTE   W12
 BYTE   As3  v016
 BYTE   W12
 BYTE   N36  Fn1  v024
 BYTE   N12  As3  v016
 BYTE   W12
 BYTE   N36  Cn1  v060
 BYTE   N36  An1
 BYTE   TIE  Cn2
 BYTE   N12  As3  v036
 BYTE   W12
//  #08 //119   ----------------------------------------
 BYTE   As3  v016
 BYTE   W12
 BYTE   Fn1  v024
 BYTE   N12  As3  v016
 BYTE   W12
 BYTE   N24  Cn1  v084
 BYTE   TIE  Fn1
 BYTE   TIE  An1
 BYTE   N12  As3  v036
 BYTE   W24
 BYTE   EOT
 BYTE   Cs2
 BYTE   TIE  Cn1  v080
 BYTE   TIE  Cs2  v072
 BYTE   TIE  An2  v064
 BYTE   W48
//  #08 //120   ----------------------------------------
 BYTE   W72
 BYTE   EOT
 BYTE   An1  v048
 BYTE   N36  An1  v080
 BYTE   TIE  Cn2
 BYTE   W24
//  #08 //121   ----------------------------------------
 BYTE   W12
 BYTE   EOT
 BYTE   Fn1
 BYTE   TIE
 BYTE   TIE  An1
 BYTE   W36
 BYTE   EOT
 BYTE   Cn1  v049
 BYTE   An2
 BYTE   TIE  Cn1
 BYTE   TIE  Cs2  v072
 BYTE   TIE  An2  v064
 BYTE   W48
//  #08 //122   ----------------------------------------
 BYTE   W48
 BYTE   EOT
 BYTE   Fn1  v045
 BYTE   N24  Fn1  v080
 BYTE   N24  An1
 BYTE   W24
 BYTE   TIE  Fn1
 BYTE   TIE  An1
 BYTE   W24
//  #08 //123   ----------------------------------------
 BYTE   EOT
 BYTE   Dn1
 BYTE   N07  Dn1  v096
 BYTE   W07
 BYTE   N04  Dn1  v052
 BYTE   W05
 BYTE   N07  Dn1  v080
 BYTE   W07
 BYTE   N04  Dn1  v048
 BYTE   W05
 BYTE   N07  Dn1  v080
 BYTE   W07
 BYTE   N04  Dn1  v036
 BYTE   W05
 BYTE   N07  Dn1  v080
 BYTE   W07
 BYTE   N76  Dn1  v068
 BYTE   W05
 BYTE   EOT
 BYTE   Cn1  v049
 BYTE   An2
 BYTE   N24  Cn1  v080
 BYTE   TIE  Cs2  v072
 BYTE   TIE  An2  v064
 BYTE   W24
 BYTE   N24  Cn1  v080
 BYTE   N24  Gs1
 BYTE   W12
 BYTE   As1  v048
 BYTE   W12
//  #08 //124   ----------------------------------------
Label_013D8BE3:
 BYTE   N24  Cn1  v080
 BYTE   N24  Gs1
 BYTE   W12
 BYTE   As1  v048
 BYTE   W12
 BYTE   Cn1  v080
 BYTE   N96  Dn1
 BYTE   N24  Gs1
 BYTE   W12
 BYTE   As1  v048
 BYTE   W12
 BYTE   Cn1  v080
 BYTE   N24  Gs1
 BYTE   W12
 BYTE   As1  v048
 BYTE   W12
 BYTE   Cn1  v080
 BYTE   N24  Gs1
 BYTE   W12
 BYTE   As1  v048
 BYTE   W12
 BYTE   PEND 
//  #08 //125   ----------------------------------------
 BYTE   PATT
  POIN2 Label_013D8BE3
//  #08 //126   ----------------------------------------
 BYTE   PATT
  POIN2 Label_013D8BE3
//  #08 //127   ----------------------------------------
 BYTE   N24  Cn1  v080
 BYTE   N24  Gs1
 BYTE   W12
 BYTE   N72  As1  v048
 BYTE   W12
 BYTE   N24  Cn1  v080
 BYTE   N96  Dn1
 BYTE   N48  Gs1
 BYTE   TIE  Gn2
 BYTE   W24
 BYTE   EOT
 BYTE   Cs2
 BYTE   N24  Cn1
 BYTE   TIE  Cs2  v072
 BYTE   W24
 BYTE   N24  Cn1  v080
 BYTE   N24  Gs1
 BYTE   W12
 BYTE   As1  v048
 BYTE   W12
//  #08 //128   ----------------------------------------
 BYTE   PATT
  POIN2 Label_013D8BE3
//  #08 //129   ----------------------------------------
 BYTE   N24  Cn1  v080
 BYTE   N24  Gs1
 BYTE   W12
 BYTE   As1  v048
 BYTE   W12
 BYTE   Cn1  v080
 BYTE   N84  Dn1
 BYTE   N24  Gs1
 BYTE   W12
 BYTE   As1  v048
 BYTE   W12
 BYTE   Cn1  v080
 BYTE   N24  Gs1
 BYTE   W12
 BYTE   As1  v048
 BYTE   W12
 BYTE   Cn1  v080
 BYTE   N24  Gs1
 BYTE   W12
 BYTE   TIE  As1  v048
 BYTE   W12
//  #08 //130   ----------------------------------------
 BYTE   Cn1  v080
 BYTE   TIE  Gs1
 BYTE   W12
 BYTE   EOT
 BYTE   An2
 BYTE   N24  Dn1
 BYTE   N24  An2  v064
 BYTE   W24
 BYTE   Dn1  v080
 BYTE   N60  An2  v064
 BYTE   W24
 BYTE   N12  Dn1  v092
 BYTE   N12  En1  v080
 BYTE   W12
 BYTE   Dn1  v056
 BYTE   N12  En1  v052
 BYTE   W12
 BYTE   Dn1  v080
 BYTE   TIE  En1  v068
 BYTE   W12
//  #08 //131   ----------------------------------------
 BYTE   N24  Dn1  v060
 BYTE   N24  An2  v064
 BYTE   W24
 BYTE   TIE  Dn1  v080
 BYTE   N24  An2  v064
 BYTE   W24
 BYTE   EOT
 BYTE   Cn1  v049
 BYTE   N24  Cn1  v080
 BYTE   TIE  Cs2  v072
 BYTE   TIE  An2  v064
 BYTE   W24
 BYTE   N36  Cn1  v080
 BYTE   W12
 BYTE   EOT
 BYTE   Cn2
 BYTE   N36
 BYTE   TIE  Dn2
 BYTE   W12
//  #08 //132   ----------------------------------------
 BYTE   W12
 BYTE   N36  Cn1
 BYTE   W12
 BYTE   EOT
 BYTE   An1
 BYTE   N36
 BYTE   TIE  Cn2
 BYTE   W24
 BYTE   N36  Cn1
 BYTE   W12
 BYTE   EOT
 BYTE   Fn1
 BYTE   TIE
 BYTE   TIE  An1
 BYTE   W24
 BYTE   N60  Cn1
 BYTE   W12
//  #08 //133   ----------------------------------------
 BYTE   EOT
 BYTE   Dn1  v057
 BYTE   N12  Dn1  v096
 BYTE   N48  An2  v064
 BYTE   W12
 BYTE   N07  Dn1  v068
 BYTE   W07
 BYTE   N04  Dn1  v052
 BYTE   W05
 BYTE   N12  Dn1  v084
 BYTE   W12
 BYTE   N84  Dn1  v080
 BYTE   W12
 BYTE   EOT
 BYTE   Cs2
 BYTE   N24  Cn1
 BYTE   TIE  Cs2  v072
 BYTE   TIE  An2  v064
 BYTE   W12
 BYTE   N12  Fs1  v048
 BYTE   W12
 BYTE   N24  Cn1  v080
 BYTE   N12  Fs1
 BYTE   W12
 BYTE   Fs1  v048
 BYTE   W12
//  #08 //134   ----------------------------------------
Label_013D8CF2:
 BYTE   N24  Cn1  v080
 BYTE   N12  Fs1
 BYTE   W12
 BYTE   Fs1  v048
 BYTE   W12
 BYTE   N24  Cn1  v080
 BYTE   N96  Dn1
 BYTE   N12  Fs1
 BYTE   W12
 BYTE   Fs1  v048
 BYTE   W12
 BYTE   N24  Cn1  v080
 BYTE   N12  Fs1
 BYTE   W12
 BYTE   Fs1  v048
 BYTE   W12
 BYTE   N24  Cn1  v080
 BYTE   N12  Fs1
 BYTE   W12
 BYTE   Fs1  v048
 BYTE   W12
 BYTE   PEND 
//  #08 //135   ----------------------------------------
 BYTE   PATT
  POIN2 Label_013D8CF2
//  #08 //136   ----------------------------------------
 BYTE   PATT
  POIN2 Label_013D8CF2
//  #08 //137   ----------------------------------------
Label_013D8D23:
 BYTE   N24  Cn1  v080
 BYTE   N12  Fs1
 BYTE   W12
 BYTE   Fs1  v048
 BYTE   W12
 BYTE   N24  Cn1  v080
 BYTE   N96  Dn1
 BYTE   N12  Fs1
 BYTE   W12
 BYTE   N07  Fs1  v064
 BYTE   W07
 BYTE   N04  Fs1  v048
 BYTE   W05
 BYTE   N24  Cn1  v080
 BYTE   N12  Fs1
 BYTE   W12
 BYTE   Fs1  v048
 BYTE   W12
 BYTE   N24  Cn1  v080
 BYTE   N12  Fs1
 BYTE   W12
 BYTE   Fs1  v048
 BYTE   W12
 BYTE   PEND 
//  #08 //138   ----------------------------------------
 BYTE   PATT
  POIN2 Label_013D8CF2
//  #08 //139   ----------------------------------------
 BYTE   PATT
  POIN2 Label_013D8D23
//  #08 //140   ----------------------------------------
 BYTE   N24  Cn1  v080
 BYTE   N12  Fs1
 BYTE   W12
 BYTE   Fs1  v048
 BYTE   W12
 BYTE   N24  Cn1  v080
 BYTE   N96  Dn1
 BYTE   N12  Fs1
 BYTE   W12
 BYTE   Fs1  v048
 BYTE   W12
 BYTE   N24  Cn1  v080
 BYTE   N12  Fs1
 BYTE   W12
 BYTE   Fs1  v048
 BYTE   W12
 BYTE   N24  Cn1  v080
 BYTE   N12  Fs1
 BYTE   W12
 BYTE   N07  Fs1  v064
 BYTE   W07
 BYTE   N04  Fs1  v048
 BYTE   W05
//  #08 //141   ----------------------------------------
 BYTE   N24  Cn1  v080
 BYTE   N07  Fs1  v064
 BYTE   W07
 BYTE   N52  Fs1  v048
 BYTE   W05
 BYTE   EOT
 BYTE   As1
 BYTE   N24  As1  v080
 BYTE   W12
 BYTE   Cn1
 BYTE   N96  Dn1
 BYTE   W12
 BYTE   TIE  As1
 BYTE   W12
 BYTE   EOT
 BYTE   Gs1  v049
 BYTE   N24  Cn1
 BYTE   TIE  Gs1
 BYTE   TIE  Cs2  v072
 BYTE   W12
 BYTE   N12  Fs1  v048
 BYTE   W12
 BYTE   N24  Cn1  v080
 BYTE   N12  Fs1
 BYTE   W12
 BYTE   Fs1  v048
 BYTE   W12
//  #08 //142   ----------------------------------------
 BYTE   PATT
  POIN2 Label_013D8D23
//  #08 //143   ----------------------------------------
 BYTE   PATT
  POIN2 Label_013D8CF2
//  #08 //144   ----------------------------------------
 BYTE   PATT
  POIN2 Label_013D8CF2
//  #08 //145   ----------------------------------------
 BYTE   N24  Cn1  v080
 BYTE   N12  Fs1
 BYTE   W12
 BYTE   Fs1  v048
 BYTE   W12
 BYTE   N24  Cn1  v080
 BYTE   N96  Dn1
 BYTE   N12  Fs1
 BYTE   W12
 BYTE   N07  Fs1  v064
 BYTE   W07
 BYTE   N16  Fs1  v048
 BYTE   W05
 BYTE   EOT
 BYTE   Gn2
 BYTE   N24  Cn1  v080
 BYTE   TIE  Gn2
 BYTE   W12
 BYTE   N12  Fs1  v048
 BYTE   W12
 BYTE   N24  Cn1  v080
 BYTE   N12  Fs1
 BYTE   W12
 BYTE   Fs1  v048
 BYTE   W12
//  #08 //146   ----------------------------------------
 BYTE   PATT
  POIN2 Label_013D8CF2
//  #08 //147   ----------------------------------------
 BYTE   N24  Cn1  v080
 BYTE   N12  Fs1
 BYTE   W12
 BYTE   Fs1  v048
 BYTE   W12
 BYTE   N24  Cn1  v080
 BYTE   TIE  Dn1
 BYTE   N12  Fs1
 BYTE   W12
 BYTE   TIE  Fs1  v048
 BYTE   W12
 BYTE   EOT
 BYTE   Cs2
 BYTE   N24  Cn1  v080
 BYTE   TIE  Cs2  v072
 BYTE   W24
 BYTE   EOT
 BYTE   An1  v048
 BYTE   N12  Cn1  v080
 BYTE   N12  An1  v032
 BYTE   N12  Cn2
 BYTE   W12
 BYTE   Cn1  v060
 BYTE   N24  An1
 BYTE   N24  Cn2
 BYTE   W12
//  #08 //148   ----------------------------------------
 BYTE   N12  Cn1  v080
 BYTE   W12
 BYTE   Cn1  v060
 BYTE   N12  An1  v032
 BYTE   TIE  Cn2
 BYTE   W12
 BYTE   EOT
 BYTE   Fn1
 BYTE   N12  Cn1  v080
 BYTE   N12  Fn1
 BYTE   N12  An1
 BYTE   W12
 BYTE   N24  Cn1  v072
 BYTE   TIE  Fn1  v032
 BYTE   TIE  An1
 BYTE   W12
 BYTE   EOT
 BYTE   Dn1  v057
 BYTE   N36  Dn1  v080
 BYTE   N36  An2  v064
 BYTE   W12
 BYTE   N12  Cn1  v048
 BYTE   W12
 BYTE   N24  Cn1  v080
 BYTE   W12
 BYTE   N36  Dn1
 BYTE   N36  An2  v064
 BYTE   W12
//  #08 //149   ----------------------------------------
 BYTE   N12  Cn1  v048
 BYTE   W12
 BYTE   N24  Cn1  v080
 BYTE   W12
 BYTE   N48  Dn1
 BYTE   N24  An2  v064
 BYTE   W12
 BYTE   N12  Cn1  v048
 BYTE   W12
 BYTE   EOT
 BYTE   Cs2
 BYTE   N48  Cn1  v080
 BYTE   TIE  Cs2  v072
 BYTE   TIE  An2  v064
 BYTE   W24
 BYTE   N48  Dn1  v080
 BYTE   N12  Ds2  v048
 BYTE   W12
 BYTE   Ds2  v028
 BYTE   W12
//  #08 //150   ----------------------------------------
Label_013D8E86:
 BYTE   N12  Cn1  v080
 BYTE   N12  Ds2  v048
 BYTE   W12
 BYTE   N24  Cn1  v056
 BYTE   N12  Ds2  v028
 BYTE   W12
 BYTE   N48  Dn1  v080
 BYTE   N12  Ds2  v048
 BYTE   W12
 BYTE   Cn1  v056
 BYTE   N12  Ds2  v028
 BYTE   W12
 BYTE   N48  Cn1  v080
 BYTE   N12  Ds2  v048
 BYTE   W12
 BYTE   Ds2  v028
 BYTE   W12
 BYTE   N48  Dn1  v080
 BYTE   N12  Ds2  v048
 BYTE   W12
 BYTE   Ds2  v028
 BYTE   W12
 BYTE   PEND 
//  #08 //151   ----------------------------------------
 BYTE   PATT
  POIN2 Label_013D8E86
//  #08 //152   ----------------------------------------
 BYTE   PATT
  POIN2 Label_013D8E86
//  #08 //153   ----------------------------------------
 BYTE   PATT
  POIN2 Label_013D8E86
//  #08 //154   ----------------------------------------
 BYTE   PATT
  POIN2 Label_013D8E86
//  #08 //155   ----------------------------------------
 BYTE   N12  Cn1  v080
 BYTE   N12  Ds2  v048
 BYTE   W12
 BYTE   N36  Cn1  v056
 BYTE   N12  Ds2  v028
 BYTE   W12
 BYTE   N48  Dn1  v080
 BYTE   N12  Ds2  v048
 BYTE   W12
 BYTE   Ds2  v028
 BYTE   W12
 BYTE   N48  Cn1  v080
 BYTE   N12  Ds2  v048
 BYTE   W12
 BYTE   Ds2  v028
 BYTE   W12
 BYTE   N48  Dn1  v080
 BYTE   N12  Ds2  v048
 BYTE   W12
 BYTE   Ds2  v028
 BYTE   W12
//  #08 //156   ----------------------------------------
 BYTE   Cn1  v080
 BYTE   N12  Ds2  v048
 BYTE   W12
 BYTE   N36  Cn1  v056
 BYTE   N12  Ds2  v028
 BYTE   W12
 BYTE   N48  Dn1  v080
 BYTE   N12  Ds2  v048
 BYTE   W12
 BYTE   Ds2  v028
 BYTE   W12
 BYTE   Cn1  v080
 BYTE   N12  Ds2  v048
 BYTE   W12
 BYTE   N36  Cn1  v056
 BYTE   N12  Ds2  v028
 BYTE   W12
 BYTE   N48  Dn1  v080
 BYTE   N12  Ds2  v048
 BYTE   W12
 BYTE   Ds2  v028
 BYTE   W12
//  #08 //157   ----------------------------------------
 BYTE   Cn1  v080
 BYTE   N24  Ds2  v048
 BYTE   W12
 BYTE   EOT
 BYTE   An2
 BYTE   N36  Cn1  v056
 BYTE   TIE  An2  v052
 BYTE   W12
 BYTE   N48  Dn1  v080
 BYTE   N12  Ds2  v048
 BYTE   W12
 BYTE   N36  Ds2  v028
 BYTE   W12
 BYTE   EOT
 BYTE   Cs2
 BYTE   N48  Cn1  v080
 BYTE   TIE  Cs2  v072
 BYTE   W24
 BYTE   N48  Dn1  v080
 BYTE   N12  Ds2  v056
 BYTE   W12
 BYTE   Ds2  v036
 BYTE   W12
//  #08 //158   ----------------------------------------
 BYTE   Cn1  v080
 BYTE   N12  Ds2  v056
 BYTE   W12
 BYTE   N36  Cn1
 BYTE   N12  Ds2  v036
 BYTE   W12
 BYTE   N48  Dn1  v080
 BYTE   N12  Ds2  v056
 BYTE   W12
 BYTE   Ds2  v036
 BYTE   W12
 BYTE   N48  Cn1  v080
 BYTE   N12  Ds2  v056
 BYTE   W12
 BYTE   Ds2  v036
 BYTE   W12
 BYTE   N48  Dn1  v080
 BYTE   N12  Ds2  v056
 BYTE   W12
 BYTE   Ds2  v036
 BYTE   W12
//  #08 //159   ----------------------------------------
 BYTE   Cn1  v080
 BYTE   N12  Ds2  v056
 BYTE   W12
 BYTE   N36  Cn1
 BYTE   N12  Ds2  v036
 BYTE   W12
 BYTE   TIE  Dn1  v080
 BYTE   N12  Ds2  v056
 BYTE   W12
 BYTE   TIE  Ds2  v036
 BYTE   W12
 BYTE   EOT
 BYTE   Cs2  v057
 BYTE   N48  Cn1  v080
 BYTE   N96  Cs2  v072
 BYTE   N48  An2  v064
 BYTE   W24
 BYTE   EOT
 BYTE   An1  v048
 BYTE   N12  An1  v080
 BYTE   N12  Cn2
 BYTE   W12
 BYTE   N24  An1
 BYTE   N84  Cn2
 BYTE   W12
//  #08 //160   ----------------------------------------
 BYTE   N12  Cn1
 BYTE   TIE  An2  v064
 BYTE   W12
 BYTE   EOT
 BYTE   Fn1
 BYTE   N36  Cn1  v056
 BYTE   N12  Fn1  v080
 BYTE   N12  An1
 BYTE   W12
 BYTE   Fn1  v032
 BYTE   N12  An1
 BYTE   W12
 BYTE   N72  Fn1
 BYTE   N36  An1
 BYTE   W12
 BYTE   N48  Cn1  v080
 BYTE   N96  Cs2  v072
 BYTE   W24
 BYTE   N12  An1  v080
 BYTE   N12  Cn2
 BYTE   W12
 BYTE   N24  An1
 BYTE   TIE  Cn2
 BYTE   W12
//  #08 //161   ----------------------------------------
 BYTE   EOT
 BYTE   Ds2
 BYTE   N12  Cn1
 BYTE   N60  Ds2  v056
 BYTE   W12
 BYTE   N36  Cn1
 BYTE   TIE  Fn1  v080
 BYTE   TIE  An1
 BYTE   W12
 BYTE   EOT
 BYTE   Dn1  v057
 BYTE   N48  Dn1
 BYTE   N24  An2  v064
 BYTE   W24
 BYTE   N48  Cn1  v080
 BYTE   N96  Cs2  v072
 BYTE   TIE  An2  v064
 BYTE   W12
 BYTE   N12  Ds2  v036
 BYTE   W12
 BYTE   N48  Dn1  v080
 BYTE   N12  Ds2  v056
 BYTE   W12
 BYTE   Ds2  v036
 BYTE   W12
//  #08 //162   ----------------------------------------
 BYTE   Cn1  v080
 BYTE   N12  Ds2  v056
 BYTE   W12
 BYTE   N36  Cn1
 BYTE   N12  Ds2  v036
 BYTE   W12
 BYTE   N48  Dn1  v080
 BYTE   N12  Ds2  v056
 BYTE   W12
 BYTE   TIE  Ds2  v036
 BYTE   W12
 BYTE   N48  Cn1  v080
 BYTE   N96  Cs2  v056
 BYTE   W24
 BYTE   EOT
 BYTE   An2
 BYTE   N48  Dn1  v080
 BYTE   N24  An2  v052
 BYTE   W24
//  #08 //163   ----------------------------------------
 BYTE   N12  Cn1  v080
 BYTE   N24  An2  v056
 BYTE   W12
 BYTE   N36  Cn1
 BYTE   W12
 BYTE   TIE  Dn1  v080
 BYTE   N24  An2  v060
 BYTE   W24
 BYTE   Cn1  v080
 BYTE   TIE  Cs2  v072
 BYTE   TIE  An2  v064
 BYTE   W24
 BYTE   EOT
 BYTE   Fs1
 BYTE   N24  Cn1  v080
 BYTE   N12  Fs1
 BYTE   W12
 BYTE   N07  Fs1  v064
 BYTE   W07
 BYTE   N04  Fs1  v048
 BYTE   W05
//  #08 //164   ----------------------------------------
 BYTE   N24  Cn1  v080
 BYTE   N12  Fs1
 BYTE   W12
 BYTE   Fs1  v048
 BYTE   W12
 BYTE   N24  Cn1  v080
 BYTE   N24  Fs1
 BYTE   W12
 BYTE   EOT
 BYTE   As1
 BYTE   N72  As1  v048
 BYTE   W12
 BYTE   N24  Cn1  v080
 BYTE   N12  Fs1
 BYTE   W12
 BYTE   Fs1  v048
 BYTE   W12
 BYTE   N24  Cn1  v080
 BYTE   N12  Fs1
 BYTE   W12
 BYTE   N07  Fs1  v064
 BYTE   W07
 BYTE   N04  Fs1  v048
 BYTE   W05
//  #08 //165   ----------------------------------------
 BYTE   N24  Cn1  v080
 BYTE   N07  Fs1  v064
 BYTE   W07
 BYTE   N52  Fs1  v048
 BYTE   W05
 BYTE   N24  As1  v080
 BYTE   W12
 BYTE   Cn1
 BYTE   W12
 BYTE   TIE  As1
 BYTE   W12
 BYTE   EOT
 BYTE   Gs1  v049
 BYTE   N24  Cn1
 BYTE   TIE  Gs1
 BYTE   TIE  Cs2  v072
 BYTE   W12
 BYTE   N12  Fs1  v048
 BYTE   W12
 BYTE   N24  Cn1  v080
 BYTE   N12  Fs1
 BYTE   W12
 BYTE   N07  Fs1  v064
 BYTE   W07
 BYTE   N04  Fs1  v048
 BYTE   W05
//  #08 //166   ----------------------------------------
 BYTE   N24  Cn1  v080
 BYTE   N12  Fs1
 BYTE   W12
 BYTE   Fs1  v048
 BYTE   W12
 BYTE   N24  Cn1  v080
 BYTE   N12  Fs1
 BYTE   W12
 BYTE   Fs1  v048
 BYTE   W12
 BYTE   N24  Cn1  v080
 BYTE   N12  Fs1
 BYTE   W12
 BYTE   N07  Fs1  v064
 BYTE   W07
 BYTE   N04  Fs1  v048
 BYTE   W05
 BYTE   N24  Cn1  v080
 BYTE   N12  Fs1
 BYTE   W12
 BYTE   N84  Fs1  v048
 BYTE   W12
//  #08 //167   ----------------------------------------
 BYTE   EOT
 BYTE   An2
 BYTE   N48  Cn1  v080
 BYTE   TIE  An2  v048
 BYTE   W24
 BYTE   EOT
 BYTE   Dn1
 BYTE   N07  Dn1  v080
 BYTE   W07
 BYTE   N04  Dn1  v064
 BYTE   W05
 BYTE   N07  Dn1  v080
 BYTE   W07
 BYTE   N28  Dn1  v064
 BYTE   W05
 BYTE   EOT
 BYTE   Cs2
 BYTE   N48  Cn1  v080
 BYTE   TIE  Cs2  v072
 BYTE   W24
 BYTE   N48  Dn1  v080
 BYTE   N24  Fs1  v048
 BYTE   W24
//  #08 //168   ----------------------------------------
Label_013D910E:
 BYTE   N12  Cn1  v080
 BYTE   N24  Fs1  v048
 BYTE   W12
 BYTE   Cn1  v056
 BYTE   W12
 BYTE   N48  Dn1  v080
 BYTE   N24  Fs1  v048
 BYTE   W12
 BYTE   Cn1  v056
 BYTE   W12
 BYTE   Fs1  v048
 BYTE   W12
 BYTE   N36  Cn1  v080
 BYTE   W12
 BYTE   N48  Dn1
 BYTE   N24  Fs1  v048
 BYTE   W24
 BYTE   PEND 
//  #08 //169   ----------------------------------------
 BYTE   N12  Cn1  v080
 BYTE   N24  Fs1  v048
 BYTE   W12
 BYTE   Cn1  v056
 BYTE   W12
 BYTE   N48  Dn1  v080
 BYTE   N48  Fs1  v048
 BYTE   W12
 BYTE   N12  Cn1  v056
 BYTE   W12
 BYTE   EOT
 BYTE   Cs2
 BYTE   N48  Cn1  v080
 BYTE   TIE  Cs2  v072
 BYTE   W24
 BYTE   N48  Dn1  v080
 BYTE   N24  Fs1  v048
 BYTE   W24
//  #08 //170   ----------------------------------------
 BYTE   N12  Cn1  v080
 BYTE   N24  Fs1  v048
 BYTE   W12
 BYTE   Cn1  v056
 BYTE   W12
 BYTE   N48  Dn1  v080
 BYTE   N24  Fs1  v048
 BYTE   W12
 BYTE   Cn1  v056
 BYTE   W12
 BYTE   TIE  Fs1  v048
 BYTE   W12
 BYTE   N12  Cn1  v056
 BYTE   W12
 BYTE   EOT
 BYTE   An2
 BYTE   N72  Cn1  v080
 BYTE   N24  Dn1
 BYTE   N72  An2  v064
 BYTE   W24
//  #08 //171   ----------------------------------------
 BYTE   N07  Dn1  v040
 BYTE   W07
 BYTE   N04  Dn1  v016
 BYTE   W05
 BYTE   N07  Dn1  v056
 BYTE   W07
 BYTE   N04  Dn1  v028
 BYTE   W05
 BYTE   N07  Dn1  v072
 BYTE   W07
 BYTE   N04  Dn1  v040
 BYTE   W05
 BYTE   N07  Dn1  v092
 BYTE   W07
 BYTE   TIE  Dn1  v056
 BYTE   W05
 BYTE   EOT
 BYTE   Fn1  v049
 BYTE   N24  Cn1  v080
 BYTE   TIE  Fn1  v056
 BYTE   TIE  Cs2  v072
 BYTE   TIE  An2  v064
 BYTE   W24
 BYTE   N24  Cn1  v080
 BYTE   W12
 BYTE   EOT
 BYTE   Cn2  v050
 BYTE   N36  Cn2
 BYTE   TIE  Dn2
 BYTE   W12
//  #08 //172   ----------------------------------------
 BYTE   N24  Cn1
 BYTE   W24
 BYTE   EOT
 BYTE   An1
 BYTE   N24  Cn1
 BYTE   N36  An1
 BYTE   TIE  Cn2
 BYTE   W24
 BYTE   N24  Cn1
 BYTE   W12
 BYTE   EOT
 BYTE   Fn1
 BYTE   N12
 BYTE   N12  An1
 BYTE   W12
 BYTE   N24  Cn1
 BYTE   N12  Fn1  v032
 BYTE   N12  An1
 BYTE   W12
 BYTE   TIE  Fn1
 BYTE   N96  An1
 BYTE   W11
 BYTE   EOT
 BYTE   Dn1
 BYTE   W01
//  #08 //173   ----------------------------------------
 BYTE   An2
 BYTE   N24  Cn1  v080
 BYTE   N19  Dn1
 BYTE   N36  An2  v064
 BYTE   W19
 BYTE   N16  Dn1  v080
 BYTE   W05
 BYTE   N24  Cn1
 BYTE   W12
 BYTE   TIE  Dn1
 BYTE   TIE  An2  v064
 BYTE   W12
 BYTE   EOT
 BYTE   Cs2
 BYTE   N24  Cn1  v080
 BYTE   TIE  Cs2  v072
 BYTE   W24
 BYTE   N24  Cn1  v080
 BYTE   W12
 BYTE   EOT
 BYTE   Cn2
 BYTE   N12  An1
 BYTE   N12  Cn2
 BYTE   W12
//  #08 //174   ----------------------------------------
 BYTE   N24  Cn1
 BYTE   N12  An1  v032
 BYTE   N12  Cn2
 BYTE   W12
 BYTE   An1
 BYTE   TIE  Cn2
 BYTE   W12
 BYTE   EOT
 BYTE   Fn1
 BYTE   N24  Cn1  v080
 BYTE   TIE  Fn1
 BYTE   TIE  An1
 BYTE   W24
 BYTE   EOT
 BYTE   Dn1  v057
 BYTE   N24  Cn1
 BYTE   N24  Dn1
 BYTE   TIE  An2  v064
 BYTE   W24
 BYTE   N24  Cn1  v080
 BYTE   N07  Dn1  v096
 BYTE   W07
 BYTE   N04  Dn1  v052
 BYTE   W05
 BYTE   N07  Dn1  v072
 BYTE   W07
 BYTE   N04  Dn1  v048
 BYTE   W05
//  #08 //175   ----------------------------------------
 BYTE   N24  Cn1  v080
 BYTE   N07  Dn1  v072
 BYTE   W07
 BYTE   N04  Dn1  v040
 BYTE   W05
 BYTE   N07  Dn1  v060
 BYTE   W07
 BYTE   N04  Dn1  v044
 BYTE   W05
 BYTE   N24  Cn1  v080
 BYTE   N07  Dn1  v060
 BYTE   W07
 BYTE   N40
 BYTE   W05
 BYTE   EOT
 BYTE   An1
 BYTE   TIE  An1  v080
 BYTE   W07
 BYTE   EOT
 BYTE   Fn1
 BYTE   TIE
 BYTE   W05
 BYTE   EOT
 BYTE   Cs2
 BYTE   N48  Cn1
 BYTE   TIE  Cs2  v072
 BYTE   W24
 BYTE   EOT
 BYTE   Fs1
 BYTE   N48  Dn1  v080
 BYTE   N24  Fs1  v048
 BYTE   W24
//  #08 //176   ----------------------------------------
 BYTE   PATT
  POIN2 Label_013D910E
//  #08 //177   ----------------------------------------
 BYTE   N12  Cn1  v080
 BYTE   N24  Fs1  v048
 BYTE   W12
 BYTE   Cn1  v056
 BYTE   W12
 BYTE   N48  Dn1  v080
 BYTE   N24  Fs1  v048
 BYTE   W12
 BYTE   N12  Cn1  v056
 BYTE   W12
 BYTE   N48  Cn1  v080
 BYTE   N24  Fs1  v048
 BYTE   W24
 BYTE   N48  Dn1  v080
 BYTE   N24  Fs1  v048
 BYTE   W24
//  #08 //178   ----------------------------------------
 BYTE   N12  Cn1  v080
 BYTE   N24  Fs1  v048
 BYTE   W12
 BYTE   Cn1  v056
 BYTE   W12
 BYTE   N36  Dn1  v080
 BYTE   N24  Fs1  v048
 BYTE   W12
 BYTE   N12  Cn1  v056
 BYTE   W12
 BYTE   N24  Cn1  v080
 BYTE   W12
 BYTE   N12  Dn1
 BYTE   W12
 BYTE   N24  Cn1
 BYTE   N12  Dn1  v068
 BYTE   W12
 BYTE   Dn1  v048
 BYTE   W12
//  #08 //179   ----------------------------------------
 BYTE   N24  Cn1  v080
 BYTE   N12  Dn1  v068
 BYTE   W12
 BYTE   TIE  Dn1  v080
 BYTE   W12
 BYTE   EOT
 BYTE   Cn2
 BYTE   N24  Cn1
 BYTE   TIE  Cn2  v068
 BYTE   W07
 BYTE   EOT
 BYTE   An1
 BYTE   TIE
 BYTE   W04
 BYTE   EOT
 BYTE   Fn1
 BYTE   W01
 BYTE   TIE
 BYTE   W12
 BYTE   EOT
 BYTE   Cs2
 BYTE   N24  Cn1  v080
 BYTE   N24  Cs2  v064
 BYTE   W24
 BYTE   Cn1  v080
 BYTE   N72  Cs2  v032
 BYTE   W24
//  #08 //180   ----------------------------------------
 BYTE   EOT
 BYTE   An2
 BYTE   N24  Cn1  v080
 BYTE   N24  An2  v052
 BYTE   W24
 BYTE   Cn1  v080
 BYTE   N72  An2  v032
 BYTE   W24
 BYTE   N24  Cn1  v080
 BYTE   N24  Cs2  v064
 BYTE   W24
 BYTE   Cn1  v080
 BYTE   N72  Cs2  v052
 BYTE   W24
//  #08 //181   ----------------------------------------
 BYTE   N24  Cn1  v080
 BYTE   N24  An2  v068
 BYTE   W24
 BYTE   Cn1  v080
 BYTE   N24  An2  v052
 BYTE   W24
 BYTE   N36  Cn1  v080
 BYTE   TIE  Cs2  v072
 BYTE   TIE  An2  v064
 BYTE   W24
 BYTE   EOT
 BYTE   As1
 BYTE   N24  As1  v024
 BYTE   W12
 BYTE   N48  Cn1  v080
 BYTE   W12
//  #08 //182   ----------------------------------------
 BYTE   EOT
 BYTE   Dn1
 BYTE   N96
 BYTE   N24  As1  v048
 BYTE   W24
 BYTE   As1  v024
 BYTE   W12
 BYTE   N12  Cn1  v080
 BYTE   W12
 BYTE   N19
 BYTE   N24  As1  v048
 BYTE   W19
 BYTE   N16  Cn1  v036
 BYTE   W05
 BYTE   N24  As1  v024
 BYTE   W12
 BYTE   N60  Cn1  v080
 BYTE   W12
//  #08 //183   ----------------------------------------
 BYTE   N96  Dn1
 BYTE   N24  As1  v048
 BYTE   W24
 BYTE   N48  As1  v024
 BYTE   W24
 BYTE   EOT
 BYTE   Cs2
 BYTE   N12  Cn1  v080
 BYTE   TIE  Cs2  v056
 BYTE   W12
 BYTE   N72  Cn1  v036
 BYTE   W12
 BYTE   N24  As1  v024
 BYTE   W24
//  #08 //184   ----------------------------------------
 BYTE   N60  Dn1  v080
 BYTE   N24  As1  v048
 BYTE   W24
 BYTE   As1  v024
 BYTE   W12
 BYTE   N12  Cn1  v080
 BYTE   W12
 BYTE   N36
 BYTE   N24  As1  v048
 BYTE   W12
 BYTE   N60  Dn1  v080
 BYTE   W12
 BYTE   N24  As1  v024
 BYTE   W12
 BYTE   Cn1  v080
 BYTE   W12
//  #08 //185   ----------------------------------------
 BYTE   N72  As1  v048
 BYTE   W12
 BYTE   N36  Cn1  v080
 BYTE   W12
 BYTE   EOT
 BYTE   An2
 BYTE   N72  Dn1
 BYTE   TIE  An2  v044
 BYTE   W24
 BYTE   EOT
 BYTE   Cs2
 BYTE   N19  Cn1  v080
 BYTE   TIE  Cs2  v056
 BYTE   W19
 BYTE   N16  Cn1  v036
 BYTE   W05
 BYTE   N24  As1  v024
 BYTE   W12
 BYTE   N48  Cn1  v080
 BYTE   W12
//  #08 //186   ----------------------------------------
 BYTE   N96  Dn1
 BYTE   N24  As1  v048
 BYTE   W24
 BYTE   As1  v024
 BYTE   W12
 BYTE   N12  Cn1  v080
 BYTE   W12
 BYTE   N19
 BYTE   N24  As1  v048
 BYTE   W19
 BYTE   N16  Cn1  v036
 BYTE   W05
 BYTE   N24  As1  v024
 BYTE   W12
 BYTE   N36  Cn1  v080
 BYTE   W12
//  #08 //187   ----------------------------------------
 BYTE   N96  Dn1
 BYTE   N24  As1  v048
 BYTE   W24
 BYTE   Cn1  v080
 BYTE   N48  As1  v024
 BYTE   W24
 BYTE   EOT
 BYTE   Cs2
 BYTE   N19  Cn1  v080
 BYTE   N96  Cs2  v056
 BYTE   W19
 BYTE   N16  Cn1  v036
 BYTE   W05
 BYTE   N24  As1  v024
 BYTE   W12
 BYTE   N36  Cn1  v080
 BYTE   W12
//  #08 //188   ----------------------------------------
 BYTE   N72  Dn1
 BYTE   N72  As1  v048
 BYTE   W24
 BYTE   EOT
 BYTE   An2
 BYTE   N24  Cn1  v080
 BYTE   TIE  An2  v040
 BYTE   W24
 BYTE   N48  Cn1  v080
 BYTE   N96  Cs2  v056
 BYTE   W24
 BYTE   N48  Dn1  v080
 BYTE   N24  As1  v024
 BYTE   W24
//  #08 //189   ----------------------------------------
 BYTE   N12  Cn1  v080
 BYTE   N24  As1  v048
 BYTE   W12
 BYTE   Cn1  v056
 BYTE   W12
 BYTE   N48  Dn1  v080
 BYTE   TIE  As1  v024
 BYTE   W12
 BYTE   N12  Cn1  v056
 BYTE   W12
 BYTE   EOT
 BYTE   An2
 BYTE   N48  Cn1  v080
 BYTE   TIE  Cs2  v072
 BYTE   TIE  An2  v064
 BYTE   W24
 BYTE   EOT
 BYTE   Ds2
 BYTE   N48  Dn1  v080
 BYTE   N12  Ds2  v048
 BYTE   W12
 BYTE   Ds2  v028
 BYTE   W12
//  #08 //190   ----------------------------------------
 BYTE   PATT
  POIN2 Label_013D8E86
//  #08 //191   ----------------------------------------
 BYTE   PATT
  POIN2 Label_013D8E86
//  #08 //192   ----------------------------------------
 BYTE   PATT
  POIN2 Label_013D8E86
//  #08 //193   ----------------------------------------
 BYTE   N12  Cn1  v080
 BYTE   N12  Ds2  v048
 BYTE   W12
 BYTE   N36  Cn1  v056
 BYTE   TIE  Ds2  v028
 BYTE   W12
 BYTE   EOT
 BYTE   An2
 BYTE   TIE  Dn1  v080
 BYTE   N24  An2  v040
 BYTE   W24
 BYTE   EOT
 BYTE   Cs2
 BYTE   N60  Cn1  v080
 BYTE   TIE  Cs2  v072
 BYTE   N96  An2  v064
 BYTE   W32
 BYTE   W03
 BYTE   EOT
 BYTE   An1
 BYTE   W01
 BYTE   N24  An1  v080
 BYTE   W01
 BYTE   EOT
 BYTE   Cn2
 BYTE   N92
 BYTE   W11
//  #08 //194   ----------------------------------------
 BYTE   W12
 BYTE   N36  Cn1
 BYTE   N13  An1  v056
 BYTE   W12
 BYTE   EOT
 BYTE   Fn1
 BYTE   N96  Fn1  v080
 BYTE   W01
 BYTE   N80  An1
 BYTE   W23
 BYTE   N72  Cn1
 BYTE   TIE  An2  v064
 BYTE   W36
 BYTE   N07  Cn2
 BYTE   W07
 BYTE   N04  Cn2  v048
 BYTE   W05
//  #08 //195   ----------------------------------------
 BYTE   TIE  Cn2  v080
 BYTE   W12
 BYTE   N84  An1
 BYTE   W12
 BYTE   N24  Cn1  v056
 BYTE   N96  Fn1  v080
 BYTE   W24
 BYTE   EOT
 BYTE   Cs2
 BYTE   N36  Cn1
 BYTE   TIE  Cs2  v072
 BYTE   W36
 BYTE   N60  Cn1  v056
 BYTE   W12
//  #08 //196   ----------------------------------------
 BYTE   N24  An1  v080
 BYTE   W01
 BYTE   EOT
 BYTE   Cn2
 BYTE   TIE
 BYTE   W23
 BYTE   Fn1
 BYTE   TIE  An1
 BYTE   W24
 BYTE   EOT
 BYTE   An2
 BYTE   N36  Cn1
 BYTE   N72  An2  v064
 BYTE   W24
 BYTE   EOT
 BYTE   Ds2
 BYTE   N24  Ds2  v048
 BYTE   W12
 BYTE   Cn1  v080
 BYTE   W12
//  #08 //197   ----------------------------------------
 BYTE   N72  Ds2  v048
 BYTE   W12
 BYTE   N36  Cn1  v080
 BYTE   W12
 BYTE   EOT
 BYTE   Dn1
 BYTE   N48
 BYTE   N24  An2  v048
 BYTE   W24
 BYTE   EOT
 BYTE   Cs2
 BYTE   N48  Cn1  v080
 BYTE   TIE  Cs2  v072
 BYTE   TIE  An2  v064
 BYTE   W24
 BYTE   N48  Dn1  v080
 BYTE   N12  Ds2  v048
 BYTE   W12
 BYTE   Ds2  v028
 BYTE   W12
//  #08 //198   ----------------------------------------
Label_013D94E5:
 BYTE   N12  Cn1  v080
 BYTE   N12  Ds2  v048
 BYTE   W12
 BYTE   N24  Cn1
 BYTE   N12  Ds2  v028
 BYTE   W12
 BYTE   N48  Dn1  v080
 BYTE   N12  Ds2  v048
 BYTE   W12
 BYTE   Cn1
 BYTE   N12  Ds2  v028
 BYTE   W12
 BYTE   N48  Cn1  v080
 BYTE   N12  Ds2  v048
 BYTE   W12
 BYTE   Ds2  v028
 BYTE   W12
 BYTE   N48  Dn1  v080
 BYTE   N12  Ds2  v048
 BYTE   W12
 BYTE   Ds2  v028
 BYTE   W12
 BYTE   PEND 
//  #08 //199   ----------------------------------------
Label_013D9513:
 BYTE   N12  Cn1  v080
 BYTE   N12  Ds2  v048
 BYTE   W12
 BYTE   N24  Cn1
 BYTE   N12  Ds2  v028
 BYTE   W12
 BYTE   N48  Dn1  v080
 BYTE   N12  Ds2  v048
 BYTE   W12
 BYTE   Cn1
 BYTE   N36  Ds2  v028
 BYTE   W12
 BYTE   PEND 
 BYTE   EOT
 BYTE   An2
 BYTE   N48  Cn1  v080
 BYTE   TIE  An2  v056
 BYTE   W24
 BYTE   N48  Dn1  v080
 BYTE   N12  Ds2  v048
 BYTE   W12
 BYTE   Ds2  v028
 BYTE   W12
//  #08 //200   ----------------------------------------
 BYTE   PATT
  POIN2 Label_013D94E5
//  #08 //201   ----------------------------------------
 BYTE   N12  Cn1  v080
 BYTE   N12  Ds2  v048
 BYTE   W12
 BYTE   N24  Cn1
 BYTE   N60  Ds2  v028
 BYTE   W12
 BYTE   EOT
 BYTE   An2
 BYTE   N48  Dn1  v080
 BYTE   TIE  An2  v048
 BYTE   W12
 BYTE   N12  Cn1
 BYTE   W12
 BYTE   EOT
 BYTE   Cs2
 BYTE   N48  Cn1  v080
 BYTE   TIE  Cs2  v072
 BYTE   W24
 BYTE   N48  Dn1  v080
 BYTE   N12  Ds2  v048
 BYTE   W12
 BYTE   Ds2  v028
 BYTE   W12
//  #08 //202   ----------------------------------------
 BYTE   PATT
  POIN2 Label_013D94E5
//  #08 //203   ----------------------------------------
 BYTE   PATT
  POIN2 Label_013D9513
//  #08 //204   ----------------------------------------
 BYTE   EOT
 BYTE   An2
 BYTE   N48  Cn1  v080
 BYTE   TIE  An2  v056
 BYTE   W24
 BYTE   N48  Dn1  v080
 BYTE   N12  Ds2  v048
 BYTE   W12
 BYTE   Ds2  v028
 BYTE   W12
 BYTE   Cn1  v080
 BYTE   N12  Ds2  v048
 BYTE   W12
 BYTE   N24  Cn1
 BYTE   N12  Ds2  v028
 BYTE   W12
 BYTE   N48  Dn1  v080
 BYTE   N12  Ds2  v048
 BYTE   W12
 BYTE   Cn1
 BYTE   N12  Ds2  v028
 BYTE   W12
//  #08 //205   ----------------------------------------
 BYTE   N48  Cn1  v080
 BYTE   N12  Ds2  v048
 BYTE   W12
 BYTE   N36  Ds2  v028
 BYTE   W12
 BYTE   EOT
 BYTE   An2
 BYTE   N48  Dn1  v080
 BYTE   TIE  An2  v048
 BYTE   W24
 BYTE   N12  Cn1  v080
 BYTE   N12  Ds2  v048
 BYTE   W12
 BYTE   N36  Cn1
 BYTE   N12  Ds2  v028
 BYTE   W12
 BYTE   Dn1  v080
 BYTE   N48  Ds2  v048
 BYTE   W12
 BYTE   N07  Dn1  v080
 BYTE   W07
 BYTE   N28  Dn1  v064
 BYTE   W05
//  #08 //206   ----------------------------------------
 BYTE   EOT
 BYTE   Cs2
 BYTE   N48  Cn1  v080
 BYTE   TIE  Cs2  v072
 BYTE   W24
 BYTE   N48  Dn1  v080
 BYTE   N12  Ds2  v048
 BYTE   W12
 BYTE   Ds2  v028
 BYTE   W12
//  #08 //207   ----------------------------------------
 BYTE   PATT
  POIN2 Label_013D94E5
//  #08 //208   ----------------------------------------
 BYTE   PATT
  POIN2 Label_013D9513
//  #08 //209   ----------------------------------------
 BYTE   EOT
 BYTE   An2
 BYTE   N48  Cn1  v080
 BYTE   TIE  An2  v056
 BYTE   W24
 BYTE   N48  Dn1  v080
 BYTE   N12  Ds2  v048
 BYTE   W12
 BYTE   Ds2  v028
 BYTE   W12
//  #08 //210   ----------------------------------------
 BYTE   PATT
  POIN2 Label_013D94E5
//  #08 //211   ----------------------------------------
 BYTE   N12  Cn1  v080
 BYTE   N12  Ds2  v048
 BYTE   W12
 BYTE   N24  Cn1
 BYTE   N12  Ds2  v028
 BYTE   W12
 BYTE   N07  Dn1  v080
 BYTE   N12  Ds2  v048
 BYTE   W07
 BYTE   N40  Dn1  v064
 BYTE   W05
 BYTE   N12  Cn1  v048
 BYTE   N36  Ds2  v028
 BYTE   W12
 BYTE   EOT
 BYTE   Cs2
 BYTE   N48  Cn1  v080
 BYTE   TIE  Cs2  v072
 BYTE   W24
 BYTE   N48  Dn1  v080
 BYTE   N12  Ds2  v048
 BYTE   W12
 BYTE   Ds2  v028
 BYTE   W12
//  #08 //212   ----------------------------------------
 BYTE   PATT
  POIN2 Label_013D94E5
//  #08 //213   ----------------------------------------
 BYTE   PATT
  POIN2 Label_013D9513
//  #08 //214   ----------------------------------------
 BYTE   EOT
 BYTE   An2
 BYTE   N48  Cn1  v080
 BYTE   N48  An2  v056
 BYTE   W24
 BYTE   Dn1  v080
 BYTE   N12  Ds2  v048
 BYTE   W24
 BYTE   Cn1  v080
 BYTE   N24  An2  v040
 BYTE   W12
 BYTE   N36  Cn1  v048
 BYTE   W12
 BYTE   N48  Dn1  v080
 BYTE   N24  An2  v044
 BYTE   W24
//  #08 //215   ----------------------------------------
 BYTE   N12  Cn1  v080
 BYTE   N96  An2  v048
 BYTE   W12
 BYTE   N36  Cn1
 BYTE   W12
 BYTE   EOT
 BYTE   Cs2
 BYTE   TIE  Dn1  v080
 BYTE   N72  Cs2  v048
 BYTE   W23
 BYTE   EOT
 BYTE   Cn2
 BYTE   W01
 BYTE   N24  Cn1
 BYTE   N07  Cn2  v072
 BYTE   W07
 BYTE   N04  Cn2  v056
 BYTE   W05
 BYTE   N07  Cn2  v072
 BYTE   W07
 BYTE   TIE  Cn2  v068
 BYTE   W05
 BYTE   EOT
 BYTE   Fn1  v045
 BYTE   N24  Cn1  v048
 BYTE   N12  Fn1  v080
 BYTE   N12  An1
 BYTE   W12
 BYTE   TIE  Fn1
 BYTE   TIE  An1
 BYTE   W12
//  #08 //216   ----------------------------------------
 BYTE   N24  Cn1
 BYTE   TIE  Cs2  v072
 BYTE   TIE  An2  v064
 BYTE   W24
 BYTE   EOT
 BYTE   Gs1
 BYTE   N24  Cn1  v080
 BYTE   N24  Gs1
 BYTE   W12
 BYTE   EOT
 BYTE   As1
 BYTE   N24  As1  v048
 BYTE   W12
 BYTE   Cn1  v080
 BYTE   N24  Gs1
 BYTE   W12
 BYTE   As1  v048
 BYTE   W12
 BYTE   EOT
 BYTE   Dn1
 BYTE   N24  Cn1  v080
 BYTE   N96  Dn1
 BYTE   N24  Gs1
 BYTE   W12
 BYTE   As1  v048
 BYTE   W12
//  #08 //217   ----------------------------------------
 BYTE   Cn1  v080
 BYTE   N24  Gs1
 BYTE   W12
 BYTE   As1  v048
 BYTE   W12
 BYTE   Cn1  v080
 BYTE   N24  Gs1
 BYTE   W12
 BYTE   As1  v048
 BYTE   W12
//  #08 //218   ----------------------------------------
 BYTE   PATT
  POIN2 Label_013D8BE3
//  #08 //219   ----------------------------------------
 BYTE   PATT
  POIN2 Label_013D8BE3
//  #08 //220   ----------------------------------------
 BYTE   N24  Cn1  v080
 BYTE   N24  Gs1
 BYTE   W12
 BYTE   N72  As1  v048
 BYTE   W12
 BYTE   EOT
 BYTE   Gn2
 BYTE   N24  Cn1  v080
 BYTE   N96  Dn1
 BYTE   N48  Gs1
 BYTE   W24
 BYTE   EOT
 BYTE   Cs2
 BYTE   N24  Cn1
 BYTE   TIE  Cs2  v072
 BYTE   W24
 BYTE   N24  Cn1  v080
 BYTE   N24  Gs1
 BYTE   W12
 BYTE   As1  v048
 BYTE   W12
//  #08 //221   ----------------------------------------
 BYTE   PATT
  POIN2 Label_013D8BE3
//  #08 //222   ----------------------------------------
 BYTE   N24  Cn1  v080
 BYTE   N24  Gs1
 BYTE   W12
 BYTE   As1  v048
 BYTE   W12
 BYTE   Cn1  v080
 BYTE   N84  Dn1
 BYTE   N24  Gs1
 BYTE   W12
 BYTE   As1  v048
 BYTE   W12
 BYTE   Cn1  v080
 BYTE   N24  Gs1
 BYTE   W12
 BYTE   As1  v048
 BYTE   W12
 BYTE   Cn1  v080
 BYTE   N24  Gs1
 BYTE   W24
//  #08 //223   ----------------------------------------
 BYTE   TIE  Cn1
 BYTE   W12
 BYTE   EOT
 BYTE   An2
 BYTE   N24  Dn1
 BYTE   N24  An2  v064
 BYTE   W24
 BYTE   Dn1  v080
 BYTE   N60  An2  v064
 BYTE   W24
 BYTE   EOT
 BYTE   En1
 BYTE   N12  Dn1  v092
 BYTE   N12  En1  v080
 BYTE   W12
 BYTE   Dn1  v056
 BYTE   N12  En1  v052
 BYTE   W12
 BYTE   Dn1  v080
 BYTE   W12
//  #08 //224   ----------------------------------------
 BYTE   N24  Dn1  v060
 BYTE   N24  An2  v064
 BYTE   W24
 BYTE   TIE  Dn1  v080
 BYTE   TIE  An2  v064
 BYTE   W24
 BYTE   EOT
 BYTE   Cn1  v049
 BYTE   N24  Cn1  v080
 BYTE   TIE  Cs2  v072
 BYTE   W24
 BYTE   N36  Cn1  v080
 BYTE   W11
 BYTE   EOT
 BYTE   Cn2
 BYTE   W01
 BYTE   Dn2
 BYTE   N36  Cn2
 BYTE   W12
//  #08 //225   ----------------------------------------
 BYTE   W12
 BYTE   Cn1
 BYTE   W12
 BYTE   EOT
 BYTE   An1
 BYTE   N36
 BYTE   W24
 BYTE   Cn1
 BYTE   W12
 BYTE   EOT
 BYTE   Fn1
 BYTE   W24
 BYTE   N60  Cn1
 BYTE   W12
//  #08 //226   ----------------------------------------
 BYTE   EOT
 BYTE   Dn1  v057
 BYTE   N12  Dn1  v096
 BYTE   N72  An2  v064
 BYTE   W12
 BYTE   N07  Dn1  v068
 BYTE   W07
 BYTE   N04  Dn1  v052
 BYTE   W05
 BYTE   N12  Dn1  v084
 BYTE   W24
 BYTE   N24  Cn1  v080
 BYTE   W24
 BYTE   EOT
 BYTE   Cs2
 BYTE   FINE

//**************** Track 9 (Midi-Chn.8) ****************//

The_One_They_Call_Witch_Song_009:
//  #09 //000   ----------------------------------------
 BYTE   KEYSH   The_One_They_Call_Witch_Song_key+0
 BYTE   VOICE   60
 BYTE   MODT 0
 BYTE   LFOS 44
 BYTE   BENDR  12
 BYTE   VOL   44*The_One_They_Call_Witch_Song_mvl/mxv
 BYTE   PAN   c_v+0
 BYTE   BENDR  12
 BYTE   VOL   44*The_One_They_Call_Witch_Song_mvl/mxv
 BYTE   PAN   c_v+0
 BYTE   N11  Gs3  v064
 BYTE   W12
 BYTE   N11
 BYTE   W12
 BYTE   N23  As3
 BYTE   W48
 BYTE   N11  Cn4
 BYTE   W12
 BYTE   N11
 BYTE   W12
//  #09 //001   ----------------------------------------
Label_013D7686:
 BYTE   N23  As3  v064
 BYTE   W48
 BYTE   N11  Gs3
 BYTE   W12
 BYTE   N11
 BYTE   W12
 BYTE   N23  As3
 BYTE   W24
 BYTE   PEND 
//  #09 //002   ----------------------------------------
Label_013D7693:
 BYTE   N11  Gs3  v064
 BYTE   W12
 BYTE   N11
 BYTE   W12
 BYTE   N23  As3
 BYTE   W48
 BYTE   N11  Cn4
 BYTE   W12
 BYTE   N11
 BYTE   W12
 BYTE   PEND 
//  #09 //003   ----------------------------------------
Label_013D76A2:
 BYTE   N23  As3  v064
 BYTE   W48
 BYTE   N11  Cn4
 BYTE   W12
 BYTE   N11
 BYTE   W12
 BYTE   N23  Cs4
 BYTE   W24
 BYTE   PEND 
//  #09 //004   ----------------------------------------
 BYTE   PATT
  POIN2 Label_013D7693
//  #09 //005   ----------------------------------------
 BYTE   PATT
  POIN2 Label_013D7686
//  #09 //006   ----------------------------------------
 BYTE   PATT
  POIN2 Label_013D7693
//  #09 //007   ----------------------------------------
 BYTE   PATT
  POIN2 Label_013D76A2
//  #09 //008   ----------------------------------------
Label_013D76C3:
 BYTE   N44  Fs3  v064
 BYTE   N44  As3
 BYTE   W48
 BYTE   Fn3
 BYTE   N44  As3
 BYTE   W48
//  #09 //009   ----------------------------------------
 BYTE   Ds3
 BYTE   N44  Fs3
 BYTE   W48
 BYTE   Cs3
 BYTE   N44  Fs3
 BYTE   W48
//  #09 //010   ----------------------------------------
 BYTE   Cn3
 BYTE   N44  Ds3
 BYTE   W48
 BYTE   As2
 BYTE   N44  Cs3
 BYTE   W48
//  #09 //011   ----------------------------------------
 BYTE   N23  An2
 BYTE   N23  Cn3
 BYTE   W24
 BYTE   As2
 BYTE   N23  Cs3
 BYTE   W24
 BYTE   Cn3
 BYTE   N23  Ds3
 BYTE   W24
 BYTE   N23
 BYTE   N23  Fs3
 BYTE   W24
//  #09 //012   ----------------------------------------
Label_013D76EE:
 BYTE   N11  Cs3  v072
 BYTE   W12
 BYTE   Cs3  v044
 BYTE   W12
 BYTE   N11
 BYTE   W12
 BYTE   N11
 BYTE   W12
 BYTE   Cs3  v072
 BYTE   W12
 BYTE   Cs3  v044
 BYTE   W12
 BYTE   N11
 BYTE   W12
 BYTE   N11
 BYTE   W12
 BYTE   PEND 
//  #09 //013   ----------------------------------------
Label_013D7704:
 BYTE   N11  Ds3  v072
 BYTE   W12
 BYTE   Ds3  v044
 BYTE   W12
 BYTE   N11
 BYTE   W12
 BYTE   N11
 BYTE   W12
 BYTE   Ds3  v072
 BYTE   W12
 BYTE   Ds3  v044
 BYTE   W12
 BYTE   N11
 BYTE   W12
 BYTE   N11
 BYTE   W12
 BYTE   PEND 
//  #09 //014   ----------------------------------------
 BYTE   PATT
  POIN2 Label_013D7704
//  #09 //015   ----------------------------------------
 BYTE   N11  Cs3  v072
 BYTE   W12
 BYTE   Cs3  v044
 BYTE   W12
 BYTE   N11
 BYTE   W12
 BYTE   N11
 BYTE   W12
 BYTE   Cn3  v072
 BYTE   W12
 BYTE   Cn3  v044
 BYTE   W12
 BYTE   N11
 BYTE   W12
 BYTE   N11
 BYTE   W12
//  #09 //016   ----------------------------------------
 BYTE   PATT
  POIN2 Label_013D76EE
//  #09 //017   ----------------------------------------
 BYTE   PATT
  POIN2 Label_013D7704
//  #09 //018   ----------------------------------------
 BYTE   N11  Fn3  v072
 BYTE   W12
 BYTE   Fn3  v044
 BYTE   W12
 BYTE   N11
 BYTE   W12
 BYTE   Fs3  v072
 BYTE   W12
 BYTE   Fs3  v044
 BYTE   W12
 BYTE   N11
 BYTE   W12
 BYTE   Gs3  v072
 BYTE   W12
 BYTE   Gs3  v044
 BYTE   W12
//  #09 //019   ----------------------------------------
 BYTE   N11
 BYTE   W12
 BYTE   En3  v072
 BYTE   W12
 BYTE   En3  v044
 BYTE   W12
 BYTE   N11
 BYTE   W12
 BYTE   Fs3  v072
 BYTE   W12
 BYTE   Fs3  v044
 BYTE   W12
 BYTE   Gn3  v072
 BYTE   W12
 BYTE   Gn3  v044
 BYTE   W12
//  #09 //020   ----------------------------------------
 BYTE   Cs3  v072
 BYTE   W12
 BYTE   Cs3  v044
 BYTE   W12
 BYTE   N23  As2  v064
 BYTE   N11  Cs3  v044
 BYTE   W12
 BYTE   N11
 BYTE   W12
 BYTE   N23  Fn2  v064
 BYTE   N11  Cs3  v072
 BYTE   W12
 BYTE   Cs3  v044
 BYTE   W12
 BYTE   N23  As2  v064
 BYTE   N11  Cs3  v044
 BYTE   W12
 BYTE   N11
 BYTE   W12
//  #09 //021   ----------------------------------------
 BYTE   N92  Fs2  v064
 BYTE   N11  Ds3  v072
 BYTE   W12
 BYTE   Ds3  v044
 BYTE   W12
 BYTE   N11
 BYTE   W12
 BYTE   N11
 BYTE   W12
 BYTE   Ds3  v072
 BYTE   W12
 BYTE   Ds3  v044
 BYTE   W12
 BYTE   N11
 BYTE   W12
 BYTE   N11
 BYTE   W12
//  #09 //022   ----------------------------------------
 BYTE   Ds3  v072
 BYTE   W12
 BYTE   Ds3  v044
 BYTE   W12
 BYTE   N23  Ds2  v064
 BYTE   N11  Ds3  v044
 BYTE   W12
 BYTE   N11
 BYTE   W12
 BYTE   N23  Fn2  v064
 BYTE   N11  Ds3  v072
 BYTE   W12
 BYTE   Ds3  v044
 BYTE   W12
 BYTE   N23  Fs2  v064
 BYTE   N11  Ds3  v044
 BYTE   W12
 BYTE   N11
 BYTE   W12
//  #09 //023   ----------------------------------------
 BYTE   N44  As2  v064
 BYTE   N11  Cs3  v072
 BYTE   W12
 BYTE   Cs3  v044
 BYTE   W12
 BYTE   N11
 BYTE   W12
 BYTE   N11
 BYTE   W12
 BYTE   N44  An2  v064
 BYTE   N11  Cn3  v072
 BYTE   W12
 BYTE   Cn3  v044
 BYTE   W12
 BYTE   N11
 BYTE   W12
 BYTE   N11
 BYTE   W12
//  #09 //024   ----------------------------------------
 BYTE   N44  As2  v064
 BYTE   N92  As3  v048
 BYTE   W48
 BYTE   N19  As2  v064
 BYTE   W18
 BYTE   W01
 BYTE   N16  Gs2
 BYTE   W05
 BYTE   W12
 BYTE   N11  Fs2
 BYTE   W12
//  #09 //025   ----------------------------------------
 BYTE   N44  As3  v048
 BYTE   W24
 BYTE   N23  Ds2  v064
 BYTE   W24
 BYTE   Fs2
 BYTE   N44  As3  v048
 BYTE   W24
 BYTE   N23  As2  v064
 BYTE   W24
//  #09 //026   ----------------------------------------
 BYTE   N92  An2
 BYTE   N92  An3  v048
 BYTE   W96
//  #09 //027   ----------------------------------------
 BYTE   N23  Gs3
 BYTE   W24
 BYTE   N23
 BYTE   W24
 BYTE   N19
 BYTE   W18
 BYTE   W01
 BYTE   N04
 BYTE   W17
 BYTE   N11
 BYTE   W12
//  #09 //028   ----------------------------------------
 BYTE   N23  As3
 BYTE   W96
//  #09 //029   ----------------------------------------
 BYTE   W96
//  #09 //030   ----------------------------------------
 BYTE   W96
//  #09 //031   ----------------------------------------
 BYTE   W96
//  #09 //032   ----------------------------------------
 BYTE   W96
//  #09 //033   ----------------------------------------
 BYTE   W96
//  #09 //034   ----------------------------------------
 BYTE   W96
//  #09 //035   ----------------------------------------
 BYTE   W96
//  #09 //036   ----------------------------------------
Label_013D7823:
 BYTE   N11  Ds3  v072
 BYTE   W12
 BYTE   Ds3  v044
 BYTE   W12
 BYTE   N11
 BYTE   W12
 BYTE   N11
 BYTE   W12
 BYTE   Cs3  v072
 BYTE   W12
 BYTE   Cs3  v044
 BYTE   W12
 BYTE   N11
 BYTE   W12
 BYTE   N11
 BYTE   W12
 BYTE   PEND 
//  #09 //037   ----------------------------------------
Label_013D7839:
 BYTE   N11  Cn3  v072
 BYTE   W12
 BYTE   Cn3  v044
 BYTE   W12
 BYTE   N11
 BYTE   W12
 BYTE   N11
 BYTE   W12
 BYTE   Cs3  v072
 BYTE   W12
 BYTE   Cs3  v044
 BYTE   W12
 BYTE   N11
 BYTE   W12
 BYTE   N11
 BYTE   W12
 BYTE   PEND 
//  #09 //038   ----------------------------------------
Label_013D784F:
 BYTE   N11  Cn3  v072
 BYTE   W12
 BYTE   Cn3  v044
 BYTE   W12
 BYTE   As2  v072
 BYTE   W12
 BYTE   As2  v044
 BYTE   W12
 BYTE   Cs3  v072
 BYTE   W12
 BYTE   Cs3  v044
 BYTE   W12
 BYTE   N11
 BYTE   W12
 BYTE   N11
 BYTE   W12
 BYTE   PEND 
//  #09 //039   ----------------------------------------
 BYTE   PATT
  POIN2 Label_013D7839
//  #09 //040   ----------------------------------------
 BYTE   PATT
  POIN2 Label_013D7823
//  #09 //041   ----------------------------------------
Label_013D7871:
 BYTE   N11  Cn3  v072
 BYTE   W12
 BYTE   Cn3  v044
 BYTE   W12
 BYTE   N11
 BYTE   W12
 BYTE   Cs3  v072
 BYTE   W12
 BYTE   Cs3  v044
 BYTE   W12
 BYTE   N11
 BYTE   W12
 BYTE   Ds3  v072
 BYTE   W12
 BYTE   Ds3  v044
 BYTE   W12
 BYTE   PEND 
//  #09 //042   ----------------------------------------
Label_013D7889:
 BYTE   N11  Fn3  v072
 BYTE   W12
 BYTE   Fn3  v044
 BYTE   W12
 BYTE   N11
 BYTE   W12
 BYTE   Fn3  v072
 BYTE   W12
 BYTE   Fn3  v044
 BYTE   W12
 BYTE   N11
 BYTE   W12
 BYTE   Ds3  v072
 BYTE   W12
 BYTE   Ds3  v044
 BYTE   W12
 BYTE   PEND 
//  #09 //043   ----------------------------------------
 BYTE   Ds3  v072
 BYTE   W12
 BYTE   Ds3  v044
 BYTE   W12
 BYTE   N23  As2  v064
 BYTE   N11  Ds3  v044
 BYTE   W12
 BYTE   Ds3  v072
 BYTE   W12
 BYTE   N23  Cn3  v064
 BYTE   N11  Ds3  v044
 BYTE   W12
 BYTE   N11
 BYTE   W12
 BYTE   N23  Cs3  v064
 BYTE   N11  Ds3  v072
 BYTE   W12
 BYTE   Ds3  v044
 BYTE   W12
//  #09 //044   ----------------------------------------
 BYTE   Ds3  v064
 BYTE   W12
 BYTE   Ds3  v044
 BYTE   W12
 BYTE   N11
 BYTE   W12
 BYTE   N11
 BYTE   W12
 BYTE   N44  As2  v064
 BYTE   N11  Cs3  v072
 BYTE   W12
 BYTE   Cs3  v044
 BYTE   W12
 BYTE   N11
 BYTE   W12
 BYTE   N11
 BYTE   W12
//  #09 //045   ----------------------------------------
 BYTE   N44  An2  v064
 BYTE   N11  Cn3  v072
 BYTE   W12
 BYTE   Cn3  v044
 BYTE   W12
 BYTE   N11
 BYTE   W12
 BYTE   N11
 BYTE   W12
 BYTE   N23  As2  v064
 BYTE   N11  Ds3  v072
 BYTE   W12
 BYTE   Ds3  v044
 BYTE   W12
 BYTE   Cs3  v064
 BYTE   W12
 BYTE   Cs3  v044
 BYTE   W12
//  #09 //046   ----------------------------------------
 BYTE   Cn3  v064
 BYTE   W12
 BYTE   Cn3  v044
 BYTE   W12
 BYTE   N11
 BYTE   W12
 BYTE   N32  As2  v064
 BYTE   N11  Cs3  v072
 BYTE   W12
 BYTE   Cs3  v044
 BYTE   W12
 BYTE   N11
 BYTE   W12
 BYTE   Cs3  v072
 BYTE   W12
 BYTE   Cs3  v044
 BYTE   W12
//  #09 //047   ----------------------------------------
 BYTE   N32  Cn3  v064
 BYTE   N11  Ds3  v072
 BYTE   W12
 BYTE   Ds3  v044
 BYTE   W12
 BYTE   N11
 BYTE   W12
 BYTE   N32  Cs3  v064
 BYTE   N11  Fn3  v072
 BYTE   W12
 BYTE   Fn3  v044
 BYTE   W12
 BYTE   N11
 BYTE   W12
 BYTE   Fn3  v072
 BYTE   W12
 BYTE   Fn3  v044
 BYTE   W12
//  #09 //048   ----------------------------------------
 BYTE   N44  As2  v064
 BYTE   N11  Fn3  v072
 BYTE   W12
 BYTE   Fn3  v044
 BYTE   W12
 BYTE   N11
 BYTE   W12
 BYTE   N11
 BYTE   W12
 BYTE   N44  Cs3  v064
 BYTE   N11  Fn3  v072
 BYTE   W12
 BYTE   Fn3  v044
 BYTE   W12
 BYTE   N11
 BYTE   W12
 BYTE   N11
 BYTE   W12
//  #09 //049   ----------------------------------------
 BYTE   N44  Cn3  v064
 BYTE   N11  En3  v072
 BYTE   W12
 BYTE   En3  v044
 BYTE   W12
 BYTE   N11
 BYTE   W12
 BYTE   Fn3  v072
 BYTE   W12
 BYTE   N44  Gn2  v064
 BYTE   N11  Fn3  v044
 BYTE   W12
 BYTE   N11
 BYTE   W12
 BYTE   Gn3  v072
 BYTE   W12
 BYTE   Gn3  v044
 BYTE   W12
//  #09 //050   ----------------------------------------
 BYTE   N32  As2  v064
 BYTE   N11  As3  v072
 BYTE   W12
 BYTE   As3  v044
 BYTE   W12
 BYTE   N11
 BYTE   W12
 BYTE   N32  An2  v064
 BYTE   N11  An3  v072
 BYTE   W12
 BYTE   An3  v044
 BYTE   W12
 BYTE   N11
 BYTE   W12
 BYTE   N23  Gn2  v064
 BYTE   N11  Gn3  v072
 BYTE   W12
 BYTE   Gn3  v044
 BYTE   W12
//  #09 //051   ----------------------------------------
 BYTE   N32  An2  v064
 BYTE   N11  An3  v084
 BYTE   W12
 BYTE   An3  v044
 BYTE   W12
 BYTE   N11
 BYTE   W12
 BYTE   N30  As2  v064
 BYTE   N11  As3  v084
 BYTE   W12
 BYTE   As3  v044
 BYTE   W12
 BYTE   N11
 BYTE   W12
 BYTE   N23  Cn3  v064
 BYTE   N11  Cn4  v084
 BYTE   W12
 BYTE   Cn4  v044
 BYTE   W12
//  #09 //052   ----------------------------------------
 BYTE   W96
//  #09 //053   ----------------------------------------
 BYTE   W96
//  #09 //054   ----------------------------------------
 BYTE   W24
 BYTE   N23  Cs3  v064
 BYTE   W24
 BYTE   Ds3
 BYTE   W24
 BYTE   N44  Fn3
 BYTE   W24
//  #09 //055   ----------------------------------------
 BYTE   W24
 BYTE   N23  Cs3
 BYTE   W24
 BYTE   Ds3
 BYTE   W24
 BYTE   Cs3
 BYTE   W24
//  #09 //056   ----------------------------------------
 BYTE   N32  Cn3
 BYTE   W36
 BYTE   TIE  As2
 BYTE   W12
 BYTE   W48
//  #09 //057   ----------------------------------------
Label_013D79CB:
 BYTE   W92
 BYTE   W03
 BYTE   PEND 
 BYTE   EOT
 BYTE   As2
 BYTE   W01
//  #09 //058   ----------------------------------------
 BYTE   W96
//  #09 //059   ----------------------------------------
 BYTE   W24
 BYTE   N23  As2  v064
 BYTE   W24
 BYTE   Cn3
 BYTE   W24
 BYTE   Cs3
 BYTE   W24
//  #09 //060   ----------------------------------------
 BYTE   N68  Ds3
 BYTE   W96
//  #09 //061   ----------------------------------------
 BYTE   N32  Dn3
 BYTE   W36
 BYTE   Ds3
 BYTE   W12
 BYTE   W24
 BYTE   N23  Fn3
 BYTE   W24
//  #09 //062   ----------------------------------------
 BYTE   N44  Fs3
 BYTE   W48
 BYTE   Cs3
 BYTE   N44  Gs3  v048
 BYTE   W48
//  #09 //063   ----------------------------------------
 BYTE   As2  v064
 BYTE   N44  As3  v048
 BYTE   W48
 BYTE   Gn2  v064
 BYTE   N23  Ds4  v048
 BYTE   W24
 BYTE   Gn4
 BYTE   W24
//  #09 //064   ----------------------------------------
 BYTE   N92  Gs2  v064
 BYTE   N23  Gs4  v048
 BYTE   W24
 BYTE   Fs4
 BYTE   W24
 BYTE   Fn4
 BYTE   W24
 BYTE   Ds4
 BYTE   W24
//  #09 //065   ----------------------------------------
 BYTE   N44  As2  v064
 BYTE   N44  Dn4  v048
 BYTE   W48
 BYTE   Dn3  v064
 BYTE   N44  As3  v048
 BYTE   W48
//  #09 //066   ----------------------------------------
 BYTE   N92  Ds3  v064
 BYTE   N92  As3  v048
 BYTE   W96
//  #09 //067   ----------------------------------------
 BYTE   N11  Dn3  v064
 BYTE   N11  Fn3  v048
 BYTE   W12
 BYTE   Dn3  v064
 BYTE   N11  Fn3  v048
 BYTE   W24
 BYTE   Dn3  v064
 BYTE   N11  Fn3  v048
 BYTE   W24
 BYTE   N32  Dn3  v064
 BYTE   N32  Fn3  v048
 BYTE   W36
//  #09 //068   ----------------------------------------
Label_013D7A38:
 BYTE   N92  Fs3  v056
 BYTE   W96
 BYTE   PEND 
//  #09 //069   ----------------------------------------
Label_013D7A3D:
 BYTE   N44  Fs3  v056
 BYTE   W48
 BYTE   N44
 BYTE   W48
 BYTE   PEND 
//  #09 //070   ----------------------------------------
 BYTE   PATT
  POIN2 Label_013D7A38
//  #09 //071   ----------------------------------------
 BYTE   N44  Gs3  v056
 BYTE   W48
 BYTE   Fn3
 BYTE   W48
//  #09 //072   ----------------------------------------
 BYTE   PATT
  POIN2 Label_013D7A38
//  #09 //073   ----------------------------------------
 BYTE   PATT
  POIN2 Label_013D7A3D
//  #09 //074   ----------------------------------------
 BYTE   N92  Gs3  v056
 BYTE   W96
//  #09 //075   ----------------------------------------
 BYTE   N44  As3
 BYTE   W48
 BYTE   N44
 BYTE   W48
//  #09 //076   ----------------------------------------
 BYTE   PATT
  POIN2 Label_013D7A38
//  #09 //077   ----------------------------------------
 BYTE   PATT
  POIN2 Label_013D7A3D
//  #09 //078   ----------------------------------------
 BYTE   PATT
  POIN2 Label_013D7A38
//  #09 //079   ----------------------------------------
 BYTE   N44  Gs3  v056
 BYTE   W48
 BYTE   N44
 BYTE   W48
//  #09 //080   ----------------------------------------
 BYTE   PATT
  POIN2 Label_013D7A38
//  #09 //081   ----------------------------------------
 BYTE   W96
//  #09 //082   ----------------------------------------
 BYTE   W96
//  #09 //083   ----------------------------------------
 BYTE   W96
//  #09 //084   ----------------------------------------
 BYTE   W12
 BYTE   N11  As3  v080
 BYTE   W12
 BYTE   N23
 BYTE   W24
 BYTE   N11  Bn3
 BYTE   W12
 BYTE   N11
 BYTE   W24
 BYTE   Cs4
 BYTE   W12
//  #09 //085   ----------------------------------------
 BYTE   N23
 BYTE   W24
 BYTE   N11  Bn3
 BYTE   W12
 BYTE   N11
 BYTE   W24
 BYTE   As3
 BYTE   W24
 BYTE   Bn3
 BYTE   W12
//  #09 //086   ----------------------------------------
 BYTE   W96
//  #09 //087   ----------------------------------------
 BYTE   W96
//  #09 //088   ----------------------------------------
 BYTE   W12
 BYTE   As3
 BYTE   W12
 BYTE   N23
 BYTE   W24
 BYTE   N11  Bn3
 BYTE   W12
 BYTE   N11
 BYTE   W24
 BYTE   N11
 BYTE   W12
//  #09 //089   ----------------------------------------
 BYTE   N44  As3
 BYTE   W48
 BYTE   An3
 BYTE   W48
//  #09 //090   ----------------------------------------
 BYTE   GoTo
  POIN2 Label_013D76C3
//  #09 //091   ----------------------------------------
Label_013D7AB0:
 BYTE   N11  As2  v100
 BYTE   W12
 BYTE   As2  v068
 BYTE   W24
 BYTE   N11
 BYTE   W12
 BYTE   As2  v100
 BYTE   W12
 BYTE   As2  v068
 BYTE   W24
 BYTE   N11
 BYTE   W12
 BYTE   PEND 
//  #09 //092   ----------------------------------------
 BYTE   PATT
  POIN2 Label_013D7AB0
//  #09 //093   ----------------------------------------
Label_013D7AC7:
 BYTE   N11  An2  v100
 BYTE   W12
 BYTE   An2  v068
 BYTE   W24
 BYTE   N11
 BYTE   W12
 BYTE   An2  v100
 BYTE   W12
 BYTE   An2  v068
 BYTE   W24
 BYTE   N11
 BYTE   W12
 BYTE   PEND 
//  #09 //094   ----------------------------------------
 BYTE   PATT
  POIN2 Label_013D7AB0
//  #09 //095   ----------------------------------------
 BYTE   PATT
  POIN2 Label_013D7AB0
//  #09 //096   ----------------------------------------
 BYTE   PATT
  POIN2 Label_013D7AB0
//  #09 //097   ----------------------------------------
 BYTE   PATT
  POIN2 Label_013D7AB0
//  #09 //098   ----------------------------------------
 BYTE   PATT
  POIN2 Label_013D7AC7
//  #09 //099   ----------------------------------------
 BYTE   PATT
  POIN2 Label_013D7AB0
//  #09 //100   ----------------------------------------
 BYTE   PATT
  POIN2 Label_013D7AB0
//  #09 //101   ----------------------------------------
 BYTE   PATT
  POIN2 Label_013D7AC7
//  #09 //102   ----------------------------------------
 BYTE   PATT
  POIN2 Label_013D7AB0
//  #09 //103   ----------------------------------------
 BYTE   PATT
  POIN2 Label_013D7AB0
//  #09 //104   ----------------------------------------
 BYTE   N11  Cn3  v100
 BYTE   W12
 BYTE   Cn3  v068
 BYTE   W24
 BYTE   N11
 BYTE   W12
 BYTE   Cn3  v100
 BYTE   W12
 BYTE   Cn3  v068
 BYTE   W24
 BYTE   N11
 BYTE   W12
//  #09 //105   ----------------------------------------
 BYTE   PATT
  POIN2 Label_013D7AB0
//  #09 //106   ----------------------------------------
 BYTE   N11  An2  v100
 BYTE   W12
 BYTE   An2  v068
 BYTE   W24
 BYTE   N11
 BYTE   W12
 BYTE   An2  v100
 BYTE   W12
 BYTE   An2  v068
 BYTE   W12
 BYTE   N03  Cn3  v044
 BYTE   W01
 BYTE   W02
 BYTE   W01
 BYTE   Cs3  v048
 BYTE   W02
 BYTE   W01
 BYTE   W01
 BYTE   Ds3
 BYTE   W01
 BYTE   W01
 BYTE   W02
 BYTE   Fn3  v056
 BYTE   W01
 BYTE   W02
 BYTE   W01
 BYTE   Fs3
 BYTE   W02
 BYTE   W01
 BYTE   W01
 BYTE   An3  v060
 BYTE   W01
 BYTE   W01
 BYTE   W02
//  #09 //107   ----------------------------------------
 BYTE   N44  Fs3  v056
 BYTE   N44  As3  v064
 BYTE   W48
 BYTE   Fn3  v056
 BYTE   N44  As3  v064
 BYTE   W48
//  #09 //108   ----------------------------------------
 BYTE   Ds3  v056
 BYTE   N44  Fs3  v064
 BYTE   W48
 BYTE   Cs3  v056
 BYTE   N44  Fs3  v064
 BYTE   W48
//  #09 //109   ----------------------------------------
 BYTE   Cn3  v056
 BYTE   N44  Ds3  v064
 BYTE   W48
 BYTE   As2  v056
 BYTE   N44  Cs3  v064
 BYTE   W48
//  #09 //110   ----------------------------------------
 BYTE   N23  An2  v056
 BYTE   N23  Cn3  v064
 BYTE   W24
 BYTE   As2  v056
 BYTE   N23  Cs3  v064
 BYTE   W24
 BYTE   Cn3  v056
 BYTE   N23  Ds3  v064
 BYTE   W24
 BYTE   Ds3  v056
 BYTE   N23  Fs3  v064
 BYTE   W24
//  #09 //111   ----------------------------------------
Label_013D7B8B:
 BYTE   W12
 BYTE   N11  Ds3  v056
 BYTE   N11  As3  v064
 BYTE   W12
 BYTE   N23  Ds3  v056
 BYTE   N23  As3  v064
 BYTE   W24
 BYTE   N11  Ds3  v056
 BYTE   N11  As3  v064
 BYTE   W12
 BYTE   Ds3  v056
 BYTE   N11  As3  v064
 BYTE   W24
 BYTE   TIE  Cs3  v056
 BYTE   TIE  Gs3  v064
 BYTE   W12
 BYTE   PEND 
//  #09 //112   ----------------------------------------
 BYTE   PATT
  POIN2 Label_013D79CB
//  #09 //113   ----------------------------------------
 BYTE   EOT
 BYTE   Cs3  v068
 BYTE   W01
Label_013D7BB8:
 BYTE   W12
 BYTE   N11  Ds3  v056
 BYTE   N11  As3  v064
 BYTE   W12
 BYTE   N23  Ds3  v056
 BYTE   N23  As3  v064
 BYTE   W24
 BYTE   N11  Ds3  v056
 BYTE   N11  As3  v064
 BYTE   W12
 BYTE   Ds3  v056
 BYTE   N11  As3  v064
 BYTE   W24
 BYTE   TIE  En3  v056
 BYTE   TIE  Bn3  v064
 BYTE   W12
 BYTE   PEND 
//  #09 //114   ----------------------------------------
 BYTE   PATT
  POIN2 Label_013D79CB
//  #09 //115   ----------------------------------------
 BYTE   EOT
 BYTE   En3  v071
 BYTE   W01
//  #09 //116   ----------------------------------------
 BYTE   PATT
  POIN2 Label_013D7B8B
//  #09 //117   ----------------------------------------
 BYTE   PATT
  POIN2 Label_013D79CB
//  #09 //118   ----------------------------------------
 BYTE   EOT
 BYTE   Cs3  v068
 BYTE   W01
Label_013D7BF3:
 BYTE   W12
 BYTE   N11  Ds3  v056
 BYTE   N11  As3  v064
 BYTE   W12
 BYTE   N23  Ds3  v056
 BYTE   N23  As3  v064
 BYTE   W24
 BYTE   N11  Ds3  v056
 BYTE   N11  As3  v064
 BYTE   W12
 BYTE   Ds3  v056
 BYTE   N11  As3  v064
 BYTE   W24
 BYTE   N23  Cs4
 BYTE   W12
 BYTE   PEND 
//  #09 //119   ----------------------------------------
Label_013D7C13:
 BYTE   W12
 BYTE   N11  Bn3  v064
 BYTE   W12
 BYTE   As3
 BYTE   W12
 BYTE   Bn3
 BYTE   W12
 BYTE   N23  Fs3
 BYTE   W24
 BYTE   Gs3
 BYTE   W24
 BYTE   PEND 
//  #09 //120   ----------------------------------------
Label_013D7C22:
 BYTE   W48
 BYTE   N11  En4  v064
 BYTE   W12
 BYTE   Bn3
 BYTE   W12
 BYTE   N23  Fs3
 BYTE   W24
 BYTE   PEND 
//  #09 //121   ----------------------------------------
 BYTE   W24
 BYTE   N11  As3
 BYTE   W12
 BYTE   Fn3
 BYTE   W12
 BYTE   Cn3
 BYTE   W12
 BYTE   Ds3
 BYTE   W12
 BYTE   Gs3
 BYTE   W12
 BYTE   Cs4
 BYTE   W12
//  #09 //122   ----------------------------------------
 BYTE   PATT
  POIN2 Label_013D7823
//  #09 //123   ----------------------------------------
 BYTE   PATT
  POIN2 Label_013D7839
//  #09 //124   ----------------------------------------
 BYTE   PATT
  POIN2 Label_013D784F
//  #09 //125   ----------------------------------------
 BYTE   PATT
  POIN2 Label_013D7839
//  #09 //126   ----------------------------------------
 BYTE   PATT
  POIN2 Label_013D7823
//  #09 //127   ----------------------------------------
 BYTE   PATT
  POIN2 Label_013D7871
//  #09 //128   ----------------------------------------
 BYTE   PATT
  POIN2 Label_013D7889
//  #09 //129   ----------------------------------------
 BYTE   N11  Ds3  v072
 BYTE   W12
 BYTE   Ds3  v044
 BYTE   W12
 BYTE   N11
 BYTE   W12
 BYTE   Ds3  v072
 BYTE   W12
 BYTE   Ds3  v044
 BYTE   W12
 BYTE   N11
 BYTE   W12
 BYTE   Ds3  v072
 BYTE   W12
 BYTE   Ds3  v044
 BYTE   W12
//  #09 //130   ----------------------------------------
 BYTE   PATT
  POIN2 Label_013D7823
//  #09 //131   ----------------------------------------
 BYTE   N11  Cn3  v072
 BYTE   W12
 BYTE   Cn3  v044
 BYTE   W12
 BYTE   N11
 BYTE   W12
 BYTE   N11
 BYTE   W12
 BYTE   Ds3  v072
 BYTE   W12
 BYTE   Ds3  v044
 BYTE   W12
 BYTE   Cs3  v072
 BYTE   W12
 BYTE   Cs3  v044
 BYTE   W12
//  #09 //132   ----------------------------------------
 BYTE   Cn3  v072
 BYTE   W12
 BYTE   Cn3  v044
 BYTE   W12
 BYTE   N11
 BYTE   W12
 BYTE   Cs3  v072
 BYTE   W12
 BYTE   Cs3  v044
 BYTE   W12
 BYTE   N11
 BYTE   W12
 BYTE   Cs3  v072
 BYTE   W12
 BYTE   Cs3  v044
 BYTE   W12
//  #09 //133   ----------------------------------------
 BYTE   Ds3  v072
 BYTE   W12
 BYTE   Ds3  v044
 BYTE   W12
 BYTE   N11
 BYTE   W12
 BYTE   Fn3  v072
 BYTE   W12
 BYTE   Fn3  v044
 BYTE   W12
 BYTE   N11
 BYTE   W12
 BYTE   Fn3  v072
 BYTE   W12
 BYTE   Fn3  v044
 BYTE   W12
//  #09 //134   ----------------------------------------
 BYTE   Fn3  v072
 BYTE   W12
 BYTE   Fn3  v044
 BYTE   W12
 BYTE   N11
 BYTE   W12
 BYTE   N11
 BYTE   W12
 BYTE   Fn3  v072
 BYTE   W12
 BYTE   Fn3  v044
 BYTE   W12
 BYTE   N11
 BYTE   W12
 BYTE   N11
 BYTE   W12
//  #09 //135   ----------------------------------------
 BYTE   En3  v072
 BYTE   W12
 BYTE   En3  v044
 BYTE   W12
 BYTE   N11
 BYTE   W12
 BYTE   Fn3  v072
 BYTE   W12
 BYTE   Fn3  v044
 BYTE   W12
 BYTE   N11
 BYTE   W12
 BYTE   Gn3  v072
 BYTE   W12
 BYTE   Gn3  v044
 BYTE   W12
//  #09 //136   ----------------------------------------
 BYTE   As3  v072
 BYTE   W12
 BYTE   As3  v044
 BYTE   W12
 BYTE   N11
 BYTE   W12
 BYTE   An3  v072
 BYTE   W12
 BYTE   An3  v044
 BYTE   W12
 BYTE   N11
 BYTE   W12
 BYTE   Gn3  v072
 BYTE   W12
 BYTE   Gn3  v044
 BYTE   W12
//  #09 //137   ----------------------------------------
 BYTE   N23  Fn2  v056
 BYTE   N11  An3  v084
 BYTE   W12
 BYTE   An3  v044
 BYTE   W12
 BYTE   N11
 BYTE   W12
 BYTE   Gn2  v056
 BYTE   N11  As3  v084
 BYTE   W12
 BYTE   As3  v044
 BYTE   W12
 BYTE   N11
 BYTE   W12
 BYTE   N23  An2  v056
 BYTE   N11  Cn4  v084
 BYTE   W12
 BYTE   Cn4  v044
 BYTE   W12
//  #09 //138   ----------------------------------------
 BYTE   N44  Fn3  v048
 BYTE   W48
 BYTE   N44
 BYTE   W48
//  #09 //139   ----------------------------------------
 BYTE   TIE
 BYTE   W24
 BYTE   N23  As2  v056
 BYTE   W24
 BYTE   Cn3
 BYTE   W24
 BYTE   Cs3
 BYTE   W24
//  #09 //140   ----------------------------------------
 BYTE   N32  Ds3
 BYTE   W36
 BYTE   N11  Cs3
 BYTE   W12
 BYTE   N44
 BYTE   W48
//  #09 //141   ----------------------------------------
 BYTE   N23  Cn3
 BYTE   W24
 BYTE   As2
 BYTE   W24
 BYTE   An2
 BYTE   W24
 BYTE   As2
 BYTE   W23
 BYTE   EOT
 BYTE   Fn3
 BYTE   W01
//  #09 //142   ----------------------------------------
 BYTE   N92  Fn2
 BYTE   N44  Fn3  v048
 BYTE   W48
 BYTE   N44
 BYTE   W48
//  #09 //143   ----------------------------------------
 BYTE   N96
 BYTE   W24
 BYTE   N23  As2  v056
 BYTE   W24
 BYTE   An2
 BYTE   W24
 BYTE   As2
 BYTE   W24
//  #09 //144   ----------------------------------------
 BYTE   N68  Fn3
 BYTE   W72
 BYTE   N23  Ds3
 BYTE   W24
//  #09 //145   ----------------------------------------
 BYTE   N23
 BYTE   W24
 BYTE   Cs3
 BYTE   W24
 BYTE   Cn3
 BYTE   W24
 BYTE   Cs3
 BYTE   W24
//  #09 //146   ----------------------------------------
 BYTE   N68  Ds3
 BYTE   N92  Fn3  v048
 BYTE   W72
 BYTE   N23  Ds3  v056
 BYTE   W24
//  #09 //147   ----------------------------------------
 BYTE   N32  Dn3
 BYTE   N32  Fn3  v048
 BYTE   W36
 BYTE   Ds3  v056
 BYTE   N32  Gs3  v048
 BYTE   W12
 BYTE   W24
 BYTE   N23  Fn3  v056
 BYTE   W24
//  #09 //148   ----------------------------------------
 BYTE   N44  Ds3
 BYTE   N44  Fs3  v048
 BYTE   W48
 BYTE   Fn3  v056
 BYTE   N44  Gs3  v048
 BYTE   W48
//  #09 //149   ----------------------------------------
 BYTE   Fs3  v056
 BYTE   N44  As3  v048
 BYTE   W48
 BYTE   Ds3  v056
 BYTE   N23  Ds4  v048
 BYTE   W24
 BYTE   Gn4
 BYTE   W24
//  #09 //150   ----------------------------------------
 BYTE   N44  Bn2  v056
 BYTE   N23  Gs4  v048
 BYTE   W24
 BYTE   Fs4
 BYTE   W24
 BYTE   N44  Ds3  v056
 BYTE   N23  Fn4  v048
 BYTE   W24
 BYTE   Ds4
 BYTE   W24
//  #09 //151   ----------------------------------------
 BYTE   N92  Dn3  v056
 BYTE   N44  Dn4  v048
 BYTE   W48
 BYTE   As3
 BYTE   W48
//  #09 //152   ----------------------------------------
 BYTE   W24
 BYTE   N23  Ds4  v064
 BYTE   W24
 BYTE   N23
 BYTE   W24
 BYTE   N23
 BYTE   W24
//  #09 //153   ----------------------------------------
Label_013D7DBB:
 BYTE   N23  Ds4  v064
 BYTE   W24
 BYTE   N23
 BYTE   W24
 BYTE   N23
 BYTE   W24
 BYTE   N23
 BYTE   W24
 BYTE   PEND 
//  #09 //154   ----------------------------------------
 BYTE   PATT
  POIN2 Label_013D7DBB
//  #09 //155   ----------------------------------------
 BYTE   PATT
  POIN2 Label_013D7DBB
//  #09 //156   ----------------------------------------
 BYTE   N23  Ds4  v064
 BYTE   W96
//  #09 //157   ----------------------------------------
Label_013D7DD4:
 BYTE   N23  Bn3  v064
 BYTE   W96
 BYTE   PEND 
//  #09 //158   ----------------------------------------
 BYTE   PATT
  POIN2 Label_013D7DD4
//  #09 //159   ----------------------------------------
 BYTE   N44  As3  v064
 BYTE   W48
 BYTE   N44
 BYTE   W48
//  #09 //160   ----------------------------------------
 BYTE   W24
 BYTE   N23  Fn4
 BYTE   W24
 BYTE   N23
 BYTE   W24
 BYTE   N23
 BYTE   W24
//  #09 //161   ----------------------------------------
Label_013D7DEC:
 BYTE   N23  Fn4  v064
 BYTE   W24
 BYTE   N23
 BYTE   W24
 BYTE   N23
 BYTE   W24
 BYTE   N23
 BYTE   W24
 BYTE   PEND 
//  #09 //162   ----------------------------------------
 BYTE   PATT
  POIN2 Label_013D7DEC
//  #09 //163   ----------------------------------------
 BYTE   PATT
  POIN2 Label_013D7DEC
//  #09 //164   ----------------------------------------
 BYTE   N23  Fn4  v064
 BYTE   W96
//  #09 //165   ----------------------------------------
Label_013D7E05:
 BYTE   N23  Cs4  v064
 BYTE   W96
 BYTE   PEND 
//  #09 //166   ----------------------------------------
 BYTE   PATT
  POIN2 Label_013D7E05
//  #09 //167   ----------------------------------------
 BYTE   N44  Cn4  v064
 BYTE   W48
 BYTE   N44
 BYTE   W48
//  #09 //168   ----------------------------------------
 BYTE   N23  Fn3
 BYTE   W24
 BYTE   En3
 BYTE   W24
 BYTE   Fn3
 BYTE   W24
 BYTE   Gn3
 BYTE   W24
//  #09 //169   ----------------------------------------
 BYTE   Gs3
 BYTE   W24
 BYTE   Gn3
 BYTE   W24
 BYTE   Gs3
 BYTE   W24
 BYTE   An3
 BYTE   W24
//  #09 //170   ----------------------------------------
 BYTE   W96
//  #09 //171   ----------------------------------------
 BYTE   W96
//  #09 //172   ----------------------------------------
 BYTE   W96
//  #09 //173   ----------------------------------------
 BYTE   W96
//  #09 //174   ----------------------------------------
 BYTE   W24
 BYTE   N68  Fn3
 BYTE   W72
//  #09 //175   ----------------------------------------
 BYTE   N92  En3
 BYTE   W96
//  #09 //176   ----------------------------------------
 BYTE   TIE  Fn3
 BYTE   W96
//  #09 //177   ----------------------------------------
 BYTE   W92
 BYTE   W03
 BYTE   EOT
 BYTE   W01
//  #09 //178   ----------------------------------------
 BYTE   W24
 BYTE   N23  Ds4
 BYTE   W24
 BYTE   N44  As2  v056
 BYTE   N23  Cs4  v064
 BYTE   W24
 BYTE   Cn4
 BYTE   W24
//  #09 //179   ----------------------------------------
 BYTE   N44  Cn3  v056
 BYTE   N23  As3  v064
 BYTE   W24
 BYTE   Gs3
 BYTE   W24
 BYTE   N44  Gn2  v056
 BYTE   N23  As3  v064
 BYTE   W24
 BYTE   Gn3
 BYTE   W24
//  #09 //180   ----------------------------------------
 BYTE   N44  As2  v056
 BYTE   N23  As3  v064
 BYTE   W24
 BYTE   Gn3
 BYTE   W24
 BYTE   N44  Gs2  v056
 BYTE   N44  Gs3  v064
 BYTE   W48
//  #09 //181   ----------------------------------------
 BYTE   Gn2  v056
 BYTE   N23  Gs3  v064
 BYTE   W24
 BYTE   Gn3
 BYTE   W24
 BYTE   N44  Gs2  v056
 BYTE   N23  Gs3  v064
 BYTE   W24
 BYTE   As3
 BYTE   W24
//  #09 //182   ----------------------------------------
 BYTE   N92  Fn2  v056
 BYTE   N44  Cn4  v064
 BYTE   W48
 BYTE   N23  Fn3
 BYTE   W24
 BYTE   N11  Gn3
 BYTE   W12
 BYTE   Gs3
 BYTE   W12
//  #09 //183   ----------------------------------------
 BYTE   N44  Cs2  v056
 BYTE   N44  As3  v064
 BYTE   W48
 BYTE   Cs2  v056
 BYTE   N44  As3  v064
 BYTE   W48
//  #09 //184   ----------------------------------------
 BYTE   N92  Fn2  v056
 BYTE   N92  As3  v064
 BYTE   W96
//  #09 //185   ----------------------------------------
 BYTE   Fn2  v056
 BYTE   N92  An3  v064
 BYTE   W96
//  #09 //186   ----------------------------------------
Label_013D7EA1:
 BYTE   N23  Fn3  v064
 BYTE   W24
 BYTE   Ds4
 BYTE   W24
 BYTE   Cs4
 BYTE   W24
 BYTE   Cn4
 BYTE   W24
 BYTE   PEND 
//  #09 //187   ----------------------------------------
Label_013D7EAC:
 BYTE   N44  Cs4  v064
 BYTE   W48
 BYTE   As3
 BYTE   W48
 BYTE   PEND 
//  #09 //188   ----------------------------------------
 BYTE   N23  Fn3
 BYTE   W24
 BYTE   Fn4
 BYTE   W24
 BYTE   Ds4
 BYTE   W24
 BYTE   Cs4
 BYTE   W24
//  #09 //189   ----------------------------------------
 BYTE   N44  Ds4
 BYTE   W48
 BYTE   Cn4
 BYTE   W48
//  #09 //190   ----------------------------------------
 BYTE   PATT
  POIN2 Label_013D7EA1
//  #09 //191   ----------------------------------------
 BYTE   PATT
  POIN2 Label_013D7EAC
//  #09 //192   ----------------------------------------
 BYTE   N92  Ds3  v056
 BYTE   N23  As3  v064
 BYTE   W24
 BYTE   An3
 BYTE   W24
 BYTE   As3
 BYTE   W24
 BYTE   Cn4
 BYTE   W24
//  #09 //193   ----------------------------------------
 BYTE   N92  Fn3  v056
 BYTE   N44  Cs4  v064
 BYTE   W48
 BYTE   Cn4
 BYTE   W48
//  #09 //194   ----------------------------------------
 BYTE   N23  Fn3
 BYTE   W24
 BYTE   As2  v056
 BYTE   N23  Ds4  v064
 BYTE   W24
 BYTE   Cn3  v056
 BYTE   N23  Cs4  v064
 BYTE   W24
 BYTE   Cs3  v056
 BYTE   N23  Cn4  v064
 BYTE   W24
//  #09 //195   ----------------------------------------
 BYTE   N44  As2  v056
 BYTE   N44  Cs4  v064
 BYTE   W48
 BYTE   N23  Cn3  v056
 BYTE   N44  As3  v064
 BYTE   W24
 BYTE   N23  Cs3  v056
 BYTE   W24
//  #09 //196   ----------------------------------------
 BYTE   Fn3
 BYTE   W24
 BYTE   Fn4  v064
 BYTE   W24
 BYTE   Ds4
 BYTE   W24
 BYTE   Cs4
 BYTE   W24
//  #09 //197   ----------------------------------------
 BYTE   N44  Ds3  v056
 BYTE   N44  Ds4  v064
 BYTE   W48
 BYTE   Ds3  v056
 BYTE   N44  As3  v064
 BYTE   W48
//  #09 //198   ----------------------------------------
 BYTE   TIE  Cs4
 BYTE   W24
 BYTE   N23  As2  v056
 BYTE   W24
 BYTE   Cn3
 BYTE   W24
 BYTE   Cs3
 BYTE   W24
//  #09 //199   ----------------------------------------
 BYTE   N92  Fn3
 BYTE   W23
 BYTE   EOT
 BYTE   Cs4
 BYTE   W01
 BYTE   N23  As3  v064
 BYTE   W24
 BYTE   Cn4
 BYTE   W24
 BYTE   Cs4
 BYTE   W24
//  #09 //200   ----------------------------------------
 BYTE   N92  Ds3  v056
 BYTE   N92  Cn4  v064
 BYTE   W96
//  #09 //201   ----------------------------------------
 BYTE   Cn3  v056
 BYTE   N92  An4  v064
 BYTE   W96
//  #09 //202   ----------------------------------------
 BYTE   TIE  As2  v032
 BYTE   W12
 BYTE   N11  Ds3  v056
 BYTE   N11  As3  v064
 BYTE   W12
 BYTE   N23  Ds3  v056
 BYTE   N23  As3  v064
 BYTE   W24
 BYTE   N11  Ds3  v056
 BYTE   N11  As3  v064
 BYTE   W12
 BYTE   Ds3  v056
 BYTE   N11  As3  v064
 BYTE   W24
 BYTE   TIE  Cs3  v056
 BYTE   TIE  Gs3  v064
 BYTE   W12
//  #09 //203   ----------------------------------------
 BYTE   PATT
  POIN2 Label_013D79CB
//  #09 //204   ----------------------------------------
 BYTE   EOT
 BYTE   As2  v061
 BYTE   Gs3
 BYTE   W01
//  #09 //205   ----------------------------------------
 BYTE   PATT
  POIN2 Label_013D7BB8
//  #09 //206   ----------------------------------------
 BYTE   PATT
  POIN2 Label_013D79CB
//  #09 //207   ----------------------------------------
 BYTE   EOT
 BYTE   En3  v071
 BYTE   W01
//  #09 //208   ----------------------------------------
 BYTE   PATT
  POIN2 Label_013D7B8B
//  #09 //209   ----------------------------------------
 BYTE   PATT
  POIN2 Label_013D79CB
//  #09 //210   ----------------------------------------
 BYTE   EOT
 BYTE   Cs3  v068
 BYTE   W01
//  #09 //211   ----------------------------------------
 BYTE   PATT
  POIN2 Label_013D7BF3
//  #09 //212   ----------------------------------------
 BYTE   PATT
  POIN2 Label_013D7C13
//  #09 //213   ----------------------------------------
 BYTE   PATT
  POIN2 Label_013D7C22
//  #09 //214   ----------------------------------------
 BYTE   W24
 BYTE   N11  As3  v064
 BYTE   W12
 BYTE   Fn3
 BYTE   W12
 BYTE   Cn3
 BYTE   W12
 BYTE   Ds3
 BYTE   W12
 BYTE   Gs3
 BYTE   W12
 BYTE   Cs4
 BYTE   W11
 BYTE   FINE

//**************** Track 10 (Midi-Chn.9) ****************//

The_One_They_Call_Witch_Song_010:
//  #10 //000   ----------------------------------------
 BYTE   KEYSH   The_One_They_Call_Witch_Song_key+0
 BYTE   VOICE   51
 BYTE   MODT 0
 BYTE   LFOS 44
 BYTE   BENDR  12
 BYTE   VOL   44*The_One_They_Call_Witch_Song_mvl/mxv
 BYTE   PAN   c_v+0
 BYTE   BENDR  12
 BYTE   VOL   44*The_One_They_Call_Witch_Song_mvl/mxv
 BYTE   PAN   c_v+0
 BYTE   N23  As0  v072
 BYTE   W24
 BYTE   N23
 BYTE   W48
 BYTE   N23
 BYTE   W24
//  #10 //001   ----------------------------------------
 BYTE   N23
 BYTE   W96
//  #10 //002   ----------------------------------------
 BYTE   W96
//  #10 //003   ----------------------------------------
 BYTE   W96
//  #10 //004   ----------------------------------------
 BYTE   Fs0
 BYTE   W24
 BYTE   N23
 BYTE   W48
 BYTE   N23
 BYTE   W24
//  #10 //005   ----------------------------------------
 BYTE   N23
 BYTE   W96
//  #10 //006   ----------------------------------------
 BYTE   W96
//  #10 //007   ----------------------------------------
 BYTE   W96
//  #10 //008   ----------------------------------------
Label_013CD306:
 BYTE   TIE  Cn1  v072
 BYTE   W96
//  #10 //009   ----------------------------------------
 BYTE   W44
 BYTE   W03
 BYTE   EOT
 BYTE   W01
 BYTE   N23  Ds1
 BYTE   W24
 BYTE   En1
 BYTE   W24
//  #10 //010   ----------------------------------------
 BYTE   TIE  Fn1
 BYTE   W96
//  #10 //011   ----------------------------------------
Label_013CD316:
 BYTE   W92
 BYTE   W03
 BYTE   PEND 
 BYTE   EOT
 BYTE   Fn1
 BYTE   W01
//  #10 //012   ----------------------------------------
Label_013CD31C:
 BYTE   N23  As1  v072
 BYTE   W36
 BYTE   N11
 BYTE   W36
 BYTE   N23
 BYTE   W24
 BYTE   PEND 
//  #10 //013   ----------------------------------------
 BYTE   PATT
  POIN2 Label_013CD31C
//  #10 //014   ----------------------------------------
 BYTE   PATT
  POIN2 Label_013CD31C
//  #10 //015   ----------------------------------------
 BYTE   PATT
  POIN2 Label_013CD31C
//  #10 //016   ----------------------------------------
 BYTE   PATT
  POIN2 Label_013CD31C
//  #10 //017   ----------------------------------------
 BYTE   PATT
  POIN2 Label_013CD31C
//  #10 //018   ----------------------------------------
 BYTE   PATT
  POIN2 Label_013CD31C
//  #10 //019   ----------------------------------------
Label_013CD343:
 BYTE   W12
 BYTE   N11  As1  v072
 BYTE   W36
 BYTE   N23
 BYTE   W24
 BYTE   N23
 BYTE   W24
 BYTE   PEND 
//  #10 //020   ----------------------------------------
 BYTE   PATT
  POIN2 Label_013CD31C
//  #10 //021   ----------------------------------------
 BYTE   PATT
  POIN2 Label_013CD31C
//  #10 //022   ----------------------------------------
 BYTE   PATT
  POIN2 Label_013CD31C
//  #10 //023   ----------------------------------------
 BYTE   PATT
  POIN2 Label_013CD31C
//  #10 //024   ----------------------------------------
Label_013CD361:
 BYTE   N23  Fs1  v072
 BYTE   W36
 BYTE   N11
 BYTE   W36
 BYTE   N23
 BYTE   W24
 BYTE   PEND 
//  #10 //025   ----------------------------------------
Label_013CD36A:
 BYTE   N23  Ds1  v072
 BYTE   W36
 BYTE   N11
 BYTE   W36
 BYTE   N23
 BYTE   W24
 BYTE   PEND 
//  #10 //026   ----------------------------------------
Label_013CD373:
 BYTE   N23  Fn1  v072
 BYTE   W36
 BYTE   N11
 BYTE   W36
 BYTE   N23
 BYTE   W24
 BYTE   PEND 
//  #10 //027   ----------------------------------------
 BYTE   N23
 BYTE   W24
 BYTE   N23
 BYTE   W24
 BYTE   N19
 BYTE   W18
 BYTE   W01
 BYTE   N04
 BYTE   W17
 BYTE   N11
 BYTE   W12
//  #10 //028   ----------------------------------------
 BYTE   N23  As0  v100
 BYTE   W96
//  #10 //029   ----------------------------------------
 BYTE   W60
 BYTE   N11  Fn0  v116
 BYTE   W36
//  #10 //030   ----------------------------------------
 BYTE   N23  As0
 BYTE   W36
 BYTE   N11
 BYTE   W36
 BYTE   N23
 BYTE   W24
//  #10 //031   ----------------------------------------
 BYTE   W96
//  #10 //032   ----------------------------------------
Label_013CD398:
 BYTE   N23  As0  v072
 BYTE   W24
 BYTE   N23
 BYTE   W24
 BYTE   N23
 BYTE   W24
 BYTE   N23
 BYTE   W24
 BYTE   PEND 
//  #10 //033   ----------------------------------------
 BYTE   PATT
  POIN2 Label_013CD398
//  #10 //034   ----------------------------------------
 BYTE   PATT
  POIN2 Label_013CD398
//  #10 //035   ----------------------------------------
 BYTE   PATT
  POIN2 Label_013CD398
//  #10 //036   ----------------------------------------
 BYTE   PATT
  POIN2 Label_013CD31C
//  #10 //037   ----------------------------------------
 BYTE   PATT
  POIN2 Label_013CD31C
//  #10 //038   ----------------------------------------
 BYTE   PATT
  POIN2 Label_013CD31C
//  #10 //039   ----------------------------------------
 BYTE   PATT
  POIN2 Label_013CD31C
//  #10 //040   ----------------------------------------
Label_013CD3C6:
 BYTE   N23  Gs1  v072
 BYTE   W36
 BYTE   N11
 BYTE   W36
 BYTE   N23
 BYTE   W24
 BYTE   PEND 
//  #10 //041   ----------------------------------------
 BYTE   PATT
  POIN2 Label_013CD3C6
//  #10 //042   ----------------------------------------
 BYTE   PATT
  POIN2 Label_013CD361
//  #10 //043   ----------------------------------------
 BYTE   PATT
  POIN2 Label_013CD361
//  #10 //044   ----------------------------------------
Label_013CD3DE:
 BYTE   N23  Cn1  v072
 BYTE   W36
 BYTE   N11
 BYTE   W36
 BYTE   N23
 BYTE   W24
 BYTE   PEND 
//  #10 //045   ----------------------------------------
 BYTE   PATT
  POIN2 Label_013CD373
//  #10 //046   ----------------------------------------
 BYTE   PATT
  POIN2 Label_013CD31C
//  #10 //047   ----------------------------------------
 BYTE   PATT
  POIN2 Label_013CD3C6
//  #10 //048   ----------------------------------------
 BYTE   N23  Gn1  v072
 BYTE   W36
 BYTE   N11
 BYTE   W36
 BYTE   N23
 BYTE   W24
//  #10 //049   ----------------------------------------
 BYTE   PATT
  POIN2 Label_013CD3DE
//  #10 //050   ----------------------------------------
 BYTE   PATT
  POIN2 Label_013CD373
//  #10 //051   ----------------------------------------
 BYTE   N23  Fn1  v072
 BYTE   W36
 BYTE   N11  Gn1
 BYTE   W36
 BYTE   N23  An1
 BYTE   W24
//  #10 //052   ----------------------------------------
 BYTE   PATT
  POIN2 Label_013CD31C
//  #10 //053   ----------------------------------------
 BYTE   PATT
  POIN2 Label_013CD31C
//  #10 //054   ----------------------------------------
 BYTE   PATT
  POIN2 Label_013CD31C
//  #10 //055   ----------------------------------------
 BYTE   PATT
  POIN2 Label_013CD31C
//  #10 //056   ----------------------------------------
 BYTE   PATT
  POIN2 Label_013CD3C6
//  #10 //057   ----------------------------------------
 BYTE   PATT
  POIN2 Label_013CD3C6
//  #10 //058   ----------------------------------------
 BYTE   PATT
  POIN2 Label_013CD361
//  #10 //059   ----------------------------------------
 BYTE   PATT
  POIN2 Label_013CD361
//  #10 //060   ----------------------------------------
 BYTE   PATT
  POIN2 Label_013CD373
//  #10 //061   ----------------------------------------
 BYTE   PATT
  POIN2 Label_013CD31C
//  #10 //062   ----------------------------------------
 BYTE   N23  Ds1  v072
 BYTE   W48
 BYTE   Fn1
 BYTE   W48
//  #10 //063   ----------------------------------------
 BYTE   Fs1
 BYTE   W48
 BYTE   Gn1
 BYTE   W48
//  #10 //064   ----------------------------------------
 BYTE   PATT
  POIN2 Label_013CD3C6
//  #10 //065   ----------------------------------------
 BYTE   PATT
  POIN2 Label_013CD31C
//  #10 //066   ----------------------------------------
 BYTE   PATT
  POIN2 Label_013CD36A
//  #10 //067   ----------------------------------------
 BYTE   N11  As0  v072
 BYTE   W12
 BYTE   N11
 BYTE   W24
 BYTE   N11
 BYTE   W24
 BYTE   N32
 BYTE   W36
//  #10 //068   ----------------------------------------
 BYTE   PATT
  POIN2 Label_013CD36A
//  #10 //069   ----------------------------------------
Label_013CD46C:
 BYTE   N23  Bn0  v072
 BYTE   W36
 BYTE   N11
 BYTE   W36
 BYTE   N23
 BYTE   W24
 BYTE   PEND 
//  #10 //070   ----------------------------------------
 BYTE   PATT
  POIN2 Label_013CD361
//  #10 //071   ----------------------------------------
 BYTE   PATT
  POIN2 Label_013CD373
//  #10 //072   ----------------------------------------
 BYTE   PATT
  POIN2 Label_013CD36A
//  #10 //073   ----------------------------------------
 BYTE   PATT
  POIN2 Label_013CD46C
//  #10 //074   ----------------------------------------
 BYTE   N23  Gs0  v072
 BYTE   W36
 BYTE   N11
 BYTE   W36
 BYTE   N23
 BYTE   W24
//  #10 //075   ----------------------------------------
 BYTE   As0
 BYTE   W36
 BYTE   N11
 BYTE   W36
 BYTE   N23
 BYTE   W24
//  #10 //076   ----------------------------------------
 BYTE   PATT
  POIN2 Label_013CD36A
//  #10 //077   ----------------------------------------
 BYTE   PATT
  POIN2 Label_013CD46C
//  #10 //078   ----------------------------------------
 BYTE   PATT
  POIN2 Label_013CD361
//  #10 //079   ----------------------------------------
 BYTE   PATT
  POIN2 Label_013CD3C6
//  #10 //080   ----------------------------------------
 BYTE   PATT
  POIN2 Label_013CD46C
//  #10 //081   ----------------------------------------
 BYTE   N44  Cs1  v072
 BYTE   W48
 BYTE   N44
 BYTE   W48
//  #10 //082   ----------------------------------------
 BYTE   PATT
  POIN2 Label_013CD36A
//  #10 //083   ----------------------------------------
Label_013CD4BB:
 BYTE   W12
 BYTE   N11  Ds1  v072
 BYTE   W36
 BYTE   N23
 BYTE   W24
 BYTE   N23
 BYTE   W24
 BYTE   PEND 
//  #10 //084   ----------------------------------------
 BYTE   PATT
  POIN2 Label_013CD36A
//  #10 //085   ----------------------------------------
 BYTE   PATT
  POIN2 Label_013CD4BB
//  #10 //086   ----------------------------------------
 BYTE   PATT
  POIN2 Label_013CD31C
//  #10 //087   ----------------------------------------
 BYTE   PATT
  POIN2 Label_013CD343
//  #10 //088   ----------------------------------------
 BYTE   PATT
  POIN2 Label_013CD31C
//  #10 //089   ----------------------------------------
 BYTE   N44  Fn1  v060
 BYTE   W48
 BYTE   N44
 BYTE   W48
//  #10 //090   ----------------------------------------
 BYTE   GoTo
  POIN2 Label_013CD306
//  #10 //091   ----------------------------------------
 BYTE   W96
//  #10 //092   ----------------------------------------
 BYTE   W96
//  #10 //093   ----------------------------------------
 BYTE   W96
//  #10 //094   ----------------------------------------
 BYTE   W96
//  #10 //095   ----------------------------------------
 BYTE   W96
//  #10 //096   ----------------------------------------
 BYTE   W96
//  #10 //097   ----------------------------------------
 BYTE   W96
//  #10 //098   ----------------------------------------
 BYTE   W96
//  #10 //099   ----------------------------------------
 BYTE   W96
//  #10 //100   ----------------------------------------
 BYTE   W96
//  #10 //101   ----------------------------------------
 BYTE   W96
//  #10 //102   ----------------------------------------
 BYTE   W96
//  #10 //103   ----------------------------------------
 BYTE   W96
//  #10 //104   ----------------------------------------
 BYTE   W96
//  #10 //105   ----------------------------------------
 BYTE   W96
//  #10 //106   ----------------------------------------
 BYTE   W96
//  #10 //107   ----------------------------------------
 BYTE   W96
//  #10 //108   ----------------------------------------
 BYTE   W96
//  #10 //109   ----------------------------------------
 BYTE   W96
//  #10 //110   ----------------------------------------
 BYTE   W96
//  #10 //111   ----------------------------------------
 BYTE   W96
//  #10 //112   ----------------------------------------
 BYTE   W96
//  #10 //113   ----------------------------------------
 BYTE   W96
//  #10 //114   ----------------------------------------
 BYTE   W96
//  #10 //115   ----------------------------------------
 BYTE   W96
//  #10 //116   ----------------------------------------
 BYTE   W96
//  #10 //117   ----------------------------------------
 BYTE   W96
//  #10 //118   ----------------------------------------
 BYTE   W96
//  #10 //119   ----------------------------------------
 BYTE   W96
//  #10 //120   ----------------------------------------
 BYTE   W96
//  #10 //121   ----------------------------------------
 BYTE   W96
//  #10 //122   ----------------------------------------
 BYTE   W96
//  #10 //123   ----------------------------------------
 BYTE   W96
//  #10 //124   ----------------------------------------
 BYTE   W96
//  #10 //125   ----------------------------------------
 BYTE   W96
//  #10 //126   ----------------------------------------
 BYTE   W96
//  #10 //127   ----------------------------------------
 BYTE   W96
//  #10 //128   ----------------------------------------
 BYTE   W96
//  #10 //129   ----------------------------------------
 BYTE   W96
//  #10 //130   ----------------------------------------
 BYTE   W96
//  #10 //131   ----------------------------------------
 BYTE   W96
//  #10 //132   ----------------------------------------
 BYTE   W96
//  #10 //133   ----------------------------------------
 BYTE   W96
//  #10 //134   ----------------------------------------
 BYTE   W96
//  #10 //135   ----------------------------------------
 BYTE   W96
//  #10 //136   ----------------------------------------
 BYTE   N23  Fn1  v108
 BYTE   W36
 BYTE   N11  Gn1
 BYTE   W36
 BYTE   N23  An1
 BYTE   W24
//  #10 //137   ----------------------------------------
 BYTE   W96
//  #10 //138   ----------------------------------------
 BYTE   W96
//  #10 //139   ----------------------------------------
 BYTE   W96
//  #10 //140   ----------------------------------------
 BYTE   W96
//  #10 //141   ----------------------------------------
 BYTE   W96
//  #10 //142   ----------------------------------------
 BYTE   W96
//  #10 //143   ----------------------------------------
 BYTE   W96
//  #10 //144   ----------------------------------------
 BYTE   W96
//  #10 //145   ----------------------------------------
 BYTE   W96
//  #10 //146   ----------------------------------------
 BYTE   W96
//  #10 //147   ----------------------------------------
 BYTE   W96
//  #10 //148   ----------------------------------------
 BYTE   W96
//  #10 //149   ----------------------------------------
 BYTE   W96
//  #10 //150   ----------------------------------------
 BYTE   W96
//  #10 //151   ----------------------------------------
 BYTE   W96
//  #10 //152   ----------------------------------------
 BYTE   W96
//  #10 //153   ----------------------------------------
 BYTE   W96
//  #10 //154   ----------------------------------------
 BYTE   W96
//  #10 //155   ----------------------------------------
 BYTE   W96
//  #10 //156   ----------------------------------------
 BYTE   W96
//  #10 //157   ----------------------------------------
 BYTE   W96
//  #10 //158   ----------------------------------------
 BYTE   W96
//  #10 //159   ----------------------------------------
 BYTE   W96
//  #10 //160   ----------------------------------------
 BYTE   W96
//  #10 //161   ----------------------------------------
 BYTE   W96
//  #10 //162   ----------------------------------------
 BYTE   W96
//  #10 //163   ----------------------------------------
 BYTE   W96
//  #10 //164   ----------------------------------------
 BYTE   W96
//  #10 //165   ----------------------------------------
 BYTE   W96
//  #10 //166   ----------------------------------------
 BYTE   W96
//  #10 //167   ----------------------------------------
 BYTE   Fn1  v064
 BYTE   W24
 BYTE   En1
 BYTE   W24
 BYTE   Fn1
 BYTE   W24
 BYTE   Gn1
 BYTE   W24
//  #10 //168   ----------------------------------------
 BYTE   Gs1
 BYTE   W24
 BYTE   Gn1
 BYTE   W24
 BYTE   Gs1
 BYTE   W24
 BYTE   An1
 BYTE   W24
//  #10 //169   ----------------------------------------
 BYTE   W96
//  #10 //170   ----------------------------------------
 BYTE   W96
//  #10 //171   ----------------------------------------
 BYTE   W96
//  #10 //172   ----------------------------------------
 BYTE   W96
//  #10 //173   ----------------------------------------
 BYTE   W96
//  #10 //174   ----------------------------------------
 BYTE   W96
//  #10 //175   ----------------------------------------
 BYTE   W96
//  #10 //176   ----------------------------------------
 BYTE   W96
//  #10 //177   ----------------------------------------
 BYTE   W96
//  #10 //178   ----------------------------------------
 BYTE   W96
//  #10 //179   ----------------------------------------
 BYTE   W96
//  #10 //180   ----------------------------------------
 BYTE   W96
//  #10 //181   ----------------------------------------
 BYTE   W96
//  #10 //182   ----------------------------------------
 BYTE   W96
//  #10 //183   ----------------------------------------
 BYTE   W96
//  #10 //184   ----------------------------------------
 BYTE   W96
//  #10 //185   ----------------------------------------
 BYTE   W96
//  #10 //186   ----------------------------------------
 BYTE   W96
//  #10 //187   ----------------------------------------
 BYTE   W96
//  #10 //188   ----------------------------------------
 BYTE   W96
//  #10 //189   ----------------------------------------
 BYTE   W96
//  #10 //190   ----------------------------------------
 BYTE   W96
//  #10 //191   ----------------------------------------
 BYTE   W96
//  #10 //192   ----------------------------------------
 BYTE   W96
//  #10 //193   ----------------------------------------
 BYTE   W96
//  #10 //194   ----------------------------------------
 BYTE   W96
//  #10 //195   ----------------------------------------
 BYTE   W96
//  #10 //196   ----------------------------------------
 BYTE   W96
//  #10 //197   ----------------------------------------
 BYTE   W96
//  #10 //198   ----------------------------------------
 BYTE   W96
//  #10 //199   ----------------------------------------
 BYTE   W96
//  #10 //200   ----------------------------------------
 BYTE   W96
//  #10 //201   ----------------------------------------
 BYTE   W96
//  #10 //202   ----------------------------------------
 BYTE   W96
//  #10 //203   ----------------------------------------
 BYTE   W96
//  #10 //204   ----------------------------------------
 BYTE   W96
//  #10 //205   ----------------------------------------
 BYTE   W96
//  #10 //206   ----------------------------------------
 BYTE   W96
//  #10 //207   ----------------------------------------
 BYTE   W96
//  #10 //208   ----------------------------------------
 BYTE   W96
//  #10 //209   ----------------------------------------
 BYTE   W96
//  #10 //210   ----------------------------------------
 BYTE   W96
//  #10 //211   ----------------------------------------
 BYTE   W24
 BYTE   TIE  As0  v048
 BYTE   W72
//  #10 //212   ----------------------------------------
 BYTE   PATT
  POIN2 Label_013CD316
//  #10 //213   ----------------------------------------
 BYTE   EOT
 BYTE   As0
 BYTE   FINE

//**************** Track 11 (Midi-Chn.10) ****************//

The_One_They_Call_Witch_Song_011:
//  #11 //000   ----------------------------------------
 BYTE   KEYSH   The_One_They_Call_Witch_Song_key+0
 BYTE   VOICE   28
 BYTE   MODT 0
 BYTE   LFOS 44
 BYTE   BENDR  12
 BYTE   VOL   44*The_One_They_Call_Witch_Song_mvl/mxv
 BYTE   PAN   c_v+0
 BYTE   BENDR  12
 BYTE   VOL   44*The_One_They_Call_Witch_Song_mvl/mxv
 BYTE   PAN   c_v+0
 BYTE   N11  As1  v044
 BYTE   W12
 BYTE   N11
 BYTE   W12
 BYTE   N23
 BYTE   W48
 BYTE   N11
 BYTE   W12
 BYTE   N11
 BYTE   W12
//  #11 //001   ----------------------------------------
 BYTE   N23
 BYTE   W60
 BYTE   N11  As1  v036
 BYTE   W12
 BYTE   As1  v044
 BYTE   W12
 BYTE   As1  v036
 BYTE   W12
//  #11 //002   ----------------------------------------
Label_013CDF70:
 BYTE   N11  As1  v044
 BYTE   W12
 BYTE   As1  v036
 BYTE   W12
 BYTE   As1  v044
 BYTE   W12
 BYTE   As1  v036
 BYTE   W12
 BYTE   As1  v044
 BYTE   W12
 BYTE   As1  v036
 BYTE   W12
 BYTE   As1  v044
 BYTE   W12
 BYTE   As1  v036
 BYTE   W12
 BYTE   PEND 
//  #11 //003   ----------------------------------------
 BYTE   PATT
  POIN2 Label_013CDF70
//  #11 //004   ----------------------------------------
 BYTE   N11  Fs1  v044
 BYTE   W12
 BYTE   N11
 BYTE   W12
 BYTE   N23
 BYTE   W48
 BYTE   N11
 BYTE   W12
 BYTE   N11
 BYTE   W12
//  #11 //005   ----------------------------------------
 BYTE   N23
 BYTE   W60
 BYTE   N11  Fs1  v036
 BYTE   W12
 BYTE   Fs1  v044
 BYTE   W12
 BYTE   Fs1  v036
 BYTE   W12
//  #11 //006   ----------------------------------------
Label_013CDFA7:
 BYTE   N11  Fs1  v044
 BYTE   W12
 BYTE   Fs1  v036
 BYTE   W12
 BYTE   Fs1  v044
 BYTE   W12
 BYTE   Fs1  v036
 BYTE   W12
 BYTE   Fs1  v044
 BYTE   W12
 BYTE   Fs1  v036
 BYTE   W12
 BYTE   Fs1  v044
 BYTE   W12
 BYTE   Fs1  v036
 BYTE   W12
 BYTE   PEND 
//  #11 //007   ----------------------------------------
 BYTE   PATT
  POIN2 Label_013CDFA7
//  #11 //008   ----------------------------------------
Label_013CDFC6:
 BYTE   W96
//  #11 //009   ----------------------------------------
 BYTE   W96
//  #11 //010   ----------------------------------------
 BYTE   W96
//  #11 //011   ----------------------------------------
 BYTE   W96
//  #11 //012   ----------------------------------------
 BYTE   PATT
  POIN2 Label_013CDF70
//  #11 //013   ----------------------------------------
 BYTE   PATT
  POIN2 Label_013CDF70
//  #11 //014   ----------------------------------------
 BYTE   PATT
  POIN2 Label_013CDF70
//  #11 //015   ----------------------------------------
 BYTE   PATT
  POIN2 Label_013CDF70
//  #11 //016   ----------------------------------------
 BYTE   PATT
  POIN2 Label_013CDF70
//  #11 //017   ----------------------------------------
 BYTE   PATT
  POIN2 Label_013CDF70
//  #11 //018   ----------------------------------------
 BYTE   PATT
  POIN2 Label_013CDF70
//  #11 //019   ----------------------------------------
 BYTE   PATT
  POIN2 Label_013CDF70
//  #11 //020   ----------------------------------------
 BYTE   PATT
  POIN2 Label_013CDF70
//  #11 //021   ----------------------------------------
 BYTE   PATT
  POIN2 Label_013CDF70
//  #11 //022   ----------------------------------------
 BYTE   PATT
  POIN2 Label_013CDF70
//  #11 //023   ----------------------------------------
 BYTE   PATT
  POIN2 Label_013CDF70
//  #11 //024   ----------------------------------------
 BYTE   PATT
  POIN2 Label_013CDFA7
//  #11 //025   ----------------------------------------
 BYTE   N11  Ds1  v044
 BYTE   W12
 BYTE   Ds1  v036
 BYTE   W12
 BYTE   Ds1  v044
 BYTE   W12
 BYTE   Ds1  v036
 BYTE   W12
 BYTE   Ds1  v044
 BYTE   W12
 BYTE   Ds1  v036
 BYTE   W12
 BYTE   Ds1  v044
 BYTE   W12
 BYTE   Ds1  v036
 BYTE   W12
//  #11 //026   ----------------------------------------
Label_013CE024:
 BYTE   N11  Fn1  v044
 BYTE   W12
 BYTE   Fn1  v036
 BYTE   W12
 BYTE   Fn1  v044
 BYTE   W12
 BYTE   Fn1  v036
 BYTE   W12
 BYTE   Fn1  v044
 BYTE   W12
 BYTE   Fn1  v036
 BYTE   W12
 BYTE   Fn1  v044
 BYTE   W12
 BYTE   Fn1  v036
 BYTE   W12
 BYTE   PEND 
//  #11 //027   ----------------------------------------
 BYTE   N23  Fn1  v044
 BYTE   W24
 BYTE   N23
 BYTE   W24
 BYTE   N19
 BYTE   W19
 BYTE   N04
 BYTE   W17
 BYTE   N11
 BYTE   W12
//  #11 //028   ----------------------------------------
 BYTE   W96
//  #11 //029   ----------------------------------------
 BYTE   W96
//  #11 //030   ----------------------------------------
 BYTE   W96
//  #11 //031   ----------------------------------------
 BYTE   W96
//  #11 //032   ----------------------------------------
 BYTE   W96
//  #11 //033   ----------------------------------------
 BYTE   W96
//  #11 //034   ----------------------------------------
 BYTE   W96
//  #11 //035   ----------------------------------------
 BYTE   W96
//  #11 //036   ----------------------------------------
 BYTE   PATT
  POIN2 Label_013CDF70
//  #11 //037   ----------------------------------------
 BYTE   PATT
  POIN2 Label_013CDF70
//  #11 //038   ----------------------------------------
 BYTE   PATT
  POIN2 Label_013CDF70
//  #11 //039   ----------------------------------------
 BYTE   PATT
  POIN2 Label_013CDF70
//  #11 //040   ----------------------------------------
Label_013CE066:
 BYTE   N11  Gs1  v044
 BYTE   W12
 BYTE   Gs1  v036
 BYTE   W12
 BYTE   Gs1  v044
 BYTE   W12
 BYTE   Gs1  v036
 BYTE   W12
 BYTE   Gs1  v044
 BYTE   W12
 BYTE   Gs1  v036
 BYTE   W12
 BYTE   Gs1  v044
 BYTE   W12
 BYTE   Gs1  v036
 BYTE   W12
 BYTE   PEND 
//  #11 //041   ----------------------------------------
 BYTE   PATT
  POIN2 Label_013CE066
//  #11 //042   ----------------------------------------
 BYTE   PATT
  POIN2 Label_013CDFA7
//  #11 //043   ----------------------------------------
 BYTE   PATT
  POIN2 Label_013CDFA7
//  #11 //044   ----------------------------------------
Label_013CE08F:
 BYTE   N11  Cn2  v044
 BYTE   W12
 BYTE   Cn2  v036
 BYTE   W12
 BYTE   Cn2  v044
 BYTE   W12
 BYTE   Cn2  v036
 BYTE   W12
 BYTE   Cn2  v044
 BYTE   W12
 BYTE   Cn2  v036
 BYTE   W12
 BYTE   Cn2  v044
 BYTE   W12
 BYTE   Cn2  v036
 BYTE   W12
 BYTE   PEND 
//  #11 //045   ----------------------------------------
 BYTE   PATT
  POIN2 Label_013CE024
//  #11 //046   ----------------------------------------
 BYTE   PATT
  POIN2 Label_013CDF70
//  #11 //047   ----------------------------------------
 BYTE   PATT
  POIN2 Label_013CE066
//  #11 //048   ----------------------------------------
Label_013CE0B8:
 BYTE   N11  Gn1  v044
 BYTE   W12
 BYTE   Gn1  v036
 BYTE   W12
 BYTE   Gn1  v044
 BYTE   W12
 BYTE   Gn1  v036
 BYTE   W12
 BYTE   Gn1  v044
 BYTE   W12
 BYTE   Gn1  v036
 BYTE   W12
 BYTE   Gn1  v044
 BYTE   W12
 BYTE   Gn1  v036
 BYTE   W12
 BYTE   PEND 
//  #11 //049   ----------------------------------------
 BYTE   PATT
  POIN2 Label_013CE08F
//  #11 //050   ----------------------------------------
 BYTE   PATT
  POIN2 Label_013CE024
//  #11 //051   ----------------------------------------
Label_013CE0DC:
 BYTE   N11  Fn1  v072
 BYTE   W12
 BYTE   Fn1  v036
 BYTE   W12
 BYTE   N11
 BYTE   W12
 BYTE   Gn1  v072
 BYTE   W12
 BYTE   Gn1  v036
 BYTE   W12
 BYTE   N11
 BYTE   W12
 BYTE   An1  v072
 BYTE   W12
 BYTE   An1  v036
 BYTE   W12
 BYTE   PEND 
//  #11 //052   ----------------------------------------
Label_013CE0F4:
 BYTE   N11  As1  v044
 BYTE   W12
 BYTE   As1  v036
 BYTE   W12
 BYTE   As1  v044
 BYTE   N11  Fn2
 BYTE   N11  As2
 BYTE   W12
 BYTE   As1  v036
 BYTE   W12
 BYTE   As1  v044
 BYTE   W12
 BYTE   N11
 BYTE   N11  Fn2
 BYTE   N11  As2
 BYTE   W12
 BYTE   As1
 BYTE   W12
 BYTE   As1  v036
 BYTE   W12
 BYTE   PEND 
//  #11 //053   ----------------------------------------
 BYTE   PATT
  POIN2 Label_013CE0F4
//  #11 //054   ----------------------------------------
 BYTE   PATT
  POIN2 Label_013CE0F4
//  #11 //055   ----------------------------------------
 BYTE   PATT
  POIN2 Label_013CE0F4
//  #11 //056   ----------------------------------------
Label_013CE123:
 BYTE   N11  Gs1  v044
 BYTE   W12
 BYTE   Gs1  v036
 BYTE   W12
 BYTE   Gs1  v044
 BYTE   N11  Ds2
 BYTE   N11  Gs2
 BYTE   W12
 BYTE   Gs1  v036
 BYTE   W12
 BYTE   Gs1  v044
 BYTE   W12
 BYTE   N11
 BYTE   N11  Ds2
 BYTE   N11  Gs2
 BYTE   W12
 BYTE   Gs1
 BYTE   W12
 BYTE   Gs1  v036
 BYTE   W12
 BYTE   PEND 
//  #11 //057   ----------------------------------------
 BYTE   PATT
  POIN2 Label_013CE123
//  #11 //058   ----------------------------------------
Label_013CE148:
 BYTE   N11  Fs1  v044
 BYTE   W12
 BYTE   Fs1  v036
 BYTE   W12
 BYTE   Fs1  v044
 BYTE   N11  Cs2
 BYTE   N11  Fs2
 BYTE   W12
 BYTE   Fs1  v036
 BYTE   W12
 BYTE   Fs1  v044
 BYTE   W12
 BYTE   N11
 BYTE   N11  Cs2
 BYTE   N11  Fs2
 BYTE   W12
 BYTE   Fs1
 BYTE   W12
 BYTE   Fs1  v036
 BYTE   W12
 BYTE   PEND 
//  #11 //059   ----------------------------------------
 BYTE   PATT
  POIN2 Label_013CE148
//  #11 //060   ----------------------------------------
Label_013CE16D:
 BYTE   N11  Fn1  v044
 BYTE   W12
 BYTE   Fn1  v036
 BYTE   W12
 BYTE   Fn1  v044
 BYTE   N11  Bn1
 BYTE   N11  Fn2
 BYTE   W12
 BYTE   Fn1  v036
 BYTE   W12
 BYTE   Fn1  v044
 BYTE   W12
 BYTE   N11
 BYTE   N11  Bn1
 BYTE   N11  Fn2
 BYTE   W12
 BYTE   Fn1
 BYTE   W12
 BYTE   Fn1  v036
 BYTE   W12
 BYTE   PEND 
//  #11 //061   ----------------------------------------
 BYTE   PATT
  POIN2 Label_013CE0F4
//  #11 //062   ----------------------------------------
Label_013CE192:
 BYTE   N11  Ds1  v044
 BYTE   W12
 BYTE   Ds1  v036
 BYTE   W12
 BYTE   Ds1  v044
 BYTE   W12
 BYTE   Ds1  v036
 BYTE   W12
 BYTE   Fn1  v044
 BYTE   W12
 BYTE   Fn1  v036
 BYTE   W12
 BYTE   Fn1  v044
 BYTE   W12
 BYTE   Fn1  v036
 BYTE   W12
 BYTE   PEND 
//  #11 //063   ----------------------------------------
Label_013CE1AC:
 BYTE   N11  Fs1  v044
 BYTE   W12
 BYTE   Fs1  v036
 BYTE   W12
 BYTE   Fs1  v044
 BYTE   W12
 BYTE   Fs1  v036
 BYTE   W12
 BYTE   Gn1  v044
 BYTE   W12
 BYTE   Gn1  v036
 BYTE   W12
 BYTE   Gn1  v044
 BYTE   W12
 BYTE   Gn1  v036
 BYTE   W12
 BYTE   PEND 
//  #11 //064   ----------------------------------------
 BYTE   PATT
  POIN2 Label_013CE123
//  #11 //065   ----------------------------------------
 BYTE   PATT
  POIN2 Label_013CE0F4
//  #11 //066   ----------------------------------------
Label_013CE1D0:
 BYTE   N11  Ds1  v044
 BYTE   W12
 BYTE   Ds1  v036
 BYTE   W12
 BYTE   Ds1  v044
 BYTE   N11  As1
 BYTE   N11  Ds2
 BYTE   W12
 BYTE   Ds1  v036
 BYTE   W12
 BYTE   Ds1  v044
 BYTE   W12
 BYTE   N11
 BYTE   N11  As1
 BYTE   N11  Ds2
 BYTE   W12
 BYTE   Ds1
 BYTE   W12
 BYTE   Ds1  v036
 BYTE   W12
 BYTE   PEND 
//  #11 //067   ----------------------------------------
 BYTE   As1
 BYTE   N11  Fn2
 BYTE   W12
 BYTE   As1
 BYTE   N11  Fn2
 BYTE   W24
 BYTE   As1
 BYTE   N11  Fn2
 BYTE   W24
 BYTE   N32  As1
 BYTE   N32  Fn2
 BYTE   W36
//  #11 //068   ----------------------------------------
 BYTE   PATT
  POIN2 Label_013CE1D0
//  #11 //069   ----------------------------------------
Label_013CE206:
 BYTE   N11  Bn1  v044
 BYTE   W12
 BYTE   Bn1  v036
 BYTE   W12
 BYTE   Bn1  v044
 BYTE   N11  Fs2
 BYTE   N11  Bn2
 BYTE   W12
 BYTE   Bn1  v036
 BYTE   W12
 BYTE   Bn1  v044
 BYTE   W12
 BYTE   N11
 BYTE   N11  Fs2
 BYTE   N11  Bn2
 BYTE   W12
 BYTE   Bn1
 BYTE   W12
 BYTE   Bn1  v036
 BYTE   W12
 BYTE   PEND 
//  #11 //070   ----------------------------------------
 BYTE   PATT
  POIN2 Label_013CE148
//  #11 //071   ----------------------------------------
 BYTE   N11  Fn1  v044
 BYTE   W12
 BYTE   Fn1  v036
 BYTE   W12
 BYTE   Fn1  v044
 BYTE   N11  Cs2
 BYTE   N11  Fn2
 BYTE   W12
 BYTE   Fn1  v036
 BYTE   W12
 BYTE   Fn1  v044
 BYTE   W12
 BYTE   N11
 BYTE   N11  Cs2
 BYTE   N11  Fn2
 BYTE   W12
 BYTE   Fn1
 BYTE   W12
 BYTE   Fn1  v036
 BYTE   W12
//  #11 //072   ----------------------------------------
 BYTE   PATT
  POIN2 Label_013CE1D0
//  #11 //073   ----------------------------------------
 BYTE   PATT
  POIN2 Label_013CE206
//  #11 //074   ----------------------------------------
 BYTE   PATT
  POIN2 Label_013CE123
//  #11 //075   ----------------------------------------
 BYTE   PATT
  POIN2 Label_013CE0F4
//  #11 //076   ----------------------------------------
 BYTE   PATT
  POIN2 Label_013CE1D0
//  #11 //077   ----------------------------------------
 BYTE   PATT
  POIN2 Label_013CE206
//  #11 //078   ----------------------------------------
 BYTE   PATT
  POIN2 Label_013CE148
//  #11 //079   ----------------------------------------
 BYTE   PATT
  POIN2 Label_013CE123
//  #11 //080   ----------------------------------------
 BYTE   PATT
  POIN2 Label_013CE206
//  #11 //081   ----------------------------------------
Label_013CE277:
 BYTE   N11  Cs2  v044
 BYTE   W12
 BYTE   Cs2  v036
 BYTE   W12
 BYTE   Cs2  v044
 BYTE   N11  Gs2
 BYTE   N11  Cs3
 BYTE   W12
 BYTE   Cs2  v036
 BYTE   W12
 BYTE   Cs2  v044
 BYTE   W12
 BYTE   N11
 BYTE   N11  Gs2
 BYTE   N11  Cs3
 BYTE   W12
 BYTE   Cs2
 BYTE   W12
 BYTE   Cs2  v036
 BYTE   W12
 BYTE   PEND 
//  #11 //082   ----------------------------------------
Label_013CE297:
 BYTE   N11  Ds2  v044
 BYTE   W12
 BYTE   Ds2  v036
 BYTE   W12
 BYTE   Ds2  v044
 BYTE   W12
 BYTE   Ds2  v036
 BYTE   W12
 BYTE   Ds2  v044
 BYTE   W12
 BYTE   Ds2  v036
 BYTE   W12
 BYTE   Ds2  v044
 BYTE   W12
 BYTE   Ds2  v036
 BYTE   W12
 BYTE   PEND 
//  #11 //083   ----------------------------------------
 BYTE   PATT
  POIN2 Label_013CE297
//  #11 //084   ----------------------------------------
 BYTE   PATT
  POIN2 Label_013CE297
//  #11 //085   ----------------------------------------
 BYTE   PATT
  POIN2 Label_013CE297
//  #11 //086   ----------------------------------------
 BYTE   PATT
  POIN2 Label_013CDF70
//  #11 //087   ----------------------------------------
 BYTE   PATT
  POIN2 Label_013CDF70
//  #11 //088   ----------------------------------------
 BYTE   PATT
  POIN2 Label_013CDF70
//  #11 //089   ----------------------------------------
 BYTE   N44  Fn1  v044
 BYTE   N44  Cn2
 BYTE   N44  Fn2
 BYTE   W48
 BYTE   Fn1
 BYTE   N44  Cn2
 BYTE   N44  Fn2
 BYTE   W48
//  #11 //090   ----------------------------------------
 BYTE   GoTo
  POIN2 Label_013CDFC6
//  #11 //091   ----------------------------------------
 BYTE   W96
//  #11 //092   ----------------------------------------
 BYTE   W96
//  #11 //093   ----------------------------------------
 BYTE   W96
//  #11 //094   ----------------------------------------
 BYTE   W96
//  #11 //095   ----------------------------------------
 BYTE   W96
//  #11 //096   ----------------------------------------
 BYTE   W96
//  #11 //097   ----------------------------------------
 BYTE   W96
//  #11 //098   ----------------------------------------
 BYTE   W96
//  #11 //099   ----------------------------------------
 BYTE   W96
//  #11 //100   ----------------------------------------
 BYTE   W96
//  #11 //101   ----------------------------------------
 BYTE   W96
//  #11 //102   ----------------------------------------
 BYTE   W96
//  #11 //103   ----------------------------------------
 BYTE   W96
//  #11 //104   ----------------------------------------
 BYTE   W96
//  #11 //105   ----------------------------------------
 BYTE   W96
//  #11 //106   ----------------------------------------
 BYTE   W96
//  #11 //107   ----------------------------------------
 BYTE   W96
//  #11 //108   ----------------------------------------
 BYTE   W96
//  #11 //109   ----------------------------------------
 BYTE   W96
//  #11 //110   ----------------------------------------
 BYTE   W96
//  #11 //111   ----------------------------------------
Label_013CE2F6:
 BYTE   N11  As1  v044
 BYTE   W12
 BYTE   As1  v036
 BYTE   N11  Fn2
 BYTE   N11  As2
 BYTE   W12
 BYTE   As1  v044
 BYTE   N11  Fn2
 BYTE   N11  As2
 BYTE   W12
 BYTE   As1  v036
 BYTE   W12
 BYTE   As1  v044
 BYTE   N11  Fn2  v036
 BYTE   N11  As2
 BYTE   W12
 BYTE   As1  v044
 BYTE   N11  Fn2
 BYTE   N11  As2
 BYTE   W12
 BYTE   As1
 BYTE   W12
 BYTE   As1  v036
 BYTE   W12
 BYTE   PEND 
//  #11 //112   ----------------------------------------
 BYTE   PATT
  POIN2 Label_013CDF70
//  #11 //113   ----------------------------------------
 BYTE   PATT
  POIN2 Label_013CE2F6
//  #11 //114   ----------------------------------------
 BYTE   PATT
  POIN2 Label_013CDF70
//  #11 //115   ----------------------------------------
 BYTE   PATT
  POIN2 Label_013CE2F6
//  #11 //116   ----------------------------------------
 BYTE   PATT
  POIN2 Label_013CDF70
//  #11 //117   ----------------------------------------
Label_013CE339:
 BYTE   N11  As1  v044
 BYTE   W12
 BYTE   As1  v036
 BYTE   N11  Fn2
 BYTE   N11  As2
 BYTE   W12
 BYTE   As1  v044
 BYTE   N11  Fn2
 BYTE   N11  As2
 BYTE   W12
 BYTE   As1  v036
 BYTE   W12
 BYTE   As1  v044
 BYTE   N11  Fn2  v036
 BYTE   N11  As2
 BYTE   W12
 BYTE   As1  v044
 BYTE   N11  Fn2
 BYTE   N11  As2
 BYTE   W12
 BYTE   As1
 BYTE   W12
 BYTE   N23  Cs2
 BYTE   N23  Gs2
 BYTE   W12
 BYTE   PEND 
//  #11 //118   ----------------------------------------
Label_013CE365:
 BYTE   W12
 BYTE   N11  Bn1  v044
 BYTE   N11  Fs2
 BYTE   W12
 BYTE   As1
 BYTE   N11  Fn2
 BYTE   W12
 BYTE   Bn1
 BYTE   N11  Fs2
 BYTE   W12
 BYTE   N23  Fs1
 BYTE   N23  Cs2
 BYTE   W24
 BYTE   Gs1
 BYTE   N23  Ds2
 BYTE   W24
 BYTE   PEND 
//  #11 //119   ----------------------------------------
 BYTE   W96
//  #11 //120   ----------------------------------------
 BYTE   W96
//  #11 //121   ----------------------------------------
 BYTE   PATT
  POIN2 Label_013CDF70
//  #11 //122   ----------------------------------------
 BYTE   PATT
  POIN2 Label_013CDF70
//  #11 //123   ----------------------------------------
 BYTE   PATT
  POIN2 Label_013CDF70
//  #11 //124   ----------------------------------------
 BYTE   PATT
  POIN2 Label_013CDF70
//  #11 //125   ----------------------------------------
 BYTE   PATT
  POIN2 Label_013CE066
//  #11 //126   ----------------------------------------
 BYTE   PATT
  POIN2 Label_013CE066
//  #11 //127   ----------------------------------------
 BYTE   PATT
  POIN2 Label_013CDFA7
//  #11 //128   ----------------------------------------
 BYTE   PATT
  POIN2 Label_013CDFA7
//  #11 //129   ----------------------------------------
 BYTE   PATT
  POIN2 Label_013CE08F
//  #11 //130   ----------------------------------------
 BYTE   PATT
  POIN2 Label_013CE024
//  #11 //131   ----------------------------------------
 BYTE   PATT
  POIN2 Label_013CDF70
//  #11 //132   ----------------------------------------
 BYTE   PATT
  POIN2 Label_013CE066
//  #11 //133   ----------------------------------------
 BYTE   PATT
  POIN2 Label_013CE0B8
//  #11 //134   ----------------------------------------
 BYTE   PATT
  POIN2 Label_013CE08F
//  #11 //135   ----------------------------------------
 BYTE   PATT
  POIN2 Label_013CE024
//  #11 //136   ----------------------------------------
 BYTE   PATT
  POIN2 Label_013CE0DC
//  #11 //137   ----------------------------------------
 BYTE   PATT
  POIN2 Label_013CE0F4
//  #11 //138   ----------------------------------------
 BYTE   PATT
  POIN2 Label_013CDF70
//  #11 //139   ----------------------------------------
 BYTE   PATT
  POIN2 Label_013CE0F4
//  #11 //140   ----------------------------------------
 BYTE   PATT
  POIN2 Label_013CDF70
//  #11 //141   ----------------------------------------
 BYTE   PATT
  POIN2 Label_013CE123
//  #11 //142   ----------------------------------------
 BYTE   PATT
  POIN2 Label_013CE066
//  #11 //143   ----------------------------------------
 BYTE   PATT
  POIN2 Label_013CE148
//  #11 //144   ----------------------------------------
 BYTE   PATT
  POIN2 Label_013CDFA7
//  #11 //145   ----------------------------------------
 BYTE   PATT
  POIN2 Label_013CE16D
//  #11 //146   ----------------------------------------
 BYTE   PATT
  POIN2 Label_013CDF70
//  #11 //147   ----------------------------------------
 BYTE   PATT
  POIN2 Label_013CE192
//  #11 //148   ----------------------------------------
 BYTE   PATT
  POIN2 Label_013CE1AC
//  #11 //149   ----------------------------------------
 BYTE   PATT
  POIN2 Label_013CE123
//  #11 //150   ----------------------------------------
 BYTE   PATT
  POIN2 Label_013CE0F4
//  #11 //151   ----------------------------------------
Label_013CE416:
 BYTE   N11  Ds1  v068
 BYTE   N11  Ds2
 BYTE   W12
 BYTE   Ds1
 BYTE   N11  Ds2
 BYTE   W12
 BYTE   Fn1
 BYTE   N11  Fn2
 BYTE   W12
 BYTE   N23  Fs1
 BYTE   N23  Fs2
 BYTE   W24
 BYTE   N11  Fn1
 BYTE   N11  Fn2
 BYTE   W12
 BYTE   N23  Fs1
 BYTE   N23  Fs2
 BYTE   W24
 BYTE   PEND 
//  #11 //152   ----------------------------------------
 BYTE   N11  Fn1
 BYTE   N11  Fn2
 BYTE   W12
 BYTE   N23  Fs1
 BYTE   N23  Fs2
 BYTE   W24
 BYTE   N11  Fn1
 BYTE   N11  Fn2
 BYTE   W12
 BYTE   Fs1
 BYTE   N11  Fs2
 BYTE   W12
 BYTE   Fn1
 BYTE   N11  Fn2
 BYTE   W12
 BYTE   En1
 BYTE   N11  En2
 BYTE   W12
 BYTE   Fn1
 BYTE   N11  Fn2
 BYTE   W12
//  #11 //153   ----------------------------------------
 BYTE   PATT
  POIN2 Label_013CE416
//  #11 //154   ----------------------------------------
 BYTE   N11  Fn1  v068
 BYTE   N11  Fn2
 BYTE   W12
 BYTE   N23  Fs1
 BYTE   N23  Fs2
 BYTE   W24
 BYTE   N11  Fn1
 BYTE   N11  Fn2
 BYTE   W12
 BYTE   Fs1
 BYTE   N11  Fs2
 BYTE   W12
 BYTE   Fn1
 BYTE   N11  Fn2
 BYTE   W12
 BYTE   Fs1
 BYTE   N11  Fs2
 BYTE   W12
 BYTE   Gs1
 BYTE   N11  Gs2
 BYTE   W12
//  #11 //155   ----------------------------------------
Label_013CE478:
 BYTE   N11  Ds1  v044
 BYTE   N11  Ds2
 BYTE   W12
 BYTE   Ds1  v036
 BYTE   N11  Ds2
 BYTE   W12
 BYTE   Ds1  v044
 BYTE   N11  Ds2
 BYTE   W12
 BYTE   Ds1  v036
 BYTE   N11  Ds2
 BYTE   W12
 BYTE   Ds1  v044
 BYTE   N11  Ds2
 BYTE   W12
 BYTE   Ds1  v036
 BYTE   N11  Ds2
 BYTE   W12
 BYTE   Ds1  v044
 BYTE   N11  Ds2
 BYTE   W12
 BYTE   Ds1  v036
 BYTE   N11  Ds2
 BYTE   W12
 BYTE   PEND 
//  #11 //156   ----------------------------------------
 BYTE   PATT
  POIN2 Label_013CE478
//  #11 //157   ----------------------------------------
 BYTE   PATT
  POIN2 Label_013CE478
//  #11 //158   ----------------------------------------
 BYTE   PATT
  POIN2 Label_013CE478
//  #11 //159   ----------------------------------------
Label_013CE4B1:
 BYTE   N11  Fn1  v068
 BYTE   N11  Fn2
 BYTE   W12
 BYTE   Fn1
 BYTE   N11  Fn2
 BYTE   W12
 BYTE   Gn1
 BYTE   N11  Gn2
 BYTE   W12
 BYTE   N23  Gs1
 BYTE   N23  Gs2
 BYTE   W24
 BYTE   N11  Gn1
 BYTE   N11  Gn2
 BYTE   W12
 BYTE   N23  Gs1
 BYTE   N23  Gs2
 BYTE   W24
 BYTE   PEND 
//  #11 //160   ----------------------------------------
 BYTE   N11  Gn1
 BYTE   N11  Gn2
 BYTE   W12
 BYTE   N23  Gs1
 BYTE   N23  Gs2
 BYTE   W24
 BYTE   N11  Gn1
 BYTE   N11  Gn2
 BYTE   W12
 BYTE   Gs1
 BYTE   N11  Gs2
 BYTE   W12
 BYTE   Gn1
 BYTE   N11  Gn2
 BYTE   W12
 BYTE   Fs1
 BYTE   N11  Fs2
 BYTE   W12
 BYTE   Gn1
 BYTE   N11  Gn2
 BYTE   W12
//  #11 //161   ----------------------------------------
 BYTE   PATT
  POIN2 Label_013CE4B1
//  #11 //162   ----------------------------------------
 BYTE   N11  Gn1  v068
 BYTE   N11  Gn2
 BYTE   W12
 BYTE   N23  Gs1
 BYTE   N23  Gs2
 BYTE   W24
 BYTE   N11  Gn1
 BYTE   N11  Gn2
 BYTE   W12
 BYTE   Gs1
 BYTE   N11  Gs2
 BYTE   W12
 BYTE   Gn1
 BYTE   N11  Gn2
 BYTE   W12
 BYTE   Gs1
 BYTE   N11  Gs2
 BYTE   W12
 BYTE   As1
 BYTE   N11  As2
 BYTE   W12
//  #11 //163   ----------------------------------------
Label_013CE513:
 BYTE   N11  Fn1  v044
 BYTE   N11  Fn2
 BYTE   W12
 BYTE   Fn1  v036
 BYTE   N11  Fn2
 BYTE   W12
 BYTE   Fn1  v044
 BYTE   N11  Fn2
 BYTE   W12
 BYTE   Fn1  v036
 BYTE   N11  Fn2
 BYTE   W12
 BYTE   Fn1  v044
 BYTE   N11  Fn2
 BYTE   W12
 BYTE   Fn1  v036
 BYTE   N11  Fn2
 BYTE   W12
 BYTE   Fn1  v044
 BYTE   N11  Fn2
 BYTE   W12
 BYTE   Fn1  v036
 BYTE   N11  Fn2
 BYTE   W12
 BYTE   PEND 
//  #11 //164   ----------------------------------------
 BYTE   PATT
  POIN2 Label_013CE513
//  #11 //165   ----------------------------------------
 BYTE   PATT
  POIN2 Label_013CE513
//  #11 //166   ----------------------------------------
 BYTE   PATT
  POIN2 Label_013CE513
//  #11 //167   ----------------------------------------
 BYTE   W96
//  #11 //168   ----------------------------------------
 BYTE   W96
//  #11 //169   ----------------------------------------
 BYTE   W96
//  #11 //170   ----------------------------------------
 BYTE   W96
//  #11 //171   ----------------------------------------
 BYTE   W96
//  #11 //172   ----------------------------------------
 BYTE   W96
//  #11 //173   ----------------------------------------
 BYTE   W96
//  #11 //174   ----------------------------------------
 BYTE   W96
//  #11 //175   ----------------------------------------
 BYTE   W96
//  #11 //176   ----------------------------------------
 BYTE   W96
//  #11 //177   ----------------------------------------
 BYTE   N11  As1  v044
 BYTE   W12
 BYTE   As1  v036
 BYTE   W12
 BYTE   As1  v044
 BYTE   N11  Fn2
 BYTE   N11  As2
 BYTE   W12
 BYTE   As1  v036
 BYTE   W12
 BYTE   As1  v044
 BYTE   W12
 BYTE   N11
 BYTE   N11  Fn2
 BYTE   N11  As2
 BYTE   W12
 BYTE   As1
 BYTE   W12
 BYTE   Bn1  v036
 BYTE   W12
//  #11 //178   ----------------------------------------
 BYTE   Cn2  v044
 BYTE   W12
 BYTE   Cn2  v036
 BYTE   W12
 BYTE   Cn2  v044
 BYTE   N11  Gn2
 BYTE   N11  Cn3
 BYTE   W12
 BYTE   Cn2  v036
 BYTE   W12
 BYTE   Cn2  v044
 BYTE   W12
 BYTE   N11
 BYTE   N11  Gn2
 BYTE   N11  Cn3
 BYTE   W12
 BYTE   Cn2
 BYTE   W12
 BYTE   Cn2  v036
 BYTE   W12
//  #11 //179   ----------------------------------------
Label_013CE593:
 BYTE   N11  Fn2  v044
 BYTE   W12
 BYTE   Fn2  v036
 BYTE   W12
 BYTE   Fn2  v044
 BYTE   N11  Cn3
 BYTE   N11  Fn3
 BYTE   W12
 BYTE   Fn2  v036
 BYTE   W12
 BYTE   Fn2  v044
 BYTE   W12
 BYTE   N11
 BYTE   N11  Cn3
 BYTE   N11  Fn3
 BYTE   W12
 BYTE   Fn2
 BYTE   W12
 BYTE   Fn2  v036
 BYTE   W12
 BYTE   PEND 
//  #11 //180   ----------------------------------------
Label_013CE5B3:
 BYTE   N11  Ds2  v044
 BYTE   W12
 BYTE   Ds2  v036
 BYTE   W12
 BYTE   Ds2  v044
 BYTE   N11  As2
 BYTE   N11  Ds3
 BYTE   W12
 BYTE   Ds2  v036
 BYTE   W12
 BYTE   Ds2  v044
 BYTE   W12
 BYTE   N11
 BYTE   N11  As2
 BYTE   N11  Ds3
 BYTE   W12
 BYTE   Ds2
 BYTE   W12
 BYTE   Ds2  v036
 BYTE   W12
 BYTE   PEND 
//  #11 //181   ----------------------------------------
 BYTE   W96
//  #11 //182   ----------------------------------------
 BYTE   W96
//  #11 //183   ----------------------------------------
 BYTE   W96
//  #11 //184   ----------------------------------------
 BYTE   W96
//  #11 //185   ----------------------------------------
 BYTE   PATT
  POIN2 Label_013CE0F4
//  #11 //186   ----------------------------------------
 BYTE   PATT
  POIN2 Label_013CE148
//  #11 //187   ----------------------------------------
 BYTE   PATT
  POIN2 Label_013CE277
//  #11 //188   ----------------------------------------
 BYTE   N11  Cn2  v044
 BYTE   W12
 BYTE   Cn2  v036
 BYTE   W12
 BYTE   Cn2  v044
 BYTE   N11  Gs2
 BYTE   N11  Cn3
 BYTE   W12
 BYTE   Cn2  v036
 BYTE   W12
 BYTE   Cn2  v044
 BYTE   W12
 BYTE   N11
 BYTE   N11  Gs2
 BYTE   N11  Cn3
 BYTE   W12
 BYTE   Cn2
 BYTE   W12
 BYTE   Cn2  v036
 BYTE   W12
//  #11 //189   ----------------------------------------
 BYTE   PATT
  POIN2 Label_013CE0F4
//  #11 //190   ----------------------------------------
 BYTE   PATT
  POIN2 Label_013CE148
//  #11 //191   ----------------------------------------
 BYTE   PATT
  POIN2 Label_013CE5B3
//  #11 //192   ----------------------------------------
 BYTE   PATT
  POIN2 Label_013CE593
//  #11 //193   ----------------------------------------
 BYTE   PATT
  POIN2 Label_013CE0F4
//  #11 //194   ----------------------------------------
 BYTE   PATT
  POIN2 Label_013CE148
//  #11 //195   ----------------------------------------
 BYTE   PATT
  POIN2 Label_013CE277
//  #11 //196   ----------------------------------------
 BYTE   PATT
  POIN2 Label_013CE5B3
//  #11 //197   ----------------------------------------
 BYTE   PATT
  POIN2 Label_013CE148
//  #11 //198   ----------------------------------------
 BYTE   PATT
  POIN2 Label_013CE148
//  #11 //199   ----------------------------------------
 BYTE   PATT
  POIN2 Label_013CE123
//  #11 //200   ----------------------------------------
 BYTE   N11  Fn1  v044
 BYTE   W12
 BYTE   Fn1  v036
 BYTE   W12
 BYTE   Fn1  v044
 BYTE   N11  Cn2
 BYTE   N11  Fn2
 BYTE   W12
 BYTE   Fn1  v036
 BYTE   W12
 BYTE   Fn1  v044
 BYTE   W12
 BYTE   N11
 BYTE   N11  Cn2
 BYTE   N11  Fn2
 BYTE   W12
 BYTE   Fn1
 BYTE   W12
 BYTE   Fn1  v036
 BYTE   W12
//  #11 //201   ----------------------------------------
 BYTE   PATT
  POIN2 Label_013CE2F6
//  #11 //202   ----------------------------------------
 BYTE   PATT
  POIN2 Label_013CDF70
//  #11 //203   ----------------------------------------
 BYTE   PATT
  POIN2 Label_013CE2F6
//  #11 //204   ----------------------------------------
 BYTE   PATT
  POIN2 Label_013CDF70
//  #11 //205   ----------------------------------------
 BYTE   PATT
  POIN2 Label_013CE2F6
//  #11 //206   ----------------------------------------
 BYTE   PATT
  POIN2 Label_013CDF70
//  #11 //207   ----------------------------------------
 BYTE   PATT
  POIN2 Label_013CE339
//  #11 //208   ----------------------------------------
 BYTE   PATT
  POIN2 Label_013CE365
//  #11 //209   ----------------------------------------
 BYTE   W96
//  #11 //210   ----------------------------------------
 BYTE   W96
//  #11 //211   ----------------------------------------
 BYTE   W24
 BYTE   TIE  As1  v044
 BYTE   TIE  Fn2
 BYTE   TIE  As2
 BYTE   W72
//  #11 //212   ----------------------------------------
 BYTE   W92
 BYTE   W03
 BYTE   EOT
 BYTE   As1  v053
 BYTE   As2
 BYTE   FINE

//**************** Track 12 (Midi-Chn.11) ****************//

The_One_They_Call_Witch_Song_012:
//  #12 //000   ----------------------------------------
 BYTE   KEYSH   The_One_They_Call_Witch_Song_key+0
 BYTE   VOICE   24
 BYTE   MODT 0
 BYTE   LFOS 44
 BYTE   BENDR  12
 BYTE   VOL   44*The_One_They_Call_Witch_Song_mvl/mxv
 BYTE   PAN   c_v+0
 BYTE   BENDR  12
 BYTE   VOL   44*The_One_They_Call_Witch_Song_mvl/mxv
 BYTE   PAN   c_v+0
 BYTE   W96
//  #12 //001   ----------------------------------------
 BYTE   W96
//  #12 //002   ----------------------------------------
 BYTE   W96
//  #12 //003   ----------------------------------------
 BYTE   W96
//  #12 //004   ----------------------------------------
 BYTE   W96
//  #12 //005   ----------------------------------------
 BYTE   W96
//  #12 //006   ----------------------------------------
 BYTE   W96
//  #12 //007   ----------------------------------------
 BYTE   W96
//  #12 //008   ----------------------------------------
Label_013C9910:
 BYTE   W96
//  #12 //009   ----------------------------------------
 BYTE   W96
//  #12 //010   ----------------------------------------
 BYTE   W96
//  #12 //011   ----------------------------------------
 BYTE   W96
//  #12 //012   ----------------------------------------
 BYTE   W96
//  #12 //013   ----------------------------------------
 BYTE   W96
//  #12 //014   ----------------------------------------
 BYTE   W96
//  #12 //015   ----------------------------------------
 BYTE   W96
//  #12 //016   ----------------------------------------
 BYTE   W96
//  #12 //017   ----------------------------------------
 BYTE   W96
//  #12 //018   ----------------------------------------
 BYTE   W96
//  #12 //019   ----------------------------------------
 BYTE   W96
//  #12 //020   ----------------------------------------
 BYTE   W96
//  #12 //021   ----------------------------------------
 BYTE   W96
//  #12 //022   ----------------------------------------
 BYTE   W96
//  #12 //023   ----------------------------------------
 BYTE   W96
//  #12 //024   ----------------------------------------
 BYTE   W96
//  #12 //025   ----------------------------------------
 BYTE   W96
//  #12 //026   ----------------------------------------
 BYTE   W96
//  #12 //027   ----------------------------------------
 BYTE   W96
//  #12 //028   ----------------------------------------
 BYTE   W96
//  #12 //029   ----------------------------------------
 BYTE   W96
//  #12 //030   ----------------------------------------
 BYTE   W96
//  #12 //031   ----------------------------------------
 BYTE   W96
//  #12 //032   ----------------------------------------
 BYTE   W96
//  #12 //033   ----------------------------------------
 BYTE   W96
//  #12 //034   ----------------------------------------
 BYTE   W96
//  #12 //035   ----------------------------------------
 BYTE   W96
//  #12 //036   ----------------------------------------
 BYTE   W96
//  #12 //037   ----------------------------------------
 BYTE   W96
//  #12 //038   ----------------------------------------
 BYTE   W96
//  #12 //039   ----------------------------------------
 BYTE   W96
//  #12 //040   ----------------------------------------
 BYTE   W96
//  #12 //041   ----------------------------------------
 BYTE   W96
//  #12 //042   ----------------------------------------
 BYTE   W96
//  #12 //043   ----------------------------------------
 BYTE   W96
//  #12 //044   ----------------------------------------
 BYTE   W96
//  #12 //045   ----------------------------------------
 BYTE   W96
//  #12 //046   ----------------------------------------
 BYTE   W96
//  #12 //047   ----------------------------------------
 BYTE   W96
//  #12 //048   ----------------------------------------
 BYTE   W96
//  #12 //049   ----------------------------------------
 BYTE   W96
//  #12 //050   ----------------------------------------
 BYTE   W96
//  #12 //051   ----------------------------------------
 BYTE   W96
//  #12 //052   ----------------------------------------
 BYTE   W96
//  #12 //053   ----------------------------------------
 BYTE   W96
//  #12 //054   ----------------------------------------
 BYTE   W96
//  #12 //055   ----------------------------------------
 BYTE   W96
//  #12 //056   ----------------------------------------
 BYTE   W96
//  #12 //057   ----------------------------------------
 BYTE   W96
//  #12 //058   ----------------------------------------
 BYTE   W96
//  #12 //059   ----------------------------------------
 BYTE   W96
//  #12 //060   ----------------------------------------
 BYTE   W96
//  #12 //061   ----------------------------------------
 BYTE   W96
//  #12 //062   ----------------------------------------
 BYTE   W96
//  #12 //063   ----------------------------------------
 BYTE   W96
//  #12 //064   ----------------------------------------
 BYTE   W96
//  #12 //065   ----------------------------------------
 BYTE   W96
//  #12 //066   ----------------------------------------
 BYTE   W96
//  #12 //067   ----------------------------------------
 BYTE   W96
//  #12 //068   ----------------------------------------
 BYTE   W96
//  #12 //069   ----------------------------------------
 BYTE   W96
//  #12 //070   ----------------------------------------
 BYTE   W96
//  #12 //071   ----------------------------------------
 BYTE   W96
//  #12 //072   ----------------------------------------
 BYTE   W96
//  #12 //073   ----------------------------------------
 BYTE   W96
//  #12 //074   ----------------------------------------
 BYTE   W96
//  #12 //075   ----------------------------------------
 BYTE   W96
//  #12 //076   ----------------------------------------
 BYTE   W96
//  #12 //077   ----------------------------------------
 BYTE   W96
//  #12 //078   ----------------------------------------
 BYTE   W96
//  #12 //079   ----------------------------------------
 BYTE   W96
//  #12 //080   ----------------------------------------
 BYTE   W96
//  #12 //081   ----------------------------------------
 BYTE   W96
//  #12 //082   ----------------------------------------
 BYTE   W12
 BYTE   N11  Gs2  v036
 BYTE   N11  As2
 BYTE   N11  Ds3
 BYTE   W12
 BYTE   N23  Gs2
 BYTE   N23  As2
 BYTE   N23  Ds3
 BYTE   W24
 BYTE   N11  An2
 BYTE   N11  Bn2
 BYTE   N11  En3
 BYTE   W12
 BYTE   An2
 BYTE   N11  Bn2
 BYTE   N11  En3
 BYTE   W24
 BYTE   Bn2
 BYTE   N11  Cs3
 BYTE   N11  Fs3
 BYTE   W12
//  #12 //083   ----------------------------------------
 BYTE   N23  Bn2
 BYTE   N23  Cs3
 BYTE   N23  Fs3
 BYTE   W24
 BYTE   N11  An2
 BYTE   N11  Bn2
 BYTE   N11  En3
 BYTE   W12
 BYTE   An2
 BYTE   N11  Bn2
 BYTE   N11  En3
 BYTE   W24
 BYTE   Gs2
 BYTE   N11  As2
 BYTE   N11  Ds3
 BYTE   W24
 BYTE   Fs2
 BYTE   N11  Gs2
 BYTE   N11  Cs3
 BYTE   W12
//  #12 //084   ----------------------------------------
 BYTE   W12
 BYTE   As3
 BYTE   N11  Ds4
 BYTE   W12
 BYTE   N23  As3
 BYTE   N23  Ds4
 BYTE   W24
 BYTE   N11  Bn3
 BYTE   N11  En4
 BYTE   W12
 BYTE   Bn3
 BYTE   N11  En4
 BYTE   W24
 BYTE   Cs4
 BYTE   N11  Fs4
 BYTE   W12
//  #12 //085   ----------------------------------------
 BYTE   N23  Cs4
 BYTE   N23  Fs4
 BYTE   W24
 BYTE   N11  Bn3
 BYTE   N11  En4
 BYTE   W12
 BYTE   Bn3
 BYTE   N11  En4
 BYTE   W24
 BYTE   As3
 BYTE   N11  Ds4
 BYTE   W24
 BYTE   Bn3
 BYTE   N11  En4
 BYTE   W12
//  #12 //086   ----------------------------------------
 BYTE   W12
 BYTE   Fn3
 BYTE   N11  As3
 BYTE   W12
 BYTE   N23  Fn3
 BYTE   N23  As3
 BYTE   W24
 BYTE   N11  Fs3
 BYTE   N11  Bn3
 BYTE   W12
 BYTE   Fs3
 BYTE   N11  Bn3
 BYTE   W24
 BYTE   Gs3
 BYTE   N11  Cs4
 BYTE   W12
//  #12 //087   ----------------------------------------
 BYTE   N23  Gs3
 BYTE   N23  Cs4
 BYTE   W24
 BYTE   N11  Fs3
 BYTE   N11  Bn3
 BYTE   W12
 BYTE   Fs3
 BYTE   N11  Bn3
 BYTE   W24
 BYTE   Fn3
 BYTE   N11  As3
 BYTE   W24
 BYTE   Ds3
 BYTE   N11  Gs3
 BYTE   W12
//  #12 //088   ----------------------------------------
 BYTE   W12
 BYTE   Fn4
 BYTE   N11  As4
 BYTE   W12
 BYTE   N23  Fn4
 BYTE   N23  As4
 BYTE   W24
 BYTE   N11  Fs4
 BYTE   N11  Bn4
 BYTE   W12
 BYTE   Fs4
 BYTE   N11  Bn4
 BYTE   W24
 BYTE   Fs4
 BYTE   N11  Bn4
 BYTE   W12
//  #12 //089   ----------------------------------------
 BYTE   N44  Fn4
 BYTE   N44  As4
 BYTE   W96
//  #12 //090   ----------------------------------------
 BYTE   GoTo
  POIN2 Label_013C9910
//  #12 //091   ----------------------------------------
 BYTE   W96
//  #12 //092   ----------------------------------------
 BYTE   W96
//  #12 //093   ----------------------------------------
 BYTE   W96
//  #12 //094   ----------------------------------------
 BYTE   W96
//  #12 //095   ----------------------------------------
 BYTE   W96
//  #12 //096   ----------------------------------------
 BYTE   W96
//  #12 //097   ----------------------------------------
 BYTE   W96
//  #12 //098   ----------------------------------------
 BYTE   W96
//  #12 //099   ----------------------------------------
 BYTE   W96
//  #12 //100   ----------------------------------------
 BYTE   W96
//  #12 //101   ----------------------------------------
 BYTE   W96
//  #12 //102   ----------------------------------------
 BYTE   W96
//  #12 //103   ----------------------------------------
 BYTE   W96
//  #12 //104   ----------------------------------------
 BYTE   W96
//  #12 //105   ----------------------------------------
 BYTE   W96
//  #12 //106   ----------------------------------------
 BYTE   W96
//  #12 //107   ----------------------------------------
 BYTE   W96
//  #12 //108   ----------------------------------------
 BYTE   W96
//  #12 //109   ----------------------------------------
 BYTE   W96
//  #12 //110   ----------------------------------------
 BYTE   W96
//  #12 //111   ----------------------------------------
 BYTE   W96
//  #12 //112   ----------------------------------------
 BYTE   W96
//  #12 //113   ----------------------------------------
 BYTE   W96
//  #12 //114   ----------------------------------------
 BYTE   W96
//  #12 //115   ----------------------------------------
 BYTE   W96
//  #12 //116   ----------------------------------------
 BYTE   W96
//  #12 //117   ----------------------------------------
 BYTE   W96
//  #12 //118   ----------------------------------------
 BYTE   W96
//  #12 //119   ----------------------------------------
 BYTE   W96
//  #12 //120   ----------------------------------------
 BYTE   W96
//  #12 //121   ----------------------------------------
 BYTE   W96
//  #12 //122   ----------------------------------------
 BYTE   W96
//  #12 //123   ----------------------------------------
 BYTE   W96
//  #12 //124   ----------------------------------------
 BYTE   W96
//  #12 //125   ----------------------------------------
 BYTE   W96
//  #12 //126   ----------------------------------------
 BYTE   W96
//  #12 //127   ----------------------------------------
 BYTE   W96
//  #12 //128   ----------------------------------------
 BYTE   W96
//  #12 //129   ----------------------------------------
 BYTE   W96
//  #12 //130   ----------------------------------------
 BYTE   W96
//  #12 //131   ----------------------------------------
 BYTE   W96
//  #12 //132   ----------------------------------------
 BYTE   W96
//  #12 //133   ----------------------------------------
 BYTE   W96
//  #12 //134   ----------------------------------------
 BYTE   W96
//  #12 //135   ----------------------------------------
 BYTE   W96
//  #12 //136   ----------------------------------------
 BYTE   W96
//  #12 //137   ----------------------------------------
 BYTE   W96
//  #12 //138   ----------------------------------------
 BYTE   W96
//  #12 //139   ----------------------------------------
 BYTE   W96
//  #12 //140   ----------------------------------------
 BYTE   W96
//  #12 //141   ----------------------------------------
 BYTE   W96
//  #12 //142   ----------------------------------------
 BYTE   W96
//  #12 //143   ----------------------------------------
 BYTE   W96
//  #12 //144   ----------------------------------------
 BYTE   W96
//  #12 //145   ----------------------------------------
 BYTE   W96
//  #12 //146   ----------------------------------------
 BYTE   W96
//  #12 //147   ----------------------------------------
 BYTE   W96
//  #12 //148   ----------------------------------------
 BYTE   W96
//  #12 //149   ----------------------------------------
 BYTE   W96
//  #12 //150   ----------------------------------------
 BYTE   W96
//  #12 //151   ----------------------------------------
 BYTE   W96
//  #12 //152   ----------------------------------------
 BYTE   W96
//  #12 //153   ----------------------------------------
 BYTE   W96
//  #12 //154   ----------------------------------------
 BYTE   W96
//  #12 //155   ----------------------------------------
 BYTE   W96
//  #12 //156   ----------------------------------------
 BYTE   W96
//  #12 //157   ----------------------------------------
 BYTE   W96
//  #12 //158   ----------------------------------------
 BYTE   W96
//  #12 //159   ----------------------------------------
 BYTE   W96
//  #12 //160   ----------------------------------------
 BYTE   W96
//  #12 //161   ----------------------------------------
 BYTE   W96
//  #12 //162   ----------------------------------------
 BYTE   W96
//  #12 //163   ----------------------------------------
 BYTE   W96
//  #12 //164   ----------------------------------------
 BYTE   W96
//  #12 //165   ----------------------------------------
 BYTE   W96
//  #12 //166   ----------------------------------------
 BYTE   W96
//  #12 //167   ----------------------------------------
 BYTE   W96
//  #12 //168   ----------------------------------------
 BYTE   W96
//  #12 //169   ----------------------------------------
 BYTE   W96
//  #12 //170   ----------------------------------------
 BYTE   W96
//  #12 //171   ----------------------------------------
 BYTE   W96
//  #12 //172   ----------------------------------------
 BYTE   W96
//  #12 //173   ----------------------------------------
 BYTE   W96
//  #12 //174   ----------------------------------------
 BYTE   W96
//  #12 //175   ----------------------------------------
 BYTE   W96
//  #12 //176   ----------------------------------------
 BYTE   W96
//  #12 //177   ----------------------------------------
 BYTE   W96
//  #12 //178   ----------------------------------------
 BYTE   W96
//  #12 //179   ----------------------------------------
 BYTE   W96
//  #12 //180   ----------------------------------------
 BYTE   W96
//  #12 //181   ----------------------------------------
 BYTE   W96
//  #12 //182   ----------------------------------------
 BYTE   W96
//  #12 //183   ----------------------------------------
 BYTE   W96
//  #12 //184   ----------------------------------------
 BYTE   W96
//  #12 //185   ----------------------------------------
 BYTE   W96
//  #12 //186   ----------------------------------------
 BYTE   W96
//  #12 //187   ----------------------------------------
 BYTE   W96
//  #12 //188   ----------------------------------------
 BYTE   W96
//  #12 //189   ----------------------------------------
 BYTE   W96
//  #12 //190   ----------------------------------------
 BYTE   W96
//  #12 //191   ----------------------------------------
 BYTE   W96
//  #12 //192   ----------------------------------------
 BYTE   W96
//  #12 //193   ----------------------------------------
 BYTE   W96
//  #12 //194   ----------------------------------------
 BYTE   W96
//  #12 //195   ----------------------------------------
 BYTE   W96
//  #12 //196   ----------------------------------------
 BYTE   W96
//  #12 //197   ----------------------------------------
 BYTE   W96
//  #12 //198   ----------------------------------------
 BYTE   W96
//  #12 //199   ----------------------------------------
 BYTE   W96
//  #12 //200   ----------------------------------------
 BYTE   W96
//  #12 //201   ----------------------------------------
 BYTE   W96
//  #12 //202   ----------------------------------------
 BYTE   W92
 BYTE   W03
 BYTE   FINE

//******************************************************//
	ALIGN 4

The_One_They_Call_Witch_Song:
	BYTE	12	// NumTrks
	BYTE	0	// NumBlks
	BYTE	The_One_They_Call_Witch_Song_pri	// Priority
	BYTE	The_One_They_Call_Witch_Song_rev	// Reverb.
    
	POIN2	The_One_They_Call_Witch_Song_grp
    
	POIN2	The_One_They_Call_Witch_Song_001
	POIN2	The_One_They_Call_Witch_Song_002
	POIN2	The_One_They_Call_Witch_Song_003
	POIN2	The_One_They_Call_Witch_Song_004
	POIN2	The_One_They_Call_Witch_Song_005
	POIN2	The_One_They_Call_Witch_Song_006
	POIN2	The_One_They_Call_Witch_Song_007
	POIN2	The_One_They_Call_Witch_Song_008
	POIN2	The_One_They_Call_Witch_Song_009
	POIN2	The_One_They_Call_Witch_Song_010
	POIN2	The_One_They_Call_Witch_Song_011
	POIN2	The_One_They_Call_Witch_Song_012

	
