//Event file generated from Sappy .s format.
	#include "MPlayDef.event"

	#define	UpperSteamCave_Song_grp  voicegroup000
	#define	UpperSteamCave_Song_pri  0
	#define	UpperSteamCave_Song_rev  0
	#define	UpperSteamCave_Song_mvl  127
	#define	UpperSteamCave_Song_key  0
	#define	UpperSteamCave_Song_tbs  1
	#define	UpperSteamCave_Song_exg  0
	#define	UpperSteamCave_Song_cmp  1

	// .rodata
	//	UpperSteamCave_Song
	ALIGN 4


//**************** Track 1 (Midi-Chn.0) ****************//

UpperSteamCave_Song_001:
//  #01 //000   ----------------------------------------
 BYTE   KEYSH   UpperSteamCave_Song_key+0
Label_0169FC86:
 BYTE   TEMPO   86*UpperSteamCave_Song_tbs/2
 BYTE   VOICE   36
 BYTE   MODT 0
 BYTE   LFOS 44
 BYTE   VOL   73*UpperSteamCave_Song_mvl/mxv
 BYTE   PAN   c_v+0
 BYTE   VOL   73*UpperSteamCave_Song_mvl/mxv
 BYTE   BEND   c_v+0
 BYTE   N06  Cn2  v127
 BYTE   W06
 BYTE   Dn2
 BYTE   W12
 BYTE   N06
 BYTE   W18
 BYTE   N06
 BYTE   W06
 BYTE   N42  Dn1
 BYTE   W42
 BYTE   N06  An1
 BYTE   W06
 BYTE   Cn2
 BYTE   W06
//  #01 //001   ----------------------------------------
Label_0169FCA8:
 BYTE   N06  Cn2  v127
 BYTE   W06
 BYTE   Dn2
 BYTE   W12
 BYTE   N06
 BYTE   W18
 BYTE   N06
 BYTE   W06
 BYTE   N42  Dn1
 BYTE   W42
 BYTE   N06  An1
 BYTE   W06
 BYTE   Cn2
 BYTE   W06
 BYTE   PEND 
//  #01 //002   ----------------------------------------
 BYTE   PATT
  POIN2 Label_0169FCA8
//  #01 //003   ----------------------------------------
 BYTE   PATT
  POIN2 Label_0169FCA8
//  #01 //004   ----------------------------------------
 BYTE   PATT
  POIN2 Label_0169FCA8
//  #01 //005   ----------------------------------------
 BYTE   PATT
  POIN2 Label_0169FCA8
//  #01 //006   ----------------------------------------
 BYTE   PATT
  POIN2 Label_0169FCA8
//  #01 //007   ----------------------------------------
 BYTE   PATT
  POIN2 Label_0169FCA8
//  #01 //008   ----------------------------------------
 BYTE   PATT
  POIN2 Label_0169FCA8
//  #01 //009   ----------------------------------------
 BYTE   PATT
  POIN2 Label_0169FCA8
//  #01 //010   ----------------------------------------
 BYTE   PATT
  POIN2 Label_0169FCA8
//  #01 //011   ----------------------------------------
 BYTE   PATT
  POIN2 Label_0169FCA8
//  #01 //012   ----------------------------------------
 BYTE   PATT
  POIN2 Label_0169FCA8
//  #01 //013   ----------------------------------------
 BYTE   PATT
  POIN2 Label_0169FCA8
//  #01 //014   ----------------------------------------
 BYTE   PATT
  POIN2 Label_0169FCA8
//  #01 //015   ----------------------------------------
 BYTE   PATT
  POIN2 Label_0169FCA8
//  #01 //016   ----------------------------------------
 BYTE   N06  Cs2  v127
 BYTE   W06
 BYTE   Ds2
 BYTE   W12
 BYTE   N06
 BYTE   W18
 BYTE   N06
 BYTE   W06
 BYTE   N42  Ds1
 BYTE   W42
 BYTE   N06  As1
 BYTE   W06
 BYTE   Cn2
 BYTE   W06
//  #01 //017   ----------------------------------------
Label_0169FD13:
 BYTE   N06  Cs2  v127
 BYTE   W06
 BYTE   Ds2
 BYTE   W12
 BYTE   N06
 BYTE   W18
 BYTE   N06
 BYTE   W06
 BYTE   N42  Ds1
 BYTE   W42
 BYTE   N06  As1
 BYTE   W06
 BYTE   Cs2
 BYTE   W06
 BYTE   PEND 
//  #01 //018   ----------------------------------------
 BYTE   PATT
  POIN2 Label_0169FCA8
//  #01 //019   ----------------------------------------
 BYTE   PATT
  POIN2 Label_0169FCA8
//  #01 //020   ----------------------------------------
 BYTE   PATT
  POIN2 Label_0169FD13
//  #01 //021   ----------------------------------------
 BYTE   PATT
  POIN2 Label_0169FD13
//  #01 //022   ----------------------------------------
 BYTE   PATT
  POIN2 Label_0169FCA8
//  #01 //023   ----------------------------------------
 BYTE   PATT
  POIN2 Label_0169FCA8
//  #01 //024   ----------------------------------------
 BYTE   PATT
  POIN2 Label_0169FCA8
//  #01 //025   ----------------------------------------
 BYTE   PATT
  POIN2 Label_0169FCA8
//  #01 //026   ----------------------------------------
 BYTE   PATT
  POIN2 Label_0169FCA8
//  #01 //027   ----------------------------------------
 BYTE   N06  Bn1  v127
 BYTE   W06
 BYTE   Cs2
 BYTE   W12
 BYTE   N06
 BYTE   W18
 BYTE   N06
 BYTE   W06
 BYTE   N42  Cs1
 BYTE   W42
 BYTE   N06  Gs1
 BYTE   W06
 BYTE   Bn1
 BYTE   W06
//  #01 //028   ----------------------------------------
 BYTE   BEND   c_v-10
 BYTE   N06  Dn2
 BYTE   W06
 BYTE   En2
 BYTE   W12
 BYTE   N06
 BYTE   W18
 BYTE   N06
 BYTE   W06
 BYTE   BEND   c_v+0
 BYTE   N42  En1
 BYTE   W42
 BYTE   N06  Bn1
 BYTE   W06
 BYTE   Dn2
 BYTE   W06
//  #01 //029   ----------------------------------------
 BYTE   BEND   c_v-9
 BYTE   N06  Cs2
 BYTE   W06
 BYTE   Ds2
 BYTE   W12
 BYTE   N06
 BYTE   W18
 BYTE   N06
 BYTE   W06
 BYTE   BEND   c_v+0
 BYTE   N42  Ds1
 BYTE   W42
 BYTE   N06  As1
 BYTE   W06
 BYTE   Cs2
 BYTE   W06
//  #01 //030   ----------------------------------------
 BYTE   BEND   c_v-10
 BYTE   N06  En2
 BYTE   W06
 BYTE   Fs2
 BYTE   W12
 BYTE   N06
 BYTE   W18
 BYTE   N06
 BYTE   W06
 BYTE   BEND   c_v+0
 BYTE   N42  Fs1
 BYTE   W42
 BYTE   N06  Cs2
 BYTE   W06
 BYTE   En2
 BYTE   W06
//  #01 //031   ----------------------------------------
 BYTE   BEND   c_v-9
 BYTE   N06  Ds2
 BYTE   W06
 BYTE   Fn2
 BYTE   W12
 BYTE   N06
 BYTE   W18
 BYTE   N06
 BYTE   W06
 BYTE   BEND   c_v+0
 BYTE   N42  Fn1
 BYTE   W42
 BYTE   N06  Cn2
 BYTE   W06
 BYTE   Ds2
 BYTE   W06
//  #01 //032   ----------------------------------------
 BYTE   BEND   c_v-10
 BYTE   N06  Fs2
 BYTE   W06
 BYTE   Gs2
 BYTE   W12
 BYTE   N06
 BYTE   W18
 BYTE   N06
 BYTE   W06
 BYTE   BEND   c_v+0
 BYTE   N42  Gs1
 BYTE   W42
 BYTE   N06  Ds2
 BYTE   W06
 BYTE   Fs2
 BYTE   W06
//  #01 //033   ----------------------------------------
 BYTE   BEND   c_v-11
 BYTE   N06  An2
 BYTE   W06
 BYTE   Bn2
 BYTE   W12
 BYTE   N06
 BYTE   W18
 BYTE   N06
 BYTE   W06
 BYTE   BEND   c_v+0
 BYTE   N42  Bn1
 BYTE   W42
 BYTE   N06  Fs2
 BYTE   W06
 BYTE   An2
 BYTE   W06
//  #01 //034   ----------------------------------------
 BYTE   W96
//  #01 //035   ----------------------------------------
 BYTE   W96
//  #01 //036   ----------------------------------------
 BYTE   W96
//  #01 //037   ----------------------------------------
 BYTE   W96
//  #01 //038   ----------------------------------------
 BYTE   W96
//  #01 //039   ----------------------------------------
 BYTE   W96
//  #01 //040   ----------------------------------------
 BYTE   W96
//  #01 //041   ----------------------------------------
 BYTE   W96
//  #01 //042   ----------------------------------------
 BYTE   GoTo
  POIN2 Label_0169FC86
 BYTE   FINE

//**************** Track 2 (Midi-Chn.1) ****************//

UpperSteamCave_Song_002:
//  #02 //000   ----------------------------------------
 BYTE   KEYSH   UpperSteamCave_Song_key+0
Label_016B095E:
 BYTE   VOICE   2
 BYTE   MODT 0
 BYTE   LFOS 44
 BYTE   VOL   28*UpperSteamCave_Song_mvl/mxv
 BYTE   PAN   c_v+0
 BYTE   VOL   28*UpperSteamCave_Song_mvl/mxv
 BYTE   BEND   c_v+0
 BYTE   W96
//  #02 //001   ----------------------------------------
 BYTE   W96
//  #02 //002   ----------------------------------------
 BYTE   W96
//  #02 //003   ----------------------------------------
 BYTE   W96
//  #02 //004   ----------------------------------------
 BYTE   W96
//  #02 //005   ----------------------------------------
 BYTE   W96
//  #02 //006   ----------------------------------------
 BYTE   W96
//  #02 //007   ----------------------------------------
 BYTE   W96
//  #02 //008   ----------------------------------------
 BYTE   W96
//  #02 //009   ----------------------------------------
 BYTE   W96
//  #02 //010   ----------------------------------------
 BYTE   W96
//  #02 //011   ----------------------------------------
 BYTE   W96
//  #02 //012   ----------------------------------------
 BYTE   W96
//  #02 //013   ----------------------------------------
 BYTE   W96
//  #02 //014   ----------------------------------------
 BYTE   N48  En3  v127
 BYTE   N48  Gn3
 BYTE   N48  Cn4
 BYTE   W48
 BYTE   Gn3
 BYTE   N48  Cn4
 BYTE   N48  En4
 BYTE   W48
//  #02 //015   ----------------------------------------
Label_016B0988:
 BYTE   N48  Cn3  v127
 BYTE   N48  En3
 BYTE   N48  Gn3
 BYTE   W48
 BYTE   En3
 BYTE   N48  Gn3
 BYTE   N48  Cn4
 BYTE   W48
 BYTE   PEND 
//  #02 //016   ----------------------------------------
 BYTE   Fn3
 BYTE   N48  As3
 BYTE   N48  Dn4
 BYTE   W48
 BYTE   N96  Dn3
 BYTE   N96  Fn3
 BYTE   N96  As3
 BYTE   W48
//  #02 //017   ----------------------------------------
 BYTE   W48
 BYTE   N24
 BYTE   N24  Dn4
 BYTE   N24  Fn4
 BYTE   W24
 BYTE   Fn3
 BYTE   N24  As3
 BYTE   N24  Dn4
 BYTE   W24
//  #02 //018   ----------------------------------------
 BYTE   N48  Gn3
 BYTE   N48  Cn4
 BYTE   N48  En4
 BYTE   W48
 BYTE   En3
 BYTE   N48  Gn3
 BYTE   N48  Cn4
 BYTE   W48
//  #02 //019   ----------------------------------------
 BYTE   PATT
  POIN2 Label_016B0988
//  #02 //020   ----------------------------------------
 BYTE   N48  Fn3  v127
 BYTE   N48  As3
 BYTE   N48  Dn4
 BYTE   W48
 BYTE   N72  Dn3
 BYTE   N72  Fn3
 BYTE   N72  As3
 BYTE   W48
//  #02 //021   ----------------------------------------
 BYTE   W24
 BYTE   N48  Dn3
 BYTE   N48  Fn3
 BYTE   N48  As3
 BYTE   W48
 BYTE   N24  Dn3
 BYTE   N24  Fn3
 BYTE   N24  Cn4
 BYTE   W24
//  #02 //022   ----------------------------------------
Label_016B09E1:
 BYTE   TIE  Cn3  v127
 BYTE   TIE  En3
 BYTE   TIE  An3
 BYTE   W96
 BYTE   PEND 
//  #02 //023   ----------------------------------------
 BYTE   W48
 BYTE   EOT
 BYTE   Cn3  v064
 BYTE   An3
 BYTE   N24  Dn3
 BYTE   N24  Fn3
 BYTE   N24  As3
 BYTE   W24
 BYTE   Dn3
 BYTE   N24  Fn3
 BYTE   N24  Cn4
 BYTE   W24
//  #02 //024   ----------------------------------------
 BYTE   PATT
  POIN2 Label_016B09E1
//  #02 //025   ----------------------------------------
 BYTE   W48
 BYTE   EOT
 BYTE   Cn3  v064
 BYTE   An3
 BYTE   N24  Dn3  v127
 BYTE   N24  Fn3
 BYTE   N24  As3
 BYTE   W24
 BYTE   Dn3
 BYTE   N24  Fn3
 BYTE   N24  Cn4
 BYTE   W24
//  #02 //026   ----------------------------------------
 BYTE   N12  Dn3  v088
 BYTE   N12  Gn4
 BYTE   N12  Cn5
 BYTE   W12
 BYTE   An3
 BYTE   N12  Fn4
 BYTE   W12
 BYTE   Dn4
 BYTE   N12  Gn4
 BYTE   N12  Cn5
 BYTE   W12
 BYTE   An3
 BYTE   N12  Fn4
 BYTE   W12
 BYTE   Dn4
 BYTE   N12  Gn4
 BYTE   N12  Cn5
 BYTE   W12
 BYTE   An3
 BYTE   N12  Fn4
 BYTE   W12
 BYTE   Dn4
 BYTE   N12  Gn4
 BYTE   N12  Cn5
 BYTE   W12
 BYTE   An3
 BYTE   N12  Fn4
 BYTE   W12
//  #02 //027   ----------------------------------------
 BYTE   Cs3
 BYTE   N12  Fs4
 BYTE   N12  Bn4
 BYTE   W12
 BYTE   Gs3
 BYTE   N12  En4
 BYTE   W12
 BYTE   Cs4
 BYTE   N12  Fs4
 BYTE   N12  Bn4
 BYTE   W12
 BYTE   Gs3
 BYTE   N12  En4
 BYTE   W12
 BYTE   Cs4
 BYTE   N12  Fs4
 BYTE   N12  Bn4
 BYTE   W12
 BYTE   Gs3
 BYTE   N12  En4
 BYTE   W12
 BYTE   Cs4
 BYTE   N12  Fs4
 BYTE   N12  Bn4
 BYTE   W12
 BYTE   Gs3
 BYTE   N12  En4
 BYTE   W12
//  #02 //028   ----------------------------------------
 BYTE   En3
 BYTE   N12  An4
 BYTE   N12  Dn5
 BYTE   W12
 BYTE   Bn3
 BYTE   N12  Gn4
 BYTE   W12
 BYTE   En4
 BYTE   N12  An4
 BYTE   N12  Dn5
 BYTE   W12
 BYTE   Bn3
 BYTE   N12  Gn4
 BYTE   W12
 BYTE   En4
 BYTE   N12  An4
 BYTE   N12  Dn5
 BYTE   W12
 BYTE   Bn3
 BYTE   N12  Gn4
 BYTE   W12
 BYTE   En4
 BYTE   N12  An4
 BYTE   N12  Dn5
 BYTE   W12
 BYTE   Bn3
 BYTE   N12  Gn4
 BYTE   W12
//  #02 //029   ----------------------------------------
 BYTE   Ds3
 BYTE   N12  Gs4
 BYTE   N12  Cs5
 BYTE   W12
 BYTE   As3
 BYTE   N12  Fs4
 BYTE   W12
 BYTE   Ds4
 BYTE   N12  Gs4
 BYTE   N12  Cs5
 BYTE   W12
 BYTE   As3
 BYTE   N12  Fs4
 BYTE   W12
 BYTE   Ds4
 BYTE   N12  Gs4
 BYTE   N12  Cs5
 BYTE   W12
 BYTE   As3
 BYTE   N12  Fs4
 BYTE   W12
 BYTE   Ds4
 BYTE   N12  Gs4
 BYTE   N12  Cs5
 BYTE   W12
 BYTE   As3
 BYTE   N12  Fs4
 BYTE   W12
//  #02 //030   ----------------------------------------
 BYTE   Fs3
 BYTE   N12  Bn4
 BYTE   N12  En5
 BYTE   W12
 BYTE   Cs4
 BYTE   N12  An4
 BYTE   W12
 BYTE   Fs4
 BYTE   N12  Bn4
 BYTE   N12  En5
 BYTE   W12
 BYTE   Cs4
 BYTE   N12  An4
 BYTE   W12
 BYTE   Fs4
 BYTE   N12  Bn4
 BYTE   N12  En5
 BYTE   W12
 BYTE   Cs4
 BYTE   N12  An4
 BYTE   W12
 BYTE   Fs4
 BYTE   N12  Bn4
 BYTE   N12  En5
 BYTE   W12
 BYTE   Cs4
 BYTE   N12  An4
 BYTE   W12
//  #02 //031   ----------------------------------------
 BYTE   Fn3
 BYTE   N12  As4
 BYTE   N12  Ds5
 BYTE   W12
 BYTE   Cn4
 BYTE   N12  Gs4
 BYTE   W12
 BYTE   Fn4
 BYTE   N12  As4
 BYTE   N12  Ds5
 BYTE   W12
 BYTE   Cn4
 BYTE   N12  Gs4
 BYTE   W12
 BYTE   Fn4
 BYTE   N12  As4
 BYTE   N12  Ds5
 BYTE   W12
 BYTE   Cn4
 BYTE   N12  Gs4
 BYTE   W12
 BYTE   Fn4
 BYTE   N12  As4
 BYTE   N12  Ds5
 BYTE   W12
 BYTE   Cn4
 BYTE   N12  Gs4
 BYTE   W12
//  #02 //032   ----------------------------------------
 BYTE   Gs3
 BYTE   N12  Cs5
 BYTE   N12  Fs5
 BYTE   W12
 BYTE   Ds4
 BYTE   N12  Bn4
 BYTE   W12
 BYTE   Gs4
 BYTE   N12  Cs5
 BYTE   N12  Fs5
 BYTE   W12
 BYTE   Ds4
 BYTE   N12  Bn4
 BYTE   W12
 BYTE   Gs4
 BYTE   N12  Cs5
 BYTE   N12  Fs5
 BYTE   W12
 BYTE   Ds4
 BYTE   N12  Bn4
 BYTE   W12
 BYTE   Gs4
 BYTE   N12  Cs5
 BYTE   N12  Fs5
 BYTE   W12
 BYTE   Ds4
 BYTE   N12  Bn4
 BYTE   W12
//  #02 //033   ----------------------------------------
 BYTE   Bn3
 BYTE   N12  En5
 BYTE   N12  An5
 BYTE   W12
 BYTE   Fs4
 BYTE   N12  Dn5
 BYTE   W12
 BYTE   Bn4
 BYTE   N12  En5
 BYTE   N12  An5
 BYTE   W12
 BYTE   Fs4
 BYTE   N12  Dn5
 BYTE   W12
 BYTE   Bn4
 BYTE   N12  En5
 BYTE   N12  An5
 BYTE   W12
 BYTE   Fs4
 BYTE   N12  Dn5
 BYTE   W12
 BYTE   Bn4
 BYTE   N12  En5
 BYTE   N12  An5
 BYTE   W12
 BYTE   Fs4
 BYTE   N12  Dn5
 BYTE   W12
//  #02 //034   ----------------------------------------
Label_016B0B56:
 BYTE   N48  An3  v127
 BYTE   N48  Ds4
 BYTE   N48  Gs4
 BYTE   N48  Cs5
 BYTE   W48
 BYTE   Gn3
 BYTE   N48  Cs4
 BYTE   N48  Fs4
 BYTE   N48  Bn4
 BYTE   W48
 BYTE   PEND 
//  #02 //035   ----------------------------------------
 BYTE   An3
 BYTE   N48  Ds4
 BYTE   N48  Gs4
 BYTE   N48  Cs5
 BYTE   W48
 BYTE   Fn3
 BYTE   N48  Bn3
 BYTE   N48  En4
 BYTE   N48  An4
 BYTE   W48
//  #02 //036   ----------------------------------------
 BYTE   PATT
  POIN2 Label_016B0B56
//  #02 //037   ----------------------------------------
 BYTE   N48  An3  v127
 BYTE   N48  Ds4
 BYTE   N48  Gs4
 BYTE   N48  Cs5
 BYTE   W48
 BYTE   Ds3
 BYTE   N48  An3
 BYTE   N48  Dn4
 BYTE   N48  Gn4
 BYTE   W48
//  #02 //038   ----------------------------------------
Label_016B0B90:
 BYTE   N48  Fs3  v127
 BYTE   N48  Cn4
 BYTE   N48  Fn4
 BYTE   N48  As4
 BYTE   W48
 BYTE   En3
 BYTE   N48  As3
 BYTE   N48  Ds4
 BYTE   N48  Gs4
 BYTE   W48
 BYTE   PEND 
//  #02 //039   ----------------------------------------
 BYTE   Fs3
 BYTE   N48  Cn4
 BYTE   N48  Fn4
 BYTE   N48  As4
 BYTE   W48
 BYTE   Dn3
 BYTE   N48  Gs3
 BYTE   N48  Cs4
 BYTE   N48  Fs4
 BYTE   W48
//  #02 //040   ----------------------------------------
 BYTE   PATT
  POIN2 Label_016B0B90
//  #02 //041   ----------------------------------------
 BYTE   N48  Fs3  v127
 BYTE   N48  Cn4
 BYTE   N48  Fn4
 BYTE   N48  As4
 BYTE   W48
 BYTE   Ds3
 BYTE   N48  An3
 BYTE   N48  Dn4
 BYTE   N48  Gn4
 BYTE   W48
//  #02 //042   ----------------------------------------
 BYTE   GoTo
  POIN2 Label_016B095E
 BYTE   FINE

//**************** Track 3 (Midi-Chn.2) ****************//

UpperSteamCave_Song_003:
//  #03 //000   ----------------------------------------
 BYTE   KEYSH   UpperSteamCave_Song_key+0
Label_0169FE06:
 BYTE   VOICE   100
 BYTE   MODT 0
 BYTE   LFOS 44
 BYTE   VOL   36*UpperSteamCave_Song_mvl/mxv
 BYTE   PAN   c_v+0
 BYTE   VOL   36*UpperSteamCave_Song_mvl/mxv
 BYTE   BEND   c_v+0
 BYTE   W96
//  #03 //001   ----------------------------------------
 BYTE   W96
//  #03 //002   ----------------------------------------
Label_0169FE16:
 BYTE   W12
 BYTE   N12  Dn4  v127
 BYTE   W12
 BYTE   Gn4
 BYTE   W12
 BYTE   Fn4
 BYTE   W12
 BYTE   En4
 BYTE   W12
 BYTE   TIE  Cn5
 BYTE   W36
 BYTE   PEND 
//  #03 //003   ----------------------------------------
 BYTE   W84
 BYTE   EOT
 BYTE   N12  As4
 BYTE   W12
//  #03 //004   ----------------------------------------
 BYTE   An4
 BYTE   W12
 BYTE   TIE  Dn4
 BYTE   W84
//  #03 //005   ----------------------------------------
 BYTE   W72
 BYTE   EOT
 BYTE   W24
//  #03 //006   ----------------------------------------
 BYTE   W96
//  #03 //007   ----------------------------------------
 BYTE   W96
//  #03 //008   ----------------------------------------
 BYTE   PATT
  POIN2 Label_0169FE16
//  #03 //009   ----------------------------------------
 BYTE   W84
 BYTE   EOT
 BYTE   Cn5
 BYTE   N12  As4  v127
 BYTE   W12
//  #03 //010   ----------------------------------------
 BYTE   An4
 BYTE   W12
 BYTE   En5
 BYTE   W12
 BYTE   Cn5
 BYTE   W12
 BYTE   TIE  Gn4
 BYTE   W60
//  #03 //011   ----------------------------------------
 BYTE   W96
//  #03 //012   ----------------------------------------
 BYTE   EOT
 BYTE   W96
//  #03 //013   ----------------------------------------
 BYTE   W96
//  #03 //014   ----------------------------------------
 BYTE   W96
//  #03 //015   ----------------------------------------
 BYTE   W96
//  #03 //016   ----------------------------------------
 BYTE   W96
//  #03 //017   ----------------------------------------
 BYTE   W96
//  #03 //018   ----------------------------------------
 BYTE   W96
//  #03 //019   ----------------------------------------
 BYTE   W96
//  #03 //020   ----------------------------------------
 BYTE   W96
//  #03 //021   ----------------------------------------
 BYTE   W96
//  #03 //022   ----------------------------------------
 BYTE   W96
//  #03 //023   ----------------------------------------
 BYTE   W96
//  #03 //024   ----------------------------------------
 BYTE   W96
//  #03 //025   ----------------------------------------
 BYTE   W96
//  #03 //026   ----------------------------------------
 BYTE   W96
//  #03 //027   ----------------------------------------
 BYTE   W96
//  #03 //028   ----------------------------------------
 BYTE   W96
//  #03 //029   ----------------------------------------
 BYTE   W96
//  #03 //030   ----------------------------------------
 BYTE   W96
//  #03 //031   ----------------------------------------
 BYTE   W96
//  #03 //032   ----------------------------------------
 BYTE   W96
//  #03 //033   ----------------------------------------
 BYTE   W96
//  #03 //034   ----------------------------------------
 BYTE   W96
//  #03 //035   ----------------------------------------
 BYTE   W96
//  #03 //036   ----------------------------------------
 BYTE   W96
//  #03 //037   ----------------------------------------
 BYTE   W96
//  #03 //038   ----------------------------------------
 BYTE   W96
//  #03 //039   ----------------------------------------
 BYTE   W96
//  #03 //040   ----------------------------------------
 BYTE   W96
//  #03 //041   ----------------------------------------
 BYTE   W96
//  #03 //042   ----------------------------------------
 BYTE   GoTo
  POIN2 Label_0169FE06
 BYTE   FINE

//**************** Track 4 (Midi-Chn.3) ****************//

UpperSteamCave_Song_004:
//  #04 //000   ----------------------------------------
 BYTE   KEYSH   UpperSteamCave_Song_key+0
Label_016B0BD2:
 BYTE   VOICE   100
 BYTE   MODT 0
 BYTE   LFOS 44
 BYTE   PAN   c_v-35
 BYTE   VOL   17*UpperSteamCave_Song_mvl/mxv
 BYTE   BEND   c_v+0
 BYTE   W96
//  #04 //001   ----------------------------------------
 BYTE   W96
//  #04 //002   ----------------------------------------
Label_016B0BE0:
 BYTE   W24
 BYTE   N12  Dn4  v127
 BYTE   W12
 BYTE   Gn4
 BYTE   W12
 BYTE   Fn4
 BYTE   W12
 BYTE   En4
 BYTE   W12
 BYTE   TIE  Cn5
 BYTE   W24
 BYTE   PEND 
//  #04 //003   ----------------------------------------
 BYTE   W96
//  #04 //004   ----------------------------------------
 BYTE   EOT
 BYTE   N12  As4
 BYTE   W12
 BYTE   An4
 BYTE   W12
 BYTE   TIE  Dn4
 BYTE   W72
//  #04 //005   ----------------------------------------
 BYTE   W84
 BYTE   EOT
 BYTE   W12
//  #04 //006   ----------------------------------------
 BYTE   W96
//  #04 //007   ----------------------------------------
 BYTE   W96
//  #04 //008   ----------------------------------------
 BYTE   PATT
  POIN2 Label_016B0BE0
//  #04 //009   ----------------------------------------
 BYTE   W96
//  #04 //010   ----------------------------------------
 BYTE   EOT
 BYTE   Cn5
 BYTE   N12  As4  v127
 BYTE   W12
 BYTE   An4
 BYTE   W12
 BYTE   En5
 BYTE   W12
 BYTE   Cn5
 BYTE   W12
 BYTE   TIE  Gn4
 BYTE   W48
//  #04 //011   ----------------------------------------
 BYTE   W96
//  #04 //012   ----------------------------------------
 BYTE   W12
 BYTE   EOT
 BYTE   W84
//  #04 //013   ----------------------------------------
 BYTE   W96
//  #04 //014   ----------------------------------------
 BYTE   W96
//  #04 //015   ----------------------------------------
 BYTE   W96
//  #04 //016   ----------------------------------------
 BYTE   W96
//  #04 //017   ----------------------------------------
 BYTE   W96
//  #04 //018   ----------------------------------------
 BYTE   W96
//  #04 //019   ----------------------------------------
 BYTE   W96
//  #04 //020   ----------------------------------------
 BYTE   W96
//  #04 //021   ----------------------------------------
 BYTE   W96
//  #04 //022   ----------------------------------------
 BYTE   W96
//  #04 //023   ----------------------------------------
 BYTE   W96
//  #04 //024   ----------------------------------------
 BYTE   W96
//  #04 //025   ----------------------------------------
 BYTE   W96
//  #04 //026   ----------------------------------------
 BYTE   W96
//  #04 //027   ----------------------------------------
 BYTE   W96
//  #04 //028   ----------------------------------------
 BYTE   W96
//  #04 //029   ----------------------------------------
 BYTE   W96
//  #04 //030   ----------------------------------------
 BYTE   W96
//  #04 //031   ----------------------------------------
 BYTE   W96
//  #04 //032   ----------------------------------------
 BYTE   W96
//  #04 //033   ----------------------------------------
 BYTE   W96
//  #04 //034   ----------------------------------------
 BYTE   W96
//  #04 //035   ----------------------------------------
 BYTE   W96
//  #04 //036   ----------------------------------------
 BYTE   W96
//  #04 //037   ----------------------------------------
 BYTE   W96
//  #04 //038   ----------------------------------------
 BYTE   W96
//  #04 //039   ----------------------------------------
 BYTE   W96
//  #04 //040   ----------------------------------------
 BYTE   W96
//  #04 //041   ----------------------------------------
 BYTE   W96
//  #04 //042   ----------------------------------------
 BYTE   GoTo
  POIN2 Label_016B0BD2
 BYTE   FINE

//**************** Track 5 (Midi-Chn.4) ****************//

UpperSteamCave_Song_005:
//  #05 //000   ----------------------------------------
 BYTE   KEYSH   UpperSteamCave_Song_key+0
Label_016B0C3E:
 BYTE   VOICE   100
 BYTE   MODT 0
 BYTE   LFOS 44
 BYTE   PAN   c_v+37
 BYTE   VOL   6*UpperSteamCave_Song_mvl/mxv
 BYTE   BEND   c_v+0
 BYTE   W96
//  #05 //001   ----------------------------------------
 BYTE   W96
//  #05 //002   ----------------------------------------
Label_016B0C4C:
 BYTE   W36
 BYTE   N12  Dn4  v127
 BYTE   W12
 BYTE   Gn4
 BYTE   W12
 BYTE   Fn4
 BYTE   W12
 BYTE   En4
 BYTE   W12
 BYTE   TIE  Cn5
 BYTE   W12
 BYTE   PEND 
//  #05 //003   ----------------------------------------
 BYTE   W96
//  #05 //004   ----------------------------------------
 BYTE   W12
 BYTE   EOT
 BYTE   N12  As4
 BYTE   W12
 BYTE   An4
 BYTE   W12
 BYTE   TIE  Dn4
 BYTE   W60
//  #05 //005   ----------------------------------------
 BYTE   W96
//  #05 //006   ----------------------------------------
 BYTE   EOT
 BYTE   W96
//  #05 //007   ----------------------------------------
 BYTE   W96
//  #05 //008   ----------------------------------------
 BYTE   PATT
  POIN2 Label_016B0C4C
//  #05 //009   ----------------------------------------
 BYTE   W96
//  #05 //010   ----------------------------------------
 BYTE   W12
 BYTE   EOT
 BYTE   Cn5
 BYTE   N12  As4  v127
 BYTE   W12
 BYTE   An4
 BYTE   W12
 BYTE   En5
 BYTE   W12
 BYTE   Cn5
 BYTE   W12
 BYTE   TIE  Gn4
 BYTE   W36
//  #05 //011   ----------------------------------------
 BYTE   W96
//  #05 //012   ----------------------------------------
 BYTE   W24
 BYTE   EOT
 BYTE   W72
//  #05 //013   ----------------------------------------
 BYTE   W96
//  #05 //014   ----------------------------------------
 BYTE   W96
//  #05 //015   ----------------------------------------
 BYTE   W96
//  #05 //016   ----------------------------------------
 BYTE   W96
//  #05 //017   ----------------------------------------
 BYTE   W96
//  #05 //018   ----------------------------------------
 BYTE   W96
//  #05 //019   ----------------------------------------
 BYTE   W96
//  #05 //020   ----------------------------------------
 BYTE   W96
//  #05 //021   ----------------------------------------
 BYTE   W96
//  #05 //022   ----------------------------------------
 BYTE   W96
//  #05 //023   ----------------------------------------
 BYTE   W96
//  #05 //024   ----------------------------------------
 BYTE   W96
//  #05 //025   ----------------------------------------
 BYTE   W96
//  #05 //026   ----------------------------------------
 BYTE   W96
//  #05 //027   ----------------------------------------
 BYTE   W96
//  #05 //028   ----------------------------------------
 BYTE   W96
//  #05 //029   ----------------------------------------
 BYTE   W96
//  #05 //030   ----------------------------------------
 BYTE   W96
//  #05 //031   ----------------------------------------
 BYTE   W96
//  #05 //032   ----------------------------------------
 BYTE   W96
//  #05 //033   ----------------------------------------
 BYTE   W96
//  #05 //034   ----------------------------------------
 BYTE   W96
//  #05 //035   ----------------------------------------
 BYTE   W96
//  #05 //036   ----------------------------------------
 BYTE   W96
//  #05 //037   ----------------------------------------
 BYTE   W96
//  #05 //038   ----------------------------------------
 BYTE   W96
//  #05 //039   ----------------------------------------
 BYTE   W96
//  #05 //040   ----------------------------------------
 BYTE   W96
//  #05 //041   ----------------------------------------
 BYTE   W96
//  #05 //042   ----------------------------------------
 BYTE   GoTo
  POIN2 Label_016B0C3E
 BYTE   FINE

//**************** Track 6 (Midi-Chn.5) ****************//

UpperSteamCave_Song_006:
//  #06 //000   ----------------------------------------
 BYTE   KEYSH   UpperSteamCave_Song_key+0
Label_016B0CAA:
 BYTE   VOICE   1
 BYTE   MODT 0
 BYTE   LFOS 44
 BYTE   PAN   c_v-33
 BYTE   VOL   17*UpperSteamCave_Song_mvl/mxv
 BYTE   BEND   c_v+0
 BYTE   W96
//  #06 //001   ----------------------------------------
 BYTE   W96
//  #06 //002   ----------------------------------------
 BYTE   W96
//  #06 //003   ----------------------------------------
 BYTE   W96
//  #06 //004   ----------------------------------------
Label_016B0CBA:
 BYTE   W12
 BYTE   N03  Cn4  v048
 BYTE   N03  En4
 BYTE   W08
 BYTE   Dn4
 BYTE   N03  Fn4
 BYTE   W08
 BYTE   Cn4
 BYTE   N03  En4
 BYTE   W08
 BYTE   Dn4
 BYTE   N03  Fn4
 BYTE   W08
 BYTE   Cn4  v056
 BYTE   N03  En4
 BYTE   W08
 BYTE   Dn4
 BYTE   N03  Fn4
 BYTE   W08
 BYTE   Cn4  v060
 BYTE   N03  En4
 BYTE   W08
 BYTE   Dn4  v064
 BYTE   N03  Fn4
 BYTE   W08
 BYTE   Cn4  v072
 BYTE   N03  En4
 BYTE   W08
 BYTE   Dn4  v076
 BYTE   N03  Fn4
 BYTE   W08
 BYTE   Cn4  v084
 BYTE   N03  En4
 BYTE   W04
 BYTE   PEND 
//  #06 //005   ----------------------------------------
 BYTE   W04
 BYTE   Dn4  v088
 BYTE   N03  Fn4
 BYTE   W08
 BYTE   Cn4  v096
 BYTE   N03  En4
 BYTE   W06
 BYTE   Dn4  v104
 BYTE   N03  Fn4
 BYTE   W06
 BYTE   En4  v112
 BYTE   N03  Gn4
 BYTE   W06
 BYTE   Fn4  v100
 BYTE   N03  An4
 BYTE   W06
 BYTE   Gn4  v088
 BYTE   N03  As4
 BYTE   W06
 BYTE   Fn4  v084
 BYTE   N03  An4
 BYTE   W06
 BYTE   En4  v080
 BYTE   N03  Gn4
 BYTE   W06
 BYTE   Dn4  v072
 BYTE   N03  Fn4
 BYTE   W06
 BYTE   Cn4  v068
 BYTE   N03  En4
 BYTE   W08
 BYTE   As3  v064
 BYTE   N03  Dn4
 BYTE   W08
 BYTE   An3  v060
 BYTE   N03  Cn4
 BYTE   W08
 BYTE   Gn3  v056
 BYTE   N03  As3
 BYTE   W08
 BYTE   An3
 BYTE   N03  Cn4
 BYTE   W04
//  #06 //006   ----------------------------------------
 BYTE   W04
 BYTE   As3  v052
 BYTE   N03  Dn4
 BYTE   W08
 BYTE   Cn5
 BYTE   N03  En5
 BYTE   W08
 BYTE   Dn5
 BYTE   N03  Fn5
 BYTE   W08
 BYTE   Cn5
 BYTE   N03  En5
 BYTE   W08
 BYTE   Dn5
 BYTE   N03  Fn5
 BYTE   W08
 BYTE   Cn5  v056
 BYTE   N03  En5
 BYTE   W08
 BYTE   Dn5
 BYTE   N03  Fn5
 BYTE   W08
 BYTE   Cn5  v060
 BYTE   N03  En5
 BYTE   W08
 BYTE   Dn5  v064
 BYTE   N03  Fn5
 BYTE   W08
 BYTE   Cn5
 BYTE   N03  En5
 BYTE   W08
 BYTE   Dn5  v068
 BYTE   N03  Fn5
 BYTE   W08
 BYTE   Cn5  v072
 BYTE   N03  En5
 BYTE   W04
//  #06 //007   ----------------------------------------
 BYTE   W04
 BYTE   Dn5  v080
 BYTE   N03  Fn5
 BYTE   W08
 BYTE   Cn5  v084
 BYTE   N03  En5
 BYTE   W06
 BYTE   Dn5  v088
 BYTE   N03  Fn5
 BYTE   W06
 BYTE   En5  v092
 BYTE   N03  Gn5
 BYTE   W06
 BYTE   Fn5  v100
 BYTE   N03  An5
 BYTE   W06
 BYTE   Gn5
 BYTE   N03  As5
 BYTE   W06
 BYTE   Fn5  v092
 BYTE   N03  An5
 BYTE   W06
 BYTE   En5  v088
 BYTE   N03  Gn5
 BYTE   W06
 BYTE   Dn5  v084
 BYTE   N03  Fn5
 BYTE   W06
 BYTE   Cn5  v080
 BYTE   N03  En5
 BYTE   W08
 BYTE   As4  v072
 BYTE   N03  Dn5
 BYTE   W08
 BYTE   An4  v068
 BYTE   N03  Cn5
 BYTE   W08
 BYTE   Gn4  v064
 BYTE   N03  As4
 BYTE   W08
 BYTE   En4  v060
 BYTE   N03  An4
 BYTE   W04
//  #06 //008   ----------------------------------------
Label_016B0DB3:
 BYTE   W04
 BYTE   N03  Dn4  v056
 BYTE   N03  Gn4
 BYTE   W08
 BYTE   Fn4  v052
 BYTE   N03  An4
 BYTE   W84
 BYTE   PEND 
//  #06 //009   ----------------------------------------
 BYTE   W96
//  #06 //010   ----------------------------------------
 BYTE   PATT
  POIN2 Label_016B0CBA
//  #06 //011   ----------------------------------------
 BYTE   W04
 BYTE   N03  Dn4  v088
 BYTE   N03  Fn4
 BYTE   W08
 BYTE   Cn4  v096
 BYTE   N03  En4
 BYTE   W06
 BYTE   Dn4  v104
 BYTE   N03  Fn4
 BYTE   W06
 BYTE   En4  v112
 BYTE   N03  Gn4
 BYTE   W06
 BYTE   Fn4  v116
 BYTE   N03  An4
 BYTE   W06
 BYTE   Gn4  v100
 BYTE   N03  As4
 BYTE   W06
 BYTE   Fn4  v088
 BYTE   N03  An4
 BYTE   W06
 BYTE   En4  v084
 BYTE   N03  Gn4
 BYTE   W06
 BYTE   Dn4  v080
 BYTE   N03  Fn4
 BYTE   W06
 BYTE   Cn4  v076
 BYTE   N03  En4
 BYTE   W08
 BYTE   As3  v068
 BYTE   N03  Dn4
 BYTE   W08
 BYTE   An3  v064
 BYTE   N03  Cn4
 BYTE   W08
 BYTE   Gn3  v060
 BYTE   N03  As3
 BYTE   W08
 BYTE   An3  v056
 BYTE   N03  Cn4
 BYTE   W04
//  #06 //012   ----------------------------------------
 BYTE   W04
 BYTE   As3
 BYTE   N03  Dn4
 BYTE   W08
 BYTE   Cn5  v052
 BYTE   N03  En5
 BYTE   W08
 BYTE   Dn5
 BYTE   N03  Fn5
 BYTE   W08
 BYTE   Cn5
 BYTE   N03  En5
 BYTE   W08
 BYTE   Dn5
 BYTE   N03  Fn5
 BYTE   W08
 BYTE   Cn5  v056
 BYTE   N03  En5
 BYTE   W08
 BYTE   Dn5
 BYTE   N03  Fn5
 BYTE   W08
 BYTE   Cn5  v060
 BYTE   N03  En5
 BYTE   W08
 BYTE   Dn5  v064
 BYTE   N03  Fn5
 BYTE   W08
 BYTE   Cn5
 BYTE   N03  En5
 BYTE   W08
 BYTE   Dn5  v068
 BYTE   N03  Fn5
 BYTE   W08
 BYTE   Cn5  v076
 BYTE   N03  En5
 BYTE   W04
//  #06 //013   ----------------------------------------
 BYTE   W04
 BYTE   Dn5  v080
 BYTE   N03  Fn5
 BYTE   W08
 BYTE   Cn5  v084
 BYTE   N03  En5
 BYTE   W06
 BYTE   Dn5  v092
 BYTE   N03  Fn5
 BYTE   W06
 BYTE   En5  v096
 BYTE   N03  Gn5
 BYTE   W06
 BYTE   Fn5  v100
 BYTE   N03  An5
 BYTE   W06
 BYTE   Gn5  v108
 BYTE   N03  As5
 BYTE   W06
 BYTE   Fn5  v092
 BYTE   N03  An5
 BYTE   W06
 BYTE   En5  v088
 BYTE   N03  Gn5
 BYTE   W06
 BYTE   Dn5  v084
 BYTE   N03  Fn5
 BYTE   W06
 BYTE   Cn5  v080
 BYTE   N03  En5
 BYTE   W08
 BYTE   As4  v072
 BYTE   N03  Dn5
 BYTE   W08
 BYTE   An4  v068
 BYTE   N03  Cn5
 BYTE   W08
 BYTE   Gn4  v064
 BYTE   N03  As4
 BYTE   W08
 BYTE   En4  v060
 BYTE   N03  An4
 BYTE   W04
//  #06 //014   ----------------------------------------
 BYTE   PATT
  POIN2 Label_016B0DB3
//  #06 //015   ----------------------------------------
 BYTE   W96
//  #06 //016   ----------------------------------------
 BYTE   W96
//  #06 //017   ----------------------------------------
 BYTE   W96
//  #06 //018   ----------------------------------------
 BYTE   W96
//  #06 //019   ----------------------------------------
 BYTE   W96
//  #06 //020   ----------------------------------------
 BYTE   W96
//  #06 //021   ----------------------------------------
 BYTE   W96
//  #06 //022   ----------------------------------------
 BYTE   W96
//  #06 //023   ----------------------------------------
 BYTE   W96
//  #06 //024   ----------------------------------------
 BYTE   W12
 BYTE   N03  En4  v056
 BYTE   N03  An4
 BYTE   W08
 BYTE   Bn3
 BYTE   N03  En4
 BYTE   W08
 BYTE   Cn4
 BYTE   N03  Fn4
 BYTE   W08
 BYTE   En4
 BYTE   N03  An4
 BYTE   W08
 BYTE   Bn3  v060
 BYTE   N03  En4
 BYTE   W08
 BYTE   Cn4  v064
 BYTE   N03  Fn4
 BYTE   W08
 BYTE   En4  v068
 BYTE   N03  An4
 BYTE   W08
 BYTE   Bn3  v072
 BYTE   N03  En4
 BYTE   W08
 BYTE   Cn4  v080
 BYTE   N03  Fn4
 BYTE   W08
 BYTE   En4  v084
 BYTE   N03  An4
 BYTE   W08
 BYTE   Bn3  v092
 BYTE   N03  En4
 BYTE   W04
//  #06 //025   ----------------------------------------
 BYTE   W04
 BYTE   Cn4  v104
 BYTE   N03  Fn4
 BYTE   W08
 BYTE   En4  v108
 BYTE   N03  An4
 BYTE   W08
 BYTE   Bn3  v096
 BYTE   N03  En4
 BYTE   W08
 BYTE   Cn4  v088
 BYTE   N03  Fn4
 BYTE   W08
 BYTE   En4  v076
 BYTE   N03  An4
 BYTE   W08
 BYTE   Bn3  v068
 BYTE   N03  En4
 BYTE   W08
 BYTE   Cn4  v060
 BYTE   N03  Fn4
 BYTE   W08
 BYTE   Gn4  v056
 BYTE   N03  Cn5
 BYTE   W08
 BYTE   Cn4  v052
 BYTE   N03  Fn4
 BYTE   W08
 BYTE   Dn4  v048
 BYTE   N03  Gn4
 BYTE   W08
 BYTE   Gn4  v044
 BYTE   N03  Cn5
 BYTE   W08
 BYTE   Cn4
 BYTE   N03  Fn4
 BYTE   W04
//  #06 //026   ----------------------------------------
 BYTE   W04
 BYTE   Dn4
 BYTE   N03  Gn4
 BYTE   W92
//  #06 //027   ----------------------------------------
 BYTE   W96
//  #06 //028   ----------------------------------------
 BYTE   W96
//  #06 //029   ----------------------------------------
 BYTE   W96
//  #06 //030   ----------------------------------------
 BYTE   W96
//  #06 //031   ----------------------------------------
 BYTE   W96
//  #06 //032   ----------------------------------------
 BYTE   W96
//  #06 //033   ----------------------------------------
 BYTE   W96
//  #06 //034   ----------------------------------------
 BYTE   W23
 BYTE   N44  An2  v116
 BYTE   W04
 BYTE   En3  v120
 BYTE   W03
 BYTE   An3  v124
 BYTE   W01
 BYTE   Ds4
 BYTE   W03
 BYTE   Gs4  v127
 BYTE   W03
 BYTE   Cs5
 BYTE   W56
 BYTE   W03
//  #06 //035   ----------------------------------------
 BYTE   W24
 BYTE   An5  v116
 BYTE   W03
 BYTE   En5  v120
 BYTE   W03
 BYTE   An4  v124
 BYTE   W02
 BYTE   Ds4
 BYTE   W03
 BYTE   Gs3  v127
 BYTE   W03
 BYTE   Cs3
 BYTE   W56
 BYTE   W02
//  #06 //036   ----------------------------------------
Label_016B0F3D:
 BYTE   W24
 BYTE   N44  An2  v116
 BYTE   W03
 BYTE   En3  v120
 BYTE   W03
 BYTE   An3  v124
 BYTE   W02
 BYTE   Ds4
 BYTE   W03
 BYTE   Gs4  v127
 BYTE   W03
 BYTE   Cs5
 BYTE   W56
 BYTE   W02
 BYTE   PEND 
//  #06 //037   ----------------------------------------
Label_016B0F51:
 BYTE   W24
 BYTE   N44  An5  v116
 BYTE   W04
 BYTE   En5  v120
 BYTE   W03
 BYTE   An4  v124
 BYTE   W02
 BYTE   Ds4
 BYTE   W02
 BYTE   Gs3  v127
 BYTE   W03
 BYTE   Cs3
 BYTE   W56
 BYTE   W02
 BYTE   PEND 
//  #06 //038   ----------------------------------------
 BYTE   W24
 BYTE   Fs2  v116
 BYTE   W03
 BYTE   Cs3  v120
 BYTE   W03
 BYTE   Fs3  v124
 BYTE   W02
 BYTE   Cn4
 BYTE   W03
 BYTE   Fn4  v127
 BYTE   W03
 BYTE   As4
 BYTE   W56
 BYTE   W02
//  #06 //039   ----------------------------------------
 BYTE   W24
 BYTE   Fs5  v116
 BYTE   W04
 BYTE   Cs5  v120
 BYTE   W03
 BYTE   Fs4  v124
 BYTE   W02
 BYTE   Cn4
 BYTE   W02
 BYTE   Fn3  v127
 BYTE   W03
 BYTE   As2
 BYTE   W56
 BYTE   W02
//  #06 //040   ----------------------------------------
 BYTE   PATT
  POIN2 Label_016B0F3D
//  #06 //041   ----------------------------------------
 BYTE   PATT
  POIN2 Label_016B0F51
//  #06 //042   ----------------------------------------
 BYTE   GoTo
  POIN2 Label_016B0CAA
 BYTE   FINE

//**************** Track 7 (Midi-Chn.6) ****************//

UpperSteamCave_Song_007:
//  #07 //000   ----------------------------------------
 BYTE   KEYSH   UpperSteamCave_Song_key+0
Label_016B0F9E:
 BYTE   VOICE   49
 BYTE   MODT 0
 BYTE   LFOS 44
 BYTE   VOL   53*UpperSteamCave_Song_mvl/mxv
 BYTE   PAN   c_v+0
 BYTE   VOL   28*UpperSteamCave_Song_mvl/mxv
 BYTE   BEND   c_v+0
 BYTE   TIE  Dn1  v100
 BYTE   W01
 BYTE   VOL   29*UpperSteamCave_Song_mvl/mxv
 BYTE   W15
 BYTE   VOL   29*UpperSteamCave_Song_mvl/mxv
 BYTE   W06
 BYTE   VOL   30*UpperSteamCave_Song_mvl/mxv
 BYTE   W05
 BYTE   VOL   30*UpperSteamCave_Song_mvl/mxv
 BYTE   W04
 BYTE   VOL   31*UpperSteamCave_Song_mvl/mxv
 BYTE   W03
 BYTE   VOL   32*UpperSteamCave_Song_mvl/mxv
 BYTE   W03
 BYTE   VOL   32*UpperSteamCave_Song_mvl/mxv
 BYTE   W03
 BYTE   VOL   33*UpperSteamCave_Song_mvl/mxv
 BYTE   W03
 BYTE   VOL   34*UpperSteamCave_Song_mvl/mxv
 BYTE   W03
 BYTE   VOL   34*UpperSteamCave_Song_mvl/mxv
 BYTE   W03
 BYTE   VOL   34*UpperSteamCave_Song_mvl/mxv
 BYTE   W03
 BYTE   VOL   35*UpperSteamCave_Song_mvl/mxv
 BYTE   W02
 BYTE   VOL   36*UpperSteamCave_Song_mvl/mxv
 BYTE   W01
 BYTE   VOL   37*UpperSteamCave_Song_mvl/mxv
 BYTE   W03
 BYTE   VOL   37*UpperSteamCave_Song_mvl/mxv
 BYTE   W02
 BYTE   VOL   37*UpperSteamCave_Song_mvl/mxv
 BYTE   W01
 BYTE   VOL   38*UpperSteamCave_Song_mvl/mxv
 BYTE   W03
 BYTE   VOL   39*UpperSteamCave_Song_mvl/mxv
 BYTE   W02
 BYTE   VOL   40*UpperSteamCave_Song_mvl/mxv
 BYTE   W01
 BYTE   VOL   40*UpperSteamCave_Song_mvl/mxv
 BYTE   W02
 BYTE   VOL   40*UpperSteamCave_Song_mvl/mxv
 BYTE   W01
 BYTE   VOL   41*UpperSteamCave_Song_mvl/mxv
 BYTE   W02
 BYTE   VOL   42*UpperSteamCave_Song_mvl/mxv
 BYTE   W01
 BYTE   VOL   43*UpperSteamCave_Song_mvl/mxv
 BYTE   W03
 BYTE   VOL   43*UpperSteamCave_Song_mvl/mxv
 BYTE   W02
 BYTE   VOL   44*UpperSteamCave_Song_mvl/mxv
 BYTE   W01
 BYTE   VOL   45*UpperSteamCave_Song_mvl/mxv
 BYTE   W02
 BYTE   VOL   45*UpperSteamCave_Song_mvl/mxv
 BYTE   W01
 BYTE   VOL   46*UpperSteamCave_Song_mvl/mxv
 BYTE   W02
 BYTE   VOL   47*UpperSteamCave_Song_mvl/mxv
 BYTE   W01
 BYTE   VOL   48*UpperSteamCave_Song_mvl/mxv
 BYTE   W02
 BYTE   VOL   49*UpperSteamCave_Song_mvl/mxv
 BYTE   W01
 BYTE   VOL   50*UpperSteamCave_Song_mvl/mxv
 BYTE   W02
 BYTE   VOL   50*UpperSteamCave_Song_mvl/mxv
 BYTE   W01
 BYTE   VOL   51*UpperSteamCave_Song_mvl/mxv
 BYTE   W02
 BYTE   VOL   52*UpperSteamCave_Song_mvl/mxv
 BYTE   W01
 BYTE   VOL   53*UpperSteamCave_Song_mvl/mxv
 BYTE   W02
//  #07 //001   ----------------------------------------
 BYTE   VOL   52*UpperSteamCave_Song_mvl/mxv
 BYTE   W16
 BYTE   VOL   51*UpperSteamCave_Song_mvl/mxv
 BYTE   W06
 BYTE   VOL   51*UpperSteamCave_Song_mvl/mxv
 BYTE   W05
 BYTE   VOL   50*UpperSteamCave_Song_mvl/mxv
 BYTE   W04
 BYTE   VOL   50*UpperSteamCave_Song_mvl/mxv
 BYTE   W03
 BYTE   VOL   49*UpperSteamCave_Song_mvl/mxv
 BYTE   W05
 BYTE   VOL   48*UpperSteamCave_Song_mvl/mxv
 BYTE   W03
 BYTE   VOL   47*UpperSteamCave_Song_mvl/mxv
 BYTE   W01
 BYTE   VOL   46*UpperSteamCave_Song_mvl/mxv
 BYTE   W03
 BYTE   VOL   46*UpperSteamCave_Song_mvl/mxv
 BYTE   W03
 BYTE   VOL   45*UpperSteamCave_Song_mvl/mxv
 BYTE   W02
 BYTE   VOL   45*UpperSteamCave_Song_mvl/mxv
 BYTE   W03
 BYTE   VOL   44*UpperSteamCave_Song_mvl/mxv
 BYTE   W01
 BYTE   VOL   43*UpperSteamCave_Song_mvl/mxv
 BYTE   W03
 BYTE   VOL   43*UpperSteamCave_Song_mvl/mxv
 BYTE   W03
 BYTE   VOL   42*UpperSteamCave_Song_mvl/mxv
 BYTE   W02
 BYTE   VOL   41*UpperSteamCave_Song_mvl/mxv
 BYTE   W01
 BYTE   VOL   40*UpperSteamCave_Song_mvl/mxv
 BYTE   W03
 BYTE   VOL   40*UpperSteamCave_Song_mvl/mxv
 BYTE   W02
 BYTE   VOL   40*UpperSteamCave_Song_mvl/mxv
 BYTE   W01
 BYTE   VOL   39*UpperSteamCave_Song_mvl/mxv
 BYTE   W02
 BYTE   VOL   38*UpperSteamCave_Song_mvl/mxv
 BYTE   W01
 BYTE   VOL   37*UpperSteamCave_Song_mvl/mxv
 BYTE   W02
 BYTE   VOL   37*UpperSteamCave_Song_mvl/mxv
 BYTE   W01
 BYTE   VOL   37*UpperSteamCave_Song_mvl/mxv
 BYTE   W02
 BYTE   VOL   36*UpperSteamCave_Song_mvl/mxv
 BYTE   W01
 BYTE   VOL   35*UpperSteamCave_Song_mvl/mxv
 BYTE   W02
 BYTE   VOL   34*UpperSteamCave_Song_mvl/mxv
 BYTE   W01
 BYTE   VOL   34*UpperSteamCave_Song_mvl/mxv
 BYTE   W03
 BYTE   VOL   34*UpperSteamCave_Song_mvl/mxv
 BYTE   W02
 BYTE   VOL   32*UpperSteamCave_Song_mvl/mxv
 BYTE   W01
 BYTE   VOL   32*UpperSteamCave_Song_mvl/mxv
 BYTE   W02
 BYTE   VOL   31*UpperSteamCave_Song_mvl/mxv
 BYTE   W01
 BYTE   VOL   30*UpperSteamCave_Song_mvl/mxv
 BYTE   W02
 BYTE   VOL   30*UpperSteamCave_Song_mvl/mxv
 BYTE   W01
 BYTE   VOL   29*UpperSteamCave_Song_mvl/mxv
 BYTE   W02
//  #07 //002   ----------------------------------------
 BYTE   EOT
 BYTE   VOL   28*UpperSteamCave_Song_mvl/mxv
 BYTE   TIE
 BYTE   W01
 BYTE   VOL   27*UpperSteamCave_Song_mvl/mxv
 BYTE   W11
 BYTE   VOL   28*UpperSteamCave_Song_mvl/mxv
 BYTE   W07
 BYTE   VOL   28*UpperSteamCave_Song_mvl/mxv
 BYTE   W06
 BYTE   VOL   29*UpperSteamCave_Song_mvl/mxv
 BYTE   W05
 BYTE   VOL   29*UpperSteamCave_Song_mvl/mxv
 BYTE   W03
 BYTE   VOL   30*UpperSteamCave_Song_mvl/mxv
 BYTE   W03
 BYTE   VOL   30*UpperSteamCave_Song_mvl/mxv
 BYTE   W03
 BYTE   VOL   31*UpperSteamCave_Song_mvl/mxv
 BYTE   W03
 BYTE   VOL   32*UpperSteamCave_Song_mvl/mxv
 BYTE   W03
 BYTE   VOL   32*UpperSteamCave_Song_mvl/mxv
 BYTE   W03
 BYTE   VOL   33*UpperSteamCave_Song_mvl/mxv
 BYTE   W01
 BYTE   VOL   34*UpperSteamCave_Song_mvl/mxv
 BYTE   W03
 BYTE   VOL   34*UpperSteamCave_Song_mvl/mxv
 BYTE   W03
 BYTE   VOL   34*UpperSteamCave_Song_mvl/mxv
 BYTE   W02
 BYTE   VOL   35*UpperSteamCave_Song_mvl/mxv
 BYTE   W01
 BYTE   VOL   36*UpperSteamCave_Song_mvl/mxv
 BYTE   W03
 BYTE   VOL   37*UpperSteamCave_Song_mvl/mxv
 BYTE   W02
 BYTE   VOL   37*UpperSteamCave_Song_mvl/mxv
 BYTE   W01
 BYTE   VOL   37*UpperSteamCave_Song_mvl/mxv
 BYTE   W02
 BYTE   VOL   38*UpperSteamCave_Song_mvl/mxv
 BYTE   W01
 BYTE   VOL   39*UpperSteamCave_Song_mvl/mxv
 BYTE   W02
 BYTE   VOL   40*UpperSteamCave_Song_mvl/mxv
 BYTE   W01
 BYTE   VOL   40*UpperSteamCave_Song_mvl/mxv
 BYTE   W02
 BYTE   VOL   40*UpperSteamCave_Song_mvl/mxv
 BYTE   W01
 BYTE   VOL   41*UpperSteamCave_Song_mvl/mxv
 BYTE   W02
 BYTE   VOL   42*UpperSteamCave_Song_mvl/mxv
 BYTE   W01
 BYTE   VOL   43*UpperSteamCave_Song_mvl/mxv
 BYTE   W03
 BYTE   VOL   43*UpperSteamCave_Song_mvl/mxv
 BYTE   W02
 BYTE   VOL   44*UpperSteamCave_Song_mvl/mxv
 BYTE   W01
 BYTE   VOL   45*UpperSteamCave_Song_mvl/mxv
 BYTE   W02
 BYTE   VOL   46*UpperSteamCave_Song_mvl/mxv
 BYTE   W01
 BYTE   VOL   46*UpperSteamCave_Song_mvl/mxv
 BYTE   W02
 BYTE   VOL   47*UpperSteamCave_Song_mvl/mxv
 BYTE   W01
 BYTE   VOL   48*UpperSteamCave_Song_mvl/mxv
 BYTE   W02
 BYTE   VOL   50*UpperSteamCave_Song_mvl/mxv
 BYTE   W01
 BYTE   VOL   50*UpperSteamCave_Song_mvl/mxv
 BYTE   W02
 BYTE   VOL   51*UpperSteamCave_Song_mvl/mxv
 BYTE   W01
 BYTE   VOL   51*UpperSteamCave_Song_mvl/mxv
 BYTE   W02
//  #07 //003   ----------------------------------------
 BYTE   VOL   52*UpperSteamCave_Song_mvl/mxv
 BYTE   W12
 BYTE   VOL   51*UpperSteamCave_Song_mvl/mxv
 BYTE   W07
 BYTE   VOL   51*UpperSteamCave_Song_mvl/mxv
 BYTE   W06
 BYTE   VOL   50*UpperSteamCave_Song_mvl/mxv
 BYTE   W05
 BYTE   VOL   50*UpperSteamCave_Song_mvl/mxv
 BYTE   W03
 BYTE   VOL   49*UpperSteamCave_Song_mvl/mxv
 BYTE   W04
 BYTE   VOL   48*UpperSteamCave_Song_mvl/mxv
 BYTE   W03
 BYTE   VOL   47*UpperSteamCave_Song_mvl/mxv
 BYTE   W03
 BYTE   VOL   46*UpperSteamCave_Song_mvl/mxv
 BYTE   W02
 BYTE   VOL   46*UpperSteamCave_Song_mvl/mxv
 BYTE   W03
 BYTE   VOL   45*UpperSteamCave_Song_mvl/mxv
 BYTE   W03
 BYTE   VOL   45*UpperSteamCave_Song_mvl/mxv
 BYTE   W01
 BYTE   VOL   44*UpperSteamCave_Song_mvl/mxv
 BYTE   W03
 BYTE   VOL   43*UpperSteamCave_Song_mvl/mxv
 BYTE   W02
 BYTE   VOL   43*UpperSteamCave_Song_mvl/mxv
 BYTE   W03
 BYTE   VOL   42*UpperSteamCave_Song_mvl/mxv
 BYTE   W01
 BYTE   VOL   41*UpperSteamCave_Song_mvl/mxv
 BYTE   W03
 BYTE   VOL   40*UpperSteamCave_Song_mvl/mxv
 BYTE   W02
 BYTE   VOL   40*UpperSteamCave_Song_mvl/mxv
 BYTE   W01
 BYTE   VOL   40*UpperSteamCave_Song_mvl/mxv
 BYTE   W02
 BYTE   VOL   39*UpperSteamCave_Song_mvl/mxv
 BYTE   W01
 BYTE   VOL   38*UpperSteamCave_Song_mvl/mxv
 BYTE   W03
 BYTE   VOL   37*UpperSteamCave_Song_mvl/mxv
 BYTE   W02
 BYTE   VOL   37*UpperSteamCave_Song_mvl/mxv
 BYTE   W01
 BYTE   VOL   37*UpperSteamCave_Song_mvl/mxv
 BYTE   W02
 BYTE   VOL   36*UpperSteamCave_Song_mvl/mxv
 BYTE   W01
 BYTE   VOL   35*UpperSteamCave_Song_mvl/mxv
 BYTE   W02
 BYTE   VOL   34*UpperSteamCave_Song_mvl/mxv
 BYTE   W01
 BYTE   VOL   34*UpperSteamCave_Song_mvl/mxv
 BYTE   W02
 BYTE   VOL   34*UpperSteamCave_Song_mvl/mxv
 BYTE   W01
 BYTE   VOL   33*UpperSteamCave_Song_mvl/mxv
 BYTE   W02
 BYTE   VOL   32*UpperSteamCave_Song_mvl/mxv
 BYTE   W01
 BYTE   VOL   32*UpperSteamCave_Song_mvl/mxv
 BYTE   W02
 BYTE   VOL   31*UpperSteamCave_Song_mvl/mxv
 BYTE   W01
 BYTE   VOL   30*UpperSteamCave_Song_mvl/mxv
 BYTE   W02
 BYTE   VOL   29*UpperSteamCave_Song_mvl/mxv
 BYTE   W01
 BYTE   VOL   28*UpperSteamCave_Song_mvl/mxv
 BYTE   W02
//  #07 //004   ----------------------------------------
 BYTE   EOT
 BYTE   TIE
 BYTE   W09
 BYTE   VOL   28*UpperSteamCave_Song_mvl/mxv
 BYTE   W07
 BYTE   VOL   29*UpperSteamCave_Song_mvl/mxv
 BYTE   W06
 BYTE   VOL   29*UpperSteamCave_Song_mvl/mxv
 BYTE   W05
 BYTE   VOL   30*UpperSteamCave_Song_mvl/mxv
 BYTE   W03
 BYTE   VOL   30*UpperSteamCave_Song_mvl/mxv
 BYTE   W03
 BYTE   VOL   31*UpperSteamCave_Song_mvl/mxv
 BYTE   W04
 BYTE   VOL   32*UpperSteamCave_Song_mvl/mxv
 BYTE   W02
 BYTE   VOL   32*UpperSteamCave_Song_mvl/mxv
 BYTE   W03
 BYTE   VOL   33*UpperSteamCave_Song_mvl/mxv
 BYTE   W01
 BYTE   VOL   34*UpperSteamCave_Song_mvl/mxv
 BYTE   W03
 BYTE   VOL   34*UpperSteamCave_Song_mvl/mxv
 BYTE   W03
 BYTE   VOL   34*UpperSteamCave_Song_mvl/mxv
 BYTE   W03
 BYTE   VOL   35*UpperSteamCave_Song_mvl/mxv
 BYTE   W02
 BYTE   VOL   36*UpperSteamCave_Song_mvl/mxv
 BYTE   W01
 BYTE   VOL   37*UpperSteamCave_Song_mvl/mxv
 BYTE   W02
 BYTE   VOL   37*UpperSteamCave_Song_mvl/mxv
 BYTE   W03
 BYTE   VOL   37*UpperSteamCave_Song_mvl/mxv
 BYTE   W01
 BYTE   VOL   38*UpperSteamCave_Song_mvl/mxv
 BYTE   W02
 BYTE   VOL   39*UpperSteamCave_Song_mvl/mxv
 BYTE   W01
 BYTE   VOL   40*UpperSteamCave_Song_mvl/mxv
 BYTE   W02
 BYTE   VOL   40*UpperSteamCave_Song_mvl/mxv
 BYTE   W01
 BYTE   VOL   40*UpperSteamCave_Song_mvl/mxv
 BYTE   W02
 BYTE   VOL   41*UpperSteamCave_Song_mvl/mxv
 BYTE   W03
 BYTE   VOL   43*UpperSteamCave_Song_mvl/mxv
 BYTE   W03
 BYTE   VOL   44*UpperSteamCave_Song_mvl/mxv
 BYTE   W01
 BYTE   VOL   45*UpperSteamCave_Song_mvl/mxv
 BYTE   W02
 BYTE   VOL   45*UpperSteamCave_Song_mvl/mxv
 BYTE   W01
 BYTE   VOL   46*UpperSteamCave_Song_mvl/mxv
 BYTE   W03
 BYTE   VOL   47*UpperSteamCave_Song_mvl/mxv
 BYTE   W02
 BYTE   VOL   48*UpperSteamCave_Song_mvl/mxv
 BYTE   W01
 BYTE   VOL   50*UpperSteamCave_Song_mvl/mxv
 BYTE   W02
 BYTE   VOL   50*UpperSteamCave_Song_mvl/mxv
 BYTE   W01
 BYTE   VOL   51*UpperSteamCave_Song_mvl/mxv
 BYTE   W02
 BYTE   VOL   51*UpperSteamCave_Song_mvl/mxv
 BYTE   W06
//  #07 //005   ----------------------------------------
 BYTE   VOL   53*UpperSteamCave_Song_mvl/mxv
 BYTE   W10
 BYTE   VOL   52*UpperSteamCave_Song_mvl/mxv
 BYTE   W08
 BYTE   VOL   51*UpperSteamCave_Song_mvl/mxv
 BYTE   W06
 BYTE   VOL   51*UpperSteamCave_Song_mvl/mxv
 BYTE   W03
 BYTE   VOL   50*UpperSteamCave_Song_mvl/mxv
 BYTE   W04
 BYTE   VOL   50*UpperSteamCave_Song_mvl/mxv
 BYTE   W03
 BYTE   VOL   49*UpperSteamCave_Song_mvl/mxv
 BYTE   W03
 BYTE   VOL   48*UpperSteamCave_Song_mvl/mxv
 BYTE   W03
 BYTE   VOL   47*UpperSteamCave_Song_mvl/mxv
 BYTE   W03
 BYTE   VOL   46*UpperSteamCave_Song_mvl/mxv
 BYTE   W02
 BYTE   VOL   46*UpperSteamCave_Song_mvl/mxv
 BYTE   W01
 BYTE   VOL   45*UpperSteamCave_Song_mvl/mxv
 BYTE   W03
 BYTE   VOL   45*UpperSteamCave_Song_mvl/mxv
 BYTE   W02
 BYTE   VOL   44*UpperSteamCave_Song_mvl/mxv
 BYTE   W03
 BYTE   VOL   43*UpperSteamCave_Song_mvl/mxv
 BYTE   W01
 BYTE   VOL   43*UpperSteamCave_Song_mvl/mxv
 BYTE   W03
 BYTE   VOL   42*UpperSteamCave_Song_mvl/mxv
 BYTE   W02
 BYTE   VOL   41*UpperSteamCave_Song_mvl/mxv
 BYTE   W01
 BYTE   VOL   40*UpperSteamCave_Song_mvl/mxv
 BYTE   W02
 BYTE   VOL   40*UpperSteamCave_Song_mvl/mxv
 BYTE   W03
 BYTE   VOL   39*UpperSteamCave_Song_mvl/mxv
 BYTE   W01
 BYTE   VOL   38*UpperSteamCave_Song_mvl/mxv
 BYTE   W02
 BYTE   VOL   37*UpperSteamCave_Song_mvl/mxv
 BYTE   W01
 BYTE   VOL   37*UpperSteamCave_Song_mvl/mxv
 BYTE   W02
 BYTE   VOL   37*UpperSteamCave_Song_mvl/mxv
 BYTE   W01
 BYTE   VOL   36*UpperSteamCave_Song_mvl/mxv
 BYTE   W03
 BYTE   VOL   34*UpperSteamCave_Song_mvl/mxv
 BYTE   W02
 BYTE   VOL   34*UpperSteamCave_Song_mvl/mxv
 BYTE   W01
 BYTE   VOL   34*UpperSteamCave_Song_mvl/mxv
 BYTE   W02
 BYTE   VOL   33*UpperSteamCave_Song_mvl/mxv
 BYTE   W01
 BYTE   VOL   32*UpperSteamCave_Song_mvl/mxv
 BYTE   W02
 BYTE   VOL   31*UpperSteamCave_Song_mvl/mxv
 BYTE   W01
 BYTE   VOL   28*UpperSteamCave_Song_mvl/mxv
 BYTE   W11
//  #07 //006   ----------------------------------------
 BYTE   EOT
 BYTE   TIE
 BYTE   W03
 BYTE   VOL   29*UpperSteamCave_Song_mvl/mxv
 BYTE   W07
 BYTE   VOL   29*UpperSteamCave_Song_mvl/mxv
 BYTE   W06
 BYTE   VOL   30*UpperSteamCave_Song_mvl/mxv
 BYTE   W06
 BYTE   VOL   30*UpperSteamCave_Song_mvl/mxv
 BYTE   W05
 BYTE   VOL   31*UpperSteamCave_Song_mvl/mxv
 BYTE   W03
 BYTE   VOL   32*UpperSteamCave_Song_mvl/mxv
 BYTE   W04
 BYTE   VOL   32*UpperSteamCave_Song_mvl/mxv
 BYTE   W03
 BYTE   VOL   33*UpperSteamCave_Song_mvl/mxv
 BYTE   W03
 BYTE   VOL   34*UpperSteamCave_Song_mvl/mxv
 BYTE   W03
 BYTE   VOL   34*UpperSteamCave_Song_mvl/mxv
 BYTE   W05
 BYTE   VOL   34*UpperSteamCave_Song_mvl/mxv
 BYTE   W01
 BYTE   VOL   35*UpperSteamCave_Song_mvl/mxv
 BYTE   W03
 BYTE   VOL   36*UpperSteamCave_Song_mvl/mxv
 BYTE   W02
 BYTE   VOL   37*UpperSteamCave_Song_mvl/mxv
 BYTE   W03
 BYTE   VOL   37*UpperSteamCave_Song_mvl/mxv
 BYTE   W03
 BYTE   VOL   38*UpperSteamCave_Song_mvl/mxv
 BYTE   W03
 BYTE   VOL   39*UpperSteamCave_Song_mvl/mxv
 BYTE   W01
 BYTE   VOL   40*UpperSteamCave_Song_mvl/mxv
 BYTE   W02
 BYTE   VOL   40*UpperSteamCave_Song_mvl/mxv
 BYTE   W04
 BYTE   VOL   41*UpperSteamCave_Song_mvl/mxv
 BYTE   W02
 BYTE   VOL   42*UpperSteamCave_Song_mvl/mxv
 BYTE   W01
 BYTE   VOL   43*UpperSteamCave_Song_mvl/mxv
 BYTE   W03
 BYTE   VOL   43*UpperSteamCave_Song_mvl/mxv
 BYTE   W02
 BYTE   VOL   44*UpperSteamCave_Song_mvl/mxv
 BYTE   W01
 BYTE   VOL   45*UpperSteamCave_Song_mvl/mxv
 BYTE   W03
 BYTE   VOL   46*UpperSteamCave_Song_mvl/mxv
 BYTE   W02
 BYTE   VOL   46*UpperSteamCave_Song_mvl/mxv
 BYTE   W01
 BYTE   VOL   47*UpperSteamCave_Song_mvl/mxv
 BYTE   W02
 BYTE   VOL   48*UpperSteamCave_Song_mvl/mxv
 BYTE   W01
 BYTE   VOL   49*UpperSteamCave_Song_mvl/mxv
 BYTE   W02
 BYTE   VOL   50*UpperSteamCave_Song_mvl/mxv
 BYTE   W03
 BYTE   VOL   51*UpperSteamCave_Song_mvl/mxv
 BYTE   W01
 BYTE   VOL   51*UpperSteamCave_Song_mvl/mxv
 BYTE   W02
//  #07 //007   ----------------------------------------
 BYTE   VOL   53*UpperSteamCave_Song_mvl/mxv
 BYTE   W10
 BYTE   VOL   52*UpperSteamCave_Song_mvl/mxv
 BYTE   W09
 BYTE   VOL   51*UpperSteamCave_Song_mvl/mxv
 BYTE   W05
 BYTE   VOL   51*UpperSteamCave_Song_mvl/mxv
 BYTE   W04
 BYTE   VOL   50*UpperSteamCave_Song_mvl/mxv
 BYTE   W03
 BYTE   VOL   50*UpperSteamCave_Song_mvl/mxv
 BYTE   W03
 BYTE   VOL   49*UpperSteamCave_Song_mvl/mxv
 BYTE   W03
 BYTE   VOL   48*UpperSteamCave_Song_mvl/mxv
 BYTE   W05
 BYTE   VOL   47*UpperSteamCave_Song_mvl/mxv
 BYTE   W01
 BYTE   VOL   46*UpperSteamCave_Song_mvl/mxv
 BYTE   W03
 BYTE   VOL   46*UpperSteamCave_Song_mvl/mxv
 BYTE   W02
 BYTE   VOL   45*UpperSteamCave_Song_mvl/mxv
 BYTE   W03
 BYTE   VOL   45*UpperSteamCave_Song_mvl/mxv
 BYTE   W03
 BYTE   VOL   43*UpperSteamCave_Song_mvl/mxv
 BYTE   W03
 BYTE   VOL   43*UpperSteamCave_Song_mvl/mxv
 BYTE   W03
 BYTE   VOL   42*UpperSteamCave_Song_mvl/mxv
 BYTE   W01
 BYTE   VOL   41*UpperSteamCave_Song_mvl/mxv
 BYTE   W03
 BYTE   VOL   40*UpperSteamCave_Song_mvl/mxv
 BYTE   W02
 BYTE   VOL   40*UpperSteamCave_Song_mvl/mxv
 BYTE   W01
 BYTE   VOL   39*UpperSteamCave_Song_mvl/mxv
 BYTE   W02
 BYTE   VOL   38*UpperSteamCave_Song_mvl/mxv
 BYTE   W01
 BYTE   VOL   37*UpperSteamCave_Song_mvl/mxv
 BYTE   W02
 BYTE   VOL   37*UpperSteamCave_Song_mvl/mxv
 BYTE   W01
 BYTE   VOL   37*UpperSteamCave_Song_mvl/mxv
 BYTE   W03
 BYTE   VOL   35*UpperSteamCave_Song_mvl/mxv
 BYTE   W02
 BYTE   VOL   34*UpperSteamCave_Song_mvl/mxv
 BYTE   W01
 BYTE   VOL   34*UpperSteamCave_Song_mvl/mxv
 BYTE   W02
 BYTE   VOL   34*UpperSteamCave_Song_mvl/mxv
 BYTE   W01
 BYTE   VOL   33*UpperSteamCave_Song_mvl/mxv
 BYTE   W02
 BYTE   VOL   32*UpperSteamCave_Song_mvl/mxv
 BYTE   W03
 BYTE   VOL   31*UpperSteamCave_Song_mvl/mxv
 BYTE   W01
 BYTE   VOL   30*UpperSteamCave_Song_mvl/mxv
 BYTE   W02
 BYTE   VOL   29*UpperSteamCave_Song_mvl/mxv
 BYTE   W01
 BYTE   VOL   29*UpperSteamCave_Song_mvl/mxv
 BYTE   W05
//  #07 //008   ----------------------------------------
 BYTE   EOT
 BYTE   TIE
 BYTE   W13
 BYTE   VOL   30*UpperSteamCave_Song_mvl/mxv
 BYTE   W06
 BYTE   VOL   30*UpperSteamCave_Song_mvl/mxv
 BYTE   W06
 BYTE   VOL   31*UpperSteamCave_Song_mvl/mxv
 BYTE   W05
 BYTE   VOL   32*UpperSteamCave_Song_mvl/mxv
 BYTE   W06
 BYTE   VOL   32*UpperSteamCave_Song_mvl/mxv
 BYTE   W01
 BYTE   VOL   33*UpperSteamCave_Song_mvl/mxv
 BYTE   W05
 BYTE   VOL   34*UpperSteamCave_Song_mvl/mxv
 BYTE   W03
 BYTE   VOL   34*UpperSteamCave_Song_mvl/mxv
 BYTE   W04
 BYTE   VOL   34*UpperSteamCave_Song_mvl/mxv
 BYTE   W03
 BYTE   VOL   35*UpperSteamCave_Song_mvl/mxv
 BYTE   W02
 BYTE   VOL   36*UpperSteamCave_Song_mvl/mxv
 BYTE   W04
 BYTE   VOL   37*UpperSteamCave_Song_mvl/mxv
 BYTE   W02
 BYTE   VOL   37*UpperSteamCave_Song_mvl/mxv
 BYTE   W01
 BYTE   VOL   37*UpperSteamCave_Song_mvl/mxv
 BYTE   W03
 BYTE   VOL   38*UpperSteamCave_Song_mvl/mxv
 BYTE   W02
 BYTE   VOL   39*UpperSteamCave_Song_mvl/mxv
 BYTE   W04
 BYTE   VOL   40*UpperSteamCave_Song_mvl/mxv
 BYTE   W02
 BYTE   VOL   40*UpperSteamCave_Song_mvl/mxv
 BYTE   W03
 BYTE   VOL   41*UpperSteamCave_Song_mvl/mxv
 BYTE   W01
 BYTE   VOL   42*UpperSteamCave_Song_mvl/mxv
 BYTE   W02
 BYTE   VOL   43*UpperSteamCave_Song_mvl/mxv
 BYTE   W03
 BYTE   VOL   43*UpperSteamCave_Song_mvl/mxv
 BYTE   W01
 BYTE   VOL   44*UpperSteamCave_Song_mvl/mxv
 BYTE   W03
 BYTE   VOL   45*UpperSteamCave_Song_mvl/mxv
 BYTE   W02
 BYTE   VOL   45*UpperSteamCave_Song_mvl/mxv
 BYTE   W01
 BYTE   VOL   46*UpperSteamCave_Song_mvl/mxv
 BYTE   W02
 BYTE   VOL   46*UpperSteamCave_Song_mvl/mxv
 BYTE   W03
 BYTE   VOL   48*UpperSteamCave_Song_mvl/mxv
 BYTE   W01
 BYTE   VOL   49*UpperSteamCave_Song_mvl/mxv
 BYTE   W02
//  #07 //009   ----------------------------------------
 BYTE   VOL   50*UpperSteamCave_Song_mvl/mxv
 BYTE   W01
 BYTE   VOL   50*UpperSteamCave_Song_mvl/mxv
 BYTE   W02
 BYTE   VOL   51*UpperSteamCave_Song_mvl/mxv
 BYTE   W01
 BYTE   VOL   53*UpperSteamCave_Song_mvl/mxv
 BYTE   W18
 BYTE   VOL   52*UpperSteamCave_Song_mvl/mxv
 BYTE   W08
 BYTE   VOL   51*UpperSteamCave_Song_mvl/mxv
 BYTE   W03
 BYTE   VOL   51*UpperSteamCave_Song_mvl/mxv
 BYTE   W03
 BYTE   VOL   50*UpperSteamCave_Song_mvl/mxv
 BYTE   W03
 BYTE   VOL   50*UpperSteamCave_Song_mvl/mxv
 BYTE   W03
 BYTE   VOL   49*UpperSteamCave_Song_mvl/mxv
 BYTE   W03
 BYTE   VOL   48*UpperSteamCave_Song_mvl/mxv
 BYTE   W03
 BYTE   VOL   47*UpperSteamCave_Song_mvl/mxv
 BYTE   W01
 BYTE   VOL   46*UpperSteamCave_Song_mvl/mxv
 BYTE   W03
 BYTE   VOL   46*UpperSteamCave_Song_mvl/mxv
 BYTE   W02
 BYTE   VOL   45*UpperSteamCave_Song_mvl/mxv
 BYTE   W03
 BYTE   VOL   45*UpperSteamCave_Song_mvl/mxv
 BYTE   W01
 BYTE   VOL   44*UpperSteamCave_Song_mvl/mxv
 BYTE   W02
 BYTE   VOL   43*UpperSteamCave_Song_mvl/mxv
 BYTE   W04
 BYTE   VOL   42*UpperSteamCave_Song_mvl/mxv
 BYTE   W03
 BYTE   VOL   41*UpperSteamCave_Song_mvl/mxv
 BYTE   W02
 BYTE   VOL   40*UpperSteamCave_Song_mvl/mxv
 BYTE   W01
 BYTE   VOL   40*UpperSteamCave_Song_mvl/mxv
 BYTE   W02
 BYTE   VOL   40*UpperSteamCave_Song_mvl/mxv
 BYTE   W03
 BYTE   VOL   38*UpperSteamCave_Song_mvl/mxv
 BYTE   W01
 BYTE   VOL   37*UpperSteamCave_Song_mvl/mxv
 BYTE   W02
 BYTE   VOL   37*UpperSteamCave_Song_mvl/mxv
 BYTE   W01
 BYTE   VOL   37*UpperSteamCave_Song_mvl/mxv
 BYTE   W02
 BYTE   VOL   36*UpperSteamCave_Song_mvl/mxv
 BYTE   W01
 BYTE   VOL   35*UpperSteamCave_Song_mvl/mxv
 BYTE   W02
 BYTE   VOL   34*UpperSteamCave_Song_mvl/mxv
 BYTE   W03
 BYTE   VOL   34*UpperSteamCave_Song_mvl/mxv
 BYTE   W01
 BYTE   VOL   33*UpperSteamCave_Song_mvl/mxv
 BYTE   W02
 BYTE   VOL   32*UpperSteamCave_Song_mvl/mxv
 BYTE   W01
 BYTE   VOL   30*UpperSteamCave_Song_mvl/mxv
 BYTE   W05
//  #07 //010   ----------------------------------------
 BYTE   EOT
 BYTE   TIE
 BYTE   W07
 BYTE   VOL   31*UpperSteamCave_Song_mvl/mxv
 BYTE   W09
 BYTE   VOL   32*UpperSteamCave_Song_mvl/mxv
 BYTE   W05
 BYTE   VOL   32*UpperSteamCave_Song_mvl/mxv
 BYTE   W04
 BYTE   VOL   33*UpperSteamCave_Song_mvl/mxv
 BYTE   W05
 BYTE   VOL   34*UpperSteamCave_Song_mvl/mxv
 BYTE   W06
 BYTE   VOL   34*UpperSteamCave_Song_mvl/mxv
 BYTE   W03
 BYTE   VOL   34*UpperSteamCave_Song_mvl/mxv
 BYTE   W03
 BYTE   VOL   35*UpperSteamCave_Song_mvl/mxv
 BYTE   W04
 BYTE   VOL   37*UpperSteamCave_Song_mvl/mxv
 BYTE   W03
 BYTE   VOL   37*UpperSteamCave_Song_mvl/mxv
 BYTE   W03
 BYTE   VOL   37*UpperSteamCave_Song_mvl/mxv
 BYTE   W02
 BYTE   VOL   38*UpperSteamCave_Song_mvl/mxv
 BYTE   W01
 BYTE   VOL   39*UpperSteamCave_Song_mvl/mxv
 BYTE   W03
 BYTE   VOL   40*UpperSteamCave_Song_mvl/mxv
 BYTE   W02
 BYTE   VOL   40*UpperSteamCave_Song_mvl/mxv
 BYTE   W03
 BYTE   VOL   40*UpperSteamCave_Song_mvl/mxv
 BYTE   W01
 BYTE   VOL   41*UpperSteamCave_Song_mvl/mxv
 BYTE   W02
 BYTE   VOL   42*UpperSteamCave_Song_mvl/mxv
 BYTE   W03
 BYTE   VOL   43*UpperSteamCave_Song_mvl/mxv
 BYTE   W01
 BYTE   VOL   43*UpperSteamCave_Song_mvl/mxv
 BYTE   W02
 BYTE   VOL   44*UpperSteamCave_Song_mvl/mxv
 BYTE   W01
 BYTE   VOL   45*UpperSteamCave_Song_mvl/mxv
 BYTE   W02
 BYTE   VOL   45*UpperSteamCave_Song_mvl/mxv
 BYTE   W01
 BYTE   VOL   46*UpperSteamCave_Song_mvl/mxv
 BYTE   W05
 BYTE   VOL   47*UpperSteamCave_Song_mvl/mxv
 BYTE   W01
 BYTE   VOL   48*UpperSteamCave_Song_mvl/mxv
 BYTE   W02
 BYTE   VOL   49*UpperSteamCave_Song_mvl/mxv
 BYTE   W01
 BYTE   VOL   50*UpperSteamCave_Song_mvl/mxv
 BYTE   W02
 BYTE   VOL   51*UpperSteamCave_Song_mvl/mxv
 BYTE   W01
 BYTE   VOL   51*UpperSteamCave_Song_mvl/mxv
 BYTE   W03
 BYTE   VOL   53*UpperSteamCave_Song_mvl/mxv
 BYTE   W05
//  #07 //011   ----------------------------------------
 BYTE   W10
 BYTE   VOL   51*UpperSteamCave_Song_mvl/mxv
 BYTE   W11
 BYTE   VOL   50*UpperSteamCave_Song_mvl/mxv
 BYTE   W09
 BYTE   VOL   50*UpperSteamCave_Song_mvl/mxv
 BYTE   W03
 BYTE   VOL   49*UpperSteamCave_Song_mvl/mxv
 BYTE   W03
 BYTE   VOL   48*UpperSteamCave_Song_mvl/mxv
 BYTE   W04
 BYTE   VOL   47*UpperSteamCave_Song_mvl/mxv
 BYTE   W03
 BYTE   VOL   46*UpperSteamCave_Song_mvl/mxv
 BYTE   W03
 BYTE   VOL   46*UpperSteamCave_Song_mvl/mxv
 BYTE   W02
 BYTE   VOL   45*UpperSteamCave_Song_mvl/mxv
 BYTE   W04
 BYTE   VOL   44*UpperSteamCave_Song_mvl/mxv
 BYTE   W03
 BYTE   VOL   43*UpperSteamCave_Song_mvl/mxv
 BYTE   W02
 BYTE   VOL   43*UpperSteamCave_Song_mvl/mxv
 BYTE   W03
 BYTE   VOL   42*UpperSteamCave_Song_mvl/mxv
 BYTE   W03
 BYTE   VOL   41*UpperSteamCave_Song_mvl/mxv
 BYTE   W01
 BYTE   VOL   40*UpperSteamCave_Song_mvl/mxv
 BYTE   W02
 BYTE   VOL   40*UpperSteamCave_Song_mvl/mxv
 BYTE   W01
 BYTE   VOL   40*UpperSteamCave_Song_mvl/mxv
 BYTE   W02
 BYTE   VOL   39*UpperSteamCave_Song_mvl/mxv
 BYTE   W01
 BYTE   VOL   38*UpperSteamCave_Song_mvl/mxv
 BYTE   W02
 BYTE   VOL   37*UpperSteamCave_Song_mvl/mxv
 BYTE   W03
 BYTE   VOL   37*UpperSteamCave_Song_mvl/mxv
 BYTE   W01
 BYTE   VOL   36*UpperSteamCave_Song_mvl/mxv
 BYTE   W02
 BYTE   VOL   35*UpperSteamCave_Song_mvl/mxv
 BYTE   W01
 BYTE   VOL   34*UpperSteamCave_Song_mvl/mxv
 BYTE   W02
 BYTE   VOL   34*UpperSteamCave_Song_mvl/mxv
 BYTE   W01
 BYTE   VOL   34*UpperSteamCave_Song_mvl/mxv
 BYTE   W03
 BYTE   VOL   32*UpperSteamCave_Song_mvl/mxv
 BYTE   W02
 BYTE   VOL   31*UpperSteamCave_Song_mvl/mxv
 BYTE   W01
 BYTE   VOL   30*UpperSteamCave_Song_mvl/mxv
 BYTE   W02
 BYTE   VOL   30*UpperSteamCave_Song_mvl/mxv
 BYTE   W01
 BYTE   VOL   29*UpperSteamCave_Song_mvl/mxv
 BYTE   W02
 BYTE   VOL   29*UpperSteamCave_Song_mvl/mxv
 BYTE   W03
//  #07 //012   ----------------------------------------
 BYTE   EOT
 BYTE   TIE
 BYTE   W12
 BYTE   VOL   29*UpperSteamCave_Song_mvl/mxv
 BYTE   W07
 BYTE   VOL   30*UpperSteamCave_Song_mvl/mxv
 BYTE   W06
 BYTE   VOL   30*UpperSteamCave_Song_mvl/mxv
 BYTE   W05
 BYTE   VOL   31*UpperSteamCave_Song_mvl/mxv
 BYTE   W04
 BYTE   VOL   32*UpperSteamCave_Song_mvl/mxv
 BYTE   W05
 BYTE   VOL   32*UpperSteamCave_Song_mvl/mxv
 BYTE   W03
 BYTE   VOL   33*UpperSteamCave_Song_mvl/mxv
 BYTE   W04
 BYTE   VOL   34*UpperSteamCave_Song_mvl/mxv
 BYTE   W02
 BYTE   VOL   34*UpperSteamCave_Song_mvl/mxv
 BYTE   W04
 BYTE   VOL   34*UpperSteamCave_Song_mvl/mxv
 BYTE   W05
 BYTE   VOL   36*UpperSteamCave_Song_mvl/mxv
 BYTE   W03
 BYTE   VOL   37*UpperSteamCave_Song_mvl/mxv
 BYTE   W03
 BYTE   VOL   37*UpperSteamCave_Song_mvl/mxv
 BYTE   W01
 BYTE   VOL   37*UpperSteamCave_Song_mvl/mxv
 BYTE   W05
 BYTE   VOL   39*UpperSteamCave_Song_mvl/mxv
 BYTE   W01
 BYTE   VOL   40*UpperSteamCave_Song_mvl/mxv
 BYTE   W03
 BYTE   VOL   40*UpperSteamCave_Song_mvl/mxv
 BYTE   W02
 BYTE   VOL   40*UpperSteamCave_Song_mvl/mxv
 BYTE   W01
 BYTE   VOL   41*UpperSteamCave_Song_mvl/mxv
 BYTE   W03
 BYTE   VOL   42*UpperSteamCave_Song_mvl/mxv
 BYTE   W02
 BYTE   VOL   43*UpperSteamCave_Song_mvl/mxv
 BYTE   W03
 BYTE   VOL   43*UpperSteamCave_Song_mvl/mxv
 BYTE   W01
 BYTE   VOL   44*UpperSteamCave_Song_mvl/mxv
 BYTE   W02
 BYTE   VOL   45*UpperSteamCave_Song_mvl/mxv
 BYTE   W01
 BYTE   VOL   45*UpperSteamCave_Song_mvl/mxv
 BYTE   W03
 BYTE   VOL   46*UpperSteamCave_Song_mvl/mxv
 BYTE   W02
 BYTE   VOL   47*UpperSteamCave_Song_mvl/mxv
 BYTE   W01
 BYTE   VOL   48*UpperSteamCave_Song_mvl/mxv
 BYTE   W02
//  #07 //013   ----------------------------------------
 BYTE   VOL   49*UpperSteamCave_Song_mvl/mxv
 BYTE   W01
 BYTE   VOL   52*UpperSteamCave_Song_mvl/mxv
 BYTE   W12
 BYTE   VOL   51*UpperSteamCave_Song_mvl/mxv
 BYTE   W08
 BYTE   VOL   51*UpperSteamCave_Song_mvl/mxv
 BYTE   W04
 BYTE   VOL   50*UpperSteamCave_Song_mvl/mxv
 BYTE   W05
 BYTE   VOL   50*UpperSteamCave_Song_mvl/mxv
 BYTE   W04
 BYTE   VOL   49*UpperSteamCave_Song_mvl/mxv
 BYTE   W03
 BYTE   VOL   48*UpperSteamCave_Song_mvl/mxv
 BYTE   W03
 BYTE   VOL   47*UpperSteamCave_Song_mvl/mxv
 BYTE   W03
 BYTE   VOL   46*UpperSteamCave_Song_mvl/mxv
 BYTE   W03
 BYTE   VOL   46*UpperSteamCave_Song_mvl/mxv
 BYTE   W02
 BYTE   VOL   45*UpperSteamCave_Song_mvl/mxv
 BYTE   W03
 BYTE   VOL   45*UpperSteamCave_Song_mvl/mxv
 BYTE   W01
 BYTE   VOL   44*UpperSteamCave_Song_mvl/mxv
 BYTE   W03
 BYTE   VOL   43*UpperSteamCave_Song_mvl/mxv
 BYTE   W02
 BYTE   VOL   43*UpperSteamCave_Song_mvl/mxv
 BYTE   W03
 BYTE   VOL   42*UpperSteamCave_Song_mvl/mxv
 BYTE   W03
 BYTE   VOL   41*UpperSteamCave_Song_mvl/mxv
 BYTE   W01
 BYTE   VOL   40*UpperSteamCave_Song_mvl/mxv
 BYTE   W02
 BYTE   VOL   40*UpperSteamCave_Song_mvl/mxv
 BYTE   W01
 BYTE   VOL   40*UpperSteamCave_Song_mvl/mxv
 BYTE   W02
 BYTE   VOL   39*UpperSteamCave_Song_mvl/mxv
 BYTE   W01
 BYTE   VOL   38*UpperSteamCave_Song_mvl/mxv
 BYTE   W03
 BYTE   VOL   37*UpperSteamCave_Song_mvl/mxv
 BYTE   W02
 BYTE   VOL   37*UpperSteamCave_Song_mvl/mxv
 BYTE   W01
 BYTE   VOL   36*UpperSteamCave_Song_mvl/mxv
 BYTE   W02
 BYTE   VOL   35*UpperSteamCave_Song_mvl/mxv
 BYTE   W01
 BYTE   VOL   34*UpperSteamCave_Song_mvl/mxv
 BYTE   W02
 BYTE   VOL   34*UpperSteamCave_Song_mvl/mxv
 BYTE   W04
 BYTE   VOL   32*UpperSteamCave_Song_mvl/mxv
 BYTE   W02
 BYTE   VOL   32*UpperSteamCave_Song_mvl/mxv
 BYTE   W01
 BYTE   VOL   31*UpperSteamCave_Song_mvl/mxv
 BYTE   W02
 BYTE   VOL   30*UpperSteamCave_Song_mvl/mxv
 BYTE   W01
 BYTE   VOL   29*UpperSteamCave_Song_mvl/mxv
 BYTE   W02
 BYTE   VOL   29*UpperSteamCave_Song_mvl/mxv
 BYTE   W03
//  #07 //014   ----------------------------------------
 BYTE   EOT
 BYTE   TIE
 BYTE   W12
 BYTE   VOL   30*UpperSteamCave_Song_mvl/mxv
 BYTE   W07
 BYTE   VOL   30*UpperSteamCave_Song_mvl/mxv
 BYTE   W05
 BYTE   VOL   31*UpperSteamCave_Song_mvl/mxv
 BYTE   W04
 BYTE   VOL   32*UpperSteamCave_Song_mvl/mxv
 BYTE   W06
 BYTE   VOL   32*UpperSteamCave_Song_mvl/mxv
 BYTE   W02
 BYTE   VOL   33*UpperSteamCave_Song_mvl/mxv
 BYTE   W03
 BYTE   VOL   34*UpperSteamCave_Song_mvl/mxv
 BYTE   W03
 BYTE   VOL   34*UpperSteamCave_Song_mvl/mxv
 BYTE   W04
 BYTE   VOL   34*UpperSteamCave_Song_mvl/mxv
 BYTE   W03
 BYTE   VOL   35*UpperSteamCave_Song_mvl/mxv
 BYTE   W02
 BYTE   VOL   36*UpperSteamCave_Song_mvl/mxv
 BYTE   W04
 BYTE   VOL   37*UpperSteamCave_Song_mvl/mxv
 BYTE   W03
 BYTE   VOL   37*UpperSteamCave_Song_mvl/mxv
 BYTE   W02
 BYTE   VOL   38*UpperSteamCave_Song_mvl/mxv
 BYTE   W01
 BYTE   VOL   39*UpperSteamCave_Song_mvl/mxv
 BYTE   W03
 BYTE   VOL   40*UpperSteamCave_Song_mvl/mxv
 BYTE   W03
 BYTE   VOL   40*UpperSteamCave_Song_mvl/mxv
 BYTE   W02
 BYTE   VOL   41*UpperSteamCave_Song_mvl/mxv
 BYTE   W03
 BYTE   VOL   42*UpperSteamCave_Song_mvl/mxv
 BYTE   W01
 BYTE   VOL   43*UpperSteamCave_Song_mvl/mxv
 BYTE   W05
 BYTE   VOL   44*UpperSteamCave_Song_mvl/mxv
 BYTE   W01
 BYTE   VOL   45*UpperSteamCave_Song_mvl/mxv
 BYTE   W02
 BYTE   VOL   45*UpperSteamCave_Song_mvl/mxv
 BYTE   W01
 BYTE   VOL   46*UpperSteamCave_Song_mvl/mxv
 BYTE   W02
 BYTE   VOL   46*UpperSteamCave_Song_mvl/mxv
 BYTE   W01
 BYTE   VOL   47*UpperSteamCave_Song_mvl/mxv
 BYTE   W02
 BYTE   VOL   48*UpperSteamCave_Song_mvl/mxv
 BYTE   W03
 BYTE   VOL   50*UpperSteamCave_Song_mvl/mxv
 BYTE   W01
 BYTE   VOL   50*UpperSteamCave_Song_mvl/mxv
 BYTE   W02
 BYTE   VOL   51*UpperSteamCave_Song_mvl/mxv
 BYTE   W01
 BYTE   VOL   52*UpperSteamCave_Song_mvl/mxv
 BYTE   W02
//  #07 //015   ----------------------------------------
 BYTE   W13
 BYTE   VOL   51*UpperSteamCave_Song_mvl/mxv
 BYTE   W08
 BYTE   VOL   51*UpperSteamCave_Song_mvl/mxv
 BYTE   W06
 BYTE   VOL   50*UpperSteamCave_Song_mvl/mxv
 BYTE   W01
 BYTE   VOL   50*UpperSteamCave_Song_mvl/mxv
 BYTE   W05
 BYTE   VOL   49*UpperSteamCave_Song_mvl/mxv
 BYTE   W03
 BYTE   VOL   48*UpperSteamCave_Song_mvl/mxv
 BYTE   W03
 BYTE   VOL   47*UpperSteamCave_Song_mvl/mxv
 BYTE   W03
 BYTE   VOL   46*UpperSteamCave_Song_mvl/mxv
 BYTE   W01
 BYTE   VOL   46*UpperSteamCave_Song_mvl/mxv
 BYTE   W03
 BYTE   VOL   45*UpperSteamCave_Song_mvl/mxv
 BYTE   W03
 BYTE   VOL   45*UpperSteamCave_Song_mvl/mxv
 BYTE   W02
 BYTE   VOL   44*UpperSteamCave_Song_mvl/mxv
 BYTE   W01
 BYTE   VOL   43*UpperSteamCave_Song_mvl/mxv
 BYTE   W03
 BYTE   VOL   43*UpperSteamCave_Song_mvl/mxv
 BYTE   W03
 BYTE   VOL   42*UpperSteamCave_Song_mvl/mxv
 BYTE   W03
 BYTE   VOL   40*UpperSteamCave_Song_mvl/mxv
 BYTE   W02
 BYTE   VOL   40*UpperSteamCave_Song_mvl/mxv
 BYTE   W01
 BYTE   VOL   40*UpperSteamCave_Song_mvl/mxv
 BYTE   W03
 BYTE   VOL   39*UpperSteamCave_Song_mvl/mxv
 BYTE   W02
 BYTE   VOL   38*UpperSteamCave_Song_mvl/mxv
 BYTE   W03
 BYTE   VOL   37*UpperSteamCave_Song_mvl/mxv
 BYTE   W01
 BYTE   VOL   37*UpperSteamCave_Song_mvl/mxv
 BYTE   W02
 BYTE   VOL   36*UpperSteamCave_Song_mvl/mxv
 BYTE   W01
 BYTE   VOL   35*UpperSteamCave_Song_mvl/mxv
 BYTE   W02
 BYTE   VOL   34*UpperSteamCave_Song_mvl/mxv
 BYTE   W01
 BYTE   VOL   34*UpperSteamCave_Song_mvl/mxv
 BYTE   W02
 BYTE   VOL   34*UpperSteamCave_Song_mvl/mxv
 BYTE   W03
 BYTE   VOL   31*UpperSteamCave_Song_mvl/mxv
 BYTE   W01
 BYTE   VOL   32*UpperSteamCave_Song_mvl/mxv
 BYTE   W11
//  #07 //016   ----------------------------------------
 BYTE   EOT
 BYTE   TIE  Ds1
 BYTE   W07
 BYTE   VOL   32*UpperSteamCave_Song_mvl/mxv
 BYTE   W08
 BYTE   VOL   33*UpperSteamCave_Song_mvl/mxv
 BYTE   W06
 BYTE   VOL   34*UpperSteamCave_Song_mvl/mxv
 BYTE   W04
 BYTE   VOL   34*UpperSteamCave_Song_mvl/mxv
 BYTE   W08
 BYTE   VOL   34*UpperSteamCave_Song_mvl/mxv
 BYTE   W03
 BYTE   VOL   35*UpperSteamCave_Song_mvl/mxv
 BYTE   W03
 BYTE   VOL   36*UpperSteamCave_Song_mvl/mxv
 BYTE   W04
 BYTE   VOL   37*UpperSteamCave_Song_mvl/mxv
 BYTE   W02
 BYTE   VOL   37*UpperSteamCave_Song_mvl/mxv
 BYTE   W03
 BYTE   VOL   37*UpperSteamCave_Song_mvl/mxv
 BYTE   W03
 BYTE   VOL   38*UpperSteamCave_Song_mvl/mxv
 BYTE   W04
 BYTE   VOL   39*UpperSteamCave_Song_mvl/mxv
 BYTE   W02
 BYTE   VOL   40*UpperSteamCave_Song_mvl/mxv
 BYTE   W01
 BYTE   VOL   40*UpperSteamCave_Song_mvl/mxv
 BYTE   W03
 BYTE   VOL   40*UpperSteamCave_Song_mvl/mxv
 BYTE   W02
 BYTE   VOL   41*UpperSteamCave_Song_mvl/mxv
 BYTE   W03
 BYTE   VOL   42*UpperSteamCave_Song_mvl/mxv
 BYTE   W01
 BYTE   VOL   43*UpperSteamCave_Song_mvl/mxv
 BYTE   W03
 BYTE   VOL   43*UpperSteamCave_Song_mvl/mxv
 BYTE   W03
 BYTE   VOL   44*UpperSteamCave_Song_mvl/mxv
 BYTE   W02
 BYTE   VOL   45*UpperSteamCave_Song_mvl/mxv
 BYTE   W03
 BYTE   VOL   45*UpperSteamCave_Song_mvl/mxv
 BYTE   W01
 BYTE   VOL   46*UpperSteamCave_Song_mvl/mxv
 BYTE   W02
 BYTE   VOL   46*UpperSteamCave_Song_mvl/mxv
 BYTE   W01
 BYTE   VOL   47*UpperSteamCave_Song_mvl/mxv
 BYTE   W02
 BYTE   VOL   48*UpperSteamCave_Song_mvl/mxv
 BYTE   W01
 BYTE   VOL   49*UpperSteamCave_Song_mvl/mxv
 BYTE   W03
 BYTE   VOL   50*UpperSteamCave_Song_mvl/mxv
 BYTE   W02
 BYTE   VOL   50*UpperSteamCave_Song_mvl/mxv
 BYTE   W01
 BYTE   VOL   51*UpperSteamCave_Song_mvl/mxv
 BYTE   W02
 BYTE   VOL   51*UpperSteamCave_Song_mvl/mxv
 BYTE   W01
 BYTE   VOL   52*UpperSteamCave_Song_mvl/mxv
 BYTE   W02
//  #07 //017   ----------------------------------------
 BYTE   W01
 BYTE   VOL   51*UpperSteamCave_Song_mvl/mxv
 BYTE   W18
 BYTE   VOL   51*UpperSteamCave_Song_mvl/mxv
 BYTE   W08
 BYTE   VOL   50*UpperSteamCave_Song_mvl/mxv
 BYTE   W06
 BYTE   VOL   50*UpperSteamCave_Song_mvl/mxv
 BYTE   W04
 BYTE   VOL   49*UpperSteamCave_Song_mvl/mxv
 BYTE   W03
 BYTE   VOL   48*UpperSteamCave_Song_mvl/mxv
 BYTE   W05
 BYTE   VOL   47*UpperSteamCave_Song_mvl/mxv
 BYTE   W04
 BYTE   VOL   46*UpperSteamCave_Song_mvl/mxv
 BYTE   W02
 BYTE   VOL   46*UpperSteamCave_Song_mvl/mxv
 BYTE   W03
 BYTE   VOL   45*UpperSteamCave_Song_mvl/mxv
 BYTE   W03
 BYTE   VOL   45*UpperSteamCave_Song_mvl/mxv
 BYTE   W03
 BYTE   VOL   44*UpperSteamCave_Song_mvl/mxv
 BYTE   W03
 BYTE   VOL   43*UpperSteamCave_Song_mvl/mxv
 BYTE   W01
 BYTE   VOL   43*UpperSteamCave_Song_mvl/mxv
 BYTE   W05
 BYTE   VOL   42*UpperSteamCave_Song_mvl/mxv
 BYTE   W03
 BYTE   VOL   41*UpperSteamCave_Song_mvl/mxv
 BYTE   W01
 BYTE   VOL   40*UpperSteamCave_Song_mvl/mxv
 BYTE   W02
 BYTE   VOL   40*UpperSteamCave_Song_mvl/mxv
 BYTE   W01
 BYTE   VOL   40*UpperSteamCave_Song_mvl/mxv
 BYTE   W03
 BYTE   VOL   39*UpperSteamCave_Song_mvl/mxv
 BYTE   W03
 BYTE   VOL   37*UpperSteamCave_Song_mvl/mxv
 BYTE   W02
 BYTE   VOL   37*UpperSteamCave_Song_mvl/mxv
 BYTE   W03
 BYTE   VOL   37*UpperSteamCave_Song_mvl/mxv
 BYTE   W01
 BYTE   VOL   36*UpperSteamCave_Song_mvl/mxv
 BYTE   W02
 BYTE   VOL   35*UpperSteamCave_Song_mvl/mxv
 BYTE   W01
 BYTE   VOL   34*UpperSteamCave_Song_mvl/mxv
 BYTE   W03
 BYTE   VOL   34*UpperSteamCave_Song_mvl/mxv
 BYTE   W02
//  #07 //018   ----------------------------------------
 BYTE   EOT
 BYTE   VOL   34*UpperSteamCave_Song_mvl/mxv
 BYTE   TIE  Dn1
 BYTE   W01
 BYTE   VOL   33*UpperSteamCave_Song_mvl/mxv
 BYTE   W02
 BYTE   VOL   32*UpperSteamCave_Song_mvl/mxv
 BYTE   W01
 BYTE   VOL   32*UpperSteamCave_Song_mvl/mxv
 BYTE   W17
 BYTE   VOL   33*UpperSteamCave_Song_mvl/mxv
 BYTE   W04
 BYTE   VOL   34*UpperSteamCave_Song_mvl/mxv
 BYTE   W06
 BYTE   VOL   34*UpperSteamCave_Song_mvl/mxv
 BYTE   W06
 BYTE   VOL   34*UpperSteamCave_Song_mvl/mxv
 BYTE   W03
 BYTE   VOL   35*UpperSteamCave_Song_mvl/mxv
 BYTE   W03
 BYTE   VOL   36*UpperSteamCave_Song_mvl/mxv
 BYTE   W03
 BYTE   VOL   37*UpperSteamCave_Song_mvl/mxv
 BYTE   W03
 BYTE   VOL   37*UpperSteamCave_Song_mvl/mxv
 BYTE   W05
 BYTE   VOL   38*UpperSteamCave_Song_mvl/mxv
 BYTE   W03
 BYTE   VOL   39*UpperSteamCave_Song_mvl/mxv
 BYTE   W01
 BYTE   VOL   40*UpperSteamCave_Song_mvl/mxv
 BYTE   W03
 BYTE   VOL   40*UpperSteamCave_Song_mvl/mxv
 BYTE   W02
 BYTE   VOL   40*UpperSteamCave_Song_mvl/mxv
 BYTE   W03
 BYTE   VOL   41*UpperSteamCave_Song_mvl/mxv
 BYTE   W01
 BYTE   VOL   42*UpperSteamCave_Song_mvl/mxv
 BYTE   W02
 BYTE   VOL   43*UpperSteamCave_Song_mvl/mxv
 BYTE   W03
 BYTE   VOL   43*UpperSteamCave_Song_mvl/mxv
 BYTE   W01
 BYTE   VOL   44*UpperSteamCave_Song_mvl/mxv
 BYTE   W03
 BYTE   VOL   45*UpperSteamCave_Song_mvl/mxv
 BYTE   W02
 BYTE   VOL   46*UpperSteamCave_Song_mvl/mxv
 BYTE   W01
 BYTE   VOL   46*UpperSteamCave_Song_mvl/mxv
 BYTE   W02
 BYTE   VOL   47*UpperSteamCave_Song_mvl/mxv
 BYTE   W01
 BYTE   VOL   48*UpperSteamCave_Song_mvl/mxv
 BYTE   W02
 BYTE   VOL   49*UpperSteamCave_Song_mvl/mxv
 BYTE   W01
 BYTE   VOL   50*UpperSteamCave_Song_mvl/mxv
 BYTE   W03
 BYTE   VOL   51*UpperSteamCave_Song_mvl/mxv
 BYTE   W02
 BYTE   VOL   51*UpperSteamCave_Song_mvl/mxv
 BYTE   W01
 BYTE   VOL   53*UpperSteamCave_Song_mvl/mxv
 BYTE   W05
//  #07 //019   ----------------------------------------
 BYTE   W18
 BYTE   VOL   52*UpperSteamCave_Song_mvl/mxv
 BYTE   W07
 BYTE   VOL   51*UpperSteamCave_Song_mvl/mxv
 BYTE   W05
 BYTE   VOL   51*UpperSteamCave_Song_mvl/mxv
 BYTE   W04
 BYTE   VOL   50*UpperSteamCave_Song_mvl/mxv
 BYTE   W03
 BYTE   VOL   50*UpperSteamCave_Song_mvl/mxv
 BYTE   W05
 BYTE   VOL   49*UpperSteamCave_Song_mvl/mxv
 BYTE   W03
 BYTE   VOL   48*UpperSteamCave_Song_mvl/mxv
 BYTE   W03
 BYTE   VOL   47*UpperSteamCave_Song_mvl/mxv
 BYTE   W03
 BYTE   VOL   46*UpperSteamCave_Song_mvl/mxv
 BYTE   W03
 BYTE   VOL   46*UpperSteamCave_Song_mvl/mxv
 BYTE   W03
 BYTE   VOL   45*UpperSteamCave_Song_mvl/mxv
 BYTE   W03
 BYTE   VOL   45*UpperSteamCave_Song_mvl/mxv
 BYTE   W01
 BYTE   VOL   44*UpperSteamCave_Song_mvl/mxv
 BYTE   W03
 BYTE   VOL   43*UpperSteamCave_Song_mvl/mxv
 BYTE   W02
 BYTE   VOL   43*UpperSteamCave_Song_mvl/mxv
 BYTE   W04
 BYTE   VOL   42*UpperSteamCave_Song_mvl/mxv
 BYTE   W02
 BYTE   VOL   41*UpperSteamCave_Song_mvl/mxv
 BYTE   W01
 BYTE   VOL   40*UpperSteamCave_Song_mvl/mxv
 BYTE   W02
 BYTE   VOL   40*UpperSteamCave_Song_mvl/mxv
 BYTE   W03
 BYTE   VOL   40*UpperSteamCave_Song_mvl/mxv
 BYTE   W01
 BYTE   VOL   39*UpperSteamCave_Song_mvl/mxv
 BYTE   W03
 BYTE   VOL   37*UpperSteamCave_Song_mvl/mxv
 BYTE   W03
 BYTE   VOL   37*UpperSteamCave_Song_mvl/mxv
 BYTE   W02
 BYTE   VOL   37*UpperSteamCave_Song_mvl/mxv
 BYTE   W01
 BYTE   VOL   36*UpperSteamCave_Song_mvl/mxv
 BYTE   W02
 BYTE   VOL   35*UpperSteamCave_Song_mvl/mxv
 BYTE   W03
 BYTE   VOL   34*UpperSteamCave_Song_mvl/mxv
 BYTE   W03
//  #07 //020   ----------------------------------------
 BYTE   EOT
 BYTE   VOL   34*UpperSteamCave_Song_mvl/mxv
 BYTE   TIE  Ds1
 BYTE   W01
 BYTE   VOL   33*UpperSteamCave_Song_mvl/mxv
 BYTE   W12
 BYTE   VOL   34*UpperSteamCave_Song_mvl/mxv
 BYTE   W09
 BYTE   VOL   34*UpperSteamCave_Song_mvl/mxv
 BYTE   W09
 BYTE   VOL   34*UpperSteamCave_Song_mvl/mxv
 BYTE   W03
 BYTE   VOL   35*UpperSteamCave_Song_mvl/mxv
 BYTE   W05
 BYTE   VOL   36*UpperSteamCave_Song_mvl/mxv
 BYTE   W03
 BYTE   VOL   37*UpperSteamCave_Song_mvl/mxv
 BYTE   W03
 BYTE   VOL   37*UpperSteamCave_Song_mvl/mxv
 BYTE   W03
 BYTE   VOL   37*UpperSteamCave_Song_mvl/mxv
 BYTE   W03
 BYTE   VOL   38*UpperSteamCave_Song_mvl/mxv
 BYTE   W03
 BYTE   VOL   39*UpperSteamCave_Song_mvl/mxv
 BYTE   W03
 BYTE   VOL   40*UpperSteamCave_Song_mvl/mxv
 BYTE   W01
 BYTE   VOL   40*UpperSteamCave_Song_mvl/mxv
 BYTE   W03
 BYTE   VOL   40*UpperSteamCave_Song_mvl/mxv
 BYTE   W03
 BYTE   VOL   41*UpperSteamCave_Song_mvl/mxv
 BYTE   W02
 BYTE   VOL   42*UpperSteamCave_Song_mvl/mxv
 BYTE   W01
 BYTE   VOL   43*UpperSteamCave_Song_mvl/mxv
 BYTE   W03
 BYTE   VOL   43*UpperSteamCave_Song_mvl/mxv
 BYTE   W02
 BYTE   VOL   44*UpperSteamCave_Song_mvl/mxv
 BYTE   W04
 BYTE   VOL   45*UpperSteamCave_Song_mvl/mxv
 BYTE   W02
 BYTE   VOL   46*UpperSteamCave_Song_mvl/mxv
 BYTE   W01
 BYTE   VOL   46*UpperSteamCave_Song_mvl/mxv
 BYTE   W02
 BYTE   VOL   47*UpperSteamCave_Song_mvl/mxv
 BYTE   W01
 BYTE   VOL   48*UpperSteamCave_Song_mvl/mxv
 BYTE   W02
 BYTE   VOL   49*UpperSteamCave_Song_mvl/mxv
 BYTE   W03
 BYTE   VOL   50*UpperSteamCave_Song_mvl/mxv
 BYTE   W01
 BYTE   VOL   50*UpperSteamCave_Song_mvl/mxv
 BYTE   W02
 BYTE   VOL   51*UpperSteamCave_Song_mvl/mxv
 BYTE   W01
 BYTE   VOL   51*UpperSteamCave_Song_mvl/mxv
 BYTE   W03
 BYTE   VOL   52*UpperSteamCave_Song_mvl/mxv
 BYTE   W02
//  #07 //021   ----------------------------------------
 BYTE   W13
 BYTE   VOL   51*UpperSteamCave_Song_mvl/mxv
 BYTE   W09
 BYTE   VOL   51*UpperSteamCave_Song_mvl/mxv
 BYTE   W08
 BYTE   VOL   50*UpperSteamCave_Song_mvl/mxv
 BYTE   W06
 BYTE   VOL   50*UpperSteamCave_Song_mvl/mxv
 BYTE   W04
 BYTE   VOL   49*UpperSteamCave_Song_mvl/mxv
 BYTE   W05
 BYTE   VOL   48*UpperSteamCave_Song_mvl/mxv
 BYTE   W03
 BYTE   VOL   47*UpperSteamCave_Song_mvl/mxv
 BYTE   W04
 BYTE   VOL   46*UpperSteamCave_Song_mvl/mxv
 BYTE   W03
 BYTE   VOL   46*UpperSteamCave_Song_mvl/mxv
 BYTE   W03
 BYTE   VOL   45*UpperSteamCave_Song_mvl/mxv
 BYTE   W03
 BYTE   VOL   45*UpperSteamCave_Song_mvl/mxv
 BYTE   W03
 BYTE   VOL   44*UpperSteamCave_Song_mvl/mxv
 BYTE   W03
 BYTE   VOL   43*UpperSteamCave_Song_mvl/mxv
 BYTE   W03
 BYTE   VOL   43*UpperSteamCave_Song_mvl/mxv
 BYTE   W03
 BYTE   VOL   42*UpperSteamCave_Song_mvl/mxv
 BYTE   W03
 BYTE   VOL   41*UpperSteamCave_Song_mvl/mxv
 BYTE   W05
 BYTE   VOL   40*UpperSteamCave_Song_mvl/mxv
 BYTE   W03
 BYTE   VOL   40*UpperSteamCave_Song_mvl/mxv
 BYTE   W01
 BYTE   VOL   39*UpperSteamCave_Song_mvl/mxv
 BYTE   W03
 BYTE   VOL   38*UpperSteamCave_Song_mvl/mxv
 BYTE   W02
 BYTE   VOL   37*UpperSteamCave_Song_mvl/mxv
 BYTE   W03
 BYTE   VOL   37*UpperSteamCave_Song_mvl/mxv
 BYTE   W01
 BYTE   VOL   37*UpperSteamCave_Song_mvl/mxv
 BYTE   W02
//  #07 //022   ----------------------------------------
 BYTE   EOT
 BYTE   VOL   34*UpperSteamCave_Song_mvl/mxv
 BYTE   TIE  Dn1
 BYTE   W12
 BYTE   VOL   34*UpperSteamCave_Song_mvl/mxv
 BYTE   W12
 BYTE   VOL   34*UpperSteamCave_Song_mvl/mxv
 BYTE   W06
 BYTE   VOL   35*UpperSteamCave_Song_mvl/mxv
 BYTE   W04
 BYTE   VOL   36*UpperSteamCave_Song_mvl/mxv
 BYTE   W03
 BYTE   VOL   37*UpperSteamCave_Song_mvl/mxv
 BYTE   W05
 BYTE   VOL   37*UpperSteamCave_Song_mvl/mxv
 BYTE   W03
 BYTE   VOL   37*UpperSteamCave_Song_mvl/mxv
 BYTE   W03
 BYTE   VOL   38*UpperSteamCave_Song_mvl/mxv
 BYTE   W04
 BYTE   VOL   39*UpperSteamCave_Song_mvl/mxv
 BYTE   W02
 BYTE   VOL   40*UpperSteamCave_Song_mvl/mxv
 BYTE   W01
 BYTE   VOL   40*UpperSteamCave_Song_mvl/mxv
 BYTE   W03
 BYTE   VOL   40*UpperSteamCave_Song_mvl/mxv
 BYTE   W03
 BYTE   VOL   41*UpperSteamCave_Song_mvl/mxv
 BYTE   W03
 BYTE   VOL   42*UpperSteamCave_Song_mvl/mxv
 BYTE   W02
 BYTE   VOL   43*UpperSteamCave_Song_mvl/mxv
 BYTE   W03
 BYTE   VOL   43*UpperSteamCave_Song_mvl/mxv
 BYTE   W01
 BYTE   VOL   44*UpperSteamCave_Song_mvl/mxv
 BYTE   W02
 BYTE   VOL   45*UpperSteamCave_Song_mvl/mxv
 BYTE   W03
 BYTE   VOL   45*UpperSteamCave_Song_mvl/mxv
 BYTE   W01
 BYTE   VOL   46*UpperSteamCave_Song_mvl/mxv
 BYTE   W02
 BYTE   VOL   46*UpperSteamCave_Song_mvl/mxv
 BYTE   W01
 BYTE   VOL   47*UpperSteamCave_Song_mvl/mxv
 BYTE   W02
 BYTE   VOL   48*UpperSteamCave_Song_mvl/mxv
 BYTE   W03
 BYTE   VOL   49*UpperSteamCave_Song_mvl/mxv
 BYTE   W03
 BYTE   VOL   50*UpperSteamCave_Song_mvl/mxv
 BYTE   W01
 BYTE   VOL   51*UpperSteamCave_Song_mvl/mxv
 BYTE   W02
 BYTE   VOL   51*UpperSteamCave_Song_mvl/mxv
 BYTE   W01
 BYTE   VOL   52*UpperSteamCave_Song_mvl/mxv
 BYTE   W03
 BYTE   VOL   52*UpperSteamCave_Song_mvl/mxv
 BYTE   W02
//  #07 //023   ----------------------------------------
 BYTE   W16
 BYTE   VOL   51*UpperSteamCave_Song_mvl/mxv
 BYTE   W08
 BYTE   VOL   51*UpperSteamCave_Song_mvl/mxv
 BYTE   W04
 BYTE   VOL   50*UpperSteamCave_Song_mvl/mxv
 BYTE   W05
 BYTE   VOL   50*UpperSteamCave_Song_mvl/mxv
 BYTE   W03
 BYTE   VOL   49*UpperSteamCave_Song_mvl/mxv
 BYTE   W04
 BYTE   VOL   48*UpperSteamCave_Song_mvl/mxv
 BYTE   W03
 BYTE   VOL   47*UpperSteamCave_Song_mvl/mxv
 BYTE   W03
 BYTE   VOL   46*UpperSteamCave_Song_mvl/mxv
 BYTE   W02
 BYTE   EOT
 BYTE   N48  Ds1
 BYTE   W01
 BYTE   VOL   46*UpperSteamCave_Song_mvl/mxv
 BYTE   W02
 BYTE   VOL   45*UpperSteamCave_Song_mvl/mxv
 BYTE   W03
 BYTE   VOL   45*UpperSteamCave_Song_mvl/mxv
 BYTE   W04
 BYTE   VOL   43*UpperSteamCave_Song_mvl/mxv
 BYTE   W03
 BYTE   VOL   43*UpperSteamCave_Song_mvl/mxv
 BYTE   W03
 BYTE   VOL   42*UpperSteamCave_Song_mvl/mxv
 BYTE   W02
 BYTE   VOL   41*UpperSteamCave_Song_mvl/mxv
 BYTE   W03
 BYTE   VOL   40*UpperSteamCave_Song_mvl/mxv
 BYTE   W01
 BYTE   VOL   40*UpperSteamCave_Song_mvl/mxv
 BYTE   W02
 BYTE   VOL   40*UpperSteamCave_Song_mvl/mxv
 BYTE   W03
 BYTE   VOL   39*UpperSteamCave_Song_mvl/mxv
 BYTE   W01
 BYTE   VOL   38*UpperSteamCave_Song_mvl/mxv
 BYTE   W02
 BYTE   VOL   37*UpperSteamCave_Song_mvl/mxv
 BYTE   W03
 BYTE   VOL   37*UpperSteamCave_Song_mvl/mxv
 BYTE   W01
 BYTE   VOL   36*UpperSteamCave_Song_mvl/mxv
 BYTE   W02
 BYTE   VOL   35*UpperSteamCave_Song_mvl/mxv
 BYTE   W01
 BYTE   VOL   34*UpperSteamCave_Song_mvl/mxv
 BYTE   W03
 BYTE   VOL   34*UpperSteamCave_Song_mvl/mxv
 BYTE   W03
 BYTE   VOL   33*UpperSteamCave_Song_mvl/mxv
 BYTE   W02
 BYTE   VOL   32*UpperSteamCave_Song_mvl/mxv
 BYTE   W03
//  #07 //024   ----------------------------------------
 BYTE   TIE  Dn1
 BYTE   W13
 BYTE   VOL   34*UpperSteamCave_Song_mvl/mxv
 BYTE   W11
 BYTE   VOL   34*UpperSteamCave_Song_mvl/mxv
 BYTE   W09
 BYTE   VOL   34*UpperSteamCave_Song_mvl/mxv
 BYTE   W04
 BYTE   VOL   35*UpperSteamCave_Song_mvl/mxv
 BYTE   W05
 BYTE   VOL   36*UpperSteamCave_Song_mvl/mxv
 BYTE   W03
 BYTE   VOL   37*UpperSteamCave_Song_mvl/mxv
 BYTE   W03
 BYTE   VOL   37*UpperSteamCave_Song_mvl/mxv
 BYTE   W04
 BYTE   VOL   38*UpperSteamCave_Song_mvl/mxv
 BYTE   W03
 BYTE   VOL   39*UpperSteamCave_Song_mvl/mxv
 BYTE   W03
 BYTE   VOL   40*UpperSteamCave_Song_mvl/mxv
 BYTE   W02
 BYTE   VOL   40*UpperSteamCave_Song_mvl/mxv
 BYTE   W03
 BYTE   VOL   40*UpperSteamCave_Song_mvl/mxv
 BYTE   W01
 BYTE   VOL   41*UpperSteamCave_Song_mvl/mxv
 BYTE   W02
 BYTE   VOL   42*UpperSteamCave_Song_mvl/mxv
 BYTE   W01
 BYTE   VOL   43*UpperSteamCave_Song_mvl/mxv
 BYTE   W03
 BYTE   VOL   43*UpperSteamCave_Song_mvl/mxv
 BYTE   W02
 BYTE   VOL   44*UpperSteamCave_Song_mvl/mxv
 BYTE   W03
 BYTE   VOL   45*UpperSteamCave_Song_mvl/mxv
 BYTE   W01
 BYTE   VOL   46*UpperSteamCave_Song_mvl/mxv
 BYTE   W02
 BYTE   VOL   46*UpperSteamCave_Song_mvl/mxv
 BYTE   W01
 BYTE   VOL   47*UpperSteamCave_Song_mvl/mxv
 BYTE   W02
 BYTE   VOL   48*UpperSteamCave_Song_mvl/mxv
 BYTE   W01
 BYTE   VOL   49*UpperSteamCave_Song_mvl/mxv
 BYTE   W03
 BYTE   VOL   50*UpperSteamCave_Song_mvl/mxv
 BYTE   W02
 BYTE   VOL   51*UpperSteamCave_Song_mvl/mxv
 BYTE   W01
 BYTE   VOL   52*UpperSteamCave_Song_mvl/mxv
 BYTE   W08
//  #07 //025   ----------------------------------------
 BYTE   W03
 BYTE   VOL   52*UpperSteamCave_Song_mvl/mxv
 BYTE   W21
 BYTE   VOL   51*UpperSteamCave_Song_mvl/mxv
 BYTE   W06
 BYTE   VOL   51*UpperSteamCave_Song_mvl/mxv
 BYTE   W06
 BYTE   VOL   50*UpperSteamCave_Song_mvl/mxv
 BYTE   W06
 BYTE   VOL   50*UpperSteamCave_Song_mvl/mxv
 BYTE   W04
 BYTE   VOL   49*UpperSteamCave_Song_mvl/mxv
 BYTE   W02
 BYTE   EOT
 BYTE   N48  Ds1
 BYTE   W03
 BYTE   VOL   48*UpperSteamCave_Song_mvl/mxv
 BYTE   W03
 BYTE   VOL   47*UpperSteamCave_Song_mvl/mxv
 BYTE   W03
 BYTE   VOL   46*UpperSteamCave_Song_mvl/mxv
 BYTE   W03
 BYTE   VOL   46*UpperSteamCave_Song_mvl/mxv
 BYTE   W04
 BYTE   VOL   45*UpperSteamCave_Song_mvl/mxv
 BYTE   W02
 BYTE   VOL   45*UpperSteamCave_Song_mvl/mxv
 BYTE   W03
 BYTE   VOL   44*UpperSteamCave_Song_mvl/mxv
 BYTE   W03
 BYTE   VOL   43*UpperSteamCave_Song_mvl/mxv
 BYTE   W03
 BYTE   VOL   43*UpperSteamCave_Song_mvl/mxv
 BYTE   W04
 BYTE   VOL   42*UpperSteamCave_Song_mvl/mxv
 BYTE   W02
 BYTE   VOL   41*UpperSteamCave_Song_mvl/mxv
 BYTE   W01
 BYTE   VOL   40*UpperSteamCave_Song_mvl/mxv
 BYTE   W03
 BYTE   VOL   40*UpperSteamCave_Song_mvl/mxv
 BYTE   W02
 BYTE   VOL   40*UpperSteamCave_Song_mvl/mxv
 BYTE   W01
 BYTE   VOL   39*UpperSteamCave_Song_mvl/mxv
 BYTE   W03
 BYTE   VOL   40*UpperSteamCave_Song_mvl/mxv
 BYTE   W05
//  #07 //026   ----------------------------------------
 BYTE   N04  Dn1  v127
 BYTE   W03
 BYTE   VOL   40*UpperSteamCave_Song_mvl/mxv
 BYTE   W03
 BYTE   VOL   40*UpperSteamCave_Song_mvl/mxv
 BYTE   N04  Dn1  v036
 BYTE   W03
 BYTE   VOL   41*UpperSteamCave_Song_mvl/mxv
 BYTE   W03
 BYTE   VOL   42*UpperSteamCave_Song_mvl/mxv
 BYTE   N04  Dn1  v127
 BYTE   W01
 BYTE   VOL   43*UpperSteamCave_Song_mvl/mxv
 BYTE   W05
 BYTE   VOL   44*UpperSteamCave_Song_mvl/mxv
 BYTE   N04  Dn1  v036
 BYTE   W03
 BYTE   VOL   45*UpperSteamCave_Song_mvl/mxv
 BYTE   W01
 BYTE   VOL   45*UpperSteamCave_Song_mvl/mxv
 BYTE   W02
 BYTE   VOL   46*UpperSteamCave_Song_mvl/mxv
 BYTE   N04  Dn1  v028
 BYTE   W01
 BYTE   VOL   47*UpperSteamCave_Song_mvl/mxv
 BYTE   W03
 BYTE   VOL   49*UpperSteamCave_Song_mvl/mxv
 BYTE   W02
 BYTE   VOL   50*UpperSteamCave_Song_mvl/mxv
 BYTE   N04  Dn1  v020
 BYTE   W01
 BYTE   VOL   51*UpperSteamCave_Song_mvl/mxv
 BYTE   W02
 BYTE   VOL   51*UpperSteamCave_Song_mvl/mxv
 BYTE   W01
 BYTE   VOL   53*UpperSteamCave_Song_mvl/mxv
 BYTE   W02
 BYTE   N04  Dn1  v127
 BYTE   W06
 BYTE   Dn1  v036
 BYTE   W06
 BYTE   Dn1  v127
 BYTE   W06
 BYTE   Dn1  v036
 BYTE   W06
 BYTE   Dn1  v028
 BYTE   W06
 BYTE   Dn1  v020
 BYTE   W06
 BYTE   Dn1  v127
 BYTE   W06
 BYTE   Dn1  v036
 BYTE   W06
 BYTE   Dn1  v127
 BYTE   W06
 BYTE   Dn1  v036
 BYTE   W06
//  #07 //027   ----------------------------------------
 BYTE   Cs1  v028
 BYTE   W06
 BYTE   Cs1  v020
 BYTE   W06
 BYTE   Cs1  v127
 BYTE   W06
 BYTE   Cs1  v036
 BYTE   W06
 BYTE   Cs1  v127
 BYTE   W06
 BYTE   Cs1  v036
 BYTE   W06
 BYTE   Cs1  v028
 BYTE   W06
 BYTE   Cs1  v020
 BYTE   W06
 BYTE   Cs1  v127
 BYTE   W06
 BYTE   Cs1  v036
 BYTE   W06
 BYTE   Cs1  v127
 BYTE   W06
 BYTE   Cs1  v036
 BYTE   W06
 BYTE   Cs1  v028
 BYTE   W06
 BYTE   Cs1  v020
 BYTE   W06
 BYTE   Cs1  v127
 BYTE   W06
 BYTE   Cs1  v036
 BYTE   W06
//  #07 //028   ----------------------------------------
 BYTE   En1  v127
 BYTE   W06
 BYTE   En1  v036
 BYTE   W06
 BYTE   En1  v127
 BYTE   W06
 BYTE   En1  v036
 BYTE   W06
 BYTE   En1  v028
 BYTE   W06
 BYTE   En1  v020
 BYTE   W06
 BYTE   En1  v127
 BYTE   W06
 BYTE   En1  v036
 BYTE   W06
 BYTE   En1  v127
 BYTE   W06
 BYTE   En1  v036
 BYTE   W06
 BYTE   En1  v028
 BYTE   W06
 BYTE   En1  v020
 BYTE   W06
 BYTE   En1  v127
 BYTE   W06
 BYTE   En1  v036
 BYTE   W06
 BYTE   En1  v127
 BYTE   W06
 BYTE   En1  v036
 BYTE   W06
//  #07 //029   ----------------------------------------
 BYTE   Ds1  v028
 BYTE   W06
 BYTE   Ds1  v020
 BYTE   W06
 BYTE   Ds1  v127
 BYTE   W06
 BYTE   Ds1  v036
 BYTE   W06
 BYTE   Ds1  v127
 BYTE   W06
 BYTE   Ds1  v036
 BYTE   W06
 BYTE   Ds1  v028
 BYTE   W06
 BYTE   Ds1  v020
 BYTE   W06
 BYTE   Ds1  v127
 BYTE   W06
 BYTE   Ds1  v036
 BYTE   W06
 BYTE   Ds1  v127
 BYTE   W06
 BYTE   Ds1  v036
 BYTE   W06
 BYTE   Ds1  v028
 BYTE   W06
 BYTE   Ds1  v020
 BYTE   W06
 BYTE   Ds1  v127
 BYTE   W06
 BYTE   Ds1  v036
 BYTE   W06
//  #07 //030   ----------------------------------------
 BYTE   Fs1  v127
 BYTE   W06
 BYTE   Fs1  v036
 BYTE   W06
 BYTE   Fs1  v127
 BYTE   W06
 BYTE   Fs1  v036
 BYTE   W06
 BYTE   Fs1  v028
 BYTE   W06
 BYTE   Fs1  v020
 BYTE   W06
 BYTE   Fs1  v127
 BYTE   W06
 BYTE   Fs1  v036
 BYTE   W06
 BYTE   Fs1  v127
 BYTE   W06
 BYTE   Fs1  v036
 BYTE   W06
 BYTE   Fs1  v028
 BYTE   W06
 BYTE   Fs1  v020
 BYTE   W06
 BYTE   Fs1  v127
 BYTE   W06
 BYTE   Fs1  v036
 BYTE   W06
 BYTE   Fs1  v127
 BYTE   W06
 BYTE   Fs1  v036
 BYTE   W06
//  #07 //031   ----------------------------------------
 BYTE   Fn1  v028
 BYTE   W06
 BYTE   Fn1  v020
 BYTE   W06
 BYTE   Fn1  v127
 BYTE   W06
 BYTE   Fn1  v036
 BYTE   W06
 BYTE   Fn1  v127
 BYTE   W06
 BYTE   Fn1  v036
 BYTE   W06
 BYTE   Fn1  v028
 BYTE   W06
 BYTE   Fn1  v020
 BYTE   W06
 BYTE   Fn1  v127
 BYTE   W06
 BYTE   Fn1  v036
 BYTE   W06
 BYTE   Fn1  v127
 BYTE   W06
 BYTE   Fn1  v036
 BYTE   W06
 BYTE   Fn1  v028
 BYTE   W06
 BYTE   Fn1  v020
 BYTE   W06
 BYTE   Fn1  v127
 BYTE   W06
 BYTE   Fn1  v036
 BYTE   W06
//  #07 //032   ----------------------------------------
 BYTE   Gs1  v127
 BYTE   W06
 BYTE   Gs1  v036
 BYTE   W06
 BYTE   Gs1  v127
 BYTE   W06
 BYTE   Gs1  v036
 BYTE   W06
 BYTE   Gs1  v028
 BYTE   W06
 BYTE   Gs1  v020
 BYTE   W06
 BYTE   Gs1  v127
 BYTE   W06
 BYTE   Gs1  v036
 BYTE   W06
 BYTE   Gs1  v127
 BYTE   W06
 BYTE   Gs1  v036
 BYTE   W06
 BYTE   Gs1  v028
 BYTE   W06
 BYTE   Gs1  v020
 BYTE   W06
 BYTE   Gs1  v127
 BYTE   W06
 BYTE   Gs1  v036
 BYTE   W06
 BYTE   Gs1  v127
 BYTE   W06
 BYTE   Gs1  v036
 BYTE   W06
//  #07 //033   ----------------------------------------
 BYTE   Bn1  v028
 BYTE   W06
 BYTE   Bn1  v020
 BYTE   W06
 BYTE   Bn1  v127
 BYTE   W06
 BYTE   Bn1  v036
 BYTE   W06
 BYTE   Bn1  v127
 BYTE   W06
 BYTE   Bn1  v036
 BYTE   W06
 BYTE   Bn1  v028
 BYTE   W06
 BYTE   Bn1  v020
 BYTE   W06
 BYTE   Bn1  v127
 BYTE   W06
 BYTE   Bn1  v036
 BYTE   W06
 BYTE   Bn1  v127
 BYTE   W06
 BYTE   Bn1  v036
 BYTE   W06
 BYTE   Bn1  v028
 BYTE   W06
 BYTE   Bn1  v020
 BYTE   W06
 BYTE   Bn1  v127
 BYTE   W06
 BYTE   Bn1  v036
 BYTE   W06
//  #07 //034   ----------------------------------------
 BYTE   W96
//  #07 //035   ----------------------------------------
 BYTE   W96
//  #07 //036   ----------------------------------------
 BYTE   W96
//  #07 //037   ----------------------------------------
 BYTE   W96
//  #07 //038   ----------------------------------------
 BYTE   W96
//  #07 //039   ----------------------------------------
 BYTE   W96
//  #07 //040   ----------------------------------------
 BYTE   W96
//  #07 //041   ----------------------------------------
 BYTE   W96
//  #07 //042   ----------------------------------------
 BYTE   GoTo
  POIN2 Label_016B0F9E
 BYTE   FINE

//**************** Track 8 (Midi-Chn.7) ****************//

UpperSteamCave_Song_008:
//  #08 //000   ----------------------------------------
 BYTE   KEYSH   UpperSteamCave_Song_key+0
Label_016B1802:
 BYTE   VOICE   1
 BYTE   MODT 0
 BYTE   LFOS 44
 BYTE   VOL   37*UpperSteamCave_Song_mvl/mxv
 BYTE   PAN   c_v+0
 BYTE   VOL   37*UpperSteamCave_Song_mvl/mxv
 BYTE   PAN   c_v+0
 BYTE   BEND   c_v+0
 BYTE   W96
//  #08 //001   ----------------------------------------
 BYTE   W96
//  #08 //002   ----------------------------------------
 BYTE   W96
//  #08 //003   ----------------------------------------
 BYTE   W96
//  #08 //004   ----------------------------------------
 BYTE   PAN   c_v-36
 BYTE   N03  Cn4  v048
 BYTE   N03  En4
 BYTE   W01
 BYTE   PAN   c_v-35
 BYTE   W03
 BYTE   PAN   c_v-34
 BYTE   W02
 BYTE   PAN   c_v-33
 BYTE   W02
 BYTE   N03  Dn4
 BYTE   N03  Fn4
 BYTE   W01
 BYTE   PAN   c_v-32
 BYTE   W03
 BYTE   PAN   c_v-31
 BYTE   W01
 BYTE   PAN   c_v-30
 BYTE   W03
 BYTE   PAN   c_v-29
 BYTE   N03  Cn4
 BYTE   N03  En4
 BYTE   W02
 BYTE   PAN   c_v-28
 BYTE   W03
 BYTE   PAN   c_v-27
 BYTE   W03
 BYTE   PAN   c_v-26
 BYTE   N03  Dn4
 BYTE   N03  Fn4
 BYTE   W01
 BYTE   PAN   c_v-25
 BYTE   W03
 BYTE   PAN   c_v-24
 BYTE   W02
 BYTE   PAN   c_v-23
 BYTE   W02
 BYTE   N03  Cn4  v056
 BYTE   N03  En4
 BYTE   W01
 BYTE   PAN   c_v-22
 BYTE   W03
 BYTE   PAN   c_v-21
 BYTE   W03
 BYTE   PAN   c_v-20
 BYTE   W01
 BYTE   N03  Dn4
 BYTE   N03  Fn4
 BYTE   W02
 BYTE   PAN   c_v-19
 BYTE   W01
 BYTE   PAN   c_v-18
 BYTE   W03
 BYTE   PAN   c_v-17
 BYTE   W02
 BYTE   PAN   c_v-16
 BYTE   N03  Cn4  v060
 BYTE   N03  En4
 BYTE   W03
 BYTE   PAN   c_v-15
 BYTE   W03
 BYTE   PAN   c_v-14
 BYTE   W01
 BYTE   PAN   c_v-13
 BYTE   W01
 BYTE   N03  Dn4  v064
 BYTE   N03  Fn4
 BYTE   W02
 BYTE   PAN   c_v-12
 BYTE   W02
 BYTE   PAN   c_v-11
 BYTE   W03
 BYTE   PAN   c_v-10
 BYTE   W01
 BYTE   PAN   c_v-9
 BYTE   N03  Cn4  v072
 BYTE   N03  En4
 BYTE   W03
 BYTE   PAN   c_v-8
 BYTE   W03
 BYTE   PAN   c_v-7
 BYTE   W02
 BYTE   N03  Dn4  v076
 BYTE   N03  Fn4
 BYTE   W01
 BYTE   PAN   c_v-6
 BYTE   W03
 BYTE   PAN   c_v-5
 BYTE   W02
 BYTE   PAN   c_v-4
 BYTE   W02
 BYTE   N03  Cn4  v084
 BYTE   N03  En4
 BYTE   W01
 BYTE   PAN   c_v-3
 BYTE   W01
 BYTE   PAN   c_v-2
 BYTE   W03
 BYTE   PAN   c_v-1
 BYTE   W03
 BYTE   PAN   c_v+0
 BYTE   N03  Dn4  v088
 BYTE   N03  Fn4
 BYTE   W02
 BYTE   PAN   c_v+1
 BYTE   W03
 BYTE   PAN   c_v+2
 BYTE   W01
 BYTE   PAN   c_v+3
 BYTE   W02
//  #08 //005   ----------------------------------------
 BYTE   N03  Cn4  v096
 BYTE   N03  En4
 BYTE   W01
 BYTE   PAN   c_v+4
 BYTE   W03
 BYTE   PAN   c_v+5
 BYTE   W02
 BYTE   PAN   c_v+6
 BYTE   N03  Dn4  v104
 BYTE   N03  Fn4
 BYTE   W04
 BYTE   PAN   c_v+7
 BYTE   W02
 BYTE   PAN   c_v+8
 BYTE   N03  En4  v112
 BYTE   N03  Gn4
 BYTE   W03
 BYTE   PAN   c_v+9
 BYTE   W01
 BYTE   PAN   c_v+10
 BYTE   W02
 BYTE   N03  Fn4  v100
 BYTE   N03  An4
 BYTE   W01
 BYTE   PAN   c_v+11
 BYTE   W03
 BYTE   PAN   c_v+12
 BYTE   W02
 BYTE   PAN   c_v+13
 BYTE   N03  Gn4  v088
 BYTE   N03  As4
 BYTE   W03
 BYTE   PAN   c_v+14
 BYTE   W01
 BYTE   PAN   c_v+15
 BYTE   W02
 BYTE   N03  Fn4  v084
 BYTE   N03  An4
 BYTE   W01
 BYTE   PAN   c_v+16
 BYTE   W02
 BYTE   PAN   c_v+17
 BYTE   W03
 BYTE   PAN   c_v+18
 BYTE   N03  En4  v080
 BYTE   N03  Gn4
 BYTE   W03
 BYTE   PAN   c_v+19
 BYTE   W01
 BYTE   PAN   c_v+20
 BYTE   W02
 BYTE   N03  Dn4  v072
 BYTE   N03  Fn4
 BYTE   W03
 BYTE   PAN   c_v+21
 BYTE   W01
 BYTE   PAN   c_v+22
 BYTE   W02
 BYTE   N03  Cn4  v068
 BYTE   N03  En4
 BYTE   W01
 BYTE   PAN   c_v+23
 BYTE   W02
 BYTE   PAN   c_v+24
 BYTE   W03
 BYTE   PAN   c_v+25
 BYTE   W02
 BYTE   N03  As3  v064
 BYTE   N03  Dn4
 BYTE   W01
 BYTE   PAN   c_v+26
 BYTE   W01
 BYTE   PAN   c_v+27
 BYTE   W03
 BYTE   PAN   c_v+28
 BYTE   W02
 BYTE   PAN   c_v+29
 BYTE   W01
 BYTE   N03  An3  v060
 BYTE   N03  Cn4
 BYTE   W02
 BYTE   PAN   c_v+30
 BYTE   W03
 BYTE   PAN   c_v+31
 BYTE   W01
 BYTE   PAN   c_v+32
 BYTE   W02
 BYTE   N03  Gn3  v056
 BYTE   N03  As3
 BYTE   W01
 BYTE   PAN   c_v+33
 BYTE   W02
 BYTE   PAN   c_v+34
 BYTE   W04
 BYTE   PAN   c_v+35
 BYTE   W01
 BYTE   N03  An3
 BYTE   N03  Cn4
 BYTE   W01
 BYTE   PAN   c_v+36
 BYTE   W03
 BYTE   PAN   c_v+37
 BYTE   W03
 BYTE   PAN   c_v+38
 BYTE   W01
 BYTE   PAN   c_v+39
 BYTE   N03  As3  v052
 BYTE   N03  Dn4
 BYTE   W05
 BYTE   PAN   c_v+39
 BYTE   W01
 BYTE   PAN   c_v+38
 BYTE   W02
//  #08 //006   ----------------------------------------
 BYTE   N03  Cn5
 BYTE   N03  En5
 BYTE   W01
 BYTE   PAN   c_v+37
 BYTE   W03
 BYTE   PAN   c_v+36
 BYTE   W02
 BYTE   PAN   c_v+35
 BYTE   W02
 BYTE   N03  Dn5
 BYTE   N03  Fn5
 BYTE   W01
 BYTE   PAN   c_v+34
 BYTE   W03
 BYTE   PAN   c_v+33
 BYTE   W03
 BYTE   PAN   c_v+32
 BYTE   W01
 BYTE   N03  Cn5
 BYTE   N03  En5
 BYTE   W02
 BYTE   PAN   c_v+31
 BYTE   W01
 BYTE   PAN   c_v+30
 BYTE   W03
 BYTE   PAN   c_v+29
 BYTE   W02
 BYTE   PAN   c_v+28
 BYTE   N03  Dn5
 BYTE   N03  Fn5
 BYTE   W03
 BYTE   PAN   c_v+27
 BYTE   W03
 BYTE   PAN   c_v+26
 BYTE   W01
 BYTE   PAN   c_v+25
 BYTE   W01
 BYTE   N03  Cn5  v056
 BYTE   N03  En5
 BYTE   W02
 BYTE   PAN   c_v+24
 BYTE   W03
 BYTE   PAN   c_v+23
 BYTE   W02
 BYTE   PAN   c_v+22
 BYTE   W01
 BYTE   N03  Dn5
 BYTE   N03  Fn5
 BYTE   W02
 BYTE   PAN   c_v+21
 BYTE   W03
 BYTE   PAN   c_v+20
 BYTE   W03
 BYTE   PAN   c_v+19
 BYTE   N03  Cn5  v060
 BYTE   N03  En5
 BYTE   W03
 BYTE   PAN   c_v+18
 BYTE   W01
 BYTE   PAN   c_v+17
 BYTE   W03
 BYTE   PAN   c_v+16
 BYTE   W01
 BYTE   N03  Dn5  v064
 BYTE   N03  Fn5
 BYTE   W01
 BYTE   PAN   c_v+15
 BYTE   W03
 BYTE   PAN   c_v+14
 BYTE   W03
 BYTE   PAN   c_v+13
 BYTE   W01
 BYTE   PAN   c_v+12
 BYTE   N03  Cn5
 BYTE   N03  En5
 BYTE   W03
 BYTE   PAN   c_v+11
 BYTE   W03
 BYTE   PAN   c_v+10
 BYTE   W02
 BYTE   PAN   c_v+9
 BYTE   N03  Dn5  v068
 BYTE   N03  Fn5
 BYTE   W03
 BYTE   PAN   c_v+8
 BYTE   W03
 BYTE   PAN   c_v+7
 BYTE   W01
 BYTE   PAN   c_v+6
 BYTE   W01
 BYTE   N03  Cn5  v072
 BYTE   N03  En5
 BYTE   W04
 BYTE   PAN   c_v+5
 BYTE   W01
 BYTE   PAN   c_v+4
 BYTE   W03
 BYTE   PAN   c_v+3
 BYTE   N03  Dn5  v080
 BYTE   N03  Fn5
 BYTE   W03
 BYTE   PAN   c_v+2
 BYTE   W02
 BYTE   PAN   c_v+1
 BYTE   W03
//  #08 //007   ----------------------------------------
 BYTE   PAN   c_v+0
 BYTE   N03  Cn5  v084
 BYTE   N03  En5
 BYTE   W01
 BYTE   PAN   c_v-1
 BYTE   W03
 BYTE   PAN   c_v-2
 BYTE   W02
 BYTE   N03  Dn5  v088
 BYTE   N03  Fn5
 BYTE   W01
 BYTE   PAN   c_v-3
 BYTE   W02
 BYTE   PAN   c_v-4
 BYTE   W03
 BYTE   PAN   c_v-5
 BYTE   N03  En5  v092
 BYTE   N03  Gn5
 BYTE   W03
 BYTE   PAN   c_v-6
 BYTE   W01
 BYTE   PAN   c_v-7
 BYTE   W02
 BYTE   N03  Fn5  v100
 BYTE   N03  An5
 BYTE   W01
 BYTE   PAN   c_v-8
 BYTE   W03
 BYTE   PAN   c_v-9
 BYTE   W02
 BYTE   N03  Gn5
 BYTE   N03  As5
 BYTE   W01
 BYTE   PAN   c_v-10
 BYTE   W03
 BYTE   PAN   c_v-11
 BYTE   W02
 BYTE   PAN   c_v-12
 BYTE   N03  Fn5  v092
 BYTE   N03  An5
 BYTE   W03
 BYTE   PAN   c_v-13
 BYTE   W01
 BYTE   PAN   c_v-14
 BYTE   W02
 BYTE   N03  En5  v088
 BYTE   N03  Gn5
 BYTE   W01
 BYTE   PAN   c_v-15
 BYTE   W03
 BYTE   PAN   c_v-16
 BYTE   W02
 BYTE   PAN   c_v-17
 BYTE   N03  Dn5  v084
 BYTE   N03  Fn5
 BYTE   W03
 BYTE   PAN   c_v-18
 BYTE   W03
 BYTE   PAN   c_v-19
 BYTE   N03  Cn5  v080
 BYTE   N03  En5
 BYTE   W01
 BYTE   PAN   c_v-20
 BYTE   W03
 BYTE   PAN   c_v-21
 BYTE   W02
 BYTE   PAN   c_v-22
 BYTE   W02
 BYTE   N03  As4  v072
 BYTE   N03  Dn5
 BYTE   W02
 BYTE   PAN   c_v-23
 BYTE   W03
 BYTE   PAN   c_v-24
 BYTE   W02
 BYTE   PAN   c_v-25
 BYTE   W01
 BYTE   N03  An4  v068
 BYTE   N03  Cn5
 BYTE   W02
 BYTE   PAN   c_v-26
 BYTE   W01
 BYTE   PAN   c_v-27
 BYTE   W03
 BYTE   PAN   c_v-28
 BYTE   W02
 BYTE   N03  Gn4  v064
 BYTE   N03  As4
 BYTE   W01
 BYTE   PAN   c_v-29
 BYTE   W02
 BYTE   PAN   c_v-30
 BYTE   W03
 BYTE   PAN   c_v-31
 BYTE   W02
 BYTE   N03  En4  v060
 BYTE   N03  An4
 BYTE   W01
 BYTE   PAN   c_v-32
 BYTE   W01
 BYTE   PAN   c_v-33
 BYTE   W03
 BYTE   PAN   c_v-34
 BYTE   W03
 BYTE   PAN   c_v-35
 BYTE   N03  Dn4  v056
 BYTE   N03  Gn4
 BYTE   W02
 BYTE   PAN   c_v-36
 BYTE   W04
 BYTE   PAN   c_v-37
 BYTE   W02
//  #08 //008   ----------------------------------------
 BYTE   PAN   c_v-38
 BYTE   N03  Fn4  v052
 BYTE   N03  An4
 BYTE   W03
 BYTE   PAN   c_v-40
 BYTE   W92
 BYTE   W01
//  #08 //009   ----------------------------------------
 BYTE   W92
 BYTE   W02
 BYTE   PAN   c_v-42
 BYTE   W02
//  #08 //010   ----------------------------------------
 BYTE   PAN   c_v-41
 BYTE   N03  Cn4  v048
 BYTE   N03  En4
 BYTE   W03
 BYTE   PAN   c_v-40
 BYTE   W01
 BYTE   PAN   c_v-39
 BYTE   W03
 BYTE   PAN   c_v-38
 BYTE   W01
 BYTE   N03  Dn4
 BYTE   N03  Fn4
 BYTE   W01
 BYTE   PAN   c_v-37
 BYTE   W03
 BYTE   PAN   c_v-36
 BYTE   W03
 BYTE   PAN   c_v-35
 BYTE   W01
 BYTE   N03  Cn4
 BYTE   N03  En4
 BYTE   W02
 BYTE   PAN   c_v-34
 BYTE   W01
 BYTE   PAN   c_v-33
 BYTE   W03
 BYTE   PAN   c_v-32
 BYTE   W02
 BYTE   PAN   c_v-31
 BYTE   N03  Dn4
 BYTE   N03  Fn4
 BYTE   W03
 BYTE   PAN   c_v-30
 BYTE   W01
 BYTE   PAN   c_v-29
 BYTE   W03
 BYTE   PAN   c_v-28
 BYTE   W01
 BYTE   N03  Cn4  v056
 BYTE   N03  En4
 BYTE   W01
 BYTE   PAN   c_v-27
 BYTE   W03
 BYTE   PAN   c_v-26
 BYTE   W01
 BYTE   PAN   c_v-25
 BYTE   W03
 BYTE   PAN   c_v-24
 BYTE   N03  Dn4
 BYTE   N03  Fn4
 BYTE   W03
 BYTE   PAN   c_v-23
 BYTE   W02
 BYTE   PAN   c_v-22
 BYTE   W03
 BYTE   PAN   c_v-21
 BYTE   N03  Cn4  v060
 BYTE   N03  En4
 BYTE   W03
 BYTE   PAN   c_v-20
 BYTE   W01
 BYTE   PAN   c_v-19
 BYTE   W03
 BYTE   PAN   c_v-18
 BYTE   W01
 BYTE   N03  Dn4  v064
 BYTE   N03  Fn4
 BYTE   W01
 BYTE   PAN   c_v-17
 BYTE   W03
 BYTE   PAN   c_v-16
 BYTE   W03
 BYTE   PAN   c_v-15
 BYTE   W01
 BYTE   PAN   c_v-14
 BYTE   N03  Cn4  v072
 BYTE   N03  En4
 BYTE   W03
 BYTE   PAN   c_v-13
 BYTE   W02
 BYTE   PAN   c_v-12
 BYTE   W03
 BYTE   PAN   c_v-11
 BYTE   N03  Dn4  v076
 BYTE   N03  Fn4
 BYTE   W01
 BYTE   PAN   c_v-10
 BYTE   W03
 BYTE   PAN   c_v-9
 BYTE   W02
 BYTE   PAN   c_v-8
 BYTE   W02
 BYTE   N03  Cn4  v084
 BYTE   N03  En4
 BYTE   W02
 BYTE   PAN   c_v-7
 BYTE   W02
 BYTE   PAN   c_v-6
 BYTE   W03
 BYTE   PAN   c_v-5
 BYTE   W01
 BYTE   PAN   c_v-4
 BYTE   N03  Dn4  v088
 BYTE   N03  Fn4
 BYTE   W03
 BYTE   PAN   c_v-3
 BYTE   W02
 BYTE   PAN   c_v-2
 BYTE   W03
//  #08 //011   ----------------------------------------
 BYTE   PAN   c_v-1
 BYTE   N03  Cn4  v096
 BYTE   N03  En4
 BYTE   W01
 BYTE   PAN   c_v+0
 BYTE   W03
 BYTE   PAN   c_v+1
 BYTE   W02
 BYTE   PAN   c_v+2
 BYTE   N03  Dn4  v104
 BYTE   N03  Fn4
 BYTE   W03
 BYTE   PAN   c_v+3
 BYTE   W01
 BYTE   PAN   c_v+4
 BYTE   W02
 BYTE   N03  En4  v112
 BYTE   N03  Gn4
 BYTE   W01
 BYTE   PAN   c_v+5
 BYTE   W02
 BYTE   PAN   c_v+6
 BYTE   W03
 BYTE   N03  Fn4  v116
 BYTE   N03  An4
 BYTE   W01
 BYTE   PAN   c_v+7
 BYTE   W02
 BYTE   PAN   c_v+8
 BYTE   W03
 BYTE   PAN   c_v+9
 BYTE   N03  Gn4  v100
 BYTE   N03  As4
 BYTE   W01
 BYTE   PAN   c_v+10
 BYTE   W03
 BYTE   PAN   c_v+11
 BYTE   W02
 BYTE   PAN   c_v+12
 BYTE   N03  Fn4  v088
 BYTE   N03  An4
 BYTE   W03
 BYTE   PAN   c_v+13
 BYTE   W01
 BYTE   PAN   c_v+14
 BYTE   W02
 BYTE   N03  En4  v084
 BYTE   N03  Gn4
 BYTE   W01
 BYTE   PAN   c_v+15
 BYTE   W02
 BYTE   PAN   c_v+16
 BYTE   W03
 BYTE   PAN   c_v+17
 BYTE   N03  Dn4  v080
 BYTE   N03  Fn4
 BYTE   W03
 BYTE   PAN   c_v+18
 BYTE   W01
 BYTE   PAN   c_v+19
 BYTE   W02
 BYTE   N03  Cn4  v076
 BYTE   N03  En4
 BYTE   W01
 BYTE   PAN   c_v+20
 BYTE   W03
 BYTE   PAN   c_v+21
 BYTE   W02
 BYTE   PAN   c_v+22
 BYTE   W02
 BYTE   N03  As3  v068
 BYTE   N03  Dn4
 BYTE   W01
 BYTE   PAN   c_v+23
 BYTE   W01
 BYTE   PAN   c_v+24
 BYTE   W03
 BYTE   PAN   c_v+25
 BYTE   W03
 BYTE   PAN   c_v+26
 BYTE   N03  An3  v064
 BYTE   N03  Cn4
 BYTE   W02
 BYTE   PAN   c_v+27
 BYTE   W03
 BYTE   PAN   c_v+28
 BYTE   W01
 BYTE   PAN   c_v+29
 BYTE   W02
 BYTE   N03  Gn3  v060
 BYTE   N03  As3
 BYTE   W01
 BYTE   PAN   c_v+30
 BYTE   W02
 BYTE   PAN   c_v+31
 BYTE   W03
 BYTE   PAN   c_v+32
 BYTE   W01
 BYTE   PAN   c_v+33
 BYTE   W01
 BYTE   N03  An3  v056
 BYTE   N03  Cn4
 BYTE   W02
 BYTE   PAN   c_v+34
 BYTE   W03
 BYTE   PAN   c_v+35
 BYTE   W03
 BYTE   PAN   c_v+36
 BYTE   N03  As3
 BYTE   N03  Dn4
 BYTE   W02
 BYTE   PAN   c_v+37
 BYTE   W03
 BYTE   PAN   c_v+38
 BYTE   W01
 BYTE   PAN   c_v+39
 BYTE   W02
//  #08 //012   ----------------------------------------
 BYTE   N03  Cn5  v052
 BYTE   N03  En5
 BYTE   W01
 BYTE   PAN   c_v+41
 BYTE   W02
 BYTE   PAN   c_v+40
 BYTE   W03
 BYTE   PAN   c_v+39
 BYTE   W01
 BYTE   PAN   c_v+38
 BYTE   W01
 BYTE   N03  Dn5
 BYTE   N03  Fn5
 BYTE   W01
 BYTE   PAN   c_v+37
 BYTE   W03
 BYTE   PAN   c_v+36
 BYTE   W01
 BYTE   PAN   c_v+35
 BYTE   W03
 BYTE   PAN   c_v+34
 BYTE   N03  Cn5
 BYTE   N03  En5
 BYTE   W03
 BYTE   PAN   c_v+33
 BYTE   W02
 BYTE   PAN   c_v+32
 BYTE   W03
 BYTE   PAN   c_v+31
 BYTE   N03  Dn5
 BYTE   N03  Fn5
 BYTE   W01
 BYTE   PAN   c_v+30
 BYTE   W03
 BYTE   PAN   c_v+29
 BYTE   W02
 BYTE   PAN   c_v+28
 BYTE   W01
 BYTE   PAN   c_v+27
 BYTE   W01
 BYTE   N03  Cn5  v056
 BYTE   N03  En5
 BYTE   W02
 BYTE   PAN   c_v+26
 BYTE   W02
 BYTE   PAN   c_v+25
 BYTE   W03
 BYTE   PAN   c_v+24
 BYTE   W01
 BYTE   PAN   c_v+23
 BYTE   N03  Dn5
 BYTE   N03  Fn5
 BYTE   W03
 BYTE   PAN   c_v+22
 BYTE   W02
 BYTE   PAN   c_v+21
 BYTE   W01
 BYTE   PAN   c_v+20
 BYTE   W02
 BYTE   N03  Cn5  v060
 BYTE   N03  En5
 BYTE   W03
 BYTE   PAN   c_v+19
 BYTE   W01
 BYTE   PAN   c_v+18
 BYTE   W02
 BYTE   PAN   c_v+17
 BYTE   W02
 BYTE   N03  Dn5  v064
 BYTE   N03  Fn5
 BYTE   W01
 BYTE   PAN   c_v+16
 BYTE   W01
 BYTE   PAN   c_v+15
 BYTE   W03
 BYTE   PAN   c_v+14
 BYTE   W02
 BYTE   PAN   c_v+13
 BYTE   W01
 BYTE   N03  Cn5
 BYTE   N03  En5
 BYTE   W02
 BYTE   PAN   c_v+12
 BYTE   W01
 BYTE   PAN   c_v+11
 BYTE   W02
 BYTE   PAN   c_v+10
 BYTE   W03
 BYTE   PAN   c_v+9
 BYTE   N03  Dn5  v068
 BYTE   N03  Fn5
 BYTE   W01
 BYTE   PAN   c_v+8
 BYTE   W03
 BYTE   PAN   c_v+7
 BYTE   W02
 BYTE   PAN   c_v+6
 BYTE   W02
 BYTE   N03  Cn5  v076
 BYTE   N03  En5
 BYTE   W01
 BYTE   PAN   c_v+5
 BYTE   W03
 BYTE   PAN   c_v+4
 BYTE   W01
 BYTE   PAN   c_v+3
 BYTE   W03
 BYTE   PAN   c_v+2
 BYTE   N03  Dn5  v080
 BYTE   N03  Fn5
 BYTE   W02
 BYTE   PAN   c_v+1
 BYTE   W01
 BYTE   PAN   c_v+0
 BYTE   W03
 BYTE   PAN   c_v-1
 BYTE   W02
//  #08 //013   ----------------------------------------
 BYTE   PAN   c_v-2
 BYTE   N03  Cn5  v084
 BYTE   N03  En5
 BYTE   W03
 BYTE   PAN   c_v-3
 BYTE   W01
 BYTE   PAN   c_v-4
 BYTE   W02
 BYTE   N03  Dn5  v092
 BYTE   N03  Fn5
 BYTE   W01
 BYTE   PAN   c_v-5
 BYTE   W02
 BYTE   PAN   c_v-6
 BYTE   W01
 BYTE   PAN   c_v-7
 BYTE   W02
 BYTE   N03  En5  v096
 BYTE   N03  Gn5
 BYTE   W01
 BYTE   PAN   c_v-8
 BYTE   W03
 BYTE   PAN   c_v-9
 BYTE   W02
 BYTE   PAN   c_v-10
 BYTE   N03  Fn5  v100
 BYTE   N03  An5
 BYTE   W03
 BYTE   PAN   c_v-11
 BYTE   W01
 BYTE   PAN   c_v-12
 BYTE   W02
 BYTE   N03  Gn5  v108
 BYTE   N03  As5
 BYTE   W01
 BYTE   PAN   c_v-13
 BYTE   W02
 BYTE   PAN   c_v-14
 BYTE   W03
 BYTE   PAN   c_v-15
 BYTE   N03  Fn5  v092
 BYTE   N03  An5
 BYTE   W01
 BYTE   PAN   c_v-16
 BYTE   W02
 BYTE   PAN   c_v-17
 BYTE   W03
 BYTE   PAN   c_v-18
 BYTE   N03  En5  v088
 BYTE   N03  Gn5
 BYTE   W01
 BYTE   PAN   c_v-19
 BYTE   W03
 BYTE   PAN   c_v-20
 BYTE   W02
 BYTE   PAN   c_v-21
 BYTE   N03  Dn5  v084
 BYTE   N03  Fn5
 BYTE   W03
 BYTE   PAN   c_v-22
 BYTE   W03
 BYTE   PAN   c_v-23
 BYTE   N03  Cn5  v080
 BYTE   N03  En5
 BYTE   W01
 BYTE   PAN   c_v-24
 BYTE   W03
 BYTE   PAN   c_v-25
 BYTE   W02
 BYTE   PAN   c_v-26
 BYTE   W01
 BYTE   PAN   c_v-27
 BYTE   W01
 BYTE   N03  As4  v072
 BYTE   N03  Dn5
 BYTE   W02
 BYTE   PAN   c_v-28
 BYTE   W02
 BYTE   PAN   c_v-29
 BYTE   W03
 BYTE   PAN   c_v-30
 BYTE   W01
 BYTE   PAN   c_v-31
 BYTE   N03  An4  v068
 BYTE   N03  Cn5
 BYTE   W03
 BYTE   PAN   c_v-32
 BYTE   W02
 BYTE   PAN   c_v-33
 BYTE   W01
 BYTE   PAN   c_v-34
 BYTE   W02
 BYTE   N03  Gn4  v064
 BYTE   N03  As4
 BYTE   W01
 BYTE   PAN   c_v-35
 BYTE   W02
 BYTE   PAN   c_v-36
 BYTE   W03
 BYTE   PAN   c_v-37
 BYTE   W02
 BYTE   N03  En4  v060
 BYTE   N03  An4
 BYTE   W01
 BYTE   PAN   c_v-38
 BYTE   W01
 BYTE   PAN   c_v-39
 BYTE   W03
 BYTE   PAN   c_v-40
 BYTE   W02
 BYTE   PAN   c_v-41
 BYTE   W01
 BYTE   N03  Dn4  v056
 BYTE   N03  Gn4
 BYTE   W02
 BYTE   PAN   c_v-42
 BYTE   W01
 BYTE   PAN   c_v-43
 BYTE   W02
 BYTE   PAN   c_v-44
 BYTE   W03
//  #08 //014   ----------------------------------------
 BYTE   PAN   c_v-45
 BYTE   N03  Fn4  v052
 BYTE   N03  An4
 BYTE   W01
 BYTE   PAN   c_v-46
 BYTE   W05
 BYTE   PAN   c_v-44
 BYTE   W90
//  #08 //015   ----------------------------------------
 BYTE   W96
//  #08 //016   ----------------------------------------
 BYTE   W96
//  #08 //017   ----------------------------------------
 BYTE   W96
//  #08 //018   ----------------------------------------
 BYTE   W96
//  #08 //019   ----------------------------------------
 BYTE   W96
//  #08 //020   ----------------------------------------
 BYTE   W96
//  #08 //021   ----------------------------------------
 BYTE   W96
//  #08 //022   ----------------------------------------
 BYTE   W96
//  #08 //023   ----------------------------------------
 BYTE   W84
 BYTE   W03
 BYTE   PAN   c_v-40
 BYTE   W03
 BYTE   PAN   c_v-39
 BYTE   W03
 BYTE   PAN   c_v-38
 BYTE   W03
//  #08 //024   ----------------------------------------
 BYTE   PAN   c_v-37
 BYTE   N03  En4  v056
 BYTE   N03  An4
 BYTE   W01
 BYTE   PAN   c_v-36
 BYTE   W05
 BYTE   PAN   c_v-35
 BYTE   W01
 BYTE   PAN   c_v-34
 BYTE   W01
 BYTE   N03  Bn3
 BYTE   N03  En4
 BYTE   W02
 BYTE   PAN   c_v-33
 BYTE   W03
 BYTE   PAN   c_v-32
 BYTE   W02
 BYTE   PAN   c_v-31
 BYTE   W01
 BYTE   N03  Cn4
 BYTE   N03  Fn4
 BYTE   W02
 BYTE   PAN   c_v-30
 BYTE   W03
 BYTE   PAN   c_v-29
 BYTE   W01
 BYTE   PAN   c_v-28
 BYTE   W02
 BYTE   N03  En4
 BYTE   N03  An4
 BYTE   W01
 BYTE   PAN   c_v-27
 BYTE   W03
 BYTE   PAN   c_v-26
 BYTE   W02
 BYTE   PAN   c_v-25
 BYTE   W02
 BYTE   N03  Bn3  v060
 BYTE   N03  En4
 BYTE   W01
 BYTE   PAN   c_v-24
 BYTE   W03
 BYTE   PAN   c_v-23
 BYTE   W03
 BYTE   PAN   c_v-22
 BYTE   W01
 BYTE   N03  Cn4  v064
 BYTE   N03  Fn4
 BYTE   W02
 BYTE   PAN   c_v-21
 BYTE   W03
 BYTE   PAN   c_v-20
 BYTE   W01
 BYTE   PAN   c_v-19
 BYTE   W02
 BYTE   N03  En4  v068
 BYTE   N03  An4
 BYTE   W01
 BYTE   PAN   c_v-18
 BYTE   W03
 BYTE   PAN   c_v-17
 BYTE   W02
 BYTE   PAN   c_v-16
 BYTE   W02
 BYTE   N03  Bn3  v072
 BYTE   N03  En4
 BYTE   W01
 BYTE   PAN   c_v-15
 BYTE   W03
 BYTE   PAN   c_v-14
 BYTE   W01
 BYTE   PAN   c_v-13
 BYTE   W03
 BYTE   PAN   c_v-12
 BYTE   N03  Cn4  v080
 BYTE   N03  Fn4
 BYTE   W03
 BYTE   PAN   c_v-11
 BYTE   W02
 BYTE   PAN   c_v-10
 BYTE   W03
 BYTE   PAN   c_v-9
 BYTE   N03  En4  v084
 BYTE   N03  An4
 BYTE   W03
 BYTE   PAN   c_v-8
 BYTE   W03
 BYTE   PAN   c_v-7
 BYTE   W02
 BYTE   N03  Bn3  v092
 BYTE   N03  En4
 BYTE   W01
 BYTE   PAN   c_v-6
 BYTE   W03
 BYTE   PAN   c_v-5
 BYTE   W01
 BYTE   PAN   c_v-4
 BYTE   W03
 BYTE   PAN   c_v-3
 BYTE   N03  Cn4  v104
 BYTE   N03  Fn4
 BYTE   W03
 BYTE   PAN   c_v-2
 BYTE   W02
 BYTE   PAN   c_v-1
 BYTE   W03
//  #08 //025   ----------------------------------------
 BYTE   PAN   c_v+0
 BYTE   N03  En4  v108
 BYTE   N03  An4
 BYTE   W03
 BYTE   PAN   c_v+1
 BYTE   W01
 BYTE   PAN   c_v+2
 BYTE   W03
 BYTE   PAN   c_v+3
 BYTE   W01
 BYTE   N03  Bn3  v096
 BYTE   N03  En4
 BYTE   W02
 BYTE   PAN   c_v+4
 BYTE   W02
 BYTE   PAN   c_v+5
 BYTE   W03
 BYTE   PAN   c_v+6
 BYTE   W01
 BYTE   N03  Cn4  v088
 BYTE   N03  Fn4
 BYTE   W03
 BYTE   PAN   c_v+7
 BYTE   W02
 BYTE   PAN   c_v+8
 BYTE   W03
 BYTE   PAN   c_v+9
 BYTE   N03  En4  v076
 BYTE   N03  An4
 BYTE   W03
 BYTE   PAN   c_v+10
 BYTE   W01
 BYTE   PAN   c_v+11
 BYTE   W03
 BYTE   PAN   c_v+12
 BYTE   W01
 BYTE   N03  Bn3  v068
 BYTE   N03  En4
 BYTE   W02
 BYTE   PAN   c_v+13
 BYTE   W02
 BYTE   PAN   c_v+14
 BYTE   W03
 BYTE   PAN   c_v+15
 BYTE   W01
 BYTE   N03  Cn4  v060
 BYTE   N03  Fn4
 BYTE   W02
 BYTE   PAN   c_v+16
 BYTE   W01
 BYTE   PAN   c_v+17
 BYTE   W03
 BYTE   PAN   c_v+18
 BYTE   W02
 BYTE   N03  Gn4  v056
 BYTE   N03  Cn5
 BYTE   W01
 BYTE   PAN   c_v+19
 BYTE   W02
 BYTE   PAN   c_v+20
 BYTE   W04
 BYTE   PAN   c_v+21
 BYTE   W01
 BYTE   N03  Cn4  v052
 BYTE   N03  Fn4
 BYTE   W02
 BYTE   PAN   c_v+22
 BYTE   W02
 BYTE   PAN   c_v+23
 BYTE   W03
 BYTE   PAN   c_v+24
 BYTE   W01
 BYTE   N03  Dn4  v048
 BYTE   N03  Gn4
 BYTE   W02
 BYTE   PAN   c_v+25
 BYTE   W01
 BYTE   PAN   c_v+26
 BYTE   W03
 BYTE   PAN   c_v+27
 BYTE   W02
 BYTE   N03  Gn4  v044
 BYTE   N03  Cn5
 BYTE   W01
 BYTE   PAN   c_v+28
 BYTE   W02
 BYTE   PAN   c_v+29
 BYTE   W03
 BYTE   PAN   c_v+30
 BYTE   W02
 BYTE   N03  Cn4
 BYTE   N03  Fn4
 BYTE   W01
 BYTE   PAN   c_v+31
 BYTE   W01
 BYTE   PAN   c_v+32
 BYTE   W03
 BYTE   PAN   c_v+33
 BYTE   W03
 BYTE   PAN   c_v+34
 BYTE   N03  Dn4
 BYTE   N03  Gn4
 BYTE   W03
 BYTE   PAN   c_v+35
 BYTE   W03
 BYTE   PAN   c_v+36
 BYTE   W02
//  #08 //026   ----------------------------------------
 BYTE   W01
 BYTE   PAN   c_v+37
 BYTE   W02
 BYTE   PAN   c_v+38
 BYTE   W03
 BYTE   PAN   c_v+39
 BYTE   W03
 BYTE   PAN   c_v+40
 BYTE   W01
 BYTE   PAN   c_v+41
 BYTE   W03
 BYTE   PAN   c_v+42
 BYTE   W80
 BYTE   W03
//  #08 //027   ----------------------------------------
 BYTE   W96
//  #08 //028   ----------------------------------------
 BYTE   W96
//  #08 //029   ----------------------------------------
 BYTE   W96
//  #08 //030   ----------------------------------------
 BYTE   W96
//  #08 //031   ----------------------------------------
 BYTE   W96
//  #08 //032   ----------------------------------------
 BYTE   W96
//  #08 //033   ----------------------------------------
 BYTE   W96
//  #08 //034   ----------------------------------------
 BYTE   W09
 BYTE   PAN   c_v+42
 BYTE   W01
 BYTE   PAN   c_v+34
 BYTE   W01
 BYTE   N44  An2  v116
 BYTE   W01
 BYTE   PAN   c_v+25
 BYTE   W01
 BYTE   PAN   c_v+16
 BYTE   W02
 BYTE   PAN   c_v+8
 BYTE   N44  En3  v120
 BYTE   W01
 BYTE   PAN   c_v-1
 BYTE   W02
 BYTE   PAN   c_v-9
 BYTE   N44  An3  v124
 BYTE   W01
 BYTE   PAN   c_v-18
 BYTE   N44  Ds4
 BYTE   W02
 BYTE   PAN   c_v-26
 BYTE   W01
 BYTE   PAN   c_v-35
 BYTE   N44  Gs4  v127
 BYTE   W02
 BYTE   PAN   c_v-44
 BYTE   W01
 BYTE   N44  Cs5
 BYTE   W68
 BYTE   W03
//  #08 //035   ----------------------------------------
 BYTE   W09
 BYTE   PAN   c_v-54
 BYTE   W01
 BYTE   PAN   c_v-46
 BYTE   W02
 BYTE   PAN   c_v-38
 BYTE   N44  An5  v116
 BYTE   W01
 BYTE   PAN   c_v-29
 BYTE   W02
 BYTE   PAN   c_v-21
 BYTE   N44  En5  v120
 BYTE   W01
 BYTE   PAN   c_v-12
 BYTE   W02
 BYTE   PAN   c_v-4
 BYTE   N44  An4  v124
 BYTE   W01
 BYTE   PAN   c_v+4
 BYTE   W01
 BYTE   N44  Ds4
 BYTE   W01
 BYTE   PAN   c_v+13
 BYTE   W01
 BYTE   PAN   c_v+21
 BYTE   W01
 BYTE   N44  Gs3  v127
 BYTE   W01
 BYTE   PAN   c_v+30
 BYTE   W01
 BYTE   PAN   c_v+38
 BYTE   W01
 BYTE   N44  Cs3
 BYTE   W68
 BYTE   W02
//  #08 //036   ----------------------------------------
 BYTE   W09
 BYTE   PAN   c_v+38
 BYTE   W01
 BYTE   PAN   c_v+32
 BYTE   W02
 BYTE   PAN   c_v+24
 BYTE   N44  An2  v116
 BYTE   W01
 BYTE   PAN   c_v+18
 BYTE   W02
 BYTE   PAN   c_v+10
 BYTE   N44  En3  v120
 BYTE   W01
 BYTE   PAN   c_v+3
 BYTE   W02
 BYTE   PAN   c_v-4
 BYTE   N44  An3  v124
 BYTE   W01
 BYTE   PAN   c_v-11
 BYTE   W01
 BYTE   N44  Ds4
 BYTE   W01
 BYTE   PAN   c_v-18
 BYTE   W01
 BYTE   PAN   c_v-25
 BYTE   W01
 BYTE   N44  Gs4  v127
 BYTE   W01
 BYTE   PAN   c_v-32
 BYTE   W01
 BYTE   PAN   c_v-39
 BYTE   W01
 BYTE   N44  Cs5
 BYTE   W01
 BYTE   PAN   c_v-46
 BYTE   W68
 BYTE   W01
//  #08 //037   ----------------------------------------
 BYTE   W12
 BYTE   PAN   c_v-45
 BYTE   N44  An5  v116
 BYTE   W01
 BYTE   PAN   c_v-36
 BYTE   W02
 BYTE   PAN   c_v-27
 BYTE   W01
 BYTE   PAN   c_v-18
 BYTE   N44  En5  v120
 BYTE   W02
 BYTE   PAN   c_v-9
 BYTE   W01
 BYTE   PAN   c_v+0
 BYTE   N44  An4  v124
 BYTE   W02
 BYTE   PAN   c_v+9
 BYTE   N44  Ds4
 BYTE   W01
 BYTE   PAN   c_v+18
 BYTE   W01
 BYTE   N44  Gs3  v127
 BYTE   W01
 BYTE   PAN   c_v+27
 BYTE   W01
 BYTE   PAN   c_v+36
 BYTE   W01
 BYTE   N44  Cs3
 BYTE   W68
 BYTE   W02
//  #08 //038   ----------------------------------------
 BYTE   W09
 BYTE   PAN   c_v+43
 BYTE   W01
 BYTE   PAN   c_v+35
 BYTE   W02
 BYTE   PAN   c_v+26
 BYTE   N44  Fs2  v116
 BYTE   W01
 BYTE   PAN   c_v+18
 BYTE   W02
 BYTE   PAN   c_v+9
 BYTE   N44  Cs3  v120
 BYTE   W01
 BYTE   PAN   c_v+1
 BYTE   W02
 BYTE   PAN   c_v-8
 BYTE   N44  Fs3  v124
 BYTE   W01
 BYTE   PAN   c_v-17
 BYTE   W01
 BYTE   N44  Cn4
 BYTE   W01
 BYTE   PAN   c_v-25
 BYTE   W01
 BYTE   PAN   c_v-34
 BYTE   W01
 BYTE   N44  Fn4  v127
 BYTE   W01
 BYTE   PAN   c_v-42
 BYTE   W01
 BYTE   PAN   c_v-51
 BYTE   W01
 BYTE   N44  As4
 BYTE   W68
 BYTE   W02
//  #08 //039   ----------------------------------------
 BYTE   W10
 BYTE   PAN   c_v-51
 BYTE   W02
 BYTE   PAN   c_v-43
 BYTE   N44  Fs5  v116
 BYTE   W01
 BYTE   PAN   c_v-35
 BYTE   W02
 BYTE   PAN   c_v-27
 BYTE   W01
 BYTE   PAN   c_v-19
 BYTE   N44  Cs5  v120
 BYTE   W02
 BYTE   PAN   c_v-11
 BYTE   W01
 BYTE   PAN   c_v-3
 BYTE   N44  Fs4  v124
 BYTE   W02
 BYTE   PAN   c_v+5
 BYTE   N44  Cn4
 BYTE   W01
 BYTE   PAN   c_v+13
 BYTE   W01
 BYTE   N44  Fn3  v127
 BYTE   W01
 BYTE   PAN   c_v+21
 BYTE   W01
 BYTE   PAN   c_v+29
 BYTE   W01
 BYTE   N44  As2
 BYTE   W01
 BYTE   PAN   c_v+37
 BYTE   W68
 BYTE   W01
//  #08 //040   ----------------------------------------
 BYTE   W10
 BYTE   PAN   c_v+40
 BYTE   W02
 BYTE   PAN   c_v+32
 BYTE   N44  An2  v116
 BYTE   W01
 BYTE   PAN   c_v+24
 BYTE   W02
 BYTE   PAN   c_v+17
 BYTE   N44  En3  v120
 BYTE   W01
 BYTE   PAN   c_v+9
 BYTE   W02
 BYTE   PAN   c_v+1
 BYTE   N44  An3  v124
 BYTE   W01
 BYTE   PAN   c_v-7
 BYTE   W01
 BYTE   N44  Ds4
 BYTE   W01
 BYTE   PAN   c_v-14
 BYTE   W01
 BYTE   PAN   c_v-22
 BYTE   W01
 BYTE   N44  Gs4  v127
 BYTE   W01
 BYTE   PAN   c_v-30
 BYTE   W01
 BYTE   PAN   c_v-37
 BYTE   W01
 BYTE   N44  Cs5
 BYTE   W01
 BYTE   PAN   c_v-45
 BYTE   W68
 BYTE   W01
//  #08 //041   ----------------------------------------
 BYTE   W12
 BYTE   PAN   c_v-46
 BYTE   N44  An5  v116
 BYTE   W01
 BYTE   PAN   c_v-39
 BYTE   W02
 BYTE   PAN   c_v-31
 BYTE   W01
 BYTE   PAN   c_v-24
 BYTE   N44  En5  v120
 BYTE   W02
 BYTE   PAN   c_v-16
 BYTE   W01
 BYTE   PAN   c_v-9
 BYTE   N44  An4  v124
 BYTE   W02
 BYTE   PAN   c_v-1
 BYTE   N44  Ds4
 BYTE   W01
 BYTE   PAN   c_v+6
 BYTE   W01
 BYTE   N44  Gs3  v127
 BYTE   W01
 BYTE   PAN   c_v+14
 BYTE   W01
 BYTE   PAN   c_v+21
 BYTE   W01
 BYTE   N44  Cs3
 BYTE   W01
 BYTE   PAN   c_v+29
 BYTE   W01
 BYTE   PAN   c_v+36
 BYTE   W68
//  #08 //042   ----------------------------------------
 BYTE   GoTo
  POIN2 Label_016B1802
 BYTE   FINE

//**************** Track 9 (Midi-Chn.8) ****************//

UpperSteamCave_Song_009:
//  #09 //000   ----------------------------------------
 BYTE   KEYSH   UpperSteamCave_Song_key+0
Label_016B2032:
 BYTE   VOICE   40
 BYTE   MODT 0
 BYTE   LFOS 44
 BYTE   VOL   53*UpperSteamCave_Song_mvl/mxv
 BYTE   PAN   c_v-34
 BYTE   VOL   53*UpperSteamCave_Song_mvl/mxv
 BYTE   BEND   c_v+0
 BYTE   W96
//  #09 //001   ----------------------------------------
 BYTE   W96
//  #09 //002   ----------------------------------------
 BYTE   W96
//  #09 //003   ----------------------------------------
 BYTE   W96
//  #09 //004   ----------------------------------------
 BYTE   W96
//  #09 //005   ----------------------------------------
 BYTE   W96
//  #09 //006   ----------------------------------------
 BYTE   W96
//  #09 //007   ----------------------------------------
 BYTE   W96
//  #09 //008   ----------------------------------------
 BYTE   W42
 BYTE   W01
 BYTE   VOL   18*UpperSteamCave_Song_mvl/mxv
 BYTE   W05
 BYTE   N48  Dn3  v076
 BYTE   W01
 BYTE   VOL   19*UpperSteamCave_Song_mvl/mxv
 BYTE   W03
 BYTE   VOL   19*UpperSteamCave_Song_mvl/mxv
 BYTE   W03
 BYTE   VOL   19*UpperSteamCave_Song_mvl/mxv
 BYTE   W03
 BYTE   VOL   20*UpperSteamCave_Song_mvl/mxv
 BYTE   W02
 BYTE   VOL   20*UpperSteamCave_Song_mvl/mxv
 BYTE   W01
 BYTE   VOL   21*UpperSteamCave_Song_mvl/mxv
 BYTE   W02
 BYTE   VOL   22*UpperSteamCave_Song_mvl/mxv
 BYTE   W01
 BYTE   VOL   22*UpperSteamCave_Song_mvl/mxv
 BYTE   W02
 BYTE   VOL   23*UpperSteamCave_Song_mvl/mxv
 BYTE   W01
 BYTE   VOL   23*UpperSteamCave_Song_mvl/mxv
 BYTE   W02
 BYTE   VOL   24*UpperSteamCave_Song_mvl/mxv
 BYTE   W01
 BYTE   VOL   26*UpperSteamCave_Song_mvl/mxv
 BYTE   W02
 BYTE   VOL   27*UpperSteamCave_Song_mvl/mxv
 BYTE   W01
 BYTE   VOL   27*UpperSteamCave_Song_mvl/mxv
 BYTE   W02
 BYTE   VOL   28*UpperSteamCave_Song_mvl/mxv
 BYTE   W01
 BYTE   VOL   29*UpperSteamCave_Song_mvl/mxv
 BYTE   W02
 BYTE   VOL   30*UpperSteamCave_Song_mvl/mxv
 BYTE   W01
 BYTE   VOL   32*UpperSteamCave_Song_mvl/mxv
 BYTE   W02
 BYTE   VOL   33*UpperSteamCave_Song_mvl/mxv
 BYTE   W01
 BYTE   VOL   34*UpperSteamCave_Song_mvl/mxv
 BYTE   W02
 BYTE   VOL   36*UpperSteamCave_Song_mvl/mxv
 BYTE   W01
 BYTE   VOL   37*UpperSteamCave_Song_mvl/mxv
 BYTE   W02
 BYTE   VOL   39*UpperSteamCave_Song_mvl/mxv
 BYTE   W01
 BYTE   VOL   40*UpperSteamCave_Song_mvl/mxv
 BYTE   W02
 BYTE   VOL   43*UpperSteamCave_Song_mvl/mxv
 BYTE   W01
 BYTE   VOL   44*UpperSteamCave_Song_mvl/mxv
 BYTE   W02
 BYTE   VOL   46*UpperSteamCave_Song_mvl/mxv
 BYTE   W01
 BYTE   VOL   48*UpperSteamCave_Song_mvl/mxv
 BYTE   W02
//  #09 //009   ----------------------------------------
 BYTE   N72  Gn3
 BYTE   W01
 BYTE   VOL   52*UpperSteamCave_Song_mvl/mxv
 BYTE   W12
 BYTE   VOL   51*UpperSteamCave_Song_mvl/mxv
 BYTE   W09
 BYTE   VOL   51*UpperSteamCave_Song_mvl/mxv
 BYTE   W05
 BYTE   VOL   50*UpperSteamCave_Song_mvl/mxv
 BYTE   W04
 BYTE   VOL   50*UpperSteamCave_Song_mvl/mxv
 BYTE   W05
 BYTE   VOL   49*UpperSteamCave_Song_mvl/mxv
 BYTE   W03
 BYTE   VOL   48*UpperSteamCave_Song_mvl/mxv
 BYTE   W04
 BYTE   VOL   47*UpperSteamCave_Song_mvl/mxv
 BYTE   W03
 BYTE   VOL   46*UpperSteamCave_Song_mvl/mxv
 BYTE   W02
 BYTE   VOL   46*UpperSteamCave_Song_mvl/mxv
 BYTE   W03
 BYTE   VOL   45*UpperSteamCave_Song_mvl/mxv
 BYTE   W03
 BYTE   VOL   45*UpperSteamCave_Song_mvl/mxv
 BYTE   W03
 BYTE   VOL   44*UpperSteamCave_Song_mvl/mxv
 BYTE   W01
 BYTE   VOL   43*UpperSteamCave_Song_mvl/mxv
 BYTE   W03
 BYTE   VOL   43*UpperSteamCave_Song_mvl/mxv
 BYTE   W03
 BYTE   VOL   42*UpperSteamCave_Song_mvl/mxv
 BYTE   W02
 BYTE   VOL   41*UpperSteamCave_Song_mvl/mxv
 BYTE   W01
 BYTE   VOL   40*UpperSteamCave_Song_mvl/mxv
 BYTE   W03
 BYTE   VOL   40*UpperSteamCave_Song_mvl/mxv
 BYTE   W02
 BYTE   VOL   40*UpperSteamCave_Song_mvl/mxv
 BYTE   N24  Fn3
 BYTE   W01
 BYTE   VOL   39*UpperSteamCave_Song_mvl/mxv
 BYTE   W02
 BYTE   VOL   38*UpperSteamCave_Song_mvl/mxv
 BYTE   W01
 BYTE   VOL   37*UpperSteamCave_Song_mvl/mxv
 BYTE   W02
 BYTE   VOL   37*UpperSteamCave_Song_mvl/mxv
 BYTE   W03
 BYTE   VOL   37*UpperSteamCave_Song_mvl/mxv
 BYTE   W01
 BYTE   VOL   36*UpperSteamCave_Song_mvl/mxv
 BYTE   W02
 BYTE   VOL   35*UpperSteamCave_Song_mvl/mxv
 BYTE   W01
 BYTE   VOL   34*UpperSteamCave_Song_mvl/mxv
 BYTE   W02
 BYTE   VOL   34*UpperSteamCave_Song_mvl/mxv
 BYTE   W01
 BYTE   VOL   34*UpperSteamCave_Song_mvl/mxv
 BYTE   W02
 BYTE   VOL   33*UpperSteamCave_Song_mvl/mxv
 BYTE   W01
 BYTE   VOL   33*UpperSteamCave_Song_mvl/mxv
 BYTE   W02
 BYTE   VOL   34*UpperSteamCave_Song_mvl/mxv
 BYTE   W01
 BYTE   VOL   33*UpperSteamCave_Song_mvl/mxv
 BYTE   W02
//  #09 //010   ----------------------------------------
 BYTE   N48  En3
 BYTE   W04
 BYTE   VOL   34*UpperSteamCave_Song_mvl/mxv
 BYTE   W03
 BYTE   VOL   34*UpperSteamCave_Song_mvl/mxv
 BYTE   W05
 BYTE   VOL   34*UpperSteamCave_Song_mvl/mxv
 BYTE   W01
 BYTE   VOL   35*UpperSteamCave_Song_mvl/mxv
 BYTE   W02
 BYTE   VOL   36*UpperSteamCave_Song_mvl/mxv
 BYTE   W01
 BYTE   VOL   37*UpperSteamCave_Song_mvl/mxv
 BYTE   W02
 BYTE   VOL   37*UpperSteamCave_Song_mvl/mxv
 BYTE   W01
 BYTE   VOL   37*UpperSteamCave_Song_mvl/mxv
 BYTE   W02
 BYTE   VOL   39*UpperSteamCave_Song_mvl/mxv
 BYTE   W01
 BYTE   VOL   40*UpperSteamCave_Song_mvl/mxv
 BYTE   W02
 BYTE   VOL   40*UpperSteamCave_Song_mvl/mxv
 BYTE   W01
 BYTE   VOL   41*UpperSteamCave_Song_mvl/mxv
 BYTE   W02
 BYTE   VOL   43*UpperSteamCave_Song_mvl/mxv
 BYTE   W01
 BYTE   VOL   43*UpperSteamCave_Song_mvl/mxv
 BYTE   W02
 BYTE   VOL   45*UpperSteamCave_Song_mvl/mxv
 BYTE   W01
 BYTE   VOL   46*UpperSteamCave_Song_mvl/mxv
 BYTE   W02
 BYTE   VOL   47*UpperSteamCave_Song_mvl/mxv
 BYTE   W01
 BYTE   VOL   49*UpperSteamCave_Song_mvl/mxv
 BYTE   W02
 BYTE   VOL   50*UpperSteamCave_Song_mvl/mxv
 BYTE   W01
 BYTE   VOL   53*UpperSteamCave_Song_mvl/mxv
 BYTE   W03
 BYTE   VOL   51*UpperSteamCave_Song_mvl/mxv
 BYTE   W02
 BYTE   VOL   47*UpperSteamCave_Song_mvl/mxv
 BYTE   W01
 BYTE   VOL   43*UpperSteamCave_Song_mvl/mxv
 BYTE   W02
 BYTE   VOL   37*UpperSteamCave_Song_mvl/mxv
 BYTE   W01
 BYTE   VOL   31*UpperSteamCave_Song_mvl/mxv
 BYTE   W02
 BYTE   VOL   24*UpperSteamCave_Song_mvl/mxv
 BYTE   N96  Cn3
 BYTE   W01
 BYTE   VOL   25*UpperSteamCave_Song_mvl/mxv
 BYTE   W08
 BYTE   VOL   26*UpperSteamCave_Song_mvl/mxv
 BYTE   W03
 BYTE   VOL   27*UpperSteamCave_Song_mvl/mxv
 BYTE   W04
 BYTE   VOL   27*UpperSteamCave_Song_mvl/mxv
 BYTE   W02
 BYTE   VOL   27*UpperSteamCave_Song_mvl/mxv
 BYTE   W03
 BYTE   VOL   28*UpperSteamCave_Song_mvl/mxv
 BYTE   W01
 BYTE   VOL   28*UpperSteamCave_Song_mvl/mxv
 BYTE   W02
 BYTE   VOL   29*UpperSteamCave_Song_mvl/mxv
 BYTE   W01
 BYTE   VOL   29*UpperSteamCave_Song_mvl/mxv
 BYTE   W02
 BYTE   VOL   30*UpperSteamCave_Song_mvl/mxv
 BYTE   W01
 BYTE   VOL   31*UpperSteamCave_Song_mvl/mxv
 BYTE   W02
 BYTE   VOL   32*UpperSteamCave_Song_mvl/mxv
 BYTE   W01
 BYTE   VOL   32*UpperSteamCave_Song_mvl/mxv
 BYTE   W02
 BYTE   VOL   34*UpperSteamCave_Song_mvl/mxv
 BYTE   W01
 BYTE   VOL   34*UpperSteamCave_Song_mvl/mxv
 BYTE   W02
 BYTE   VOL   34*UpperSteamCave_Song_mvl/mxv
 BYTE   W01
 BYTE   VOL   36*UpperSteamCave_Song_mvl/mxv
 BYTE   W02
 BYTE   VOL   37*UpperSteamCave_Song_mvl/mxv
 BYTE   W01
 BYTE   VOL   37*UpperSteamCave_Song_mvl/mxv
 BYTE   W02
 BYTE   VOL   39*UpperSteamCave_Song_mvl/mxv
 BYTE   W01
 BYTE   VOL   40*UpperSteamCave_Song_mvl/mxv
 BYTE   W02
 BYTE   VOL   40*UpperSteamCave_Song_mvl/mxv
 BYTE   W01
 BYTE   VOL   42*UpperSteamCave_Song_mvl/mxv
 BYTE   W02
//  #09 //011   ----------------------------------------
 BYTE   VOL   43*UpperSteamCave_Song_mvl/mxv
 BYTE   W01
 BYTE   VOL   45*UpperSteamCave_Song_mvl/mxv
 BYTE   W02
 BYTE   VOL   46*UpperSteamCave_Song_mvl/mxv
 BYTE   W01
 BYTE   VOL   47*UpperSteamCave_Song_mvl/mxv
 BYTE   W02
 BYTE   VOL   50*UpperSteamCave_Song_mvl/mxv
 BYTE   W01
 BYTE   VOL   51*UpperSteamCave_Song_mvl/mxv
 BYTE   W02
 BYTE   VOL   51*UpperSteamCave_Song_mvl/mxv
 BYTE   W09
 BYTE   VOL   51*UpperSteamCave_Song_mvl/mxv
 BYTE   W03
 BYTE   VOL   50*UpperSteamCave_Song_mvl/mxv
 BYTE   W01
 BYTE   VOL   50*UpperSteamCave_Song_mvl/mxv
 BYTE   W03
 BYTE   VOL   49*UpperSteamCave_Song_mvl/mxv
 BYTE   W02
 BYTE   VOL   48*UpperSteamCave_Song_mvl/mxv
 BYTE   W01
 BYTE   VOL   47*UpperSteamCave_Song_mvl/mxv
 BYTE   W02
 BYTE   VOL   46*UpperSteamCave_Song_mvl/mxv
 BYTE   W01
 BYTE   VOL   46*UpperSteamCave_Song_mvl/mxv
 BYTE   W02
 BYTE   VOL   45*UpperSteamCave_Song_mvl/mxv
 BYTE   W01
 BYTE   VOL   45*UpperSteamCave_Song_mvl/mxv
 BYTE   W02
 BYTE   VOL   43*UpperSteamCave_Song_mvl/mxv
 BYTE   W03
 BYTE   VOL   41*UpperSteamCave_Song_mvl/mxv
 BYTE   W01
 BYTE   VOL   40*UpperSteamCave_Song_mvl/mxv
 BYTE   W02
 BYTE   VOL   37*UpperSteamCave_Song_mvl/mxv
 BYTE   W01
 BYTE   VOL   34*UpperSteamCave_Song_mvl/mxv
 BYTE   W02
 BYTE   VOL   30*UpperSteamCave_Song_mvl/mxv
 BYTE   W01
 BYTE   VOL   21*UpperSteamCave_Song_mvl/mxv
 BYTE   W02
 BYTE   VOL   22*UpperSteamCave_Song_mvl/mxv
 BYTE   N36  Cn4
 BYTE   W03
 BYTE   VOL   22*UpperSteamCave_Song_mvl/mxv
 BYTE   W01
 BYTE   VOL   22*UpperSteamCave_Song_mvl/mxv
 BYTE   W02
 BYTE   VOL   23*UpperSteamCave_Song_mvl/mxv
 BYTE   W01
 BYTE   VOL   24*UpperSteamCave_Song_mvl/mxv
 BYTE   W02
 BYTE   VOL   26*UpperSteamCave_Song_mvl/mxv
 BYTE   W01
 BYTE   VOL   27*UpperSteamCave_Song_mvl/mxv
 BYTE   W02
 BYTE   VOL   28*UpperSteamCave_Song_mvl/mxv
 BYTE   W01
 BYTE   VOL   30*UpperSteamCave_Song_mvl/mxv
 BYTE   W02
 BYTE   VOL   32*UpperSteamCave_Song_mvl/mxv
 BYTE   W01
 BYTE   VOL   34*UpperSteamCave_Song_mvl/mxv
 BYTE   W02
 BYTE   VOL   37*UpperSteamCave_Song_mvl/mxv
 BYTE   W01
 BYTE   VOL   40*UpperSteamCave_Song_mvl/mxv
 BYTE   W02
 BYTE   VOL   43*UpperSteamCave_Song_mvl/mxv
 BYTE   W01
 BYTE   VOL   45*UpperSteamCave_Song_mvl/mxv
 BYTE   W02
 BYTE   VOL   51*UpperSteamCave_Song_mvl/mxv
 BYTE   W01
 BYTE   VOL   51*UpperSteamCave_Song_mvl/mxv
 BYTE   W03
 BYTE   VOL   52*UpperSteamCave_Song_mvl/mxv
 BYTE   W08
 BYTE   N12  As3
 BYTE   W12
//  #09 //012   ----------------------------------------
 BYTE   VOL   52*UpperSteamCave_Song_mvl/mxv
 BYTE   TIE  An3
 BYTE   W09
 BYTE   VOL   51*UpperSteamCave_Song_mvl/mxv
 BYTE   W06
 BYTE   VOL   51*UpperSteamCave_Song_mvl/mxv
 BYTE   W04
 BYTE   VOL   50*UpperSteamCave_Song_mvl/mxv
 BYTE   W03
 BYTE   VOL   50*UpperSteamCave_Song_mvl/mxv
 BYTE   W03
 BYTE   VOL   49*UpperSteamCave_Song_mvl/mxv
 BYTE   W03
 BYTE   VOL   48*UpperSteamCave_Song_mvl/mxv
 BYTE   W03
 BYTE   VOL   47*UpperSteamCave_Song_mvl/mxv
 BYTE   W02
 BYTE   VOL   46*UpperSteamCave_Song_mvl/mxv
 BYTE   W03
 BYTE   VOL   46*UpperSteamCave_Song_mvl/mxv
 BYTE   W01
 BYTE   VOL   45*UpperSteamCave_Song_mvl/mxv
 BYTE   W02
 BYTE   VOL   45*UpperSteamCave_Song_mvl/mxv
 BYTE   W01
 BYTE   VOL   44*UpperSteamCave_Song_mvl/mxv
 BYTE   W02
 BYTE   VOL   43*UpperSteamCave_Song_mvl/mxv
 BYTE   W03
 BYTE   VOL   43*UpperSteamCave_Song_mvl/mxv
 BYTE   W01
 BYTE   VOL   42*UpperSteamCave_Song_mvl/mxv
 BYTE   W02
 BYTE   VOL   41*UpperSteamCave_Song_mvl/mxv
 BYTE   W01
 BYTE   VOL   40*UpperSteamCave_Song_mvl/mxv
 BYTE   W02
 BYTE   VOL   40*UpperSteamCave_Song_mvl/mxv
 BYTE   W01
 BYTE   VOL   40*UpperSteamCave_Song_mvl/mxv
 BYTE   W02
 BYTE   VOL   39*UpperSteamCave_Song_mvl/mxv
 BYTE   W01
 BYTE   VOL   38*UpperSteamCave_Song_mvl/mxv
 BYTE   W02
 BYTE   VOL   37*UpperSteamCave_Song_mvl/mxv
 BYTE   W01
 BYTE   VOL   37*UpperSteamCave_Song_mvl/mxv
 BYTE   W02
 BYTE   VOL   36*UpperSteamCave_Song_mvl/mxv
 BYTE   W01
 BYTE   VOL   35*UpperSteamCave_Song_mvl/mxv
 BYTE   W02
 BYTE   VOL   34*UpperSteamCave_Song_mvl/mxv
 BYTE   W01
 BYTE   VOL   34*UpperSteamCave_Song_mvl/mxv
 BYTE   W02
 BYTE   VOL   33*UpperSteamCave_Song_mvl/mxv
 BYTE   W01
 BYTE   VOL   32*UpperSteamCave_Song_mvl/mxv
 BYTE   W02
 BYTE   VOL   31*UpperSteamCave_Song_mvl/mxv
 BYTE   W01
 BYTE   VOL   30*UpperSteamCave_Song_mvl/mxv
 BYTE   W02
 BYTE   VOL   29*UpperSteamCave_Song_mvl/mxv
 BYTE   W01
 BYTE   VOL   29*UpperSteamCave_Song_mvl/mxv
 BYTE   W02
 BYTE   VOL   28*UpperSteamCave_Song_mvl/mxv
 BYTE   W01
 BYTE   VOL   27*UpperSteamCave_Song_mvl/mxv
 BYTE   W02
 BYTE   VOL   27*UpperSteamCave_Song_mvl/mxv
 BYTE   W01
 BYTE   VOL   26*UpperSteamCave_Song_mvl/mxv
 BYTE   W02
 BYTE   VOL   24*UpperSteamCave_Song_mvl/mxv
 BYTE   W01
 BYTE   VOL   23*UpperSteamCave_Song_mvl/mxv
 BYTE   W02
 BYTE   VOL   22*UpperSteamCave_Song_mvl/mxv
 BYTE   W01
 BYTE   VOL   22*UpperSteamCave_Song_mvl/mxv
 BYTE   W02
 BYTE   VOL   21*UpperSteamCave_Song_mvl/mxv
 BYTE   W01
 BYTE   VOL   20*UpperSteamCave_Song_mvl/mxv
 BYTE   W02
 BYTE   VOL   19*UpperSteamCave_Song_mvl/mxv
 BYTE   W01
 BYTE   VOL   18*UpperSteamCave_Song_mvl/mxv
 BYTE   W02
 BYTE   VOL   17*UpperSteamCave_Song_mvl/mxv
 BYTE   W01
 BYTE   VOL   17*UpperSteamCave_Song_mvl/mxv
 BYTE   W02
//  #09 //013   ----------------------------------------
 BYTE   VOL   15*UpperSteamCave_Song_mvl/mxv
 BYTE   W01
 BYTE   VOL   15*UpperSteamCave_Song_mvl/mxv
 BYTE   W02
 BYTE   VOL   14*UpperSteamCave_Song_mvl/mxv
 BYTE   W01
 BYTE   VOL   13*UpperSteamCave_Song_mvl/mxv
 BYTE   W02
 BYTE   VOL   12*UpperSteamCave_Song_mvl/mxv
 BYTE   W01
 BYTE   VOL   11*UpperSteamCave_Song_mvl/mxv
 BYTE   W02
 BYTE   VOL   10*UpperSteamCave_Song_mvl/mxv
 BYTE   W03
 BYTE   VOL   11*UpperSteamCave_Song_mvl/mxv
 BYTE   W03
 BYTE   VOL   11*UpperSteamCave_Song_mvl/mxv
 BYTE   W01
 BYTE   VOL   11*UpperSteamCave_Song_mvl/mxv
 BYTE   W02
 BYTE   VOL   12*UpperSteamCave_Song_mvl/mxv
 BYTE   W01
 BYTE   VOL   13*UpperSteamCave_Song_mvl/mxv
 BYTE   W02
 BYTE   VOL   14*UpperSteamCave_Song_mvl/mxv
 BYTE   W01
 BYTE   VOL   15*UpperSteamCave_Song_mvl/mxv
 BYTE   W02
 BYTE   EOT
 BYTE   VOL   16*UpperSteamCave_Song_mvl/mxv
 BYTE   N24  Gn3
 BYTE   W01
 BYTE   VOL   17*UpperSteamCave_Song_mvl/mxv
 BYTE   W02
 BYTE   VOL   19*UpperSteamCave_Song_mvl/mxv
 BYTE   W01
 BYTE   VOL   20*UpperSteamCave_Song_mvl/mxv
 BYTE   W02
 BYTE   VOL   22*UpperSteamCave_Song_mvl/mxv
 BYTE   W01
 BYTE   VOL   23*UpperSteamCave_Song_mvl/mxv
 BYTE   W02
 BYTE   VOL   27*UpperSteamCave_Song_mvl/mxv
 BYTE   W01
 BYTE   VOL   28*UpperSteamCave_Song_mvl/mxv
 BYTE   W02
 BYTE   VOL   31*UpperSteamCave_Song_mvl/mxv
 BYTE   W01
 BYTE   VOL   34*UpperSteamCave_Song_mvl/mxv
 BYTE   W02
 BYTE   VOL   37*UpperSteamCave_Song_mvl/mxv
 BYTE   W01
 BYTE   VOL   40*UpperSteamCave_Song_mvl/mxv
 BYTE   W02
 BYTE   VOL   45*UpperSteamCave_Song_mvl/mxv
 BYTE   W01
 BYTE   VOL   49*UpperSteamCave_Song_mvl/mxv
 BYTE   W02
 BYTE   VOL   52*UpperSteamCave_Song_mvl/mxv
 BYTE   W03
 BYTE   TIE  An3
 BYTE   W01
 BYTE   VOL   52*UpperSteamCave_Song_mvl/mxv
 BYTE   W14
 BYTE   VOL   51*UpperSteamCave_Song_mvl/mxv
 BYTE   W09
 BYTE   VOL   51*UpperSteamCave_Song_mvl/mxv
 BYTE   W06
 BYTE   VOL   50*UpperSteamCave_Song_mvl/mxv
 BYTE   W04
 BYTE   VOL   50*UpperSteamCave_Song_mvl/mxv
 BYTE   W05
 BYTE   VOL   49*UpperSteamCave_Song_mvl/mxv
 BYTE   W04
 BYTE   VOL   48*UpperSteamCave_Song_mvl/mxv
 BYTE   W03
 BYTE   VOL   47*UpperSteamCave_Song_mvl/mxv
 BYTE   W02
//  #09 //014   ----------------------------------------
 BYTE   W01
 BYTE   VOL   46*UpperSteamCave_Song_mvl/mxv
 BYTE   W03
 BYTE   VOL   46*UpperSteamCave_Song_mvl/mxv
 BYTE   W03
 BYTE   VOL   45*UpperSteamCave_Song_mvl/mxv
 BYTE   W03
 BYTE   VOL   45*UpperSteamCave_Song_mvl/mxv
 BYTE   W03
 BYTE   VOL   44*UpperSteamCave_Song_mvl/mxv
 BYTE   W03
 BYTE   VOL   43*UpperSteamCave_Song_mvl/mxv
 BYTE   W02
 BYTE   VOL   43*UpperSteamCave_Song_mvl/mxv
 BYTE   W03
 BYTE   VOL   42*UpperSteamCave_Song_mvl/mxv
 BYTE   W03
 BYTE   VOL   41*UpperSteamCave_Song_mvl/mxv
 BYTE   W01
 BYTE   VOL   40*UpperSteamCave_Song_mvl/mxv
 BYTE   W03
 BYTE   VOL   40*UpperSteamCave_Song_mvl/mxv
 BYTE   W02
 BYTE   VOL   40*UpperSteamCave_Song_mvl/mxv
 BYTE   W01
 BYTE   VOL   39*UpperSteamCave_Song_mvl/mxv
 BYTE   W03
 BYTE   VOL   38*UpperSteamCave_Song_mvl/mxv
 BYTE   W02
 BYTE   VOL   37*UpperSteamCave_Song_mvl/mxv
 BYTE   W01
 BYTE   VOL   37*UpperSteamCave_Song_mvl/mxv
 BYTE   W02
 BYTE   VOL   37*UpperSteamCave_Song_mvl/mxv
 BYTE   W01
 BYTE   VOL   36*UpperSteamCave_Song_mvl/mxv
 BYTE   W03
 BYTE   VOL   35*UpperSteamCave_Song_mvl/mxv
 BYTE   W02
 BYTE   VOL   34*UpperSteamCave_Song_mvl/mxv
 BYTE   W01
 BYTE   VOL   34*UpperSteamCave_Song_mvl/mxv
 BYTE   W02
 BYTE   VOL   34*UpperSteamCave_Song_mvl/mxv
 BYTE   W03
 BYTE   VOL   33*UpperSteamCave_Song_mvl/mxv
 BYTE   W01
 BYTE   VOL   32*UpperSteamCave_Song_mvl/mxv
 BYTE   W02
 BYTE   VOL   32*UpperSteamCave_Song_mvl/mxv
 BYTE   W01
 BYTE   VOL   31*UpperSteamCave_Song_mvl/mxv
 BYTE   W02
 BYTE   VOL   30*UpperSteamCave_Song_mvl/mxv
 BYTE   W01
 BYTE   VOL   30*UpperSteamCave_Song_mvl/mxv
 BYTE   W02
 BYTE   VOL   29*UpperSteamCave_Song_mvl/mxv
 BYTE   W01
 BYTE   VOL   28*UpperSteamCave_Song_mvl/mxv
 BYTE   W02
 BYTE   VOL   28*UpperSteamCave_Song_mvl/mxv
 BYTE   W01
 BYTE   VOL   27*UpperSteamCave_Song_mvl/mxv
 BYTE   W02
 BYTE   VOL   27*UpperSteamCave_Song_mvl/mxv
 BYTE   W01
 BYTE   VOL   27*UpperSteamCave_Song_mvl/mxv
 BYTE   W02
 BYTE   VOL   26*UpperSteamCave_Song_mvl/mxv
 BYTE   W01
 BYTE   VOL   25*UpperSteamCave_Song_mvl/mxv
 BYTE   W02
 BYTE   VOL   24*UpperSteamCave_Song_mvl/mxv
 BYTE   W01
 BYTE   VOL   23*UpperSteamCave_Song_mvl/mxv
 BYTE   W02
 BYTE   VOL   23*UpperSteamCave_Song_mvl/mxv
 BYTE   W01
 BYTE   VOL   23*UpperSteamCave_Song_mvl/mxv
 BYTE   W02
 BYTE   VOL   22*UpperSteamCave_Song_mvl/mxv
 BYTE   W01
 BYTE   VOL   22*UpperSteamCave_Song_mvl/mxv
 BYTE   W02
 BYTE   VOL   21*UpperSteamCave_Song_mvl/mxv
 BYTE   W01
 BYTE   VOL   20*UpperSteamCave_Song_mvl/mxv
 BYTE   W02
 BYTE   VOL   19*UpperSteamCave_Song_mvl/mxv
 BYTE   W01
 BYTE   VOL   19*UpperSteamCave_Song_mvl/mxv
 BYTE   W02
 BYTE   VOL   19*UpperSteamCave_Song_mvl/mxv
 BYTE   W01
 BYTE   VOL   18*UpperSteamCave_Song_mvl/mxv
 BYTE   W02
 BYTE   VOL   17*UpperSteamCave_Song_mvl/mxv
 BYTE   W01
 BYTE   VOL   17*UpperSteamCave_Song_mvl/mxv
 BYTE   W02
 BYTE   VOL   17*UpperSteamCave_Song_mvl/mxv
 BYTE   W01
 BYTE   VOL   15*UpperSteamCave_Song_mvl/mxv
 BYTE   W02
//  #09 //015   ----------------------------------------
 BYTE   VOL   15*UpperSteamCave_Song_mvl/mxv
 BYTE   W01
 BYTE   VOL   14*UpperSteamCave_Song_mvl/mxv
 BYTE   W02
 BYTE   VOL   14*UpperSteamCave_Song_mvl/mxv
 BYTE   W01
 BYTE   VOL   13*UpperSteamCave_Song_mvl/mxv
 BYTE   W02
 BYTE   VOL   13*UpperSteamCave_Song_mvl/mxv
 BYTE   W01
 BYTE   VOL   12*UpperSteamCave_Song_mvl/mxv
 BYTE   W02
 BYTE   VOL   11*UpperSteamCave_Song_mvl/mxv
 BYTE   W01
 BYTE   VOL   11*UpperSteamCave_Song_mvl/mxv
 BYTE   W02
 BYTE   VOL   11*UpperSteamCave_Song_mvl/mxv
 BYTE   W01
 BYTE   VOL   10*UpperSteamCave_Song_mvl/mxv
 BYTE   W02
 BYTE   VOL   10*UpperSteamCave_Song_mvl/mxv
 BYTE   W01
 BYTE   VOL   9*UpperSteamCave_Song_mvl/mxv
 BYTE   W02
 BYTE   VOL   8*UpperSteamCave_Song_mvl/mxv
 BYTE   W01
 BYTE   VOL   8*UpperSteamCave_Song_mvl/mxv
 BYTE   W02
 BYTE   VOL   8*UpperSteamCave_Song_mvl/mxv
 BYTE   W01
 BYTE   VOL   6*UpperSteamCave_Song_mvl/mxv
 BYTE   W02
 BYTE   VOL   6*UpperSteamCave_Song_mvl/mxv
 BYTE   W01
 BYTE   VOL   6*UpperSteamCave_Song_mvl/mxv
 BYTE   W02
 BYTE   VOL   5*UpperSteamCave_Song_mvl/mxv
 BYTE   W01
 BYTE   VOL   5*UpperSteamCave_Song_mvl/mxv
 BYTE   W02
 BYTE   VOL   5*UpperSteamCave_Song_mvl/mxv
 BYTE   W01
 BYTE   VOL   4*UpperSteamCave_Song_mvl/mxv
 BYTE   W02
 BYTE   VOL   4*UpperSteamCave_Song_mvl/mxv
 BYTE   W01
 BYTE   VOL   3*UpperSteamCave_Song_mvl/mxv
 BYTE   W02
 BYTE   VOL   3*UpperSteamCave_Song_mvl/mxv
 BYTE   W01
 BYTE   VOL   2*UpperSteamCave_Song_mvl/mxv
 BYTE   W02
 BYTE   VOL   2*UpperSteamCave_Song_mvl/mxv
 BYTE   W01
 BYTE   VOL   1*UpperSteamCave_Song_mvl/mxv
 BYTE   W02
 BYTE   VOL   1*UpperSteamCave_Song_mvl/mxv
 BYTE   W01
 BYTE   VOL   1*UpperSteamCave_Song_mvl/mxv
 BYTE   W02
 BYTE   VOL   1*UpperSteamCave_Song_mvl/mxv
 BYTE   W01
 BYTE   VOL   1*UpperSteamCave_Song_mvl/mxv
 BYTE   W02
 BYTE   EOT
 BYTE   VOL   0*UpperSteamCave_Song_mvl/mxv
 BYTE   W01
 BYTE   VOL   0*UpperSteamCave_Song_mvl/mxv
 BYTE   W02
 BYTE   VOL   0*UpperSteamCave_Song_mvl/mxv
 BYTE   W01
 BYTE   VOL   0*UpperSteamCave_Song_mvl/mxv
 BYTE   W02
 BYTE   VOL   0*UpperSteamCave_Song_mvl/mxv
 BYTE   W01
 BYTE   VOL   0*UpperSteamCave_Song_mvl/mxv
 BYTE   W40
 BYTE   W01
//  #09 //016   ----------------------------------------
 BYTE   W96
//  #09 //017   ----------------------------------------
 BYTE   W36
 BYTE   W01
 BYTE   VOL   53*UpperSteamCave_Song_mvl/mxv
 BYTE   W02
 BYTE   VOL   53*UpperSteamCave_Song_mvl/mxv
 BYTE   W01
 BYTE   VOL   53*UpperSteamCave_Song_mvl/mxv
 BYTE   W44
 BYTE   W01
 BYTE   VOL   24*UpperSteamCave_Song_mvl/mxv
 BYTE   W05
 BYTE   VOL   19*UpperSteamCave_Song_mvl/mxv
 BYTE   W01
 BYTE   VOL   20*UpperSteamCave_Song_mvl/mxv
 BYTE   W05
//  #09 //018   ----------------------------------------
 BYTE   VOL   20*UpperSteamCave_Song_mvl/mxv
 BYTE   N48  An4  v104
 BYTE   W01
 BYTE   VOL   21*UpperSteamCave_Song_mvl/mxv
 BYTE   W02
 BYTE   VOL   22*UpperSteamCave_Song_mvl/mxv
 BYTE   W01
 BYTE   VOL   22*UpperSteamCave_Song_mvl/mxv
 BYTE   W02
 BYTE   VOL   22*UpperSteamCave_Song_mvl/mxv
 BYTE   W01
 BYTE   VOL   23*UpperSteamCave_Song_mvl/mxv
 BYTE   W02
 BYTE   VOL   23*UpperSteamCave_Song_mvl/mxv
 BYTE   W01
 BYTE   VOL   25*UpperSteamCave_Song_mvl/mxv
 BYTE   W02
 BYTE   VOL   27*UpperSteamCave_Song_mvl/mxv
 BYTE   W01
 BYTE   VOL   27*UpperSteamCave_Song_mvl/mxv
 BYTE   W02
 BYTE   VOL   28*UpperSteamCave_Song_mvl/mxv
 BYTE   W01
 BYTE   VOL   29*UpperSteamCave_Song_mvl/mxv
 BYTE   W02
 BYTE   VOL   31*UpperSteamCave_Song_mvl/mxv
 BYTE   W01
 BYTE   VOL   33*UpperSteamCave_Song_mvl/mxv
 BYTE   W02
 BYTE   VOL   34*UpperSteamCave_Song_mvl/mxv
 BYTE   W01
 BYTE   VOL   36*UpperSteamCave_Song_mvl/mxv
 BYTE   W02
 BYTE   VOL   38*UpperSteamCave_Song_mvl/mxv
 BYTE   W01
 BYTE   VOL   40*UpperSteamCave_Song_mvl/mxv
 BYTE   W02
 BYTE   VOL   43*UpperSteamCave_Song_mvl/mxv
 BYTE   W01
 BYTE   VOL   45*UpperSteamCave_Song_mvl/mxv
 BYTE   W02
 BYTE   VOL   47*UpperSteamCave_Song_mvl/mxv
 BYTE   W01
 BYTE   VOL   52*UpperSteamCave_Song_mvl/mxv
 BYTE   W03
 BYTE   VOL   51*UpperSteamCave_Song_mvl/mxv
 BYTE   W02
 BYTE   VOL   51*UpperSteamCave_Song_mvl/mxv
 BYTE   W01
 BYTE   VOL   50*UpperSteamCave_Song_mvl/mxv
 BYTE   W02
 BYTE   VOL   48*UpperSteamCave_Song_mvl/mxv
 BYTE   W01
 BYTE   VOL   46*UpperSteamCave_Song_mvl/mxv
 BYTE   W02
 BYTE   VOL   43*UpperSteamCave_Song_mvl/mxv
 BYTE   W01
 BYTE   VOL   40*UpperSteamCave_Song_mvl/mxv
 BYTE   W02
 BYTE   VOL   32*UpperSteamCave_Song_mvl/mxv
 BYTE   W03
 BYTE   N90  En4
 BYTE   W03
 BYTE   VOL   33*UpperSteamCave_Song_mvl/mxv
 BYTE   W04
 BYTE   VOL   34*UpperSteamCave_Song_mvl/mxv
 BYTE   W03
 BYTE   VOL   34*UpperSteamCave_Song_mvl/mxv
 BYTE   W03
 BYTE   VOL   34*UpperSteamCave_Song_mvl/mxv
 BYTE   W02
 BYTE   VOL   35*UpperSteamCave_Song_mvl/mxv
 BYTE   W01
 BYTE   VOL   36*UpperSteamCave_Song_mvl/mxv
 BYTE   W02
 BYTE   VOL   37*UpperSteamCave_Song_mvl/mxv
 BYTE   W01
 BYTE   VOL   37*UpperSteamCave_Song_mvl/mxv
 BYTE   W02
 BYTE   VOL   37*UpperSteamCave_Song_mvl/mxv
 BYTE   W01
 BYTE   VOL   38*UpperSteamCave_Song_mvl/mxv
 BYTE   W02
 BYTE   VOL   40*UpperSteamCave_Song_mvl/mxv
 BYTE   W01
 BYTE   VOL   40*UpperSteamCave_Song_mvl/mxv
 BYTE   W02
 BYTE   VOL   41*UpperSteamCave_Song_mvl/mxv
 BYTE   W01
 BYTE   VOL   42*UpperSteamCave_Song_mvl/mxv
 BYTE   W02
 BYTE   VOL   43*UpperSteamCave_Song_mvl/mxv
 BYTE   W01
 BYTE   VOL   44*UpperSteamCave_Song_mvl/mxv
 BYTE   W02
 BYTE   VOL   45*UpperSteamCave_Song_mvl/mxv
 BYTE   W01
 BYTE   VOL   46*UpperSteamCave_Song_mvl/mxv
 BYTE   W02
 BYTE   VOL   48*UpperSteamCave_Song_mvl/mxv
 BYTE   W01
 BYTE   VOL   50*UpperSteamCave_Song_mvl/mxv
 BYTE   W02
 BYTE   VOL   51*UpperSteamCave_Song_mvl/mxv
 BYTE   W01
 BYTE   VOL   52*UpperSteamCave_Song_mvl/mxv
 BYTE   W02
 BYTE   VOL   52*UpperSteamCave_Song_mvl/mxv
 BYTE   W04
 BYTE   VOL   51*UpperSteamCave_Song_mvl/mxv
 BYTE   W02
//  #09 //019   ----------------------------------------
 BYTE   W01
 BYTE   VOL   51*UpperSteamCave_Song_mvl/mxv
 BYTE   W03
 BYTE   VOL   50*UpperSteamCave_Song_mvl/mxv
 BYTE   W02
 BYTE   VOL   50*UpperSteamCave_Song_mvl/mxv
 BYTE   W01
 BYTE   VOL   48*UpperSteamCave_Song_mvl/mxv
 BYTE   W02
 BYTE   VOL   47*UpperSteamCave_Song_mvl/mxv
 BYTE   W01
 BYTE   VOL   46*UpperSteamCave_Song_mvl/mxv
 BYTE   W02
 BYTE   VOL   45*UpperSteamCave_Song_mvl/mxv
 BYTE   W01
 BYTE   VOL   44*UpperSteamCave_Song_mvl/mxv
 BYTE   W02
 BYTE   VOL   43*UpperSteamCave_Song_mvl/mxv
 BYTE   W01
 BYTE   VOL   42*UpperSteamCave_Song_mvl/mxv
 BYTE   W02
 BYTE   VOL   40*UpperSteamCave_Song_mvl/mxv
 BYTE   W01
 BYTE   VOL   39*UpperSteamCave_Song_mvl/mxv
 BYTE   W02
 BYTE   VOL   37*UpperSteamCave_Song_mvl/mxv
 BYTE   W01
 BYTE   VOL   36*UpperSteamCave_Song_mvl/mxv
 BYTE   W02
 BYTE   VOL   34*UpperSteamCave_Song_mvl/mxv
 BYTE   W01
 BYTE   VOL   33*UpperSteamCave_Song_mvl/mxv
 BYTE   W02
 BYTE   VOL   31*UpperSteamCave_Song_mvl/mxv
 BYTE   W01
 BYTE   VOL   29*UpperSteamCave_Song_mvl/mxv
 BYTE   W02
 BYTE   VOL   28*UpperSteamCave_Song_mvl/mxv
 BYTE   W01
 BYTE   VOL   29*UpperSteamCave_Song_mvl/mxv
 BYTE   W02
 BYTE   VOL   29*UpperSteamCave_Song_mvl/mxv
 BYTE   W04
 BYTE   VOL   30*UpperSteamCave_Song_mvl/mxv
 BYTE   W03
 BYTE   VOL   30*UpperSteamCave_Song_mvl/mxv
 BYTE   W02
 BYTE   VOL   31*UpperSteamCave_Song_mvl/mxv
 BYTE   N06  Dn4
 BYTE   W01
 BYTE   VOL   32*UpperSteamCave_Song_mvl/mxv
 BYTE   W02
 BYTE   VOL   33*UpperSteamCave_Song_mvl/mxv
 BYTE   W01
 BYTE   VOL   34*UpperSteamCave_Song_mvl/mxv
 BYTE   W02
 BYTE   VOL   34*UpperSteamCave_Song_mvl/mxv
 BYTE   N16  En4
 BYTE   W01
 BYTE   VOL   35*UpperSteamCave_Song_mvl/mxv
 BYTE   W02
 BYTE   VOL   37*UpperSteamCave_Song_mvl/mxv
 BYTE   W01
 BYTE   VOL   37*UpperSteamCave_Song_mvl/mxv
 BYTE   W02
 BYTE   VOL   39*UpperSteamCave_Song_mvl/mxv
 BYTE   W01
 BYTE   VOL   40*UpperSteamCave_Song_mvl/mxv
 BYTE   W02
 BYTE   VOL   42*UpperSteamCave_Song_mvl/mxv
 BYTE   W01
 BYTE   VOL   43*UpperSteamCave_Song_mvl/mxv
 BYTE   W02
 BYTE   VOL   45*UpperSteamCave_Song_mvl/mxv
 BYTE   W01
 BYTE   VOL   46*UpperSteamCave_Song_mvl/mxv
 BYTE   W02
 BYTE   VOL   49*UpperSteamCave_Song_mvl/mxv
 BYTE   W01
 BYTE   VOL   51*UpperSteamCave_Song_mvl/mxv
 BYTE   N14  Fn4
 BYTE   W14
 BYTE   VOL   51*UpperSteamCave_Song_mvl/mxv
 BYTE   N06  En4
 BYTE   W03
 BYTE   VOL   51*UpperSteamCave_Song_mvl/mxv
 BYTE   W01
 BYTE   VOL   50*UpperSteamCave_Song_mvl/mxv
 BYTE   W02
 BYTE   VOL   49*UpperSteamCave_Song_mvl/mxv
 BYTE   N06  Dn4
 BYTE   W01
 BYTE   VOL   47*UpperSteamCave_Song_mvl/mxv
 BYTE   W02
 BYTE   VOL   46*UpperSteamCave_Song_mvl/mxv
 BYTE   W01
 BYTE   VOL   44*UpperSteamCave_Song_mvl/mxv
 BYTE   W02
 BYTE   VOL   42*UpperSteamCave_Song_mvl/mxv
 BYTE   N06  Cn4
 BYTE   W01
 BYTE   VOL   40*UpperSteamCave_Song_mvl/mxv
 BYTE   W02
 BYTE   VOL   34*UpperSteamCave_Song_mvl/mxv
 BYTE   W03
//  #09 //020   ----------------------------------------
 BYTE   N48  Dn4
 BYTE   W03
 BYTE   VOL   34*UpperSteamCave_Song_mvl/mxv
 BYTE   W01
 BYTE   VOL   35*UpperSteamCave_Song_mvl/mxv
 BYTE   W02
 BYTE   VOL   36*UpperSteamCave_Song_mvl/mxv
 BYTE   W01
 BYTE   VOL   37*UpperSteamCave_Song_mvl/mxv
 BYTE   W02
 BYTE   VOL   37*UpperSteamCave_Song_mvl/mxv
 BYTE   W01
 BYTE   VOL   38*UpperSteamCave_Song_mvl/mxv
 BYTE   W02
 BYTE   VOL   40*UpperSteamCave_Song_mvl/mxv
 BYTE   W01
 BYTE   VOL   40*UpperSteamCave_Song_mvl/mxv
 BYTE   W02
 BYTE   VOL   42*UpperSteamCave_Song_mvl/mxv
 BYTE   W01
 BYTE   VOL   43*UpperSteamCave_Song_mvl/mxv
 BYTE   W02
 BYTE   VOL   45*UpperSteamCave_Song_mvl/mxv
 BYTE   W01
 BYTE   VOL   47*UpperSteamCave_Song_mvl/mxv
 BYTE   W02
 BYTE   VOL   49*UpperSteamCave_Song_mvl/mxv
 BYTE   W01
 BYTE   VOL   51*UpperSteamCave_Song_mvl/mxv
 BYTE   W03
 BYTE   VOL   51*UpperSteamCave_Song_mvl/mxv
 BYTE   W03
 BYTE   VOL   51*UpperSteamCave_Song_mvl/mxv
 BYTE   W03
 BYTE   VOL   50*UpperSteamCave_Song_mvl/mxv
 BYTE   W02
 BYTE   VOL   49*UpperSteamCave_Song_mvl/mxv
 BYTE   W01
 BYTE   VOL   48*UpperSteamCave_Song_mvl/mxv
 BYTE   W02
 BYTE   VOL   46*UpperSteamCave_Song_mvl/mxv
 BYTE   W01
 BYTE   VOL   45*UpperSteamCave_Song_mvl/mxv
 BYTE   W02
 BYTE   VOL   43*UpperSteamCave_Song_mvl/mxv
 BYTE   W01
 BYTE   VOL   41*UpperSteamCave_Song_mvl/mxv
 BYTE   W02
 BYTE   VOL   40*UpperSteamCave_Song_mvl/mxv
 BYTE   W01
 BYTE   VOL   37*UpperSteamCave_Song_mvl/mxv
 BYTE   W02
 BYTE   VOL   35*UpperSteamCave_Song_mvl/mxv
 BYTE   W01
 BYTE   VOL   33*UpperSteamCave_Song_mvl/mxv
 BYTE   W02
 BYTE   VOL   28*UpperSteamCave_Song_mvl/mxv
 BYTE   TIE  Gn3
 BYTE   W04
 BYTE   VOL   28*UpperSteamCave_Song_mvl/mxv
 BYTE   W02
 BYTE   VOL   29*UpperSteamCave_Song_mvl/mxv
 BYTE   W01
 BYTE   VOL   29*UpperSteamCave_Song_mvl/mxv
 BYTE   W02
 BYTE   VOL   30*UpperSteamCave_Song_mvl/mxv
 BYTE   W01
 BYTE   VOL   30*UpperSteamCave_Song_mvl/mxv
 BYTE   W02
 BYTE   VOL   32*UpperSteamCave_Song_mvl/mxv
 BYTE   W01
 BYTE   VOL   33*UpperSteamCave_Song_mvl/mxv
 BYTE   W02
 BYTE   VOL   34*UpperSteamCave_Song_mvl/mxv
 BYTE   W01
 BYTE   VOL   34*UpperSteamCave_Song_mvl/mxv
 BYTE   W02
 BYTE   VOL   37*UpperSteamCave_Song_mvl/mxv
 BYTE   W01
 BYTE   VOL   37*UpperSteamCave_Song_mvl/mxv
 BYTE   W02
 BYTE   VOL   40*UpperSteamCave_Song_mvl/mxv
 BYTE   W01
 BYTE   VOL   41*UpperSteamCave_Song_mvl/mxv
 BYTE   W02
 BYTE   VOL   43*UpperSteamCave_Song_mvl/mxv
 BYTE   W01
 BYTE   VOL   45*UpperSteamCave_Song_mvl/mxv
 BYTE   W02
 BYTE   VOL   48*UpperSteamCave_Song_mvl/mxv
 BYTE   W01
 BYTE   VOL   51*UpperSteamCave_Song_mvl/mxv
 BYTE   W02
 BYTE   VOL   53*UpperSteamCave_Song_mvl/mxv
 BYTE   W12
 BYTE   VOL   52*UpperSteamCave_Song_mvl/mxv
 BYTE   W04
 BYTE   VOL   51*UpperSteamCave_Song_mvl/mxv
 BYTE   W02
//  #09 //021   ----------------------------------------
 BYTE   W01
 BYTE   VOL   51*UpperSteamCave_Song_mvl/mxv
 BYTE   W03
 BYTE   VOL   50*UpperSteamCave_Song_mvl/mxv
 BYTE   W02
 BYTE   VOL   50*UpperSteamCave_Song_mvl/mxv
 BYTE   W03
 BYTE   VOL   49*UpperSteamCave_Song_mvl/mxv
 BYTE   W01
 BYTE   VOL   48*UpperSteamCave_Song_mvl/mxv
 BYTE   W03
 BYTE   VOL   47*UpperSteamCave_Song_mvl/mxv
 BYTE   W02
 BYTE   VOL   46*UpperSteamCave_Song_mvl/mxv
 BYTE   W01
 BYTE   VOL   46*UpperSteamCave_Song_mvl/mxv
 BYTE   W02
 BYTE   VOL   45*UpperSteamCave_Song_mvl/mxv
 BYTE   W01
 BYTE   VOL   45*UpperSteamCave_Song_mvl/mxv
 BYTE   W02
 BYTE   VOL   44*UpperSteamCave_Song_mvl/mxv
 BYTE   W01
 BYTE   VOL   43*UpperSteamCave_Song_mvl/mxv
 BYTE   W02
 BYTE   VOL   43*UpperSteamCave_Song_mvl/mxv
 BYTE   W01
 BYTE   VOL   42*UpperSteamCave_Song_mvl/mxv
 BYTE   W02
 BYTE   VOL   41*UpperSteamCave_Song_mvl/mxv
 BYTE   W01
 BYTE   VOL   40*UpperSteamCave_Song_mvl/mxv
 BYTE   W02
 BYTE   VOL   40*UpperSteamCave_Song_mvl/mxv
 BYTE   W01
 BYTE   VOL   39*UpperSteamCave_Song_mvl/mxv
 BYTE   W02
 BYTE   VOL   38*UpperSteamCave_Song_mvl/mxv
 BYTE   W01
 BYTE   VOL   37*UpperSteamCave_Song_mvl/mxv
 BYTE   W02
 BYTE   VOL   37*UpperSteamCave_Song_mvl/mxv
 BYTE   W01
 BYTE   VOL   36*UpperSteamCave_Song_mvl/mxv
 BYTE   W02
 BYTE   VOL   34*UpperSteamCave_Song_mvl/mxv
 BYTE   W01
 BYTE   VOL   34*UpperSteamCave_Song_mvl/mxv
 BYTE   W02
 BYTE   VOL   34*UpperSteamCave_Song_mvl/mxv
 BYTE   W01
 BYTE   VOL   32*UpperSteamCave_Song_mvl/mxv
 BYTE   W02
 BYTE   VOL   32*UpperSteamCave_Song_mvl/mxv
 BYTE   W01
 BYTE   VOL   30*UpperSteamCave_Song_mvl/mxv
 BYTE   W02
 BYTE   VOL   29*UpperSteamCave_Song_mvl/mxv
 BYTE   W01
 BYTE   VOL   28*UpperSteamCave_Song_mvl/mxv
 BYTE   W02
 BYTE   VOL   28*UpperSteamCave_Song_mvl/mxv
 BYTE   W01
 BYTE   VOL   27*UpperSteamCave_Song_mvl/mxv
 BYTE   W02
 BYTE   VOL   26*UpperSteamCave_Song_mvl/mxv
 BYTE   W01
 BYTE   VOL   25*UpperSteamCave_Song_mvl/mxv
 BYTE   W02
 BYTE   VOL   23*UpperSteamCave_Song_mvl/mxv
 BYTE   W01
 BYTE   VOL   23*UpperSteamCave_Song_mvl/mxv
 BYTE   W02
 BYTE   VOL   22*UpperSteamCave_Song_mvl/mxv
 BYTE   W01
 BYTE   VOL   20*UpperSteamCave_Song_mvl/mxv
 BYTE   W02
 BYTE   VOL   19*UpperSteamCave_Song_mvl/mxv
 BYTE   W01
 BYTE   VOL   19*UpperSteamCave_Song_mvl/mxv
 BYTE   W02
 BYTE   VOL   18*UpperSteamCave_Song_mvl/mxv
 BYTE   W01
 BYTE   VOL   17*UpperSteamCave_Song_mvl/mxv
 BYTE   W02
 BYTE   VOL   16*UpperSteamCave_Song_mvl/mxv
 BYTE   W01
 BYTE   VOL   15*UpperSteamCave_Song_mvl/mxv
 BYTE   W02
 BYTE   VOL   14*UpperSteamCave_Song_mvl/mxv
 BYTE   W01
 BYTE   VOL   13*UpperSteamCave_Song_mvl/mxv
 BYTE   W02
 BYTE   VOL   12*UpperSteamCave_Song_mvl/mxv
 BYTE   W01
 BYTE   VOL   11*UpperSteamCave_Song_mvl/mxv
 BYTE   W02
 BYTE   VOL   10*UpperSteamCave_Song_mvl/mxv
 BYTE   W01
 BYTE   VOL   10*UpperSteamCave_Song_mvl/mxv
 BYTE   W02
 BYTE   VOL   8*UpperSteamCave_Song_mvl/mxv
 BYTE   W01
 BYTE   VOL   8*UpperSteamCave_Song_mvl/mxv
 BYTE   W02
 BYTE   VOL   6*UpperSteamCave_Song_mvl/mxv
 BYTE   W01
 BYTE   VOL   6*UpperSteamCave_Song_mvl/mxv
 BYTE   W02
 BYTE   VOL   5*UpperSteamCave_Song_mvl/mxv
 BYTE   W01
 BYTE   VOL   5*UpperSteamCave_Song_mvl/mxv
 BYTE   W02
 BYTE   VOL   4*UpperSteamCave_Song_mvl/mxv
 BYTE   W01
 BYTE   VOL   3*UpperSteamCave_Song_mvl/mxv
 BYTE   W02
 BYTE   VOL   3*UpperSteamCave_Song_mvl/mxv
 BYTE   W01
 BYTE   VOL   2*UpperSteamCave_Song_mvl/mxv
 BYTE   W02
//  #09 //022   ----------------------------------------
 BYTE   EOT
 BYTE   VOL   1*UpperSteamCave_Song_mvl/mxv
 BYTE   W01
 BYTE   VOL   1*UpperSteamCave_Song_mvl/mxv
 BYTE   W02
 BYTE   VOL   0*UpperSteamCave_Song_mvl/mxv
 BYTE   W01
 BYTE   VOL   0*UpperSteamCave_Song_mvl/mxv
 BYTE   W02
 BYTE   VOL   0*UpperSteamCave_Song_mvl/mxv
 BYTE   W01
 BYTE   VOL   0*UpperSteamCave_Song_mvl/mxv
 BYTE   W88
 BYTE   W01
//  #09 //023   ----------------------------------------
 BYTE   W96
//  #09 //024   ----------------------------------------
 BYTE   W96
//  #09 //025   ----------------------------------------
 BYTE   VOL   53*UpperSteamCave_Song_mvl/mxv
 BYTE   W96
//  #09 //026   ----------------------------------------
 BYTE   W16
 BYTE   VOL   27*UpperSteamCave_Song_mvl/mxv
 BYTE   W02
 BYTE   VOL   28*UpperSteamCave_Song_mvl/mxv
 BYTE   W01
 BYTE   VOL   29*UpperSteamCave_Song_mvl/mxv
 BYTE   W03
 BYTE   VOL   33*UpperSteamCave_Song_mvl/mxv
 BYTE   W02
 BYTE   VOL   34*UpperSteamCave_Song_mvl/mxv
 BYTE   N22  Cn4  v100
 BYTE   W03
 BYTE   VOL   34*UpperSteamCave_Song_mvl/mxv
 BYTE   W01
 BYTE   VOL   34*UpperSteamCave_Song_mvl/mxv
 BYTE   W02
 BYTE   VOL   36*UpperSteamCave_Song_mvl/mxv
 BYTE   W01
 BYTE   VOL   37*UpperSteamCave_Song_mvl/mxv
 BYTE   W02
 BYTE   VOL   37*UpperSteamCave_Song_mvl/mxv
 BYTE   W01
 BYTE   VOL   39*UpperSteamCave_Song_mvl/mxv
 BYTE   W02
 BYTE   VOL   40*UpperSteamCave_Song_mvl/mxv
 BYTE   W01
 BYTE   VOL   41*UpperSteamCave_Song_mvl/mxv
 BYTE   W02
 BYTE   VOL   43*UpperSteamCave_Song_mvl/mxv
 BYTE   W01
 BYTE   VOL   45*UpperSteamCave_Song_mvl/mxv
 BYTE   W02
 BYTE   VOL   46*UpperSteamCave_Song_mvl/mxv
 BYTE   W01
 BYTE   VOL   49*UpperSteamCave_Song_mvl/mxv
 BYTE   W02
 BYTE   VOL   51*UpperSteamCave_Song_mvl/mxv
 BYTE   W01
 BYTE   VOL   53*UpperSteamCave_Song_mvl/mxv
 BYTE   N02  Bn4
 BYTE   W02
 BYTE   N48  Cn5
 BYTE   W28
 BYTE   VOL   51*UpperSteamCave_Song_mvl/mxv
 BYTE   W05
 BYTE   VOL   51*UpperSteamCave_Song_mvl/mxv
 BYTE   W01
 BYTE   VOL   50*UpperSteamCave_Song_mvl/mxv
 BYTE   W02
 BYTE   VOL   50*UpperSteamCave_Song_mvl/mxv
 BYTE   W01
 BYTE   VOL   49*UpperSteamCave_Song_mvl/mxv
 BYTE   W02
 BYTE   VOL   47*UpperSteamCave_Song_mvl/mxv
 BYTE   W01
 BYTE   VOL   46*UpperSteamCave_Song_mvl/mxv
 BYTE   W02
 BYTE   VOL   45*UpperSteamCave_Song_mvl/mxv
 BYTE   W01
 BYTE   VOL   43*UpperSteamCave_Song_mvl/mxv
 BYTE   W02
 BYTE   VOL   41*UpperSteamCave_Song_mvl/mxv
 BYTE   W01
 BYTE   VOL   40*UpperSteamCave_Song_mvl/mxv
 BYTE   W02
//  #09 //027   ----------------------------------------
 BYTE   VOL   38*UpperSteamCave_Song_mvl/mxv
 BYTE   N24  Bn4
 BYTE   W04
 BYTE   VOL   39*UpperSteamCave_Song_mvl/mxv
 BYTE   W03
 BYTE   VOL   40*UpperSteamCave_Song_mvl/mxv
 BYTE   W02
 BYTE   VOL   40*UpperSteamCave_Song_mvl/mxv
 BYTE   W01
 BYTE   VOL   40*UpperSteamCave_Song_mvl/mxv
 BYTE   W02
 BYTE   VOL   41*UpperSteamCave_Song_mvl/mxv
 BYTE   W01
 BYTE   VOL   43*UpperSteamCave_Song_mvl/mxv
 BYTE   W02
 BYTE   VOL   43*UpperSteamCave_Song_mvl/mxv
 BYTE   W01
 BYTE   VOL   44*UpperSteamCave_Song_mvl/mxv
 BYTE   W02
 BYTE   VOL   45*UpperSteamCave_Song_mvl/mxv
 BYTE   W01
 BYTE   VOL   46*UpperSteamCave_Song_mvl/mxv
 BYTE   W02
 BYTE   VOL   48*UpperSteamCave_Song_mvl/mxv
 BYTE   W01
 BYTE   VOL   50*UpperSteamCave_Song_mvl/mxv
 BYTE   W02
 BYTE   VOL   32*UpperSteamCave_Song_mvl/mxv
 BYTE   N92  Bn3
 BYTE   W01
 BYTE   VOL   32*UpperSteamCave_Song_mvl/mxv
 BYTE   W02
 BYTE   VOL   32*UpperSteamCave_Song_mvl/mxv
 BYTE   W06
 BYTE   VOL   33*UpperSteamCave_Song_mvl/mxv
 BYTE   W03
 BYTE   VOL   34*UpperSteamCave_Song_mvl/mxv
 BYTE   W01
 BYTE   VOL   34*UpperSteamCave_Song_mvl/mxv
 BYTE   W03
 BYTE   VOL   34*UpperSteamCave_Song_mvl/mxv
 BYTE   W02
 BYTE   VOL   35*UpperSteamCave_Song_mvl/mxv
 BYTE   W01
 BYTE   VOL   36*UpperSteamCave_Song_mvl/mxv
 BYTE   W02
 BYTE   VOL   37*UpperSteamCave_Song_mvl/mxv
 BYTE   W01
 BYTE   VOL   37*UpperSteamCave_Song_mvl/mxv
 BYTE   W02
 BYTE   VOL   38*UpperSteamCave_Song_mvl/mxv
 BYTE   W01
 BYTE   VOL   39*UpperSteamCave_Song_mvl/mxv
 BYTE   W02
 BYTE   VOL   40*UpperSteamCave_Song_mvl/mxv
 BYTE   W01
 BYTE   VOL   40*UpperSteamCave_Song_mvl/mxv
 BYTE   W02
 BYTE   VOL   42*UpperSteamCave_Song_mvl/mxv
 BYTE   W01
 BYTE   VOL   43*UpperSteamCave_Song_mvl/mxv
 BYTE   W02
 BYTE   VOL   44*UpperSteamCave_Song_mvl/mxv
 BYTE   W01
 BYTE   VOL   45*UpperSteamCave_Song_mvl/mxv
 BYTE   W02
 BYTE   VOL   47*UpperSteamCave_Song_mvl/mxv
 BYTE   W01
 BYTE   VOL   49*UpperSteamCave_Song_mvl/mxv
 BYTE   W02
 BYTE   VOL   50*UpperSteamCave_Song_mvl/mxv
 BYTE   W01
 BYTE   VOL   51*UpperSteamCave_Song_mvl/mxv
 BYTE   W05
 BYTE   VOL   52*UpperSteamCave_Song_mvl/mxv
 BYTE   W04
 BYTE   VOL   51*UpperSteamCave_Song_mvl/mxv
 BYTE   W03
 BYTE   VOL   51*UpperSteamCave_Song_mvl/mxv
 BYTE   W03
 BYTE   VOL   50*UpperSteamCave_Song_mvl/mxv
 BYTE   W02
 BYTE   VOL   50*UpperSteamCave_Song_mvl/mxv
 BYTE   W01
 BYTE   VOL   48*UpperSteamCave_Song_mvl/mxv
 BYTE   W02
 BYTE   VOL   47*UpperSteamCave_Song_mvl/mxv
 BYTE   W01
 BYTE   VOL   46*UpperSteamCave_Song_mvl/mxv
 BYTE   W02
 BYTE   VOL   45*UpperSteamCave_Song_mvl/mxv
 BYTE   W01
 BYTE   VOL   44*UpperSteamCave_Song_mvl/mxv
 BYTE   W02
 BYTE   VOL   43*UpperSteamCave_Song_mvl/mxv
 BYTE   W01
 BYTE   VOL   42*UpperSteamCave_Song_mvl/mxv
 BYTE   W02
 BYTE   VOL   40*UpperSteamCave_Song_mvl/mxv
 BYTE   W01
 BYTE   VOL   40*UpperSteamCave_Song_mvl/mxv
 BYTE   W02
//  #09 //028   ----------------------------------------
 BYTE   VOL   37*UpperSteamCave_Song_mvl/mxv
 BYTE   W01
 BYTE   VOL   37*UpperSteamCave_Song_mvl/mxv
 BYTE   W02
 BYTE   VOL   34*UpperSteamCave_Song_mvl/mxv
 BYTE   W01
 BYTE   VOL   34*UpperSteamCave_Song_mvl/mxv
 BYTE   W02
 BYTE   VOL   32*UpperSteamCave_Song_mvl/mxv
 BYTE   W01
 BYTE   VOL   30*UpperSteamCave_Song_mvl/mxv
 BYTE   W02
 BYTE   VOL   28*UpperSteamCave_Song_mvl/mxv
 BYTE   W01
 BYTE   VOL   27*UpperSteamCave_Song_mvl/mxv
 BYTE   W02
 BYTE   VOL   24*UpperSteamCave_Song_mvl/mxv
 BYTE   W01
 BYTE   VOL   23*UpperSteamCave_Song_mvl/mxv
 BYTE   W02
 BYTE   VOL   21*UpperSteamCave_Song_mvl/mxv
 BYTE   W01
 BYTE   VOL   19*UpperSteamCave_Song_mvl/mxv
 BYTE   W02
 BYTE   VOL   17*UpperSteamCave_Song_mvl/mxv
 BYTE   W01
 BYTE   VOL   15*UpperSteamCave_Song_mvl/mxv
 BYTE   W02
 BYTE   VOL   14*UpperSteamCave_Song_mvl/mxv
 BYTE   W01
 BYTE   VOL   12*UpperSteamCave_Song_mvl/mxv
 BYTE   W02
 BYTE   VOL   34*UpperSteamCave_Song_mvl/mxv
 BYTE   N22  Dn4
 BYTE   W01
 BYTE   VOL   34*UpperSteamCave_Song_mvl/mxv
 BYTE   W03
 BYTE   VOL   34*UpperSteamCave_Song_mvl/mxv
 BYTE   W02
 BYTE   VOL   35*UpperSteamCave_Song_mvl/mxv
 BYTE   W01
 BYTE   VOL   37*UpperSteamCave_Song_mvl/mxv
 BYTE   W02
 BYTE   VOL   37*UpperSteamCave_Song_mvl/mxv
 BYTE   W01
 BYTE   VOL   39*UpperSteamCave_Song_mvl/mxv
 BYTE   W02
 BYTE   VOL   40*UpperSteamCave_Song_mvl/mxv
 BYTE   W01
 BYTE   VOL   43*UpperSteamCave_Song_mvl/mxv
 BYTE   W02
 BYTE   VOL   45*UpperSteamCave_Song_mvl/mxv
 BYTE   W01
 BYTE   VOL   47*UpperSteamCave_Song_mvl/mxv
 BYTE   W02
 BYTE   VOL   50*UpperSteamCave_Song_mvl/mxv
 BYTE   W03
 BYTE   VOL   53*UpperSteamCave_Song_mvl/mxv
 BYTE   W01
 BYTE   N02  Cs5
 BYTE   W02
 BYTE   N48  Dn5
 BYTE   W24
 BYTE   W01
 BYTE   VOL   53*UpperSteamCave_Song_mvl/mxv
 BYTE   W05
 BYTE   VOL   52*UpperSteamCave_Song_mvl/mxv
 BYTE   W01
 BYTE   VOL   51*UpperSteamCave_Song_mvl/mxv
 BYTE   W02
 BYTE   VOL   51*UpperSteamCave_Song_mvl/mxv
 BYTE   W01
 BYTE   VOL   50*UpperSteamCave_Song_mvl/mxv
 BYTE   W02
 BYTE   VOL   49*UpperSteamCave_Song_mvl/mxv
 BYTE   W01
 BYTE   VOL   48*UpperSteamCave_Song_mvl/mxv
 BYTE   W02
 BYTE   VOL   46*UpperSteamCave_Song_mvl/mxv
 BYTE   W01
 BYTE   VOL   45*UpperSteamCave_Song_mvl/mxv
 BYTE   W02
 BYTE   VOL   43*UpperSteamCave_Song_mvl/mxv
 BYTE   W01
 BYTE   VOL   42*UpperSteamCave_Song_mvl/mxv
 BYTE   W02
 BYTE   VOL   40*UpperSteamCave_Song_mvl/mxv
 BYTE   W01
 BYTE   VOL   38*UpperSteamCave_Song_mvl/mxv
 BYTE   W02
//  #09 //029   ----------------------------------------
 BYTE   VOL   36*UpperSteamCave_Song_mvl/mxv
 BYTE   N24  Cs5
 BYTE   W01
 BYTE   VOL   37*UpperSteamCave_Song_mvl/mxv
 BYTE   W05
 BYTE   VOL   37*UpperSteamCave_Song_mvl/mxv
 BYTE   W01
 BYTE   VOL   37*UpperSteamCave_Song_mvl/mxv
 BYTE   W02
 BYTE   VOL   38*UpperSteamCave_Song_mvl/mxv
 BYTE   W01
 BYTE   VOL   40*UpperSteamCave_Song_mvl/mxv
 BYTE   W02
 BYTE   VOL   40*UpperSteamCave_Song_mvl/mxv
 BYTE   W01
 BYTE   VOL   41*UpperSteamCave_Song_mvl/mxv
 BYTE   W02
 BYTE   VOL   43*UpperSteamCave_Song_mvl/mxv
 BYTE   W01
 BYTE   VOL   44*UpperSteamCave_Song_mvl/mxv
 BYTE   W02
 BYTE   VOL   45*UpperSteamCave_Song_mvl/mxv
 BYTE   W01
 BYTE   VOL   47*UpperSteamCave_Song_mvl/mxv
 BYTE   W02
 BYTE   VOL   50*UpperSteamCave_Song_mvl/mxv
 BYTE   W01
 BYTE   VOL   37*UpperSteamCave_Song_mvl/mxv
 BYTE   W02
 BYTE   VOL   32*UpperSteamCave_Song_mvl/mxv
 BYTE   N72  Cs4
 BYTE   W06
 BYTE   VOL   32*UpperSteamCave_Song_mvl/mxv
 BYTE   W03
 BYTE   VOL   33*UpperSteamCave_Song_mvl/mxv
 BYTE   W03
 BYTE   VOL   34*UpperSteamCave_Song_mvl/mxv
 BYTE   W01
 BYTE   VOL   34*UpperSteamCave_Song_mvl/mxv
 BYTE   W03
 BYTE   VOL   35*UpperSteamCave_Song_mvl/mxv
 BYTE   W02
 BYTE   VOL   36*UpperSteamCave_Song_mvl/mxv
 BYTE   W01
 BYTE   VOL   37*UpperSteamCave_Song_mvl/mxv
 BYTE   W02
 BYTE   VOL   37*UpperSteamCave_Song_mvl/mxv
 BYTE   W01
 BYTE   VOL   38*UpperSteamCave_Song_mvl/mxv
 BYTE   W02
 BYTE   VOL   39*UpperSteamCave_Song_mvl/mxv
 BYTE   W01
 BYTE   VOL   40*UpperSteamCave_Song_mvl/mxv
 BYTE   W02
 BYTE   VOL   40*UpperSteamCave_Song_mvl/mxv
 BYTE   W01
 BYTE   VOL   42*UpperSteamCave_Song_mvl/mxv
 BYTE   W02
 BYTE   VOL   43*UpperSteamCave_Song_mvl/mxv
 BYTE   W01
 BYTE   VOL   44*UpperSteamCave_Song_mvl/mxv
 BYTE   W02
 BYTE   VOL   45*UpperSteamCave_Song_mvl/mxv
 BYTE   W01
 BYTE   VOL   47*UpperSteamCave_Song_mvl/mxv
 BYTE   W02
 BYTE   VOL   49*UpperSteamCave_Song_mvl/mxv
 BYTE   W01
 BYTE   VOL   50*UpperSteamCave_Song_mvl/mxv
 BYTE   W02
 BYTE   VOL   52*UpperSteamCave_Song_mvl/mxv
 BYTE   W01
 BYTE   VOL   52*UpperSteamCave_Song_mvl/mxv
 BYTE   W03
 BYTE   VOL   51*UpperSteamCave_Song_mvl/mxv
 BYTE   W02
 BYTE   VOL   51*UpperSteamCave_Song_mvl/mxv
 BYTE   W01
 BYTE   VOL   50*UpperSteamCave_Song_mvl/mxv
 BYTE   W02
 BYTE   VOL   49*UpperSteamCave_Song_mvl/mxv
 BYTE   W01
 BYTE   VOL   47*UpperSteamCave_Song_mvl/mxv
 BYTE   W02
 BYTE   VOL   46*UpperSteamCave_Song_mvl/mxv
 BYTE   W01
 BYTE   VOL   44*UpperSteamCave_Song_mvl/mxv
 BYTE   W02
 BYTE   VOL   43*UpperSteamCave_Song_mvl/mxv
 BYTE   W01
 BYTE   VOL   40*UpperSteamCave_Song_mvl/mxv
 BYTE   W02
 BYTE   VOL   37*UpperSteamCave_Song_mvl/mxv
 BYTE   W01
 BYTE   VOL   35*UpperSteamCave_Song_mvl/mxv
 BYTE   W02
 BYTE   VOL   33*UpperSteamCave_Song_mvl/mxv
 BYTE   W01
 BYTE   VOL   30*UpperSteamCave_Song_mvl/mxv
 BYTE   W02
 BYTE   VOL   27*UpperSteamCave_Song_mvl/mxv
 BYTE   W01
 BYTE   VOL   23*UpperSteamCave_Song_mvl/mxv
 BYTE   W02
 BYTE   VOL   21*UpperSteamCave_Song_mvl/mxv
 BYTE   W01
 BYTE   VOL   18*UpperSteamCave_Song_mvl/mxv
 BYTE   W02
 BYTE   VOL   15*UpperSteamCave_Song_mvl/mxv
 BYTE   W01
 BYTE   VOL   13*UpperSteamCave_Song_mvl/mxv
 BYTE   W02
//  #09 //030   ----------------------------------------
 BYTE   VOL   10*UpperSteamCave_Song_mvl/mxv
 BYTE   W01
 BYTE   VOL   7*UpperSteamCave_Song_mvl/mxv
 BYTE   W02
 BYTE   VOL   5*UpperSteamCave_Song_mvl/mxv
 BYTE   W18
 BYTE   VOL   36*UpperSteamCave_Song_mvl/mxv
 BYTE   W01
 BYTE   VOL   37*UpperSteamCave_Song_mvl/mxv
 BYTE   W02
 BYTE   N08  En4
 BYTE   W01
 BYTE   VOL   37*UpperSteamCave_Song_mvl/mxv
 BYTE   W02
 BYTE   VOL   37*UpperSteamCave_Song_mvl/mxv
 BYTE   W01
 BYTE   VOL   38*UpperSteamCave_Song_mvl/mxv
 BYTE   W02
 BYTE   VOL   40*UpperSteamCave_Song_mvl/mxv
 BYTE   W01
 BYTE   VOL   40*UpperSteamCave_Song_mvl/mxv
 BYTE   W01
 BYTE   N08  Fs4
 BYTE   W01
 BYTE   VOL   43*UpperSteamCave_Song_mvl/mxv
 BYTE   W01
 BYTE   VOL   44*UpperSteamCave_Song_mvl/mxv
 BYTE   W02
 BYTE   VOL   46*UpperSteamCave_Song_mvl/mxv
 BYTE   W01
 BYTE   VOL   48*UpperSteamCave_Song_mvl/mxv
 BYTE   W02
 BYTE   VOL   51*UpperSteamCave_Song_mvl/mxv
 BYTE   W01
 BYTE   VOL   52*UpperSteamCave_Song_mvl/mxv
 BYTE   N08  Gs4
 BYTE   W08
 BYTE   N12  An4
 BYTE   W12
 BYTE   Bn4
 BYTE   W12
 BYTE   Cs5
 BYTE   W09
 BYTE   VOL   52*UpperSteamCave_Song_mvl/mxv
 BYTE   W03
 BYTE   N12  Ds5
 BYTE   W01
 BYTE   VOL   51*UpperSteamCave_Song_mvl/mxv
 BYTE   W03
 BYTE   VOL   51*UpperSteamCave_Song_mvl/mxv
 BYTE   W02
 BYTE   VOL   50*UpperSteamCave_Song_mvl/mxv
 BYTE   W01
 BYTE   VOL   50*UpperSteamCave_Song_mvl/mxv
 BYTE   W02
 BYTE   VOL   49*UpperSteamCave_Song_mvl/mxv
 BYTE   W01
 BYTE   VOL   40*UpperSteamCave_Song_mvl/mxv
 BYTE   W02
//  #09 //031   ----------------------------------------
 BYTE   VOL   34*UpperSteamCave_Song_mvl/mxv
 BYTE   N44  Fn5
 BYTE   W03
 BYTE   VOL   33*UpperSteamCave_Song_mvl/mxv
 BYTE   W01
 BYTE   VOL   34*UpperSteamCave_Song_mvl/mxv
 BYTE   W02
 BYTE   VOL   34*UpperSteamCave_Song_mvl/mxv
 BYTE   W01
 BYTE   VOL   34*UpperSteamCave_Song_mvl/mxv
 BYTE   W02
 BYTE   VOL   35*UpperSteamCave_Song_mvl/mxv
 BYTE   W01
 BYTE   VOL   37*UpperSteamCave_Song_mvl/mxv
 BYTE   W02
 BYTE   VOL   37*UpperSteamCave_Song_mvl/mxv
 BYTE   W01
 BYTE   VOL   39*UpperSteamCave_Song_mvl/mxv
 BYTE   W02
 BYTE   VOL   40*UpperSteamCave_Song_mvl/mxv
 BYTE   W01
 BYTE   VOL   42*UpperSteamCave_Song_mvl/mxv
 BYTE   W02
 BYTE   VOL   44*UpperSteamCave_Song_mvl/mxv
 BYTE   W01
 BYTE   VOL   46*UpperSteamCave_Song_mvl/mxv
 BYTE   W02
 BYTE   VOL   48*UpperSteamCave_Song_mvl/mxv
 BYTE   W01
 BYTE   VOL   51*UpperSteamCave_Song_mvl/mxv
 BYTE   W14
 BYTE   VOL   50*UpperSteamCave_Song_mvl/mxv
 BYTE   W03
 BYTE   VOL   50*UpperSteamCave_Song_mvl/mxv
 BYTE   W01
 BYTE   VOL   49*UpperSteamCave_Song_mvl/mxv
 BYTE   W02
 BYTE   VOL   47*UpperSteamCave_Song_mvl/mxv
 BYTE   W01
 BYTE   VOL   46*UpperSteamCave_Song_mvl/mxv
 BYTE   W02
 BYTE   VOL   45*UpperSteamCave_Song_mvl/mxv
 BYTE   N03  Fs5
 BYTE   W03
 BYTE   VOL   34*UpperSteamCave_Song_mvl/mxv
 BYTE   N44  Fn5
 BYTE   W06
 BYTE   VOL   34*UpperSteamCave_Song_mvl/mxv
 BYTE   W03
 BYTE   VOL   35*UpperSteamCave_Song_mvl/mxv
 BYTE   W01
 BYTE   VOL   36*UpperSteamCave_Song_mvl/mxv
 BYTE   W02
 BYTE   VOL   37*UpperSteamCave_Song_mvl/mxv
 BYTE   W01
 BYTE   VOL   37*UpperSteamCave_Song_mvl/mxv
 BYTE   W02
 BYTE   VOL   38*UpperSteamCave_Song_mvl/mxv
 BYTE   W01
 BYTE   VOL   40*UpperSteamCave_Song_mvl/mxv
 BYTE   W02
 BYTE   VOL   40*UpperSteamCave_Song_mvl/mxv
 BYTE   W01
 BYTE   VOL   42*UpperSteamCave_Song_mvl/mxv
 BYTE   W02
 BYTE   VOL   43*UpperSteamCave_Song_mvl/mxv
 BYTE   W01
 BYTE   VOL   44*UpperSteamCave_Song_mvl/mxv
 BYTE   W02
 BYTE   VOL   46*UpperSteamCave_Song_mvl/mxv
 BYTE   W01
 BYTE   VOL   47*UpperSteamCave_Song_mvl/mxv
 BYTE   W02
 BYTE   VOL   50*UpperSteamCave_Song_mvl/mxv
 BYTE   W01
 BYTE   VOL   51*UpperSteamCave_Song_mvl/mxv
 BYTE   W02
 BYTE   VOL   52*UpperSteamCave_Song_mvl/mxv
 BYTE   W04
 BYTE   VOL   51*UpperSteamCave_Song_mvl/mxv
 BYTE   W03
 BYTE   VOL   51*UpperSteamCave_Song_mvl/mxv
 BYTE   W02
 BYTE   VOL   50*UpperSteamCave_Song_mvl/mxv
 BYTE   W01
 BYTE   VOL   50*UpperSteamCave_Song_mvl/mxv
 BYTE   W02
 BYTE   VOL   49*UpperSteamCave_Song_mvl/mxv
 BYTE   W01
 BYTE   VOL   47*UpperSteamCave_Song_mvl/mxv
 BYTE   W02
 BYTE   VOL   46*UpperSteamCave_Song_mvl/mxv
 BYTE   N03  Ds5
 BYTE   W01
 BYTE   VOL   45*UpperSteamCave_Song_mvl/mxv
 BYTE   W02
//  #09 //032   ----------------------------------------
 BYTE   N44  Cs5
 BYTE   W06
 BYTE   VOL   45*UpperSteamCave_Song_mvl/mxv
 BYTE   W04
 BYTE   VOL   46*UpperSteamCave_Song_mvl/mxv
 BYTE   W03
 BYTE   VOL   46*UpperSteamCave_Song_mvl/mxv
 BYTE   W03
 BYTE   VOL   47*UpperSteamCave_Song_mvl/mxv
 BYTE   W02
 BYTE   VOL   48*UpperSteamCave_Song_mvl/mxv
 BYTE   W03
 BYTE   VOL   49*UpperSteamCave_Song_mvl/mxv
 BYTE   W01
 BYTE   VOL   50*UpperSteamCave_Song_mvl/mxv
 BYTE   W02
 BYTE   VOL   50*UpperSteamCave_Song_mvl/mxv
 BYTE   W01
 BYTE   VOL   51*UpperSteamCave_Song_mvl/mxv
 BYTE   W02
 BYTE   VOL   51*UpperSteamCave_Song_mvl/mxv
 BYTE   W01
 BYTE   VOL   52*UpperSteamCave_Song_mvl/mxv
 BYTE   W02
 BYTE   VOL   53*UpperSteamCave_Song_mvl/mxv
 BYTE   W04
 BYTE   VOL   52*UpperSteamCave_Song_mvl/mxv
 BYTE   W05
 BYTE   VOL   51*UpperSteamCave_Song_mvl/mxv
 BYTE   W01
 BYTE   VOL   51*UpperSteamCave_Song_mvl/mxv
 BYTE   W02
 BYTE   VOL   50*UpperSteamCave_Song_mvl/mxv
 BYTE   W01
 BYTE   VOL   50*UpperSteamCave_Song_mvl/mxv
 BYTE   W02
 BYTE   VOL   49*UpperSteamCave_Song_mvl/mxv
 BYTE   N03  Bn4
 BYTE   W01
 BYTE   VOL   48*UpperSteamCave_Song_mvl/mxv
 BYTE   W02
 BYTE   VOL   47*UpperSteamCave_Song_mvl/mxv
 BYTE   N44  As4
 BYTE   W01
 BYTE   VOL   45*UpperSteamCave_Song_mvl/mxv
 BYTE   W05
 BYTE   VOL   46*UpperSteamCave_Song_mvl/mxv
 BYTE   W03
 BYTE   VOL   46*UpperSteamCave_Song_mvl/mxv
 BYTE   W03
 BYTE   VOL   47*UpperSteamCave_Song_mvl/mxv
 BYTE   W01
 BYTE   VOL   48*UpperSteamCave_Song_mvl/mxv
 BYTE   W02
 BYTE   VOL   49*UpperSteamCave_Song_mvl/mxv
 BYTE   W01
 BYTE   VOL   50*UpperSteamCave_Song_mvl/mxv
 BYTE   W02
 BYTE   VOL   50*UpperSteamCave_Song_mvl/mxv
 BYTE   W01
 BYTE   VOL   51*UpperSteamCave_Song_mvl/mxv
 BYTE   W02
 BYTE   VOL   52*UpperSteamCave_Song_mvl/mxv
 BYTE   W24
 BYTE   N03  Gs4
 BYTE   W01
 BYTE   VOL   51*UpperSteamCave_Song_mvl/mxv
 BYTE   W02
//  #09 //033   ----------------------------------------
 BYTE   N72  Fs4
 BYTE   W06
 BYTE   VOL   50*UpperSteamCave_Song_mvl/mxv
 BYTE   W03
 BYTE   VOL   50*UpperSteamCave_Song_mvl/mxv
 BYTE   W03
 BYTE   VOL   49*UpperSteamCave_Song_mvl/mxv
 BYTE   W01
 BYTE   VOL   48*UpperSteamCave_Song_mvl/mxv
 BYTE   W02
 BYTE   VOL   47*UpperSteamCave_Song_mvl/mxv
 BYTE   W01
 BYTE   VOL   46*UpperSteamCave_Song_mvl/mxv
 BYTE   W02
 BYTE   VOL   46*UpperSteamCave_Song_mvl/mxv
 BYTE   W01
 BYTE   VOL   45*UpperSteamCave_Song_mvl/mxv
 BYTE   W02
 BYTE   VOL   45*UpperSteamCave_Song_mvl/mxv
 BYTE   W01
 BYTE   VOL   44*UpperSteamCave_Song_mvl/mxv
 BYTE   W02
 BYTE   VOL   43*UpperSteamCave_Song_mvl/mxv
 BYTE   W01
 BYTE   VOL   42*UpperSteamCave_Song_mvl/mxv
 BYTE   W02
 BYTE   VOL   41*UpperSteamCave_Song_mvl/mxv
 BYTE   W01
 BYTE   VOL   40*UpperSteamCave_Song_mvl/mxv
 BYTE   W02
 BYTE   VOL   40*UpperSteamCave_Song_mvl/mxv
 BYTE   W01
 BYTE   VOL   38*UpperSteamCave_Song_mvl/mxv
 BYTE   W02
 BYTE   VOL   37*UpperSteamCave_Song_mvl/mxv
 BYTE   W01
 BYTE   VOL   36*UpperSteamCave_Song_mvl/mxv
 BYTE   W02
 BYTE   VOL   34*UpperSteamCave_Song_mvl/mxv
 BYTE   W01
 BYTE   VOL   34*UpperSteamCave_Song_mvl/mxv
 BYTE   W02
 BYTE   VOL   32*UpperSteamCave_Song_mvl/mxv
 BYTE   W01
 BYTE   VOL   31*UpperSteamCave_Song_mvl/mxv
 BYTE   W02
 BYTE   VOL   29*UpperSteamCave_Song_mvl/mxv
 BYTE   W01
 BYTE   VOL   28*UpperSteamCave_Song_mvl/mxv
 BYTE   W02
 BYTE   VOL   27*UpperSteamCave_Song_mvl/mxv
 BYTE   W01
 BYTE   VOL   26*UpperSteamCave_Song_mvl/mxv
 BYTE   W02
 BYTE   VOL   23*UpperSteamCave_Song_mvl/mxv
 BYTE   W01
 BYTE   VOL   23*UpperSteamCave_Song_mvl/mxv
 BYTE   W02
 BYTE   VOL   22*UpperSteamCave_Song_mvl/mxv
 BYTE   W01
 BYTE   VOL   20*UpperSteamCave_Song_mvl/mxv
 BYTE   W02
 BYTE   VOL   19*UpperSteamCave_Song_mvl/mxv
 BYTE   W01
 BYTE   VOL   17*UpperSteamCave_Song_mvl/mxv
 BYTE   W02
 BYTE   VOL   16*UpperSteamCave_Song_mvl/mxv
 BYTE   W01
 BYTE   VOL   14*UpperSteamCave_Song_mvl/mxv
 BYTE   W02
 BYTE   VOL   13*UpperSteamCave_Song_mvl/mxv
 BYTE   W01
 BYTE   VOL   11*UpperSteamCave_Song_mvl/mxv
 BYTE   W02
 BYTE   VOL   11*UpperSteamCave_Song_mvl/mxv
 BYTE   W01
 BYTE   VOL   10*UpperSteamCave_Song_mvl/mxv
 BYTE   W02
 BYTE   VOL   8*UpperSteamCave_Song_mvl/mxv
 BYTE   W01
 BYTE   VOL   6*UpperSteamCave_Song_mvl/mxv
 BYTE   W02
 BYTE   VOL   6*UpperSteamCave_Song_mvl/mxv
 BYTE   W01
 BYTE   VOL   5*UpperSteamCave_Song_mvl/mxv
 BYTE   W02
 BYTE   VOL   3*UpperSteamCave_Song_mvl/mxv
 BYTE   W01
 BYTE   VOL   3*UpperSteamCave_Song_mvl/mxv
 BYTE   W03
 BYTE   VOL   31*UpperSteamCave_Song_mvl/mxv
 BYTE   W02
 BYTE   VOL   32*UpperSteamCave_Song_mvl/mxv
 BYTE   N06  En4
 BYTE   W03
 BYTE   VOL   32*UpperSteamCave_Song_mvl/mxv
 BYTE   W01
 BYTE   VOL   33*UpperSteamCave_Song_mvl/mxv
 BYTE   W02
 BYTE   VOL   34*UpperSteamCave_Song_mvl/mxv
 BYTE   N06  Ds4
 BYTE   W01
 BYTE   VOL   34*UpperSteamCave_Song_mvl/mxv
 BYTE   W02
 BYTE   VOL   37*UpperSteamCave_Song_mvl/mxv
 BYTE   W01
 BYTE   VOL   37*UpperSteamCave_Song_mvl/mxv
 BYTE   W02
 BYTE   VOL   40*UpperSteamCave_Song_mvl/mxv
 BYTE   N06  Dn4
 BYTE   W01
 BYTE   VOL   42*UpperSteamCave_Song_mvl/mxv
 BYTE   W02
 BYTE   VOL   44*UpperSteamCave_Song_mvl/mxv
 BYTE   W01
 BYTE   VOL   46*UpperSteamCave_Song_mvl/mxv
 BYTE   W02
//  #09 //034   ----------------------------------------
 BYTE   VOL   50*UpperSteamCave_Song_mvl/mxv
 BYTE   N48  Cs4  v104
 BYTE   W42
 BYTE   W01
 BYTE   VOL   51*UpperSteamCave_Song_mvl/mxv
 BYTE   W05
 BYTE   N48  Bn3
 BYTE   W03
 BYTE   VOL   51*UpperSteamCave_Song_mvl/mxv
 BYTE   W03
 BYTE   VOL   50*UpperSteamCave_Song_mvl/mxv
 BYTE   W03
 BYTE   VOL   50*UpperSteamCave_Song_mvl/mxv
 BYTE   W01
 BYTE   VOL   49*UpperSteamCave_Song_mvl/mxv
 BYTE   W02
 BYTE   VOL   48*UpperSteamCave_Song_mvl/mxv
 BYTE   W01
 BYTE   VOL   47*UpperSteamCave_Song_mvl/mxv
 BYTE   W02
 BYTE   VOL   46*UpperSteamCave_Song_mvl/mxv
 BYTE   W01
 BYTE   VOL   46*UpperSteamCave_Song_mvl/mxv
 BYTE   W02
 BYTE   VOL   45*UpperSteamCave_Song_mvl/mxv
 BYTE   W01
 BYTE   VOL   44*UpperSteamCave_Song_mvl/mxv
 BYTE   W02
 BYTE   VOL   43*UpperSteamCave_Song_mvl/mxv
 BYTE   W01
 BYTE   VOL   43*UpperSteamCave_Song_mvl/mxv
 BYTE   W02
 BYTE   VOL   41*UpperSteamCave_Song_mvl/mxv
 BYTE   W01
 BYTE   VOL   40*UpperSteamCave_Song_mvl/mxv
 BYTE   W02
 BYTE   VOL   39*UpperSteamCave_Song_mvl/mxv
 BYTE   W01
 BYTE   VOL   37*UpperSteamCave_Song_mvl/mxv
 BYTE   W02
 BYTE   VOL   37*UpperSteamCave_Song_mvl/mxv
 BYTE   W01
 BYTE   VOL   35*UpperSteamCave_Song_mvl/mxv
 BYTE   W02
 BYTE   VOL   34*UpperSteamCave_Song_mvl/mxv
 BYTE   W01
 BYTE   VOL   33*UpperSteamCave_Song_mvl/mxv
 BYTE   W02
 BYTE   VOL   32*UpperSteamCave_Song_mvl/mxv
 BYTE   W01
 BYTE   VOL   30*UpperSteamCave_Song_mvl/mxv
 BYTE   W02
 BYTE   VOL   29*UpperSteamCave_Song_mvl/mxv
 BYTE   W01
 BYTE   VOL   27*UpperSteamCave_Song_mvl/mxv
 BYTE   W02
 BYTE   VOL   27*UpperSteamCave_Song_mvl/mxv
 BYTE   W01
 BYTE   VOL   24*UpperSteamCave_Song_mvl/mxv
 BYTE   W02
 BYTE   VOL   27*UpperSteamCave_Song_mvl/mxv
 BYTE   W03
//  #09 //035   ----------------------------------------
 BYTE   N48  Cs4
 BYTE   W03
 BYTE   VOL   27*UpperSteamCave_Song_mvl/mxv
 BYTE   W04
 BYTE   VOL   27*UpperSteamCave_Song_mvl/mxv
 BYTE   W03
 BYTE   VOL   28*UpperSteamCave_Song_mvl/mxv
 BYTE   W02
 BYTE   VOL   28*UpperSteamCave_Song_mvl/mxv
 BYTE   W03
 BYTE   VOL   29*UpperSteamCave_Song_mvl/mxv
 BYTE   W01
 BYTE   VOL   29*UpperSteamCave_Song_mvl/mxv
 BYTE   W02
 BYTE   VOL   30*UpperSteamCave_Song_mvl/mxv
 BYTE   W01
 BYTE   VOL   30*UpperSteamCave_Song_mvl/mxv
 BYTE   W02
 BYTE   VOL   31*UpperSteamCave_Song_mvl/mxv
 BYTE   W01
 BYTE   VOL   32*UpperSteamCave_Song_mvl/mxv
 BYTE   W02
 BYTE   VOL   33*UpperSteamCave_Song_mvl/mxv
 BYTE   W01
 BYTE   VOL   34*UpperSteamCave_Song_mvl/mxv
 BYTE   W02
 BYTE   VOL   34*UpperSteamCave_Song_mvl/mxv
 BYTE   W01
 BYTE   VOL   35*UpperSteamCave_Song_mvl/mxv
 BYTE   W02
 BYTE   VOL   36*UpperSteamCave_Song_mvl/mxv
 BYTE   W01
 BYTE   VOL   37*UpperSteamCave_Song_mvl/mxv
 BYTE   W02
 BYTE   VOL   38*UpperSteamCave_Song_mvl/mxv
 BYTE   W01
 BYTE   VOL   39*UpperSteamCave_Song_mvl/mxv
 BYTE   W02
 BYTE   VOL   40*UpperSteamCave_Song_mvl/mxv
 BYTE   W01
 BYTE   VOL   41*UpperSteamCave_Song_mvl/mxv
 BYTE   W02
 BYTE   VOL   43*UpperSteamCave_Song_mvl/mxv
 BYTE   W01
 BYTE   VOL   44*UpperSteamCave_Song_mvl/mxv
 BYTE   W02
 BYTE   VOL   45*UpperSteamCave_Song_mvl/mxv
 BYTE   W01
 BYTE   VOL   46*UpperSteamCave_Song_mvl/mxv
 BYTE   W02
 BYTE   VOL   49*UpperSteamCave_Song_mvl/mxv
 BYTE   W01
 BYTE   VOL   50*UpperSteamCave_Song_mvl/mxv
 BYTE   W02
 BYTE   VOL   51*UpperSteamCave_Song_mvl/mxv
 BYTE   N48  An3
 BYTE   W06
 BYTE   VOL   51*UpperSteamCave_Song_mvl/mxv
 BYTE   W04
 BYTE   VOL   50*UpperSteamCave_Song_mvl/mxv
 BYTE   W03
 BYTE   VOL   50*UpperSteamCave_Song_mvl/mxv
 BYTE   W02
 BYTE   VOL   49*UpperSteamCave_Song_mvl/mxv
 BYTE   W01
 BYTE   VOL   48*UpperSteamCave_Song_mvl/mxv
 BYTE   W02
 BYTE   VOL   47*UpperSteamCave_Song_mvl/mxv
 BYTE   W01
 BYTE   VOL   46*UpperSteamCave_Song_mvl/mxv
 BYTE   W02
 BYTE   VOL   46*UpperSteamCave_Song_mvl/mxv
 BYTE   W01
 BYTE   VOL   45*UpperSteamCave_Song_mvl/mxv
 BYTE   W02
 BYTE   VOL   45*UpperSteamCave_Song_mvl/mxv
 BYTE   W01
 BYTE   VOL   44*UpperSteamCave_Song_mvl/mxv
 BYTE   W02
 BYTE   VOL   43*UpperSteamCave_Song_mvl/mxv
 BYTE   W01
 BYTE   VOL   43*UpperSteamCave_Song_mvl/mxv
 BYTE   W02
 BYTE   VOL   41*UpperSteamCave_Song_mvl/mxv
 BYTE   W01
 BYTE   VOL   40*UpperSteamCave_Song_mvl/mxv
 BYTE   W02
 BYTE   VOL   40*UpperSteamCave_Song_mvl/mxv
 BYTE   W01
 BYTE   VOL   38*UpperSteamCave_Song_mvl/mxv
 BYTE   W02
 BYTE   VOL   37*UpperSteamCave_Song_mvl/mxv
 BYTE   W01
 BYTE   VOL   36*UpperSteamCave_Song_mvl/mxv
 BYTE   W02
 BYTE   VOL   34*UpperSteamCave_Song_mvl/mxv
 BYTE   W01
 BYTE   VOL   34*UpperSteamCave_Song_mvl/mxv
 BYTE   W02
 BYTE   VOL   33*UpperSteamCave_Song_mvl/mxv
 BYTE   W01
 BYTE   VOL   32*UpperSteamCave_Song_mvl/mxv
 BYTE   W02
 BYTE   VOL   30*UpperSteamCave_Song_mvl/mxv
 BYTE   W01
 BYTE   VOL   29*UpperSteamCave_Song_mvl/mxv
 BYTE   W02
//  #09 //036   ----------------------------------------
 BYTE   VOL   25*UpperSteamCave_Song_mvl/mxv
 BYTE   N48  Cs4
 BYTE   W01
 BYTE   VOL   26*UpperSteamCave_Song_mvl/mxv
 BYTE   W06
 BYTE   VOL   27*UpperSteamCave_Song_mvl/mxv
 BYTE   W05
 BYTE   VOL   27*UpperSteamCave_Song_mvl/mxv
 BYTE   W01
 BYTE   VOL   27*UpperSteamCave_Song_mvl/mxv
 BYTE   W02
 BYTE   VOL   28*UpperSteamCave_Song_mvl/mxv
 BYTE   W01
 BYTE   VOL   28*UpperSteamCave_Song_mvl/mxv
 BYTE   W02
 BYTE   VOL   29*UpperSteamCave_Song_mvl/mxv
 BYTE   W01
 BYTE   VOL   29*UpperSteamCave_Song_mvl/mxv
 BYTE   W02
 BYTE   VOL   30*UpperSteamCave_Song_mvl/mxv
 BYTE   W01
 BYTE   VOL   30*UpperSteamCave_Song_mvl/mxv
 BYTE   W02
 BYTE   VOL   32*UpperSteamCave_Song_mvl/mxv
 BYTE   W01
 BYTE   VOL   32*UpperSteamCave_Song_mvl/mxv
 BYTE   W02
 BYTE   VOL   34*UpperSteamCave_Song_mvl/mxv
 BYTE   W01
 BYTE   VOL   34*UpperSteamCave_Song_mvl/mxv
 BYTE   W02
 BYTE   VOL   35*UpperSteamCave_Song_mvl/mxv
 BYTE   W01
 BYTE   VOL   37*UpperSteamCave_Song_mvl/mxv
 BYTE   W02
 BYTE   VOL   37*UpperSteamCave_Song_mvl/mxv
 BYTE   W01
 BYTE   VOL   39*UpperSteamCave_Song_mvl/mxv
 BYTE   W02
 BYTE   VOL   40*UpperSteamCave_Song_mvl/mxv
 BYTE   W01
 BYTE   VOL   41*UpperSteamCave_Song_mvl/mxv
 BYTE   W02
 BYTE   VOL   43*UpperSteamCave_Song_mvl/mxv
 BYTE   W01
 BYTE   VOL   44*UpperSteamCave_Song_mvl/mxv
 BYTE   W02
 BYTE   VOL   46*UpperSteamCave_Song_mvl/mxv
 BYTE   W01
 BYTE   VOL   48*UpperSteamCave_Song_mvl/mxv
 BYTE   W02
 BYTE   VOL   50*UpperSteamCave_Song_mvl/mxv
 BYTE   W01
 BYTE   VOL   51*UpperSteamCave_Song_mvl/mxv
 BYTE   W02
 BYTE   N48  Bn3
 BYTE   W01
 BYTE   VOL   53*UpperSteamCave_Song_mvl/mxv
 BYTE   W06
 BYTE   VOL   52*UpperSteamCave_Song_mvl/mxv
 BYTE   W03
 BYTE   VOL   51*UpperSteamCave_Song_mvl/mxv
 BYTE   W02
 BYTE   VOL   51*UpperSteamCave_Song_mvl/mxv
 BYTE   W03
 BYTE   VOL   50*UpperSteamCave_Song_mvl/mxv
 BYTE   W01
 BYTE   VOL   50*UpperSteamCave_Song_mvl/mxv
 BYTE   W02
 BYTE   VOL   48*UpperSteamCave_Song_mvl/mxv
 BYTE   W01
 BYTE   VOL   47*UpperSteamCave_Song_mvl/mxv
 BYTE   W02
 BYTE   VOL   46*UpperSteamCave_Song_mvl/mxv
 BYTE   W01
 BYTE   VOL   45*UpperSteamCave_Song_mvl/mxv
 BYTE   W02
 BYTE   VOL   45*UpperSteamCave_Song_mvl/mxv
 BYTE   W01
 BYTE   VOL   43*UpperSteamCave_Song_mvl/mxv
 BYTE   W02
 BYTE   VOL   43*UpperSteamCave_Song_mvl/mxv
 BYTE   W01
 BYTE   VOL   41*UpperSteamCave_Song_mvl/mxv
 BYTE   W02
 BYTE   VOL   40*UpperSteamCave_Song_mvl/mxv
 BYTE   W01
 BYTE   VOL   39*UpperSteamCave_Song_mvl/mxv
 BYTE   W02
 BYTE   VOL   37*UpperSteamCave_Song_mvl/mxv
 BYTE   W01
 BYTE   VOL   36*UpperSteamCave_Song_mvl/mxv
 BYTE   W02
 BYTE   VOL   34*UpperSteamCave_Song_mvl/mxv
 BYTE   W01
 BYTE   VOL   34*UpperSteamCave_Song_mvl/mxv
 BYTE   W02
 BYTE   VOL   32*UpperSteamCave_Song_mvl/mxv
 BYTE   W01
 BYTE   VOL   30*UpperSteamCave_Song_mvl/mxv
 BYTE   W02
 BYTE   VOL   28*UpperSteamCave_Song_mvl/mxv
 BYTE   W01
 BYTE   VOL   27*UpperSteamCave_Song_mvl/mxv
 BYTE   W02
 BYTE   VOL   26*UpperSteamCave_Song_mvl/mxv
 BYTE   W01
 BYTE   VOL   28*UpperSteamCave_Song_mvl/mxv
 BYTE   W02
//  #09 //037   ----------------------------------------
 BYTE   VOL   29*UpperSteamCave_Song_mvl/mxv
 BYTE   N48  Cs4
 BYTE   W07
 BYTE   VOL   29*UpperSteamCave_Song_mvl/mxv
 BYTE   W03
 BYTE   VOL   30*UpperSteamCave_Song_mvl/mxv
 BYTE   W03
 BYTE   VOL   30*UpperSteamCave_Song_mvl/mxv
 BYTE   W02
 BYTE   VOL   31*UpperSteamCave_Song_mvl/mxv
 BYTE   W01
 BYTE   VOL   32*UpperSteamCave_Song_mvl/mxv
 BYTE   W03
 BYTE   VOL   32*UpperSteamCave_Song_mvl/mxv
 BYTE   W02
 BYTE   VOL   33*UpperSteamCave_Song_mvl/mxv
 BYTE   W01
 BYTE   VOL   34*UpperSteamCave_Song_mvl/mxv
 BYTE   W02
 BYTE   VOL   34*UpperSteamCave_Song_mvl/mxv
 BYTE   W01
 BYTE   VOL   34*UpperSteamCave_Song_mvl/mxv
 BYTE   W02
 BYTE   VOL   36*UpperSteamCave_Song_mvl/mxv
 BYTE   W01
 BYTE   VOL   37*UpperSteamCave_Song_mvl/mxv
 BYTE   W02
 BYTE   VOL   37*UpperSteamCave_Song_mvl/mxv
 BYTE   W01
 BYTE   VOL   38*UpperSteamCave_Song_mvl/mxv
 BYTE   W02
 BYTE   VOL   40*UpperSteamCave_Song_mvl/mxv
 BYTE   W01
 BYTE   VOL   40*UpperSteamCave_Song_mvl/mxv
 BYTE   W02
 BYTE   VOL   41*UpperSteamCave_Song_mvl/mxv
 BYTE   W01
 BYTE   VOL   43*UpperSteamCave_Song_mvl/mxv
 BYTE   W02
 BYTE   VOL   43*UpperSteamCave_Song_mvl/mxv
 BYTE   W01
 BYTE   VOL   45*UpperSteamCave_Song_mvl/mxv
 BYTE   W02
 BYTE   VOL   46*UpperSteamCave_Song_mvl/mxv
 BYTE   W01
 BYTE   VOL   47*UpperSteamCave_Song_mvl/mxv
 BYTE   W02
 BYTE   VOL   49*UpperSteamCave_Song_mvl/mxv
 BYTE   W01
 BYTE   VOL   50*UpperSteamCave_Song_mvl/mxv
 BYTE   W02
 BYTE   VOL   52*UpperSteamCave_Song_mvl/mxv
 BYTE   N48  Gn3
 BYTE   W01
 BYTE   VOL   52*UpperSteamCave_Song_mvl/mxv
 BYTE   W09
 BYTE   VOL   51*UpperSteamCave_Song_mvl/mxv
 BYTE   W03
 BYTE   VOL   51*UpperSteamCave_Song_mvl/mxv
 BYTE   W03
 BYTE   VOL   50*UpperSteamCave_Song_mvl/mxv
 BYTE   W02
 BYTE   VOL   50*UpperSteamCave_Song_mvl/mxv
 BYTE   W03
 BYTE   VOL   49*UpperSteamCave_Song_mvl/mxv
 BYTE   W01
 BYTE   VOL   48*UpperSteamCave_Song_mvl/mxv
 BYTE   W02
 BYTE   VOL   47*UpperSteamCave_Song_mvl/mxv
 BYTE   W01
 BYTE   VOL   46*UpperSteamCave_Song_mvl/mxv
 BYTE   W02
 BYTE   VOL   46*UpperSteamCave_Song_mvl/mxv
 BYTE   W01
 BYTE   VOL   45*UpperSteamCave_Song_mvl/mxv
 BYTE   W02
 BYTE   VOL   44*UpperSteamCave_Song_mvl/mxv
 BYTE   W01
 BYTE   VOL   43*UpperSteamCave_Song_mvl/mxv
 BYTE   W02
 BYTE   VOL   43*UpperSteamCave_Song_mvl/mxv
 BYTE   W01
 BYTE   VOL   42*UpperSteamCave_Song_mvl/mxv
 BYTE   W02
 BYTE   VOL   40*UpperSteamCave_Song_mvl/mxv
 BYTE   W01
 BYTE   VOL   40*UpperSteamCave_Song_mvl/mxv
 BYTE   W02
 BYTE   VOL   39*UpperSteamCave_Song_mvl/mxv
 BYTE   W01
 BYTE   VOL   37*UpperSteamCave_Song_mvl/mxv
 BYTE   W02
 BYTE   VOL   37*UpperSteamCave_Song_mvl/mxv
 BYTE   W01
 BYTE   VOL   35*UpperSteamCave_Song_mvl/mxv
 BYTE   W02
 BYTE   VOL   34*UpperSteamCave_Song_mvl/mxv
 BYTE   W01
 BYTE   VOL   29*UpperSteamCave_Song_mvl/mxv
 BYTE   W02
//  #09 //038   ----------------------------------------
 BYTE   N48  As3
 BYTE   W04
 BYTE   VOL   30*UpperSteamCave_Song_mvl/mxv
 BYTE   W05
 BYTE   VOL   30*UpperSteamCave_Song_mvl/mxv
 BYTE   W03
 BYTE   VOL   31*UpperSteamCave_Song_mvl/mxv
 BYTE   W01
 BYTE   VOL   32*UpperSteamCave_Song_mvl/mxv
 BYTE   W03
 BYTE   VOL   32*UpperSteamCave_Song_mvl/mxv
 BYTE   W02
 BYTE   VOL   33*UpperSteamCave_Song_mvl/mxv
 BYTE   W01
 BYTE   VOL   34*UpperSteamCave_Song_mvl/mxv
 BYTE   W02
 BYTE   VOL   34*UpperSteamCave_Song_mvl/mxv
 BYTE   W01
 BYTE   VOL   34*UpperSteamCave_Song_mvl/mxv
 BYTE   W02
 BYTE   VOL   35*UpperSteamCave_Song_mvl/mxv
 BYTE   W01
 BYTE   VOL   36*UpperSteamCave_Song_mvl/mxv
 BYTE   W02
 BYTE   VOL   37*UpperSteamCave_Song_mvl/mxv
 BYTE   W01
 BYTE   VOL   37*UpperSteamCave_Song_mvl/mxv
 BYTE   W02
 BYTE   VOL   38*UpperSteamCave_Song_mvl/mxv
 BYTE   W01
 BYTE   VOL   40*UpperSteamCave_Song_mvl/mxv
 BYTE   W02
 BYTE   VOL   40*UpperSteamCave_Song_mvl/mxv
 BYTE   W01
 BYTE   VOL   41*UpperSteamCave_Song_mvl/mxv
 BYTE   W02
 BYTE   VOL   43*UpperSteamCave_Song_mvl/mxv
 BYTE   W01
 BYTE   VOL   43*UpperSteamCave_Song_mvl/mxv
 BYTE   W02
 BYTE   VOL   45*UpperSteamCave_Song_mvl/mxv
 BYTE   W01
 BYTE   VOL   46*UpperSteamCave_Song_mvl/mxv
 BYTE   W02
 BYTE   VOL   47*UpperSteamCave_Song_mvl/mxv
 BYTE   W01
 BYTE   VOL   49*UpperSteamCave_Song_mvl/mxv
 BYTE   W02
 BYTE   VOL   50*UpperSteamCave_Song_mvl/mxv
 BYTE   W01
 BYTE   VOL   52*UpperSteamCave_Song_mvl/mxv
 BYTE   W02
 BYTE   VOL   53*UpperSteamCave_Song_mvl/mxv
 BYTE   N48  Gs3
 BYTE   W10
 BYTE   VOL   52*UpperSteamCave_Song_mvl/mxv
 BYTE   W02
 BYTE   VOL   51*UpperSteamCave_Song_mvl/mxv
 BYTE   W03
 BYTE   VOL   51*UpperSteamCave_Song_mvl/mxv
 BYTE   W01
 BYTE   VOL   50*UpperSteamCave_Song_mvl/mxv
 BYTE   W02
 BYTE   VOL   50*UpperSteamCave_Song_mvl/mxv
 BYTE   W01
 BYTE   VOL   49*UpperSteamCave_Song_mvl/mxv
 BYTE   W02
 BYTE   VOL   48*UpperSteamCave_Song_mvl/mxv
 BYTE   W01
 BYTE   VOL   47*UpperSteamCave_Song_mvl/mxv
 BYTE   W02
 BYTE   VOL   46*UpperSteamCave_Song_mvl/mxv
 BYTE   W01
 BYTE   VOL   45*UpperSteamCave_Song_mvl/mxv
 BYTE   W02
 BYTE   VOL   45*UpperSteamCave_Song_mvl/mxv
 BYTE   W01
 BYTE   VOL   43*UpperSteamCave_Song_mvl/mxv
 BYTE   W02
 BYTE   VOL   43*UpperSteamCave_Song_mvl/mxv
 BYTE   W01
 BYTE   VOL   41*UpperSteamCave_Song_mvl/mxv
 BYTE   W02
 BYTE   VOL   40*UpperSteamCave_Song_mvl/mxv
 BYTE   W01
 BYTE   VOL   40*UpperSteamCave_Song_mvl/mxv
 BYTE   W02
 BYTE   VOL   38*UpperSteamCave_Song_mvl/mxv
 BYTE   W01
 BYTE   VOL   37*UpperSteamCave_Song_mvl/mxv
 BYTE   W02
 BYTE   VOL   35*UpperSteamCave_Song_mvl/mxv
 BYTE   W01
 BYTE   VOL   34*UpperSteamCave_Song_mvl/mxv
 BYTE   W02
 BYTE   VOL   33*UpperSteamCave_Song_mvl/mxv
 BYTE   W01
 BYTE   VOL   32*UpperSteamCave_Song_mvl/mxv
 BYTE   W02
 BYTE   VOL   30*UpperSteamCave_Song_mvl/mxv
 BYTE   W01
 BYTE   VOL   29*UpperSteamCave_Song_mvl/mxv
 BYTE   W02
//  #09 //039   ----------------------------------------
 BYTE   VOL   27*UpperSteamCave_Song_mvl/mxv
 BYTE   N48  As3
 BYTE   W07
 BYTE   VOL   27*UpperSteamCave_Song_mvl/mxv
 BYTE   W03
 BYTE   VOL   27*UpperSteamCave_Song_mvl/mxv
 BYTE   W02
 BYTE   VOL   28*UpperSteamCave_Song_mvl/mxv
 BYTE   W03
 BYTE   VOL   28*UpperSteamCave_Song_mvl/mxv
 BYTE   W01
 BYTE   VOL   29*UpperSteamCave_Song_mvl/mxv
 BYTE   W02
 BYTE   VOL   29*UpperSteamCave_Song_mvl/mxv
 BYTE   W01
 BYTE   VOL   30*UpperSteamCave_Song_mvl/mxv
 BYTE   W02
 BYTE   VOL   31*UpperSteamCave_Song_mvl/mxv
 BYTE   W01
 BYTE   VOL   32*UpperSteamCave_Song_mvl/mxv
 BYTE   W02
 BYTE   VOL   33*UpperSteamCave_Song_mvl/mxv
 BYTE   W01
 BYTE   VOL   34*UpperSteamCave_Song_mvl/mxv
 BYTE   W02
 BYTE   VOL   34*UpperSteamCave_Song_mvl/mxv
 BYTE   W01
 BYTE   VOL   35*UpperSteamCave_Song_mvl/mxv
 BYTE   W02
 BYTE   VOL   37*UpperSteamCave_Song_mvl/mxv
 BYTE   W01
 BYTE   VOL   37*UpperSteamCave_Song_mvl/mxv
 BYTE   W02
 BYTE   VOL   39*UpperSteamCave_Song_mvl/mxv
 BYTE   W01
 BYTE   VOL   40*UpperSteamCave_Song_mvl/mxv
 BYTE   W02
 BYTE   VOL   41*UpperSteamCave_Song_mvl/mxv
 BYTE   W01
 BYTE   VOL   43*UpperSteamCave_Song_mvl/mxv
 BYTE   W02
 BYTE   VOL   45*UpperSteamCave_Song_mvl/mxv
 BYTE   W01
 BYTE   VOL   46*UpperSteamCave_Song_mvl/mxv
 BYTE   W02
 BYTE   VOL   48*UpperSteamCave_Song_mvl/mxv
 BYTE   W01
 BYTE   VOL   50*UpperSteamCave_Song_mvl/mxv
 BYTE   W02
 BYTE   VOL   51*UpperSteamCave_Song_mvl/mxv
 BYTE   W03
 BYTE   VOL   53*UpperSteamCave_Song_mvl/mxv
 BYTE   N48  Fn3
 BYTE   W06
 BYTE   VOL   52*UpperSteamCave_Song_mvl/mxv
 BYTE   W04
 BYTE   VOL   51*UpperSteamCave_Song_mvl/mxv
 BYTE   W02
 BYTE   VOL   51*UpperSteamCave_Song_mvl/mxv
 BYTE   W03
 BYTE   VOL   50*UpperSteamCave_Song_mvl/mxv
 BYTE   W01
 BYTE   VOL   50*UpperSteamCave_Song_mvl/mxv
 BYTE   W02
 BYTE   VOL   49*UpperSteamCave_Song_mvl/mxv
 BYTE   W01
 BYTE   VOL   48*UpperSteamCave_Song_mvl/mxv
 BYTE   W02
 BYTE   VOL   47*UpperSteamCave_Song_mvl/mxv
 BYTE   W01
 BYTE   VOL   46*UpperSteamCave_Song_mvl/mxv
 BYTE   W02
 BYTE   VOL   45*UpperSteamCave_Song_mvl/mxv
 BYTE   W01
 BYTE   VOL   45*UpperSteamCave_Song_mvl/mxv
 BYTE   W02
 BYTE   VOL   44*UpperSteamCave_Song_mvl/mxv
 BYTE   W01
 BYTE   VOL   43*UpperSteamCave_Song_mvl/mxv
 BYTE   W02
 BYTE   VOL   42*UpperSteamCave_Song_mvl/mxv
 BYTE   W01
 BYTE   VOL   40*UpperSteamCave_Song_mvl/mxv
 BYTE   W02
 BYTE   VOL   40*UpperSteamCave_Song_mvl/mxv
 BYTE   W01
 BYTE   VOL   39*UpperSteamCave_Song_mvl/mxv
 BYTE   W02
 BYTE   VOL   37*UpperSteamCave_Song_mvl/mxv
 BYTE   W01
 BYTE   VOL   37*UpperSteamCave_Song_mvl/mxv
 BYTE   W02
 BYTE   VOL   34*UpperSteamCave_Song_mvl/mxv
 BYTE   W01
 BYTE   VOL   34*UpperSteamCave_Song_mvl/mxv
 BYTE   W02
 BYTE   VOL   32*UpperSteamCave_Song_mvl/mxv
 BYTE   W01
 BYTE   VOL   31*UpperSteamCave_Song_mvl/mxv
 BYTE   W02
 BYTE   VOL   30*UpperSteamCave_Song_mvl/mxv
 BYTE   W01
 BYTE   VOL   28*UpperSteamCave_Song_mvl/mxv
 BYTE   W02
//  #09 //040   ----------------------------------------
 BYTE   VOL   27*UpperSteamCave_Song_mvl/mxv
 BYTE   N48  As3
 BYTE   W01
 BYTE   VOL   27*UpperSteamCave_Song_mvl/mxv
 BYTE   W02
 BYTE   VOL   27*UpperSteamCave_Song_mvl/mxv
 BYTE   W06
 BYTE   VOL   28*UpperSteamCave_Song_mvl/mxv
 BYTE   W03
 BYTE   VOL   28*UpperSteamCave_Song_mvl/mxv
 BYTE   W03
 BYTE   VOL   29*UpperSteamCave_Song_mvl/mxv
 BYTE   W01
 BYTE   VOL   29*UpperSteamCave_Song_mvl/mxv
 BYTE   W02
 BYTE   VOL   30*UpperSteamCave_Song_mvl/mxv
 BYTE   W01
 BYTE   VOL   30*UpperSteamCave_Song_mvl/mxv
 BYTE   W02
 BYTE   VOL   31*UpperSteamCave_Song_mvl/mxv
 BYTE   W01
 BYTE   VOL   32*UpperSteamCave_Song_mvl/mxv
 BYTE   W02
 BYTE   VOL   33*UpperSteamCave_Song_mvl/mxv
 BYTE   W01
 BYTE   VOL   34*UpperSteamCave_Song_mvl/mxv
 BYTE   W02
 BYTE   VOL   34*UpperSteamCave_Song_mvl/mxv
 BYTE   W01
 BYTE   VOL   35*UpperSteamCave_Song_mvl/mxv
 BYTE   W02
 BYTE   VOL   36*UpperSteamCave_Song_mvl/mxv
 BYTE   W01
 BYTE   VOL   37*UpperSteamCave_Song_mvl/mxv
 BYTE   W02
 BYTE   VOL   38*UpperSteamCave_Song_mvl/mxv
 BYTE   W01
 BYTE   VOL   40*UpperSteamCave_Song_mvl/mxv
 BYTE   W02
 BYTE   VOL   40*UpperSteamCave_Song_mvl/mxv
 BYTE   W01
 BYTE   VOL   42*UpperSteamCave_Song_mvl/mxv
 BYTE   W02
 BYTE   VOL   43*UpperSteamCave_Song_mvl/mxv
 BYTE   W01
 BYTE   VOL   45*UpperSteamCave_Song_mvl/mxv
 BYTE   W02
 BYTE   VOL   46*UpperSteamCave_Song_mvl/mxv
 BYTE   W01
 BYTE   VOL   48*UpperSteamCave_Song_mvl/mxv
 BYTE   W02
 BYTE   VOL   50*UpperSteamCave_Song_mvl/mxv
 BYTE   W01
 BYTE   VOL   51*UpperSteamCave_Song_mvl/mxv
 BYTE   W02
 BYTE   VOL   53*UpperSteamCave_Song_mvl/mxv
 BYTE   N48  Gs3
 BYTE   W06
 BYTE   VOL   52*UpperSteamCave_Song_mvl/mxv
 BYTE   W03
 BYTE   VOL   51*UpperSteamCave_Song_mvl/mxv
 BYTE   W01
 BYTE   VOL   51*UpperSteamCave_Song_mvl/mxv
 BYTE   W03
 BYTE   VOL   50*UpperSteamCave_Song_mvl/mxv
 BYTE   W02
 BYTE   VOL   50*UpperSteamCave_Song_mvl/mxv
 BYTE   W01
 BYTE   VOL   49*UpperSteamCave_Song_mvl/mxv
 BYTE   W02
 BYTE   VOL   48*UpperSteamCave_Song_mvl/mxv
 BYTE   W01
 BYTE   VOL   46*UpperSteamCave_Song_mvl/mxv
 BYTE   W02
 BYTE   VOL   46*UpperSteamCave_Song_mvl/mxv
 BYTE   W01
 BYTE   VOL   45*UpperSteamCave_Song_mvl/mxv
 BYTE   W02
 BYTE   VOL   44*UpperSteamCave_Song_mvl/mxv
 BYTE   W01
 BYTE   VOL   43*UpperSteamCave_Song_mvl/mxv
 BYTE   W02
 BYTE   VOL   42*UpperSteamCave_Song_mvl/mxv
 BYTE   W01
 BYTE   VOL   40*UpperSteamCave_Song_mvl/mxv
 BYTE   W02
 BYTE   VOL   40*UpperSteamCave_Song_mvl/mxv
 BYTE   W01
 BYTE   VOL   38*UpperSteamCave_Song_mvl/mxv
 BYTE   W02
 BYTE   VOL   37*UpperSteamCave_Song_mvl/mxv
 BYTE   W01
 BYTE   VOL   35*UpperSteamCave_Song_mvl/mxv
 BYTE   W02
 BYTE   VOL   34*UpperSteamCave_Song_mvl/mxv
 BYTE   W01
 BYTE   VOL   33*UpperSteamCave_Song_mvl/mxv
 BYTE   W02
 BYTE   VOL   31*UpperSteamCave_Song_mvl/mxv
 BYTE   W01
 BYTE   VOL   30*UpperSteamCave_Song_mvl/mxv
 BYTE   W02
 BYTE   VOL   28*UpperSteamCave_Song_mvl/mxv
 BYTE   W01
 BYTE   VOL   27*UpperSteamCave_Song_mvl/mxv
 BYTE   W05
//  #09 //041   ----------------------------------------
 BYTE   N48  As3
 BYTE   W01
 BYTE   VOL   27*UpperSteamCave_Song_mvl/mxv
 BYTE   W02
 BYTE   VOL   27*UpperSteamCave_Song_mvl/mxv
 BYTE   W06
 BYTE   VOL   28*UpperSteamCave_Song_mvl/mxv
 BYTE   W03
 BYTE   VOL   28*UpperSteamCave_Song_mvl/mxv
 BYTE   W01
 BYTE   VOL   29*UpperSteamCave_Song_mvl/mxv
 BYTE   W02
 BYTE   VOL   29*UpperSteamCave_Song_mvl/mxv
 BYTE   W01
 BYTE   VOL   30*UpperSteamCave_Song_mvl/mxv
 BYTE   W02
 BYTE   VOL   30*UpperSteamCave_Song_mvl/mxv
 BYTE   W01
 BYTE   VOL   31*UpperSteamCave_Song_mvl/mxv
 BYTE   W02
 BYTE   VOL   32*UpperSteamCave_Song_mvl/mxv
 BYTE   W01
 BYTE   VOL   33*UpperSteamCave_Song_mvl/mxv
 BYTE   W02
 BYTE   VOL   34*UpperSteamCave_Song_mvl/mxv
 BYTE   W01
 BYTE   VOL   34*UpperSteamCave_Song_mvl/mxv
 BYTE   W02
 BYTE   VOL   36*UpperSteamCave_Song_mvl/mxv
 BYTE   W01
 BYTE   VOL   37*UpperSteamCave_Song_mvl/mxv
 BYTE   W02
 BYTE   VOL   38*UpperSteamCave_Song_mvl/mxv
 BYTE   W01
 BYTE   VOL   40*UpperSteamCave_Song_mvl/mxv
 BYTE   W02
 BYTE   VOL   40*UpperSteamCave_Song_mvl/mxv
 BYTE   W01
 BYTE   VOL   43*UpperSteamCave_Song_mvl/mxv
 BYTE   W02
 BYTE   VOL   44*UpperSteamCave_Song_mvl/mxv
 BYTE   W01
 BYTE   VOL   43*UpperSteamCave_Song_mvl/mxv
 BYTE   W06
 BYTE   VOL   43*UpperSteamCave_Song_mvl/mxv
 BYTE   W03
 BYTE   VOL   42*UpperSteamCave_Song_mvl/mxv
 BYTE   W02
 BYTE   VOL   41*UpperSteamCave_Song_mvl/mxv
 BYTE   N48  Gn3
 BYTE   W01
 BYTE   VOL   40*UpperSteamCave_Song_mvl/mxv
 BYTE   W02
 BYTE   VOL   40*UpperSteamCave_Song_mvl/mxv
 BYTE   W01
 BYTE   VOL   39*UpperSteamCave_Song_mvl/mxv
 BYTE   W02
 BYTE   VOL   38*UpperSteamCave_Song_mvl/mxv
 BYTE   W01
 BYTE   VOL   37*UpperSteamCave_Song_mvl/mxv
 BYTE   W02
 BYTE   VOL   36*UpperSteamCave_Song_mvl/mxv
 BYTE   W01
 BYTE   VOL   34*UpperSteamCave_Song_mvl/mxv
 BYTE   W02
 BYTE   VOL   34*UpperSteamCave_Song_mvl/mxv
 BYTE   W01
 BYTE   VOL   32*UpperSteamCave_Song_mvl/mxv
 BYTE   W02
 BYTE   VOL   30*UpperSteamCave_Song_mvl/mxv
 BYTE   W01
 BYTE   VOL   29*UpperSteamCave_Song_mvl/mxv
 BYTE   W02
 BYTE   VOL   27*UpperSteamCave_Song_mvl/mxv
 BYTE   W01
 BYTE   VOL   27*UpperSteamCave_Song_mvl/mxv
 BYTE   W02
 BYTE   VOL   23*UpperSteamCave_Song_mvl/mxv
 BYTE   W01
 BYTE   VOL   22*UpperSteamCave_Song_mvl/mxv
 BYTE   W02
 BYTE   VOL   21*UpperSteamCave_Song_mvl/mxv
 BYTE   W01
 BYTE   VOL   19*UpperSteamCave_Song_mvl/mxv
 BYTE   W02
 BYTE   VOL   18*UpperSteamCave_Song_mvl/mxv
 BYTE   W01
 BYTE   VOL   16*UpperSteamCave_Song_mvl/mxv
 BYTE   W02
 BYTE   VOL   14*UpperSteamCave_Song_mvl/mxv
 BYTE   W01
 BYTE   VOL   13*UpperSteamCave_Song_mvl/mxv
 BYTE   W02
 BYTE   VOL   11*UpperSteamCave_Song_mvl/mxv
 BYTE   W01
 BYTE   VOL   10*UpperSteamCave_Song_mvl/mxv
 BYTE   W02
 BYTE   VOL   8*UpperSteamCave_Song_mvl/mxv
 BYTE   W01
 BYTE   VOL   6*UpperSteamCave_Song_mvl/mxv
 BYTE   W02
 BYTE   VOL   5*UpperSteamCave_Song_mvl/mxv
 BYTE   W01
 BYTE   VOL   3*UpperSteamCave_Song_mvl/mxv
 BYTE   W02
 BYTE   VOL   2*UpperSteamCave_Song_mvl/mxv
 BYTE   W01
 BYTE   VOL   1*UpperSteamCave_Song_mvl/mxv
 BYTE   W02
 BYTE   VOL   0*UpperSteamCave_Song_mvl/mxv
 BYTE   W01
 BYTE   VOL   0*UpperSteamCave_Song_mvl/mxv
 BYTE   W02
//  #09 //042   ----------------------------------------
 BYTE   GoTo
  POIN2 Label_016B2032
 BYTE   FINE

//**************** Track 10 (Midi-Chn.9) ****************//

UpperSteamCave_Song_010:
//  #10 //000   ----------------------------------------
 BYTE   KEYSH   UpperSteamCave_Song_key+0
Label_016B2B3A:
 BYTE   VOICE   40
 BYTE   MODT 0
 BYTE   LFOS 44
 BYTE   VOL   17*UpperSteamCave_Song_mvl/mxv
 BYTE   PAN   c_v+63
 BYTE   VOL   17*UpperSteamCave_Song_mvl/mxv
 BYTE   BEND   c_v+0
 BYTE   W96
//  #10 //001   ----------------------------------------
 BYTE   W96
//  #10 //002   ----------------------------------------
 BYTE   W96
//  #10 //003   ----------------------------------------
 BYTE   W96
//  #10 //004   ----------------------------------------
 BYTE   W96
//  #10 //005   ----------------------------------------
 BYTE   W96
//  #10 //006   ----------------------------------------
 BYTE   W96
//  #10 //007   ----------------------------------------
 BYTE   W96
//  #10 //008   ----------------------------------------
 BYTE   W54
 BYTE   W01
 BYTE   VOL   5*UpperSteamCave_Song_mvl/mxv
 BYTE   W05
 BYTE   N48  Dn3  v076
 BYTE   W01
 BYTE   VOL   6*UpperSteamCave_Song_mvl/mxv
 BYTE   W03
 BYTE   VOL   6*UpperSteamCave_Song_mvl/mxv
 BYTE   W03
 BYTE   VOL   6*UpperSteamCave_Song_mvl/mxv
 BYTE   W03
 BYTE   VOL   6*UpperSteamCave_Song_mvl/mxv
 BYTE   W02
 BYTE   VOL   6*UpperSteamCave_Song_mvl/mxv
 BYTE   W01
 BYTE   VOL   6*UpperSteamCave_Song_mvl/mxv
 BYTE   W02
 BYTE   VOL   6*UpperSteamCave_Song_mvl/mxv
 BYTE   W01
 BYTE   VOL   6*UpperSteamCave_Song_mvl/mxv
 BYTE   W02
 BYTE   VOL   6*UpperSteamCave_Song_mvl/mxv
 BYTE   W01
 BYTE   VOL   7*UpperSteamCave_Song_mvl/mxv
 BYTE   W02
 BYTE   VOL   7*UpperSteamCave_Song_mvl/mxv
 BYTE   W01
 BYTE   VOL   8*UpperSteamCave_Song_mvl/mxv
 BYTE   W02
 BYTE   VOL   8*UpperSteamCave_Song_mvl/mxv
 BYTE   W01
 BYTE   VOL   8*UpperSteamCave_Song_mvl/mxv
 BYTE   W02
 BYTE   VOL   8*UpperSteamCave_Song_mvl/mxv
 BYTE   W01
 BYTE   VOL   9*UpperSteamCave_Song_mvl/mxv
 BYTE   W02
 BYTE   VOL   10*UpperSteamCave_Song_mvl/mxv
 BYTE   W01
 BYTE   VOL   10*UpperSteamCave_Song_mvl/mxv
 BYTE   W02
 BYTE   VOL   10*UpperSteamCave_Song_mvl/mxv
 BYTE   W01
 BYTE   VOL   10*UpperSteamCave_Song_mvl/mxv
 BYTE   W02
//  #10 //009   ----------------------------------------
 BYTE   VOL   11*UpperSteamCave_Song_mvl/mxv
 BYTE   W01
 BYTE   VOL   11*UpperSteamCave_Song_mvl/mxv
 BYTE   W02
 BYTE   VOL   11*UpperSteamCave_Song_mvl/mxv
 BYTE   W01
 BYTE   VOL   12*UpperSteamCave_Song_mvl/mxv
 BYTE   W02
 BYTE   VOL   13*UpperSteamCave_Song_mvl/mxv
 BYTE   W01
 BYTE   VOL   13*UpperSteamCave_Song_mvl/mxv
 BYTE   W02
 BYTE   VOL   14*UpperSteamCave_Song_mvl/mxv
 BYTE   W01
 BYTE   VOL   15*UpperSteamCave_Song_mvl/mxv
 BYTE   W02
 BYTE   N72  Gn3
 BYTE   W01
 BYTE   VOL   16*UpperSteamCave_Song_mvl/mxv
 BYTE   W12
 BYTE   VOL   16*UpperSteamCave_Song_mvl/mxv
 BYTE   W09
 BYTE   VOL   15*UpperSteamCave_Song_mvl/mxv
 BYTE   W05
 BYTE   VOL   15*UpperSteamCave_Song_mvl/mxv
 BYTE   W04
 BYTE   VOL   15*UpperSteamCave_Song_mvl/mxv
 BYTE   W05
 BYTE   VOL   15*UpperSteamCave_Song_mvl/mxv
 BYTE   W03
 BYTE   VOL   15*UpperSteamCave_Song_mvl/mxv
 BYTE   W04
 BYTE   VOL   14*UpperSteamCave_Song_mvl/mxv
 BYTE   W03
 BYTE   VOL   14*UpperSteamCave_Song_mvl/mxv
 BYTE   W02
 BYTE   VOL   14*UpperSteamCave_Song_mvl/mxv
 BYTE   W03
 BYTE   VOL   14*UpperSteamCave_Song_mvl/mxv
 BYTE   W03
 BYTE   VOL   14*UpperSteamCave_Song_mvl/mxv
 BYTE   W03
 BYTE   VOL   13*UpperSteamCave_Song_mvl/mxv
 BYTE   W01
 BYTE   VOL   13*UpperSteamCave_Song_mvl/mxv
 BYTE   W03
 BYTE   VOL   13*UpperSteamCave_Song_mvl/mxv
 BYTE   W03
 BYTE   VOL   13*UpperSteamCave_Song_mvl/mxv
 BYTE   W02
 BYTE   VOL   13*UpperSteamCave_Song_mvl/mxv
 BYTE   W01
 BYTE   VOL   12*UpperSteamCave_Song_mvl/mxv
 BYTE   W03
 BYTE   VOL   12*UpperSteamCave_Song_mvl/mxv
 BYTE   W02
 BYTE   VOL   12*UpperSteamCave_Song_mvl/mxv
 BYTE   N24  Fn3
 BYTE   W01
 BYTE   VOL   11*UpperSteamCave_Song_mvl/mxv
 BYTE   W02
 BYTE   VOL   11*UpperSteamCave_Song_mvl/mxv
 BYTE   W01
 BYTE   VOL   11*UpperSteamCave_Song_mvl/mxv
 BYTE   W02
 BYTE   VOL   11*UpperSteamCave_Song_mvl/mxv
 BYTE   W03
 BYTE   VOL   11*UpperSteamCave_Song_mvl/mxv
 BYTE   W01
 BYTE   VOL   11*UpperSteamCave_Song_mvl/mxv
 BYTE   W02
//  #10 //010   ----------------------------------------
 BYTE   VOL   11*UpperSteamCave_Song_mvl/mxv
 BYTE   W01
 BYTE   VOL   10*UpperSteamCave_Song_mvl/mxv
 BYTE   W02
 BYTE   VOL   10*UpperSteamCave_Song_mvl/mxv
 BYTE   W01
 BYTE   VOL   10*UpperSteamCave_Song_mvl/mxv
 BYTE   W02
 BYTE   VOL   10*UpperSteamCave_Song_mvl/mxv
 BYTE   W01
 BYTE   VOL   10*UpperSteamCave_Song_mvl/mxv
 BYTE   W02
 BYTE   VOL   10*UpperSteamCave_Song_mvl/mxv
 BYTE   W01
 BYTE   VOL   10*UpperSteamCave_Song_mvl/mxv
 BYTE   W02
 BYTE   N48  En3
 BYTE   W04
 BYTE   VOL   10*UpperSteamCave_Song_mvl/mxv
 BYTE   W03
 BYTE   VOL   10*UpperSteamCave_Song_mvl/mxv
 BYTE   W05
 BYTE   VOL   10*UpperSteamCave_Song_mvl/mxv
 BYTE   W01
 BYTE   VOL   11*UpperSteamCave_Song_mvl/mxv
 BYTE   W02
 BYTE   VOL   11*UpperSteamCave_Song_mvl/mxv
 BYTE   W01
 BYTE   VOL   11*UpperSteamCave_Song_mvl/mxv
 BYTE   W02
 BYTE   VOL   11*UpperSteamCave_Song_mvl/mxv
 BYTE   W01
 BYTE   VOL   11*UpperSteamCave_Song_mvl/mxv
 BYTE   W02
 BYTE   VOL   11*UpperSteamCave_Song_mvl/mxv
 BYTE   W01
 BYTE   VOL   12*UpperSteamCave_Song_mvl/mxv
 BYTE   W02
 BYTE   VOL   12*UpperSteamCave_Song_mvl/mxv
 BYTE   W01
 BYTE   VOL   13*UpperSteamCave_Song_mvl/mxv
 BYTE   W02
 BYTE   VOL   13*UpperSteamCave_Song_mvl/mxv
 BYTE   W01
 BYTE   VOL   13*UpperSteamCave_Song_mvl/mxv
 BYTE   W02
 BYTE   VOL   14*UpperSteamCave_Song_mvl/mxv
 BYTE   W01
 BYTE   VOL   14*UpperSteamCave_Song_mvl/mxv
 BYTE   W02
 BYTE   VOL   14*UpperSteamCave_Song_mvl/mxv
 BYTE   W01
 BYTE   VOL   15*UpperSteamCave_Song_mvl/mxv
 BYTE   W02
 BYTE   VOL   15*UpperSteamCave_Song_mvl/mxv
 BYTE   W01
 BYTE   VOL   17*UpperSteamCave_Song_mvl/mxv
 BYTE   W03
 BYTE   VOL   15*UpperSteamCave_Song_mvl/mxv
 BYTE   W02
 BYTE   VOL   14*UpperSteamCave_Song_mvl/mxv
 BYTE   W01
 BYTE   VOL   13*UpperSteamCave_Song_mvl/mxv
 BYTE   W02
 BYTE   VOL   11*UpperSteamCave_Song_mvl/mxv
 BYTE   W01
 BYTE   VOL   10*UpperSteamCave_Song_mvl/mxv
 BYTE   W02
 BYTE   VOL   7*UpperSteamCave_Song_mvl/mxv
 BYTE   N96  Cn3
 BYTE   W01
 BYTE   VOL   8*UpperSteamCave_Song_mvl/mxv
 BYTE   W08
 BYTE   VOL   8*UpperSteamCave_Song_mvl/mxv
 BYTE   W03
 BYTE   VOL   8*UpperSteamCave_Song_mvl/mxv
 BYTE   W04
 BYTE   VOL   8*UpperSteamCave_Song_mvl/mxv
 BYTE   W02
 BYTE   VOL   8*UpperSteamCave_Song_mvl/mxv
 BYTE   W03
 BYTE   VOL   8*UpperSteamCave_Song_mvl/mxv
 BYTE   W01
 BYTE   VOL   8*UpperSteamCave_Song_mvl/mxv
 BYTE   W02
 BYTE   VOL   9*UpperSteamCave_Song_mvl/mxv
 BYTE   W01
 BYTE   VOL   9*UpperSteamCave_Song_mvl/mxv
 BYTE   W02
 BYTE   VOL   9*UpperSteamCave_Song_mvl/mxv
 BYTE   W01
 BYTE   VOL   10*UpperSteamCave_Song_mvl/mxv
 BYTE   W02
 BYTE   VOL   10*UpperSteamCave_Song_mvl/mxv
 BYTE   W01
 BYTE   VOL   10*UpperSteamCave_Song_mvl/mxv
 BYTE   W02
 BYTE   VOL   10*UpperSteamCave_Song_mvl/mxv
 BYTE   W01
 BYTE   VOL   10*UpperSteamCave_Song_mvl/mxv
 BYTE   W02
//  #10 //011   ----------------------------------------
 BYTE   VOL   10*UpperSteamCave_Song_mvl/mxv
 BYTE   W01
 BYTE   VOL   11*UpperSteamCave_Song_mvl/mxv
 BYTE   W02
 BYTE   VOL   11*UpperSteamCave_Song_mvl/mxv
 BYTE   W01
 BYTE   VOL   11*UpperSteamCave_Song_mvl/mxv
 BYTE   W02
 BYTE   VOL   11*UpperSteamCave_Song_mvl/mxv
 BYTE   W01
 BYTE   VOL   12*UpperSteamCave_Song_mvl/mxv
 BYTE   W02
 BYTE   VOL   12*UpperSteamCave_Song_mvl/mxv
 BYTE   W01
 BYTE   VOL   13*UpperSteamCave_Song_mvl/mxv
 BYTE   W02
 BYTE   VOL   13*UpperSteamCave_Song_mvl/mxv
 BYTE   W01
 BYTE   VOL   14*UpperSteamCave_Song_mvl/mxv
 BYTE   W02
 BYTE   VOL   14*UpperSteamCave_Song_mvl/mxv
 BYTE   W01
 BYTE   VOL   14*UpperSteamCave_Song_mvl/mxv
 BYTE   W02
 BYTE   VOL   15*UpperSteamCave_Song_mvl/mxv
 BYTE   W01
 BYTE   VOL   15*UpperSteamCave_Song_mvl/mxv
 BYTE   W02
 BYTE   VOL   16*UpperSteamCave_Song_mvl/mxv
 BYTE   W09
 BYTE   VOL   15*UpperSteamCave_Song_mvl/mxv
 BYTE   W03
 BYTE   VOL   15*UpperSteamCave_Song_mvl/mxv
 BYTE   W01
 BYTE   VOL   15*UpperSteamCave_Song_mvl/mxv
 BYTE   W03
 BYTE   VOL   15*UpperSteamCave_Song_mvl/mxv
 BYTE   W02
 BYTE   VOL   15*UpperSteamCave_Song_mvl/mxv
 BYTE   W01
 BYTE   VOL   14*UpperSteamCave_Song_mvl/mxv
 BYTE   W02
 BYTE   VOL   14*UpperSteamCave_Song_mvl/mxv
 BYTE   W01
 BYTE   VOL   14*UpperSteamCave_Song_mvl/mxv
 BYTE   W02
 BYTE   VOL   14*UpperSteamCave_Song_mvl/mxv
 BYTE   W01
 BYTE   VOL   14*UpperSteamCave_Song_mvl/mxv
 BYTE   W02
 BYTE   VOL   13*UpperSteamCave_Song_mvl/mxv
 BYTE   W03
 BYTE   VOL   13*UpperSteamCave_Song_mvl/mxv
 BYTE   W01
 BYTE   VOL   12*UpperSteamCave_Song_mvl/mxv
 BYTE   W02
 BYTE   VOL   11*UpperSteamCave_Song_mvl/mxv
 BYTE   W01
 BYTE   VOL   10*UpperSteamCave_Song_mvl/mxv
 BYTE   W02
 BYTE   VOL   9*UpperSteamCave_Song_mvl/mxv
 BYTE   W01
 BYTE   VOL   6*UpperSteamCave_Song_mvl/mxv
 BYTE   W02
 BYTE   VOL   6*UpperSteamCave_Song_mvl/mxv
 BYTE   N36  Cn4
 BYTE   W03
 BYTE   VOL   6*UpperSteamCave_Song_mvl/mxv
 BYTE   W01
 BYTE   VOL   6*UpperSteamCave_Song_mvl/mxv
 BYTE   W02
 BYTE   VOL   7*UpperSteamCave_Song_mvl/mxv
 BYTE   W01
 BYTE   VOL   7*UpperSteamCave_Song_mvl/mxv
 BYTE   W02
 BYTE   VOL   8*UpperSteamCave_Song_mvl/mxv
 BYTE   W01
 BYTE   VOL   8*UpperSteamCave_Song_mvl/mxv
 BYTE   W02
 BYTE   VOL   8*UpperSteamCave_Song_mvl/mxv
 BYTE   W01
 BYTE   VOL   9*UpperSteamCave_Song_mvl/mxv
 BYTE   W02
 BYTE   VOL   10*UpperSteamCave_Song_mvl/mxv
 BYTE   W01
 BYTE   VOL   10*UpperSteamCave_Song_mvl/mxv
 BYTE   W02
 BYTE   VOL   11*UpperSteamCave_Song_mvl/mxv
 BYTE   W01
 BYTE   VOL   12*UpperSteamCave_Song_mvl/mxv
 BYTE   W02
 BYTE   VOL   13*UpperSteamCave_Song_mvl/mxv
 BYTE   W01
 BYTE   VOL   14*UpperSteamCave_Song_mvl/mxv
 BYTE   W02
 BYTE   VOL   15*UpperSteamCave_Song_mvl/mxv
 BYTE   W01
 BYTE   VOL   16*UpperSteamCave_Song_mvl/mxv
 BYTE   W03
 BYTE   VOL   16*UpperSteamCave_Song_mvl/mxv
 BYTE   W08
//  #10 //012   ----------------------------------------
 BYTE   N12  As3
 BYTE   W12
 BYTE   VOL   16*UpperSteamCave_Song_mvl/mxv
 BYTE   TIE  An3
 BYTE   W09
 BYTE   VOL   16*UpperSteamCave_Song_mvl/mxv
 BYTE   W06
 BYTE   VOL   15*UpperSteamCave_Song_mvl/mxv
 BYTE   W04
 BYTE   VOL   15*UpperSteamCave_Song_mvl/mxv
 BYTE   W03
 BYTE   VOL   15*UpperSteamCave_Song_mvl/mxv
 BYTE   W03
 BYTE   VOL   15*UpperSteamCave_Song_mvl/mxv
 BYTE   W03
 BYTE   VOL   15*UpperSteamCave_Song_mvl/mxv
 BYTE   W03
 BYTE   VOL   14*UpperSteamCave_Song_mvl/mxv
 BYTE   W02
 BYTE   VOL   14*UpperSteamCave_Song_mvl/mxv
 BYTE   W03
 BYTE   VOL   14*UpperSteamCave_Song_mvl/mxv
 BYTE   W01
 BYTE   VOL   14*UpperSteamCave_Song_mvl/mxv
 BYTE   W02
 BYTE   VOL   14*UpperSteamCave_Song_mvl/mxv
 BYTE   W01
 BYTE   VOL   13*UpperSteamCave_Song_mvl/mxv
 BYTE   W02
 BYTE   VOL   13*UpperSteamCave_Song_mvl/mxv
 BYTE   W03
 BYTE   VOL   13*UpperSteamCave_Song_mvl/mxv
 BYTE   W01
 BYTE   VOL   13*UpperSteamCave_Song_mvl/mxv
 BYTE   W02
 BYTE   VOL   13*UpperSteamCave_Song_mvl/mxv
 BYTE   W01
 BYTE   VOL   12*UpperSteamCave_Song_mvl/mxv
 BYTE   W02
 BYTE   VOL   12*UpperSteamCave_Song_mvl/mxv
 BYTE   W01
 BYTE   VOL   12*UpperSteamCave_Song_mvl/mxv
 BYTE   W02
 BYTE   VOL   11*UpperSteamCave_Song_mvl/mxv
 BYTE   W01
 BYTE   VOL   11*UpperSteamCave_Song_mvl/mxv
 BYTE   W02
 BYTE   VOL   11*UpperSteamCave_Song_mvl/mxv
 BYTE   W01
 BYTE   VOL   11*UpperSteamCave_Song_mvl/mxv
 BYTE   W02
 BYTE   VOL   11*UpperSteamCave_Song_mvl/mxv
 BYTE   W01
 BYTE   VOL   11*UpperSteamCave_Song_mvl/mxv
 BYTE   W02
 BYTE   VOL   10*UpperSteamCave_Song_mvl/mxv
 BYTE   W01
 BYTE   VOL   10*UpperSteamCave_Song_mvl/mxv
 BYTE   W02
 BYTE   VOL   10*UpperSteamCave_Song_mvl/mxv
 BYTE   W01
 BYTE   VOL   10*UpperSteamCave_Song_mvl/mxv
 BYTE   W02
 BYTE   VOL   10*UpperSteamCave_Song_mvl/mxv
 BYTE   W01
 BYTE   VOL   10*UpperSteamCave_Song_mvl/mxv
 BYTE   W02
 BYTE   VOL   9*UpperSteamCave_Song_mvl/mxv
 BYTE   W01
 BYTE   VOL   9*UpperSteamCave_Song_mvl/mxv
 BYTE   W02
 BYTE   VOL   8*UpperSteamCave_Song_mvl/mxv
 BYTE   W01
 BYTE   VOL   8*UpperSteamCave_Song_mvl/mxv
 BYTE   W02
 BYTE   VOL   8*UpperSteamCave_Song_mvl/mxv
 BYTE   W01
 BYTE   VOL   8*UpperSteamCave_Song_mvl/mxv
 BYTE   W02
 BYTE   VOL   7*UpperSteamCave_Song_mvl/mxv
 BYTE   W01
 BYTE   VOL   7*UpperSteamCave_Song_mvl/mxv
 BYTE   W02
//  #10 //013   ----------------------------------------
 BYTE   VOL   6*UpperSteamCave_Song_mvl/mxv
 BYTE   W01
 BYTE   VOL   6*UpperSteamCave_Song_mvl/mxv
 BYTE   W02
 BYTE   VOL   6*UpperSteamCave_Song_mvl/mxv
 BYTE   W01
 BYTE   VOL   6*UpperSteamCave_Song_mvl/mxv
 BYTE   W02
 BYTE   VOL   6*UpperSteamCave_Song_mvl/mxv
 BYTE   W01
 BYTE   VOL   5*UpperSteamCave_Song_mvl/mxv
 BYTE   W02
 BYTE   VOL   5*UpperSteamCave_Song_mvl/mxv
 BYTE   W01
 BYTE   VOL   5*UpperSteamCave_Song_mvl/mxv
 BYTE   W02
 BYTE   VOL   5*UpperSteamCave_Song_mvl/mxv
 BYTE   W01
 BYTE   VOL   4*UpperSteamCave_Song_mvl/mxv
 BYTE   W02
 BYTE   VOL   4*UpperSteamCave_Song_mvl/mxv
 BYTE   W01
 BYTE   VOL   4*UpperSteamCave_Song_mvl/mxv
 BYTE   W02
 BYTE   VOL   3*UpperSteamCave_Song_mvl/mxv
 BYTE   W01
 BYTE   VOL   3*UpperSteamCave_Song_mvl/mxv
 BYTE   W02
 BYTE   VOL   3*UpperSteamCave_Song_mvl/mxv
 BYTE   W03
 BYTE   VOL   3*UpperSteamCave_Song_mvl/mxv
 BYTE   W03
 BYTE   VOL   3*UpperSteamCave_Song_mvl/mxv
 BYTE   W01
 BYTE   VOL   3*UpperSteamCave_Song_mvl/mxv
 BYTE   W02
 BYTE   VOL   3*UpperSteamCave_Song_mvl/mxv
 BYTE   W01
 BYTE   VOL   4*UpperSteamCave_Song_mvl/mxv
 BYTE   W02
 BYTE   VOL   4*UpperSteamCave_Song_mvl/mxv
 BYTE   W01
 BYTE   VOL   4*UpperSteamCave_Song_mvl/mxv
 BYTE   W02
 BYTE   EOT
 BYTE   VOL   5*UpperSteamCave_Song_mvl/mxv
 BYTE   N24  Gn3
 BYTE   W01
 BYTE   VOL   5*UpperSteamCave_Song_mvl/mxv
 BYTE   W02
 BYTE   VOL   6*UpperSteamCave_Song_mvl/mxv
 BYTE   W01
 BYTE   VOL   6*UpperSteamCave_Song_mvl/mxv
 BYTE   W02
 BYTE   VOL   6*UpperSteamCave_Song_mvl/mxv
 BYTE   W01
 BYTE   VOL   7*UpperSteamCave_Song_mvl/mxv
 BYTE   W02
 BYTE   VOL   8*UpperSteamCave_Song_mvl/mxv
 BYTE   W01
 BYTE   VOL   8*UpperSteamCave_Song_mvl/mxv
 BYTE   W02
 BYTE   VOL   10*UpperSteamCave_Song_mvl/mxv
 BYTE   W01
 BYTE   VOL   10*UpperSteamCave_Song_mvl/mxv
 BYTE   W02
 BYTE   VOL   11*UpperSteamCave_Song_mvl/mxv
 BYTE   W01
 BYTE   VOL   12*UpperSteamCave_Song_mvl/mxv
 BYTE   W02
 BYTE   VOL   14*UpperSteamCave_Song_mvl/mxv
 BYTE   W01
 BYTE   VOL   15*UpperSteamCave_Song_mvl/mxv
 BYTE   W02
 BYTE   VOL   16*UpperSteamCave_Song_mvl/mxv
 BYTE   W03
 BYTE   TIE  An3
 BYTE   W01
 BYTE   VOL   16*UpperSteamCave_Song_mvl/mxv
 BYTE   W14
 BYTE   VOL   16*UpperSteamCave_Song_mvl/mxv
 BYTE   W09
 BYTE   VOL   15*UpperSteamCave_Song_mvl/mxv
 BYTE   W06
 BYTE   VOL   15*UpperSteamCave_Song_mvl/mxv
 BYTE   W04
 BYTE   VOL   15*UpperSteamCave_Song_mvl/mxv
 BYTE   W02
//  #10 //014   ----------------------------------------
 BYTE   W03
 BYTE   VOL   15*UpperSteamCave_Song_mvl/mxv
 BYTE   W04
 BYTE   VOL   15*UpperSteamCave_Song_mvl/mxv
 BYTE   W03
 BYTE   VOL   14*UpperSteamCave_Song_mvl/mxv
 BYTE   W03
 BYTE   VOL   14*UpperSteamCave_Song_mvl/mxv
 BYTE   W03
 BYTE   VOL   14*UpperSteamCave_Song_mvl/mxv
 BYTE   W03
 BYTE   VOL   14*UpperSteamCave_Song_mvl/mxv
 BYTE   W03
 BYTE   VOL   14*UpperSteamCave_Song_mvl/mxv
 BYTE   W03
 BYTE   VOL   13*UpperSteamCave_Song_mvl/mxv
 BYTE   W03
 BYTE   VOL   13*UpperSteamCave_Song_mvl/mxv
 BYTE   W02
 BYTE   VOL   13*UpperSteamCave_Song_mvl/mxv
 BYTE   W03
 BYTE   VOL   13*UpperSteamCave_Song_mvl/mxv
 BYTE   W03
 BYTE   VOL   13*UpperSteamCave_Song_mvl/mxv
 BYTE   W01
 BYTE   VOL   12*UpperSteamCave_Song_mvl/mxv
 BYTE   W03
 BYTE   VOL   12*UpperSteamCave_Song_mvl/mxv
 BYTE   W02
 BYTE   VOL   12*UpperSteamCave_Song_mvl/mxv
 BYTE   W01
 BYTE   VOL   11*UpperSteamCave_Song_mvl/mxv
 BYTE   W03
 BYTE   VOL   11*UpperSteamCave_Song_mvl/mxv
 BYTE   W02
 BYTE   VOL   11*UpperSteamCave_Song_mvl/mxv
 BYTE   W01
 BYTE   VOL   11*UpperSteamCave_Song_mvl/mxv
 BYTE   W02
 BYTE   VOL   11*UpperSteamCave_Song_mvl/mxv
 BYTE   W01
 BYTE   VOL   11*UpperSteamCave_Song_mvl/mxv
 BYTE   W03
 BYTE   VOL   11*UpperSteamCave_Song_mvl/mxv
 BYTE   W02
 BYTE   VOL   10*UpperSteamCave_Song_mvl/mxv
 BYTE   W01
 BYTE   VOL   10*UpperSteamCave_Song_mvl/mxv
 BYTE   W02
 BYTE   VOL   10*UpperSteamCave_Song_mvl/mxv
 BYTE   W03
 BYTE   VOL   10*UpperSteamCave_Song_mvl/mxv
 BYTE   W01
 BYTE   VOL   10*UpperSteamCave_Song_mvl/mxv
 BYTE   W02
 BYTE   VOL   10*UpperSteamCave_Song_mvl/mxv
 BYTE   W01
 BYTE   VOL   10*UpperSteamCave_Song_mvl/mxv
 BYTE   W02
 BYTE   VOL   10*UpperSteamCave_Song_mvl/mxv
 BYTE   W01
 BYTE   VOL   9*UpperSteamCave_Song_mvl/mxv
 BYTE   W02
 BYTE   VOL   9*UpperSteamCave_Song_mvl/mxv
 BYTE   W01
 BYTE   VOL   8*UpperSteamCave_Song_mvl/mxv
 BYTE   W02
 BYTE   VOL   8*UpperSteamCave_Song_mvl/mxv
 BYTE   W01
 BYTE   VOL   8*UpperSteamCave_Song_mvl/mxv
 BYTE   W02
 BYTE   VOL   8*UpperSteamCave_Song_mvl/mxv
 BYTE   W01
 BYTE   VOL   8*UpperSteamCave_Song_mvl/mxv
 BYTE   W02
 BYTE   VOL   8*UpperSteamCave_Song_mvl/mxv
 BYTE   W01
 BYTE   VOL   8*UpperSteamCave_Song_mvl/mxv
 BYTE   W02
 BYTE   VOL   7*UpperSteamCave_Song_mvl/mxv
 BYTE   W01
 BYTE   VOL   7*UpperSteamCave_Song_mvl/mxv
 BYTE   W02
 BYTE   VOL   7*UpperSteamCave_Song_mvl/mxv
 BYTE   W01
 BYTE   VOL   6*UpperSteamCave_Song_mvl/mxv
 BYTE   W02
 BYTE   VOL   6*UpperSteamCave_Song_mvl/mxv
 BYTE   W01
 BYTE   VOL   6*UpperSteamCave_Song_mvl/mxv
 BYTE   W02
 BYTE   VOL   6*UpperSteamCave_Song_mvl/mxv
 BYTE   W01
 BYTE   VOL   6*UpperSteamCave_Song_mvl/mxv
 BYTE   W02
//  #10 //015   ----------------------------------------
 BYTE   VOL   6*UpperSteamCave_Song_mvl/mxv
 BYTE   W01
 BYTE   VOL   6*UpperSteamCave_Song_mvl/mxv
 BYTE   W02
 BYTE   VOL   6*UpperSteamCave_Song_mvl/mxv
 BYTE   W01
 BYTE   VOL   5*UpperSteamCave_Song_mvl/mxv
 BYTE   W02
 BYTE   VOL   5*UpperSteamCave_Song_mvl/mxv
 BYTE   W01
 BYTE   VOL   5*UpperSteamCave_Song_mvl/mxv
 BYTE   W02
 BYTE   VOL   5*UpperSteamCave_Song_mvl/mxv
 BYTE   W01
 BYTE   VOL   5*UpperSteamCave_Song_mvl/mxv
 BYTE   W02
 BYTE   VOL   5*UpperSteamCave_Song_mvl/mxv
 BYTE   W01
 BYTE   VOL   4*UpperSteamCave_Song_mvl/mxv
 BYTE   W02
 BYTE   VOL   4*UpperSteamCave_Song_mvl/mxv
 BYTE   W01
 BYTE   VOL   4*UpperSteamCave_Song_mvl/mxv
 BYTE   W02
 BYTE   VOL   4*UpperSteamCave_Song_mvl/mxv
 BYTE   W01
 BYTE   VOL   3*UpperSteamCave_Song_mvl/mxv
 BYTE   W02
 BYTE   VOL   3*UpperSteamCave_Song_mvl/mxv
 BYTE   W01
 BYTE   VOL   3*UpperSteamCave_Song_mvl/mxv
 BYTE   W02
 BYTE   VOL   3*UpperSteamCave_Song_mvl/mxv
 BYTE   W01
 BYTE   VOL   3*UpperSteamCave_Song_mvl/mxv
 BYTE   W02
 BYTE   VOL   3*UpperSteamCave_Song_mvl/mxv
 BYTE   W01
 BYTE   VOL   2*UpperSteamCave_Song_mvl/mxv
 BYTE   W02
 BYTE   VOL   2*UpperSteamCave_Song_mvl/mxv
 BYTE   W01
 BYTE   VOL   2*UpperSteamCave_Song_mvl/mxv
 BYTE   W02
 BYTE   VOL   2*UpperSteamCave_Song_mvl/mxv
 BYTE   W01
 BYTE   VOL   2*UpperSteamCave_Song_mvl/mxv
 BYTE   W02
 BYTE   VOL   1*UpperSteamCave_Song_mvl/mxv
 BYTE   W01
 BYTE   VOL   1*UpperSteamCave_Song_mvl/mxv
 BYTE   W02
 BYTE   VOL   1*UpperSteamCave_Song_mvl/mxv
 BYTE   W01
 BYTE   VOL   1*UpperSteamCave_Song_mvl/mxv
 BYTE   W02
 BYTE   VOL   1*UpperSteamCave_Song_mvl/mxv
 BYTE   W01
 BYTE   VOL   1*UpperSteamCave_Song_mvl/mxv
 BYTE   W02
 BYTE   VOL   1*UpperSteamCave_Song_mvl/mxv
 BYTE   W01
 BYTE   VOL   1*UpperSteamCave_Song_mvl/mxv
 BYTE   W02
 BYTE   VOL   1*UpperSteamCave_Song_mvl/mxv
 BYTE   W01
 BYTE   VOL   0*UpperSteamCave_Song_mvl/mxv
 BYTE   W02
 BYTE   VOL   0*UpperSteamCave_Song_mvl/mxv
 BYTE   W01
 BYTE   VOL   0*UpperSteamCave_Song_mvl/mxv
 BYTE   W02
 BYTE   VOL   0*UpperSteamCave_Song_mvl/mxv
 BYTE   W01
 BYTE   VOL   0*UpperSteamCave_Song_mvl/mxv
 BYTE   W02
 BYTE   VOL   0*UpperSteamCave_Song_mvl/mxv
 BYTE   W01
 BYTE   VOL   0*UpperSteamCave_Song_mvl/mxv
 BYTE   W02
 BYTE   EOT
 BYTE   VOL   0*UpperSteamCave_Song_mvl/mxv
 BYTE   W01
 BYTE   VOL   0*UpperSteamCave_Song_mvl/mxv
 BYTE   W02
 BYTE   VOL   0*UpperSteamCave_Song_mvl/mxv
 BYTE   W01
 BYTE   VOL   0*UpperSteamCave_Song_mvl/mxv
 BYTE   W02
 BYTE   VOL   0*UpperSteamCave_Song_mvl/mxv
 BYTE   W01
 BYTE   VOL   0*UpperSteamCave_Song_mvl/mxv
 BYTE   W28
 BYTE   W01
//  #10 //016   ----------------------------------------
 BYTE   W96
//  #10 //017   ----------------------------------------
 BYTE   W48
 BYTE   W01
 BYTE   VOL   17*UpperSteamCave_Song_mvl/mxv
 BYTE   W02
 BYTE   VOL   17*UpperSteamCave_Song_mvl/mxv
 BYTE   W01
 BYTE   VOL   17*UpperSteamCave_Song_mvl/mxv
 BYTE   W44
//  #10 //018   ----------------------------------------
 BYTE   W01
 BYTE   VOL   7*UpperSteamCave_Song_mvl/mxv
 BYTE   W05
 BYTE   VOL   6*UpperSteamCave_Song_mvl/mxv
 BYTE   W01
 BYTE   VOL   6*UpperSteamCave_Song_mvl/mxv
 BYTE   W05
 BYTE   VOL   6*UpperSteamCave_Song_mvl/mxv
 BYTE   N48  An4  v104
 BYTE   W01
 BYTE   VOL   6*UpperSteamCave_Song_mvl/mxv
 BYTE   W02
 BYTE   VOL   6*UpperSteamCave_Song_mvl/mxv
 BYTE   W01
 BYTE   VOL   6*UpperSteamCave_Song_mvl/mxv
 BYTE   W02
 BYTE   VOL   6*UpperSteamCave_Song_mvl/mxv
 BYTE   W01
 BYTE   VOL   6*UpperSteamCave_Song_mvl/mxv
 BYTE   W02
 BYTE   VOL   7*UpperSteamCave_Song_mvl/mxv
 BYTE   W01
 BYTE   VOL   8*UpperSteamCave_Song_mvl/mxv
 BYTE   W02
 BYTE   VOL   8*UpperSteamCave_Song_mvl/mxv
 BYTE   W01
 BYTE   VOL   8*UpperSteamCave_Song_mvl/mxv
 BYTE   W02
 BYTE   VOL   8*UpperSteamCave_Song_mvl/mxv
 BYTE   W01
 BYTE   VOL   9*UpperSteamCave_Song_mvl/mxv
 BYTE   W02
 BYTE   VOL   10*UpperSteamCave_Song_mvl/mxv
 BYTE   W01
 BYTE   VOL   10*UpperSteamCave_Song_mvl/mxv
 BYTE   W02
 BYTE   VOL   10*UpperSteamCave_Song_mvl/mxv
 BYTE   W01
 BYTE   VOL   11*UpperSteamCave_Song_mvl/mxv
 BYTE   W02
 BYTE   VOL   11*UpperSteamCave_Song_mvl/mxv
 BYTE   W01
 BYTE   VOL   12*UpperSteamCave_Song_mvl/mxv
 BYTE   W02
 BYTE   VOL   13*UpperSteamCave_Song_mvl/mxv
 BYTE   W01
 BYTE   VOL   14*UpperSteamCave_Song_mvl/mxv
 BYTE   W02
 BYTE   VOL   14*UpperSteamCave_Song_mvl/mxv
 BYTE   W01
 BYTE   VOL   16*UpperSteamCave_Song_mvl/mxv
 BYTE   W03
 BYTE   VOL   16*UpperSteamCave_Song_mvl/mxv
 BYTE   W02
 BYTE   VOL   15*UpperSteamCave_Song_mvl/mxv
 BYTE   W01
 BYTE   VOL   15*UpperSteamCave_Song_mvl/mxv
 BYTE   W02
 BYTE   VOL   15*UpperSteamCave_Song_mvl/mxv
 BYTE   W01
 BYTE   VOL   14*UpperSteamCave_Song_mvl/mxv
 BYTE   W02
 BYTE   VOL   13*UpperSteamCave_Song_mvl/mxv
 BYTE   W01
 BYTE   VOL   12*UpperSteamCave_Song_mvl/mxv
 BYTE   W02
 BYTE   VOL   10*UpperSteamCave_Song_mvl/mxv
 BYTE   W03
 BYTE   N90  En4
 BYTE   W03
 BYTE   VOL   10*UpperSteamCave_Song_mvl/mxv
 BYTE   W04
 BYTE   VOL   10*UpperSteamCave_Song_mvl/mxv
 BYTE   W03
 BYTE   VOL   10*UpperSteamCave_Song_mvl/mxv
 BYTE   W03
 BYTE   VOL   10*UpperSteamCave_Song_mvl/mxv
 BYTE   W02
 BYTE   VOL   11*UpperSteamCave_Song_mvl/mxv
 BYTE   W01
 BYTE   VOL   11*UpperSteamCave_Song_mvl/mxv
 BYTE   W02
 BYTE   VOL   11*UpperSteamCave_Song_mvl/mxv
 BYTE   W01
 BYTE   VOL   11*UpperSteamCave_Song_mvl/mxv
 BYTE   W02
 BYTE   VOL   11*UpperSteamCave_Song_mvl/mxv
 BYTE   W01
 BYTE   VOL   11*UpperSteamCave_Song_mvl/mxv
 BYTE   W02
 BYTE   VOL   12*UpperSteamCave_Song_mvl/mxv
 BYTE   W01
 BYTE   VOL   12*UpperSteamCave_Song_mvl/mxv
 BYTE   W02
 BYTE   VOL   13*UpperSteamCave_Song_mvl/mxv
 BYTE   W01
 BYTE   VOL   13*UpperSteamCave_Song_mvl/mxv
 BYTE   W02
 BYTE   VOL   13*UpperSteamCave_Song_mvl/mxv
 BYTE   W01
 BYTE   VOL   13*UpperSteamCave_Song_mvl/mxv
 BYTE   W02
 BYTE   VOL   14*UpperSteamCave_Song_mvl/mxv
 BYTE   W01
 BYTE   VOL   14*UpperSteamCave_Song_mvl/mxv
 BYTE   W02
//  #10 //019   ----------------------------------------
 BYTE   VOL   15*UpperSteamCave_Song_mvl/mxv
 BYTE   W01
 BYTE   VOL   15*UpperSteamCave_Song_mvl/mxv
 BYTE   W02
 BYTE   VOL   15*UpperSteamCave_Song_mvl/mxv
 BYTE   W01
 BYTE   VOL   16*UpperSteamCave_Song_mvl/mxv
 BYTE   W02
 BYTE   VOL   16*UpperSteamCave_Song_mvl/mxv
 BYTE   W04
 BYTE   VOL   16*UpperSteamCave_Song_mvl/mxv
 BYTE   W03
 BYTE   VOL   15*UpperSteamCave_Song_mvl/mxv
 BYTE   W03
 BYTE   VOL   15*UpperSteamCave_Song_mvl/mxv
 BYTE   W02
 BYTE   VOL   15*UpperSteamCave_Song_mvl/mxv
 BYTE   W01
 BYTE   VOL   15*UpperSteamCave_Song_mvl/mxv
 BYTE   W02
 BYTE   VOL   14*UpperSteamCave_Song_mvl/mxv
 BYTE   W01
 BYTE   VOL   14*UpperSteamCave_Song_mvl/mxv
 BYTE   W02
 BYTE   VOL   14*UpperSteamCave_Song_mvl/mxv
 BYTE   W01
 BYTE   VOL   13*UpperSteamCave_Song_mvl/mxv
 BYTE   W02
 BYTE   VOL   13*UpperSteamCave_Song_mvl/mxv
 BYTE   W01
 BYTE   VOL   13*UpperSteamCave_Song_mvl/mxv
 BYTE   W02
 BYTE   VOL   12*UpperSteamCave_Song_mvl/mxv
 BYTE   W01
 BYTE   VOL   11*UpperSteamCave_Song_mvl/mxv
 BYTE   W02
 BYTE   VOL   11*UpperSteamCave_Song_mvl/mxv
 BYTE   W01
 BYTE   VOL   11*UpperSteamCave_Song_mvl/mxv
 BYTE   W02
 BYTE   VOL   10*UpperSteamCave_Song_mvl/mxv
 BYTE   W01
 BYTE   VOL   10*UpperSteamCave_Song_mvl/mxv
 BYTE   W02
 BYTE   VOL   10*UpperSteamCave_Song_mvl/mxv
 BYTE   W01
 BYTE   VOL   9*UpperSteamCave_Song_mvl/mxv
 BYTE   W02
 BYTE   VOL   8*UpperSteamCave_Song_mvl/mxv
 BYTE   W01
 BYTE   VOL   9*UpperSteamCave_Song_mvl/mxv
 BYTE   W02
 BYTE   VOL   9*UpperSteamCave_Song_mvl/mxv
 BYTE   W04
 BYTE   VOL   9*UpperSteamCave_Song_mvl/mxv
 BYTE   W03
 BYTE   VOL   10*UpperSteamCave_Song_mvl/mxv
 BYTE   W02
 BYTE   VOL   10*UpperSteamCave_Song_mvl/mxv
 BYTE   N06  Dn4
 BYTE   W01
 BYTE   VOL   10*UpperSteamCave_Song_mvl/mxv
 BYTE   W02
 BYTE   VOL   10*UpperSteamCave_Song_mvl/mxv
 BYTE   W01
 BYTE   VOL   10*UpperSteamCave_Song_mvl/mxv
 BYTE   W02
 BYTE   VOL   10*UpperSteamCave_Song_mvl/mxv
 BYTE   N16  En4
 BYTE   W01
 BYTE   VOL   11*UpperSteamCave_Song_mvl/mxv
 BYTE   W02
 BYTE   VOL   11*UpperSteamCave_Song_mvl/mxv
 BYTE   W01
 BYTE   VOL   11*UpperSteamCave_Song_mvl/mxv
 BYTE   W02
 BYTE   VOL   11*UpperSteamCave_Song_mvl/mxv
 BYTE   W01
 BYTE   VOL   12*UpperSteamCave_Song_mvl/mxv
 BYTE   W02
 BYTE   VOL   13*UpperSteamCave_Song_mvl/mxv
 BYTE   W01
 BYTE   VOL   13*UpperSteamCave_Song_mvl/mxv
 BYTE   W02
 BYTE   VOL   14*UpperSteamCave_Song_mvl/mxv
 BYTE   W01
 BYTE   VOL   14*UpperSteamCave_Song_mvl/mxv
 BYTE   W02
 BYTE   VOL   15*UpperSteamCave_Song_mvl/mxv
 BYTE   W01
 BYTE   VOL   16*UpperSteamCave_Song_mvl/mxv
 BYTE   N14  Fn4
 BYTE   W14
 BYTE   VOL   16*UpperSteamCave_Song_mvl/mxv
 BYTE   N06  En4
 BYTE   W03
 BYTE   VOL   15*UpperSteamCave_Song_mvl/mxv
 BYTE   W01
 BYTE   VOL   15*UpperSteamCave_Song_mvl/mxv
 BYTE   W02
//  #10 //020   ----------------------------------------
 BYTE   VOL   15*UpperSteamCave_Song_mvl/mxv
 BYTE   N06  Dn4
 BYTE   W01
 BYTE   VOL   14*UpperSteamCave_Song_mvl/mxv
 BYTE   W02
 BYTE   VOL   14*UpperSteamCave_Song_mvl/mxv
 BYTE   W01
 BYTE   VOL   13*UpperSteamCave_Song_mvl/mxv
 BYTE   W02
 BYTE   VOL   13*UpperSteamCave_Song_mvl/mxv
 BYTE   N06  Cn4
 BYTE   W01
 BYTE   VOL   12*UpperSteamCave_Song_mvl/mxv
 BYTE   W02
 BYTE   VOL   10*UpperSteamCave_Song_mvl/mxv
 BYTE   W03
 BYTE   N48  Dn4
 BYTE   W03
 BYTE   VOL   10*UpperSteamCave_Song_mvl/mxv
 BYTE   W01
 BYTE   VOL   11*UpperSteamCave_Song_mvl/mxv
 BYTE   W02
 BYTE   VOL   11*UpperSteamCave_Song_mvl/mxv
 BYTE   W01
 BYTE   VOL   11*UpperSteamCave_Song_mvl/mxv
 BYTE   W02
 BYTE   VOL   11*UpperSteamCave_Song_mvl/mxv
 BYTE   W01
 BYTE   VOL   11*UpperSteamCave_Song_mvl/mxv
 BYTE   W02
 BYTE   VOL   12*UpperSteamCave_Song_mvl/mxv
 BYTE   W01
 BYTE   VOL   12*UpperSteamCave_Song_mvl/mxv
 BYTE   W02
 BYTE   VOL   13*UpperSteamCave_Song_mvl/mxv
 BYTE   W01
 BYTE   VOL   13*UpperSteamCave_Song_mvl/mxv
 BYTE   W02
 BYTE   VOL   14*UpperSteamCave_Song_mvl/mxv
 BYTE   W01
 BYTE   VOL   14*UpperSteamCave_Song_mvl/mxv
 BYTE   W02
 BYTE   VOL   15*UpperSteamCave_Song_mvl/mxv
 BYTE   W01
 BYTE   VOL   16*UpperSteamCave_Song_mvl/mxv
 BYTE   W03
 BYTE   VOL   16*UpperSteamCave_Song_mvl/mxv
 BYTE   W03
 BYTE   VOL   15*UpperSteamCave_Song_mvl/mxv
 BYTE   W03
 BYTE   VOL   15*UpperSteamCave_Song_mvl/mxv
 BYTE   W02
 BYTE   VOL   15*UpperSteamCave_Song_mvl/mxv
 BYTE   W01
 BYTE   VOL   15*UpperSteamCave_Song_mvl/mxv
 BYTE   W02
 BYTE   VOL   14*UpperSteamCave_Song_mvl/mxv
 BYTE   W01
 BYTE   VOL   14*UpperSteamCave_Song_mvl/mxv
 BYTE   W02
 BYTE   VOL   13*UpperSteamCave_Song_mvl/mxv
 BYTE   W01
 BYTE   VOL   13*UpperSteamCave_Song_mvl/mxv
 BYTE   W02
 BYTE   VOL   12*UpperSteamCave_Song_mvl/mxv
 BYTE   W01
 BYTE   VOL   11*UpperSteamCave_Song_mvl/mxv
 BYTE   W02
 BYTE   VOL   11*UpperSteamCave_Song_mvl/mxv
 BYTE   W01
 BYTE   VOL   10*UpperSteamCave_Song_mvl/mxv
 BYTE   W02
 BYTE   VOL   8*UpperSteamCave_Song_mvl/mxv
 BYTE   TIE  Gn3
 BYTE   W04
 BYTE   VOL   8*UpperSteamCave_Song_mvl/mxv
 BYTE   W02
 BYTE   VOL   9*UpperSteamCave_Song_mvl/mxv
 BYTE   W01
 BYTE   VOL   9*UpperSteamCave_Song_mvl/mxv
 BYTE   W02
 BYTE   VOL   9*UpperSteamCave_Song_mvl/mxv
 BYTE   W01
 BYTE   VOL   10*UpperSteamCave_Song_mvl/mxv
 BYTE   W02
 BYTE   VOL   10*UpperSteamCave_Song_mvl/mxv
 BYTE   W01
 BYTE   VOL   10*UpperSteamCave_Song_mvl/mxv
 BYTE   W02
 BYTE   VOL   10*UpperSteamCave_Song_mvl/mxv
 BYTE   W01
 BYTE   VOL   10*UpperSteamCave_Song_mvl/mxv
 BYTE   W02
 BYTE   VOL   11*UpperSteamCave_Song_mvl/mxv
 BYTE   W01
 BYTE   VOL   11*UpperSteamCave_Song_mvl/mxv
 BYTE   W02
 BYTE   VOL   12*UpperSteamCave_Song_mvl/mxv
 BYTE   W01
 BYTE   VOL   13*UpperSteamCave_Song_mvl/mxv
 BYTE   W02
 BYTE   VOL   13*UpperSteamCave_Song_mvl/mxv
 BYTE   W01
 BYTE   VOL   14*UpperSteamCave_Song_mvl/mxv
 BYTE   W02
 BYTE   VOL   15*UpperSteamCave_Song_mvl/mxv
 BYTE   W01
 BYTE   VOL   15*UpperSteamCave_Song_mvl/mxv
 BYTE   W02
 BYTE   VOL   17*UpperSteamCave_Song_mvl/mxv
 BYTE   W06
//  #10 //021   ----------------------------------------
 BYTE   W06
 BYTE   VOL   16*UpperSteamCave_Song_mvl/mxv
 BYTE   W04
 BYTE   VOL   16*UpperSteamCave_Song_mvl/mxv
 BYTE   W03
 BYTE   VOL   15*UpperSteamCave_Song_mvl/mxv
 BYTE   W03
 BYTE   VOL   15*UpperSteamCave_Song_mvl/mxv
 BYTE   W02
 BYTE   VOL   15*UpperSteamCave_Song_mvl/mxv
 BYTE   W03
 BYTE   VOL   15*UpperSteamCave_Song_mvl/mxv
 BYTE   W01
 BYTE   VOL   15*UpperSteamCave_Song_mvl/mxv
 BYTE   W03
 BYTE   VOL   14*UpperSteamCave_Song_mvl/mxv
 BYTE   W02
 BYTE   VOL   14*UpperSteamCave_Song_mvl/mxv
 BYTE   W01
 BYTE   VOL   14*UpperSteamCave_Song_mvl/mxv
 BYTE   W02
 BYTE   VOL   14*UpperSteamCave_Song_mvl/mxv
 BYTE   W01
 BYTE   VOL   14*UpperSteamCave_Song_mvl/mxv
 BYTE   W02
 BYTE   VOL   13*UpperSteamCave_Song_mvl/mxv
 BYTE   W01
 BYTE   VOL   13*UpperSteamCave_Song_mvl/mxv
 BYTE   W02
 BYTE   VOL   13*UpperSteamCave_Song_mvl/mxv
 BYTE   W01
 BYTE   VOL   13*UpperSteamCave_Song_mvl/mxv
 BYTE   W02
 BYTE   VOL   13*UpperSteamCave_Song_mvl/mxv
 BYTE   W01
 BYTE   VOL   12*UpperSteamCave_Song_mvl/mxv
 BYTE   W02
 BYTE   VOL   12*UpperSteamCave_Song_mvl/mxv
 BYTE   W01
 BYTE   VOL   11*UpperSteamCave_Song_mvl/mxv
 BYTE   W02
 BYTE   VOL   11*UpperSteamCave_Song_mvl/mxv
 BYTE   W01
 BYTE   VOL   11*UpperSteamCave_Song_mvl/mxv
 BYTE   W02
 BYTE   VOL   11*UpperSteamCave_Song_mvl/mxv
 BYTE   W01
 BYTE   VOL   11*UpperSteamCave_Song_mvl/mxv
 BYTE   W02
 BYTE   VOL   10*UpperSteamCave_Song_mvl/mxv
 BYTE   W01
 BYTE   VOL   10*UpperSteamCave_Song_mvl/mxv
 BYTE   W02
 BYTE   VOL   10*UpperSteamCave_Song_mvl/mxv
 BYTE   W01
 BYTE   VOL   10*UpperSteamCave_Song_mvl/mxv
 BYTE   W02
 BYTE   VOL   10*UpperSteamCave_Song_mvl/mxv
 BYTE   W01
 BYTE   VOL   10*UpperSteamCave_Song_mvl/mxv
 BYTE   W02
 BYTE   VOL   9*UpperSteamCave_Song_mvl/mxv
 BYTE   W01
 BYTE   VOL   8*UpperSteamCave_Song_mvl/mxv
 BYTE   W02
 BYTE   VOL   8*UpperSteamCave_Song_mvl/mxv
 BYTE   W01
 BYTE   VOL   8*UpperSteamCave_Song_mvl/mxv
 BYTE   W02
 BYTE   VOL   8*UpperSteamCave_Song_mvl/mxv
 BYTE   W01
 BYTE   VOL   8*UpperSteamCave_Song_mvl/mxv
 BYTE   W02
 BYTE   VOL   7*UpperSteamCave_Song_mvl/mxv
 BYTE   W01
 BYTE   VOL   6*UpperSteamCave_Song_mvl/mxv
 BYTE   W02
 BYTE   VOL   6*UpperSteamCave_Song_mvl/mxv
 BYTE   W01
 BYTE   VOL   6*UpperSteamCave_Song_mvl/mxv
 BYTE   W02
 BYTE   VOL   6*UpperSteamCave_Song_mvl/mxv
 BYTE   W01
 BYTE   VOL   6*UpperSteamCave_Song_mvl/mxv
 BYTE   W02
 BYTE   VOL   5*UpperSteamCave_Song_mvl/mxv
 BYTE   W01
 BYTE   VOL   5*UpperSteamCave_Song_mvl/mxv
 BYTE   W02
 BYTE   VOL   5*UpperSteamCave_Song_mvl/mxv
 BYTE   W01
 BYTE   VOL   5*UpperSteamCave_Song_mvl/mxv
 BYTE   W02
 BYTE   VOL   4*UpperSteamCave_Song_mvl/mxv
 BYTE   W01
 BYTE   VOL   4*UpperSteamCave_Song_mvl/mxv
 BYTE   W02
 BYTE   VOL   3*UpperSteamCave_Song_mvl/mxv
 BYTE   W01
 BYTE   VOL   3*UpperSteamCave_Song_mvl/mxv
 BYTE   W02
 BYTE   VOL   3*UpperSteamCave_Song_mvl/mxv
 BYTE   W01
 BYTE   VOL   3*UpperSteamCave_Song_mvl/mxv
 BYTE   W02
 BYTE   VOL   2*UpperSteamCave_Song_mvl/mxv
 BYTE   W01
 BYTE   VOL   2*UpperSteamCave_Song_mvl/mxv
 BYTE   W02
//  #10 //022   ----------------------------------------
 BYTE   VOL   2*UpperSteamCave_Song_mvl/mxv
 BYTE   W01
 BYTE   VOL   1*UpperSteamCave_Song_mvl/mxv
 BYTE   W02
 BYTE   VOL   1*UpperSteamCave_Song_mvl/mxv
 BYTE   W01
 BYTE   VOL   1*UpperSteamCave_Song_mvl/mxv
 BYTE   W02
 BYTE   VOL   1*UpperSteamCave_Song_mvl/mxv
 BYTE   W01
 BYTE   VOL   1*UpperSteamCave_Song_mvl/mxv
 BYTE   W02
 BYTE   VOL   1*UpperSteamCave_Song_mvl/mxv
 BYTE   W01
 BYTE   VOL   0*UpperSteamCave_Song_mvl/mxv
 BYTE   W02
 BYTE   EOT
 BYTE   VOL   0*UpperSteamCave_Song_mvl/mxv
 BYTE   W01
 BYTE   VOL   0*UpperSteamCave_Song_mvl/mxv
 BYTE   W02
 BYTE   VOL   0*UpperSteamCave_Song_mvl/mxv
 BYTE   W01
 BYTE   VOL   0*UpperSteamCave_Song_mvl/mxv
 BYTE   W02
 BYTE   VOL   0*UpperSteamCave_Song_mvl/mxv
 BYTE   W01
 BYTE   VOL   0*UpperSteamCave_Song_mvl/mxv
 BYTE   W76
 BYTE   W01
//  #10 //023   ----------------------------------------
 BYTE   W96
//  #10 //024   ----------------------------------------
 BYTE   W96
//  #10 //025   ----------------------------------------
 BYTE   W12
 BYTE   VOL   17*UpperSteamCave_Song_mvl/mxv
 BYTE   W84
//  #10 //026   ----------------------------------------
 BYTE   W28
 BYTE   VOL   8*UpperSteamCave_Song_mvl/mxv
 BYTE   W02
 BYTE   VOL   8*UpperSteamCave_Song_mvl/mxv
 BYTE   W01
 BYTE   VOL   9*UpperSteamCave_Song_mvl/mxv
 BYTE   W03
 BYTE   VOL   10*UpperSteamCave_Song_mvl/mxv
 BYTE   W02
 BYTE   VOL   10*UpperSteamCave_Song_mvl/mxv
 BYTE   N22  Cn4  v100
 BYTE   W03
 BYTE   VOL   10*UpperSteamCave_Song_mvl/mxv
 BYTE   W01
 BYTE   VOL   10*UpperSteamCave_Song_mvl/mxv
 BYTE   W02
 BYTE   VOL   11*UpperSteamCave_Song_mvl/mxv
 BYTE   W01
 BYTE   VOL   11*UpperSteamCave_Song_mvl/mxv
 BYTE   W02
 BYTE   VOL   11*UpperSteamCave_Song_mvl/mxv
 BYTE   W01
 BYTE   VOL   11*UpperSteamCave_Song_mvl/mxv
 BYTE   W02
 BYTE   VOL   12*UpperSteamCave_Song_mvl/mxv
 BYTE   W01
 BYTE   VOL   13*UpperSteamCave_Song_mvl/mxv
 BYTE   W02
 BYTE   VOL   13*UpperSteamCave_Song_mvl/mxv
 BYTE   W01
 BYTE   VOL   14*UpperSteamCave_Song_mvl/mxv
 BYTE   W02
 BYTE   VOL   14*UpperSteamCave_Song_mvl/mxv
 BYTE   W01
 BYTE   VOL   15*UpperSteamCave_Song_mvl/mxv
 BYTE   W02
 BYTE   VOL   16*UpperSteamCave_Song_mvl/mxv
 BYTE   W01
 BYTE   VOL   17*UpperSteamCave_Song_mvl/mxv
 BYTE   N02  Bn4
 BYTE   W02
 BYTE   N48  Cn5
 BYTE   W28
 BYTE   VOL   16*UpperSteamCave_Song_mvl/mxv
 BYTE   W05
 BYTE   VOL   15*UpperSteamCave_Song_mvl/mxv
 BYTE   W01
 BYTE   VOL   15*UpperSteamCave_Song_mvl/mxv
 BYTE   W02
//  #10 //027   ----------------------------------------
 BYTE   VOL   15*UpperSteamCave_Song_mvl/mxv
 BYTE   W01
 BYTE   VOL   15*UpperSteamCave_Song_mvl/mxv
 BYTE   W02
 BYTE   VOL   14*UpperSteamCave_Song_mvl/mxv
 BYTE   W01
 BYTE   VOL   14*UpperSteamCave_Song_mvl/mxv
 BYTE   W02
 BYTE   VOL   14*UpperSteamCave_Song_mvl/mxv
 BYTE   W01
 BYTE   VOL   13*UpperSteamCave_Song_mvl/mxv
 BYTE   W02
 BYTE   VOL   13*UpperSteamCave_Song_mvl/mxv
 BYTE   W01
 BYTE   VOL   12*UpperSteamCave_Song_mvl/mxv
 BYTE   W02
 BYTE   VOL   11*UpperSteamCave_Song_mvl/mxv
 BYTE   N24  Bn4
 BYTE   W04
 BYTE   VOL   11*UpperSteamCave_Song_mvl/mxv
 BYTE   W03
 BYTE   VOL   12*UpperSteamCave_Song_mvl/mxv
 BYTE   W02
 BYTE   VOL   12*UpperSteamCave_Song_mvl/mxv
 BYTE   W01
 BYTE   VOL   12*UpperSteamCave_Song_mvl/mxv
 BYTE   W02
 BYTE   VOL   13*UpperSteamCave_Song_mvl/mxv
 BYTE   W01
 BYTE   VOL   13*UpperSteamCave_Song_mvl/mxv
 BYTE   W02
 BYTE   VOL   13*UpperSteamCave_Song_mvl/mxv
 BYTE   W01
 BYTE   VOL   13*UpperSteamCave_Song_mvl/mxv
 BYTE   W02
 BYTE   VOL   14*UpperSteamCave_Song_mvl/mxv
 BYTE   W01
 BYTE   VOL   14*UpperSteamCave_Song_mvl/mxv
 BYTE   W02
 BYTE   VOL   15*UpperSteamCave_Song_mvl/mxv
 BYTE   W01
 BYTE   VOL   15*UpperSteamCave_Song_mvl/mxv
 BYTE   W02
 BYTE   VOL   10*UpperSteamCave_Song_mvl/mxv
 BYTE   N92  Bn3
 BYTE   W01
 BYTE   VOL   10*UpperSteamCave_Song_mvl/mxv
 BYTE   W02
 BYTE   VOL   10*UpperSteamCave_Song_mvl/mxv
 BYTE   W06
 BYTE   VOL   10*UpperSteamCave_Song_mvl/mxv
 BYTE   W03
 BYTE   VOL   10*UpperSteamCave_Song_mvl/mxv
 BYTE   W01
 BYTE   VOL   10*UpperSteamCave_Song_mvl/mxv
 BYTE   W03
 BYTE   VOL   10*UpperSteamCave_Song_mvl/mxv
 BYTE   W02
 BYTE   VOL   11*UpperSteamCave_Song_mvl/mxv
 BYTE   W01
 BYTE   VOL   11*UpperSteamCave_Song_mvl/mxv
 BYTE   W02
 BYTE   VOL   11*UpperSteamCave_Song_mvl/mxv
 BYTE   W01
 BYTE   VOL   11*UpperSteamCave_Song_mvl/mxv
 BYTE   W02
 BYTE   VOL   11*UpperSteamCave_Song_mvl/mxv
 BYTE   W01
 BYTE   VOL   11*UpperSteamCave_Song_mvl/mxv
 BYTE   W02
 BYTE   VOL   12*UpperSteamCave_Song_mvl/mxv
 BYTE   W01
 BYTE   VOL   12*UpperSteamCave_Song_mvl/mxv
 BYTE   W02
 BYTE   VOL   13*UpperSteamCave_Song_mvl/mxv
 BYTE   W01
 BYTE   VOL   13*UpperSteamCave_Song_mvl/mxv
 BYTE   W02
 BYTE   VOL   13*UpperSteamCave_Song_mvl/mxv
 BYTE   W01
 BYTE   VOL   14*UpperSteamCave_Song_mvl/mxv
 BYTE   W02
 BYTE   VOL   14*UpperSteamCave_Song_mvl/mxv
 BYTE   W01
 BYTE   VOL   15*UpperSteamCave_Song_mvl/mxv
 BYTE   W02
 BYTE   VOL   15*UpperSteamCave_Song_mvl/mxv
 BYTE   W01
 BYTE   VOL   16*UpperSteamCave_Song_mvl/mxv
 BYTE   W05
 BYTE   VOL   16*UpperSteamCave_Song_mvl/mxv
 BYTE   W04
 BYTE   VOL   16*UpperSteamCave_Song_mvl/mxv
 BYTE   W03
 BYTE   VOL   15*UpperSteamCave_Song_mvl/mxv
 BYTE   W03
 BYTE   VOL   15*UpperSteamCave_Song_mvl/mxv
 BYTE   W02
 BYTE   VOL   15*UpperSteamCave_Song_mvl/mxv
 BYTE   W01
 BYTE   VOL   15*UpperSteamCave_Song_mvl/mxv
 BYTE   W02
//  #10 //028   ----------------------------------------
 BYTE   VOL   14*UpperSteamCave_Song_mvl/mxv
 BYTE   W01
 BYTE   VOL   14*UpperSteamCave_Song_mvl/mxv
 BYTE   W02
 BYTE   VOL   14*UpperSteamCave_Song_mvl/mxv
 BYTE   W01
 BYTE   VOL   13*UpperSteamCave_Song_mvl/mxv
 BYTE   W02
 BYTE   VOL   13*UpperSteamCave_Song_mvl/mxv
 BYTE   W01
 BYTE   VOL   13*UpperSteamCave_Song_mvl/mxv
 BYTE   W02
 BYTE   VOL   12*UpperSteamCave_Song_mvl/mxv
 BYTE   W01
 BYTE   VOL   12*UpperSteamCave_Song_mvl/mxv
 BYTE   W02
 BYTE   VOL   11*UpperSteamCave_Song_mvl/mxv
 BYTE   W01
 BYTE   VOL   11*UpperSteamCave_Song_mvl/mxv
 BYTE   W02
 BYTE   VOL   10*UpperSteamCave_Song_mvl/mxv
 BYTE   W01
 BYTE   VOL   10*UpperSteamCave_Song_mvl/mxv
 BYTE   W02
 BYTE   VOL   10*UpperSteamCave_Song_mvl/mxv
 BYTE   W01
 BYTE   VOL   9*UpperSteamCave_Song_mvl/mxv
 BYTE   W02
 BYTE   VOL   8*UpperSteamCave_Song_mvl/mxv
 BYTE   W01
 BYTE   VOL   8*UpperSteamCave_Song_mvl/mxv
 BYTE   W02
 BYTE   VOL   7*UpperSteamCave_Song_mvl/mxv
 BYTE   W01
 BYTE   VOL   6*UpperSteamCave_Song_mvl/mxv
 BYTE   W02
 BYTE   VOL   6*UpperSteamCave_Song_mvl/mxv
 BYTE   W01
 BYTE   VOL   6*UpperSteamCave_Song_mvl/mxv
 BYTE   W02
 BYTE   VOL   5*UpperSteamCave_Song_mvl/mxv
 BYTE   W01
 BYTE   VOL   5*UpperSteamCave_Song_mvl/mxv
 BYTE   W02
 BYTE   VOL   4*UpperSteamCave_Song_mvl/mxv
 BYTE   W01
 BYTE   VOL   3*UpperSteamCave_Song_mvl/mxv
 BYTE   W02
 BYTE   VOL   10*UpperSteamCave_Song_mvl/mxv
 BYTE   N22  Dn4
 BYTE   W01
 BYTE   VOL   10*UpperSteamCave_Song_mvl/mxv
 BYTE   W03
 BYTE   VOL   10*UpperSteamCave_Song_mvl/mxv
 BYTE   W02
 BYTE   VOL   11*UpperSteamCave_Song_mvl/mxv
 BYTE   W01
 BYTE   VOL   11*UpperSteamCave_Song_mvl/mxv
 BYTE   W02
 BYTE   VOL   11*UpperSteamCave_Song_mvl/mxv
 BYTE   W01
 BYTE   VOL   11*UpperSteamCave_Song_mvl/mxv
 BYTE   W02
 BYTE   VOL   12*UpperSteamCave_Song_mvl/mxv
 BYTE   W01
 BYTE   VOL   13*UpperSteamCave_Song_mvl/mxv
 BYTE   W02
 BYTE   VOL   14*UpperSteamCave_Song_mvl/mxv
 BYTE   W01
 BYTE   VOL   14*UpperSteamCave_Song_mvl/mxv
 BYTE   W02
 BYTE   VOL   15*UpperSteamCave_Song_mvl/mxv
 BYTE   W03
 BYTE   VOL   17*UpperSteamCave_Song_mvl/mxv
 BYTE   W01
 BYTE   N02  Cs5
 BYTE   W02
 BYTE   N48  Dn5
 BYTE   W24
 BYTE   W01
 BYTE   VOL   17*UpperSteamCave_Song_mvl/mxv
 BYTE   W05
 BYTE   VOL   16*UpperSteamCave_Song_mvl/mxv
 BYTE   W01
 BYTE   VOL   16*UpperSteamCave_Song_mvl/mxv
 BYTE   W02
 BYTE   VOL   15*UpperSteamCave_Song_mvl/mxv
 BYTE   W01
 BYTE   VOL   15*UpperSteamCave_Song_mvl/mxv
 BYTE   W02
//  #10 //029   ----------------------------------------
 BYTE   VOL   15*UpperSteamCave_Song_mvl/mxv
 BYTE   W01
 BYTE   VOL   15*UpperSteamCave_Song_mvl/mxv
 BYTE   W02
 BYTE   VOL   14*UpperSteamCave_Song_mvl/mxv
 BYTE   W01
 BYTE   VOL   14*UpperSteamCave_Song_mvl/mxv
 BYTE   W02
 BYTE   VOL   13*UpperSteamCave_Song_mvl/mxv
 BYTE   W01
 BYTE   VOL   13*UpperSteamCave_Song_mvl/mxv
 BYTE   W02
 BYTE   VOL   12*UpperSteamCave_Song_mvl/mxv
 BYTE   W01
 BYTE   VOL   11*UpperSteamCave_Song_mvl/mxv
 BYTE   W02
 BYTE   VOL   11*UpperSteamCave_Song_mvl/mxv
 BYTE   N24  Cs5
 BYTE   W01
 BYTE   VOL   11*UpperSteamCave_Song_mvl/mxv
 BYTE   W05
 BYTE   VOL   11*UpperSteamCave_Song_mvl/mxv
 BYTE   W01
 BYTE   VOL   11*UpperSteamCave_Song_mvl/mxv
 BYTE   W02
 BYTE   VOL   11*UpperSteamCave_Song_mvl/mxv
 BYTE   W01
 BYTE   VOL   12*UpperSteamCave_Song_mvl/mxv
 BYTE   W02
 BYTE   VOL   12*UpperSteamCave_Song_mvl/mxv
 BYTE   W01
 BYTE   VOL   13*UpperSteamCave_Song_mvl/mxv
 BYTE   W02
 BYTE   VOL   13*UpperSteamCave_Song_mvl/mxv
 BYTE   W01
 BYTE   VOL   13*UpperSteamCave_Song_mvl/mxv
 BYTE   W02
 BYTE   VOL   14*UpperSteamCave_Song_mvl/mxv
 BYTE   W01
 BYTE   VOL   14*UpperSteamCave_Song_mvl/mxv
 BYTE   W02
 BYTE   VOL   15*UpperSteamCave_Song_mvl/mxv
 BYTE   W01
 BYTE   VOL   11*UpperSteamCave_Song_mvl/mxv
 BYTE   W02
 BYTE   VOL   10*UpperSteamCave_Song_mvl/mxv
 BYTE   N72  Cs4
 BYTE   W06
 BYTE   VOL   10*UpperSteamCave_Song_mvl/mxv
 BYTE   W03
 BYTE   VOL   10*UpperSteamCave_Song_mvl/mxv
 BYTE   W03
 BYTE   VOL   10*UpperSteamCave_Song_mvl/mxv
 BYTE   W01
 BYTE   VOL   10*UpperSteamCave_Song_mvl/mxv
 BYTE   W03
 BYTE   VOL   11*UpperSteamCave_Song_mvl/mxv
 BYTE   W02
 BYTE   VOL   11*UpperSteamCave_Song_mvl/mxv
 BYTE   W01
 BYTE   VOL   11*UpperSteamCave_Song_mvl/mxv
 BYTE   W02
 BYTE   VOL   11*UpperSteamCave_Song_mvl/mxv
 BYTE   W01
 BYTE   VOL   11*UpperSteamCave_Song_mvl/mxv
 BYTE   W02
 BYTE   VOL   11*UpperSteamCave_Song_mvl/mxv
 BYTE   W01
 BYTE   VOL   12*UpperSteamCave_Song_mvl/mxv
 BYTE   W02
 BYTE   VOL   12*UpperSteamCave_Song_mvl/mxv
 BYTE   W01
 BYTE   VOL   13*UpperSteamCave_Song_mvl/mxv
 BYTE   W02
 BYTE   VOL   13*UpperSteamCave_Song_mvl/mxv
 BYTE   W01
 BYTE   VOL   13*UpperSteamCave_Song_mvl/mxv
 BYTE   W02
 BYTE   VOL   14*UpperSteamCave_Song_mvl/mxv
 BYTE   W01
 BYTE   VOL   14*UpperSteamCave_Song_mvl/mxv
 BYTE   W02
 BYTE   VOL   15*UpperSteamCave_Song_mvl/mxv
 BYTE   W01
 BYTE   VOL   15*UpperSteamCave_Song_mvl/mxv
 BYTE   W02
 BYTE   VOL   16*UpperSteamCave_Song_mvl/mxv
 BYTE   W01
 BYTE   VOL   16*UpperSteamCave_Song_mvl/mxv
 BYTE   W03
 BYTE   VOL   16*UpperSteamCave_Song_mvl/mxv
 BYTE   W02
 BYTE   VOL   15*UpperSteamCave_Song_mvl/mxv
 BYTE   W01
 BYTE   VOL   15*UpperSteamCave_Song_mvl/mxv
 BYTE   W02
 BYTE   VOL   15*UpperSteamCave_Song_mvl/mxv
 BYTE   W01
 BYTE   VOL   14*UpperSteamCave_Song_mvl/mxv
 BYTE   W02
 BYTE   VOL   14*UpperSteamCave_Song_mvl/mxv
 BYTE   W01
 BYTE   VOL   13*UpperSteamCave_Song_mvl/mxv
 BYTE   W02
 BYTE   VOL   13*UpperSteamCave_Song_mvl/mxv
 BYTE   W01
 BYTE   VOL   12*UpperSteamCave_Song_mvl/mxv
 BYTE   W02
 BYTE   VOL   11*UpperSteamCave_Song_mvl/mxv
 BYTE   W01
 BYTE   VOL   11*UpperSteamCave_Song_mvl/mxv
 BYTE   W02
//  #10 //030   ----------------------------------------
 BYTE   VOL   10*UpperSteamCave_Song_mvl/mxv
 BYTE   W01
 BYTE   VOL   9*UpperSteamCave_Song_mvl/mxv
 BYTE   W02
 BYTE   VOL   8*UpperSteamCave_Song_mvl/mxv
 BYTE   W01
 BYTE   VOL   7*UpperSteamCave_Song_mvl/mxv
 BYTE   W02
 BYTE   VOL   6*UpperSteamCave_Song_mvl/mxv
 BYTE   W01
 BYTE   VOL   5*UpperSteamCave_Song_mvl/mxv
 BYTE   W02
 BYTE   VOL   5*UpperSteamCave_Song_mvl/mxv
 BYTE   W01
 BYTE   VOL   3*UpperSteamCave_Song_mvl/mxv
 BYTE   W02
 BYTE   VOL   3*UpperSteamCave_Song_mvl/mxv
 BYTE   W01
 BYTE   VOL   2*UpperSteamCave_Song_mvl/mxv
 BYTE   W02
 BYTE   VOL   1*UpperSteamCave_Song_mvl/mxv
 BYTE   W18
 BYTE   VOL   11*UpperSteamCave_Song_mvl/mxv
 BYTE   W01
 BYTE   VOL   11*UpperSteamCave_Song_mvl/mxv
 BYTE   W02
 BYTE   N08  En4
 BYTE   W01
 BYTE   VOL   11*UpperSteamCave_Song_mvl/mxv
 BYTE   W02
 BYTE   VOL   11*UpperSteamCave_Song_mvl/mxv
 BYTE   W01
 BYTE   VOL   11*UpperSteamCave_Song_mvl/mxv
 BYTE   W02
 BYTE   VOL   12*UpperSteamCave_Song_mvl/mxv
 BYTE   W01
 BYTE   VOL   12*UpperSteamCave_Song_mvl/mxv
 BYTE   W01
 BYTE   N08  Fs4
 BYTE   W01
 BYTE   VOL   13*UpperSteamCave_Song_mvl/mxv
 BYTE   W01
 BYTE   VOL   13*UpperSteamCave_Song_mvl/mxv
 BYTE   W02
 BYTE   VOL   14*UpperSteamCave_Song_mvl/mxv
 BYTE   W01
 BYTE   VOL   15*UpperSteamCave_Song_mvl/mxv
 BYTE   W02
 BYTE   VOL   15*UpperSteamCave_Song_mvl/mxv
 BYTE   W01
 BYTE   VOL   16*UpperSteamCave_Song_mvl/mxv
 BYTE   N08  Gs4
 BYTE   W08
 BYTE   N12  An4
 BYTE   W12
 BYTE   Bn4
 BYTE   W12
 BYTE   Cs5
 BYTE   W09
 BYTE   VOL   16*UpperSteamCave_Song_mvl/mxv
 BYTE   W03
//  #10 //031   ----------------------------------------
 BYTE   N12  Ds5
 BYTE   W01
 BYTE   VOL   16*UpperSteamCave_Song_mvl/mxv
 BYTE   W03
 BYTE   VOL   15*UpperSteamCave_Song_mvl/mxv
 BYTE   W02
 BYTE   VOL   15*UpperSteamCave_Song_mvl/mxv
 BYTE   W01
 BYTE   VOL   15*UpperSteamCave_Song_mvl/mxv
 BYTE   W02
 BYTE   VOL   15*UpperSteamCave_Song_mvl/mxv
 BYTE   W01
 BYTE   VOL   12*UpperSteamCave_Song_mvl/mxv
 BYTE   W02
 BYTE   VOL   10*UpperSteamCave_Song_mvl/mxv
 BYTE   N44  Fn5
 BYTE   W03
 BYTE   VOL   10*UpperSteamCave_Song_mvl/mxv
 BYTE   W01
 BYTE   VOL   10*UpperSteamCave_Song_mvl/mxv
 BYTE   W02
 BYTE   VOL   10*UpperSteamCave_Song_mvl/mxv
 BYTE   W01
 BYTE   VOL   10*UpperSteamCave_Song_mvl/mxv
 BYTE   W02
 BYTE   VOL   11*UpperSteamCave_Song_mvl/mxv
 BYTE   W01
 BYTE   VOL   11*UpperSteamCave_Song_mvl/mxv
 BYTE   W02
 BYTE   VOL   11*UpperSteamCave_Song_mvl/mxv
 BYTE   W01
 BYTE   VOL   11*UpperSteamCave_Song_mvl/mxv
 BYTE   W02
 BYTE   VOL   12*UpperSteamCave_Song_mvl/mxv
 BYTE   W01
 BYTE   VOL   13*UpperSteamCave_Song_mvl/mxv
 BYTE   W02
 BYTE   VOL   13*UpperSteamCave_Song_mvl/mxv
 BYTE   W01
 BYTE   VOL   14*UpperSteamCave_Song_mvl/mxv
 BYTE   W02
 BYTE   VOL   15*UpperSteamCave_Song_mvl/mxv
 BYTE   W01
 BYTE   VOL   15*UpperSteamCave_Song_mvl/mxv
 BYTE   W14
 BYTE   VOL   15*UpperSteamCave_Song_mvl/mxv
 BYTE   W03
 BYTE   VOL   15*UpperSteamCave_Song_mvl/mxv
 BYTE   W01
 BYTE   VOL   15*UpperSteamCave_Song_mvl/mxv
 BYTE   W02
 BYTE   VOL   14*UpperSteamCave_Song_mvl/mxv
 BYTE   W01
 BYTE   VOL   14*UpperSteamCave_Song_mvl/mxv
 BYTE   W02
 BYTE   VOL   14*UpperSteamCave_Song_mvl/mxv
 BYTE   N03  Fs5
 BYTE   W03
 BYTE   VOL   10*UpperSteamCave_Song_mvl/mxv
 BYTE   N44  Fn5
 BYTE   W06
 BYTE   VOL   10*UpperSteamCave_Song_mvl/mxv
 BYTE   W03
 BYTE   VOL   11*UpperSteamCave_Song_mvl/mxv
 BYTE   W01
 BYTE   VOL   11*UpperSteamCave_Song_mvl/mxv
 BYTE   W02
 BYTE   VOL   11*UpperSteamCave_Song_mvl/mxv
 BYTE   W01
 BYTE   VOL   11*UpperSteamCave_Song_mvl/mxv
 BYTE   W02
 BYTE   VOL   11*UpperSteamCave_Song_mvl/mxv
 BYTE   W01
 BYTE   VOL   12*UpperSteamCave_Song_mvl/mxv
 BYTE   W02
 BYTE   VOL   12*UpperSteamCave_Song_mvl/mxv
 BYTE   W01
 BYTE   VOL   13*UpperSteamCave_Song_mvl/mxv
 BYTE   W02
 BYTE   VOL   13*UpperSteamCave_Song_mvl/mxv
 BYTE   W01
 BYTE   VOL   13*UpperSteamCave_Song_mvl/mxv
 BYTE   W02
 BYTE   VOL   14*UpperSteamCave_Song_mvl/mxv
 BYTE   W01
 BYTE   VOL   14*UpperSteamCave_Song_mvl/mxv
 BYTE   W02
 BYTE   VOL   15*UpperSteamCave_Song_mvl/mxv
 BYTE   W01
 BYTE   VOL   16*UpperSteamCave_Song_mvl/mxv
 BYTE   W02
 BYTE   VOL   16*UpperSteamCave_Song_mvl/mxv
 BYTE   W04
 BYTE   VOL   16*UpperSteamCave_Song_mvl/mxv
 BYTE   W02
//  #10 //032   ----------------------------------------
 BYTE   W01
 BYTE   VOL   15*UpperSteamCave_Song_mvl/mxv
 BYTE   W02
 BYTE   VOL   15*UpperSteamCave_Song_mvl/mxv
 BYTE   W01
 BYTE   VOL   15*UpperSteamCave_Song_mvl/mxv
 BYTE   W02
 BYTE   VOL   15*UpperSteamCave_Song_mvl/mxv
 BYTE   W01
 BYTE   VOL   14*UpperSteamCave_Song_mvl/mxv
 BYTE   W02
 BYTE   VOL   14*UpperSteamCave_Song_mvl/mxv
 BYTE   N03  Ds5
 BYTE   W01
 BYTE   VOL   14*UpperSteamCave_Song_mvl/mxv
 BYTE   W02
 BYTE   N44  Cs5
 BYTE   W06
 BYTE   VOL   14*UpperSteamCave_Song_mvl/mxv
 BYTE   W04
 BYTE   VOL   14*UpperSteamCave_Song_mvl/mxv
 BYTE   W03
 BYTE   VOL   14*UpperSteamCave_Song_mvl/mxv
 BYTE   W03
 BYTE   VOL   14*UpperSteamCave_Song_mvl/mxv
 BYTE   W02
 BYTE   VOL   15*UpperSteamCave_Song_mvl/mxv
 BYTE   W03
 BYTE   VOL   15*UpperSteamCave_Song_mvl/mxv
 BYTE   W01
 BYTE   VOL   15*UpperSteamCave_Song_mvl/mxv
 BYTE   W02
 BYTE   VOL   15*UpperSteamCave_Song_mvl/mxv
 BYTE   W01
 BYTE   VOL   15*UpperSteamCave_Song_mvl/mxv
 BYTE   W02
 BYTE   VOL   16*UpperSteamCave_Song_mvl/mxv
 BYTE   W01
 BYTE   VOL   16*UpperSteamCave_Song_mvl/mxv
 BYTE   W02
 BYTE   VOL   17*UpperSteamCave_Song_mvl/mxv
 BYTE   W04
 BYTE   VOL   16*UpperSteamCave_Song_mvl/mxv
 BYTE   W05
 BYTE   VOL   16*UpperSteamCave_Song_mvl/mxv
 BYTE   W01
 BYTE   VOL   15*UpperSteamCave_Song_mvl/mxv
 BYTE   W02
 BYTE   VOL   15*UpperSteamCave_Song_mvl/mxv
 BYTE   W01
 BYTE   VOL   15*UpperSteamCave_Song_mvl/mxv
 BYTE   W02
 BYTE   VOL   15*UpperSteamCave_Song_mvl/mxv
 BYTE   N03  Bn4
 BYTE   W01
 BYTE   VOL   15*UpperSteamCave_Song_mvl/mxv
 BYTE   W02
 BYTE   VOL   14*UpperSteamCave_Song_mvl/mxv
 BYTE   N44  As4
 BYTE   W01
 BYTE   VOL   14*UpperSteamCave_Song_mvl/mxv
 BYTE   W05
 BYTE   VOL   14*UpperSteamCave_Song_mvl/mxv
 BYTE   W03
 BYTE   VOL   14*UpperSteamCave_Song_mvl/mxv
 BYTE   W03
 BYTE   VOL   14*UpperSteamCave_Song_mvl/mxv
 BYTE   W01
 BYTE   VOL   15*UpperSteamCave_Song_mvl/mxv
 BYTE   W02
 BYTE   VOL   15*UpperSteamCave_Song_mvl/mxv
 BYTE   W01
 BYTE   VOL   15*UpperSteamCave_Song_mvl/mxv
 BYTE   W02
 BYTE   VOL   15*UpperSteamCave_Song_mvl/mxv
 BYTE   W01
 BYTE   VOL   16*UpperSteamCave_Song_mvl/mxv
 BYTE   W02
 BYTE   VOL   16*UpperSteamCave_Song_mvl/mxv
 BYTE   W15
//  #10 //033   ----------------------------------------
 BYTE   W09
 BYTE   N03  Gs4
 BYTE   W01
 BYTE   VOL   15*UpperSteamCave_Song_mvl/mxv
 BYTE   W02
 BYTE   N72  Fs4
 BYTE   W06
 BYTE   VOL   15*UpperSteamCave_Song_mvl/mxv
 BYTE   W03
 BYTE   VOL   15*UpperSteamCave_Song_mvl/mxv
 BYTE   W03
 BYTE   VOL   15*UpperSteamCave_Song_mvl/mxv
 BYTE   W01
 BYTE   VOL   15*UpperSteamCave_Song_mvl/mxv
 BYTE   W02
 BYTE   VOL   14*UpperSteamCave_Song_mvl/mxv
 BYTE   W01
 BYTE   VOL   14*UpperSteamCave_Song_mvl/mxv
 BYTE   W02
 BYTE   VOL   14*UpperSteamCave_Song_mvl/mxv
 BYTE   W01
 BYTE   VOL   14*UpperSteamCave_Song_mvl/mxv
 BYTE   W02
 BYTE   VOL   14*UpperSteamCave_Song_mvl/mxv
 BYTE   W01
 BYTE   VOL   13*UpperSteamCave_Song_mvl/mxv
 BYTE   W02
 BYTE   VOL   13*UpperSteamCave_Song_mvl/mxv
 BYTE   W01
 BYTE   VOL   13*UpperSteamCave_Song_mvl/mxv
 BYTE   W02
 BYTE   VOL   13*UpperSteamCave_Song_mvl/mxv
 BYTE   W01
 BYTE   VOL   12*UpperSteamCave_Song_mvl/mxv
 BYTE   W02
 BYTE   VOL   12*UpperSteamCave_Song_mvl/mxv
 BYTE   W01
 BYTE   VOL   11*UpperSteamCave_Song_mvl/mxv
 BYTE   W02
 BYTE   VOL   11*UpperSteamCave_Song_mvl/mxv
 BYTE   W01
 BYTE   VOL   11*UpperSteamCave_Song_mvl/mxv
 BYTE   W02
 BYTE   VOL   10*UpperSteamCave_Song_mvl/mxv
 BYTE   W01
 BYTE   VOL   10*UpperSteamCave_Song_mvl/mxv
 BYTE   W02
 BYTE   VOL   10*UpperSteamCave_Song_mvl/mxv
 BYTE   W01
 BYTE   VOL   10*UpperSteamCave_Song_mvl/mxv
 BYTE   W02
 BYTE   VOL   9*UpperSteamCave_Song_mvl/mxv
 BYTE   W01
 BYTE   VOL   8*UpperSteamCave_Song_mvl/mxv
 BYTE   W02
 BYTE   VOL   8*UpperSteamCave_Song_mvl/mxv
 BYTE   W01
 BYTE   VOL   8*UpperSteamCave_Song_mvl/mxv
 BYTE   W02
 BYTE   VOL   7*UpperSteamCave_Song_mvl/mxv
 BYTE   W01
 BYTE   VOL   6*UpperSteamCave_Song_mvl/mxv
 BYTE   W02
 BYTE   VOL   6*UpperSteamCave_Song_mvl/mxv
 BYTE   W01
 BYTE   VOL   6*UpperSteamCave_Song_mvl/mxv
 BYTE   W02
 BYTE   VOL   6*UpperSteamCave_Song_mvl/mxv
 BYTE   W01
 BYTE   VOL   5*UpperSteamCave_Song_mvl/mxv
 BYTE   W02
 BYTE   VOL   5*UpperSteamCave_Song_mvl/mxv
 BYTE   W01
 BYTE   VOL   4*UpperSteamCave_Song_mvl/mxv
 BYTE   W02
 BYTE   VOL   4*UpperSteamCave_Song_mvl/mxv
 BYTE   W01
 BYTE   VOL   3*UpperSteamCave_Song_mvl/mxv
 BYTE   W02
 BYTE   VOL   3*UpperSteamCave_Song_mvl/mxv
 BYTE   W01
 BYTE   VOL   3*UpperSteamCave_Song_mvl/mxv
 BYTE   W02
 BYTE   VOL   2*UpperSteamCave_Song_mvl/mxv
 BYTE   W01
 BYTE   VOL   2*UpperSteamCave_Song_mvl/mxv
 BYTE   W02
 BYTE   VOL   1*UpperSteamCave_Song_mvl/mxv
 BYTE   W01
 BYTE   VOL   1*UpperSteamCave_Song_mvl/mxv
 BYTE   W02
 BYTE   VOL   1*UpperSteamCave_Song_mvl/mxv
 BYTE   W01
 BYTE   VOL   1*UpperSteamCave_Song_mvl/mxv
 BYTE   W03
 BYTE   VOL   10*UpperSteamCave_Song_mvl/mxv
 BYTE   W02
 BYTE   VOL   10*UpperSteamCave_Song_mvl/mxv
 BYTE   N06  En4
 BYTE   W03
 BYTE   VOL   10*UpperSteamCave_Song_mvl/mxv
 BYTE   W01
 BYTE   VOL   10*UpperSteamCave_Song_mvl/mxv
 BYTE   W02
//  #10 //034   ----------------------------------------
 BYTE   VOL   10*UpperSteamCave_Song_mvl/mxv
 BYTE   N06  Ds4
 BYTE   W01
 BYTE   VOL   10*UpperSteamCave_Song_mvl/mxv
 BYTE   W02
 BYTE   VOL   11*UpperSteamCave_Song_mvl/mxv
 BYTE   W01
 BYTE   VOL   11*UpperSteamCave_Song_mvl/mxv
 BYTE   W02
 BYTE   VOL   12*UpperSteamCave_Song_mvl/mxv
 BYTE   N06  Dn4
 BYTE   W01
 BYTE   VOL   13*UpperSteamCave_Song_mvl/mxv
 BYTE   W02
 BYTE   VOL   13*UpperSteamCave_Song_mvl/mxv
 BYTE   W01
 BYTE   VOL   14*UpperSteamCave_Song_mvl/mxv
 BYTE   W02
 BYTE   VOL   15*UpperSteamCave_Song_mvl/mxv
 BYTE   N48  Cs4  v104
 BYTE   W42
 BYTE   W01
 BYTE   VOL   16*UpperSteamCave_Song_mvl/mxv
 BYTE   W05
 BYTE   N48  Bn3
 BYTE   W03
 BYTE   VOL   15*UpperSteamCave_Song_mvl/mxv
 BYTE   W03
 BYTE   VOL   15*UpperSteamCave_Song_mvl/mxv
 BYTE   W03
 BYTE   VOL   15*UpperSteamCave_Song_mvl/mxv
 BYTE   W01
 BYTE   VOL   15*UpperSteamCave_Song_mvl/mxv
 BYTE   W02
 BYTE   VOL   15*UpperSteamCave_Song_mvl/mxv
 BYTE   W01
 BYTE   VOL   14*UpperSteamCave_Song_mvl/mxv
 BYTE   W02
 BYTE   VOL   14*UpperSteamCave_Song_mvl/mxv
 BYTE   W01
 BYTE   VOL   14*UpperSteamCave_Song_mvl/mxv
 BYTE   W02
 BYTE   VOL   14*UpperSteamCave_Song_mvl/mxv
 BYTE   W01
 BYTE   VOL   13*UpperSteamCave_Song_mvl/mxv
 BYTE   W02
 BYTE   VOL   13*UpperSteamCave_Song_mvl/mxv
 BYTE   W01
 BYTE   VOL   13*UpperSteamCave_Song_mvl/mxv
 BYTE   W02
 BYTE   VOL   13*UpperSteamCave_Song_mvl/mxv
 BYTE   W01
 BYTE   VOL   12*UpperSteamCave_Song_mvl/mxv
 BYTE   W02
 BYTE   VOL   11*UpperSteamCave_Song_mvl/mxv
 BYTE   W01
 BYTE   VOL   11*UpperSteamCave_Song_mvl/mxv
 BYTE   W02
 BYTE   VOL   11*UpperSteamCave_Song_mvl/mxv
 BYTE   W01
 BYTE   VOL   11*UpperSteamCave_Song_mvl/mxv
 BYTE   W02
 BYTE   VOL   10*UpperSteamCave_Song_mvl/mxv
 BYTE   W01
 BYTE   VOL   10*UpperSteamCave_Song_mvl/mxv
 BYTE   W02
//  #10 //035   ----------------------------------------
 BYTE   VOL   10*UpperSteamCave_Song_mvl/mxv
 BYTE   W01
 BYTE   VOL   10*UpperSteamCave_Song_mvl/mxv
 BYTE   W02
 BYTE   VOL   9*UpperSteamCave_Song_mvl/mxv
 BYTE   W01
 BYTE   VOL   8*UpperSteamCave_Song_mvl/mxv
 BYTE   W02
 BYTE   VOL   8*UpperSteamCave_Song_mvl/mxv
 BYTE   W01
 BYTE   VOL   7*UpperSteamCave_Song_mvl/mxv
 BYTE   W02
 BYTE   VOL   8*UpperSteamCave_Song_mvl/mxv
 BYTE   W03
 BYTE   N48  Cs4
 BYTE   W03
 BYTE   VOL   8*UpperSteamCave_Song_mvl/mxv
 BYTE   W04
 BYTE   VOL   8*UpperSteamCave_Song_mvl/mxv
 BYTE   W03
 BYTE   VOL   8*UpperSteamCave_Song_mvl/mxv
 BYTE   W02
 BYTE   VOL   8*UpperSteamCave_Song_mvl/mxv
 BYTE   W03
 BYTE   VOL   9*UpperSteamCave_Song_mvl/mxv
 BYTE   W01
 BYTE   VOL   9*UpperSteamCave_Song_mvl/mxv
 BYTE   W02
 BYTE   VOL   9*UpperSteamCave_Song_mvl/mxv
 BYTE   W01
 BYTE   VOL   10*UpperSteamCave_Song_mvl/mxv
 BYTE   W02
 BYTE   VOL   10*UpperSteamCave_Song_mvl/mxv
 BYTE   W01
 BYTE   VOL   10*UpperSteamCave_Song_mvl/mxv
 BYTE   W02
 BYTE   VOL   10*UpperSteamCave_Song_mvl/mxv
 BYTE   W01
 BYTE   VOL   10*UpperSteamCave_Song_mvl/mxv
 BYTE   W02
 BYTE   VOL   10*UpperSteamCave_Song_mvl/mxv
 BYTE   W01
 BYTE   VOL   11*UpperSteamCave_Song_mvl/mxv
 BYTE   W02
 BYTE   VOL   11*UpperSteamCave_Song_mvl/mxv
 BYTE   W01
 BYTE   VOL   11*UpperSteamCave_Song_mvl/mxv
 BYTE   W02
 BYTE   VOL   11*UpperSteamCave_Song_mvl/mxv
 BYTE   W01
 BYTE   VOL   11*UpperSteamCave_Song_mvl/mxv
 BYTE   W02
 BYTE   VOL   12*UpperSteamCave_Song_mvl/mxv
 BYTE   W01
 BYTE   VOL   13*UpperSteamCave_Song_mvl/mxv
 BYTE   W02
 BYTE   VOL   13*UpperSteamCave_Song_mvl/mxv
 BYTE   W01
 BYTE   VOL   13*UpperSteamCave_Song_mvl/mxv
 BYTE   W02
 BYTE   VOL   14*UpperSteamCave_Song_mvl/mxv
 BYTE   W01
 BYTE   VOL   14*UpperSteamCave_Song_mvl/mxv
 BYTE   W02
 BYTE   VOL   15*UpperSteamCave_Song_mvl/mxv
 BYTE   W01
 BYTE   VOL   15*UpperSteamCave_Song_mvl/mxv
 BYTE   W02
 BYTE   VOL   16*UpperSteamCave_Song_mvl/mxv
 BYTE   N48  An3
 BYTE   W06
 BYTE   VOL   15*UpperSteamCave_Song_mvl/mxv
 BYTE   W04
 BYTE   VOL   15*UpperSteamCave_Song_mvl/mxv
 BYTE   W03
 BYTE   VOL   15*UpperSteamCave_Song_mvl/mxv
 BYTE   W02
 BYTE   VOL   15*UpperSteamCave_Song_mvl/mxv
 BYTE   W01
 BYTE   VOL   15*UpperSteamCave_Song_mvl/mxv
 BYTE   W02
 BYTE   VOL   14*UpperSteamCave_Song_mvl/mxv
 BYTE   W01
 BYTE   VOL   14*UpperSteamCave_Song_mvl/mxv
 BYTE   W02
 BYTE   VOL   14*UpperSteamCave_Song_mvl/mxv
 BYTE   W01
 BYTE   VOL   14*UpperSteamCave_Song_mvl/mxv
 BYTE   W02
 BYTE   VOL   14*UpperSteamCave_Song_mvl/mxv
 BYTE   W01
 BYTE   VOL   13*UpperSteamCave_Song_mvl/mxv
 BYTE   W02
 BYTE   VOL   13*UpperSteamCave_Song_mvl/mxv
 BYTE   W01
 BYTE   VOL   13*UpperSteamCave_Song_mvl/mxv
 BYTE   W02
 BYTE   VOL   13*UpperSteamCave_Song_mvl/mxv
 BYTE   W01
 BYTE   VOL   12*UpperSteamCave_Song_mvl/mxv
 BYTE   W02
 BYTE   VOL   12*UpperSteamCave_Song_mvl/mxv
 BYTE   W01
 BYTE   VOL   11*UpperSteamCave_Song_mvl/mxv
 BYTE   W02
//  #10 //036   ----------------------------------------
 BYTE   VOL   11*UpperSteamCave_Song_mvl/mxv
 BYTE   W01
 BYTE   VOL   11*UpperSteamCave_Song_mvl/mxv
 BYTE   W02
 BYTE   VOL   10*UpperSteamCave_Song_mvl/mxv
 BYTE   W01
 BYTE   VOL   10*UpperSteamCave_Song_mvl/mxv
 BYTE   W02
 BYTE   VOL   10*UpperSteamCave_Song_mvl/mxv
 BYTE   W01
 BYTE   VOL   10*UpperSteamCave_Song_mvl/mxv
 BYTE   W02
 BYTE   VOL   9*UpperSteamCave_Song_mvl/mxv
 BYTE   W01
 BYTE   VOL   9*UpperSteamCave_Song_mvl/mxv
 BYTE   W02
 BYTE   VOL   8*UpperSteamCave_Song_mvl/mxv
 BYTE   N48  Cs4
 BYTE   W01
 BYTE   VOL   8*UpperSteamCave_Song_mvl/mxv
 BYTE   W06
 BYTE   VOL   8*UpperSteamCave_Song_mvl/mxv
 BYTE   W05
 BYTE   VOL   8*UpperSteamCave_Song_mvl/mxv
 BYTE   W01
 BYTE   VOL   8*UpperSteamCave_Song_mvl/mxv
 BYTE   W02
 BYTE   VOL   8*UpperSteamCave_Song_mvl/mxv
 BYTE   W01
 BYTE   VOL   8*UpperSteamCave_Song_mvl/mxv
 BYTE   W02
 BYTE   VOL   9*UpperSteamCave_Song_mvl/mxv
 BYTE   W01
 BYTE   VOL   9*UpperSteamCave_Song_mvl/mxv
 BYTE   W02
 BYTE   VOL   9*UpperSteamCave_Song_mvl/mxv
 BYTE   W01
 BYTE   VOL   10*UpperSteamCave_Song_mvl/mxv
 BYTE   W02
 BYTE   VOL   10*UpperSteamCave_Song_mvl/mxv
 BYTE   W01
 BYTE   VOL   10*UpperSteamCave_Song_mvl/mxv
 BYTE   W02
 BYTE   VOL   10*UpperSteamCave_Song_mvl/mxv
 BYTE   W01
 BYTE   VOL   10*UpperSteamCave_Song_mvl/mxv
 BYTE   W02
 BYTE   VOL   11*UpperSteamCave_Song_mvl/mxv
 BYTE   W01
 BYTE   VOL   11*UpperSteamCave_Song_mvl/mxv
 BYTE   W02
 BYTE   VOL   11*UpperSteamCave_Song_mvl/mxv
 BYTE   W01
 BYTE   VOL   11*UpperSteamCave_Song_mvl/mxv
 BYTE   W02
 BYTE   VOL   12*UpperSteamCave_Song_mvl/mxv
 BYTE   W01
 BYTE   VOL   13*UpperSteamCave_Song_mvl/mxv
 BYTE   W02
 BYTE   VOL   13*UpperSteamCave_Song_mvl/mxv
 BYTE   W01
 BYTE   VOL   13*UpperSteamCave_Song_mvl/mxv
 BYTE   W02
 BYTE   VOL   14*UpperSteamCave_Song_mvl/mxv
 BYTE   W01
 BYTE   VOL   15*UpperSteamCave_Song_mvl/mxv
 BYTE   W02
 BYTE   VOL   15*UpperSteamCave_Song_mvl/mxv
 BYTE   W01
 BYTE   VOL   16*UpperSteamCave_Song_mvl/mxv
 BYTE   W02
 BYTE   N48  Bn3
 BYTE   W01
 BYTE   VOL   17*UpperSteamCave_Song_mvl/mxv
 BYTE   W06
 BYTE   VOL   16*UpperSteamCave_Song_mvl/mxv
 BYTE   W03
 BYTE   VOL   16*UpperSteamCave_Song_mvl/mxv
 BYTE   W02
 BYTE   VOL   15*UpperSteamCave_Song_mvl/mxv
 BYTE   W03
 BYTE   VOL   15*UpperSteamCave_Song_mvl/mxv
 BYTE   W01
 BYTE   VOL   15*UpperSteamCave_Song_mvl/mxv
 BYTE   W02
 BYTE   VOL   15*UpperSteamCave_Song_mvl/mxv
 BYTE   W01
 BYTE   VOL   14*UpperSteamCave_Song_mvl/mxv
 BYTE   W02
 BYTE   VOL   14*UpperSteamCave_Song_mvl/mxv
 BYTE   W01
 BYTE   VOL   14*UpperSteamCave_Song_mvl/mxv
 BYTE   W02
 BYTE   VOL   14*UpperSteamCave_Song_mvl/mxv
 BYTE   W01
 BYTE   VOL   13*UpperSteamCave_Song_mvl/mxv
 BYTE   W02
 BYTE   VOL   13*UpperSteamCave_Song_mvl/mxv
 BYTE   W01
 BYTE   VOL   13*UpperSteamCave_Song_mvl/mxv
 BYTE   W02
 BYTE   VOL   12*UpperSteamCave_Song_mvl/mxv
 BYTE   W01
 BYTE   VOL   11*UpperSteamCave_Song_mvl/mxv
 BYTE   W02
 BYTE   VOL   11*UpperSteamCave_Song_mvl/mxv
 BYTE   W01
 BYTE   VOL   11*UpperSteamCave_Song_mvl/mxv
 BYTE   W02
//  #10 //037   ----------------------------------------
 BYTE   VOL   10*UpperSteamCave_Song_mvl/mxv
 BYTE   W01
 BYTE   VOL   10*UpperSteamCave_Song_mvl/mxv
 BYTE   W02
 BYTE   VOL   10*UpperSteamCave_Song_mvl/mxv
 BYTE   W01
 BYTE   VOL   9*UpperSteamCave_Song_mvl/mxv
 BYTE   W02
 BYTE   VOL   8*UpperSteamCave_Song_mvl/mxv
 BYTE   W01
 BYTE   VOL   8*UpperSteamCave_Song_mvl/mxv
 BYTE   W02
 BYTE   VOL   8*UpperSteamCave_Song_mvl/mxv
 BYTE   W01
 BYTE   VOL   8*UpperSteamCave_Song_mvl/mxv
 BYTE   W02
 BYTE   VOL   9*UpperSteamCave_Song_mvl/mxv
 BYTE   N48  Cs4
 BYTE   W07
 BYTE   VOL   9*UpperSteamCave_Song_mvl/mxv
 BYTE   W03
 BYTE   VOL   9*UpperSteamCave_Song_mvl/mxv
 BYTE   W03
 BYTE   VOL   10*UpperSteamCave_Song_mvl/mxv
 BYTE   W02
 BYTE   VOL   10*UpperSteamCave_Song_mvl/mxv
 BYTE   W01
 BYTE   VOL   10*UpperSteamCave_Song_mvl/mxv
 BYTE   W03
 BYTE   VOL   10*UpperSteamCave_Song_mvl/mxv
 BYTE   W02
 BYTE   VOL   10*UpperSteamCave_Song_mvl/mxv
 BYTE   W01
 BYTE   VOL   10*UpperSteamCave_Song_mvl/mxv
 BYTE   W02
 BYTE   VOL   10*UpperSteamCave_Song_mvl/mxv
 BYTE   W01
 BYTE   VOL   10*UpperSteamCave_Song_mvl/mxv
 BYTE   W02
 BYTE   VOL   11*UpperSteamCave_Song_mvl/mxv
 BYTE   W01
 BYTE   VOL   11*UpperSteamCave_Song_mvl/mxv
 BYTE   W02
 BYTE   VOL   11*UpperSteamCave_Song_mvl/mxv
 BYTE   W01
 BYTE   VOL   11*UpperSteamCave_Song_mvl/mxv
 BYTE   W02
 BYTE   VOL   12*UpperSteamCave_Song_mvl/mxv
 BYTE   W01
 BYTE   VOL   12*UpperSteamCave_Song_mvl/mxv
 BYTE   W02
 BYTE   VOL   13*UpperSteamCave_Song_mvl/mxv
 BYTE   W01
 BYTE   VOL   13*UpperSteamCave_Song_mvl/mxv
 BYTE   W02
 BYTE   VOL   13*UpperSteamCave_Song_mvl/mxv
 BYTE   W01
 BYTE   VOL   14*UpperSteamCave_Song_mvl/mxv
 BYTE   W02
 BYTE   VOL   14*UpperSteamCave_Song_mvl/mxv
 BYTE   W01
 BYTE   VOL   14*UpperSteamCave_Song_mvl/mxv
 BYTE   W02
 BYTE   VOL   15*UpperSteamCave_Song_mvl/mxv
 BYTE   W01
 BYTE   VOL   15*UpperSteamCave_Song_mvl/mxv
 BYTE   W02
 BYTE   VOL   16*UpperSteamCave_Song_mvl/mxv
 BYTE   N48  Gn3
 BYTE   W01
 BYTE   VOL   16*UpperSteamCave_Song_mvl/mxv
 BYTE   W09
 BYTE   VOL   16*UpperSteamCave_Song_mvl/mxv
 BYTE   W03
 BYTE   VOL   15*UpperSteamCave_Song_mvl/mxv
 BYTE   W03
 BYTE   VOL   15*UpperSteamCave_Song_mvl/mxv
 BYTE   W02
 BYTE   VOL   15*UpperSteamCave_Song_mvl/mxv
 BYTE   W03
 BYTE   VOL   15*UpperSteamCave_Song_mvl/mxv
 BYTE   W01
 BYTE   VOL   15*UpperSteamCave_Song_mvl/mxv
 BYTE   W02
 BYTE   VOL   14*UpperSteamCave_Song_mvl/mxv
 BYTE   W01
 BYTE   VOL   14*UpperSteamCave_Song_mvl/mxv
 BYTE   W02
 BYTE   VOL   14*UpperSteamCave_Song_mvl/mxv
 BYTE   W01
 BYTE   VOL   14*UpperSteamCave_Song_mvl/mxv
 BYTE   W02
 BYTE   VOL   13*UpperSteamCave_Song_mvl/mxv
 BYTE   W01
 BYTE   VOL   13*UpperSteamCave_Song_mvl/mxv
 BYTE   W02
 BYTE   VOL   13*UpperSteamCave_Song_mvl/mxv
 BYTE   W01
 BYTE   VOL   13*UpperSteamCave_Song_mvl/mxv
 BYTE   W02
//  #10 //038   ----------------------------------------
 BYTE   VOL   12*UpperSteamCave_Song_mvl/mxv
 BYTE   W01
 BYTE   VOL   12*UpperSteamCave_Song_mvl/mxv
 BYTE   W02
 BYTE   VOL   11*UpperSteamCave_Song_mvl/mxv
 BYTE   W01
 BYTE   VOL   11*UpperSteamCave_Song_mvl/mxv
 BYTE   W02
 BYTE   VOL   11*UpperSteamCave_Song_mvl/mxv
 BYTE   W01
 BYTE   VOL   11*UpperSteamCave_Song_mvl/mxv
 BYTE   W02
 BYTE   VOL   10*UpperSteamCave_Song_mvl/mxv
 BYTE   W01
 BYTE   VOL   9*UpperSteamCave_Song_mvl/mxv
 BYTE   W02
 BYTE   N48  As3
 BYTE   W04
 BYTE   VOL   9*UpperSteamCave_Song_mvl/mxv
 BYTE   W05
 BYTE   VOL   10*UpperSteamCave_Song_mvl/mxv
 BYTE   W03
 BYTE   VOL   10*UpperSteamCave_Song_mvl/mxv
 BYTE   W01
 BYTE   VOL   10*UpperSteamCave_Song_mvl/mxv
 BYTE   W03
 BYTE   VOL   10*UpperSteamCave_Song_mvl/mxv
 BYTE   W02
 BYTE   VOL   10*UpperSteamCave_Song_mvl/mxv
 BYTE   W01
 BYTE   VOL   10*UpperSteamCave_Song_mvl/mxv
 BYTE   W02
 BYTE   VOL   10*UpperSteamCave_Song_mvl/mxv
 BYTE   W01
 BYTE   VOL   10*UpperSteamCave_Song_mvl/mxv
 BYTE   W02
 BYTE   VOL   11*UpperSteamCave_Song_mvl/mxv
 BYTE   W01
 BYTE   VOL   11*UpperSteamCave_Song_mvl/mxv
 BYTE   W02
 BYTE   VOL   11*UpperSteamCave_Song_mvl/mxv
 BYTE   W01
 BYTE   VOL   11*UpperSteamCave_Song_mvl/mxv
 BYTE   W02
 BYTE   VOL   11*UpperSteamCave_Song_mvl/mxv
 BYTE   W01
 BYTE   VOL   12*UpperSteamCave_Song_mvl/mxv
 BYTE   W02
 BYTE   VOL   12*UpperSteamCave_Song_mvl/mxv
 BYTE   W01
 BYTE   VOL   13*UpperSteamCave_Song_mvl/mxv
 BYTE   W02
 BYTE   VOL   13*UpperSteamCave_Song_mvl/mxv
 BYTE   W01
 BYTE   VOL   13*UpperSteamCave_Song_mvl/mxv
 BYTE   W02
 BYTE   VOL   14*UpperSteamCave_Song_mvl/mxv
 BYTE   W01
 BYTE   VOL   14*UpperSteamCave_Song_mvl/mxv
 BYTE   W02
 BYTE   VOL   14*UpperSteamCave_Song_mvl/mxv
 BYTE   W01
 BYTE   VOL   15*UpperSteamCave_Song_mvl/mxv
 BYTE   W02
 BYTE   VOL   15*UpperSteamCave_Song_mvl/mxv
 BYTE   W01
 BYTE   VOL   16*UpperSteamCave_Song_mvl/mxv
 BYTE   W02
 BYTE   VOL   17*UpperSteamCave_Song_mvl/mxv
 BYTE   N48  Gs3
 BYTE   W10
 BYTE   VOL   16*UpperSteamCave_Song_mvl/mxv
 BYTE   W02
 BYTE   VOL   16*UpperSteamCave_Song_mvl/mxv
 BYTE   W03
 BYTE   VOL   15*UpperSteamCave_Song_mvl/mxv
 BYTE   W01
 BYTE   VOL   15*UpperSteamCave_Song_mvl/mxv
 BYTE   W02
 BYTE   VOL   15*UpperSteamCave_Song_mvl/mxv
 BYTE   W01
 BYTE   VOL   15*UpperSteamCave_Song_mvl/mxv
 BYTE   W02
 BYTE   VOL   15*UpperSteamCave_Song_mvl/mxv
 BYTE   W01
 BYTE   VOL   14*UpperSteamCave_Song_mvl/mxv
 BYTE   W02
 BYTE   VOL   14*UpperSteamCave_Song_mvl/mxv
 BYTE   W01
 BYTE   VOL   14*UpperSteamCave_Song_mvl/mxv
 BYTE   W02
 BYTE   VOL   14*UpperSteamCave_Song_mvl/mxv
 BYTE   W01
 BYTE   VOL   13*UpperSteamCave_Song_mvl/mxv
 BYTE   W02
 BYTE   VOL   13*UpperSteamCave_Song_mvl/mxv
 BYTE   W01
 BYTE   VOL   13*UpperSteamCave_Song_mvl/mxv
 BYTE   W02
 BYTE   VOL   12*UpperSteamCave_Song_mvl/mxv
 BYTE   W01
 BYTE   VOL   12*UpperSteamCave_Song_mvl/mxv
 BYTE   W02
//  #10 //039   ----------------------------------------
 BYTE   VOL   11*UpperSteamCave_Song_mvl/mxv
 BYTE   W01
 BYTE   VOL   11*UpperSteamCave_Song_mvl/mxv
 BYTE   W02
 BYTE   VOL   11*UpperSteamCave_Song_mvl/mxv
 BYTE   W01
 BYTE   VOL   10*UpperSteamCave_Song_mvl/mxv
 BYTE   W02
 BYTE   VOL   10*UpperSteamCave_Song_mvl/mxv
 BYTE   W01
 BYTE   VOL   10*UpperSteamCave_Song_mvl/mxv
 BYTE   W02
 BYTE   VOL   10*UpperSteamCave_Song_mvl/mxv
 BYTE   W01
 BYTE   VOL   9*UpperSteamCave_Song_mvl/mxv
 BYTE   W02
 BYTE   VOL   8*UpperSteamCave_Song_mvl/mxv
 BYTE   N48  As3
 BYTE   W07
 BYTE   VOL   8*UpperSteamCave_Song_mvl/mxv
 BYTE   W03
 BYTE   VOL   8*UpperSteamCave_Song_mvl/mxv
 BYTE   W02
 BYTE   VOL   8*UpperSteamCave_Song_mvl/mxv
 BYTE   W03
 BYTE   VOL   8*UpperSteamCave_Song_mvl/mxv
 BYTE   W01
 BYTE   VOL   9*UpperSteamCave_Song_mvl/mxv
 BYTE   W02
 BYTE   VOL   9*UpperSteamCave_Song_mvl/mxv
 BYTE   W01
 BYTE   VOL   10*UpperSteamCave_Song_mvl/mxv
 BYTE   W02
 BYTE   VOL   10*UpperSteamCave_Song_mvl/mxv
 BYTE   W01
 BYTE   VOL   10*UpperSteamCave_Song_mvl/mxv
 BYTE   W02
 BYTE   VOL   10*UpperSteamCave_Song_mvl/mxv
 BYTE   W01
 BYTE   VOL   10*UpperSteamCave_Song_mvl/mxv
 BYTE   W02
 BYTE   VOL   10*UpperSteamCave_Song_mvl/mxv
 BYTE   W01
 BYTE   VOL   11*UpperSteamCave_Song_mvl/mxv
 BYTE   W02
 BYTE   VOL   11*UpperSteamCave_Song_mvl/mxv
 BYTE   W01
 BYTE   VOL   11*UpperSteamCave_Song_mvl/mxv
 BYTE   W02
 BYTE   VOL   11*UpperSteamCave_Song_mvl/mxv
 BYTE   W01
 BYTE   VOL   12*UpperSteamCave_Song_mvl/mxv
 BYTE   W02
 BYTE   VOL   13*UpperSteamCave_Song_mvl/mxv
 BYTE   W01
 BYTE   VOL   13*UpperSteamCave_Song_mvl/mxv
 BYTE   W02
 BYTE   VOL   14*UpperSteamCave_Song_mvl/mxv
 BYTE   W01
 BYTE   VOL   14*UpperSteamCave_Song_mvl/mxv
 BYTE   W02
 BYTE   VOL   15*UpperSteamCave_Song_mvl/mxv
 BYTE   W01
 BYTE   VOL   15*UpperSteamCave_Song_mvl/mxv
 BYTE   W02
 BYTE   VOL   16*UpperSteamCave_Song_mvl/mxv
 BYTE   W03
 BYTE   VOL   17*UpperSteamCave_Song_mvl/mxv
 BYTE   N48  Fn3
 BYTE   W06
 BYTE   VOL   16*UpperSteamCave_Song_mvl/mxv
 BYTE   W04
 BYTE   VOL   16*UpperSteamCave_Song_mvl/mxv
 BYTE   W02
 BYTE   VOL   15*UpperSteamCave_Song_mvl/mxv
 BYTE   W03
 BYTE   VOL   15*UpperSteamCave_Song_mvl/mxv
 BYTE   W01
 BYTE   VOL   15*UpperSteamCave_Song_mvl/mxv
 BYTE   W02
 BYTE   VOL   15*UpperSteamCave_Song_mvl/mxv
 BYTE   W01
 BYTE   VOL   15*UpperSteamCave_Song_mvl/mxv
 BYTE   W02
 BYTE   VOL   14*UpperSteamCave_Song_mvl/mxv
 BYTE   W01
 BYTE   VOL   14*UpperSteamCave_Song_mvl/mxv
 BYTE   W02
 BYTE   VOL   14*UpperSteamCave_Song_mvl/mxv
 BYTE   W01
 BYTE   VOL   14*UpperSteamCave_Song_mvl/mxv
 BYTE   W02
 BYTE   VOL   13*UpperSteamCave_Song_mvl/mxv
 BYTE   W01
 BYTE   VOL   13*UpperSteamCave_Song_mvl/mxv
 BYTE   W02
 BYTE   VOL   13*UpperSteamCave_Song_mvl/mxv
 BYTE   W01
 BYTE   VOL   12*UpperSteamCave_Song_mvl/mxv
 BYTE   W02
 BYTE   VOL   12*UpperSteamCave_Song_mvl/mxv
 BYTE   W01
 BYTE   VOL   11*UpperSteamCave_Song_mvl/mxv
 BYTE   W02
//  #10 //040   ----------------------------------------
 BYTE   VOL   11*UpperSteamCave_Song_mvl/mxv
 BYTE   W01
 BYTE   VOL   11*UpperSteamCave_Song_mvl/mxv
 BYTE   W02
 BYTE   VOL   10*UpperSteamCave_Song_mvl/mxv
 BYTE   W01
 BYTE   VOL   10*UpperSteamCave_Song_mvl/mxv
 BYTE   W02
 BYTE   VOL   10*UpperSteamCave_Song_mvl/mxv
 BYTE   W01
 BYTE   VOL   10*UpperSteamCave_Song_mvl/mxv
 BYTE   W02
 BYTE   VOL   9*UpperSteamCave_Song_mvl/mxv
 BYTE   W01
 BYTE   VOL   8*UpperSteamCave_Song_mvl/mxv
 BYTE   W02
 BYTE   VOL   8*UpperSteamCave_Song_mvl/mxv
 BYTE   N48  As3
 BYTE   W01
 BYTE   VOL   8*UpperSteamCave_Song_mvl/mxv
 BYTE   W02
 BYTE   VOL   8*UpperSteamCave_Song_mvl/mxv
 BYTE   W06
 BYTE   VOL   8*UpperSteamCave_Song_mvl/mxv
 BYTE   W03
 BYTE   VOL   8*UpperSteamCave_Song_mvl/mxv
 BYTE   W03
 BYTE   VOL   9*UpperSteamCave_Song_mvl/mxv
 BYTE   W01
 BYTE   VOL   9*UpperSteamCave_Song_mvl/mxv
 BYTE   W02
 BYTE   VOL   9*UpperSteamCave_Song_mvl/mxv
 BYTE   W01
 BYTE   VOL   10*UpperSteamCave_Song_mvl/mxv
 BYTE   W02
 BYTE   VOL   10*UpperSteamCave_Song_mvl/mxv
 BYTE   W01
 BYTE   VOL   10*UpperSteamCave_Song_mvl/mxv
 BYTE   W02
 BYTE   VOL   10*UpperSteamCave_Song_mvl/mxv
 BYTE   W01
 BYTE   VOL   10*UpperSteamCave_Song_mvl/mxv
 BYTE   W02
 BYTE   VOL   10*UpperSteamCave_Song_mvl/mxv
 BYTE   W01
 BYTE   VOL   11*UpperSteamCave_Song_mvl/mxv
 BYTE   W02
 BYTE   VOL   11*UpperSteamCave_Song_mvl/mxv
 BYTE   W01
 BYTE   VOL   11*UpperSteamCave_Song_mvl/mxv
 BYTE   W02
 BYTE   VOL   11*UpperSteamCave_Song_mvl/mxv
 BYTE   W01
 BYTE   VOL   12*UpperSteamCave_Song_mvl/mxv
 BYTE   W02
 BYTE   VOL   12*UpperSteamCave_Song_mvl/mxv
 BYTE   W01
 BYTE   VOL   13*UpperSteamCave_Song_mvl/mxv
 BYTE   W02
 BYTE   VOL   13*UpperSteamCave_Song_mvl/mxv
 BYTE   W01
 BYTE   VOL   14*UpperSteamCave_Song_mvl/mxv
 BYTE   W02
 BYTE   VOL   14*UpperSteamCave_Song_mvl/mxv
 BYTE   W01
 BYTE   VOL   15*UpperSteamCave_Song_mvl/mxv
 BYTE   W02
 BYTE   VOL   15*UpperSteamCave_Song_mvl/mxv
 BYTE   W01
 BYTE   VOL   16*UpperSteamCave_Song_mvl/mxv
 BYTE   W02
 BYTE   VOL   17*UpperSteamCave_Song_mvl/mxv
 BYTE   N48  Gs3
 BYTE   W06
 BYTE   VOL   16*UpperSteamCave_Song_mvl/mxv
 BYTE   W03
 BYTE   VOL   16*UpperSteamCave_Song_mvl/mxv
 BYTE   W01
 BYTE   VOL   15*UpperSteamCave_Song_mvl/mxv
 BYTE   W03
 BYTE   VOL   15*UpperSteamCave_Song_mvl/mxv
 BYTE   W02
 BYTE   VOL   15*UpperSteamCave_Song_mvl/mxv
 BYTE   W01
 BYTE   VOL   15*UpperSteamCave_Song_mvl/mxv
 BYTE   W02
 BYTE   VOL   15*UpperSteamCave_Song_mvl/mxv
 BYTE   W01
 BYTE   VOL   14*UpperSteamCave_Song_mvl/mxv
 BYTE   W02
 BYTE   VOL   14*UpperSteamCave_Song_mvl/mxv
 BYTE   W01
 BYTE   VOL   14*UpperSteamCave_Song_mvl/mxv
 BYTE   W02
 BYTE   VOL   13*UpperSteamCave_Song_mvl/mxv
 BYTE   W01
 BYTE   VOL   13*UpperSteamCave_Song_mvl/mxv
 BYTE   W02
 BYTE   VOL   13*UpperSteamCave_Song_mvl/mxv
 BYTE   W01
 BYTE   VOL   12*UpperSteamCave_Song_mvl/mxv
 BYTE   W02
 BYTE   VOL   12*UpperSteamCave_Song_mvl/mxv
 BYTE   W01
 BYTE   VOL   11*UpperSteamCave_Song_mvl/mxv
 BYTE   W02
 BYTE   VOL   11*UpperSteamCave_Song_mvl/mxv
 BYTE   W01
 BYTE   VOL   11*UpperSteamCave_Song_mvl/mxv
 BYTE   W02
//  #10 //041   ----------------------------------------
 BYTE   VOL   10*UpperSteamCave_Song_mvl/mxv
 BYTE   W01
 BYTE   VOL   10*UpperSteamCave_Song_mvl/mxv
 BYTE   W02
 BYTE   VOL   10*UpperSteamCave_Song_mvl/mxv
 BYTE   W01
 BYTE   VOL   9*UpperSteamCave_Song_mvl/mxv
 BYTE   W02
 BYTE   VOL   8*UpperSteamCave_Song_mvl/mxv
 BYTE   W01
 BYTE   VOL   8*UpperSteamCave_Song_mvl/mxv
 BYTE   W05
 BYTE   N48  As3
 BYTE   W01
 BYTE   VOL   8*UpperSteamCave_Song_mvl/mxv
 BYTE   W02
 BYTE   VOL   8*UpperSteamCave_Song_mvl/mxv
 BYTE   W06
 BYTE   VOL   8*UpperSteamCave_Song_mvl/mxv
 BYTE   W03
 BYTE   VOL   8*UpperSteamCave_Song_mvl/mxv
 BYTE   W01
 BYTE   VOL   9*UpperSteamCave_Song_mvl/mxv
 BYTE   W02
 BYTE   VOL   9*UpperSteamCave_Song_mvl/mxv
 BYTE   W01
 BYTE   VOL   9*UpperSteamCave_Song_mvl/mxv
 BYTE   W02
 BYTE   VOL   10*UpperSteamCave_Song_mvl/mxv
 BYTE   W01
 BYTE   VOL   10*UpperSteamCave_Song_mvl/mxv
 BYTE   W02
 BYTE   VOL   10*UpperSteamCave_Song_mvl/mxv
 BYTE   W01
 BYTE   VOL   10*UpperSteamCave_Song_mvl/mxv
 BYTE   W02
 BYTE   VOL   10*UpperSteamCave_Song_mvl/mxv
 BYTE   W01
 BYTE   VOL   10*UpperSteamCave_Song_mvl/mxv
 BYTE   W02
 BYTE   VOL   11*UpperSteamCave_Song_mvl/mxv
 BYTE   W01
 BYTE   VOL   11*UpperSteamCave_Song_mvl/mxv
 BYTE   W02
 BYTE   VOL   11*UpperSteamCave_Song_mvl/mxv
 BYTE   W01
 BYTE   VOL   12*UpperSteamCave_Song_mvl/mxv
 BYTE   W02
 BYTE   VOL   12*UpperSteamCave_Song_mvl/mxv
 BYTE   W01
 BYTE   VOL   13*UpperSteamCave_Song_mvl/mxv
 BYTE   W02
 BYTE   VOL   13*UpperSteamCave_Song_mvl/mxv
 BYTE   W01
 BYTE   VOL   13*UpperSteamCave_Song_mvl/mxv
 BYTE   W06
 BYTE   VOL   13*UpperSteamCave_Song_mvl/mxv
 BYTE   W03
 BYTE   VOL   13*UpperSteamCave_Song_mvl/mxv
 BYTE   W02
 BYTE   VOL   13*UpperSteamCave_Song_mvl/mxv
 BYTE   N48  Gn3
 BYTE   W01
 BYTE   VOL   12*UpperSteamCave_Song_mvl/mxv
 BYTE   W02
 BYTE   VOL   12*UpperSteamCave_Song_mvl/mxv
 BYTE   W01
 BYTE   VOL   11*UpperSteamCave_Song_mvl/mxv
 BYTE   W02
 BYTE   VOL   11*UpperSteamCave_Song_mvl/mxv
 BYTE   W01
 BYTE   VOL   11*UpperSteamCave_Song_mvl/mxv
 BYTE   W02
 BYTE   VOL   11*UpperSteamCave_Song_mvl/mxv
 BYTE   W01
 BYTE   VOL   10*UpperSteamCave_Song_mvl/mxv
 BYTE   W02
 BYTE   VOL   10*UpperSteamCave_Song_mvl/mxv
 BYTE   W01
 BYTE   VOL   10*UpperSteamCave_Song_mvl/mxv
 BYTE   W02
 BYTE   VOL   10*UpperSteamCave_Song_mvl/mxv
 BYTE   W01
 BYTE   VOL   9*UpperSteamCave_Song_mvl/mxv
 BYTE   W02
 BYTE   VOL   8*UpperSteamCave_Song_mvl/mxv
 BYTE   W01
 BYTE   VOL   8*UpperSteamCave_Song_mvl/mxv
 BYTE   W02
 BYTE   VOL   7*UpperSteamCave_Song_mvl/mxv
 BYTE   W01
 BYTE   VOL   6*UpperSteamCave_Song_mvl/mxv
 BYTE   W02
 BYTE   VOL   6*UpperSteamCave_Song_mvl/mxv
 BYTE   W01
 BYTE   VOL   6*UpperSteamCave_Song_mvl/mxv
 BYTE   W02
 BYTE   VOL   5*UpperSteamCave_Song_mvl/mxv
 BYTE   W01
 BYTE   VOL   5*UpperSteamCave_Song_mvl/mxv
 BYTE   W02
 BYTE   VOL   4*UpperSteamCave_Song_mvl/mxv
 BYTE   W01
 BYTE   VOL   3*UpperSteamCave_Song_mvl/mxv
 BYTE   W02
 BYTE   VOL   3*UpperSteamCave_Song_mvl/mxv
 BYTE   W01
 BYTE   VOL   3*UpperSteamCave_Song_mvl/mxv
 BYTE   W02
//  #10 //042   ----------------------------------------
 BYTE   GoTo
  POIN2 Label_016B2B3A
//  #10 //043   ----------------------------------------
 BYTE   VOL   2*UpperSteamCave_Song_mvl/mxv
 BYTE   W12
 BYTE   FINE

//**************** Track 11 (Midi-Chn.10) ****************//

UpperSteamCave_Song_011:
//  #11 //000   ----------------------------------------
 BYTE   KEYSH   UpperSteamCave_Song_key+0
Label_016B3636:
 BYTE   VOICE   41
 BYTE   MODT 0
 BYTE   LFOS 44
 BYTE   VOL   53*UpperSteamCave_Song_mvl/mxv
 BYTE   PAN   c_v+26
 BYTE   VOL   53*UpperSteamCave_Song_mvl/mxv
 BYTE   BEND   c_v+0
 BYTE   W96
//  #11 //001   ----------------------------------------
 BYTE   W96
//  #11 //002   ----------------------------------------
 BYTE   W96
//  #11 //003   ----------------------------------------
 BYTE   W96
//  #11 //004   ----------------------------------------
 BYTE   W96
//  #11 //005   ----------------------------------------
 BYTE   W96
//  #11 //006   ----------------------------------------
 BYTE   W96
//  #11 //007   ----------------------------------------
 BYTE   W96
//  #11 //008   ----------------------------------------
 BYTE   W96
//  #11 //009   ----------------------------------------
 BYTE   W96
//  #11 //010   ----------------------------------------
 BYTE   W96
//  #11 //011   ----------------------------------------
 BYTE   W96
//  #11 //012   ----------------------------------------
 BYTE   W96
//  #11 //013   ----------------------------------------
 BYTE   W96
//  #11 //014   ----------------------------------------
 BYTE   W96
//  #11 //015   ----------------------------------------
 BYTE   W96
//  #11 //016   ----------------------------------------
 BYTE   W96
//  #11 //017   ----------------------------------------
 BYTE   W80
 BYTE   W01
 BYTE   VOL   36*UpperSteamCave_Song_mvl/mxv
 BYTE   W07
 BYTE   VOL   37*UpperSteamCave_Song_mvl/mxv
 BYTE   W06
 BYTE   VOL   37*UpperSteamCave_Song_mvl/mxv
 BYTE   W02
//  #11 //018   ----------------------------------------
 BYTE   N48  An3  v088
 BYTE   W03
 BYTE   VOL   37*UpperSteamCave_Song_mvl/mxv
 BYTE   W03
 BYTE   VOL   38*UpperSteamCave_Song_mvl/mxv
 BYTE   W01
 BYTE   VOL   39*UpperSteamCave_Song_mvl/mxv
 BYTE   W03
 BYTE   VOL   40*UpperSteamCave_Song_mvl/mxv
 BYTE   W02
 BYTE   VOL   40*UpperSteamCave_Song_mvl/mxv
 BYTE   W03
 BYTE   VOL   40*UpperSteamCave_Song_mvl/mxv
 BYTE   W01
 BYTE   VOL   41*UpperSteamCave_Song_mvl/mxv
 BYTE   W02
 BYTE   VOL   42*UpperSteamCave_Song_mvl/mxv
 BYTE   W01
 BYTE   VOL   43*UpperSteamCave_Song_mvl/mxv
 BYTE   W03
 BYTE   VOL   43*UpperSteamCave_Song_mvl/mxv
 BYTE   W02
 BYTE   VOL   44*UpperSteamCave_Song_mvl/mxv
 BYTE   W01
 BYTE   VOL   45*UpperSteamCave_Song_mvl/mxv
 BYTE   W02
 BYTE   VOL   45*UpperSteamCave_Song_mvl/mxv
 BYTE   W01
 BYTE   VOL   46*UpperSteamCave_Song_mvl/mxv
 BYTE   W02
 BYTE   VOL   47*UpperSteamCave_Song_mvl/mxv
 BYTE   W01
 BYTE   VOL   48*UpperSteamCave_Song_mvl/mxv
 BYTE   W02
 BYTE   VOL   49*UpperSteamCave_Song_mvl/mxv
 BYTE   W01
 BYTE   VOL   50*UpperSteamCave_Song_mvl/mxv
 BYTE   W02
 BYTE   VOL   51*UpperSteamCave_Song_mvl/mxv
 BYTE   W01
 BYTE   VOL   51*UpperSteamCave_Song_mvl/mxv
 BYTE   W02
 BYTE   VOL   53*UpperSteamCave_Song_mvl/mxv
 BYTE   W01
 BYTE   VOL   52*UpperSteamCave_Song_mvl/mxv
 BYTE   W02
 BYTE   VOL   51*UpperSteamCave_Song_mvl/mxv
 BYTE   W01
 BYTE   VOL   49*UpperSteamCave_Song_mvl/mxv
 BYTE   W02
 BYTE   VOL   45*UpperSteamCave_Song_mvl/mxv
 BYTE   W01
 BYTE   VOL   40*UpperSteamCave_Song_mvl/mxv
 BYTE   W02
 BYTE   VOL   33*UpperSteamCave_Song_mvl/mxv
 BYTE   N90  En3
 BYTE   W07
 BYTE   VOL   34*UpperSteamCave_Song_mvl/mxv
 BYTE   W05
 BYTE   VOL   34*UpperSteamCave_Song_mvl/mxv
 BYTE   W03
 BYTE   VOL   34*UpperSteamCave_Song_mvl/mxv
 BYTE   W03
 BYTE   VOL   35*UpperSteamCave_Song_mvl/mxv
 BYTE   W01
 BYTE   VOL   36*UpperSteamCave_Song_mvl/mxv
 BYTE   W02
 BYTE   VOL   37*UpperSteamCave_Song_mvl/mxv
 BYTE   W03
 BYTE   VOL   37*UpperSteamCave_Song_mvl/mxv
 BYTE   W01
 BYTE   VOL   37*UpperSteamCave_Song_mvl/mxv
 BYTE   W02
 BYTE   VOL   38*UpperSteamCave_Song_mvl/mxv
 BYTE   W01
 BYTE   VOL   40*UpperSteamCave_Song_mvl/mxv
 BYTE   W02
 BYTE   VOL   40*UpperSteamCave_Song_mvl/mxv
 BYTE   W01
 BYTE   VOL   40*UpperSteamCave_Song_mvl/mxv
 BYTE   W02
 BYTE   VOL   41*UpperSteamCave_Song_mvl/mxv
 BYTE   W01
 BYTE   VOL   43*UpperSteamCave_Song_mvl/mxv
 BYTE   W02
 BYTE   VOL   43*UpperSteamCave_Song_mvl/mxv
 BYTE   W01
 BYTE   VOL   44*UpperSteamCave_Song_mvl/mxv
 BYTE   W02
 BYTE   VOL   45*UpperSteamCave_Song_mvl/mxv
 BYTE   W01
 BYTE   VOL   46*UpperSteamCave_Song_mvl/mxv
 BYTE   W02
 BYTE   VOL   47*UpperSteamCave_Song_mvl/mxv
 BYTE   W01
 BYTE   VOL   49*UpperSteamCave_Song_mvl/mxv
 BYTE   W02
 BYTE   VOL   50*UpperSteamCave_Song_mvl/mxv
 BYTE   W01
 BYTE   VOL   51*UpperSteamCave_Song_mvl/mxv
 BYTE   W02
//  #11 //019   ----------------------------------------
 BYTE   VOL   51*UpperSteamCave_Song_mvl/mxv
 BYTE   W09
 BYTE   VOL   51*UpperSteamCave_Song_mvl/mxv
 BYTE   W03
 BYTE   VOL   50*UpperSteamCave_Song_mvl/mxv
 BYTE   W01
 BYTE   VOL   50*UpperSteamCave_Song_mvl/mxv
 BYTE   W03
 BYTE   VOL   49*UpperSteamCave_Song_mvl/mxv
 BYTE   W02
 BYTE   VOL   48*UpperSteamCave_Song_mvl/mxv
 BYTE   W01
 BYTE   VOL   47*UpperSteamCave_Song_mvl/mxv
 BYTE   W02
 BYTE   VOL   46*UpperSteamCave_Song_mvl/mxv
 BYTE   W01
 BYTE   VOL   46*UpperSteamCave_Song_mvl/mxv
 BYTE   W02
 BYTE   VOL   45*UpperSteamCave_Song_mvl/mxv
 BYTE   W01
 BYTE   VOL   44*UpperSteamCave_Song_mvl/mxv
 BYTE   W02
 BYTE   VOL   43*UpperSteamCave_Song_mvl/mxv
 BYTE   W01
 BYTE   VOL   43*UpperSteamCave_Song_mvl/mxv
 BYTE   W02
 BYTE   VOL   41*UpperSteamCave_Song_mvl/mxv
 BYTE   W01
 BYTE   VOL   40*UpperSteamCave_Song_mvl/mxv
 BYTE   W02
 BYTE   VOL   40*UpperSteamCave_Song_mvl/mxv
 BYTE   W01
 BYTE   VOL   38*UpperSteamCave_Song_mvl/mxv
 BYTE   W02
 BYTE   VOL   37*UpperSteamCave_Song_mvl/mxv
 BYTE   W01
 BYTE   VOL   36*UpperSteamCave_Song_mvl/mxv
 BYTE   W02
 BYTE   VOL   34*UpperSteamCave_Song_mvl/mxv
 BYTE   W01
 BYTE   VOL   34*UpperSteamCave_Song_mvl/mxv
 BYTE   W02
 BYTE   VOL   43*UpperSteamCave_Song_mvl/mxv
 BYTE   N06  Dn3
 BYTE   W06
 BYTE   N16  En3
 BYTE   W03
 BYTE   VOL   43*UpperSteamCave_Song_mvl/mxv
 BYTE   W04
 BYTE   VOL   44*UpperSteamCave_Song_mvl/mxv
 BYTE   W03
 BYTE   VOL   45*UpperSteamCave_Song_mvl/mxv
 BYTE   W02
 BYTE   VOL   45*UpperSteamCave_Song_mvl/mxv
 BYTE   W03
 BYTE   VOL   46*UpperSteamCave_Song_mvl/mxv
 BYTE   W01
 BYTE   VOL   46*UpperSteamCave_Song_mvl/mxv
 BYTE   N14  Fn3
 BYTE   W02
 BYTE   VOL   47*UpperSteamCave_Song_mvl/mxv
 BYTE   W01
 BYTE   VOL   48*UpperSteamCave_Song_mvl/mxv
 BYTE   W02
 BYTE   VOL   49*UpperSteamCave_Song_mvl/mxv
 BYTE   W01
 BYTE   VOL   50*UpperSteamCave_Song_mvl/mxv
 BYTE   W02
 BYTE   VOL   50*UpperSteamCave_Song_mvl/mxv
 BYTE   W01
 BYTE   VOL   51*UpperSteamCave_Song_mvl/mxv
 BYTE   W02
 BYTE   VOL   51*UpperSteamCave_Song_mvl/mxv
 BYTE   W01
 BYTE   VOL   53*UpperSteamCave_Song_mvl/mxv
 BYTE   W02
 BYTE   N06  En3
 BYTE   W06
 BYTE   Dn3
 BYTE   W06
 BYTE   Cn3
 BYTE   W06
//  #11 //020   ----------------------------------------
 BYTE   N24  Dn3
 BYTE   W18
 BYTE   VOL   52*UpperSteamCave_Song_mvl/mxv
 BYTE   W01
 BYTE   VOL   51*UpperSteamCave_Song_mvl/mxv
 BYTE   W02
 BYTE   VOL   48*UpperSteamCave_Song_mvl/mxv
 BYTE   W01
 BYTE   VOL   43*UpperSteamCave_Song_mvl/mxv
 BYTE   W02
 BYTE   VOL   32*UpperSteamCave_Song_mvl/mxv
 BYTE   TIE  Cn3
 BYTE   W01
 BYTE   VOL   33*UpperSteamCave_Song_mvl/mxv
 BYTE   W05
 BYTE   VOL   34*UpperSteamCave_Song_mvl/mxv
 BYTE   W03
 BYTE   VOL   34*UpperSteamCave_Song_mvl/mxv
 BYTE   W01
 BYTE   VOL   34*UpperSteamCave_Song_mvl/mxv
 BYTE   W02
 BYTE   VOL   35*UpperSteamCave_Song_mvl/mxv
 BYTE   W01
 BYTE   VOL   36*UpperSteamCave_Song_mvl/mxv
 BYTE   W02
 BYTE   VOL   37*UpperSteamCave_Song_mvl/mxv
 BYTE   W01
 BYTE   VOL   37*UpperSteamCave_Song_mvl/mxv
 BYTE   W02
 BYTE   VOL   39*UpperSteamCave_Song_mvl/mxv
 BYTE   W01
 BYTE   VOL   40*UpperSteamCave_Song_mvl/mxv
 BYTE   W02
 BYTE   VOL   41*UpperSteamCave_Song_mvl/mxv
 BYTE   W01
 BYTE   VOL   43*UpperSteamCave_Song_mvl/mxv
 BYTE   W02
 BYTE   VOL   44*UpperSteamCave_Song_mvl/mxv
 BYTE   W01
 BYTE   VOL   45*UpperSteamCave_Song_mvl/mxv
 BYTE   W02
 BYTE   VOL   47*UpperSteamCave_Song_mvl/mxv
 BYTE   W01
 BYTE   VOL   50*UpperSteamCave_Song_mvl/mxv
 BYTE   W02
 BYTE   VOL   51*UpperSteamCave_Song_mvl/mxv
 BYTE   W16
 BYTE   VOL   51*UpperSteamCave_Song_mvl/mxv
 BYTE   W06
 BYTE   VOL   51*UpperSteamCave_Song_mvl/mxv
 BYTE   W05
 BYTE   VOL   50*UpperSteamCave_Song_mvl/mxv
 BYTE   W03
 BYTE   VOL   50*UpperSteamCave_Song_mvl/mxv
 BYTE   W03
 BYTE   VOL   49*UpperSteamCave_Song_mvl/mxv
 BYTE   W01
 BYTE   VOL   48*UpperSteamCave_Song_mvl/mxv
 BYTE   W02
 BYTE   VOL   47*UpperSteamCave_Song_mvl/mxv
 BYTE   W03
 BYTE   VOL   46*UpperSteamCave_Song_mvl/mxv
 BYTE   W01
 BYTE   VOL   46*UpperSteamCave_Song_mvl/mxv
 BYTE   W02
//  #11 //021   ----------------------------------------
 BYTE   VOL   45*UpperSteamCave_Song_mvl/mxv
 BYTE   W01
 BYTE   VOL   44*UpperSteamCave_Song_mvl/mxv
 BYTE   W02
 BYTE   VOL   43*UpperSteamCave_Song_mvl/mxv
 BYTE   W01
 BYTE   VOL   43*UpperSteamCave_Song_mvl/mxv
 BYTE   W02
 BYTE   VOL   42*UpperSteamCave_Song_mvl/mxv
 BYTE   W01
 BYTE   VOL   40*UpperSteamCave_Song_mvl/mxv
 BYTE   W02
 BYTE   VOL   40*UpperSteamCave_Song_mvl/mxv
 BYTE   W01
 BYTE   VOL   39*UpperSteamCave_Song_mvl/mxv
 BYTE   W02
 BYTE   VOL   38*UpperSteamCave_Song_mvl/mxv
 BYTE   W01
 BYTE   VOL   37*UpperSteamCave_Song_mvl/mxv
 BYTE   W02
 BYTE   VOL   36*UpperSteamCave_Song_mvl/mxv
 BYTE   W01
 BYTE   VOL   35*UpperSteamCave_Song_mvl/mxv
 BYTE   W02
 BYTE   VOL   34*UpperSteamCave_Song_mvl/mxv
 BYTE   W01
 BYTE   VOL   33*UpperSteamCave_Song_mvl/mxv
 BYTE   W02
 BYTE   VOL   32*UpperSteamCave_Song_mvl/mxv
 BYTE   W01
 BYTE   VOL   30*UpperSteamCave_Song_mvl/mxv
 BYTE   W02
 BYTE   VOL   31*UpperSteamCave_Song_mvl/mxv
 BYTE   W01
 BYTE   VOL   32*UpperSteamCave_Song_mvl/mxv
 BYTE   W02
 BYTE   VOL   34*UpperSteamCave_Song_mvl/mxv
 BYTE   W01
 BYTE   VOL   37*UpperSteamCave_Song_mvl/mxv
 BYTE   W02
 BYTE   VOL   37*UpperSteamCave_Song_mvl/mxv
 BYTE   W01
 BYTE   VOL   40*UpperSteamCave_Song_mvl/mxv
 BYTE   W02
 BYTE   VOL   42*UpperSteamCave_Song_mvl/mxv
 BYTE   W03
 BYTE   EOT
 BYTE   N12  Dn3
 BYTE   W04
 BYTE   VOL   43*UpperSteamCave_Song_mvl/mxv
 BYTE   W08
 BYTE   VOL   43*UpperSteamCave_Song_mvl/mxv
 BYTE   N36  Cn3
 BYTE   W03
 BYTE   VOL   44*UpperSteamCave_Song_mvl/mxv
 BYTE   W01
 BYTE   VOL   45*UpperSteamCave_Song_mvl/mxv
 BYTE   W03
 BYTE   VOL   45*UpperSteamCave_Song_mvl/mxv
 BYTE   W02
 BYTE   VOL   46*UpperSteamCave_Song_mvl/mxv
 BYTE   W03
 BYTE   VOL   46*UpperSteamCave_Song_mvl/mxv
 BYTE   W01
 BYTE   VOL   47*UpperSteamCave_Song_mvl/mxv
 BYTE   W02
 BYTE   VOL   48*UpperSteamCave_Song_mvl/mxv
 BYTE   W01
 BYTE   VOL   49*UpperSteamCave_Song_mvl/mxv
 BYTE   W02
 BYTE   VOL   50*UpperSteamCave_Song_mvl/mxv
 BYTE   W01
 BYTE   VOL   50*UpperSteamCave_Song_mvl/mxv
 BYTE   W02
 BYTE   VOL   51*UpperSteamCave_Song_mvl/mxv
 BYTE   W01
 BYTE   VOL   52*UpperSteamCave_Song_mvl/mxv
 BYTE   W02
 BYTE   VOL   53*UpperSteamCave_Song_mvl/mxv
 BYTE   W01
 BYTE   VOL   50*UpperSteamCave_Song_mvl/mxv
 BYTE   W02
 BYTE   VOL   52*UpperSteamCave_Song_mvl/mxv
 BYTE   W04
 BYTE   VOL   51*UpperSteamCave_Song_mvl/mxv
 BYTE   W05
 BYTE   VOL   51*UpperSteamCave_Song_mvl/mxv
 BYTE   N12  Gn2
 BYTE   W01
 BYTE   VOL   50*UpperSteamCave_Song_mvl/mxv
 BYTE   W02
 BYTE   VOL   50*UpperSteamCave_Song_mvl/mxv
 BYTE   W01
 BYTE   VOL   49*UpperSteamCave_Song_mvl/mxv
 BYTE   W02
 BYTE   VOL   48*UpperSteamCave_Song_mvl/mxv
 BYTE   W01
 BYTE   VOL   47*UpperSteamCave_Song_mvl/mxv
 BYTE   W02
 BYTE   VOL   46*UpperSteamCave_Song_mvl/mxv
 BYTE   W03
//  #11 //022   ----------------------------------------
 BYTE   VOL   32*UpperSteamCave_Song_mvl/mxv
 BYTE   TIE  An2
 BYTE   W01
 BYTE   VOL   31*UpperSteamCave_Song_mvl/mxv
 BYTE   W02
 BYTE   VOL   32*UpperSteamCave_Song_mvl/mxv
 BYTE   W10
 BYTE   VOL   32*UpperSteamCave_Song_mvl/mxv
 BYTE   W05
 BYTE   VOL   33*UpperSteamCave_Song_mvl/mxv
 BYTE   W04
 BYTE   VOL   34*UpperSteamCave_Song_mvl/mxv
 BYTE   W03
 BYTE   VOL   34*UpperSteamCave_Song_mvl/mxv
 BYTE   W03
 BYTE   VOL   34*UpperSteamCave_Song_mvl/mxv
 BYTE   W03
 BYTE   VOL   35*UpperSteamCave_Song_mvl/mxv
 BYTE   W02
 BYTE   VOL   36*UpperSteamCave_Song_mvl/mxv
 BYTE   W03
 BYTE   VOL   37*UpperSteamCave_Song_mvl/mxv
 BYTE   W01
 BYTE   VOL   37*UpperSteamCave_Song_mvl/mxv
 BYTE   W02
 BYTE   VOL   37*UpperSteamCave_Song_mvl/mxv
 BYTE   W01
 BYTE   VOL   38*UpperSteamCave_Song_mvl/mxv
 BYTE   W02
 BYTE   VOL   39*UpperSteamCave_Song_mvl/mxv
 BYTE   W01
 BYTE   VOL   40*UpperSteamCave_Song_mvl/mxv
 BYTE   W02
 BYTE   VOL   40*UpperSteamCave_Song_mvl/mxv
 BYTE   W01
 BYTE   VOL   40*UpperSteamCave_Song_mvl/mxv
 BYTE   W02
 BYTE   VOL   41*UpperSteamCave_Song_mvl/mxv
 BYTE   W01
 BYTE   VOL   42*UpperSteamCave_Song_mvl/mxv
 BYTE   W02
 BYTE   VOL   43*UpperSteamCave_Song_mvl/mxv
 BYTE   W01
 BYTE   VOL   43*UpperSteamCave_Song_mvl/mxv
 BYTE   W02
 BYTE   VOL   44*UpperSteamCave_Song_mvl/mxv
 BYTE   W01
 BYTE   VOL   45*UpperSteamCave_Song_mvl/mxv
 BYTE   W02
 BYTE   VOL   45*UpperSteamCave_Song_mvl/mxv
 BYTE   W01
 BYTE   VOL   51*UpperSteamCave_Song_mvl/mxv
 BYTE   W21
 BYTE   VOL   50*UpperSteamCave_Song_mvl/mxv
 BYTE   W08
 BYTE   VOL   50*UpperSteamCave_Song_mvl/mxv
 BYTE   W06
 BYTE   VOL   49*UpperSteamCave_Song_mvl/mxv
 BYTE   W03
//  #11 //023   ----------------------------------------
 BYTE   W03
 BYTE   VOL   48*UpperSteamCave_Song_mvl/mxv
 BYTE   W04
 BYTE   VOL   47*UpperSteamCave_Song_mvl/mxv
 BYTE   W05
 BYTE   VOL   46*UpperSteamCave_Song_mvl/mxv
 BYTE   W04
 BYTE   VOL   46*UpperSteamCave_Song_mvl/mxv
 BYTE   W03
 BYTE   VOL   45*UpperSteamCave_Song_mvl/mxv
 BYTE   W03
 BYTE   VOL   45*UpperSteamCave_Song_mvl/mxv
 BYTE   W03
 BYTE   VOL   44*UpperSteamCave_Song_mvl/mxv
 BYTE   W03
 BYTE   VOL   43*UpperSteamCave_Song_mvl/mxv
 BYTE   W03
 BYTE   VOL   43*UpperSteamCave_Song_mvl/mxv
 BYTE   W05
 BYTE   VOL   42*UpperSteamCave_Song_mvl/mxv
 BYTE   W03
 BYTE   VOL   41*UpperSteamCave_Song_mvl/mxv
 BYTE   W03
 BYTE   VOL   40*UpperSteamCave_Song_mvl/mxv
 BYTE   W01
 BYTE   VOL   40*UpperSteamCave_Song_mvl/mxv
 BYTE   W03
 BYTE   VOL   40*UpperSteamCave_Song_mvl/mxv
 BYTE   W02
 BYTE   VOL   39*UpperSteamCave_Song_mvl/mxv
 BYTE   W03
 BYTE   VOL   38*UpperSteamCave_Song_mvl/mxv
 BYTE   W01
 BYTE   VOL   37*UpperSteamCave_Song_mvl/mxv
 BYTE   W03
 BYTE   VOL   37*UpperSteamCave_Song_mvl/mxv
 BYTE   W02
 BYTE   VOL   37*UpperSteamCave_Song_mvl/mxv
 BYTE   W03
 BYTE   VOL   36*UpperSteamCave_Song_mvl/mxv
 BYTE   W01
 BYTE   VOL   35*UpperSteamCave_Song_mvl/mxv
 BYTE   W02
 BYTE   VOL   34*UpperSteamCave_Song_mvl/mxv
 BYTE   W03
 BYTE   VOL   34*UpperSteamCave_Song_mvl/mxv
 BYTE   W03
 BYTE   VOL   34*UpperSteamCave_Song_mvl/mxv
 BYTE   W01
 BYTE   VOL   33*UpperSteamCave_Song_mvl/mxv
 BYTE   W02
 BYTE   VOL   32*UpperSteamCave_Song_mvl/mxv
 BYTE   W01
 BYTE   VOL   32*UpperSteamCave_Song_mvl/mxv
 BYTE   W02
 BYTE   VOL   31*UpperSteamCave_Song_mvl/mxv
 BYTE   W03
 BYTE   VOL   30*UpperSteamCave_Song_mvl/mxv
 BYTE   W01
 BYTE   VOL   30*UpperSteamCave_Song_mvl/mxv
 BYTE   W02
 BYTE   VOL   29*UpperSteamCave_Song_mvl/mxv
 BYTE   W01
 BYTE   VOL   29*UpperSteamCave_Song_mvl/mxv
 BYTE   W02
 BYTE   VOL   28*UpperSteamCave_Song_mvl/mxv
 BYTE   W01
 BYTE   VOL   28*UpperSteamCave_Song_mvl/mxv
 BYTE   W02
 BYTE   VOL   27*UpperSteamCave_Song_mvl/mxv
 BYTE   W01
 BYTE   VOL   27*UpperSteamCave_Song_mvl/mxv
 BYTE   W02
 BYTE   VOL   27*UpperSteamCave_Song_mvl/mxv
 BYTE   W03
 BYTE   VOL   26*UpperSteamCave_Song_mvl/mxv
 BYTE   W01
 BYTE   VOL   25*UpperSteamCave_Song_mvl/mxv
 BYTE   W02
//  #11 //024   ----------------------------------------
 BYTE   VOL   24*UpperSteamCave_Song_mvl/mxv
 BYTE   W01
 BYTE   VOL   23*UpperSteamCave_Song_mvl/mxv
 BYTE   W02
 BYTE   VOL   23*UpperSteamCave_Song_mvl/mxv
 BYTE   W01
 BYTE   VOL   23*UpperSteamCave_Song_mvl/mxv
 BYTE   W02
 BYTE   VOL   22*UpperSteamCave_Song_mvl/mxv
 BYTE   W01
 BYTE   VOL   22*UpperSteamCave_Song_mvl/mxv
 BYTE   W02
 BYTE   VOL   22*UpperSteamCave_Song_mvl/mxv
 BYTE   W01
 BYTE   VOL   20*UpperSteamCave_Song_mvl/mxv
 BYTE   W02
 BYTE   VOL   20*UpperSteamCave_Song_mvl/mxv
 BYTE   W01
 BYTE   VOL   19*UpperSteamCave_Song_mvl/mxv
 BYTE   W02
 BYTE   VOL   19*UpperSteamCave_Song_mvl/mxv
 BYTE   W01
 BYTE   VOL   19*UpperSteamCave_Song_mvl/mxv
 BYTE   W02
 BYTE   VOL   18*UpperSteamCave_Song_mvl/mxv
 BYTE   W01
 BYTE   VOL   18*UpperSteamCave_Song_mvl/mxv
 BYTE   W02
 BYTE   VOL   17*UpperSteamCave_Song_mvl/mxv
 BYTE   W01
 BYTE   VOL   17*UpperSteamCave_Song_mvl/mxv
 BYTE   W02
 BYTE   VOL   17*UpperSteamCave_Song_mvl/mxv
 BYTE   W01
 BYTE   VOL   15*UpperSteamCave_Song_mvl/mxv
 BYTE   W02
 BYTE   VOL   15*UpperSteamCave_Song_mvl/mxv
 BYTE   W01
 BYTE   VOL   15*UpperSteamCave_Song_mvl/mxv
 BYTE   W02
 BYTE   VOL   14*UpperSteamCave_Song_mvl/mxv
 BYTE   W01
 BYTE   VOL   14*UpperSteamCave_Song_mvl/mxv
 BYTE   W02
 BYTE   VOL   13*UpperSteamCave_Song_mvl/mxv
 BYTE   W01
 BYTE   VOL   13*UpperSteamCave_Song_mvl/mxv
 BYTE   W02
 BYTE   VOL   12*UpperSteamCave_Song_mvl/mxv
 BYTE   W01
 BYTE   VOL   11*UpperSteamCave_Song_mvl/mxv
 BYTE   W02
 BYTE   VOL   11*UpperSteamCave_Song_mvl/mxv
 BYTE   W01
 BYTE   VOL   11*UpperSteamCave_Song_mvl/mxv
 BYTE   W02
 BYTE   VOL   10*UpperSteamCave_Song_mvl/mxv
 BYTE   W01
 BYTE   VOL   10*UpperSteamCave_Song_mvl/mxv
 BYTE   W02
 BYTE   VOL   10*UpperSteamCave_Song_mvl/mxv
 BYTE   W01
 BYTE   VOL   9*UpperSteamCave_Song_mvl/mxv
 BYTE   W02
 BYTE   VOL   8*UpperSteamCave_Song_mvl/mxv
 BYTE   W01
 BYTE   VOL   8*UpperSteamCave_Song_mvl/mxv
 BYTE   W02
 BYTE   VOL   8*UpperSteamCave_Song_mvl/mxv
 BYTE   W01
 BYTE   VOL   7*UpperSteamCave_Song_mvl/mxv
 BYTE   W02
 BYTE   VOL   6*UpperSteamCave_Song_mvl/mxv
 BYTE   W01
 BYTE   VOL   6*UpperSteamCave_Song_mvl/mxv
 BYTE   W02
 BYTE   VOL   6*UpperSteamCave_Song_mvl/mxv
 BYTE   W01
 BYTE   VOL   5*UpperSteamCave_Song_mvl/mxv
 BYTE   W02
 BYTE   VOL   5*UpperSteamCave_Song_mvl/mxv
 BYTE   W01
 BYTE   VOL   5*UpperSteamCave_Song_mvl/mxv
 BYTE   W02
 BYTE   VOL   4*UpperSteamCave_Song_mvl/mxv
 BYTE   W01
 BYTE   VOL   4*UpperSteamCave_Song_mvl/mxv
 BYTE   W02
 BYTE   VOL   3*UpperSteamCave_Song_mvl/mxv
 BYTE   W01
 BYTE   VOL   3*UpperSteamCave_Song_mvl/mxv
 BYTE   W02
 BYTE   VOL   3*UpperSteamCave_Song_mvl/mxv
 BYTE   W01
 BYTE   VOL   3*UpperSteamCave_Song_mvl/mxv
 BYTE   W02
 BYTE   VOL   2*UpperSteamCave_Song_mvl/mxv
 BYTE   W01
 BYTE   VOL   1*UpperSteamCave_Song_mvl/mxv
 BYTE   W02
 BYTE   VOL   1*UpperSteamCave_Song_mvl/mxv
 BYTE   W01
 BYTE   VOL   1*UpperSteamCave_Song_mvl/mxv
 BYTE   W02
 BYTE   VOL   1*UpperSteamCave_Song_mvl/mxv
 BYTE   W01
 BYTE   VOL   1*UpperSteamCave_Song_mvl/mxv
 BYTE   W02
 BYTE   VOL   1*UpperSteamCave_Song_mvl/mxv
 BYTE   W01
 BYTE   VOL   0*UpperSteamCave_Song_mvl/mxv
 BYTE   W02
 BYTE   VOL   0*UpperSteamCave_Song_mvl/mxv
 BYTE   W01
 BYTE   VOL   0*UpperSteamCave_Song_mvl/mxv
 BYTE   W02
 BYTE   VOL   0*UpperSteamCave_Song_mvl/mxv
 BYTE   W01
 BYTE   VOL   0*UpperSteamCave_Song_mvl/mxv
 BYTE   W02
 BYTE   VOL   0*UpperSteamCave_Song_mvl/mxv
 BYTE   W01
 BYTE   VOL   0*UpperSteamCave_Song_mvl/mxv
 BYTE   W05
//  #11 //025   ----------------------------------------
 BYTE   EOT
 BYTE   W96
//  #11 //026   ----------------------------------------
 BYTE   W84
 BYTE   VOL   53*UpperSteamCave_Song_mvl/mxv
 BYTE   W12
//  #11 //027   ----------------------------------------
 BYTE   W96
//  #11 //028   ----------------------------------------
 BYTE   W96
//  #11 //029   ----------------------------------------
 BYTE   W96
//  #11 //030   ----------------------------------------
 BYTE   W96
//  #11 //031   ----------------------------------------
 BYTE   W96
//  #11 //032   ----------------------------------------
 BYTE   W96
//  #11 //033   ----------------------------------------
 BYTE   W96
//  #11 //034   ----------------------------------------
 BYTE   N48  Ds3  v076
 BYTE   W03
 BYTE   VOL   28*UpperSteamCave_Song_mvl/mxv
 BYTE   W04
 BYTE   VOL   28*UpperSteamCave_Song_mvl/mxv
 BYTE   W03
 BYTE   VOL   29*UpperSteamCave_Song_mvl/mxv
 BYTE   W02
 BYTE   VOL   29*UpperSteamCave_Song_mvl/mxv
 BYTE   W03
 BYTE   VOL   30*UpperSteamCave_Song_mvl/mxv
 BYTE   W01
 BYTE   VOL   30*UpperSteamCave_Song_mvl/mxv
 BYTE   W02
 BYTE   VOL   31*UpperSteamCave_Song_mvl/mxv
 BYTE   W01
 BYTE   VOL   32*UpperSteamCave_Song_mvl/mxv
 BYTE   W02
 BYTE   VOL   32*UpperSteamCave_Song_mvl/mxv
 BYTE   W01
 BYTE   VOL   33*UpperSteamCave_Song_mvl/mxv
 BYTE   W02
 BYTE   VOL   34*UpperSteamCave_Song_mvl/mxv
 BYTE   W01
 BYTE   VOL   34*UpperSteamCave_Song_mvl/mxv
 BYTE   W02
 BYTE   VOL   35*UpperSteamCave_Song_mvl/mxv
 BYTE   W01
 BYTE   VOL   36*UpperSteamCave_Song_mvl/mxv
 BYTE   W02
 BYTE   VOL   37*UpperSteamCave_Song_mvl/mxv
 BYTE   W01
 BYTE   VOL   37*UpperSteamCave_Song_mvl/mxv
 BYTE   W02
 BYTE   VOL   39*UpperSteamCave_Song_mvl/mxv
 BYTE   W01
 BYTE   VOL   40*UpperSteamCave_Song_mvl/mxv
 BYTE   W02
 BYTE   VOL   40*UpperSteamCave_Song_mvl/mxv
 BYTE   W01
 BYTE   VOL   42*UpperSteamCave_Song_mvl/mxv
 BYTE   W02
 BYTE   VOL   43*UpperSteamCave_Song_mvl/mxv
 BYTE   W01
 BYTE   VOL   45*UpperSteamCave_Song_mvl/mxv
 BYTE   W02
 BYTE   VOL   46*UpperSteamCave_Song_mvl/mxv
 BYTE   W01
 BYTE   VOL   47*UpperSteamCave_Song_mvl/mxv
 BYTE   W02
 BYTE   VOL   49*UpperSteamCave_Song_mvl/mxv
 BYTE   W01
 BYTE   VOL   50*UpperSteamCave_Song_mvl/mxv
 BYTE   W02
 BYTE   VOL   53*UpperSteamCave_Song_mvl/mxv
 BYTE   N48  Cs3
 BYTE   W07
 BYTE   VOL   52*UpperSteamCave_Song_mvl/mxv
 BYTE   W03
 BYTE   VOL   51*UpperSteamCave_Song_mvl/mxv
 BYTE   W03
 BYTE   VOL   51*UpperSteamCave_Song_mvl/mxv
 BYTE   W02
 BYTE   VOL   50*UpperSteamCave_Song_mvl/mxv
 BYTE   W01
 BYTE   VOL   50*UpperSteamCave_Song_mvl/mxv
 BYTE   W02
 BYTE   VOL   49*UpperSteamCave_Song_mvl/mxv
 BYTE   W01
 BYTE   VOL   48*UpperSteamCave_Song_mvl/mxv
 BYTE   W02
 BYTE   VOL   47*UpperSteamCave_Song_mvl/mxv
 BYTE   W01
 BYTE   VOL   46*UpperSteamCave_Song_mvl/mxv
 BYTE   W02
 BYTE   VOL   46*UpperSteamCave_Song_mvl/mxv
 BYTE   W01
 BYTE   VOL   45*UpperSteamCave_Song_mvl/mxv
 BYTE   W02
 BYTE   VOL   44*UpperSteamCave_Song_mvl/mxv
 BYTE   W01
 BYTE   VOL   43*UpperSteamCave_Song_mvl/mxv
 BYTE   W02
 BYTE   VOL   42*UpperSteamCave_Song_mvl/mxv
 BYTE   W01
 BYTE   VOL   40*UpperSteamCave_Song_mvl/mxv
 BYTE   W02
 BYTE   VOL   40*UpperSteamCave_Song_mvl/mxv
 BYTE   W01
 BYTE   VOL   39*UpperSteamCave_Song_mvl/mxv
 BYTE   W02
 BYTE   VOL   37*UpperSteamCave_Song_mvl/mxv
 BYTE   W01
 BYTE   VOL   36*UpperSteamCave_Song_mvl/mxv
 BYTE   W02
 BYTE   VOL   34*UpperSteamCave_Song_mvl/mxv
 BYTE   W01
 BYTE   VOL   34*UpperSteamCave_Song_mvl/mxv
 BYTE   W02
 BYTE   VOL   32*UpperSteamCave_Song_mvl/mxv
 BYTE   W01
 BYTE   VOL   31*UpperSteamCave_Song_mvl/mxv
 BYTE   W02
 BYTE   VOL   29*UpperSteamCave_Song_mvl/mxv
 BYTE   W01
 BYTE   VOL   27*UpperSteamCave_Song_mvl/mxv
 BYTE   W02
//  #11 //035   ----------------------------------------
 BYTE   N48  Ds3
 BYTE   W04
 BYTE   VOL   27*UpperSteamCave_Song_mvl/mxv
 BYTE   W05
 BYTE   VOL   28*UpperSteamCave_Song_mvl/mxv
 BYTE   W01
 BYTE   VOL   28*UpperSteamCave_Song_mvl/mxv
 BYTE   W03
 BYTE   VOL   29*UpperSteamCave_Song_mvl/mxv
 BYTE   W02
 BYTE   VOL   29*UpperSteamCave_Song_mvl/mxv
 BYTE   W01
 BYTE   VOL   30*UpperSteamCave_Song_mvl/mxv
 BYTE   W02
 BYTE   VOL   30*UpperSteamCave_Song_mvl/mxv
 BYTE   W01
 BYTE   VOL   31*UpperSteamCave_Song_mvl/mxv
 BYTE   W02
 BYTE   VOL   32*UpperSteamCave_Song_mvl/mxv
 BYTE   W01
 BYTE   VOL   32*UpperSteamCave_Song_mvl/mxv
 BYTE   W02
 BYTE   VOL   34*UpperSteamCave_Song_mvl/mxv
 BYTE   W01
 BYTE   VOL   34*UpperSteamCave_Song_mvl/mxv
 BYTE   W02
 BYTE   VOL   34*UpperSteamCave_Song_mvl/mxv
 BYTE   W01
 BYTE   VOL   36*UpperSteamCave_Song_mvl/mxv
 BYTE   W02
 BYTE   VOL   37*UpperSteamCave_Song_mvl/mxv
 BYTE   W01
 BYTE   VOL   37*UpperSteamCave_Song_mvl/mxv
 BYTE   W02
 BYTE   VOL   39*UpperSteamCave_Song_mvl/mxv
 BYTE   W01
 BYTE   VOL   40*UpperSteamCave_Song_mvl/mxv
 BYTE   W02
 BYTE   VOL   41*UpperSteamCave_Song_mvl/mxv
 BYTE   W01
 BYTE   VOL   43*UpperSteamCave_Song_mvl/mxv
 BYTE   W02
 BYTE   VOL   43*UpperSteamCave_Song_mvl/mxv
 BYTE   W01
 BYTE   VOL   45*UpperSteamCave_Song_mvl/mxv
 BYTE   W02
 BYTE   VOL   46*UpperSteamCave_Song_mvl/mxv
 BYTE   W01
 BYTE   VOL   48*UpperSteamCave_Song_mvl/mxv
 BYTE   W02
 BYTE   VOL   52*UpperSteamCave_Song_mvl/mxv
 BYTE   W03
 BYTE   N48  Bn2
 BYTE   W06
 BYTE   VOL   51*UpperSteamCave_Song_mvl/mxv
 BYTE   W03
 BYTE   VOL   51*UpperSteamCave_Song_mvl/mxv
 BYTE   W03
 BYTE   VOL   50*UpperSteamCave_Song_mvl/mxv
 BYTE   W01
 BYTE   VOL   50*UpperSteamCave_Song_mvl/mxv
 BYTE   W02
 BYTE   VOL   49*UpperSteamCave_Song_mvl/mxv
 BYTE   W01
 BYTE   VOL   48*UpperSteamCave_Song_mvl/mxv
 BYTE   W02
 BYTE   VOL   47*UpperSteamCave_Song_mvl/mxv
 BYTE   W01
 BYTE   VOL   46*UpperSteamCave_Song_mvl/mxv
 BYTE   W02
 BYTE   VOL   46*UpperSteamCave_Song_mvl/mxv
 BYTE   W01
 BYTE   VOL   45*UpperSteamCave_Song_mvl/mxv
 BYTE   W02
 BYTE   VOL   45*UpperSteamCave_Song_mvl/mxv
 BYTE   W01
 BYTE   VOL   43*UpperSteamCave_Song_mvl/mxv
 BYTE   W02
 BYTE   VOL   43*UpperSteamCave_Song_mvl/mxv
 BYTE   W01
 BYTE   VOL   42*UpperSteamCave_Song_mvl/mxv
 BYTE   W02
 BYTE   VOL   40*UpperSteamCave_Song_mvl/mxv
 BYTE   W01
 BYTE   VOL   40*UpperSteamCave_Song_mvl/mxv
 BYTE   W02
 BYTE   VOL   39*UpperSteamCave_Song_mvl/mxv
 BYTE   W01
 BYTE   VOL   37*UpperSteamCave_Song_mvl/mxv
 BYTE   W02
 BYTE   VOL   37*UpperSteamCave_Song_mvl/mxv
 BYTE   W01
 BYTE   VOL   36*UpperSteamCave_Song_mvl/mxv
 BYTE   W02
 BYTE   VOL   34*UpperSteamCave_Song_mvl/mxv
 BYTE   W01
 BYTE   VOL   34*UpperSteamCave_Song_mvl/mxv
 BYTE   W02
 BYTE   VOL   32*UpperSteamCave_Song_mvl/mxv
 BYTE   W01
 BYTE   VOL   31*UpperSteamCave_Song_mvl/mxv
 BYTE   W02
 BYTE   VOL   29*UpperSteamCave_Song_mvl/mxv
 BYTE   W01
 BYTE   VOL   28*UpperSteamCave_Song_mvl/mxv
 BYTE   W02
//  #11 //036   ----------------------------------------
 BYTE   VOL   28*UpperSteamCave_Song_mvl/mxv
 BYTE   N48  Ds3
 BYTE   W06
 BYTE   VOL   28*UpperSteamCave_Song_mvl/mxv
 BYTE   W04
 BYTE   VOL   29*UpperSteamCave_Song_mvl/mxv
 BYTE   W03
 BYTE   VOL   29*UpperSteamCave_Song_mvl/mxv
 BYTE   W02
 BYTE   VOL   30*UpperSteamCave_Song_mvl/mxv
 BYTE   W03
 BYTE   VOL   30*UpperSteamCave_Song_mvl/mxv
 BYTE   W01
 BYTE   VOL   31*UpperSteamCave_Song_mvl/mxv
 BYTE   W02
 BYTE   VOL   32*UpperSteamCave_Song_mvl/mxv
 BYTE   W01
 BYTE   VOL   32*UpperSteamCave_Song_mvl/mxv
 BYTE   W02
 BYTE   VOL   33*UpperSteamCave_Song_mvl/mxv
 BYTE   W01
 BYTE   VOL   34*UpperSteamCave_Song_mvl/mxv
 BYTE   W03
 BYTE   VOL   35*UpperSteamCave_Song_mvl/mxv
 BYTE   W02
 BYTE   VOL   36*UpperSteamCave_Song_mvl/mxv
 BYTE   W01
 BYTE   VOL   37*UpperSteamCave_Song_mvl/mxv
 BYTE   W02
 BYTE   VOL   37*UpperSteamCave_Song_mvl/mxv
 BYTE   W01
 BYTE   VOL   39*UpperSteamCave_Song_mvl/mxv
 BYTE   W02
 BYTE   VOL   40*UpperSteamCave_Song_mvl/mxv
 BYTE   W01
 BYTE   VOL   40*UpperSteamCave_Song_mvl/mxv
 BYTE   W02
 BYTE   VOL   42*UpperSteamCave_Song_mvl/mxv
 BYTE   W01
 BYTE   VOL   43*UpperSteamCave_Song_mvl/mxv
 BYTE   W02
 BYTE   VOL   44*UpperSteamCave_Song_mvl/mxv
 BYTE   W01
 BYTE   VOL   46*UpperSteamCave_Song_mvl/mxv
 BYTE   W02
 BYTE   VOL   47*UpperSteamCave_Song_mvl/mxv
 BYTE   W01
 BYTE   VOL   49*UpperSteamCave_Song_mvl/mxv
 BYTE   W02
 BYTE   VOL   50*UpperSteamCave_Song_mvl/mxv
 BYTE   N48  Cs3
 BYTE   W01
 BYTE   VOL   52*UpperSteamCave_Song_mvl/mxv
 BYTE   W02
 BYTE   VOL   53*UpperSteamCave_Song_mvl/mxv
 BYTE   W06
 BYTE   VOL   52*UpperSteamCave_Song_mvl/mxv
 BYTE   W03
 BYTE   VOL   51*UpperSteamCave_Song_mvl/mxv
 BYTE   W01
 BYTE   VOL   51*UpperSteamCave_Song_mvl/mxv
 BYTE   W03
 BYTE   VOL   50*UpperSteamCave_Song_mvl/mxv
 BYTE   W02
 BYTE   VOL   50*UpperSteamCave_Song_mvl/mxv
 BYTE   W01
 BYTE   VOL   49*UpperSteamCave_Song_mvl/mxv
 BYTE   W02
 BYTE   VOL   48*UpperSteamCave_Song_mvl/mxv
 BYTE   W01
 BYTE   VOL   46*UpperSteamCave_Song_mvl/mxv
 BYTE   W02
 BYTE   VOL   46*UpperSteamCave_Song_mvl/mxv
 BYTE   W01
 BYTE   VOL   45*UpperSteamCave_Song_mvl/mxv
 BYTE   W02
 BYTE   VOL   44*UpperSteamCave_Song_mvl/mxv
 BYTE   W01
 BYTE   VOL   43*UpperSteamCave_Song_mvl/mxv
 BYTE   W02
 BYTE   VOL   42*UpperSteamCave_Song_mvl/mxv
 BYTE   W01
 BYTE   VOL   40*UpperSteamCave_Song_mvl/mxv
 BYTE   W02
 BYTE   VOL   40*UpperSteamCave_Song_mvl/mxv
 BYTE   W01
 BYTE   VOL   38*UpperSteamCave_Song_mvl/mxv
 BYTE   W02
 BYTE   VOL   37*UpperSteamCave_Song_mvl/mxv
 BYTE   W01
 BYTE   VOL   35*UpperSteamCave_Song_mvl/mxv
 BYTE   W02
 BYTE   VOL   34*UpperSteamCave_Song_mvl/mxv
 BYTE   W01
 BYTE   VOL   33*UpperSteamCave_Song_mvl/mxv
 BYTE   W02
 BYTE   VOL   31*UpperSteamCave_Song_mvl/mxv
 BYTE   W01
 BYTE   VOL   29*UpperSteamCave_Song_mvl/mxv
 BYTE   W02
 BYTE   VOL   27*UpperSteamCave_Song_mvl/mxv
 BYTE   W01
 BYTE   VOL   27*UpperSteamCave_Song_mvl/mxv
 BYTE   W02
//  #11 //037   ----------------------------------------
 BYTE   N48  Ds3
 BYTE   W06
 BYTE   VOL   27*UpperSteamCave_Song_mvl/mxv
 BYTE   W04
 BYTE   VOL   28*UpperSteamCave_Song_mvl/mxv
 BYTE   W02
 BYTE   VOL   28*UpperSteamCave_Song_mvl/mxv
 BYTE   W03
 BYTE   VOL   29*UpperSteamCave_Song_mvl/mxv
 BYTE   W01
 BYTE   VOL   29*UpperSteamCave_Song_mvl/mxv
 BYTE   W02
 BYTE   VOL   30*UpperSteamCave_Song_mvl/mxv
 BYTE   W03
 BYTE   VOL   30*UpperSteamCave_Song_mvl/mxv
 BYTE   W01
 BYTE   VOL   31*UpperSteamCave_Song_mvl/mxv
 BYTE   W02
 BYTE   VOL   32*UpperSteamCave_Song_mvl/mxv
 BYTE   W01
 BYTE   VOL   33*UpperSteamCave_Song_mvl/mxv
 BYTE   W02
 BYTE   VOL   34*UpperSteamCave_Song_mvl/mxv
 BYTE   W01
 BYTE   VOL   34*UpperSteamCave_Song_mvl/mxv
 BYTE   W02
 BYTE   VOL   34*UpperSteamCave_Song_mvl/mxv
 BYTE   W01
 BYTE   VOL   35*UpperSteamCave_Song_mvl/mxv
 BYTE   W02
 BYTE   VOL   37*UpperSteamCave_Song_mvl/mxv
 BYTE   W01
 BYTE   VOL   37*UpperSteamCave_Song_mvl/mxv
 BYTE   W02
 BYTE   VOL   38*UpperSteamCave_Song_mvl/mxv
 BYTE   W01
 BYTE   VOL   39*UpperSteamCave_Song_mvl/mxv
 BYTE   W02
 BYTE   VOL   40*UpperSteamCave_Song_mvl/mxv
 BYTE   W01
 BYTE   VOL   41*UpperSteamCave_Song_mvl/mxv
 BYTE   W02
 BYTE   VOL   43*UpperSteamCave_Song_mvl/mxv
 BYTE   W01
 BYTE   VOL   43*UpperSteamCave_Song_mvl/mxv
 BYTE   W02
 BYTE   VOL   45*UpperSteamCave_Song_mvl/mxv
 BYTE   W01
 BYTE   VOL   46*UpperSteamCave_Song_mvl/mxv
 BYTE   W02
 BYTE   VOL   47*UpperSteamCave_Song_mvl/mxv
 BYTE   N48  An2
 BYTE   W01
 BYTE   VOL   53*UpperSteamCave_Song_mvl/mxv
 BYTE   W06
 BYTE   VOL   52*UpperSteamCave_Song_mvl/mxv
 BYTE   W03
 BYTE   VOL   51*UpperSteamCave_Song_mvl/mxv
 BYTE   W03
 BYTE   VOL   51*UpperSteamCave_Song_mvl/mxv
 BYTE   W02
 BYTE   VOL   50*UpperSteamCave_Song_mvl/mxv
 BYTE   W03
 BYTE   VOL   50*UpperSteamCave_Song_mvl/mxv
 BYTE   W01
 BYTE   VOL   49*UpperSteamCave_Song_mvl/mxv
 BYTE   W02
 BYTE   VOL   47*UpperSteamCave_Song_mvl/mxv
 BYTE   W01
 BYTE   VOL   46*UpperSteamCave_Song_mvl/mxv
 BYTE   W02
 BYTE   VOL   46*UpperSteamCave_Song_mvl/mxv
 BYTE   W01
 BYTE   VOL   45*UpperSteamCave_Song_mvl/mxv
 BYTE   W02
 BYTE   VOL   44*UpperSteamCave_Song_mvl/mxv
 BYTE   W01
 BYTE   VOL   43*UpperSteamCave_Song_mvl/mxv
 BYTE   W02
 BYTE   VOL   42*UpperSteamCave_Song_mvl/mxv
 BYTE   W01
 BYTE   VOL   41*UpperSteamCave_Song_mvl/mxv
 BYTE   W02
 BYTE   VOL   40*UpperSteamCave_Song_mvl/mxv
 BYTE   W01
 BYTE   VOL   39*UpperSteamCave_Song_mvl/mxv
 BYTE   W02
 BYTE   VOL   37*UpperSteamCave_Song_mvl/mxv
 BYTE   W01
 BYTE   VOL   37*UpperSteamCave_Song_mvl/mxv
 BYTE   W02
 BYTE   VOL   34*UpperSteamCave_Song_mvl/mxv
 BYTE   W01
 BYTE   VOL   34*UpperSteamCave_Song_mvl/mxv
 BYTE   W02
 BYTE   VOL   32*UpperSteamCave_Song_mvl/mxv
 BYTE   W01
 BYTE   VOL   31*UpperSteamCave_Song_mvl/mxv
 BYTE   W02
 BYTE   VOL   29*UpperSteamCave_Song_mvl/mxv
 BYTE   W01
 BYTE   VOL   28*UpperSteamCave_Song_mvl/mxv
 BYTE   W02
//  #11 //038   ----------------------------------------
 BYTE   VOL   26*UpperSteamCave_Song_mvl/mxv
 BYTE   N48  Cn3
 BYTE   W06
 BYTE   VOL   27*UpperSteamCave_Song_mvl/mxv
 BYTE   W04
 BYTE   VOL   27*UpperSteamCave_Song_mvl/mxv
 BYTE   W03
 BYTE   VOL   27*UpperSteamCave_Song_mvl/mxv
 BYTE   W02
 BYTE   VOL   28*UpperSteamCave_Song_mvl/mxv
 BYTE   W01
 BYTE   VOL   28*UpperSteamCave_Song_mvl/mxv
 BYTE   W02
 BYTE   VOL   29*UpperSteamCave_Song_mvl/mxv
 BYTE   W01
 BYTE   VOL   29*UpperSteamCave_Song_mvl/mxv
 BYTE   W02
 BYTE   VOL   30*UpperSteamCave_Song_mvl/mxv
 BYTE   W01
 BYTE   VOL   30*UpperSteamCave_Song_mvl/mxv
 BYTE   W02
 BYTE   VOL   31*UpperSteamCave_Song_mvl/mxv
 BYTE   W01
 BYTE   VOL   32*UpperSteamCave_Song_mvl/mxv
 BYTE   W02
 BYTE   VOL   33*UpperSteamCave_Song_mvl/mxv
 BYTE   W01
 BYTE   VOL   34*UpperSteamCave_Song_mvl/mxv
 BYTE   W02
 BYTE   VOL   34*UpperSteamCave_Song_mvl/mxv
 BYTE   W01
 BYTE   VOL   36*UpperSteamCave_Song_mvl/mxv
 BYTE   W02
 BYTE   VOL   37*UpperSteamCave_Song_mvl/mxv
 BYTE   W01
 BYTE   VOL   38*UpperSteamCave_Song_mvl/mxv
 BYTE   W02
 BYTE   VOL   40*UpperSteamCave_Song_mvl/mxv
 BYTE   W01
 BYTE   VOL   40*UpperSteamCave_Song_mvl/mxv
 BYTE   W02
 BYTE   VOL   42*UpperSteamCave_Song_mvl/mxv
 BYTE   W01
 BYTE   VOL   43*UpperSteamCave_Song_mvl/mxv
 BYTE   W02
 BYTE   VOL   45*UpperSteamCave_Song_mvl/mxv
 BYTE   W01
 BYTE   VOL   46*UpperSteamCave_Song_mvl/mxv
 BYTE   W02
 BYTE   VOL   48*UpperSteamCave_Song_mvl/mxv
 BYTE   W01
 BYTE   VOL   50*UpperSteamCave_Song_mvl/mxv
 BYTE   W02
 BYTE   VOL   51*UpperSteamCave_Song_mvl/mxv
 BYTE   N48  As2
 BYTE   W06
 BYTE   VOL   51*UpperSteamCave_Song_mvl/mxv
 BYTE   W03
 BYTE   VOL   50*UpperSteamCave_Song_mvl/mxv
 BYTE   W03
 BYTE   VOL   50*UpperSteamCave_Song_mvl/mxv
 BYTE   W01
 BYTE   VOL   49*UpperSteamCave_Song_mvl/mxv
 BYTE   W02
 BYTE   VOL   48*UpperSteamCave_Song_mvl/mxv
 BYTE   W01
 BYTE   VOL   47*UpperSteamCave_Song_mvl/mxv
 BYTE   W02
 BYTE   VOL   46*UpperSteamCave_Song_mvl/mxv
 BYTE   W01
 BYTE   VOL   45*UpperSteamCave_Song_mvl/mxv
 BYTE   W02
 BYTE   VOL   45*UpperSteamCave_Song_mvl/mxv
 BYTE   W01
 BYTE   VOL   44*UpperSteamCave_Song_mvl/mxv
 BYTE   W02
 BYTE   VOL   43*UpperSteamCave_Song_mvl/mxv
 BYTE   W01
 BYTE   VOL   42*UpperSteamCave_Song_mvl/mxv
 BYTE   W02
 BYTE   VOL   40*UpperSteamCave_Song_mvl/mxv
 BYTE   W01
 BYTE   VOL   40*UpperSteamCave_Song_mvl/mxv
 BYTE   W02
 BYTE   VOL   38*UpperSteamCave_Song_mvl/mxv
 BYTE   W01
 BYTE   VOL   37*UpperSteamCave_Song_mvl/mxv
 BYTE   W02
 BYTE   VOL   36*UpperSteamCave_Song_mvl/mxv
 BYTE   W01
 BYTE   VOL   34*UpperSteamCave_Song_mvl/mxv
 BYTE   W02
 BYTE   VOL   34*UpperSteamCave_Song_mvl/mxv
 BYTE   W01
 BYTE   VOL   32*UpperSteamCave_Song_mvl/mxv
 BYTE   W02
 BYTE   VOL   30*UpperSteamCave_Song_mvl/mxv
 BYTE   W01
 BYTE   VOL   29*UpperSteamCave_Song_mvl/mxv
 BYTE   W02
 BYTE   VOL   25*UpperSteamCave_Song_mvl/mxv
 BYTE   W01
 BYTE   VOL   26*UpperSteamCave_Song_mvl/mxv
 BYTE   W05
//  #11 //039   ----------------------------------------
 BYTE   N48  Cn3
 BYTE   W03
 BYTE   VOL   27*UpperSteamCave_Song_mvl/mxv
 BYTE   W04
 BYTE   VOL   27*UpperSteamCave_Song_mvl/mxv
 BYTE   W02
 BYTE   VOL   27*UpperSteamCave_Song_mvl/mxv
 BYTE   W01
 BYTE   VOL   28*UpperSteamCave_Song_mvl/mxv
 BYTE   W02
 BYTE   VOL   28*UpperSteamCave_Song_mvl/mxv
 BYTE   W03
 BYTE   VOL   29*UpperSteamCave_Song_mvl/mxv
 BYTE   W01
 BYTE   VOL   30*UpperSteamCave_Song_mvl/mxv
 BYTE   W02
 BYTE   VOL   30*UpperSteamCave_Song_mvl/mxv
 BYTE   W01
 BYTE   VOL   31*UpperSteamCave_Song_mvl/mxv
 BYTE   W02
 BYTE   VOL   32*UpperSteamCave_Song_mvl/mxv
 BYTE   W01
 BYTE   VOL   33*UpperSteamCave_Song_mvl/mxv
 BYTE   W02
 BYTE   VOL   34*UpperSteamCave_Song_mvl/mxv
 BYTE   W01
 BYTE   VOL   34*UpperSteamCave_Song_mvl/mxv
 BYTE   W02
 BYTE   VOL   35*UpperSteamCave_Song_mvl/mxv
 BYTE   W01
 BYTE   VOL   37*UpperSteamCave_Song_mvl/mxv
 BYTE   W02
 BYTE   VOL   37*UpperSteamCave_Song_mvl/mxv
 BYTE   W01
 BYTE   VOL   38*UpperSteamCave_Song_mvl/mxv
 BYTE   W02
 BYTE   VOL   40*UpperSteamCave_Song_mvl/mxv
 BYTE   W01
 BYTE   VOL   40*UpperSteamCave_Song_mvl/mxv
 BYTE   W02
 BYTE   VOL   43*UpperSteamCave_Song_mvl/mxv
 BYTE   W01
 BYTE   VOL   43*UpperSteamCave_Song_mvl/mxv
 BYTE   W02
 BYTE   VOL   45*UpperSteamCave_Song_mvl/mxv
 BYTE   W01
 BYTE   VOL   46*UpperSteamCave_Song_mvl/mxv
 BYTE   W02
 BYTE   VOL   48*UpperSteamCave_Song_mvl/mxv
 BYTE   W01
 BYTE   VOL   50*UpperSteamCave_Song_mvl/mxv
 BYTE   W02
 BYTE   VOL   51*UpperSteamCave_Song_mvl/mxv
 BYTE   W03
 BYTE   VOL   52*UpperSteamCave_Song_mvl/mxv
 BYTE   N48  Gn2
 BYTE   W09
 BYTE   VOL   51*UpperSteamCave_Song_mvl/mxv
 BYTE   W03
 BYTE   VOL   51*UpperSteamCave_Song_mvl/mxv
 BYTE   W03
 BYTE   VOL   50*UpperSteamCave_Song_mvl/mxv
 BYTE   W01
 BYTE   VOL   50*UpperSteamCave_Song_mvl/mxv
 BYTE   W02
 BYTE   VOL   49*UpperSteamCave_Song_mvl/mxv
 BYTE   W01
 BYTE   VOL   48*UpperSteamCave_Song_mvl/mxv
 BYTE   W03
 BYTE   VOL   47*UpperSteamCave_Song_mvl/mxv
 BYTE   W02
 BYTE   VOL   46*UpperSteamCave_Song_mvl/mxv
 BYTE   W01
 BYTE   VOL   45*UpperSteamCave_Song_mvl/mxv
 BYTE   W02
 BYTE   VOL   45*UpperSteamCave_Song_mvl/mxv
 BYTE   W01
 BYTE   VOL   44*UpperSteamCave_Song_mvl/mxv
 BYTE   W02
 BYTE   VOL   43*UpperSteamCave_Song_mvl/mxv
 BYTE   W01
 BYTE   VOL   42*UpperSteamCave_Song_mvl/mxv
 BYTE   W02
 BYTE   VOL   41*UpperSteamCave_Song_mvl/mxv
 BYTE   W01
 BYTE   VOL   40*UpperSteamCave_Song_mvl/mxv
 BYTE   W02
 BYTE   VOL   40*UpperSteamCave_Song_mvl/mxv
 BYTE   W01
 BYTE   VOL   38*UpperSteamCave_Song_mvl/mxv
 BYTE   W02
 BYTE   VOL   37*UpperSteamCave_Song_mvl/mxv
 BYTE   W01
 BYTE   VOL   36*UpperSteamCave_Song_mvl/mxv
 BYTE   W02
 BYTE   VOL   34*UpperSteamCave_Song_mvl/mxv
 BYTE   W01
 BYTE   VOL   34*UpperSteamCave_Song_mvl/mxv
 BYTE   W02
 BYTE   VOL   33*UpperSteamCave_Song_mvl/mxv
 BYTE   W01
 BYTE   VOL   31*UpperSteamCave_Song_mvl/mxv
 BYTE   W02
//  #11 //040   ----------------------------------------
 BYTE   VOL   30*UpperSteamCave_Song_mvl/mxv
 BYTE   N48  Cn3
 BYTE   W01
 BYTE   VOL   27*UpperSteamCave_Song_mvl/mxv
 BYTE   W06
 BYTE   VOL   27*UpperSteamCave_Song_mvl/mxv
 BYTE   W03
 BYTE   VOL   28*UpperSteamCave_Song_mvl/mxv
 BYTE   W03
 BYTE   VOL   28*UpperSteamCave_Song_mvl/mxv
 BYTE   W02
 BYTE   VOL   29*UpperSteamCave_Song_mvl/mxv
 BYTE   W01
 BYTE   VOL   29*UpperSteamCave_Song_mvl/mxv
 BYTE   W02
 BYTE   VOL   30*UpperSteamCave_Song_mvl/mxv
 BYTE   W01
 BYTE   VOL   30*UpperSteamCave_Song_mvl/mxv
 BYTE   W02
 BYTE   VOL   31*UpperSteamCave_Song_mvl/mxv
 BYTE   W01
 BYTE   VOL   32*UpperSteamCave_Song_mvl/mxv
 BYTE   W02
 BYTE   VOL   33*UpperSteamCave_Song_mvl/mxv
 BYTE   W01
 BYTE   VOL   34*UpperSteamCave_Song_mvl/mxv
 BYTE   W02
 BYTE   VOL   34*UpperSteamCave_Song_mvl/mxv
 BYTE   W01
 BYTE   VOL   35*UpperSteamCave_Song_mvl/mxv
 BYTE   W02
 BYTE   VOL   37*UpperSteamCave_Song_mvl/mxv
 BYTE   W01
 BYTE   VOL   37*UpperSteamCave_Song_mvl/mxv
 BYTE   W02
 BYTE   VOL   39*UpperSteamCave_Song_mvl/mxv
 BYTE   W01
 BYTE   VOL   40*UpperSteamCave_Song_mvl/mxv
 BYTE   W02
 BYTE   VOL   41*UpperSteamCave_Song_mvl/mxv
 BYTE   W01
 BYTE   VOL   43*UpperSteamCave_Song_mvl/mxv
 BYTE   W02
 BYTE   VOL   45*UpperSteamCave_Song_mvl/mxv
 BYTE   W01
 BYTE   VOL   46*UpperSteamCave_Song_mvl/mxv
 BYTE   W02
 BYTE   VOL   48*UpperSteamCave_Song_mvl/mxv
 BYTE   W01
 BYTE   VOL   50*UpperSteamCave_Song_mvl/mxv
 BYTE   W02
 BYTE   VOL   51*UpperSteamCave_Song_mvl/mxv
 BYTE   W03
 BYTE   N48  As2
 BYTE   W01
 BYTE   VOL   52*UpperSteamCave_Song_mvl/mxv
 BYTE   W08
 BYTE   VOL   51*UpperSteamCave_Song_mvl/mxv
 BYTE   W03
 BYTE   VOL   51*UpperSteamCave_Song_mvl/mxv
 BYTE   W03
 BYTE   VOL   50*UpperSteamCave_Song_mvl/mxv
 BYTE   W01
 BYTE   VOL   50*UpperSteamCave_Song_mvl/mxv
 BYTE   W02
 BYTE   VOL   49*UpperSteamCave_Song_mvl/mxv
 BYTE   W01
 BYTE   VOL   48*UpperSteamCave_Song_mvl/mxv
 BYTE   W02
 BYTE   VOL   47*UpperSteamCave_Song_mvl/mxv
 BYTE   W01
 BYTE   VOL   46*UpperSteamCave_Song_mvl/mxv
 BYTE   W02
 BYTE   VOL   46*UpperSteamCave_Song_mvl/mxv
 BYTE   W01
 BYTE   VOL   45*UpperSteamCave_Song_mvl/mxv
 BYTE   W02
 BYTE   VOL   44*UpperSteamCave_Song_mvl/mxv
 BYTE   W01
 BYTE   VOL   43*UpperSteamCave_Song_mvl/mxv
 BYTE   W02
 BYTE   VOL   43*UpperSteamCave_Song_mvl/mxv
 BYTE   W01
 BYTE   VOL   41*UpperSteamCave_Song_mvl/mxv
 BYTE   W02
 BYTE   VOL   40*UpperSteamCave_Song_mvl/mxv
 BYTE   W01
 BYTE   VOL   39*UpperSteamCave_Song_mvl/mxv
 BYTE   W02
 BYTE   VOL   38*UpperSteamCave_Song_mvl/mxv
 BYTE   W01
 BYTE   VOL   37*UpperSteamCave_Song_mvl/mxv
 BYTE   W02
 BYTE   VOL   36*UpperSteamCave_Song_mvl/mxv
 BYTE   W01
 BYTE   VOL   34*UpperSteamCave_Song_mvl/mxv
 BYTE   W02
 BYTE   VOL   34*UpperSteamCave_Song_mvl/mxv
 BYTE   W01
 BYTE   VOL   32*UpperSteamCave_Song_mvl/mxv
 BYTE   W02
 BYTE   VOL   30*UpperSteamCave_Song_mvl/mxv
 BYTE   W01
 BYTE   VOL   29*UpperSteamCave_Song_mvl/mxv
 BYTE   W02
//  #11 //041   ----------------------------------------
 BYTE   VOL   25*UpperSteamCave_Song_mvl/mxv
 BYTE   N48  Cn3
 BYTE   W06
 BYTE   VOL   26*UpperSteamCave_Song_mvl/mxv
 BYTE   W03
 BYTE   VOL   27*UpperSteamCave_Song_mvl/mxv
 BYTE   W03
 BYTE   VOL   27*UpperSteamCave_Song_mvl/mxv
 BYTE   W01
 BYTE   VOL   27*UpperSteamCave_Song_mvl/mxv
 BYTE   W03
 BYTE   VOL   28*UpperSteamCave_Song_mvl/mxv
 BYTE   W02
 BYTE   VOL   29*UpperSteamCave_Song_mvl/mxv
 BYTE   W01
 BYTE   VOL   29*UpperSteamCave_Song_mvl/mxv
 BYTE   W02
 BYTE   VOL   30*UpperSteamCave_Song_mvl/mxv
 BYTE   W01
 BYTE   VOL   31*UpperSteamCave_Song_mvl/mxv
 BYTE   W02
 BYTE   VOL   32*UpperSteamCave_Song_mvl/mxv
 BYTE   W01
 BYTE   VOL   33*UpperSteamCave_Song_mvl/mxv
 BYTE   W02
 BYTE   VOL   34*UpperSteamCave_Song_mvl/mxv
 BYTE   W01
 BYTE   VOL   34*UpperSteamCave_Song_mvl/mxv
 BYTE   W02
 BYTE   VOL   36*UpperSteamCave_Song_mvl/mxv
 BYTE   W01
 BYTE   VOL   37*UpperSteamCave_Song_mvl/mxv
 BYTE   W02
 BYTE   VOL   38*UpperSteamCave_Song_mvl/mxv
 BYTE   W01
 BYTE   VOL   40*UpperSteamCave_Song_mvl/mxv
 BYTE   W02
 BYTE   VOL   40*UpperSteamCave_Song_mvl/mxv
 BYTE   W01
 BYTE   VOL   43*UpperSteamCave_Song_mvl/mxv
 BYTE   W02
 BYTE   VOL   44*UpperSteamCave_Song_mvl/mxv
 BYTE   W01
 BYTE   VOL   46*UpperSteamCave_Song_mvl/mxv
 BYTE   W02
 BYTE   VOL   47*UpperSteamCave_Song_mvl/mxv
 BYTE   W01
 BYTE   VOL   50*UpperSteamCave_Song_mvl/mxv
 BYTE   W02
 BYTE   VOL   51*UpperSteamCave_Song_mvl/mxv
 BYTE   W01
 BYTE   VOL   52*UpperSteamCave_Song_mvl/mxv
 BYTE   W02
 BYTE   N48  An2
 BYTE   W03
 BYTE   VOL   51*UpperSteamCave_Song_mvl/mxv
 BYTE   W03
 BYTE   VOL   51*UpperSteamCave_Song_mvl/mxv
 BYTE   W01
 BYTE   VOL   50*UpperSteamCave_Song_mvl/mxv
 BYTE   W02
 BYTE   VOL   49*UpperSteamCave_Song_mvl/mxv
 BYTE   W01
 BYTE   VOL   47*UpperSteamCave_Song_mvl/mxv
 BYTE   W02
 BYTE   VOL   46*UpperSteamCave_Song_mvl/mxv
 BYTE   W01
 BYTE   VOL   45*UpperSteamCave_Song_mvl/mxv
 BYTE   W02
 BYTE   VOL   43*UpperSteamCave_Song_mvl/mxv
 BYTE   W01
 BYTE   VOL   42*UpperSteamCave_Song_mvl/mxv
 BYTE   W02
 BYTE   VOL   40*UpperSteamCave_Song_mvl/mxv
 BYTE   W01
 BYTE   VOL   38*UpperSteamCave_Song_mvl/mxv
 BYTE   W02
 BYTE   VOL   36*UpperSteamCave_Song_mvl/mxv
 BYTE   W01
 BYTE   VOL   34*UpperSteamCave_Song_mvl/mxv
 BYTE   W02
 BYTE   VOL   32*UpperSteamCave_Song_mvl/mxv
 BYTE   W01
 BYTE   VOL   30*UpperSteamCave_Song_mvl/mxv
 BYTE   W02
 BYTE   VOL   27*UpperSteamCave_Song_mvl/mxv
 BYTE   W01
 BYTE   VOL   25*UpperSteamCave_Song_mvl/mxv
 BYTE   W02
 BYTE   VOL   23*UpperSteamCave_Song_mvl/mxv
 BYTE   W01
 BYTE   VOL   20*UpperSteamCave_Song_mvl/mxv
 BYTE   W02
 BYTE   VOL   18*UpperSteamCave_Song_mvl/mxv
 BYTE   W01
 BYTE   VOL   16*UpperSteamCave_Song_mvl/mxv
 BYTE   W02
 BYTE   VOL   13*UpperSteamCave_Song_mvl/mxv
 BYTE   W01
 BYTE   VOL   11*UpperSteamCave_Song_mvl/mxv
 BYTE   W02
 BYTE   VOL   10*UpperSteamCave_Song_mvl/mxv
 BYTE   W01
 BYTE   VOL   7*UpperSteamCave_Song_mvl/mxv
 BYTE   W02
 BYTE   VOL   5*UpperSteamCave_Song_mvl/mxv
 BYTE   W01
 BYTE   VOL   3*UpperSteamCave_Song_mvl/mxv
 BYTE   W02
 BYTE   VOL   2*UpperSteamCave_Song_mvl/mxv
 BYTE   W01
 BYTE   VOL   1*UpperSteamCave_Song_mvl/mxv
 BYTE   W02
//  #11 //042   ----------------------------------------
 BYTE   GoTo
  POIN2 Label_016B3636
//  #11 //043   ----------------------------------------
 BYTE   VOL   0*UpperSteamCave_Song_mvl/mxv
 BYTE   FINE

//**************** Track 12 (Midi-Chn.11) ****************//

UpperSteamCave_Song_012:
//  #12 //000   ----------------------------------------
 BYTE   KEYSH   UpperSteamCave_Song_key+0
Label_016B3C5E:
 BYTE   VOICE   54
 BYTE   MODT 0
 BYTE   LFOS 44
 BYTE   VOL   53*UpperSteamCave_Song_mvl/mxv
 BYTE   PAN   c_v+0
 BYTE   VOL   53*UpperSteamCave_Song_mvl/mxv
 BYTE   BEND   c_v+0
 BYTE   W96
//  #12 //001   ----------------------------------------
 BYTE   W96
//  #12 //002   ----------------------------------------
 BYTE   W96
//  #12 //003   ----------------------------------------
 BYTE   W78
 BYTE   W01
 BYTE   VOL   26*UpperSteamCave_Song_mvl/mxv
 BYTE   W12
 BYTE   VOL   27*UpperSteamCave_Song_mvl/mxv
 BYTE   W02
 BYTE   VOL   10*UpperSteamCave_Song_mvl/mxv
 BYTE   W01
 BYTE   VOL   11*UpperSteamCave_Song_mvl/mxv
 BYTE   W02
//  #12 //004   ----------------------------------------
 BYTE   TIE  Dn4  v088
 BYTE   W09
 BYTE   VOL   11*UpperSteamCave_Song_mvl/mxv
 BYTE   W04
 BYTE   VOL   11*UpperSteamCave_Song_mvl/mxv
 BYTE   W03
 BYTE   VOL   11*UpperSteamCave_Song_mvl/mxv
 BYTE   W03
 BYTE   VOL   12*UpperSteamCave_Song_mvl/mxv
 BYTE   W03
 BYTE   VOL   13*UpperSteamCave_Song_mvl/mxv
 BYTE   W02
 BYTE   VOL   13*UpperSteamCave_Song_mvl/mxv
 BYTE   W03
 BYTE   VOL   13*UpperSteamCave_Song_mvl/mxv
 BYTE   W03
 BYTE   VOL   14*UpperSteamCave_Song_mvl/mxv
 BYTE   W01
 BYTE   VOL   14*UpperSteamCave_Song_mvl/mxv
 BYTE   W02
 BYTE   VOL   15*UpperSteamCave_Song_mvl/mxv
 BYTE   W01
 BYTE   VOL   15*UpperSteamCave_Song_mvl/mxv
 BYTE   W02
 BYTE   VOL   15*UpperSteamCave_Song_mvl/mxv
 BYTE   W01
 BYTE   VOL   16*UpperSteamCave_Song_mvl/mxv
 BYTE   W02
 BYTE   VOL   17*UpperSteamCave_Song_mvl/mxv
 BYTE   W01
 BYTE   VOL   17*UpperSteamCave_Song_mvl/mxv
 BYTE   W02
 BYTE   VOL   17*UpperSteamCave_Song_mvl/mxv
 BYTE   W01
 BYTE   VOL   18*UpperSteamCave_Song_mvl/mxv
 BYTE   W02
 BYTE   VOL   19*UpperSteamCave_Song_mvl/mxv
 BYTE   W01
 BYTE   VOL   19*UpperSteamCave_Song_mvl/mxv
 BYTE   W02
 BYTE   VOL   19*UpperSteamCave_Song_mvl/mxv
 BYTE   W01
 BYTE   VOL   20*UpperSteamCave_Song_mvl/mxv
 BYTE   W02
 BYTE   VOL   20*UpperSteamCave_Song_mvl/mxv
 BYTE   W01
 BYTE   VOL   22*UpperSteamCave_Song_mvl/mxv
 BYTE   W02
 BYTE   VOL   22*UpperSteamCave_Song_mvl/mxv
 BYTE   W01
 BYTE   VOL   23*UpperSteamCave_Song_mvl/mxv
 BYTE   W02
 BYTE   VOL   23*UpperSteamCave_Song_mvl/mxv
 BYTE   W01
 BYTE   VOL   24*UpperSteamCave_Song_mvl/mxv
 BYTE   W02
 BYTE   VOL   25*UpperSteamCave_Song_mvl/mxv
 BYTE   W01
 BYTE   VOL   27*UpperSteamCave_Song_mvl/mxv
 BYTE   W02
 BYTE   VOL   27*UpperSteamCave_Song_mvl/mxv
 BYTE   W01
 BYTE   VOL   28*UpperSteamCave_Song_mvl/mxv
 BYTE   W02
 BYTE   VOL   29*UpperSteamCave_Song_mvl/mxv
 BYTE   W01
 BYTE   VOL   29*UpperSteamCave_Song_mvl/mxv
 BYTE   W02
 BYTE   VOL   30*UpperSteamCave_Song_mvl/mxv
 BYTE   W01
 BYTE   VOL   32*UpperSteamCave_Song_mvl/mxv
 BYTE   W02
 BYTE   VOL   33*UpperSteamCave_Song_mvl/mxv
 BYTE   W01
 BYTE   VOL   34*UpperSteamCave_Song_mvl/mxv
 BYTE   W02
 BYTE   VOL   34*UpperSteamCave_Song_mvl/mxv
 BYTE   W01
 BYTE   VOL   36*UpperSteamCave_Song_mvl/mxv
 BYTE   W02
 BYTE   VOL   37*UpperSteamCave_Song_mvl/mxv
 BYTE   W01
 BYTE   VOL   38*UpperSteamCave_Song_mvl/mxv
 BYTE   W02
 BYTE   VOL   40*UpperSteamCave_Song_mvl/mxv
 BYTE   W01
 BYTE   VOL   41*UpperSteamCave_Song_mvl/mxv
 BYTE   W02
 BYTE   VOL   43*UpperSteamCave_Song_mvl/mxv
 BYTE   W01
 BYTE   VOL   44*UpperSteamCave_Song_mvl/mxv
 BYTE   W02
 BYTE   VOL   45*UpperSteamCave_Song_mvl/mxv
 BYTE   W01
 BYTE   VOL   46*UpperSteamCave_Song_mvl/mxv
 BYTE   W02
 BYTE   VOL   49*UpperSteamCave_Song_mvl/mxv
 BYTE   W01
 BYTE   VOL   50*UpperSteamCave_Song_mvl/mxv
 BYTE   W02
 BYTE   VOL   52*UpperSteamCave_Song_mvl/mxv
 BYTE   W01
 BYTE   VOL   53*UpperSteamCave_Song_mvl/mxv
 BYTE   W02
//  #12 //005   ----------------------------------------
 BYTE   VOL   53*UpperSteamCave_Song_mvl/mxv
 BYTE   W10
 BYTE   VOL   52*UpperSteamCave_Song_mvl/mxv
 BYTE   W06
 BYTE   VOL   51*UpperSteamCave_Song_mvl/mxv
 BYTE   W06
 BYTE   VOL   51*UpperSteamCave_Song_mvl/mxv
 BYTE   W03
 BYTE   VOL   50*UpperSteamCave_Song_mvl/mxv
 BYTE   W03
 BYTE   VOL   50*UpperSteamCave_Song_mvl/mxv
 BYTE   W03
 BYTE   VOL   49*UpperSteamCave_Song_mvl/mxv
 BYTE   W03
 BYTE   VOL   48*UpperSteamCave_Song_mvl/mxv
 BYTE   W03
 BYTE   VOL   47*UpperSteamCave_Song_mvl/mxv
 BYTE   W02
 BYTE   VOL   46*UpperSteamCave_Song_mvl/mxv
 BYTE   W03
 BYTE   VOL   46*UpperSteamCave_Song_mvl/mxv
 BYTE   W01
 BYTE   VOL   45*UpperSteamCave_Song_mvl/mxv
 BYTE   W03
 BYTE   VOL   45*UpperSteamCave_Song_mvl/mxv
 BYTE   W02
 BYTE   VOL   44*UpperSteamCave_Song_mvl/mxv
 BYTE   W01
 BYTE   VOL   43*UpperSteamCave_Song_mvl/mxv
 BYTE   W02
 BYTE   VOL   43*UpperSteamCave_Song_mvl/mxv
 BYTE   W03
 BYTE   VOL   42*UpperSteamCave_Song_mvl/mxv
 BYTE   W01
 BYTE   VOL   41*UpperSteamCave_Song_mvl/mxv
 BYTE   W02
 BYTE   VOL   40*UpperSteamCave_Song_mvl/mxv
 BYTE   W01
 BYTE   VOL   40*UpperSteamCave_Song_mvl/mxv
 BYTE   W02
 BYTE   VOL   40*UpperSteamCave_Song_mvl/mxv
 BYTE   W01
 BYTE   VOL   39*UpperSteamCave_Song_mvl/mxv
 BYTE   W02
 BYTE   VOL   38*UpperSteamCave_Song_mvl/mxv
 BYTE   W01
 BYTE   VOL   37*UpperSteamCave_Song_mvl/mxv
 BYTE   W02
 BYTE   VOL   37*UpperSteamCave_Song_mvl/mxv
 BYTE   W01
 BYTE   VOL   37*UpperSteamCave_Song_mvl/mxv
 BYTE   W02
 BYTE   VOL   36*UpperSteamCave_Song_mvl/mxv
 BYTE   W01
 BYTE   VOL   35*UpperSteamCave_Song_mvl/mxv
 BYTE   W02
 BYTE   VOL   34*UpperSteamCave_Song_mvl/mxv
 BYTE   W03
 BYTE   VOL   33*UpperSteamCave_Song_mvl/mxv
 BYTE   W01
 BYTE   VOL   32*UpperSteamCave_Song_mvl/mxv
 BYTE   W02
 BYTE   VOL   32*UpperSteamCave_Song_mvl/mxv
 BYTE   W01
 BYTE   VOL   31*UpperSteamCave_Song_mvl/mxv
 BYTE   W02
 BYTE   VOL   30*UpperSteamCave_Song_mvl/mxv
 BYTE   W01
 BYTE   VOL   29*UpperSteamCave_Song_mvl/mxv
 BYTE   W02
 BYTE   VOL   28*UpperSteamCave_Song_mvl/mxv
 BYTE   W01
 BYTE   VOL   28*UpperSteamCave_Song_mvl/mxv
 BYTE   W02
 BYTE   VOL   27*UpperSteamCave_Song_mvl/mxv
 BYTE   W01
 BYTE   VOL   27*UpperSteamCave_Song_mvl/mxv
 BYTE   W02
 BYTE   VOL   26*UpperSteamCave_Song_mvl/mxv
 BYTE   W01
 BYTE   VOL   25*UpperSteamCave_Song_mvl/mxv
 BYTE   W02
 BYTE   VOL   23*UpperSteamCave_Song_mvl/mxv
 BYTE   W01
 BYTE   VOL   22*UpperSteamCave_Song_mvl/mxv
 BYTE   W02
//  #12 //006   ----------------------------------------
 BYTE   EOT
 BYTE   TIE  An3
 BYTE   W09
 BYTE   VOL   22*UpperSteamCave_Song_mvl/mxv
 BYTE   W07
 BYTE   VOL   22*UpperSteamCave_Song_mvl/mxv
 BYTE   W05
 BYTE   VOL   23*UpperSteamCave_Song_mvl/mxv
 BYTE   W03
 BYTE   VOL   23*UpperSteamCave_Song_mvl/mxv
 BYTE   W04
 BYTE   VOL   23*UpperSteamCave_Song_mvl/mxv
 BYTE   W03
 BYTE   VOL   24*UpperSteamCave_Song_mvl/mxv
 BYTE   W03
 BYTE   VOL   25*UpperSteamCave_Song_mvl/mxv
 BYTE   W02
 BYTE   VOL   26*UpperSteamCave_Song_mvl/mxv
 BYTE   W03
 BYTE   VOL   27*UpperSteamCave_Song_mvl/mxv
 BYTE   W03
 BYTE   VOL   27*UpperSteamCave_Song_mvl/mxv
 BYTE   W03
 BYTE   VOL   27*UpperSteamCave_Song_mvl/mxv
 BYTE   W01
 BYTE   VOL   28*UpperSteamCave_Song_mvl/mxv
 BYTE   W02
 BYTE   VOL   28*UpperSteamCave_Song_mvl/mxv
 BYTE   W01
 BYTE   VOL   29*UpperSteamCave_Song_mvl/mxv
 BYTE   W03
 BYTE   VOL   29*UpperSteamCave_Song_mvl/mxv
 BYTE   W02
 BYTE   VOL   30*UpperSteamCave_Song_mvl/mxv
 BYTE   W01
 BYTE   VOL   30*UpperSteamCave_Song_mvl/mxv
 BYTE   W02
 BYTE   VOL   31*UpperSteamCave_Song_mvl/mxv
 BYTE   W01
 BYTE   VOL   32*UpperSteamCave_Song_mvl/mxv
 BYTE   W02
 BYTE   VOL   32*UpperSteamCave_Song_mvl/mxv
 BYTE   W01
 BYTE   VOL   33*UpperSteamCave_Song_mvl/mxv
 BYTE   W02
 BYTE   VOL   34*UpperSteamCave_Song_mvl/mxv
 BYTE   W01
 BYTE   VOL   34*UpperSteamCave_Song_mvl/mxv
 BYTE   W02
 BYTE   VOL   34*UpperSteamCave_Song_mvl/mxv
 BYTE   W01
 BYTE   VOL   35*UpperSteamCave_Song_mvl/mxv
 BYTE   W02
 BYTE   VOL   36*UpperSteamCave_Song_mvl/mxv
 BYTE   W01
 BYTE   VOL   37*UpperSteamCave_Song_mvl/mxv
 BYTE   W02
 BYTE   VOL   37*UpperSteamCave_Song_mvl/mxv
 BYTE   W01
 BYTE   VOL   37*UpperSteamCave_Song_mvl/mxv
 BYTE   W02
 BYTE   VOL   39*UpperSteamCave_Song_mvl/mxv
 BYTE   W01
 BYTE   VOL   40*UpperSteamCave_Song_mvl/mxv
 BYTE   W02
 BYTE   VOL   40*UpperSteamCave_Song_mvl/mxv
 BYTE   W01
 BYTE   VOL   40*UpperSteamCave_Song_mvl/mxv
 BYTE   W02
 BYTE   VOL   42*UpperSteamCave_Song_mvl/mxv
 BYTE   W01
 BYTE   VOL   43*UpperSteamCave_Song_mvl/mxv
 BYTE   W02
 BYTE   VOL   43*UpperSteamCave_Song_mvl/mxv
 BYTE   W01
 BYTE   VOL   44*UpperSteamCave_Song_mvl/mxv
 BYTE   W02
 BYTE   VOL   45*UpperSteamCave_Song_mvl/mxv
 BYTE   W01
 BYTE   VOL   46*UpperSteamCave_Song_mvl/mxv
 BYTE   W02
 BYTE   VOL   47*UpperSteamCave_Song_mvl/mxv
 BYTE   W01
 BYTE   VOL   48*UpperSteamCave_Song_mvl/mxv
 BYTE   W02
 BYTE   VOL   50*UpperSteamCave_Song_mvl/mxv
 BYTE   W01
 BYTE   VOL   50*UpperSteamCave_Song_mvl/mxv
 BYTE   W02
//  #12 //007   ----------------------------------------
 BYTE   VOL   51*UpperSteamCave_Song_mvl/mxv
 BYTE   W01
 BYTE   VOL   52*UpperSteamCave_Song_mvl/mxv
 BYTE   W02
 BYTE   VOL   52*UpperSteamCave_Song_mvl/mxv
 BYTE   W07
 BYTE   VOL   51*UpperSteamCave_Song_mvl/mxv
 BYTE   W06
 BYTE   VOL   51*UpperSteamCave_Song_mvl/mxv
 BYTE   W03
 BYTE   VOL   50*UpperSteamCave_Song_mvl/mxv
 BYTE   W03
 BYTE   VOL   50*UpperSteamCave_Song_mvl/mxv
 BYTE   W03
 BYTE   VOL   49*UpperSteamCave_Song_mvl/mxv
 BYTE   W03
 BYTE   VOL   48*UpperSteamCave_Song_mvl/mxv
 BYTE   W02
 BYTE   VOL   47*UpperSteamCave_Song_mvl/mxv
 BYTE   W01
 BYTE   VOL   46*UpperSteamCave_Song_mvl/mxv
 BYTE   W03
 BYTE   VOL   46*UpperSteamCave_Song_mvl/mxv
 BYTE   W02
 BYTE   VOL   45*UpperSteamCave_Song_mvl/mxv
 BYTE   W01
 BYTE   VOL   45*UpperSteamCave_Song_mvl/mxv
 BYTE   W02
 BYTE   VOL   44*UpperSteamCave_Song_mvl/mxv
 BYTE   W01
 BYTE   VOL   43*UpperSteamCave_Song_mvl/mxv
 BYTE   W02
 BYTE   VOL   43*UpperSteamCave_Song_mvl/mxv
 BYTE   W01
 BYTE   VOL   42*UpperSteamCave_Song_mvl/mxv
 BYTE   W02
 BYTE   VOL   41*UpperSteamCave_Song_mvl/mxv
 BYTE   W01
 BYTE   VOL   40*UpperSteamCave_Song_mvl/mxv
 BYTE   W02
 BYTE   VOL   40*UpperSteamCave_Song_mvl/mxv
 BYTE   W01
 BYTE   VOL   39*UpperSteamCave_Song_mvl/mxv
 BYTE   W02
 BYTE   VOL   38*UpperSteamCave_Song_mvl/mxv
 BYTE   W01
 BYTE   VOL   37*UpperSteamCave_Song_mvl/mxv
 BYTE   W02
 BYTE   VOL   37*UpperSteamCave_Song_mvl/mxv
 BYTE   W01
 BYTE   VOL   36*UpperSteamCave_Song_mvl/mxv
 BYTE   W02
 BYTE   VOL   34*UpperSteamCave_Song_mvl/mxv
 BYTE   W01
 BYTE   VOL   34*UpperSteamCave_Song_mvl/mxv
 BYTE   W02
 BYTE   VOL   34*UpperSteamCave_Song_mvl/mxv
 BYTE   W01
 BYTE   VOL   32*UpperSteamCave_Song_mvl/mxv
 BYTE   W02
 BYTE   VOL   31*UpperSteamCave_Song_mvl/mxv
 BYTE   W01
 BYTE   VOL   30*UpperSteamCave_Song_mvl/mxv
 BYTE   W02
 BYTE   VOL   29*UpperSteamCave_Song_mvl/mxv
 BYTE   W01
 BYTE   VOL   28*UpperSteamCave_Song_mvl/mxv
 BYTE   W02
 BYTE   VOL   27*UpperSteamCave_Song_mvl/mxv
 BYTE   W01
 BYTE   VOL   27*UpperSteamCave_Song_mvl/mxv
 BYTE   W02
 BYTE   VOL   26*UpperSteamCave_Song_mvl/mxv
 BYTE   W01
 BYTE   VOL   24*UpperSteamCave_Song_mvl/mxv
 BYTE   W02
 BYTE   VOL   23*UpperSteamCave_Song_mvl/mxv
 BYTE   W01
 BYTE   VOL   22*UpperSteamCave_Song_mvl/mxv
 BYTE   W02
 BYTE   VOL   22*UpperSteamCave_Song_mvl/mxv
 BYTE   W01
 BYTE   VOL   20*UpperSteamCave_Song_mvl/mxv
 BYTE   W02
 BYTE   VOL   19*UpperSteamCave_Song_mvl/mxv
 BYTE   W01
 BYTE   VOL   19*UpperSteamCave_Song_mvl/mxv
 BYTE   W02
 BYTE   VOL   18*UpperSteamCave_Song_mvl/mxv
 BYTE   W01
 BYTE   VOL   17*UpperSteamCave_Song_mvl/mxv
 BYTE   W02
 BYTE   VOL   15*UpperSteamCave_Song_mvl/mxv
 BYTE   W01
 BYTE   VOL   15*UpperSteamCave_Song_mvl/mxv
 BYTE   W02
 BYTE   VOL   13*UpperSteamCave_Song_mvl/mxv
 BYTE   W01
 BYTE   VOL   13*UpperSteamCave_Song_mvl/mxv
 BYTE   W02
 BYTE   VOL   11*UpperSteamCave_Song_mvl/mxv
 BYTE   W01
 BYTE   VOL   11*UpperSteamCave_Song_mvl/mxv
 BYTE   W02
//  #12 //008   ----------------------------------------
 BYTE   VOL   10*UpperSteamCave_Song_mvl/mxv
 BYTE   W01
 BYTE   VOL   9*UpperSteamCave_Song_mvl/mxv
 BYTE   W02
 BYTE   VOL   8*UpperSteamCave_Song_mvl/mxv
 BYTE   W01
 BYTE   VOL   7*UpperSteamCave_Song_mvl/mxv
 BYTE   W02
 BYTE   VOL   6*UpperSteamCave_Song_mvl/mxv
 BYTE   W01
 BYTE   VOL   5*UpperSteamCave_Song_mvl/mxv
 BYTE   W02
 BYTE   VOL   5*UpperSteamCave_Song_mvl/mxv
 BYTE   W01
 BYTE   VOL   4*UpperSteamCave_Song_mvl/mxv
 BYTE   W02
 BYTE   VOL   3*UpperSteamCave_Song_mvl/mxv
 BYTE   W01
 BYTE   VOL   3*UpperSteamCave_Song_mvl/mxv
 BYTE   W02
 BYTE   VOL   2*UpperSteamCave_Song_mvl/mxv
 BYTE   W01
 BYTE   VOL   1*UpperSteamCave_Song_mvl/mxv
 BYTE   W02
 BYTE   EOT
 BYTE   VOL   1*UpperSteamCave_Song_mvl/mxv
 BYTE   W01
 BYTE   VOL   0*UpperSteamCave_Song_mvl/mxv
 BYTE   W02
 BYTE   VOL   0*UpperSteamCave_Song_mvl/mxv
 BYTE   W01
 BYTE   VOL   0*UpperSteamCave_Song_mvl/mxv
 BYTE   W02
 BYTE   VOL   0*UpperSteamCave_Song_mvl/mxv
 BYTE   W72
//  #12 //009   ----------------------------------------
 BYTE   W88
 BYTE   VOL   8*UpperSteamCave_Song_mvl/mxv
 BYTE   W08
//  #12 //010   ----------------------------------------
 BYTE   TIE  Dn4
 BYTE   W01
 BYTE   VOL   8*UpperSteamCave_Song_mvl/mxv
 BYTE   W05
 BYTE   VOL   8*UpperSteamCave_Song_mvl/mxv
 BYTE   W04
 BYTE   VOL   9*UpperSteamCave_Song_mvl/mxv
 BYTE   W03
 BYTE   VOL   10*UpperSteamCave_Song_mvl/mxv
 BYTE   W03
 BYTE   VOL   10*UpperSteamCave_Song_mvl/mxv
 BYTE   W03
 BYTE   VOL   10*UpperSteamCave_Song_mvl/mxv
 BYTE   W02
 BYTE   VOL   10*UpperSteamCave_Song_mvl/mxv
 BYTE   W03
 BYTE   VOL   11*UpperSteamCave_Song_mvl/mxv
 BYTE   W01
 BYTE   VOL   11*UpperSteamCave_Song_mvl/mxv
 BYTE   W02
 BYTE   VOL   11*UpperSteamCave_Song_mvl/mxv
 BYTE   W01
 BYTE   VOL   11*UpperSteamCave_Song_mvl/mxv
 BYTE   W02
 BYTE   VOL   12*UpperSteamCave_Song_mvl/mxv
 BYTE   W01
 BYTE   VOL   13*UpperSteamCave_Song_mvl/mxv
 BYTE   W02
 BYTE   VOL   13*UpperSteamCave_Song_mvl/mxv
 BYTE   W03
 BYTE   VOL   13*UpperSteamCave_Song_mvl/mxv
 BYTE   W01
 BYTE   VOL   14*UpperSteamCave_Song_mvl/mxv
 BYTE   W02
 BYTE   VOL   14*UpperSteamCave_Song_mvl/mxv
 BYTE   W01
 BYTE   VOL   15*UpperSteamCave_Song_mvl/mxv
 BYTE   W02
 BYTE   VOL   15*UpperSteamCave_Song_mvl/mxv
 BYTE   W01
 BYTE   VOL   16*UpperSteamCave_Song_mvl/mxv
 BYTE   W02
 BYTE   VOL   17*UpperSteamCave_Song_mvl/mxv
 BYTE   W01
 BYTE   VOL   17*UpperSteamCave_Song_mvl/mxv
 BYTE   W02
 BYTE   VOL   18*UpperSteamCave_Song_mvl/mxv
 BYTE   W01
 BYTE   VOL   18*UpperSteamCave_Song_mvl/mxv
 BYTE   W02
 BYTE   VOL   19*UpperSteamCave_Song_mvl/mxv
 BYTE   W01
 BYTE   VOL   19*UpperSteamCave_Song_mvl/mxv
 BYTE   W02
 BYTE   VOL   20*UpperSteamCave_Song_mvl/mxv
 BYTE   W01
 BYTE   VOL   21*UpperSteamCave_Song_mvl/mxv
 BYTE   W02
 BYTE   VOL   22*UpperSteamCave_Song_mvl/mxv
 BYTE   W01
 BYTE   VOL   22*UpperSteamCave_Song_mvl/mxv
 BYTE   W02
 BYTE   VOL   23*UpperSteamCave_Song_mvl/mxv
 BYTE   W01
 BYTE   VOL   23*UpperSteamCave_Song_mvl/mxv
 BYTE   W02
 BYTE   VOL   25*UpperSteamCave_Song_mvl/mxv
 BYTE   W01
 BYTE   VOL   27*UpperSteamCave_Song_mvl/mxv
 BYTE   W02
 BYTE   VOL   27*UpperSteamCave_Song_mvl/mxv
 BYTE   W01
 BYTE   VOL   28*UpperSteamCave_Song_mvl/mxv
 BYTE   W02
 BYTE   VOL   29*UpperSteamCave_Song_mvl/mxv
 BYTE   W01
 BYTE   VOL   30*UpperSteamCave_Song_mvl/mxv
 BYTE   W02
 BYTE   VOL   31*UpperSteamCave_Song_mvl/mxv
 BYTE   W01
 BYTE   VOL   32*UpperSteamCave_Song_mvl/mxv
 BYTE   W02
 BYTE   VOL   34*UpperSteamCave_Song_mvl/mxv
 BYTE   W01
 BYTE   VOL   34*UpperSteamCave_Song_mvl/mxv
 BYTE   W02
 BYTE   VOL   35*UpperSteamCave_Song_mvl/mxv
 BYTE   W01
 BYTE   VOL   37*UpperSteamCave_Song_mvl/mxv
 BYTE   W02
 BYTE   VOL   38*UpperSteamCave_Song_mvl/mxv
 BYTE   W01
 BYTE   VOL   40*UpperSteamCave_Song_mvl/mxv
 BYTE   W02
 BYTE   VOL   40*UpperSteamCave_Song_mvl/mxv
 BYTE   W01
 BYTE   VOL   42*UpperSteamCave_Song_mvl/mxv
 BYTE   W02
 BYTE   VOL   43*UpperSteamCave_Song_mvl/mxv
 BYTE   W01
 BYTE   VOL   45*UpperSteamCave_Song_mvl/mxv
 BYTE   W02
 BYTE   VOL   46*UpperSteamCave_Song_mvl/mxv
 BYTE   W01
 BYTE   VOL   48*UpperSteamCave_Song_mvl/mxv
 BYTE   W02
 BYTE   VOL   50*UpperSteamCave_Song_mvl/mxv
 BYTE   W01
 BYTE   VOL   51*UpperSteamCave_Song_mvl/mxv
 BYTE   W02
//  #12 //011   ----------------------------------------
 BYTE   W04
 BYTE   VOL   52*UpperSteamCave_Song_mvl/mxv
 BYTE   W12
 BYTE   VOL   51*UpperSteamCave_Song_mvl/mxv
 BYTE   W06
 BYTE   VOL   51*UpperSteamCave_Song_mvl/mxv
 BYTE   W03
 BYTE   VOL   50*UpperSteamCave_Song_mvl/mxv
 BYTE   W03
 BYTE   VOL   50*UpperSteamCave_Song_mvl/mxv
 BYTE   W03
 BYTE   VOL   49*UpperSteamCave_Song_mvl/mxv
 BYTE   W03
 BYTE   VOL   48*UpperSteamCave_Song_mvl/mxv
 BYTE   W03
 BYTE   VOL   47*UpperSteamCave_Song_mvl/mxv
 BYTE   W02
 BYTE   VOL   46*UpperSteamCave_Song_mvl/mxv
 BYTE   W01
 BYTE   VOL   46*UpperSteamCave_Song_mvl/mxv
 BYTE   W03
 BYTE   VOL   45*UpperSteamCave_Song_mvl/mxv
 BYTE   W02
 BYTE   VOL   45*UpperSteamCave_Song_mvl/mxv
 BYTE   W01
 BYTE   VOL   44*UpperSteamCave_Song_mvl/mxv
 BYTE   W02
 BYTE   VOL   43*UpperSteamCave_Song_mvl/mxv
 BYTE   W01
 BYTE   VOL   43*UpperSteamCave_Song_mvl/mxv
 BYTE   W03
 BYTE   VOL   42*UpperSteamCave_Song_mvl/mxv
 BYTE   W02
 BYTE   VOL   41*UpperSteamCave_Song_mvl/mxv
 BYTE   W01
 BYTE   VOL   40*UpperSteamCave_Song_mvl/mxv
 BYTE   W02
 BYTE   VOL   40*UpperSteamCave_Song_mvl/mxv
 BYTE   W01
 BYTE   VOL   39*UpperSteamCave_Song_mvl/mxv
 BYTE   W02
 BYTE   VOL   38*UpperSteamCave_Song_mvl/mxv
 BYTE   W01
 BYTE   VOL   37*UpperSteamCave_Song_mvl/mxv
 BYTE   W02
 BYTE   VOL   37*UpperSteamCave_Song_mvl/mxv
 BYTE   W01
 BYTE   VOL   37*UpperSteamCave_Song_mvl/mxv
 BYTE   W02
 BYTE   VOL   35*UpperSteamCave_Song_mvl/mxv
 BYTE   W01
 BYTE   VOL   34*UpperSteamCave_Song_mvl/mxv
 BYTE   W02
 BYTE   VOL   34*UpperSteamCave_Song_mvl/mxv
 BYTE   W01
 BYTE   VOL   34*UpperSteamCave_Song_mvl/mxv
 BYTE   W02
 BYTE   VOL   32*UpperSteamCave_Song_mvl/mxv
 BYTE   W01
 BYTE   VOL   32*UpperSteamCave_Song_mvl/mxv
 BYTE   W02
 BYTE   VOL   30*UpperSteamCave_Song_mvl/mxv
 BYTE   W01
 BYTE   VOL   30*UpperSteamCave_Song_mvl/mxv
 BYTE   W02
 BYTE   VOL   29*UpperSteamCave_Song_mvl/mxv
 BYTE   W01
 BYTE   VOL   28*UpperSteamCave_Song_mvl/mxv
 BYTE   W02
 BYTE   VOL   27*UpperSteamCave_Song_mvl/mxv
 BYTE   W01
 BYTE   VOL   27*UpperSteamCave_Song_mvl/mxv
 BYTE   W02
 BYTE   VOL   26*UpperSteamCave_Song_mvl/mxv
 BYTE   W01
 BYTE   VOL   25*UpperSteamCave_Song_mvl/mxv
 BYTE   W02
 BYTE   VOL   23*UpperSteamCave_Song_mvl/mxv
 BYTE   W01
 BYTE   VOL   23*UpperSteamCave_Song_mvl/mxv
 BYTE   W02
 BYTE   VOL   22*UpperSteamCave_Song_mvl/mxv
 BYTE   W01
 BYTE   VOL   22*UpperSteamCave_Song_mvl/mxv
 BYTE   W02
 BYTE   VOL   20*UpperSteamCave_Song_mvl/mxv
 BYTE   W01
 BYTE   VOL   19*UpperSteamCave_Song_mvl/mxv
 BYTE   W02
//  #12 //012   ----------------------------------------
 BYTE   EOT
 BYTE   VOL   19*UpperSteamCave_Song_mvl/mxv
 BYTE   TIE  An3
 BYTE   W01
 BYTE   VOL   18*UpperSteamCave_Song_mvl/mxv
 BYTE   W02
 BYTE   VOL   15*UpperSteamCave_Song_mvl/mxv
 BYTE   W09
 BYTE   VOL   16*UpperSteamCave_Song_mvl/mxv
 BYTE   W06
 BYTE   VOL   17*UpperSteamCave_Song_mvl/mxv
 BYTE   W04
 BYTE   VOL   17*UpperSteamCave_Song_mvl/mxv
 BYTE   W03
 BYTE   VOL   17*UpperSteamCave_Song_mvl/mxv
 BYTE   W03
 BYTE   VOL   18*UpperSteamCave_Song_mvl/mxv
 BYTE   W02
 BYTE   VOL   18*UpperSteamCave_Song_mvl/mxv
 BYTE   W03
 BYTE   VOL   19*UpperSteamCave_Song_mvl/mxv
 BYTE   W01
 BYTE   VOL   19*UpperSteamCave_Song_mvl/mxv
 BYTE   W03
 BYTE   VOL   19*UpperSteamCave_Song_mvl/mxv
 BYTE   W03
 BYTE   VOL   20*UpperSteamCave_Song_mvl/mxv
 BYTE   W02
 BYTE   VOL   20*UpperSteamCave_Song_mvl/mxv
 BYTE   W01
 BYTE   VOL   21*UpperSteamCave_Song_mvl/mxv
 BYTE   W02
 BYTE   VOL   22*UpperSteamCave_Song_mvl/mxv
 BYTE   W01
 BYTE   VOL   22*UpperSteamCave_Song_mvl/mxv
 BYTE   W02
 BYTE   VOL   22*UpperSteamCave_Song_mvl/mxv
 BYTE   W01
 BYTE   VOL   23*UpperSteamCave_Song_mvl/mxv
 BYTE   W02
 BYTE   VOL   23*UpperSteamCave_Song_mvl/mxv
 BYTE   W01
 BYTE   VOL   23*UpperSteamCave_Song_mvl/mxv
 BYTE   W02
 BYTE   VOL   24*UpperSteamCave_Song_mvl/mxv
 BYTE   W01
 BYTE   VOL   25*UpperSteamCave_Song_mvl/mxv
 BYTE   W02
 BYTE   VOL   27*UpperSteamCave_Song_mvl/mxv
 BYTE   W03
 BYTE   VOL   27*UpperSteamCave_Song_mvl/mxv
 BYTE   W01
 BYTE   VOL   28*UpperSteamCave_Song_mvl/mxv
 BYTE   W02
 BYTE   VOL   28*UpperSteamCave_Song_mvl/mxv
 BYTE   W01
 BYTE   VOL   29*UpperSteamCave_Song_mvl/mxv
 BYTE   W02
 BYTE   VOL   30*UpperSteamCave_Song_mvl/mxv
 BYTE   W01
 BYTE   VOL   31*UpperSteamCave_Song_mvl/mxv
 BYTE   W02
 BYTE   VOL   32*UpperSteamCave_Song_mvl/mxv
 BYTE   W01
 BYTE   VOL   33*UpperSteamCave_Song_mvl/mxv
 BYTE   W02
 BYTE   VOL   34*UpperSteamCave_Song_mvl/mxv
 BYTE   W01
 BYTE   VOL   34*UpperSteamCave_Song_mvl/mxv
 BYTE   W02
 BYTE   VOL   35*UpperSteamCave_Song_mvl/mxv
 BYTE   W01
 BYTE   VOL   37*UpperSteamCave_Song_mvl/mxv
 BYTE   W02
 BYTE   VOL   37*UpperSteamCave_Song_mvl/mxv
 BYTE   W01
 BYTE   VOL   38*UpperSteamCave_Song_mvl/mxv
 BYTE   W02
 BYTE   VOL   40*UpperSteamCave_Song_mvl/mxv
 BYTE   W01
 BYTE   VOL   40*UpperSteamCave_Song_mvl/mxv
 BYTE   W02
 BYTE   VOL   41*UpperSteamCave_Song_mvl/mxv
 BYTE   W01
 BYTE   VOL   43*UpperSteamCave_Song_mvl/mxv
 BYTE   W02
 BYTE   VOL   44*UpperSteamCave_Song_mvl/mxv
 BYTE   W01
 BYTE   VOL   45*UpperSteamCave_Song_mvl/mxv
 BYTE   W02
 BYTE   VOL   46*UpperSteamCave_Song_mvl/mxv
 BYTE   W01
 BYTE   VOL   48*UpperSteamCave_Song_mvl/mxv
 BYTE   W02
 BYTE   VOL   50*UpperSteamCave_Song_mvl/mxv
 BYTE   W01
 BYTE   VOL   51*UpperSteamCave_Song_mvl/mxv
 BYTE   W02
//  #12 //013   ----------------------------------------
 BYTE   VOL   53*UpperSteamCave_Song_mvl/mxv
 BYTE   W10
 BYTE   VOL   52*UpperSteamCave_Song_mvl/mxv
 BYTE   W05
 BYTE   VOL   51*UpperSteamCave_Song_mvl/mxv
 BYTE   W03
 BYTE   VOL   51*UpperSteamCave_Song_mvl/mxv
 BYTE   W03
 BYTE   VOL   50*UpperSteamCave_Song_mvl/mxv
 BYTE   W01
 BYTE   VOL   50*UpperSteamCave_Song_mvl/mxv
 BYTE   W03
 BYTE   VOL   49*UpperSteamCave_Song_mvl/mxv
 BYTE   W02
 BYTE   VOL   48*UpperSteamCave_Song_mvl/mxv
 BYTE   W01
 BYTE   VOL   47*UpperSteamCave_Song_mvl/mxv
 BYTE   W03
 BYTE   VOL   46*UpperSteamCave_Song_mvl/mxv
 BYTE   W02
 BYTE   VOL   46*UpperSteamCave_Song_mvl/mxv
 BYTE   W01
 BYTE   VOL   45*UpperSteamCave_Song_mvl/mxv
 BYTE   W02
 BYTE   VOL   45*UpperSteamCave_Song_mvl/mxv
 BYTE   W01
 BYTE   VOL   43*UpperSteamCave_Song_mvl/mxv
 BYTE   W02
 BYTE   VOL   43*UpperSteamCave_Song_mvl/mxv
 BYTE   W03
 BYTE   VOL   41*UpperSteamCave_Song_mvl/mxv
 BYTE   W01
 BYTE   VOL   40*UpperSteamCave_Song_mvl/mxv
 BYTE   W02
 BYTE   VOL   40*UpperSteamCave_Song_mvl/mxv
 BYTE   W01
 BYTE   VOL   39*UpperSteamCave_Song_mvl/mxv
 BYTE   W02
 BYTE   VOL   38*UpperSteamCave_Song_mvl/mxv
 BYTE   W01
 BYTE   VOL   37*UpperSteamCave_Song_mvl/mxv
 BYTE   W02
 BYTE   VOL   37*UpperSteamCave_Song_mvl/mxv
 BYTE   W01
 BYTE   VOL   36*UpperSteamCave_Song_mvl/mxv
 BYTE   W02
 BYTE   VOL   34*UpperSteamCave_Song_mvl/mxv
 BYTE   W01
 BYTE   VOL   34*UpperSteamCave_Song_mvl/mxv
 BYTE   W02
 BYTE   VOL   33*UpperSteamCave_Song_mvl/mxv
 BYTE   W01
 BYTE   VOL   32*UpperSteamCave_Song_mvl/mxv
 BYTE   W02
 BYTE   VOL   31*UpperSteamCave_Song_mvl/mxv
 BYTE   W01
 BYTE   VOL   30*UpperSteamCave_Song_mvl/mxv
 BYTE   W02
 BYTE   VOL   29*UpperSteamCave_Song_mvl/mxv
 BYTE   W01
 BYTE   VOL   28*UpperSteamCave_Song_mvl/mxv
 BYTE   W02
 BYTE   VOL   27*UpperSteamCave_Song_mvl/mxv
 BYTE   W01
 BYTE   VOL   27*UpperSteamCave_Song_mvl/mxv
 BYTE   W02
 BYTE   VOL   25*UpperSteamCave_Song_mvl/mxv
 BYTE   W01
 BYTE   VOL   23*UpperSteamCave_Song_mvl/mxv
 BYTE   W02
 BYTE   VOL   22*UpperSteamCave_Song_mvl/mxv
 BYTE   W01
 BYTE   VOL   22*UpperSteamCave_Song_mvl/mxv
 BYTE   W02
 BYTE   VOL   20*UpperSteamCave_Song_mvl/mxv
 BYTE   W01
 BYTE   VOL   19*UpperSteamCave_Song_mvl/mxv
 BYTE   W02
 BYTE   VOL   19*UpperSteamCave_Song_mvl/mxv
 BYTE   W01
 BYTE   VOL   17*UpperSteamCave_Song_mvl/mxv
 BYTE   W02
 BYTE   VOL   17*UpperSteamCave_Song_mvl/mxv
 BYTE   W01
 BYTE   VOL   15*UpperSteamCave_Song_mvl/mxv
 BYTE   W02
 BYTE   VOL   14*UpperSteamCave_Song_mvl/mxv
 BYTE   W01
 BYTE   VOL   13*UpperSteamCave_Song_mvl/mxv
 BYTE   W02
 BYTE   VOL   13*UpperSteamCave_Song_mvl/mxv
 BYTE   W01
 BYTE   VOL   11*UpperSteamCave_Song_mvl/mxv
 BYTE   W02
 BYTE   VOL   10*UpperSteamCave_Song_mvl/mxv
 BYTE   W01
 BYTE   VOL   10*UpperSteamCave_Song_mvl/mxv
 BYTE   W02
 BYTE   VOL   8*UpperSteamCave_Song_mvl/mxv
 BYTE   W01
 BYTE   VOL   8*UpperSteamCave_Song_mvl/mxv
 BYTE   W02
//  #12 //014   ----------------------------------------
 BYTE   VOL   6*UpperSteamCave_Song_mvl/mxv
 BYTE   W01
 BYTE   VOL   6*UpperSteamCave_Song_mvl/mxv
 BYTE   W02
 BYTE   VOL   5*UpperSteamCave_Song_mvl/mxv
 BYTE   W01
 BYTE   VOL   4*UpperSteamCave_Song_mvl/mxv
 BYTE   W02
 BYTE   VOL   3*UpperSteamCave_Song_mvl/mxv
 BYTE   W01
 BYTE   VOL   3*UpperSteamCave_Song_mvl/mxv
 BYTE   W02
 BYTE   VOL   2*UpperSteamCave_Song_mvl/mxv
 BYTE   W01
 BYTE   VOL   1*UpperSteamCave_Song_mvl/mxv
 BYTE   W02
 BYTE   VOL   1*UpperSteamCave_Song_mvl/mxv
 BYTE   W01
 BYTE   VOL   1*UpperSteamCave_Song_mvl/mxv
 BYTE   W02
 BYTE   VOL   0*UpperSteamCave_Song_mvl/mxv
 BYTE   W01
 BYTE   EOT
 BYTE   VOL   0*UpperSteamCave_Song_mvl/mxv
 BYTE   W02
 BYTE   VOL   0*UpperSteamCave_Song_mvl/mxv
 BYTE   W78
//  #12 //015   ----------------------------------------
 BYTE   W96
//  #12 //016   ----------------------------------------
 BYTE   W96
//  #12 //017   ----------------------------------------
 BYTE   W96
//  #12 //018   ----------------------------------------
 BYTE   W96
//  #12 //019   ----------------------------------------
 BYTE   W96
//  #12 //020   ----------------------------------------
 BYTE   W96
//  #12 //021   ----------------------------------------
 BYTE   W96
//  #12 //022   ----------------------------------------
 BYTE   W96
//  #12 //023   ----------------------------------------
 BYTE   W96
//  #12 //024   ----------------------------------------
 BYTE   W96
//  #12 //025   ----------------------------------------
 BYTE   W96
//  #12 //026   ----------------------------------------
 BYTE   W96
//  #12 //027   ----------------------------------------
 BYTE   W96
//  #12 //028   ----------------------------------------
 BYTE   W96
//  #12 //029   ----------------------------------------
 BYTE   W96
//  #12 //030   ----------------------------------------
 BYTE   W96
//  #12 //031   ----------------------------------------
 BYTE   W96
//  #12 //032   ----------------------------------------
 BYTE   W96
//  #12 //033   ----------------------------------------
 BYTE   W96
//  #12 //034   ----------------------------------------
 BYTE   W96
//  #12 //035   ----------------------------------------
 BYTE   W96
//  #12 //036   ----------------------------------------
 BYTE   W96
//  #12 //037   ----------------------------------------
 BYTE   W96
//  #12 //038   ----------------------------------------
 BYTE   W96
//  #12 //039   ----------------------------------------
 BYTE   W96
//  #12 //040   ----------------------------------------
 BYTE   W96
//  #12 //041   ----------------------------------------
 BYTE   W96
//  #12 //042   ----------------------------------------
 BYTE   GoTo
  POIN2 Label_016B3C5E
 BYTE   FINE

//**************** Track 13 (Midi-Chn.12) ****************//

UpperSteamCave_Song_013:
//  #13 //000   ----------------------------------------
 BYTE   KEYSH   UpperSteamCave_Song_key+0
Label_016B3FFA:
 BYTE   VOICE   116
 BYTE   MODT 0
 BYTE   LFOS 44
 BYTE   VOL   34*UpperSteamCave_Song_mvl/mxv
 BYTE   PAN   c_v+0
 BYTE   VOL   34*UpperSteamCave_Song_mvl/mxv
 BYTE   BEND   c_v+0
 BYTE   W96
//  #13 //001   ----------------------------------------
 BYTE   W96
//  #13 //002   ----------------------------------------
Label_016B400A:
 BYTE   N03  Cs3  v124
 BYTE   W12
 BYTE   En3  v024
 BYTE   W06
 BYTE   Cs3  v092
 BYTE   W06
 BYTE   En3  v112
 BYTE   W12
 BYTE   Ds3  v044
 BYTE   W06
 BYTE   Dn3  v068
 BYTE   W12
 BYTE   Gn3  v032
 BYTE   W06
 BYTE   Cs3  v064
 BYTE   W24
 BYTE   En3  v104
 BYTE   W06
 BYTE   Dn3  v052
 BYTE   W06
 BYTE   PEND 
//  #13 //003   ----------------------------------------
Label_016B402A:
 BYTE   N03  Cs3  v112
 BYTE   W06
 BYTE   Ds3  v036
 BYTE   W06
 BYTE   Ds3  v040
 BYTE   W06
 BYTE   Cs3  v080
 BYTE   W06
 BYTE   En3  v112
 BYTE   W06
 BYTE   Dn3  v048
 BYTE   W06
 BYTE   Ds3  v060
 BYTE   W06
 BYTE   Cs3  v112
 BYTE   W12
 BYTE   Gn3  v048
 BYTE   W06
 BYTE   Dn3  v092
 BYTE   W06
 BYTE   Fn3  v088
 BYTE   W03
 BYTE   Gn3  v092
 BYTE   W03
 BYTE   Dn3  v104
 BYTE   N03  En3  v052
 BYTE   W06
 BYTE   Gn3  v092
 BYTE   W06
 BYTE   Dn3  v068
 BYTE   W06
 BYTE   En3  v044
 BYTE   W06
 BYTE   PEND 
//  #13 //004   ----------------------------------------
Label_016B405F:
 BYTE   N03  Cs3  v116
 BYTE   W12
 BYTE   En3  v036
 BYTE   W06
 BYTE   Cs3  v076
 BYTE   W06
 BYTE   Gn3  v116
 BYTE   W06
 BYTE   En3  v052
 BYTE   W06
 BYTE   Dn3  v076
 BYTE   W06
 BYTE   En3  v104
 BYTE   W12
 BYTE   Dn3  v068
 BYTE   W06
 BYTE   Gn3  v112
 BYTE   W24
 BYTE   En3  v092
 BYTE   W06
 BYTE   Gn3  v088
 BYTE   W06
 BYTE   PEND 
//  #13 //005   ----------------------------------------
Label_016B4082:
 BYTE   N03  Cs3  v112
 BYTE   W06
 BYTE   Cs3  v048
 BYTE   W12
 BYTE   Fn3  v112
 BYTE   W12
 BYTE   Dn3  v052
 BYTE   W06
 BYTE   Gn3  v100
 BYTE   W06
 BYTE   En3  v112
 BYTE   W12
 BYTE   Cs3  v088
 BYTE   W06
 BYTE   Dn3  v108
 BYTE   W06
 BYTE   Gs3  v112
 BYTE   W12
 BYTE   Gn3  v068
 BYTE   W06
 BYTE   Dn3  v112
 BYTE   W12
 BYTE   PEND 
//  #13 //006   ----------------------------------------
 BYTE   PATT
  POIN2 Label_016B400A
//  #13 //007   ----------------------------------------
 BYTE   PATT
  POIN2 Label_016B402A
//  #13 //008   ----------------------------------------
 BYTE   PATT
  POIN2 Label_016B405F
//  #13 //009   ----------------------------------------
 BYTE   PATT
  POIN2 Label_016B4082
//  #13 //010   ----------------------------------------
 BYTE   PATT
  POIN2 Label_016B400A
//  #13 //011   ----------------------------------------
 BYTE   PATT
  POIN2 Label_016B402A
//  #13 //012   ----------------------------------------
 BYTE   PATT
  POIN2 Label_016B405F
//  #13 //013   ----------------------------------------
 BYTE   PATT
  POIN2 Label_016B4082
//  #13 //014   ----------------------------------------
 BYTE   PATT
  POIN2 Label_016B400A
//  #13 //015   ----------------------------------------
 BYTE   PATT
  POIN2 Label_016B402A
//  #13 //016   ----------------------------------------
 BYTE   PATT
  POIN2 Label_016B405F
//  #13 //017   ----------------------------------------
 BYTE   PATT
  POIN2 Label_016B4082
//  #13 //018   ----------------------------------------
 BYTE   PATT
  POIN2 Label_016B400A
//  #13 //019   ----------------------------------------
 BYTE   PATT
  POIN2 Label_016B402A
//  #13 //020   ----------------------------------------
 BYTE   PATT
  POIN2 Label_016B405F
//  #13 //021   ----------------------------------------
 BYTE   PATT
  POIN2 Label_016B4082
//  #13 //022   ----------------------------------------
 BYTE   PATT
  POIN2 Label_016B400A
//  #13 //023   ----------------------------------------
 BYTE   PATT
  POIN2 Label_016B402A
//  #13 //024   ----------------------------------------
 BYTE   PATT
  POIN2 Label_016B405F
//  #13 //025   ----------------------------------------
 BYTE   PATT
  POIN2 Label_016B4082
//  #13 //026   ----------------------------------------
 BYTE   PATT
  POIN2 Label_016B400A
//  #13 //027   ----------------------------------------
 BYTE   PATT
  POIN2 Label_016B402A
//  #13 //028   ----------------------------------------
 BYTE   PATT
  POIN2 Label_016B405F
//  #13 //029   ----------------------------------------
 BYTE   PATT
  POIN2 Label_016B4082
//  #13 //030   ----------------------------------------
 BYTE   PATT
  POIN2 Label_016B400A
//  #13 //031   ----------------------------------------
 BYTE   PATT
  POIN2 Label_016B402A
//  #13 //032   ----------------------------------------
 BYTE   PATT
  POIN2 Label_016B405F
//  #13 //033   ----------------------------------------
 BYTE   PATT
  POIN2 Label_016B4082
//  #13 //034   ----------------------------------------
 BYTE   PATT
  POIN2 Label_016B400A
//  #13 //035   ----------------------------------------
 BYTE   PATT
  POIN2 Label_016B402A
//  #13 //036   ----------------------------------------
 BYTE   PATT
  POIN2 Label_016B405F
//  #13 //037   ----------------------------------------
 BYTE   PATT
  POIN2 Label_016B4082
//  #13 //038   ----------------------------------------
 BYTE   PATT
  POIN2 Label_016B400A
//  #13 //039   ----------------------------------------
 BYTE   PATT
  POIN2 Label_016B402A
//  #13 //040   ----------------------------------------
 BYTE   PATT
  POIN2 Label_016B405F
//  #13 //041   ----------------------------------------
 BYTE   PATT
  POIN2 Label_016B4082
//  #13 //042   ----------------------------------------
 BYTE   GoTo
  POIN2 Label_016B3FFA
 BYTE   FINE

//**************** Track 14 (Midi-Chn.13) ****************//

UpperSteamCave_Song_014:
//  #14 //000   ----------------------------------------
 BYTE   KEYSH   UpperSteamCave_Song_key+0
Label_016B4162:
 BYTE   VOICE   127
 BYTE   MODT 0
 BYTE   LFOS 44
 BYTE   VOL   37*UpperSteamCave_Song_mvl/mxv
 BYTE   PAN   c_v+0
 BYTE   VOL   37*UpperSteamCave_Song_mvl/mxv
 BYTE   BEND   c_v+0
 BYTE   W96
//  #14 //001   ----------------------------------------
 BYTE   W96
//  #14 //002   ----------------------------------------
 BYTE   W96
//  #14 //003   ----------------------------------------
 BYTE   W96
//  #14 //004   ----------------------------------------
 BYTE   W96
//  #14 //005   ----------------------------------------
 BYTE   W96
//  #14 //006   ----------------------------------------
 BYTE   W96
//  #14 //007   ----------------------------------------
 BYTE   W96
//  #14 //008   ----------------------------------------
 BYTE   W96
//  #14 //009   ----------------------------------------
 BYTE   W96
//  #14 //010   ----------------------------------------
 BYTE   W96
//  #14 //011   ----------------------------------------
 BYTE   W96
//  #14 //012   ----------------------------------------
 BYTE   W96
//  #14 //013   ----------------------------------------
 BYTE   W60
 BYTE   N06  Cn1  v127
 BYTE   W06
 BYTE   N06
 BYTE   W12
 BYTE   N06
 BYTE   W06
 BYTE   N06
 BYTE   W12
//  #14 //014   ----------------------------------------
 BYTE   N06
 BYTE   N06  Fs5
 BYTE   W12
 BYTE   Cn1
 BYTE   W12
 BYTE   En1
 BYTE   W12
 BYTE   Cn1
 BYTE   W24
 BYTE   N06
 BYTE   W12
 BYTE   En1
 BYTE   W24
//  #14 //015   ----------------------------------------
Label_016B4196:
 BYTE   N06  Cn1  v127
 BYTE   W12
 BYTE   N06
 BYTE   W12
 BYTE   En1
 BYTE   W12
 BYTE   Cn1
 BYTE   W24
 BYTE   N06
 BYTE   W12
 BYTE   En1
 BYTE   W24
 BYTE   PEND 
//  #14 //016   ----------------------------------------
 BYTE   PATT
  POIN2 Label_016B4196
//  #14 //017   ----------------------------------------
 BYTE   N06  Cn1  v127
 BYTE   W12
 BYTE   N06
 BYTE   W12
 BYTE   En1
 BYTE   W12
 BYTE   Cn1
 BYTE   W24
 BYTE   N06
 BYTE   W12
 BYTE   En1
 BYTE   W06
 BYTE   N06
 BYTE   W06
 BYTE   Cn1
 BYTE   W12
//  #14 //018   ----------------------------------------
 BYTE   PATT
  POIN2 Label_016B4196
//  #14 //019   ----------------------------------------
 BYTE   PATT
  POIN2 Label_016B4196
//  #14 //020   ----------------------------------------
 BYTE   PATT
  POIN2 Label_016B4196
//  #14 //021   ----------------------------------------
Label_016B41CB:
 BYTE   N06  Cn1  v127
 BYTE   W12
 BYTE   N06
 BYTE   W12
 BYTE   En1
 BYTE   W12
 BYTE   Cn1
 BYTE   W24
 BYTE   N06
 BYTE   W12
 BYTE   En1
 BYTE   W12
 BYTE   Cn1
 BYTE   W12
 BYTE   PEND 
//  #14 //022   ----------------------------------------
 BYTE   PATT
  POIN2 Label_016B4196
//  #14 //023   ----------------------------------------
 BYTE   PATT
  POIN2 Label_016B4196
//  #14 //024   ----------------------------------------
 BYTE   PATT
  POIN2 Label_016B4196
//  #14 //025   ----------------------------------------
Label_016B41EB:
 BYTE   N06  Cn1  v127
 BYTE   W12
 BYTE   N06
 BYTE   W12
 BYTE   En1
 BYTE   W12
 BYTE   Cn1
 BYTE   W06
 BYTE   En1
 BYTE   W12
 BYTE   N06
 BYTE   W06
 BYTE   Cn1
 BYTE   W06
 BYTE   En1
 BYTE   W12
 BYTE   Cn1
 BYTE   W06
 BYTE   En1
 BYTE   W06
 BYTE   N06
 BYTE   W06
 BYTE   PEND 
//  #14 //026   ----------------------------------------
 BYTE   Cn1
 BYTE   N06  Fs5
 BYTE   W24
 BYTE   En1
 BYTE   W12
 BYTE   Cn1
 BYTE   W24
 BYTE   N06
 BYTE   W12
 BYTE   En1
 BYTE   W24
//  #14 //027   ----------------------------------------
Label_016B4210:
 BYTE   N06  Cn1  v127
 BYTE   W12
 BYTE   N06
 BYTE   W12
 BYTE   En1
 BYTE   W12
 BYTE   Cn1
 BYTE   W36
 BYTE   En1
 BYTE   W12
 BYTE   Cn1
 BYTE   W12
 BYTE   PEND 
//  #14 //028   ----------------------------------------
 BYTE   PATT
  POIN2 Label_016B4196
//  #14 //029   ----------------------------------------
 BYTE   PATT
  POIN2 Label_016B41CB
//  #14 //030   ----------------------------------------
 BYTE   PATT
  POIN2 Label_016B4210
//  #14 //031   ----------------------------------------
 BYTE   PATT
  POIN2 Label_016B4196
//  #14 //032   ----------------------------------------
 BYTE   PATT
  POIN2 Label_016B4196
//  #14 //033   ----------------------------------------
 BYTE   PATT
  POIN2 Label_016B41EB
//  #14 //034   ----------------------------------------
 BYTE   N06  Cn1  v127
 BYTE   N06  Fs5
 BYTE   W96
//  #14 //035   ----------------------------------------
 BYTE   W96
//  #14 //036   ----------------------------------------
 BYTE   W96
//  #14 //037   ----------------------------------------
 BYTE   W96
//  #14 //038   ----------------------------------------
 BYTE   W96
//  #14 //039   ----------------------------------------
 BYTE   W96
//  #14 //040   ----------------------------------------
 BYTE   W96
//  #14 //041   ----------------------------------------
 BYTE   W96
//  #14 //042   ----------------------------------------
 BYTE   GoTo
  POIN2 Label_016B4162
 BYTE   FINE

//******************************************************//
	ALIGN 4

UpperSteamCave_Song:
	BYTE	14	// NumTrks
	BYTE	0	// NumBlks
	BYTE	UpperSteamCave_Song_pri	// Priority
	BYTE	UpperSteamCave_Song_rev	// Reverb.
    
	POIN2	UpperSteamCave_Song_grp
    
	POIN2	UpperSteamCave_Song_001
	POIN2	UpperSteamCave_Song_002
	POIN2	UpperSteamCave_Song_003
	POIN2	UpperSteamCave_Song_004
	POIN2	UpperSteamCave_Song_005
	POIN2	UpperSteamCave_Song_006
	POIN2	UpperSteamCave_Song_007
	POIN2	UpperSteamCave_Song_008
	POIN2	UpperSteamCave_Song_009
	POIN2	UpperSteamCave_Song_010
	POIN2	UpperSteamCave_Song_011
	POIN2	UpperSteamCave_Song_012
	POIN2	UpperSteamCave_Song_013
	POIN2	UpperSteamCave_Song_014

	
