//Event file generated from Sappy .s format.
	#include "MPlayDef.event"

	#define	ClashingOfWaves_grp  voicegroup000
	#define	ClashingOfWaves_pri  0
	#define	ClashingOfWaves_rev  0
	#define	ClashingOfWaves_mvl  97
	#define	ClashingOfWaves_key  0
	#define	ClashingOfWaves_tbs  1
	#define	ClashingOfWaves_exg  0
	#define	ClashingOfWaves_cmp  1

	// .rodata
	//	ClashingOfWaves
	ALIGN 4

//**************** Track 1 (Midi-Chn.1) ****************//

ClashingOfWaves_1:
	BYTE	KEYSH   ClashingOfWaves_key+0
// 000   ----------------------------------------
	BYTE	TEMPO   94*ClashingOfWaves_tbs/2
	BYTE		VOICE   121
	BYTE		MODT    0
	BYTE		LFOS    44
	BYTE		VOL     127*ClashingOfWaves_mvl/mxv
	BYTE		N03     Cn1   v120
	BYTE		N32     Cs2   v112
	BYTE	W12
	BYTE		N03     Cn1 
	BYTE		N02     Fs1   v104
	BYTE	W06
	BYTE		N03     Cn1   v124
	BYTE		N02     Fs1   v060
	BYTE	W06
	BYTE		N04     En1   v127
	BYTE		N02     Fs1   v116
	BYTE	W06
	BYTE		N03     Cn1   v112
	BYTE		N02     Fs1   v068
	BYTE	W06
	BYTE		        Fs1   v112
	BYTE	W06
	BYTE		N03     Cn1   v120
	BYTE		N02     Fs1   v060
	BYTE	W06
	BYTE		        Fs1   v100
	BYTE	W06
	BYTE		N04     En1 
	BYTE		N02     Fs1   v056
	BYTE	W06
	BYTE		N03     Cn1   v104
	BYTE		N11     As1   v088
	BYTE	W06
	BYTE		N03     Cn1   v127
	BYTE	W06
	BYTE		N04     En1 
	BYTE		N02     Fs1   v100
	BYTE	W06
	BYTE		N03     Cn1   v124
	BYTE		N02     Fs1   v044
	BYTE	W06
	BYTE		        Fs1   v100
	BYTE	W06
	BYTE		N01     En1   v072
	BYTE		N02     Fs1   v052
	BYTE	W02
	BYTE		N01     En1 
	BYTE	W02
	BYTE		        En1   v080
	BYTE	W02
// 001   ----------------------------------------
ClashingOfWaves_1_001:
	BYTE		N03     Cn1   v120
	BYTE		N02     Fs1   v108
	BYTE	W06
	BYTE		        Fs1   v060
	BYTE	W06
	BYTE		N03     Cn1   v112
	BYTE		N02     Fs1   v104
	BYTE	W06
	BYTE		N03     Cn1   v124
	BYTE		N02     Fs1   v060
	BYTE	W06
	BYTE		N04     En1   v127
	BYTE		N02     Fs1   v116
	BYTE	W06
	BYTE		N03     Cn1   v112
	BYTE		N02     Fs1   v068
	BYTE	W06
	BYTE		        Fs1   v112
	BYTE	W06
	BYTE		N03     Cn1   v120
	BYTE		N04     En1   v108
	BYTE		N02     Fs1   v060
	BYTE	W06
	BYTE		        Fs1   v100
	BYTE	W06
	BYTE		N01     En1   v068
	BYTE		N02     Fs1   v056
	BYTE	W02
	BYTE		N01     En1   v092
	BYTE	W04
	BYTE		N03     Cn1   v104
	BYTE		N02     Fs1   v100
	BYTE	W06
	BYTE		N03     Cn1   v127
	BYTE		N02     Fs1   v056
	BYTE	W06
	BYTE		N04     En1   v127
	BYTE		N02     Fs1   v100
	BYTE	W06
	BYTE		N03     Cn1   v124
	BYTE		N02     Fs1   v044
	BYTE	W06
	BYTE		        Fs1   v100
	BYTE	W06
	BYTE		N01     En1   v068
	BYTE		N02     Fs1   v052
	BYTE	W02
	BYTE		N01     En1   v092
	BYTE	W04
	BYTE	PEND
// 002   ----------------------------------------
ClashingOfWaves_1_002:
	BYTE		N03     Cn1   v120
	BYTE		N02     Fs1   v108
	BYTE	W06
	BYTE		        Fs1   v060
	BYTE	W06
	BYTE		N03     Cn1   v112
	BYTE		N02     Fs1   v104
	BYTE	W06
	BYTE		N03     Cn1   v124
	BYTE		N02     Fs1   v060
	BYTE	W06
	BYTE		N04     En1   v127
	BYTE		N02     Fs1   v116
	BYTE	W06
	BYTE		N03     Cn1   v112
	BYTE		N02     Fs1   v068
	BYTE	W06
	BYTE		        Fs1   v112
	BYTE	W06
	BYTE		N03     Cn1   v120
	BYTE		N02     Fs1   v060
	BYTE	W06
	BYTE		        Fs1   v100
	BYTE	W06
	BYTE		N04     En1 
	BYTE		N02     Fs1   v056
	BYTE	W06
	BYTE		N03     Cn1   v104
	BYTE		N11     As1   v088
	BYTE	W06
	BYTE		N03     Cn1   v127
	BYTE	W06
	BYTE		N04     En1 
	BYTE		N02     Fs1   v100
	BYTE	W06
	BYTE		N03     Cn1   v124
	BYTE		N02     Fs1   v044
	BYTE	W06
	BYTE		        Fs1   v100
	BYTE	W06
	BYTE		N01     En1   v072
	BYTE		N02     Fs1   v052
	BYTE	W02
	BYTE		N01     En1 
	BYTE	W02
	BYTE		        En1   v080
	BYTE	W02
	BYTE	PEND
// 003   ----------------------------------------
	BYTE		N03     Cn1   v120
	BYTE		N02     Fs1   v108
	BYTE	W06
	BYTE		        Fs1   v060
	BYTE	W06
	BYTE		N03     Cn1   v112
	BYTE		N02     Fs1   v104
	BYTE	W06
	BYTE		N03     Cn1   v124
	BYTE		N02     Fs1   v060
	BYTE	W06
	BYTE		N04     En1   v127
	BYTE		N02     Fs1   v116
	BYTE	W06
	BYTE		N03     Cn1   v112
	BYTE		N02     Fs1   v068
	BYTE	W06
	BYTE		        Fs1   v112
	BYTE	W06
	BYTE		N03     Cn1   v120
	BYTE		N04     En1   v108
	BYTE		N02     Fs1   v060
	BYTE	W06
	BYTE		        Fs1   v100
	BYTE	W06
	BYTE		N01     En1   v068
	BYTE		N02     Fs1   v056
	BYTE	W02
	BYTE		N01     En1   v092
	BYTE	W04
	BYTE		N03     Cn1   v104
	BYTE		N02     Fs1   v100
	BYTE	W06
	BYTE		N03     Cn1   v127
	BYTE		N02     Fs1   v056
	BYTE	W06
	BYTE		N04     En1   v127
	BYTE		N02     Fs1   v100
	BYTE	W06
	BYTE		N03     Cn1   v124
	BYTE		N04     En1   v127
	BYTE		N02     Fs1   v044
	BYTE	W06
	BYTE		N04     En1   v127
	BYTE		N02     Fs1   v100
	BYTE	W06
	BYTE		N01     En1   v127
	BYTE		N02     Fs1   v052
	BYTE	W02
	BYTE		N01     En1   v127
	BYTE	W04
ClashingOfWaves_1_B1:
// 004   ----------------------------------------
ClashingOfWaves_1_004:
	BYTE		N03     Cn1   v120
	BYTE		N32     An2   v112
	BYTE	W12
	BYTE		N03     Cn1 
	BYTE		N02     Fs1   v104
	BYTE	W06
	BYTE		N03     Cn1   v124
	BYTE		N02     Fs1   v060
	BYTE	W06
	BYTE		N04     En1   v127
	BYTE		N02     Fs1   v116
	BYTE	W06
	BYTE		N03     Cn1   v112
	BYTE		N02     Fs1   v068
	BYTE	W06
	BYTE		        Fs1   v112
	BYTE	W06
	BYTE		N03     Cn1   v120
	BYTE		N02     Fs1   v060
	BYTE	W06
	BYTE		        Fs1   v100
	BYTE	W06
	BYTE		N04     En1 
	BYTE		N02     Fs1   v056
	BYTE	W06
	BYTE		N03     Cn1   v104
	BYTE		N11     As1   v088
	BYTE	W06
	BYTE		N03     Cn1   v127
	BYTE	W06
	BYTE		N04     En1 
	BYTE		N02     Fs1   v100
	BYTE	W06
	BYTE		N03     Cn1   v124
	BYTE		N02     Fs1   v044
	BYTE	W06
	BYTE		        Fs1   v100
	BYTE	W06
	BYTE		N01     En1   v072
	BYTE		N02     Fs1   v052
	BYTE	W02
	BYTE		N01     En1 
	BYTE	W02
	BYTE		        En1   v080
	BYTE	W02
	BYTE	PEND
// 005   ----------------------------------------
	BYTE	PATT
	 POIN2	ClashingOfWaves_1_001
// 006   ----------------------------------------
	BYTE	PATT
	 POIN2	ClashingOfWaves_1_002
// 007   ----------------------------------------
	BYTE	PATT
	 POIN2	ClashingOfWaves_1_001
// 008   ----------------------------------------
	BYTE		N03     Cn1   v120
	BYTE		N02     Fs1   v108
	BYTE		N32     Gn2   v112
	BYTE	W06
	BYTE		N02     Fs1   v060
	BYTE	W06
	BYTE		N03     Cn1   v112
	BYTE		N02     Fs1   v104
	BYTE	W06
	BYTE		N03     Cn1   v124
	BYTE		N02     Fs1   v060
	BYTE	W06
	BYTE		N04     En1   v127
	BYTE		N02     Fs1   v116
	BYTE	W06
	BYTE		N03     Cn1   v112
	BYTE		N02     Fs1   v068
	BYTE	W06
	BYTE		        Fs1   v112
	BYTE	W06
	BYTE		N03     Cn1   v120
	BYTE		N02     Fs1   v060
	BYTE	W06
	BYTE		        Fs1   v100
	BYTE	W06
	BYTE		N04     En1 
	BYTE		N02     Fs1   v056
	BYTE	W06
	BYTE		N03     Cn1   v104
	BYTE		N11     As1   v088
	BYTE	W06
	BYTE		N03     Cn1   v127
	BYTE	W06
	BYTE		N04     En1 
	BYTE		N02     Fs1   v100
	BYTE	W06
	BYTE		N03     Cn1   v124
	BYTE		N02     Fs1   v044
	BYTE	W06
	BYTE		        Fs1   v100
	BYTE	W06
	BYTE		N01     En1   v072
	BYTE		N02     Fs1   v052
	BYTE	W02
	BYTE		N01     En1 
	BYTE	W02
	BYTE		        En1   v080
	BYTE	W02
// 009   ----------------------------------------
	BYTE	PATT
	 POIN2	ClashingOfWaves_1_001
// 010   ----------------------------------------
	BYTE	PATT
	 POIN2	ClashingOfWaves_1_002
// 011   ----------------------------------------
ClashingOfWaves_1_011:
	BYTE		N03     Cn1   v120
	BYTE		N02     Fs1   v108
	BYTE	W06
	BYTE		        Fs1   v060
	BYTE	W06
	BYTE		N03     Cn1   v112
	BYTE		N02     Fs1   v104
	BYTE	W06
	BYTE		N03     Cn1   v124
	BYTE		N02     Fs1   v060
	BYTE	W06
	BYTE		N04     En1   v127
	BYTE		N02     Fs1   v116
	BYTE	W06
	BYTE		N03     Cn1   v112
	BYTE		N02     Fs1   v068
	BYTE	W06
	BYTE		        Fs1   v112
	BYTE	W06
	BYTE		N03     Cn1   v120
	BYTE		N04     En1   v108
	BYTE		N02     Fs1   v060
	BYTE	W06
	BYTE		        Fs1   v100
	BYTE	W06
	BYTE		N01     En1   v068
	BYTE		N02     Fs1   v056
	BYTE	W02
	BYTE		N01     En1   v092
	BYTE	W04
	BYTE		N03     Cn1   v104
	BYTE		N02     Fs1   v100
	BYTE	W06
	BYTE		N03     Cn1   v127
	BYTE		N04     En1 
	BYTE		N02     Fs1   v056
	BYTE	W06
	BYTE		N04     En1   v127
	BYTE		N02     Fs1   v100
	BYTE	W06
	BYTE		N03     Cn1   v124
	BYTE		N02     Fs1   v044
	BYTE	W06
	BYTE		N04     En1   v127
	BYTE		N02     Fs1   v100
	BYTE	W06
	BYTE		N04     En1   v127
	BYTE		N02     Fs1   v052
	BYTE	W06
	BYTE	PEND
// 012   ----------------------------------------
ClashingOfWaves_1_012:
	BYTE		N03     Cn1   v120
	BYTE		N32     Cs2   v112
	BYTE	W12
	BYTE		N03     Cn1 
	BYTE		N02     Fs1   v104
	BYTE	W06
	BYTE		N03     Cn1   v124
	BYTE		N02     Fs1   v060
	BYTE	W06
	BYTE		N04     En1   v127
	BYTE		N02     Fs1   v116
	BYTE	W06
	BYTE		N03     Cn1   v112
	BYTE		N02     Fs1   v068
	BYTE	W06
	BYTE		        Fs1   v112
	BYTE	W06
	BYTE		N03     Cn1   v120
	BYTE		N02     Fs1   v060
	BYTE	W06
	BYTE		        Fs1   v100
	BYTE	W06
	BYTE		N04     En1 
	BYTE		N02     Fs1   v056
	BYTE	W06
	BYTE		N03     Cn1   v104
	BYTE		N11     As1   v088
	BYTE	W06
	BYTE		N03     Cn1   v127
	BYTE	W06
	BYTE		N04     En1 
	BYTE		N02     Fs1   v100
	BYTE	W06
	BYTE		N03     Cn1   v124
	BYTE		N02     Fs1   v044
	BYTE	W06
	BYTE		        Fs1   v100
	BYTE	W06
	BYTE		N01     En1   v072
	BYTE		N02     Fs1   v052
	BYTE	W02
	BYTE		N01     En1 
	BYTE	W02
	BYTE		        En1   v080
	BYTE	W02
	BYTE	PEND
// 013   ----------------------------------------
	BYTE	PATT
	 POIN2	ClashingOfWaves_1_001
// 014   ----------------------------------------
	BYTE	PATT
	 POIN2	ClashingOfWaves_1_002
// 015   ----------------------------------------
	BYTE	PATT
	 POIN2	ClashingOfWaves_1_001
// 016   ----------------------------------------
ClashingOfWaves_1_016:
	BYTE		N03     Cn1   v120
	BYTE		N32     Gn2   v112
	BYTE	W12
	BYTE		N03     Cn1 
	BYTE		N02     Fs1   v104
	BYTE	W06
	BYTE		N03     Cn1   v124
	BYTE		N02     Fs1   v060
	BYTE	W06
	BYTE		N04     En1   v127
	BYTE		N02     Fs1   v116
	BYTE	W06
	BYTE		N03     Cn1   v112
	BYTE		N02     Fs1   v068
	BYTE	W06
	BYTE		        Fs1   v112
	BYTE	W06
	BYTE		N03     Cn1   v120
	BYTE		N02     Fs1   v060
	BYTE	W06
	BYTE		        Fs1   v100
	BYTE	W06
	BYTE		N04     En1 
	BYTE		N02     Fs1   v056
	BYTE	W06
	BYTE		N03     Cn1   v104
	BYTE		N11     As1   v088
	BYTE	W06
	BYTE		N03     Cn1   v127
	BYTE	W06
	BYTE		N04     En1 
	BYTE		N02     Fs1   v100
	BYTE	W06
	BYTE		N03     Cn1   v124
	BYTE		N02     Fs1   v044
	BYTE	W06
	BYTE		        Fs1   v100
	BYTE	W06
	BYTE		N01     En1   v072
	BYTE		N02     Fs1   v052
	BYTE	W02
	BYTE		N01     En1 
	BYTE	W02
	BYTE		        En1   v080
	BYTE	W02
	BYTE	PEND
// 017   ----------------------------------------
	BYTE	PATT
	 POIN2	ClashingOfWaves_1_001
// 018   ----------------------------------------
	BYTE	PATT
	 POIN2	ClashingOfWaves_1_002
// 019   ----------------------------------------
ClashingOfWaves_1_019:
	BYTE		N03     Cn1   v120
	BYTE		N02     Fs1   v108
	BYTE	W06
	BYTE		        Fs1   v060
	BYTE	W06
	BYTE		N03     Cn1   v112
	BYTE		N02     Fs1   v104
	BYTE	W06
	BYTE		N03     Cn1   v124
	BYTE		N02     Fs1   v060
	BYTE	W06
	BYTE		N04     En1   v127
	BYTE		N02     Fs1   v116
	BYTE	W06
	BYTE		N03     Cn1   v112
	BYTE		N02     Fs1   v068
	BYTE	W06
	BYTE		        Fs1   v112
	BYTE	W06
	BYTE		N03     Cn1   v120
	BYTE		N04     En1   v108
	BYTE		N02     Fs1   v060
	BYTE	W06
	BYTE		        Fs1   v100
	BYTE	W06
	BYTE		N01     En1   v068
	BYTE		N02     Fs1   v056
	BYTE	W02
	BYTE		N01     En1   v092
	BYTE	W04
	BYTE		N03     Cn1   v104
	BYTE		N02     Fs1   v100
	BYTE	W06
	BYTE		N03     Cn1   v127
	BYTE		N02     Fs1   v056
	BYTE	W06
	BYTE		N04     En1   v127
	BYTE		N02     Fs1   v100
	BYTE	W06
	BYTE		N03     Cn1   v124
	BYTE		N04     En1   v127
	BYTE		N02     Fs1   v044
	BYTE	W06
	BYTE		        Fs1   v100
	BYTE		N11     Gn1   v127
	BYTE	W06
	BYTE		N02     Fs1   v052
	BYTE	W06
	BYTE	PEND
// 020   ----------------------------------------
	BYTE	PATT
	 POIN2	ClashingOfWaves_1_012
// 021   ----------------------------------------
	BYTE	PATT
	 POIN2	ClashingOfWaves_1_001
// 022   ----------------------------------------
	BYTE	PATT
	 POIN2	ClashingOfWaves_1_002
// 023   ----------------------------------------
ClashingOfWaves_1_023:
	BYTE		N03     Cn1   v120
	BYTE		N02     Fs1   v108
	BYTE	W06
	BYTE		        Fs1   v060
	BYTE	W06
	BYTE		N03     Cn1   v112
	BYTE		N02     Fs1   v104
	BYTE	W06
	BYTE		N03     Cn1   v124
	BYTE		N02     Fs1   v060
	BYTE	W06
	BYTE		N04     En1   v127
	BYTE		N02     Fs1   v116
	BYTE	W06
	BYTE		N03     Cn1   v112
	BYTE		N02     Fs1   v068
	BYTE	W06
	BYTE		        Fs1   v112
	BYTE	W06
	BYTE		N03     Cn1   v120
	BYTE		N04     En1   v108
	BYTE		N02     Fs1   v060
	BYTE	W06
	BYTE		        Fs1   v100
	BYTE	W06
	BYTE		N01     En1   v068
	BYTE		N02     Fs1   v056
	BYTE	W02
	BYTE		N01     En1   v092
	BYTE	W04
	BYTE		N03     Cn1   v104
	BYTE		N02     Fs1   v100
	BYTE	W06
	BYTE		N03     Cn1   v127
	BYTE		N02     Fs1   v056
	BYTE	W06
	BYTE		N04     En1   v127
	BYTE		N02     Fs1   v100
	BYTE	W06
	BYTE		N03     Cn1   v124
	BYTE		N02     Fs1   v044
	BYTE	W06
	BYTE		N01     En1   v127
	BYTE		N02     Fs1   v100
	BYTE	W02
	BYTE		N01     En1   v127
	BYTE	W04
	BYTE		N01   
	BYTE		N02     Fs1   v052
	BYTE	W02
	BYTE		N01     En1   v127
	BYTE	W04
	BYTE	PEND
// 024   ----------------------------------------
	BYTE	PATT
	 POIN2	ClashingOfWaves_1_004
// 025   ----------------------------------------
	BYTE	PATT
	 POIN2	ClashingOfWaves_1_001
// 026   ----------------------------------------
	BYTE	PATT
	 POIN2	ClashingOfWaves_1_002
// 027   ----------------------------------------
	BYTE	PATT
	 POIN2	ClashingOfWaves_1_001
// 028   ----------------------------------------
	BYTE	PATT
	 POIN2	ClashingOfWaves_1_016
// 029   ----------------------------------------
	BYTE	PATT
	 POIN2	ClashingOfWaves_1_001
// 030   ----------------------------------------
	BYTE	PATT
	 POIN2	ClashingOfWaves_1_002
// 031   ----------------------------------------
	BYTE	PATT
	 POIN2	ClashingOfWaves_1_011
// 032   ----------------------------------------
	BYTE	PATT
	 POIN2	ClashingOfWaves_1_012
// 033   ----------------------------------------
	BYTE	PATT
	 POIN2	ClashingOfWaves_1_001
// 034   ----------------------------------------
	BYTE	PATT
	 POIN2	ClashingOfWaves_1_002
// 035   ----------------------------------------
	BYTE	PATT
	 POIN2	ClashingOfWaves_1_001
// 036   ----------------------------------------
	BYTE	PATT
	 POIN2	ClashingOfWaves_1_016
// 037   ----------------------------------------
	BYTE	PATT
	 POIN2	ClashingOfWaves_1_001
// 038   ----------------------------------------
	BYTE	PATT
	 POIN2	ClashingOfWaves_1_002
// 039   ----------------------------------------
	BYTE	PATT
	 POIN2	ClashingOfWaves_1_019
// 040   ----------------------------------------
	BYTE	PATT
	 POIN2	ClashingOfWaves_1_012
// 041   ----------------------------------------
	BYTE	PATT
	 POIN2	ClashingOfWaves_1_001
// 042   ----------------------------------------
	BYTE	PATT
	 POIN2	ClashingOfWaves_1_002
// 043   ----------------------------------------
	BYTE	PATT
	 POIN2	ClashingOfWaves_1_023
// 044   ----------------------------------------
	BYTE		N03     Cn1   v120
	BYTE		N32     Cs2   v112
	BYTE	W06
	BYTE		N01     En1   v072
	BYTE	W02
	BYTE		        En1   v052
	BYTE	W04
	BYTE		N03     Cn1   v112
	BYTE		N02     Fs1   v104
	BYTE	W06
	BYTE		N03     Cn1   v124
	BYTE		N02     Fs1   v060
	BYTE	W06
	BYTE		N04     En1   v127
	BYTE		N02     Fs1   v116
	BYTE	W06
	BYTE		N03     Cn1   v112
	BYTE		N02     Fs1   v068
	BYTE	W06
	BYTE		        Fs1   v112
	BYTE	W06
	BYTE		N03     Cn1   v120
	BYTE		N01     En1   v084
	BYTE		N02     Fs1   v060
	BYTE	W03
	BYTE		N01     En1   v088
	BYTE	W03
	BYTE		N02     Fs1   v100
	BYTE	W06
	BYTE		N04     En1 
	BYTE		N02     Fs1   v056
	BYTE	W06
	BYTE		N03     Cn1   v104
	BYTE		N11     As1   v088
	BYTE	W06
	BYTE		N03     Cn1   v127
	BYTE	W06
	BYTE		N04     En1 
	BYTE		N02     Fs1   v100
	BYTE	W06
	BYTE		N03     Cn1   v124
	BYTE		N02     Fs1   v044
	BYTE	W06
	BYTE		        Fs1   v100
	BYTE	W06
	BYTE		N01     En1   v072
	BYTE		N02     Fs1   v052
	BYTE	W02
	BYTE		N01     En1 
	BYTE	W02
	BYTE		        En1   v060
	BYTE	W02
// 045   ----------------------------------------
	BYTE		N03     Cn1   v120
	BYTE		N02     Fs1   v108
	BYTE	W06
	BYTE		N04     En1   v100
	BYTE		N02     Fs1   v060
	BYTE	W06
	BYTE		N03     Cn1   v112
	BYTE		N02     Fs1   v104
	BYTE	W06
	BYTE		N03     Cn1   v124
	BYTE		N02     Fs1   v060
	BYTE	W06
	BYTE		N04     En1   v127
	BYTE		N02     Fs1   v116
	BYTE	W06
	BYTE		N03     Cn1   v112
	BYTE		N02     Fs1   v068
	BYTE	W06
	BYTE		        Fs1   v112
	BYTE	W06
	BYTE		N03     Cn1   v120
	BYTE		N04     En1   v108
	BYTE		N02     Fs1   v060
	BYTE	W06
	BYTE		        Fs1   v100
	BYTE	W06
	BYTE		N01     En1   v068
	BYTE		N02     Fs1   v056
	BYTE	W02
	BYTE		N01     En1   v092
	BYTE	W04
	BYTE		N03     Cn1   v104
	BYTE		N02     Fs1   v100
	BYTE	W06
	BYTE		N03     Cn1   v127
	BYTE		N02     Fs1   v056
	BYTE	W06
	BYTE		N04     En1   v127
	BYTE		N02     Fs1   v100
	BYTE	W06
	BYTE		N03     Cn1   v124
	BYTE		N02     Fs1   v044
	BYTE	W06
	BYTE		        Fs1   v100
	BYTE	W06
	BYTE		N01     En1   v112
	BYTE		N02     Fs1   v052
	BYTE	W06
// 046   ----------------------------------------
	BYTE	PATT
	 POIN2	ClashingOfWaves_1_002
// 047   ----------------------------------------
	BYTE		N03     Cn1   v120
	BYTE		N02     Fs1   v108
	BYTE	W06
	BYTE		N04     En1 
	BYTE		N02     Fs1   v060
	BYTE	W06
	BYTE		N03     Cn1   v112
	BYTE		N02     Fs1   v104
	BYTE	W06
	BYTE		N03     Cn1   v124
	BYTE		N02     Fs1   v060
	BYTE	W06
	BYTE		N04     En1   v127
	BYTE		N02     Fs1   v116
	BYTE	W06
	BYTE		N03     Cn1   v112
	BYTE		N02     Fs1   v068
	BYTE	W06
	BYTE		        Fs1   v112
	BYTE	W06
	BYTE		N03     Cn1   v120
	BYTE		N04     En1   v108
	BYTE		N02     Fs1   v060
	BYTE	W06
	BYTE		        Fs1   v100
	BYTE	W06
	BYTE		N01     En1   v068
	BYTE		N02     Fs1   v056
	BYTE	W02
	BYTE		N01     En1   v092
	BYTE	W04
	BYTE		N03     Cn1   v104
	BYTE		N02     Fs1   v100
	BYTE	W06
	BYTE		N03     Cn1   v127
	BYTE		N02     Fs1   v056
	BYTE	W06
	BYTE		N04     En1   v127
	BYTE		N02     Fs1   v100
	BYTE	W06
	BYTE		N03     Cn1   v124
	BYTE		N04     En1   v127
	BYTE		N02     Fs1   v044
	BYTE	W06
	BYTE		N04     En1   v127
	BYTE		N02     Fs1   v100
	BYTE		N11     Gn1   v127
	BYTE	W06
	BYTE		N02     En1 
	BYTE		N02     Fs1   v052
	BYTE	W03
	BYTE		        En1   v127
	BYTE	W03
	BYTE	GoTo
	 POIN2	ClashingOfWaves_1_B1
ClashingOfWaves_1_B2:
// 048   ----------------------------------------
	BYTE	FINE

//**************** Track 2 (Midi-Chn.2) ****************//

ClashingOfWaves_2:
	BYTE	KEYSH   ClashingOfWaves_key+0
// 000   ----------------------------------------
	BYTE		VOICE   36
	BYTE		MODT    0
	BYTE		LFOS    44
	BYTE		VOL     127*ClashingOfWaves_mvl/mxv
	BYTE		N04     An0   v116
	BYTE	W06
	BYTE		        An1   v100
	BYTE	W06
	BYTE		        Gn1   v116
	BYTE	W06
	BYTE		N11     An1 
	BYTE	W12
	BYTE		N04     Gn1 
	BYTE	W06
	BYTE		        An1 
	BYTE	W06
	BYTE		N04   
	BYTE	W06
	BYTE		        Gn1 
	BYTE	W06
	BYTE		N11     An1 
	BYTE	W12
	BYTE		N04     Gn1 
	BYTE	W06
	BYTE		        An1 
	BYTE	W06
	BYTE		N04   
	BYTE	W06
	BYTE		        Gn1 
	BYTE	W06
	BYTE		N04   
	BYTE	W06
// 001   ----------------------------------------
ClashingOfWaves_2_001:
	BYTE		N04     An1   v116
	BYTE	W06
	BYTE		        An1   v100
	BYTE	W06
	BYTE		        Gn1   v116
	BYTE	W06
	BYTE		N11     An1 
	BYTE	W12
	BYTE		N04     Gn1 
	BYTE	W06
	BYTE		        An1 
	BYTE	W06
	BYTE		N04   
	BYTE	W06
	BYTE		        Gn1 
	BYTE	W06
	BYTE		N11     An1 
	BYTE	W12
	BYTE		N04     Gn1 
	BYTE	W06
	BYTE		        An1 
	BYTE	W06
	BYTE		N04   
	BYTE	W06
	BYTE		        Gn1 
	BYTE	W06
	BYTE		N04   
	BYTE	W06
	BYTE	PEND
// 002   ----------------------------------------
	BYTE	PATT
	 POIN2	ClashingOfWaves_2_001
// 003   ----------------------------------------
	BYTE	PATT
	 POIN2	ClashingOfWaves_2_001
ClashingOfWaves_2_B1:
// 004   ----------------------------------------
	BYTE	PATT
	 POIN2	ClashingOfWaves_2_001
// 005   ----------------------------------------
	BYTE	PATT
	 POIN2	ClashingOfWaves_2_001
// 006   ----------------------------------------
	BYTE	PATT
	 POIN2	ClashingOfWaves_2_001
// 007   ----------------------------------------
	BYTE	PATT
	 POIN2	ClashingOfWaves_2_001
// 008   ----------------------------------------
ClashingOfWaves_2_008:
	BYTE		N04     Fn1   v116
	BYTE	W06
	BYTE		        Fn1   v100
	BYTE	W06
	BYTE		        En1   v116
	BYTE	W06
	BYTE		N11     Fn1 
	BYTE	W12
	BYTE		N04     En1 
	BYTE	W06
	BYTE		        Fn1 
	BYTE	W06
	BYTE		N04   
	BYTE	W06
	BYTE		        En1 
	BYTE	W06
	BYTE		N11     Fn1 
	BYTE	W12
	BYTE		N04     En1 
	BYTE	W06
	BYTE		        Fn1 
	BYTE	W06
	BYTE		N04   
	BYTE	W06
	BYTE		        En1 
	BYTE	W06
	BYTE		N04   
	BYTE	W06
	BYTE	PEND
// 009   ----------------------------------------
ClashingOfWaves_2_009:
	BYTE		N04     Dn2   v116
	BYTE	W06
	BYTE		        Dn2   v100
	BYTE	W06
	BYTE		        Cn2   v116
	BYTE	W06
	BYTE		N11     Dn2 
	BYTE	W12
	BYTE		N04     Cn2 
	BYTE	W06
	BYTE		        Dn2 
	BYTE	W06
	BYTE		N04   
	BYTE	W06
	BYTE		        Cn2 
	BYTE	W06
	BYTE		N11     Dn2 
	BYTE	W12
	BYTE		N04     Cn2 
	BYTE	W06
	BYTE		        Dn2 
	BYTE	W06
	BYTE		N04   
	BYTE	W06
	BYTE		        Cn2 
	BYTE	W06
	BYTE		N04   
	BYTE	W06
	BYTE	PEND
// 010   ----------------------------------------
ClashingOfWaves_2_010:
	BYTE		N04     En2   v116
	BYTE	W06
	BYTE		        En2   v100
	BYTE	W06
	BYTE		        Dn2   v116
	BYTE	W06
	BYTE		N11     En2 
	BYTE	W12
	BYTE		N04     Dn2 
	BYTE	W06
	BYTE		        En2 
	BYTE	W06
	BYTE		N04   
	BYTE	W06
	BYTE		        Dn2 
	BYTE	W06
	BYTE		N11     En2 
	BYTE	W12
	BYTE		N04     Dn2 
	BYTE	W06
	BYTE		        En2 
	BYTE	W06
	BYTE		N04   
	BYTE	W06
	BYTE		        Dn1 
	BYTE	W06
	BYTE		        Ds1 
	BYTE	W06
	BYTE	PEND
// 011   ----------------------------------------
ClashingOfWaves_2_011:
	BYTE		N04     En1   v116
	BYTE	W06
	BYTE		        En1   v100
	BYTE	W06
	BYTE		        Dn1   v116
	BYTE	W06
	BYTE		N11     En1 
	BYTE	W12
	BYTE		N04     Dn1 
	BYTE	W06
	BYTE		        En1 
	BYTE	W06
	BYTE		N04   
	BYTE	W06
	BYTE		        Dn1 
	BYTE	W06
	BYTE		N11     En1 
	BYTE	W12
	BYTE		N04     Dn1 
	BYTE	W06
	BYTE		        En1 
	BYTE	W06
	BYTE		N04   
	BYTE	W06
	BYTE		        Gn1 
	BYTE	W06
	BYTE		N04   
	BYTE	W06
	BYTE	PEND
// 012   ----------------------------------------
	BYTE	PATT
	 POIN2	ClashingOfWaves_2_001
// 013   ----------------------------------------
	BYTE	PATT
	 POIN2	ClashingOfWaves_2_001
// 014   ----------------------------------------
	BYTE	PATT
	 POIN2	ClashingOfWaves_2_001
// 015   ----------------------------------------
	BYTE	PATT
	 POIN2	ClashingOfWaves_2_001
// 016   ----------------------------------------
	BYTE	PATT
	 POIN2	ClashingOfWaves_2_008
// 017   ----------------------------------------
	BYTE	PATT
	 POIN2	ClashingOfWaves_2_009
// 018   ----------------------------------------
	BYTE	PATT
	 POIN2	ClashingOfWaves_2_010
// 019   ----------------------------------------
	BYTE	PATT
	 POIN2	ClashingOfWaves_2_011
// 020   ----------------------------------------
ClashingOfWaves_2_020:
	BYTE		N16     An1   v116
	BYTE	W18
	BYTE		N06   
	BYTE	W12
	BYTE		N05   
	BYTE	W06
	BYTE		N22     As1 
	BYTE	W24
	BYTE		N11   
	BYTE	W18
	BYTE		N10     Gn1 
	BYTE	W12
	BYTE		N05   
	BYTE	W06
	BYTE	PEND
// 021   ----------------------------------------
ClashingOfWaves_2_021:
	BYTE		N17     An1   v116
	BYTE	W18
	BYTE		N11   
	BYTE	W12
	BYTE		N04   
	BYTE	W06
	BYTE		N22     As1 
	BYTE	W24
	BYTE		N11   
	BYTE	W18
	BYTE		N17     Cn2 
	BYTE	W18
	BYTE	PEND
// 022   ----------------------------------------
	BYTE	PATT
	 POIN2	ClashingOfWaves_2_020
// 023   ----------------------------------------
	BYTE	PATT
	 POIN2	ClashingOfWaves_2_021
// 024   ----------------------------------------
	BYTE	PATT
	 POIN2	ClashingOfWaves_2_001
// 025   ----------------------------------------
	BYTE	PATT
	 POIN2	ClashingOfWaves_2_001
// 026   ----------------------------------------
	BYTE	PATT
	 POIN2	ClashingOfWaves_2_001
// 027   ----------------------------------------
	BYTE	PATT
	 POIN2	ClashingOfWaves_2_001
// 028   ----------------------------------------
	BYTE	PATT
	 POIN2	ClashingOfWaves_2_008
// 029   ----------------------------------------
	BYTE	PATT
	 POIN2	ClashingOfWaves_2_009
// 030   ----------------------------------------
	BYTE	PATT
	 POIN2	ClashingOfWaves_2_010
// 031   ----------------------------------------
	BYTE	PATT
	 POIN2	ClashingOfWaves_2_011
// 032   ----------------------------------------
	BYTE	PATT
	 POIN2	ClashingOfWaves_2_001
// 033   ----------------------------------------
	BYTE	PATT
	 POIN2	ClashingOfWaves_2_001
// 034   ----------------------------------------
	BYTE	PATT
	 POIN2	ClashingOfWaves_2_001
// 035   ----------------------------------------
	BYTE	PATT
	 POIN2	ClashingOfWaves_2_001
// 036   ----------------------------------------
	BYTE	PATT
	 POIN2	ClashingOfWaves_2_008
// 037   ----------------------------------------
	BYTE	PATT
	 POIN2	ClashingOfWaves_2_009
// 038   ----------------------------------------
	BYTE	PATT
	 POIN2	ClashingOfWaves_2_010
// 039   ----------------------------------------
	BYTE	PATT
	 POIN2	ClashingOfWaves_2_011
// 040   ----------------------------------------
	BYTE	PATT
	 POIN2	ClashingOfWaves_2_020
// 041   ----------------------------------------
	BYTE	PATT
	 POIN2	ClashingOfWaves_2_021
// 042   ----------------------------------------
	BYTE	PATT
	 POIN2	ClashingOfWaves_2_020
// 043   ----------------------------------------
	BYTE	PATT
	 POIN2	ClashingOfWaves_2_021
// 044   ----------------------------------------
	BYTE	PATT
	 POIN2	ClashingOfWaves_2_001
// 045   ----------------------------------------
	BYTE	PATT
	 POIN2	ClashingOfWaves_2_001
// 046   ----------------------------------------
	BYTE	PATT
	 POIN2	ClashingOfWaves_2_001
// 047   ----------------------------------------
	BYTE	PATT
	 POIN2	ClashingOfWaves_2_001
	BYTE	GoTo
	 POIN2	ClashingOfWaves_2_B1
ClashingOfWaves_2_B2:
// 048   ----------------------------------------
	BYTE	FINE

//**************** Track 3 (Midi-Chn.3) ****************//

ClashingOfWaves_3:
	BYTE	KEYSH   ClashingOfWaves_key+0
// 000   ----------------------------------------
	BYTE		VOICE   11
	BYTE		MODT    0
	BYTE		LFOS    44
	BYTE		VOL     100*ClashingOfWaves_mvl/mxv
	BYTE		PAN     c_v-50
	BYTE	W24
	BYTE		N04     Bn5   v004
	BYTE	W06
	BYTE		        En5 
	BYTE	W06
	BYTE		        Cn5 
	BYTE	W06
	BYTE		        Gn5 
	BYTE	W06
	BYTE		        Fs5 
	BYTE	W06
	BYTE		        Dn5 
	BYTE	W06
	BYTE		        An4 
	BYTE	W06
	BYTE		        Bn4 
	BYTE	W06
	BYTE		        Cn5 
	BYTE	W06
	BYTE		        En5 
	BYTE	W06
	BYTE		        Gn5 
	BYTE	W06
	BYTE		        Bn5 
	BYTE	W06
// 001   ----------------------------------------
ClashingOfWaves_3_001:
	BYTE		N04     An5   v004
	BYTE	W06
	BYTE		        Fs5 
	BYTE	W06
	BYTE		        Dn5 
	BYTE	W06
	BYTE		        En5 
	BYTE	W06
	BYTE		        Bn5 
	BYTE	W06
	BYTE		        En5 
	BYTE	W06
	BYTE		        Cn5 
	BYTE	W06
	BYTE		        Gn5 
	BYTE	W06
	BYTE		        Fs5   v008
	BYTE	W06
	BYTE		N05     Bn4 
	BYTE		N04     Dn5 
	BYTE	W06
	BYTE		        An4 
	BYTE	W06
	BYTE		        Bn4 
	BYTE	W06
	BYTE		        Cn5 
	BYTE	W06
	BYTE		        En5 
	BYTE	W06
	BYTE		        Gn5 
	BYTE	W06
	BYTE		        Bn5 
	BYTE	W06
	BYTE	PEND
// 002   ----------------------------------------
ClashingOfWaves_3_002:
	BYTE		N04     An5   v008
	BYTE	W06
	BYTE		        Fs5 
	BYTE	W06
	BYTE		        Dn5 
	BYTE	W06
	BYTE		        En5 
	BYTE	W06
	BYTE		        Bn5 
	BYTE	W06
	BYTE		        En5 
	BYTE	W06
	BYTE		        Cn5 
	BYTE	W06
	BYTE		        Gn5 
	BYTE	W06
	BYTE		        Fs5 
	BYTE	W06
	BYTE		        Dn5 
	BYTE	W06
	BYTE		        An4 
	BYTE	W06
	BYTE		        Bn4 
	BYTE	W06
	BYTE		        Cn5 
	BYTE	W06
	BYTE		        En5 
	BYTE	W06
	BYTE		        Gn5 
	BYTE	W06
	BYTE		        Bn5 
	BYTE	W06
	BYTE	PEND
// 003   ----------------------------------------
ClashingOfWaves_3_003:
	BYTE		N04     An5   v008
	BYTE	W06
	BYTE		        Fs5 
	BYTE	W06
	BYTE		        Dn5 
	BYTE	W06
	BYTE		        En5 
	BYTE	W06
	BYTE		        Bn5 
	BYTE	W06
	BYTE		        En5 
	BYTE	W06
	BYTE		        Cn5 
	BYTE	W06
	BYTE		        Gn5 
	BYTE	W06
	BYTE		        Fs5 
	BYTE	W06
	BYTE		        Dn5 
	BYTE	W06
	BYTE		        An4 
	BYTE	W06
	BYTE		        Bn4 
	BYTE	W06
	BYTE		        Cn5 
	BYTE	W06
	BYTE		        En5   v012
	BYTE	W06
	BYTE		        Gn5 
	BYTE	W06
	BYTE		        Bn5 
	BYTE	W06
	BYTE	PEND
ClashingOfWaves_3_B1:
// 004   ----------------------------------------
	BYTE		VOL     100*ClashingOfWaves_mvl/mxv
	BYTE	W96
// 005   ----------------------------------------
	BYTE	W96
// 006   ----------------------------------------
	BYTE	W96
// 007   ----------------------------------------
	BYTE	W96
// 008   ----------------------------------------
	BYTE	W96
// 009   ----------------------------------------
	BYTE	W96
// 010   ----------------------------------------
	BYTE	W96
// 011   ----------------------------------------
	BYTE	W96
// 012   ----------------------------------------
	BYTE	W96
// 013   ----------------------------------------
	BYTE	W96
// 014   ----------------------------------------
	BYTE	W96
// 015   ----------------------------------------
	BYTE	W96
// 016   ----------------------------------------
	BYTE	W96
// 017   ----------------------------------------
	BYTE	W96
// 018   ----------------------------------------
	BYTE	W96
// 019   ----------------------------------------
	BYTE	W96
// 020   ----------------------------------------
ClashingOfWaves_3_020:
	BYTE		VOL     116*ClashingOfWaves_mvl/mxv
	BYTE		PAN     c_v-50
	BYTE	W24
	BYTE		N04     Bn5   v004
	BYTE	W06
	BYTE		        En5 
	BYTE	W06
	BYTE		        Cn5 
	BYTE	W06
	BYTE		        Gn5 
	BYTE	W06
	BYTE		        Fs5 
	BYTE	W06
	BYTE		        Dn5 
	BYTE	W06
	BYTE		        An4 
	BYTE	W06
	BYTE		        Bn4 
	BYTE	W06
	BYTE		        Cn5 
	BYTE	W06
	BYTE		        En5 
	BYTE	W06
	BYTE		        Gn5 
	BYTE	W06
	BYTE		        Bn5 
	BYTE	W06
	BYTE	PEND
// 021   ----------------------------------------
	BYTE	PATT
	 POIN2	ClashingOfWaves_3_001
// 022   ----------------------------------------
	BYTE	PATT
	 POIN2	ClashingOfWaves_3_002
// 023   ----------------------------------------
	BYTE	PATT
	 POIN2	ClashingOfWaves_3_003
// 024   ----------------------------------------
	BYTE	W96
// 025   ----------------------------------------
	BYTE	W96
// 026   ----------------------------------------
	BYTE	W96
// 027   ----------------------------------------
	BYTE	W96
// 028   ----------------------------------------
	BYTE	W96
// 029   ----------------------------------------
	BYTE	W96
// 030   ----------------------------------------
	BYTE	W96
// 031   ----------------------------------------
	BYTE	W96
// 032   ----------------------------------------
	BYTE	W96
// 033   ----------------------------------------
	BYTE	W96
// 034   ----------------------------------------
	BYTE	W96
// 035   ----------------------------------------
	BYTE	W96
// 036   ----------------------------------------
	BYTE	W96
// 037   ----------------------------------------
	BYTE	W96
// 038   ----------------------------------------
	BYTE	W96
// 039   ----------------------------------------
	BYTE	W96
// 040   ----------------------------------------
	BYTE	PATT
	 POIN2	ClashingOfWaves_3_020
// 041   ----------------------------------------
	BYTE	PATT
	 POIN2	ClashingOfWaves_3_001
// 042   ----------------------------------------
	BYTE	PATT
	 POIN2	ClashingOfWaves_3_002
// 043   ----------------------------------------
	BYTE	PATT
	 POIN2	ClashingOfWaves_3_003
// 044   ----------------------------------------
	BYTE	W24
	BYTE		N02     Bn4   v012
	BYTE	W06
	BYTE		        En4 
	BYTE	W06
	BYTE		        Cn4 
	BYTE	W06
	BYTE		        Gn4 
	BYTE	W06
	BYTE		        Fs4 
	BYTE	W06
	BYTE		        Dn4 
	BYTE	W06
	BYTE		        An3 
	BYTE	W06
	BYTE		        Bn3 
	BYTE	W06
	BYTE		        Cn4 
	BYTE	W06
	BYTE		        En4 
	BYTE	W06
	BYTE		        Gn4 
	BYTE	W06
	BYTE		        Bn4 
	BYTE	W06
// 045   ----------------------------------------
	BYTE		        An4 
	BYTE	W06
	BYTE		        Fs4 
	BYTE	W06
	BYTE		        Dn4 
	BYTE	W06
	BYTE		        En4 
	BYTE	W06
	BYTE		        Bn4 
	BYTE	W06
	BYTE		        En4 
	BYTE	W06
	BYTE		        Cn4 
	BYTE	W06
	BYTE		        Gn4 
	BYTE	W06
	BYTE		        Fs4 
	BYTE	W06
	BYTE		        Bn3 
	BYTE		N02     Dn4 
	BYTE	W06
	BYTE		        An3 
	BYTE	W06
	BYTE		        Bn3 
	BYTE	W06
	BYTE		        Cn4 
	BYTE	W06
	BYTE		        En4 
	BYTE	W06
	BYTE		        Gn4 
	BYTE	W06
	BYTE		        Bn4 
	BYTE	W06
// 046   ----------------------------------------
ClashingOfWaves_3_046:
	BYTE		N02     An4   v012
	BYTE	W06
	BYTE		        Fs4 
	BYTE	W06
	BYTE		        Dn4 
	BYTE	W06
	BYTE		        En4 
	BYTE	W06
	BYTE		        Bn4 
	BYTE	W06
	BYTE		        En4 
	BYTE	W06
	BYTE		        Cn4 
	BYTE	W06
	BYTE		        Gn4 
	BYTE	W06
	BYTE		        Fs4 
	BYTE	W06
	BYTE		        Dn4 
	BYTE	W06
	BYTE		        An3 
	BYTE	W06
	BYTE		        Bn3 
	BYTE	W06
	BYTE		        Cn4 
	BYTE	W06
	BYTE		        En4 
	BYTE	W06
	BYTE		        Gn4 
	BYTE	W06
	BYTE		        Bn4 
	BYTE	W06
	BYTE	PEND
// 047   ----------------------------------------
	BYTE	PATT
	 POIN2	ClashingOfWaves_3_046
	BYTE	GoTo
	 POIN2	ClashingOfWaves_3_B1
ClashingOfWaves_3_B2:
// 048   ----------------------------------------
	BYTE	FINE

//**************** Track 4 (Midi-Chn.4) ****************//

ClashingOfWaves_4:
	BYTE	KEYSH   ClashingOfWaves_key+0
// 000   ----------------------------------------
	BYTE		VOICE   11
	BYTE		MODT    0
	BYTE		LFOS    44
	BYTE		VOL     120*ClashingOfWaves_mvl/mxv
	BYTE		PAN     c_v+0
	BYTE		N18     An4   v012
	BYTE		N04     Bn5 
	BYTE	W06
	BYTE		        En5 
	BYTE	W06
	BYTE		        Cn5 
	BYTE	W06
	BYTE		N11   
	BYTE		N04     Gn5 
	BYTE	W06
	BYTE		        Fs5 
	BYTE	W06
	BYTE		        Dn5 
	BYTE	W06
	BYTE		        An4 
	BYTE	W06
	BYTE		        Bn4 
	BYTE	W06
	BYTE		        Cn5 
	BYTE	W06
	BYTE		N18     En4   v016
	BYTE		N04     En5 
	BYTE	W06
	BYTE		        Gn5 
	BYTE	W06
	BYTE		        Bn5 
	BYTE	W06
	BYTE		N18     Gn4 
	BYTE		N04     An5 
	BYTE	W06
	BYTE		        Fs5 
	BYTE	W06
	BYTE		        Dn5 
	BYTE	W06
	BYTE		N18     An4 
	BYTE		N04     En5 
	BYTE	W06
// 001   ----------------------------------------
ClashingOfWaves_4_001:
	BYTE		N04     Bn5   v016
	BYTE	W06
	BYTE		        En5 
	BYTE	W06
	BYTE		        Cn5 
	BYTE	W06
	BYTE		        Gn5 
	BYTE	W06
	BYTE		        Fs5   v020
	BYTE	W06
	BYTE		N05     Bn4 
	BYTE		N04     Dn5 
	BYTE	W06
	BYTE		        An4 
	BYTE	W06
	BYTE		        Bn4 
	BYTE	W06
	BYTE		N17     En4 
	BYTE		N04     Cn5 
	BYTE	W06
	BYTE		        En5 
	BYTE	W06
	BYTE		        Gn5 
	BYTE	W06
	BYTE		N18     Gn4 
	BYTE		N04     Bn5 
	BYTE	W06
	BYTE		        An5 
	BYTE	W06
	BYTE		        Fs5 
	BYTE	W06
	BYTE		N18     An4 
	BYTE		N04     Dn5 
	BYTE	W06
	BYTE		        En5 
	BYTE	W06
	BYTE	PEND
// 002   ----------------------------------------
ClashingOfWaves_4_002:
	BYTE		N04     Bn5   v020
	BYTE	W06
	BYTE		        En5 
	BYTE	W06
	BYTE		        Cn5 
	BYTE	W06
	BYTE		        Gn5   v024
	BYTE	W06
	BYTE		N14     Bn4 
	BYTE		N04     Fs5 
	BYTE	W06
	BYTE		        Dn5 
	BYTE	W06
	BYTE		        An4 
	BYTE	W06
	BYTE		        Bn4 
	BYTE	W06
	BYTE		N11     En4 
	BYTE		N04     Cn5 
	BYTE	W06
	BYTE		        En5 
	BYTE	W06
	BYTE		N18     Gn4 
	BYTE		N04     Gn5 
	BYTE	W06
	BYTE		        Bn5 
	BYTE	W06
	BYTE		        An5 
	BYTE	W06
	BYTE		N18     An4 
	BYTE		N04     Fs5 
	BYTE	W06
	BYTE		        Dn5 
	BYTE	W06
	BYTE		        En5 
	BYTE	W06
	BYTE	PEND
// 003   ----------------------------------------
ClashingOfWaves_4_003:
	BYTE		N10     Cn5   v028
	BYTE		N04     Bn5 
	BYTE	W06
	BYTE		        En5 
	BYTE	W06
	BYTE		        Cn5 
	BYTE	W06
	BYTE		N11     Bn4 
	BYTE		N04     Gn5 
	BYTE	W06
	BYTE		        Fs5 
	BYTE	W06
	BYTE		        Dn5 
	BYTE	W06
	BYTE		        An4 
	BYTE	W06
	BYTE		N11     En4 
	BYTE		N04     Bn4 
	BYTE	W06
	BYTE		        Cn5 
	BYTE	W06
	BYTE		N18     Gn4   v032
	BYTE		N04     En5 
	BYTE	W06
	BYTE		        Gn5 
	BYTE	W06
	BYTE		        Bn5 
	BYTE	W06
	BYTE		N18     An4 
	BYTE		N04     An5 
	BYTE	W06
	BYTE		        Fs5 
	BYTE	W06
	BYTE		        Dn5 
	BYTE	W06
	BYTE		N05     Cn5 
	BYTE		N04     En5 
	BYTE	W06
	BYTE	PEND
ClashingOfWaves_4_B1:
// 004   ----------------------------------------
	BYTE		VOL     120*ClashingOfWaves_mvl/mxv
	BYTE	W96
// 005   ----------------------------------------
	BYTE	W96
// 006   ----------------------------------------
	BYTE	W96
// 007   ----------------------------------------
	BYTE	W96
// 008   ----------------------------------------
	BYTE	W96
// 009   ----------------------------------------
	BYTE	W96
// 010   ----------------------------------------
	BYTE	W96
// 011   ----------------------------------------
	BYTE	W96
// 012   ----------------------------------------
	BYTE	W96
// 013   ----------------------------------------
	BYTE	W96
// 014   ----------------------------------------
	BYTE	W96
// 015   ----------------------------------------
	BYTE	W96
// 016   ----------------------------------------
	BYTE	W96
// 017   ----------------------------------------
	BYTE	W96
// 018   ----------------------------------------
	BYTE	W96
// 019   ----------------------------------------
	BYTE	W96
// 020   ----------------------------------------
ClashingOfWaves_4_020:
	BYTE		PAN     c_v+0
	BYTE		VOL     116*ClashingOfWaves_mvl/mxv
	BYTE		N18     An4   v012
	BYTE		N04     Bn5 
	BYTE	W06
	BYTE		        En5 
	BYTE	W06
	BYTE		        Cn5 
	BYTE	W06
	BYTE		N11   
	BYTE		N04     Gn5 
	BYTE	W06
	BYTE		        Fs5 
	BYTE	W06
	BYTE		        Dn5 
	BYTE	W06
	BYTE		        An4 
	BYTE	W06
	BYTE		        Bn4 
	BYTE	W06
	BYTE		        Cn5 
	BYTE	W06
	BYTE		N18     En4   v016
	BYTE		N04     En5 
	BYTE	W06
	BYTE		        Gn5 
	BYTE	W06
	BYTE		        Bn5 
	BYTE	W06
	BYTE		N18     Gn4 
	BYTE		N04     An5 
	BYTE	W06
	BYTE		        Fs5 
	BYTE	W06
	BYTE		        Dn5 
	BYTE	W06
	BYTE		N18     An4 
	BYTE		N04     En5 
	BYTE	W06
	BYTE	PEND
// 021   ----------------------------------------
	BYTE	PATT
	 POIN2	ClashingOfWaves_4_001
// 022   ----------------------------------------
	BYTE	PATT
	 POIN2	ClashingOfWaves_4_002
// 023   ----------------------------------------
	BYTE	PATT
	 POIN2	ClashingOfWaves_4_003
// 024   ----------------------------------------
	BYTE	W96
// 025   ----------------------------------------
	BYTE	W96
// 026   ----------------------------------------
	BYTE	W96
// 027   ----------------------------------------
	BYTE	W96
// 028   ----------------------------------------
	BYTE	W96
// 029   ----------------------------------------
	BYTE	W96
// 030   ----------------------------------------
	BYTE	W96
// 031   ----------------------------------------
	BYTE	W96
// 032   ----------------------------------------
	BYTE	W96
// 033   ----------------------------------------
	BYTE	W96
// 034   ----------------------------------------
	BYTE	W96
// 035   ----------------------------------------
	BYTE	W96
// 036   ----------------------------------------
	BYTE	W96
// 037   ----------------------------------------
	BYTE	W96
// 038   ----------------------------------------
	BYTE	W96
// 039   ----------------------------------------
	BYTE	W96
// 040   ----------------------------------------
	BYTE	PATT
	 POIN2	ClashingOfWaves_4_020
// 041   ----------------------------------------
	BYTE	PATT
	 POIN2	ClashingOfWaves_4_001
// 042   ----------------------------------------
	BYTE	PATT
	 POIN2	ClashingOfWaves_4_002
// 043   ----------------------------------------
	BYTE	PATT
	 POIN2	ClashingOfWaves_4_003
// 044   ----------------------------------------
	BYTE		N15     An3   v032
	BYTE		N02     Bn4 
	BYTE	W06
	BYTE		        En4 
	BYTE	W06
	BYTE		        Cn4 
	BYTE	W06
	BYTE		N08   
	BYTE		N02     Gn4 
	BYTE	W06
	BYTE		        Fs4 
	BYTE	W06
	BYTE		        Dn4 
	BYTE	W06
	BYTE		        An3 
	BYTE	W06
	BYTE		        Bn3 
	BYTE	W06
	BYTE		        Cn4 
	BYTE	W06
	BYTE		N15     En3 
	BYTE		N02     En4 
	BYTE	W06
	BYTE		        Gn4 
	BYTE	W06
	BYTE		        Bn4 
	BYTE	W06
	BYTE		N15     Gn3 
	BYTE		N02     An4 
	BYTE	W06
	BYTE		        Fs4 
	BYTE	W06
	BYTE		        Dn4 
	BYTE	W06
	BYTE		N15     An3 
	BYTE		N02     En4 
	BYTE	W06
// 045   ----------------------------------------
	BYTE		        Bn4 
	BYTE	W06
	BYTE		        En4 
	BYTE	W06
	BYTE		        Cn4 
	BYTE	W06
	BYTE		        Gn4 
	BYTE	W06
	BYTE		        Fs4 
	BYTE	W06
	BYTE		        Bn3 
	BYTE		N02     Dn4 
	BYTE	W06
	BYTE		        An3 
	BYTE	W06
	BYTE		        Bn3 
	BYTE	W06
	BYTE		N14     En3 
	BYTE		N02     Cn4 
	BYTE	W06
	BYTE		        En4 
	BYTE	W06
	BYTE		        Gn4 
	BYTE	W06
	BYTE		N15     Gn3 
	BYTE		N02     Bn4 
	BYTE	W06
	BYTE		        An4 
	BYTE	W06
	BYTE		        Fs4 
	BYTE	W06
	BYTE		N15     An3 
	BYTE		N02     Dn4 
	BYTE	W06
	BYTE		        En4 
	BYTE	W06
// 046   ----------------------------------------
	BYTE		        Bn4 
	BYTE	W06
	BYTE		        En4 
	BYTE	W06
	BYTE		        Cn4 
	BYTE	W06
	BYTE		        Gn4 
	BYTE	W06
	BYTE		N11     Bn3 
	BYTE		N02     Fs4 
	BYTE	W06
	BYTE		        Dn4 
	BYTE	W06
	BYTE		        An3 
	BYTE	W06
	BYTE		        Bn3 
	BYTE	W06
	BYTE		N09     En3 
	BYTE		N02     Cn4 
	BYTE	W06
	BYTE		        En4 
	BYTE	W06
	BYTE		N15     Gn3 
	BYTE		N02     Gn4 
	BYTE	W06
	BYTE		        Bn4 
	BYTE	W06
	BYTE		        An4 
	BYTE	W06
	BYTE		N15     An3 
	BYTE		N02     Fs4 
	BYTE	W06
	BYTE		        Dn4 
	BYTE	W06
	BYTE		        En4 
	BYTE	W06
// 047   ----------------------------------------
	BYTE		N07     Cn4 
	BYTE		N02     Bn4 
	BYTE	W06
	BYTE		        En4 
	BYTE	W06
	BYTE		        Cn4 
	BYTE	W06
	BYTE		N08     Bn3 
	BYTE		N02     Gn4 
	BYTE	W06
	BYTE		        Fs4 
	BYTE	W06
	BYTE		        Dn4 
	BYTE	W06
	BYTE		        An3 
	BYTE	W06
	BYTE		N09     En3 
	BYTE		N02     Bn3 
	BYTE	W06
	BYTE		        Cn4 
	BYTE	W06
	BYTE		N15     Gn3 
	BYTE		N02     En4 
	BYTE	W06
	BYTE		        Gn4 
	BYTE	W06
	BYTE		        Bn4 
	BYTE	W06
	BYTE		N15     An3 
	BYTE		N02     An4 
	BYTE	W06
	BYTE		        Fs4 
	BYTE	W06
	BYTE		        Dn4 
	BYTE	W06
	BYTE		        Cn4 
	BYTE		N02     En4 
	BYTE	W06
	BYTE	GoTo
	 POIN2	ClashingOfWaves_4_B1
ClashingOfWaves_4_B2:
// 048   ----------------------------------------
	BYTE	FINE

//**************** Track 5 (Midi-Chn.5) ****************//

ClashingOfWaves_5:
	BYTE	KEYSH   ClashingOfWaves_key+0
// 000   ----------------------------------------
	BYTE		VOICE   11
	BYTE		MODT    0
	BYTE		LFOS    44
	BYTE		VOL     120*ClashingOfWaves_mvl/mxv
	BYTE		PAN     c_v+50
	BYTE	W12
	BYTE		N04     Bn5   v008
	BYTE	W06
	BYTE		        En5 
	BYTE	W06
	BYTE		        Cn5 
	BYTE	W06
	BYTE		        Gn5 
	BYTE	W06
	BYTE		        Fs5 
	BYTE	W06
	BYTE		        Dn5 
	BYTE	W06
	BYTE		        An4 
	BYTE	W06
	BYTE		        Bn4 
	BYTE	W06
	BYTE		        Cn5 
	BYTE	W06
	BYTE		        En5 
	BYTE	W06
	BYTE		        Gn5 
	BYTE	W06
	BYTE		        Bn5 
	BYTE	W06
	BYTE		        An5 
	BYTE	W06
	BYTE		        Fs5 
	BYTE	W06
// 001   ----------------------------------------
ClashingOfWaves_5_001:
	BYTE		N04     Dn5   v008
	BYTE	W06
	BYTE		        En5 
	BYTE	W06
	BYTE		        Bn5 
	BYTE	W06
	BYTE		        En5 
	BYTE	W06
	BYTE		        Cn5 
	BYTE	W06
	BYTE		        Gn5 
	BYTE	W06
	BYTE		        Fs5 
	BYTE	W06
	BYTE		N05     Bn4 
	BYTE		N04     Dn5 
	BYTE	W06
	BYTE		        An4 
	BYTE	W06
	BYTE		        Bn4 
	BYTE	W06
	BYTE		        Cn5 
	BYTE	W06
	BYTE		        En5 
	BYTE	W06
	BYTE		        Gn5 
	BYTE	W06
	BYTE		        Bn5 
	BYTE	W06
	BYTE		        An5 
	BYTE	W06
	BYTE		        Fs5 
	BYTE	W06
	BYTE	PEND
// 002   ----------------------------------------
ClashingOfWaves_5_002:
	BYTE		N04     Dn5   v008
	BYTE	W06
	BYTE		        En5   v012
	BYTE	W06
	BYTE		        Bn5 
	BYTE	W06
	BYTE		        En5 
	BYTE	W06
	BYTE		        Cn5 
	BYTE	W06
	BYTE		        Gn5 
	BYTE	W06
	BYTE		        Fs5 
	BYTE	W06
	BYTE		        Dn5 
	BYTE	W06
	BYTE		        An4 
	BYTE	W06
	BYTE		        Bn4 
	BYTE	W06
	BYTE		        Cn5 
	BYTE	W06
	BYTE		        En5 
	BYTE	W06
	BYTE		        Gn5 
	BYTE	W06
	BYTE		        Bn5 
	BYTE	W06
	BYTE		        An5 
	BYTE	W06
	BYTE		        Fs5 
	BYTE	W06
	BYTE	PEND
// 003   ----------------------------------------
ClashingOfWaves_5_003:
	BYTE		N04     Dn5   v012
	BYTE	W06
	BYTE		        En5 
	BYTE	W06
	BYTE		        Bn5 
	BYTE	W06
	BYTE		        En5 
	BYTE	W06
	BYTE		        Cn5 
	BYTE	W06
	BYTE		        Gn5 
	BYTE	W06
	BYTE		        Fs5 
	BYTE	W06
	BYTE		        Dn5   v016
	BYTE	W06
	BYTE		        An4 
	BYTE	W06
	BYTE		        Bn4 
	BYTE	W06
	BYTE		        Cn5 
	BYTE	W06
	BYTE		        En5 
	BYTE	W06
	BYTE		        Gn5 
	BYTE	W06
	BYTE		        Bn5 
	BYTE	W06
	BYTE		        An5 
	BYTE	W06
	BYTE		        Fs5 
	BYTE	W06
	BYTE	PEND
ClashingOfWaves_5_B1:
// 004   ----------------------------------------
	BYTE		VOL     120*ClashingOfWaves_mvl/mxv
	BYTE	W96
// 005   ----------------------------------------
	BYTE	W96
// 006   ----------------------------------------
	BYTE	W96
// 007   ----------------------------------------
	BYTE	W96
// 008   ----------------------------------------
	BYTE	W96
// 009   ----------------------------------------
	BYTE	W96
// 010   ----------------------------------------
	BYTE	W96
// 011   ----------------------------------------
	BYTE	W96
// 012   ----------------------------------------
	BYTE	W96
// 013   ----------------------------------------
	BYTE	W96
// 014   ----------------------------------------
	BYTE	W96
// 015   ----------------------------------------
	BYTE	W96
// 016   ----------------------------------------
	BYTE	W96
// 017   ----------------------------------------
	BYTE	W96
// 018   ----------------------------------------
	BYTE	W96
// 019   ----------------------------------------
	BYTE	W96
// 020   ----------------------------------------
ClashingOfWaves_5_020:
	BYTE		VOL     116*ClashingOfWaves_mvl/mxv
	BYTE		PAN     c_v+50
	BYTE	W12
	BYTE		N04     Bn5   v008
	BYTE	W06
	BYTE		        En5 
	BYTE	W06
	BYTE		        Cn5 
	BYTE	W06
	BYTE		        Gn5 
	BYTE	W06
	BYTE		        Fs5 
	BYTE	W06
	BYTE		        Dn5 
	BYTE	W06
	BYTE		        An4 
	BYTE	W06
	BYTE		        Bn4 
	BYTE	W06
	BYTE		        Cn5 
	BYTE	W06
	BYTE		        En5 
	BYTE	W06
	BYTE		        Gn5 
	BYTE	W06
	BYTE		        Bn5 
	BYTE	W06
	BYTE		        An5 
	BYTE	W06
	BYTE		        Fs5 
	BYTE	W06
	BYTE	PEND
// 021   ----------------------------------------
	BYTE	PATT
	 POIN2	ClashingOfWaves_5_001
// 022   ----------------------------------------
	BYTE	PATT
	 POIN2	ClashingOfWaves_5_002
// 023   ----------------------------------------
	BYTE	PATT
	 POIN2	ClashingOfWaves_5_003
// 024   ----------------------------------------
	BYTE	W96
// 025   ----------------------------------------
	BYTE	W96
// 026   ----------------------------------------
	BYTE	W96
// 027   ----------------------------------------
	BYTE	W96
// 028   ----------------------------------------
	BYTE	W96
// 029   ----------------------------------------
	BYTE	W96
// 030   ----------------------------------------
	BYTE	W96
// 031   ----------------------------------------
	BYTE	W96
// 032   ----------------------------------------
	BYTE	W96
// 033   ----------------------------------------
	BYTE	W96
// 034   ----------------------------------------
	BYTE	W96
// 035   ----------------------------------------
	BYTE	W96
// 036   ----------------------------------------
	BYTE	W96
// 037   ----------------------------------------
	BYTE	W96
// 038   ----------------------------------------
	BYTE	W96
// 039   ----------------------------------------
	BYTE	W96
// 040   ----------------------------------------
	BYTE	PATT
	 POIN2	ClashingOfWaves_5_020
// 041   ----------------------------------------
	BYTE	PATT
	 POIN2	ClashingOfWaves_5_001
// 042   ----------------------------------------
	BYTE	PATT
	 POIN2	ClashingOfWaves_5_002
// 043   ----------------------------------------
	BYTE	PATT
	 POIN2	ClashingOfWaves_5_003
// 044   ----------------------------------------
	BYTE	W12
	BYTE		N02     Bn4   v016
	BYTE	W06
	BYTE		        En4 
	BYTE	W06
	BYTE		        Cn4 
	BYTE	W06
	BYTE		        Gn4 
	BYTE	W06
	BYTE		        Fs4 
	BYTE	W06
	BYTE		        Dn4 
	BYTE	W06
	BYTE		        An3 
	BYTE	W06
	BYTE		        Bn3 
	BYTE	W06
	BYTE		        Cn4 
	BYTE	W06
	BYTE		        En4 
	BYTE	W06
	BYTE		        Gn4 
	BYTE	W06
	BYTE		        Bn4 
	BYTE	W06
	BYTE		        An4 
	BYTE	W06
	BYTE		        Fs4 
	BYTE	W06
// 045   ----------------------------------------
	BYTE		        Dn4 
	BYTE	W06
	BYTE		        En4 
	BYTE	W06
	BYTE		        Bn4 
	BYTE	W06
	BYTE		        En4 
	BYTE	W06
	BYTE		        Cn4 
	BYTE	W06
	BYTE		        Gn4 
	BYTE	W06
	BYTE		        Fs4 
	BYTE	W06
	BYTE		        Bn3 
	BYTE		N02     Dn4 
	BYTE	W06
	BYTE		        An3 
	BYTE	W06
	BYTE		        Bn3 
	BYTE	W06
	BYTE		        Cn4 
	BYTE	W06
	BYTE		        En4 
	BYTE	W06
	BYTE		        Gn4 
	BYTE	W06
	BYTE		        Bn4 
	BYTE	W06
	BYTE		        An4 
	BYTE	W06
	BYTE		        Fs4 
	BYTE	W06
// 046   ----------------------------------------
ClashingOfWaves_5_046:
	BYTE		N02     Dn4   v016
	BYTE	W06
	BYTE		        En4 
	BYTE	W06
	BYTE		        Bn4 
	BYTE	W06
	BYTE		        En4 
	BYTE	W06
	BYTE		        Cn4 
	BYTE	W06
	BYTE		        Gn4 
	BYTE	W06
	BYTE		        Fs4 
	BYTE	W06
	BYTE		        Dn4 
	BYTE	W06
	BYTE		        An3 
	BYTE	W06
	BYTE		        Bn3 
	BYTE	W06
	BYTE		        Cn4 
	BYTE	W06
	BYTE		        En4 
	BYTE	W06
	BYTE		        Gn4 
	BYTE	W06
	BYTE		        Bn4 
	BYTE	W06
	BYTE		        An4 
	BYTE	W06
	BYTE		        Fs4 
	BYTE	W06
	BYTE	PEND
// 047   ----------------------------------------
	BYTE	PATT
	 POIN2	ClashingOfWaves_5_046
	BYTE	GoTo
	 POIN2	ClashingOfWaves_5_B1
ClashingOfWaves_5_B2:
// 048   ----------------------------------------
	BYTE	FINE

//**************** Track 6 (Midi-Chn.6) ****************//

ClashingOfWaves_6:
	BYTE	KEYSH   ClashingOfWaves_key+0
// 000   ----------------------------------------
	BYTE		VOICE   40
	BYTE		MODT    0
	BYTE		LFOS    44
	BYTE		PAN     c_v-23
	BYTE		VOL     120*ClashingOfWaves_mvl/mxv
	BYTE	W96
// 001   ----------------------------------------
	BYTE	W96
// 002   ----------------------------------------
	BYTE	W96
// 003   ----------------------------------------
	BYTE	W96
ClashingOfWaves_6_B1:
// 004   ----------------------------------------
ClashingOfWaves_6_004:
	BYTE	W24
	BYTE		N32     An3   v072
	BYTE	W36
	BYTE		        En4   v076
	BYTE	W36
	BYTE	PEND
// 005   ----------------------------------------
ClashingOfWaves_6_005:
	BYTE		N40     En4   v068
	BYTE	W48
	BYTE		N16     En4   v060
	BYTE	W18
	BYTE		        Dn4   v064
	BYTE	W18
	BYTE		N10     Cn4   v060
	BYTE	W12
	BYTE	PEND
// 006   ----------------------------------------
ClashingOfWaves_6_006:
	BYTE		N56     Bn3   v064
	BYTE	W60
	BYTE		N11     Bn3   v020
	BYTE	W12
	BYTE		N22     Gn3   v064
	BYTE	W24
	BYTE	PEND
// 007   ----------------------------------------
ClashingOfWaves_6_007:
	BYTE		N60     En3   v064
	BYTE	W66
	BYTE		N16     Fn3 
	BYTE	W18
	BYTE		N10     Gn3   v068
	BYTE	W12
	BYTE	PEND
// 008   ----------------------------------------
ClashingOfWaves_6_008:
	BYTE		N23     An3   v064
	BYTE	W24
	BYTE		N11     An3   v020
	BYTE	W12
	BYTE		N56     En4   v076
	BYTE	W60
	BYTE	PEND
// 009   ----------------------------------------
ClashingOfWaves_6_009:
	BYTE		N56     Cn4   v072
	BYTE	W60
	BYTE		N11     Cn4   v020
	BYTE	W12
	BYTE		        An3   v064
	BYTE	W12
	BYTE		N10     Bn3 
	BYTE	W12
	BYTE	PEND
// 010   ----------------------------------------
	BYTE		N92     Cn4   v076
	BYTE	W96
// 011   ----------------------------------------
ClashingOfWaves_6_011:
	BYTE		N80     Bn3   v068
	BYTE	W84
	BYTE		N21     Bn3   v020
	BYTE	W12
	BYTE	PEND
// 012   ----------------------------------------
ClashingOfWaves_6_012:
	BYTE	W24
	BYTE		N32     An3   v064
	BYTE	W36
	BYTE		        En4   v068
	BYTE	W36
	BYTE	PEND
// 013   ----------------------------------------
ClashingOfWaves_6_013:
	BYTE		N60     En4   v064
	BYTE	W66
	BYTE		N14     Dn4   v072
	BYTE	W18
	BYTE		N11     Cn4   v068
	BYTE	W12
	BYTE	PEND
// 014   ----------------------------------------
ClashingOfWaves_6_014:
	BYTE		N68     Dn4   v072
	BYTE	W72
	BYTE		N21     Bn3 
	BYTE	W24
	BYTE	PEND
// 015   ----------------------------------------
ClashingOfWaves_6_015:
	BYTE		N56     Gn3   v060
	BYTE	W60
	BYTE		N11     Gn3   v020
	BYTE	W12
	BYTE		N23     En3   v064
	BYTE	W24
	BYTE	PEND
// 016   ----------------------------------------
ClashingOfWaves_6_016:
	BYTE		N22     An3   v076
	BYTE	W24
	BYTE		N11     An3   v024
	BYTE	W12
	BYTE		N56     En4   v072
	BYTE	W60
	BYTE	PEND
// 017   ----------------------------------------
ClashingOfWaves_6_017:
	BYTE		N68     Cn4   v076
	BYTE	W72
	BYTE		N11     An3   v064
	BYTE	W12
	BYTE		N09     Bn3   v068
	BYTE	W12
	BYTE	PEND
// 018   ----------------------------------------
	BYTE		N92     Cn4   v064
	BYTE	W96
// 019   ----------------------------------------
ClashingOfWaves_6_019:
	BYTE		N44     Bn3   v072
	BYTE	W48
	BYTE		N42     En4 
	BYTE	W48
	BYTE	PEND
// 020   ----------------------------------------
ClashingOfWaves_6_020:
	BYTE		N03     En4   v080
	BYTE	W06
	BYTE		        An3   v068
	BYTE	W06
	BYTE		        An3   v020
	BYTE	W06
	BYTE		        An3   v072
	BYTE	W12
	BYTE		        An3   v024
	BYTE	W12
	BYTE		        An3   v008
	BYTE	W54
	BYTE	PEND
// 021   ----------------------------------------
ClashingOfWaves_6_021:
	BYTE	W54
	BYTE		N04     As2   v060
	BYTE	W06
	BYTE		        Dn3   v064
	BYTE	W06
	BYTE		        En3   v072
	BYTE	W06
	BYTE		        Gn3   v068
	BYTE	W06
	BYTE		        As3 
	BYTE	W06
	BYTE		        Dn4   v064
	BYTE	W06
	BYTE		        Fn4   v072
	BYTE	W06
	BYTE	PEND
// 022   ----------------------------------------
ClashingOfWaves_6_022:
	BYTE		N04     En4   v080
	BYTE	W06
	BYTE		        An3   v068
	BYTE	W06
	BYTE		        An3   v020
	BYTE	W06
	BYTE		        An3   v064
	BYTE	W12
	BYTE		        An3   v020
	BYTE	W12
	BYTE		        An3   v008
	BYTE	W54
	BYTE	PEND
// 023   ----------------------------------------
	BYTE	W96
// 024   ----------------------------------------
	BYTE	PATT
	 POIN2	ClashingOfWaves_6_004
// 025   ----------------------------------------
	BYTE	PATT
	 POIN2	ClashingOfWaves_6_005
// 026   ----------------------------------------
	BYTE	PATT
	 POIN2	ClashingOfWaves_6_006
// 027   ----------------------------------------
	BYTE	PATT
	 POIN2	ClashingOfWaves_6_007
// 028   ----------------------------------------
	BYTE	PATT
	 POIN2	ClashingOfWaves_6_008
// 029   ----------------------------------------
	BYTE	PATT
	 POIN2	ClashingOfWaves_6_009
// 030   ----------------------------------------
	BYTE		N92     Cn4   v076
	BYTE	W96
// 031   ----------------------------------------
	BYTE	PATT
	 POIN2	ClashingOfWaves_6_011
// 032   ----------------------------------------
	BYTE	PATT
	 POIN2	ClashingOfWaves_6_012
// 033   ----------------------------------------
	BYTE	PATT
	 POIN2	ClashingOfWaves_6_013
// 034   ----------------------------------------
	BYTE	PATT
	 POIN2	ClashingOfWaves_6_014
// 035   ----------------------------------------
	BYTE	PATT
	 POIN2	ClashingOfWaves_6_015
// 036   ----------------------------------------
	BYTE	PATT
	 POIN2	ClashingOfWaves_6_016
// 037   ----------------------------------------
	BYTE	PATT
	 POIN2	ClashingOfWaves_6_017
// 038   ----------------------------------------
	BYTE		N92     Cn4   v064
	BYTE	W96
// 039   ----------------------------------------
	BYTE	PATT
	 POIN2	ClashingOfWaves_6_019
// 040   ----------------------------------------
	BYTE	PATT
	 POIN2	ClashingOfWaves_6_020
// 041   ----------------------------------------
	BYTE	PATT
	 POIN2	ClashingOfWaves_6_021
// 042   ----------------------------------------
	BYTE	PATT
	 POIN2	ClashingOfWaves_6_022
// 043   ----------------------------------------
	BYTE	W96
// 044   ----------------------------------------
	BYTE	W96
// 045   ----------------------------------------
	BYTE	W96
// 046   ----------------------------------------
	BYTE	W96
// 047   ----------------------------------------
	BYTE	W96
	BYTE	GoTo
	 POIN2	ClashingOfWaves_6_B1
ClashingOfWaves_6_B2:
// 048   ----------------------------------------
	BYTE	FINE

//**************** Track 7 (Midi-Chn.7) ****************//

ClashingOfWaves_7:
	BYTE	KEYSH   ClashingOfWaves_key+0
// 000   ----------------------------------------
	BYTE		VOICE   40
	BYTE		MODT    0
	BYTE		LFOS    44
	BYTE		PAN     c_v+26
	BYTE		VOL     100*ClashingOfWaves_mvl/mxv
	BYTE	W96
// 001   ----------------------------------------
	BYTE	W96
// 002   ----------------------------------------
	BYTE	W96
// 003   ----------------------------------------
	BYTE	W96
ClashingOfWaves_7_B1:
// 004   ----------------------------------------
ClashingOfWaves_7_004:
	BYTE	W36
	BYTE		N32     An3   v032
	BYTE	W36
	BYTE		        En4 
	BYTE	W24
	BYTE	PEND
// 005   ----------------------------------------
ClashingOfWaves_7_005:
	BYTE	W12
	BYTE		N40     En4   v028
	BYTE	W48
	BYTE		N16     En4   v024
	BYTE	W18
	BYTE		        Dn4 
	BYTE	W18
	BYTE	PEND
// 006   ----------------------------------------
ClashingOfWaves_7_006:
	BYTE		N10     Cn4   v024
	BYTE	W12
	BYTE		N56     Bn3   v028
	BYTE	W60
	BYTE		N11     Bn3   v008
	BYTE	W12
	BYTE		N22     Gn3   v028
	BYTE	W12
	BYTE	PEND
// 007   ----------------------------------------
ClashingOfWaves_7_007:
	BYTE	W12
	BYTE		N60     En3   v024
	BYTE	W66
	BYTE		N16     Fn3   v028
	BYTE	W18
	BYTE	PEND
// 008   ----------------------------------------
ClashingOfWaves_7_008:
	BYTE		N10     Gn3   v028
	BYTE	W12
	BYTE		N23     An3   v024
	BYTE	W24
	BYTE		N11     An3   v008
	BYTE	W12
	BYTE		N56     En4   v032
	BYTE	W48
	BYTE	PEND
// 009   ----------------------------------------
ClashingOfWaves_7_009:
	BYTE	W12
	BYTE		N56     Cn4   v032
	BYTE	W60
	BYTE		N11     Cn4   v008
	BYTE	W12
	BYTE		        An3   v028
	BYTE	W12
	BYTE	PEND
// 010   ----------------------------------------
ClashingOfWaves_7_010:
	BYTE		N10     Bn3   v024
	BYTE	W12
	BYTE		N92     Cn4   v032
	BYTE	W84
	BYTE	PEND
// 011   ----------------------------------------
	BYTE	W12
	BYTE		N80     Bn3   v028
	BYTE	W84
// 012   ----------------------------------------
ClashingOfWaves_7_012:
	BYTE		N21     Bn3   v008
	BYTE	W24
	BYTE		N32     En3   v064
	BYTE	W36
	BYTE		        Bn3   v068
	BYTE	W36
	BYTE	PEND
// 013   ----------------------------------------
ClashingOfWaves_7_013:
	BYTE		N60     Cn4   v064
	BYTE	W66
	BYTE		N14     Bn3   v072
	BYTE	W18
	BYTE		N10     An3   v068
	BYTE	W12
	BYTE	PEND
// 014   ----------------------------------------
ClashingOfWaves_7_014:
	BYTE		N68     Bn3   v072
	BYTE	W72
	BYTE		N21     Gn3 
	BYTE	W24
	BYTE	PEND
// 015   ----------------------------------------
ClashingOfWaves_7_015:
	BYTE		N56     En3   v060
	BYTE	W60
	BYTE		N11     En3   v020
	BYTE	W12
	BYTE		N23     Bn2   v064
	BYTE	W24
	BYTE	PEND
// 016   ----------------------------------------
ClashingOfWaves_7_016:
	BYTE		N22     En3   v076
	BYTE	W24
	BYTE		N11     En3   v024
	BYTE	W12
	BYTE		N56     An3   v072
	BYTE	W60
	BYTE	PEND
// 017   ----------------------------------------
ClashingOfWaves_7_017:
	BYTE		N68     Fn3   v076
	BYTE	W72
	BYTE		N11     Fn3   v064
	BYTE	W12
	BYTE		        Gn3   v068
	BYTE	W12
	BYTE	PEND
// 018   ----------------------------------------
	BYTE		N92     An3   v064
	BYTE	W96
// 019   ----------------------------------------
	BYTE		N90     Gs3   v072
	BYTE	W96
// 020   ----------------------------------------
ClashingOfWaves_7_020:
	BYTE		N03     Bn3   v080
	BYTE	W06
	BYTE		        En3   v068
	BYTE	W06
	BYTE		        En3   v020
	BYTE	W06
	BYTE		        En3   v072
	BYTE	W12
	BYTE		        En3   v024
	BYTE	W12
	BYTE		        En3   v008
	BYTE	W54
	BYTE	PEND
// 021   ----------------------------------------
ClashingOfWaves_7_021:
	BYTE	W54
	BYTE		N04     Fn2   v060
	BYTE	W06
	BYTE		        An2   v064
	BYTE	W06
	BYTE		        Bn2   v072
	BYTE	W06
	BYTE		        Dn3   v068
	BYTE	W06
	BYTE		        Fn3 
	BYTE	W06
	BYTE		        An3   v064
	BYTE	W06
	BYTE		        Cn4   v072
	BYTE	W06
	BYTE	PEND
// 022   ----------------------------------------
ClashingOfWaves_7_022:
	BYTE		N04     Bn3   v080
	BYTE	W06
	BYTE		        En3   v068
	BYTE	W06
	BYTE		        En3   v020
	BYTE	W06
	BYTE		        En3   v064
	BYTE	W12
	BYTE		        En3   v020
	BYTE	W12
	BYTE		        En3   v008
	BYTE	W54
	BYTE	PEND
// 023   ----------------------------------------
	BYTE	W96
// 024   ----------------------------------------
	BYTE	PATT
	 POIN2	ClashingOfWaves_7_004
// 025   ----------------------------------------
	BYTE	PATT
	 POIN2	ClashingOfWaves_7_005
// 026   ----------------------------------------
	BYTE	PATT
	 POIN2	ClashingOfWaves_7_006
// 027   ----------------------------------------
	BYTE	PATT
	 POIN2	ClashingOfWaves_7_007
// 028   ----------------------------------------
	BYTE	PATT
	 POIN2	ClashingOfWaves_7_008
// 029   ----------------------------------------
	BYTE	PATT
	 POIN2	ClashingOfWaves_7_009
// 030   ----------------------------------------
	BYTE	PATT
	 POIN2	ClashingOfWaves_7_010
// 031   ----------------------------------------
	BYTE	W12
	BYTE		N80     Bn3   v028
	BYTE	W84
// 032   ----------------------------------------
	BYTE	PATT
	 POIN2	ClashingOfWaves_7_012
// 033   ----------------------------------------
	BYTE	PATT
	 POIN2	ClashingOfWaves_7_013
// 034   ----------------------------------------
	BYTE	PATT
	 POIN2	ClashingOfWaves_7_014
// 035   ----------------------------------------
	BYTE	PATT
	 POIN2	ClashingOfWaves_7_015
// 036   ----------------------------------------
	BYTE	PATT
	 POIN2	ClashingOfWaves_7_016
// 037   ----------------------------------------
	BYTE	PATT
	 POIN2	ClashingOfWaves_7_017
// 038   ----------------------------------------
	BYTE		N92     An3   v064
	BYTE	W96
// 039   ----------------------------------------
	BYTE		N90     Gs3   v072
	BYTE	W96
// 040   ----------------------------------------
	BYTE	PATT
	 POIN2	ClashingOfWaves_7_020
// 041   ----------------------------------------
	BYTE	PATT
	 POIN2	ClashingOfWaves_7_021
// 042   ----------------------------------------
	BYTE	PATT
	 POIN2	ClashingOfWaves_7_022
// 043   ----------------------------------------
	BYTE	W96
// 044   ----------------------------------------
	BYTE	W96
// 045   ----------------------------------------
	BYTE	W96
// 046   ----------------------------------------
	BYTE	W96
// 047   ----------------------------------------
	BYTE	W96
	BYTE	GoTo
	 POIN2	ClashingOfWaves_7_B1
ClashingOfWaves_7_B2:
// 048   ----------------------------------------
	BYTE	FINE

//**************** Track 8 (Midi-Chn.8) ****************//

ClashingOfWaves_8:
	BYTE	KEYSH   ClashingOfWaves_key+0
// 000   ----------------------------------------
	BYTE		VOICE   30
	BYTE		MODT    0
	BYTE		LFOS    44
	BYTE		PAN     c_v+8
	BYTE		VOL     127*ClashingOfWaves_mvl/mxv
	BYTE		MOD     0
	BYTE	W96
// 001   ----------------------------------------
	BYTE	W96
// 002   ----------------------------------------
	BYTE	W96
// 003   ----------------------------------------
	BYTE	W96
ClashingOfWaves_8_B1:
// 004   ----------------------------------------
	BYTE	W24
	BYTE		N11     An2   v060
	BYTE	W72
// 005   ----------------------------------------
ClashingOfWaves_8_005:
	BYTE	W42
	BYTE		N11     An2   v060
	BYTE	W24
	BYTE		N05   
	BYTE	W30
	BYTE	PEND
// 006   ----------------------------------------
	BYTE	W42
	BYTE		N11   
	BYTE	W54
// 007   ----------------------------------------
ClashingOfWaves_8_007:
	BYTE	W42
	BYTE		N11     An2   v060
	BYTE	W24
	BYTE		N17   
	BYTE	W18
	BYTE		N11     Gn2 
	BYTE	W12
	BYTE	PEND
// 008   ----------------------------------------
ClashingOfWaves_8_008:
	BYTE		N11     Fn2   v064
	BYTE	W42
	BYTE		N11   
	BYTE	W12
	BYTE		N05     Fn2   v056
	BYTE	W18
	BYTE		N11     Fn2   v064
	BYTE	W24
	BYTE	PEND
// 009   ----------------------------------------
ClashingOfWaves_8_009:
	BYTE		N11     Dn2   v064
	BYTE	W42
	BYTE		N11   
	BYTE	W12
	BYTE		N05     Dn2   v056
	BYTE	W18
	BYTE		N11     Dn2   v064
	BYTE	W24
	BYTE	PEND
// 010   ----------------------------------------
ClashingOfWaves_8_010:
	BYTE		N11     En2   v064
	BYTE	W42
	BYTE		N11   
	BYTE	W12
	BYTE		N05     En2   v056
	BYTE	W18
	BYTE		N11     En2   v064
	BYTE	W24
	BYTE	PEND
// 011   ----------------------------------------
ClashingOfWaves_8_011:
	BYTE		N11     En2   v064
	BYTE	W42
	BYTE		N11   
	BYTE	W54
	BYTE	PEND
// 012   ----------------------------------------
	BYTE	W24
	BYTE		        An2   v060
	BYTE	W72
// 013   ----------------------------------------
	BYTE	PATT
	 POIN2	ClashingOfWaves_8_005
// 014   ----------------------------------------
	BYTE	W42
	BYTE		N11     An2   v060
	BYTE	W54
// 015   ----------------------------------------
	BYTE	PATT
	 POIN2	ClashingOfWaves_8_007
// 016   ----------------------------------------
	BYTE	PATT
	 POIN2	ClashingOfWaves_8_008
// 017   ----------------------------------------
	BYTE	PATT
	 POIN2	ClashingOfWaves_8_009
// 018   ----------------------------------------
	BYTE	PATT
	 POIN2	ClashingOfWaves_8_010
// 019   ----------------------------------------
	BYTE	PATT
	 POIN2	ClashingOfWaves_8_011
// 020   ----------------------------------------
ClashingOfWaves_8_020:
	BYTE		N11     An2   v064
	BYTE	W18
	BYTE		N05     An2   v056
	BYTE	W18
	BYTE		N17     As2   v060
	BYTE	W24
	BYTE		N11     As2   v056
	BYTE	W18
	BYTE		        Gn2 
	BYTE	W18
	BYTE	PEND
// 021   ----------------------------------------
ClashingOfWaves_8_021:
	BYTE		N11     An2   v064
	BYTE	W18
	BYTE		N05     An2   v056
	BYTE	W18
	BYTE		N11     As2   v060
	BYTE	W24
	BYTE		        As2   v056
	BYTE	W18
	BYTE		N17     Cn3 
	BYTE	W18
	BYTE	PEND
// 022   ----------------------------------------
	BYTE	PATT
	 POIN2	ClashingOfWaves_8_020
// 023   ----------------------------------------
ClashingOfWaves_8_023:
	BYTE		N11     An2   v064
	BYTE	W18
	BYTE		N05     An2   v056
	BYTE	W18
	BYTE		N11     As2   v060
	BYTE	W24
	BYTE		        As2   v056
	BYTE	W36
	BYTE	PEND
// 024   ----------------------------------------
	BYTE	W24
	BYTE		        An2   v060
	BYTE	W72
// 025   ----------------------------------------
	BYTE	PATT
	 POIN2	ClashingOfWaves_8_005
// 026   ----------------------------------------
	BYTE	W42
	BYTE		N11     An2   v060
	BYTE	W54
// 027   ----------------------------------------
	BYTE	PATT
	 POIN2	ClashingOfWaves_8_007
// 028   ----------------------------------------
	BYTE	PATT
	 POIN2	ClashingOfWaves_8_008
// 029   ----------------------------------------
	BYTE	PATT
	 POIN2	ClashingOfWaves_8_009
// 030   ----------------------------------------
	BYTE	PATT
	 POIN2	ClashingOfWaves_8_010
// 031   ----------------------------------------
	BYTE	PATT
	 POIN2	ClashingOfWaves_8_011
// 032   ----------------------------------------
	BYTE	W24
	BYTE		N11     An2   v060
	BYTE	W72
// 033   ----------------------------------------
	BYTE	PATT
	 POIN2	ClashingOfWaves_8_005
// 034   ----------------------------------------
	BYTE	W42
	BYTE		N11     An2   v060
	BYTE	W54
// 035   ----------------------------------------
	BYTE	PATT
	 POIN2	ClashingOfWaves_8_007
// 036   ----------------------------------------
	BYTE	PATT
	 POIN2	ClashingOfWaves_8_008
// 037   ----------------------------------------
	BYTE	PATT
	 POIN2	ClashingOfWaves_8_009
// 038   ----------------------------------------
	BYTE	PATT
	 POIN2	ClashingOfWaves_8_010
// 039   ----------------------------------------
	BYTE	PATT
	 POIN2	ClashingOfWaves_8_011
// 040   ----------------------------------------
	BYTE	PATT
	 POIN2	ClashingOfWaves_8_020
// 041   ----------------------------------------
	BYTE	PATT
	 POIN2	ClashingOfWaves_8_021
// 042   ----------------------------------------
	BYTE	PATT
	 POIN2	ClashingOfWaves_8_020
// 043   ----------------------------------------
	BYTE	PATT
	 POIN2	ClashingOfWaves_8_023
// 044   ----------------------------------------
	BYTE	W96
// 045   ----------------------------------------
	BYTE	W96
// 046   ----------------------------------------
	BYTE	W96
// 047   ----------------------------------------
	BYTE	W96
	BYTE	GoTo
	 POIN2	ClashingOfWaves_8_B1
ClashingOfWaves_8_B2:
// 048   ----------------------------------------
	BYTE	FINE

//**************** Track 9 (Midi-Chn.9) ****************//

ClashingOfWaves_9:
	BYTE	KEYSH   ClashingOfWaves_key+0
// 000   ----------------------------------------
	BYTE		VOICE   4
	BYTE		MODT    0
	BYTE		LFOS    44
	BYTE		VOL     87*ClashingOfWaves_mvl/mxv
	BYTE		PAN     c_v-4
	BYTE		MOD     0
	BYTE		N04     An2   v096
	BYTE	W06
	BYTE		        An2   v080
	BYTE	W06
	BYTE		        Gn2   v096
	BYTE	W06
	BYTE		N05     An2 
	BYTE	W12
	BYTE		N04     Gn2 
	BYTE	W06
	BYTE		        An2 
	BYTE	W06
	BYTE		N04   
	BYTE	W06
	BYTE		        Gn2 
	BYTE	W06
	BYTE		        An2 
	BYTE	W12
	BYTE		        Gn2 
	BYTE	W06
	BYTE		        An2 
	BYTE	W06
	BYTE		N04   
	BYTE	W06
	BYTE		        Gn2 
	BYTE	W06
	BYTE		N04   
	BYTE	W06
// 001   ----------------------------------------
ClashingOfWaves_9_001:
	BYTE		N04     An2   v096
	BYTE	W06
	BYTE		        An2   v080
	BYTE	W06
	BYTE		        Gn2   v096
	BYTE	W06
	BYTE		N05     An2 
	BYTE	W12
	BYTE		N04     Gn2 
	BYTE	W06
	BYTE		        An2 
	BYTE	W06
	BYTE		N04   
	BYTE	W06
	BYTE		        Gn2 
	BYTE	W06
	BYTE		        An2 
	BYTE	W12
	BYTE		        Gn2 
	BYTE	W06
	BYTE		        An2 
	BYTE	W06
	BYTE		N04   
	BYTE	W06
	BYTE		        Gn2 
	BYTE	W06
	BYTE		N04   
	BYTE	W06
	BYTE	PEND
// 002   ----------------------------------------
	BYTE	PATT
	 POIN2	ClashingOfWaves_9_001
// 003   ----------------------------------------
	BYTE		N04     An2   v096
	BYTE	W06
	BYTE		        An2   v080
	BYTE	W06
	BYTE		        Gn2   v096
	BYTE	W06
	BYTE		N05     An2 
	BYTE	W12
	BYTE		N04     Gn2 
	BYTE	W06
	BYTE		        An2 
	BYTE	W06
	BYTE		N04   
	BYTE	W06
	BYTE		        Gn2 
	BYTE	W06
	BYTE		        An2 
	BYTE	W06
	BYTE		N04   
	BYTE	W36
ClashingOfWaves_9_B1:
// 004   ----------------------------------------
ClashingOfWaves_9_004:
	BYTE	W12
	BYTE		N04     An2   v080
	BYTE	W06
	BYTE		        An2   v084
	BYTE	W18
	BYTE		        Gn2 
	BYTE	W18
	BYTE		        An2   v080
	BYTE	W06
	BYTE		        An2   v084
	BYTE	W24
	BYTE		        An2   v080
	BYTE	W06
	BYTE		        An2   v084
	BYTE	W06
	BYTE	PEND
// 005   ----------------------------------------
ClashingOfWaves_9_005:
	BYTE	W12
	BYTE		N04     An2   v080
	BYTE	W06
	BYTE		        An2   v084
	BYTE	W06
	BYTE		N04   
	BYTE	W06
	BYTE		        Gn2 
	BYTE	W06
	BYTE		N04   
	BYTE	W18
	BYTE		        An2   v080
	BYTE	W06
	BYTE		        An2   v084
	BYTE	W12
	BYTE		N04   
	BYTE	W06
	BYTE		N04   
	BYTE	W06
	BYTE		        An2   v080
	BYTE	W06
	BYTE		        An2   v084
	BYTE	W06
	BYTE	PEND
// 006   ----------------------------------------
ClashingOfWaves_9_006:
	BYTE	W12
	BYTE		N04     An2   v080
	BYTE	W06
	BYTE		        An2   v084
	BYTE	W06
	BYTE		        An2   v080
	BYTE	W06
	BYTE		        Gn2   v084
	BYTE	W06
	BYTE		N04   
	BYTE	W18
	BYTE		        An2   v080
	BYTE	W06
	BYTE		        An2   v084
	BYTE	W24
	BYTE		        An2   v080
	BYTE	W06
	BYTE		        An2   v084
	BYTE	W06
	BYTE	PEND
// 007   ----------------------------------------
ClashingOfWaves_9_007:
	BYTE	W12
	BYTE		N04     An2   v080
	BYTE	W06
	BYTE		        An2   v084
	BYTE	W06
	BYTE		N04   
	BYTE	W06
	BYTE		        Gn2 
	BYTE	W06
	BYTE		N04   
	BYTE	W18
	BYTE		        An2   v080
	BYTE	W06
	BYTE		        An2   v084
	BYTE	W36
	BYTE	PEND
// 008   ----------------------------------------
ClashingOfWaves_9_008:
	BYTE	W12
	BYTE		N04     Fn2   v068
	BYTE	W06
	BYTE		        Fn2   v064
	BYTE	W06
	BYTE		        Fn2   v068
	BYTE	W06
	BYTE		        Fn2   v056
	BYTE	W06
	BYTE		        Fn2   v068
	BYTE	W24
	BYTE		        Fn2   v076
	BYTE	W06
	BYTE		        Fn2   v080
	BYTE	W18
	BYTE		        Fn2   v072
	BYTE	W12
	BYTE	PEND
// 009   ----------------------------------------
ClashingOfWaves_9_009:
	BYTE	W12
	BYTE		N04     Dn3   v068
	BYTE	W06
	BYTE		        Dn3   v064
	BYTE	W06
	BYTE		        Dn3   v068
	BYTE	W06
	BYTE		        Dn3   v056
	BYTE	W06
	BYTE		        Dn3   v068
	BYTE	W24
	BYTE		        Dn3   v076
	BYTE	W06
	BYTE		        Dn3   v080
	BYTE	W18
	BYTE		        Dn3   v072
	BYTE	W12
	BYTE	PEND
// 010   ----------------------------------------
ClashingOfWaves_9_010:
	BYTE	W12
	BYTE		N04     En2   v068
	BYTE	W06
	BYTE		        En2   v064
	BYTE	W06
	BYTE		        En2   v068
	BYTE	W06
	BYTE		        En2   v056
	BYTE	W06
	BYTE		        En2   v068
	BYTE	W24
	BYTE		        En2   v076
	BYTE	W06
	BYTE		        En2   v080
	BYTE	W18
	BYTE		        En2   v072
	BYTE	W12
	BYTE	PEND
// 011   ----------------------------------------
ClashingOfWaves_9_011:
	BYTE	W12
	BYTE		N04     En2   v068
	BYTE	W06
	BYTE		        En2   v064
	BYTE	W06
	BYTE		        En2   v068
	BYTE	W06
	BYTE		        En2   v056
	BYTE	W06
	BYTE		        En2   v068
	BYTE	W18
	BYTE		        Dn3 
	BYTE	W06
	BYTE		        Ds3 
	BYTE	W06
	BYTE		        En3   v060
	BYTE	W06
	BYTE		N05   
	BYTE	W24
	BYTE	PEND
// 012   ----------------------------------------
	BYTE	PATT
	 POIN2	ClashingOfWaves_9_004
// 013   ----------------------------------------
	BYTE	PATT
	 POIN2	ClashingOfWaves_9_005
// 014   ----------------------------------------
	BYTE	PATT
	 POIN2	ClashingOfWaves_9_006
// 015   ----------------------------------------
	BYTE	PATT
	 POIN2	ClashingOfWaves_9_007
// 016   ----------------------------------------
	BYTE	PATT
	 POIN2	ClashingOfWaves_9_008
// 017   ----------------------------------------
	BYTE	PATT
	 POIN2	ClashingOfWaves_9_009
// 018   ----------------------------------------
	BYTE	PATT
	 POIN2	ClashingOfWaves_9_010
// 019   ----------------------------------------
	BYTE	PATT
	 POIN2	ClashingOfWaves_9_011
// 020   ----------------------------------------
ClashingOfWaves_9_020:
	BYTE	W12
	BYTE		N06     An2   v096
	BYTE	W18
	BYTE		N06   
	BYTE	W24
	BYTE		N05     As2 
	BYTE	W18
	BYTE		N05   
	BYTE	W18
	BYTE		        Gn2 
	BYTE	W06
	BYTE	PEND
// 021   ----------------------------------------
ClashingOfWaves_9_021:
	BYTE	W12
	BYTE		N06     An2   v096
	BYTE	W18
	BYTE		N06   
	BYTE	W18
	BYTE		N05     As2 
	BYTE	W06
	BYTE		N05   
	BYTE	W18
	BYTE		N05   
	BYTE	W24
	BYTE	PEND
// 022   ----------------------------------------
	BYTE	PATT
	 POIN2	ClashingOfWaves_9_020
// 023   ----------------------------------------
	BYTE	PATT
	 POIN2	ClashingOfWaves_9_021
// 024   ----------------------------------------
	BYTE	PATT
	 POIN2	ClashingOfWaves_9_004
// 025   ----------------------------------------
	BYTE	PATT
	 POIN2	ClashingOfWaves_9_005
// 026   ----------------------------------------
	BYTE	PATT
	 POIN2	ClashingOfWaves_9_006
// 027   ----------------------------------------
	BYTE	PATT
	 POIN2	ClashingOfWaves_9_007
// 028   ----------------------------------------
	BYTE	PATT
	 POIN2	ClashingOfWaves_9_008
// 029   ----------------------------------------
	BYTE	PATT
	 POIN2	ClashingOfWaves_9_009
// 030   ----------------------------------------
	BYTE	PATT
	 POIN2	ClashingOfWaves_9_010
// 031   ----------------------------------------
	BYTE	PATT
	 POIN2	ClashingOfWaves_9_011
// 032   ----------------------------------------
	BYTE	PATT
	 POIN2	ClashingOfWaves_9_004
// 033   ----------------------------------------
	BYTE	PATT
	 POIN2	ClashingOfWaves_9_005
// 034   ----------------------------------------
	BYTE	PATT
	 POIN2	ClashingOfWaves_9_006
// 035   ----------------------------------------
	BYTE	PATT
	 POIN2	ClashingOfWaves_9_007
// 036   ----------------------------------------
	BYTE	PATT
	 POIN2	ClashingOfWaves_9_008
// 037   ----------------------------------------
	BYTE	PATT
	 POIN2	ClashingOfWaves_9_009
// 038   ----------------------------------------
	BYTE	PATT
	 POIN2	ClashingOfWaves_9_010
// 039   ----------------------------------------
	BYTE	PATT
	 POIN2	ClashingOfWaves_9_011
// 040   ----------------------------------------
	BYTE	PATT
	 POIN2	ClashingOfWaves_9_020
// 041   ----------------------------------------
	BYTE	PATT
	 POIN2	ClashingOfWaves_9_021
// 042   ----------------------------------------
	BYTE	PATT
	 POIN2	ClashingOfWaves_9_020
// 043   ----------------------------------------
	BYTE	PATT
	 POIN2	ClashingOfWaves_9_021
// 044   ----------------------------------------
	BYTE	PATT
	 POIN2	ClashingOfWaves_9_001
// 045   ----------------------------------------
	BYTE	PATT
	 POIN2	ClashingOfWaves_9_001
// 046   ----------------------------------------
	BYTE	PATT
	 POIN2	ClashingOfWaves_9_001
// 047   ----------------------------------------
	BYTE		N04     An2   v096
	BYTE	W06
	BYTE		        An2   v080
	BYTE	W06
	BYTE		        Gn2   v096
	BYTE	W06
	BYTE		N05     An2 
	BYTE	W12
	BYTE		N04     Gn2 
	BYTE	W06
	BYTE		        An2 
	BYTE	W06
	BYTE		N04   
	BYTE	W06
	BYTE		        Gn2 
	BYTE	W06
	BYTE		        An2 
	BYTE	W12
	BYTE		        Gn2 
	BYTE	W06
	BYTE		        An2 
	BYTE	W24
	BYTE	GoTo
	 POIN2	ClashingOfWaves_9_B1
ClashingOfWaves_9_B2:
// 048   ----------------------------------------
	BYTE	FINE

//**************** Track 10 (Midi-Chn.11) ****************//

ClashingOfWaves_10:
	BYTE	KEYSH   ClashingOfWaves_key+0
// 000   ----------------------------------------
	BYTE		VOICE   30
	BYTE		MODT    0
	BYTE		LFOS    44
	BYTE		PAN     c_v+31
	BYTE		VOL     122*ClashingOfWaves_mvl/mxv
	BYTE		MOD     0
	BYTE	W96
// 001   ----------------------------------------
	BYTE	W96
// 002   ----------------------------------------
	BYTE	W96
// 003   ----------------------------------------
	BYTE	W96
ClashingOfWaves_10_B1:
// 004   ----------------------------------------
ClashingOfWaves_10_004:
	BYTE		N05     Gn2   v080
	BYTE	W06
	BYTE		        An2   v064
	BYTE	W36
	BYTE		N11     An2   v060
	BYTE	W54
	BYTE	PEND
// 005   ----------------------------------------
	BYTE		        An2   v064
	BYTE	W96
// 006   ----------------------------------------
	BYTE		N11   
	BYTE	W96
// 007   ----------------------------------------
ClashingOfWaves_10_007:
	BYTE		N05     Gn2   v064
	BYTE	W06
	BYTE		        An2 
	BYTE	W90
	BYTE	PEND
// 008   ----------------------------------------
	BYTE	W96
// 009   ----------------------------------------
	BYTE	W96
// 010   ----------------------------------------
	BYTE	W96
// 011   ----------------------------------------
	BYTE	W96
// 012   ----------------------------------------
	BYTE	PATT
	 POIN2	ClashingOfWaves_10_004
// 013   ----------------------------------------
	BYTE		N11     An2   v064
	BYTE	W96
// 014   ----------------------------------------
	BYTE		N11   
	BYTE	W96
// 015   ----------------------------------------
	BYTE		N11   
	BYTE	W96
// 016   ----------------------------------------
	BYTE	W96
// 017   ----------------------------------------
	BYTE	W96
// 018   ----------------------------------------
	BYTE	W96
// 019   ----------------------------------------
	BYTE	W96
// 020   ----------------------------------------
	BYTE	W96
// 021   ----------------------------------------
	BYTE	W96
// 022   ----------------------------------------
	BYTE	W96
// 023   ----------------------------------------
	BYTE	W96
// 024   ----------------------------------------
	BYTE	PATT
	 POIN2	ClashingOfWaves_10_004
// 025   ----------------------------------------
	BYTE		N11     An2   v064
	BYTE	W96
// 026   ----------------------------------------
	BYTE		N11   
	BYTE	W96
// 027   ----------------------------------------
	BYTE	PATT
	 POIN2	ClashingOfWaves_10_007
// 028   ----------------------------------------
	BYTE	W96
// 029   ----------------------------------------
	BYTE	W96
// 030   ----------------------------------------
	BYTE	W96
// 031   ----------------------------------------
	BYTE	W96
// 032   ----------------------------------------
	BYTE	PATT
	 POIN2	ClashingOfWaves_10_004
// 033   ----------------------------------------
	BYTE		N11     An2   v064
	BYTE	W96
// 034   ----------------------------------------
	BYTE		N11   
	BYTE	W96
// 035   ----------------------------------------
	BYTE	PATT
	 POIN2	ClashingOfWaves_10_007
// 036   ----------------------------------------
	BYTE	W96
// 037   ----------------------------------------
	BYTE	W96
// 038   ----------------------------------------
	BYTE	W96
// 039   ----------------------------------------
	BYTE	W96
// 040   ----------------------------------------
	BYTE	W96
// 041   ----------------------------------------
	BYTE	W96
// 042   ----------------------------------------
	BYTE	W96
// 043   ----------------------------------------
	BYTE	W96
// 044   ----------------------------------------
	BYTE	W96
// 045   ----------------------------------------
	BYTE	W96
// 046   ----------------------------------------
	BYTE	W96
// 047   ----------------------------------------
	BYTE	W96
	BYTE	GoTo
	 POIN2	ClashingOfWaves_10_B1
ClashingOfWaves_10_B2:
// 048   ----------------------------------------
	BYTE	FINE

//**************** Track 11 (Midi-Chn.12) ****************//

ClashingOfWaves_11:
	BYTE	KEYSH   ClashingOfWaves_key+0
// 000   ----------------------------------------
	BYTE		VOICE   31
	BYTE		MODT    0
	BYTE		LFOS    44
	BYTE		PAN     c_v+23
	BYTE		VOL     66*ClashingOfWaves_mvl/mxv
	BYTE		MOD     0
	BYTE	W96
// 001   ----------------------------------------
	BYTE	W96
// 002   ----------------------------------------
	BYTE	W96
// 003   ----------------------------------------
	BYTE	W96
ClashingOfWaves_11_B1:
// 004   ----------------------------------------
ClashingOfWaves_11_004:
	BYTE	W66
	BYTE		MOD     42
	BYTE		N17     An2   v064
	BYTE	W18
	BYTE		MOD     0
	BYTE	W12
	BYTE	PEND
// 005   ----------------------------------------
	BYTE	W96
// 006   ----------------------------------------
	BYTE	PATT
	 POIN2	ClashingOfWaves_11_004
// 007   ----------------------------------------
	BYTE	W96
// 008   ----------------------------------------
	BYTE	W96
// 009   ----------------------------------------
	BYTE	W96
// 010   ----------------------------------------
	BYTE	W96
// 011   ----------------------------------------
ClashingOfWaves_11_011:
	BYTE	W78
	BYTE		MOD     59
	BYTE		N17     En3   v064
	BYTE	W17
	BYTE		MOD     0
	BYTE	W01
	BYTE	PEND
// 012   ----------------------------------------
	BYTE	PATT
	 POIN2	ClashingOfWaves_11_004
// 013   ----------------------------------------
	BYTE	W96
// 014   ----------------------------------------
	BYTE	PATT
	 POIN2	ClashingOfWaves_11_004
// 015   ----------------------------------------
	BYTE	W96
// 016   ----------------------------------------
	BYTE	W96
// 017   ----------------------------------------
	BYTE	W96
// 018   ----------------------------------------
	BYTE	W96
// 019   ----------------------------------------
	BYTE	PATT
	 POIN2	ClashingOfWaves_11_011
// 020   ----------------------------------------
	BYTE	W96
// 021   ----------------------------------------
	BYTE	W96
// 022   ----------------------------------------
	BYTE	W96
// 023   ----------------------------------------
ClashingOfWaves_11_023:
	BYTE	W78
	BYTE		MOD     59
	BYTE		N17     As2   v064
	BYTE	W17
	BYTE		MOD     0
	BYTE	W01
	BYTE	PEND
// 024   ----------------------------------------
	BYTE	PATT
	 POIN2	ClashingOfWaves_11_004
// 025   ----------------------------------------
	BYTE	W96
// 026   ----------------------------------------
	BYTE	PATT
	 POIN2	ClashingOfWaves_11_004
// 027   ----------------------------------------
	BYTE	W96
// 028   ----------------------------------------
	BYTE	W96
// 029   ----------------------------------------
	BYTE	W96
// 030   ----------------------------------------
	BYTE	W96
// 031   ----------------------------------------
	BYTE	PATT
	 POIN2	ClashingOfWaves_11_011
// 032   ----------------------------------------
	BYTE	PATT
	 POIN2	ClashingOfWaves_11_004
// 033   ----------------------------------------
	BYTE	W96
// 034   ----------------------------------------
	BYTE	PATT
	 POIN2	ClashingOfWaves_11_004
// 035   ----------------------------------------
	BYTE	W96
// 036   ----------------------------------------
	BYTE	W96
// 037   ----------------------------------------
	BYTE	W96
// 038   ----------------------------------------
	BYTE	W96
// 039   ----------------------------------------
	BYTE	PATT
	 POIN2	ClashingOfWaves_11_011
// 040   ----------------------------------------
	BYTE	W96
// 041   ----------------------------------------
	BYTE	W96
// 042   ----------------------------------------
	BYTE	W96
// 043   ----------------------------------------
	BYTE	PATT
	 POIN2	ClashingOfWaves_11_023
// 044   ----------------------------------------
	BYTE	W96
// 045   ----------------------------------------
	BYTE	W96
// 046   ----------------------------------------
	BYTE	W96
// 047   ----------------------------------------
	BYTE	W78
	BYTE		MOD     59
	BYTE		N17     An2   v064
	BYTE	W17
	BYTE		MOD     0
	BYTE	W01
	BYTE	GoTo
	 POIN2	ClashingOfWaves_11_B1
ClashingOfWaves_11_B2:
// 048   ----------------------------------------
	BYTE	FINE

//**************** Track 12 (Midi-Chn.13) ****************//

ClashingOfWaves_12:
	BYTE	KEYSH   ClashingOfWaves_key+0
// 000   ----------------------------------------
	BYTE		VOICE   31
	BYTE		MODT    0
	BYTE		LFOS    44
	BYTE		PAN     c_v-25
	BYTE		VOL     116*ClashingOfWaves_mvl/mxv
	BYTE		MOD     0
	BYTE	W96
// 001   ----------------------------------------
	BYTE	W96
// 002   ----------------------------------------
	BYTE	W96
// 003   ----------------------------------------
	BYTE	W66
	BYTE		N28     An2   v044
	BYTE	W30
ClashingOfWaves_12_B1:
// 004   ----------------------------------------
	BYTE	W96
// 005   ----------------------------------------
	BYTE	W96
// 006   ----------------------------------------
	BYTE	W96
// 007   ----------------------------------------
	BYTE	W96
// 008   ----------------------------------------
	BYTE	W96
// 009   ----------------------------------------
	BYTE	W96
// 010   ----------------------------------------
	BYTE	W96
// 011   ----------------------------------------
	BYTE	W96
// 012   ----------------------------------------
	BYTE	W96
// 013   ----------------------------------------
	BYTE	W96
// 014   ----------------------------------------
	BYTE	W96
// 015   ----------------------------------------
	BYTE	W96
// 016   ----------------------------------------
	BYTE	W96
// 017   ----------------------------------------
	BYTE	W96
// 018   ----------------------------------------
	BYTE	W96
// 019   ----------------------------------------
	BYTE	W96
// 020   ----------------------------------------
	BYTE	W96
// 021   ----------------------------------------
	BYTE	W96
// 022   ----------------------------------------
	BYTE	W96
// 023   ----------------------------------------
	BYTE	W96
// 024   ----------------------------------------
	BYTE	W96
// 025   ----------------------------------------
	BYTE	W96
// 026   ----------------------------------------
	BYTE	W96
// 027   ----------------------------------------
	BYTE	W96
// 028   ----------------------------------------
	BYTE	W96
// 029   ----------------------------------------
	BYTE	W96
// 030   ----------------------------------------
	BYTE	W96
// 031   ----------------------------------------
	BYTE	W96
// 032   ----------------------------------------
	BYTE	W96
// 033   ----------------------------------------
	BYTE	W96
// 034   ----------------------------------------
	BYTE	W96
// 035   ----------------------------------------
	BYTE	W96
// 036   ----------------------------------------
	BYTE	W96
// 037   ----------------------------------------
	BYTE	W96
// 038   ----------------------------------------
	BYTE	W96
// 039   ----------------------------------------
	BYTE	W96
// 040   ----------------------------------------
	BYTE	W96
// 041   ----------------------------------------
	BYTE	W96
// 042   ----------------------------------------
	BYTE	W96
// 043   ----------------------------------------
	BYTE	W66
	BYTE		N28     An2   v052
	BYTE	W30
// 044   ----------------------------------------
	BYTE	W96
// 045   ----------------------------------------
	BYTE	W96
// 046   ----------------------------------------
	BYTE	W96
// 047   ----------------------------------------
	BYTE	W96
	BYTE	GoTo
	 POIN2	ClashingOfWaves_12_B1
ClashingOfWaves_12_B2:
// 048   ----------------------------------------
	BYTE	FINE

//**************** Track 13 (Midi-Chn.14) ****************//

ClashingOfWaves_13:
	BYTE	KEYSH   ClashingOfWaves_key+0
// 000   ----------------------------------------
	BYTE		VOICE   2
	BYTE		MODT    0
	BYTE		LFOS    44
	BYTE		PAN     c_v+0
	BYTE		VOL     120*ClashingOfWaves_mvl/mxv
	BYTE	W96
// 001   ----------------------------------------
	BYTE	W96
// 002   ----------------------------------------
	BYTE	W96
// 003   ----------------------------------------
	BYTE	W96
ClashingOfWaves_13_B1:
// 004   ----------------------------------------
	BYTE		VOL     120*ClashingOfWaves_mvl/mxv
	BYTE	W01
	BYTE		N13     Cn3   v044
	BYTE	W18
	BYTE		N03   
	BYTE	W18
	BYTE		N03   
	BYTE	W24
	BYTE		N03   
	BYTE	W18
	BYTE		N03   
	BYTE	W17
// 005   ----------------------------------------
ClashingOfWaves_13_005:
	BYTE	W01
	BYTE		N12     Cn3   v044
	BYTE	W18
	BYTE		N03     Cn3   v036
	BYTE	W18
	BYTE		N03   
	BYTE	W24
	BYTE		N03   
	BYTE	W18
	BYTE		N03   
	BYTE	W17
	BYTE	PEND
// 006   ----------------------------------------
ClashingOfWaves_13_006:
	BYTE	W01
	BYTE		N14     Bn2   v044
	BYTE	W18
	BYTE		N03     Bn2   v036
	BYTE	W18
	BYTE		N03   
	BYTE	W24
	BYTE		N03   
	BYTE	W18
	BYTE		N03   
	BYTE	W17
	BYTE	PEND
// 007   ----------------------------------------
ClashingOfWaves_13_007:
	BYTE	W01
	BYTE		N14     Bn2   v044
	BYTE	W18
	BYTE		N03   
	BYTE	W18
	BYTE		        Bn2   v036
	BYTE	W24
	BYTE		N03   
	BYTE	W18
	BYTE		N03   
	BYTE	W17
	BYTE	PEND
// 008   ----------------------------------------
ClashingOfWaves_13_008:
	BYTE	W01
	BYTE		N13     Cn3   v048
	BYTE	W18
	BYTE		N03     Cn3   v044
	BYTE	W18
	BYTE		        Cn3   v036
	BYTE	W24
	BYTE		        Cn3   v044
	BYTE	W18
	BYTE		        Cn3   v036
	BYTE	W17
	BYTE	PEND
// 009   ----------------------------------------
ClashingOfWaves_13_009:
	BYTE	W01
	BYTE		N13     Cn3   v048
	BYTE	W18
	BYTE		N03     Cn3   v036
	BYTE	W18
	BYTE		N03   
	BYTE	W24
	BYTE		N03   
	BYTE	W18
	BYTE		N03   
	BYTE	W17
	BYTE	PEND
// 010   ----------------------------------------
ClashingOfWaves_13_010:
	BYTE	W01
	BYTE		N13     Bn2   v044
	BYTE	W18
	BYTE		N03   
	BYTE	W18
	BYTE		        Bn2   v040
	BYTE	W24
	BYTE		        Bn2   v036
	BYTE	W18
	BYTE		        Bn2   v040
	BYTE	W17
	BYTE	PEND
// 011   ----------------------------------------
ClashingOfWaves_13_011:
	BYTE	W01
	BYTE		N13     Bn2   v044
	BYTE	W18
	BYTE		N03   
	BYTE	W18
	BYTE		N03   
	BYTE	W24
	BYTE		        Bn2   v036
	BYTE	W18
	BYTE		N03   
	BYTE	W17
	BYTE	PEND
// 012   ----------------------------------------
ClashingOfWaves_13_012:
	BYTE	W01
	BYTE		N13     Cn3   v044
	BYTE	W18
	BYTE		N03   
	BYTE	W18
	BYTE		N03   
	BYTE	W24
	BYTE		N03   
	BYTE	W18
	BYTE		N03   
	BYTE	W17
	BYTE	PEND
// 013   ----------------------------------------
	BYTE	PATT
	 POIN2	ClashingOfWaves_13_005
// 014   ----------------------------------------
	BYTE	PATT
	 POIN2	ClashingOfWaves_13_006
// 015   ----------------------------------------
	BYTE	PATT
	 POIN2	ClashingOfWaves_13_007
// 016   ----------------------------------------
	BYTE	PATT
	 POIN2	ClashingOfWaves_13_008
// 017   ----------------------------------------
	BYTE	PATT
	 POIN2	ClashingOfWaves_13_009
// 018   ----------------------------------------
	BYTE	PATT
	 POIN2	ClashingOfWaves_13_010
// 019   ----------------------------------------
	BYTE	PATT
	 POIN2	ClashingOfWaves_13_011
// 020   ----------------------------------------
ClashingOfWaves_13_020:
	BYTE	W01
	BYTE		PAN     c_v+0
	BYTE		VOL     116*ClashingOfWaves_mvl/mxv
	BYTE	W92
	BYTE	W03
	BYTE	PEND
// 021   ----------------------------------------
	BYTE	W96
// 022   ----------------------------------------
	BYTE	W96
// 023   ----------------------------------------
	BYTE	W96
// 024   ----------------------------------------
	BYTE	PATT
	 POIN2	ClashingOfWaves_13_012
// 025   ----------------------------------------
	BYTE	PATT
	 POIN2	ClashingOfWaves_13_005
// 026   ----------------------------------------
	BYTE	PATT
	 POIN2	ClashingOfWaves_13_006
// 027   ----------------------------------------
	BYTE	PATT
	 POIN2	ClashingOfWaves_13_007
// 028   ----------------------------------------
	BYTE	PATT
	 POIN2	ClashingOfWaves_13_008
// 029   ----------------------------------------
	BYTE	PATT
	 POIN2	ClashingOfWaves_13_009
// 030   ----------------------------------------
	BYTE	PATT
	 POIN2	ClashingOfWaves_13_010
// 031   ----------------------------------------
	BYTE	PATT
	 POIN2	ClashingOfWaves_13_011
// 032   ----------------------------------------
	BYTE	PATT
	 POIN2	ClashingOfWaves_13_012
// 033   ----------------------------------------
	BYTE	PATT
	 POIN2	ClashingOfWaves_13_005
// 034   ----------------------------------------
	BYTE	PATT
	 POIN2	ClashingOfWaves_13_006
// 035   ----------------------------------------
	BYTE	PATT
	 POIN2	ClashingOfWaves_13_007
// 036   ----------------------------------------
	BYTE	PATT
	 POIN2	ClashingOfWaves_13_008
// 037   ----------------------------------------
	BYTE	PATT
	 POIN2	ClashingOfWaves_13_009
// 038   ----------------------------------------
	BYTE	PATT
	 POIN2	ClashingOfWaves_13_010
// 039   ----------------------------------------
	BYTE	PATT
	 POIN2	ClashingOfWaves_13_011
// 040   ----------------------------------------
	BYTE	PATT
	 POIN2	ClashingOfWaves_13_020
// 041   ----------------------------------------
	BYTE	W96
// 042   ----------------------------------------
	BYTE	W96
// 043   ----------------------------------------
	BYTE	W96
// 044   ----------------------------------------
	BYTE	W96
// 045   ----------------------------------------
	BYTE	W96
// 046   ----------------------------------------
	BYTE	W96
// 047   ----------------------------------------
	BYTE	W96
	BYTE	GoTo
	 POIN2	ClashingOfWaves_13_B1
ClashingOfWaves_13_B2:
// 048   ----------------------------------------
	BYTE	FINE

//**************** Track 14 (Midi-Chn.15) ****************//

ClashingOfWaves_14:
	BYTE	KEYSH   ClashingOfWaves_key+0
// 000   ----------------------------------------
	BYTE		VOICE   2
	BYTE		MODT    0
	BYTE		LFOS    44
	BYTE		PAN     c_v+63
	BYTE		VOL     120*ClashingOfWaves_mvl/mxv
	BYTE	W96
// 001   ----------------------------------------
	BYTE	W96
// 002   ----------------------------------------
	BYTE	W96
// 003   ----------------------------------------
	BYTE	W96
ClashingOfWaves_14_B1:
// 004   ----------------------------------------
	BYTE		VOL     120*ClashingOfWaves_mvl/mxv
	BYTE		N13     An2   v044
	BYTE	W18
	BYTE		N03   
	BYTE	W18
	BYTE		        An2   v048
	BYTE	W24
	BYTE		        An2   v044
	BYTE	W18
	BYTE		        An2   v048
	BYTE	W18
// 005   ----------------------------------------
ClashingOfWaves_14_005:
	BYTE		N12     An2   v052
	BYTE	W18
	BYTE		N03     An2   v044
	BYTE	W18
	BYTE		        An2   v048
	BYTE	W24
	BYTE		N03   
	BYTE	W18
	BYTE		        An2   v044
	BYTE	W18
	BYTE	PEND
// 006   ----------------------------------------
ClashingOfWaves_14_006:
	BYTE		N14     Gn2   v048
	BYTE	W18
	BYTE		N03     Gn2   v040
	BYTE	W18
	BYTE		N03   
	BYTE	W24
	BYTE		        Gn2   v036
	BYTE	W18
	BYTE		        Gn2   v044
	BYTE	W18
	BYTE	PEND
// 007   ----------------------------------------
ClashingOfWaves_14_007:
	BYTE		N14     Gn2   v044
	BYTE	W18
	BYTE		N03   
	BYTE	W18
	BYTE		        Gn2   v036
	BYTE	W24
	BYTE		N03   
	BYTE	W18
	BYTE		N03   
	BYTE	W18
	BYTE	PEND
// 008   ----------------------------------------
ClashingOfWaves_14_008:
	BYTE		N13     An2   v052
	BYTE	W18
	BYTE		N03     An2   v048
	BYTE	W18
	BYTE		        An2   v044
	BYTE	W24
	BYTE		N03   
	BYTE	W18
	BYTE		N03   
	BYTE	W18
	BYTE	PEND
// 009   ----------------------------------------
ClashingOfWaves_14_009:
	BYTE		N13     An2   v048
	BYTE	W18
	BYTE		N03     An2   v052
	BYTE	W18
	BYTE		        An2   v036
	BYTE	W24
	BYTE		N03   
	BYTE	W18
	BYTE		        An2   v044
	BYTE	W18
	BYTE	PEND
// 010   ----------------------------------------
ClashingOfWaves_14_010:
	BYTE		N13     An2   v048
	BYTE	W18
	BYTE		N03     An2   v044
	BYTE	W18
	BYTE		N03   
	BYTE	W24
	BYTE		        An2   v040
	BYTE	W18
	BYTE		        An2   v044
	BYTE	W18
	BYTE	PEND
// 011   ----------------------------------------
ClashingOfWaves_14_011:
	BYTE		N13     Gs2   v052
	BYTE	W18
	BYTE		N03     Gs2   v048
	BYTE	W18
	BYTE		        Gs2   v044
	BYTE	W24
	BYTE		N03   
	BYTE	W18
	BYTE		N03   
	BYTE	W18
	BYTE	PEND
// 012   ----------------------------------------
ClashingOfWaves_14_012:
	BYTE		N13     An2   v044
	BYTE	W18
	BYTE		N03   
	BYTE	W18
	BYTE		        An2   v048
	BYTE	W24
	BYTE		        An2   v044
	BYTE	W18
	BYTE		        An2   v048
	BYTE	W18
	BYTE	PEND
// 013   ----------------------------------------
	BYTE	PATT
	 POIN2	ClashingOfWaves_14_005
// 014   ----------------------------------------
	BYTE	PATT
	 POIN2	ClashingOfWaves_14_006
// 015   ----------------------------------------
	BYTE	PATT
	 POIN2	ClashingOfWaves_14_007
// 016   ----------------------------------------
	BYTE	PATT
	 POIN2	ClashingOfWaves_14_008
// 017   ----------------------------------------
	BYTE	PATT
	 POIN2	ClashingOfWaves_14_009
// 018   ----------------------------------------
	BYTE	PATT
	 POIN2	ClashingOfWaves_14_010
// 019   ----------------------------------------
	BYTE	PATT
	 POIN2	ClashingOfWaves_14_011
// 020   ----------------------------------------
	BYTE	W96
// 021   ----------------------------------------
	BYTE	W96
// 022   ----------------------------------------
	BYTE	W96
// 023   ----------------------------------------
	BYTE	W96
// 024   ----------------------------------------
	BYTE		VOL     116*ClashingOfWaves_mvl/mxv
	BYTE		N13     An2   v044
	BYTE	W18
	BYTE		N03   
	BYTE	W18
	BYTE		        An2   v048
	BYTE	W24
	BYTE		        An2   v044
	BYTE	W18
	BYTE		        An2   v048
	BYTE	W18
// 025   ----------------------------------------
	BYTE	PATT
	 POIN2	ClashingOfWaves_14_005
// 026   ----------------------------------------
	BYTE	PATT
	 POIN2	ClashingOfWaves_14_006
// 027   ----------------------------------------
	BYTE	PATT
	 POIN2	ClashingOfWaves_14_007
// 028   ----------------------------------------
	BYTE	PATT
	 POIN2	ClashingOfWaves_14_008
// 029   ----------------------------------------
	BYTE	PATT
	 POIN2	ClashingOfWaves_14_009
// 030   ----------------------------------------
	BYTE	PATT
	 POIN2	ClashingOfWaves_14_010
// 031   ----------------------------------------
	BYTE	PATT
	 POIN2	ClashingOfWaves_14_011
// 032   ----------------------------------------
	BYTE	PATT
	 POIN2	ClashingOfWaves_14_012
// 033   ----------------------------------------
	BYTE	PATT
	 POIN2	ClashingOfWaves_14_005
// 034   ----------------------------------------
	BYTE	PATT
	 POIN2	ClashingOfWaves_14_006
// 035   ----------------------------------------
	BYTE	PATT
	 POIN2	ClashingOfWaves_14_007
// 036   ----------------------------------------
	BYTE	PATT
	 POIN2	ClashingOfWaves_14_008
// 037   ----------------------------------------
	BYTE	PATT
	 POIN2	ClashingOfWaves_14_009
// 038   ----------------------------------------
	BYTE	PATT
	 POIN2	ClashingOfWaves_14_010
// 039   ----------------------------------------
	BYTE	PATT
	 POIN2	ClashingOfWaves_14_011
// 040   ----------------------------------------
	BYTE	W96
// 041   ----------------------------------------
	BYTE	W96
// 042   ----------------------------------------
	BYTE	W96
// 043   ----------------------------------------
	BYTE	W96
// 044   ----------------------------------------
	BYTE	W96
// 045   ----------------------------------------
	BYTE	W96
// 046   ----------------------------------------
	BYTE	W96
// 047   ----------------------------------------
	BYTE	W96
	BYTE	GoTo
	 POIN2	ClashingOfWaves_14_B1
ClashingOfWaves_14_B2:
// 048   ----------------------------------------
	BYTE		VOL     116*ClashingOfWaves_mvl/mxv
	BYTE	FINE

//**************** Track 15 (Midi-Chn.16) ****************//

ClashingOfWaves_15:
	BYTE	KEYSH   ClashingOfWaves_key+0
// 000   ----------------------------------------
	BYTE		VOICE   2
	BYTE		MODT    0
	BYTE		LFOS    44
	BYTE		PAN     c_v-50
	BYTE		VOL     100*ClashingOfWaves_mvl/mxv
	BYTE	W96
// 001   ----------------------------------------
	BYTE	W96
// 002   ----------------------------------------
	BYTE	W96
// 003   ----------------------------------------
	BYTE	W96
ClashingOfWaves_15_B1:
// 004   ----------------------------------------
	BYTE		VOL     100*ClashingOfWaves_mvl/mxv
	BYTE		N13     En3   v052
	BYTE	W18
	BYTE		N03     En3   v048
	BYTE	W18
	BYTE		        En3   v036
	BYTE	W24
	BYTE		N03   
	BYTE	W18
	BYTE		        En3   v044
	BYTE	W18
// 005   ----------------------------------------
ClashingOfWaves_15_005:
	BYTE		N12     Fn3   v044
	BYTE	W18
	BYTE		N03     Fn3   v036
	BYTE	W18
	BYTE		        Fn3   v044
	BYTE	W24
	BYTE		        Fn3   v036
	BYTE	W18
	BYTE		        Fn3   v040
	BYTE	W18
	BYTE	PEND
// 006   ----------------------------------------
ClashingOfWaves_15_006:
	BYTE		N14     Dn3   v044
	BYTE	W18
	BYTE		N03     Dn3   v036
	BYTE	W18
	BYTE		N03   
	BYTE	W24
	BYTE		N03   
	BYTE	W18
	BYTE		N03   
	BYTE	W18
	BYTE	PEND
// 007   ----------------------------------------
ClashingOfWaves_15_007:
	BYTE		N14     En3   v044
	BYTE	W18
	BYTE		N03   
	BYTE	W18
	BYTE		N03   
	BYTE	W24
	BYTE		        Dn3   v040
	BYTE	W18
	BYTE		        Dn3   v044
	BYTE	W18
	BYTE	PEND
// 008   ----------------------------------------
ClashingOfWaves_15_008:
	BYTE		N13     En3   v044
	BYTE	W18
	BYTE		N03     En3   v040
	BYTE	W18
	BYTE		        En3   v044
	BYTE	W24
	BYTE		N03   
	BYTE	W18
	BYTE		        En3   v036
	BYTE	W18
	BYTE	PEND
// 009   ----------------------------------------
ClashingOfWaves_15_009:
	BYTE		N13     Fn3   v040
	BYTE	W18
	BYTE		N03     Fn3   v036
	BYTE	W18
	BYTE		N03   
	BYTE	W24
	BYTE		        Fn3   v040
	BYTE	W18
	BYTE		        Fn3   v036
	BYTE	W18
	BYTE	PEND
// 010   ----------------------------------------
ClashingOfWaves_15_010:
	BYTE		N13     En3   v044
	BYTE	W18
	BYTE		N03   
	BYTE	W18
	BYTE		        En3   v036
	BYTE	W24
	BYTE		N03   
	BYTE	W18
	BYTE		        En3   v044
	BYTE	W18
	BYTE	PEND
// 011   ----------------------------------------
ClashingOfWaves_15_011:
	BYTE		N13     Dn3   v048
	BYTE	W18
	BYTE		N03     Dn3   v044
	BYTE	W18
	BYTE		N03   
	BYTE	W24
	BYTE		        En3 
	BYTE	W18
	BYTE		N03   
	BYTE	W18
	BYTE	PEND
// 012   ----------------------------------------
ClashingOfWaves_15_012:
	BYTE		N13     En3   v052
	BYTE	W18
	BYTE		N03     En3   v048
	BYTE	W18
	BYTE		        En3   v036
	BYTE	W24
	BYTE		N03   
	BYTE	W18
	BYTE		        En3   v044
	BYTE	W18
	BYTE	PEND
// 013   ----------------------------------------
	BYTE	PATT
	 POIN2	ClashingOfWaves_15_005
// 014   ----------------------------------------
	BYTE	PATT
	 POIN2	ClashingOfWaves_15_006
// 015   ----------------------------------------
	BYTE	PATT
	 POIN2	ClashingOfWaves_15_007
// 016   ----------------------------------------
	BYTE	PATT
	 POIN2	ClashingOfWaves_15_008
// 017   ----------------------------------------
	BYTE	PATT
	 POIN2	ClashingOfWaves_15_009
// 018   ----------------------------------------
	BYTE	PATT
	 POIN2	ClashingOfWaves_15_010
// 019   ----------------------------------------
	BYTE	PATT
	 POIN2	ClashingOfWaves_15_011
// 020   ----------------------------------------
	BYTE		PAN     c_v-50
	BYTE		VOL     116*ClashingOfWaves_mvl/mxv
	BYTE	W96
// 021   ----------------------------------------
	BYTE	W96
// 022   ----------------------------------------
	BYTE	W96
// 023   ----------------------------------------
	BYTE	W96
// 024   ----------------------------------------
	BYTE	PATT
	 POIN2	ClashingOfWaves_15_012
// 025   ----------------------------------------
	BYTE	PATT
	 POIN2	ClashingOfWaves_15_005
// 026   ----------------------------------------
	BYTE	PATT
	 POIN2	ClashingOfWaves_15_006
// 027   ----------------------------------------
	BYTE	PATT
	 POIN2	ClashingOfWaves_15_007
// 028   ----------------------------------------
	BYTE	PATT
	 POIN2	ClashingOfWaves_15_008
// 029   ----------------------------------------
	BYTE	PATT
	 POIN2	ClashingOfWaves_15_009
// 030   ----------------------------------------
	BYTE	PATT
	 POIN2	ClashingOfWaves_15_010
// 031   ----------------------------------------
	BYTE	PATT
	 POIN2	ClashingOfWaves_15_011
// 032   ----------------------------------------
	BYTE	PATT
	 POIN2	ClashingOfWaves_15_012
// 033   ----------------------------------------
	BYTE	PATT
	 POIN2	ClashingOfWaves_15_005
// 034   ----------------------------------------
	BYTE	PATT
	 POIN2	ClashingOfWaves_15_006
// 035   ----------------------------------------
	BYTE	PATT
	 POIN2	ClashingOfWaves_15_007
// 036   ----------------------------------------
	BYTE	PATT
	 POIN2	ClashingOfWaves_15_008
// 037   ----------------------------------------
	BYTE	PATT
	 POIN2	ClashingOfWaves_15_009
// 038   ----------------------------------------
	BYTE	PATT
	 POIN2	ClashingOfWaves_15_010
// 039   ----------------------------------------
	BYTE	PATT
	 POIN2	ClashingOfWaves_15_011
// 040   ----------------------------------------
	BYTE		PAN     c_v-50
	BYTE		VOL     116*ClashingOfWaves_mvl/mxv
	BYTE	W96
// 041   ----------------------------------------
	BYTE	W96
// 042   ----------------------------------------
	BYTE	W96
// 043   ----------------------------------------
	BYTE	W96
// 044   ----------------------------------------
	BYTE	W96
// 045   ----------------------------------------
	BYTE	W96
// 046   ----------------------------------------
	BYTE	W96
// 047   ----------------------------------------
	BYTE	W96
	BYTE	GoTo
	 POIN2	ClashingOfWaves_15_B1
ClashingOfWaves_15_B2:
// 048   ----------------------------------------
	BYTE	FINE

//******************************************************//
	ALIGN 4

ClashingOfWaves:
	BYTE	15	// NumTrks
	BYTE	0	// NumBlks
	BYTE	ClashingOfWaves_pri	// Priority
	BYTE	ClashingOfWaves_rev	// Reverb.

	POIN2	ClashingOfWaves_grp

	POIN2	ClashingOfWaves_1
	POIN2	ClashingOfWaves_2
	POIN2	ClashingOfWaves_3
	POIN2	ClashingOfWaves_4
	POIN2	ClashingOfWaves_5
	POIN2	ClashingOfWaves_6
	POIN2	ClashingOfWaves_7
	POIN2	ClashingOfWaves_8
	POIN2	ClashingOfWaves_9
	POIN2	ClashingOfWaves_10
	POIN2	ClashingOfWaves_11
	POIN2	ClashingOfWaves_12
	POIN2	ClashingOfWaves_13
	POIN2	ClashingOfWaves_14
	POIN2	ClashingOfWaves_15

	
